G04 #@! TF.GenerationSoftware,KiCad,Pcbnew,(5.1.8)-1*
G04 #@! TF.CreationDate,2021-09-29T13:24:07+02:00*
G04 #@! TF.ProjectId,Amiga Drawbridge,416d6967-6120-4447-9261-776272696467,rev?*
G04 #@! TF.SameCoordinates,Original*
G04 #@! TF.FileFunction,Legend,Bot*
G04 #@! TF.FilePolarity,Positive*
%FSLAX46Y46*%
G04 Gerber Fmt 4.6, Leading zero omitted, Abs format (unit mm)*
G04 Created by KiCad (PCBNEW (5.1.8)-1) date 2021-09-29 13:24:07*
%MOMM*%
%LPD*%
G01*
G04 APERTURE LIST*
%ADD10C,0.120000*%
%ADD11C,0.100000*%
%ADD12C,0.300000*%
%ADD13C,0.150000*%
%ADD14C,0.200000*%
G04 APERTURE END LIST*
D10*
X191000000Y-60000000D02*
X191000000Y-65000000D01*
X196000000Y-60000000D02*
X191000000Y-60000000D01*
X196000000Y-65000000D02*
X196000000Y-60000000D01*
X191000000Y-65000000D02*
X196000000Y-65000000D01*
D11*
G36*
X155700000Y-87300000D02*
G01*
X157800000Y-87900000D01*
X159500000Y-88800000D01*
X161300000Y-90100000D01*
X162400000Y-91300000D01*
X163100000Y-92100000D01*
X163800000Y-93200000D01*
X164200000Y-94000000D01*
X147100000Y-88500000D01*
X148400000Y-87900000D01*
X150300000Y-87300000D01*
X152000000Y-87000000D01*
X153600000Y-87000000D01*
X155700000Y-87300000D01*
G37*
X155700000Y-87300000D02*
X157800000Y-87900000D01*
X159500000Y-88800000D01*
X161300000Y-90100000D01*
X162400000Y-91300000D01*
X163100000Y-92100000D01*
X163800000Y-93200000D01*
X164200000Y-94000000D01*
X147100000Y-88500000D01*
X148400000Y-87900000D01*
X150300000Y-87300000D01*
X152000000Y-87000000D01*
X153600000Y-87000000D01*
X155700000Y-87300000D01*
G36*
X150500000Y-98700000D02*
G01*
X150400000Y-99100000D01*
X150500000Y-99400000D01*
X150615185Y-99711237D01*
X150800000Y-100000000D01*
X147600000Y-100000000D01*
X147953637Y-98530233D01*
X148000000Y-98200000D01*
X150800000Y-98200000D01*
X150500000Y-98700000D01*
G37*
X150500000Y-98700000D02*
X150400000Y-99100000D01*
X150500000Y-99400000D01*
X150615185Y-99711237D01*
X150800000Y-100000000D01*
X147600000Y-100000000D01*
X147953637Y-98530233D01*
X148000000Y-98200000D01*
X150800000Y-98200000D01*
X150500000Y-98700000D01*
G36*
X164200000Y-94000000D02*
G01*
X165100000Y-96300000D01*
X165500000Y-98900000D01*
X165300000Y-101700000D01*
X164800000Y-103700000D01*
X146530132Y-103842824D01*
X146700000Y-103200000D01*
X147200000Y-101400000D01*
X147600000Y-100000000D01*
X150800000Y-100000000D01*
X151615185Y-101443288D01*
X151900000Y-101800000D01*
X152300000Y-102000000D01*
X152800000Y-102100000D01*
X153100000Y-102000000D01*
X153500000Y-101800000D01*
X155200000Y-100800000D01*
X155400000Y-100600000D01*
X155600000Y-100300000D01*
X155700000Y-99800000D01*
X155600000Y-99400000D01*
X155300000Y-98800000D01*
X154400000Y-97300000D01*
X154100000Y-97000000D01*
X153500000Y-96800000D01*
X153000000Y-96900000D01*
X150800000Y-98200000D01*
X148000000Y-98200000D01*
X147900000Y-97700000D01*
X147800000Y-97500000D01*
X147500000Y-97200000D01*
X147069753Y-96999301D01*
X147100000Y-88500000D01*
X164200000Y-94000000D01*
G37*
X164200000Y-94000000D02*
X165100000Y-96300000D01*
X165500000Y-98900000D01*
X165300000Y-101700000D01*
X164800000Y-103700000D01*
X146530132Y-103842824D01*
X146700000Y-103200000D01*
X147200000Y-101400000D01*
X147600000Y-100000000D01*
X150800000Y-100000000D01*
X151615185Y-101443288D01*
X151900000Y-101800000D01*
X152300000Y-102000000D01*
X152800000Y-102100000D01*
X153100000Y-102000000D01*
X153500000Y-101800000D01*
X155200000Y-100800000D01*
X155400000Y-100600000D01*
X155600000Y-100300000D01*
X155700000Y-99800000D01*
X155600000Y-99400000D01*
X155300000Y-98800000D01*
X154400000Y-97300000D01*
X154100000Y-97000000D01*
X153500000Y-96800000D01*
X153000000Y-96900000D01*
X150800000Y-98200000D01*
X148000000Y-98200000D01*
X147900000Y-97700000D01*
X147800000Y-97500000D01*
X147500000Y-97200000D01*
X147069753Y-96999301D01*
X147100000Y-88500000D01*
X164200000Y-94000000D01*
G36*
X143200000Y-98900000D02*
G01*
X142312875Y-102195177D01*
X142200000Y-102700000D01*
X142500000Y-103600000D01*
X142800000Y-103900000D01*
X143200000Y-104200000D01*
X143800000Y-104400000D01*
X144900000Y-104700000D01*
X145300000Y-104800000D01*
X145800000Y-104700000D01*
X146100000Y-104500000D01*
X146400000Y-104200000D01*
X146530132Y-103842824D01*
X164800000Y-103700000D01*
X163800000Y-105700000D01*
X162600000Y-107500000D01*
X161400000Y-108700000D01*
X160000000Y-109900000D01*
X158500000Y-110700000D01*
X157400000Y-111200000D01*
X155700000Y-111700000D01*
X154400000Y-111900000D01*
X152800000Y-112000000D01*
X151200000Y-111900000D01*
X149700000Y-111600000D01*
X148100000Y-111000000D01*
X146700000Y-110300000D01*
X145100000Y-109200000D01*
X143700000Y-107900000D01*
X142700000Y-106600000D01*
X141800000Y-105100000D01*
X141200000Y-103600000D01*
X140700000Y-102000000D01*
X140500000Y-100600000D01*
X140500000Y-98900000D01*
X140700000Y-97400000D01*
X143600000Y-97400000D01*
X143200000Y-98900000D01*
G37*
X143200000Y-98900000D02*
X142312875Y-102195177D01*
X142200000Y-102700000D01*
X142500000Y-103600000D01*
X142800000Y-103900000D01*
X143200000Y-104200000D01*
X143800000Y-104400000D01*
X144900000Y-104700000D01*
X145300000Y-104800000D01*
X145800000Y-104700000D01*
X146100000Y-104500000D01*
X146400000Y-104200000D01*
X146530132Y-103842824D01*
X164800000Y-103700000D01*
X163800000Y-105700000D01*
X162600000Y-107500000D01*
X161400000Y-108700000D01*
X160000000Y-109900000D01*
X158500000Y-110700000D01*
X157400000Y-111200000D01*
X155700000Y-111700000D01*
X154400000Y-111900000D01*
X152800000Y-112000000D01*
X151200000Y-111900000D01*
X149700000Y-111600000D01*
X148100000Y-111000000D01*
X146700000Y-110300000D01*
X145100000Y-109200000D01*
X143700000Y-107900000D01*
X142700000Y-106600000D01*
X141800000Y-105100000D01*
X141200000Y-103600000D01*
X140700000Y-102000000D01*
X140500000Y-100600000D01*
X140500000Y-98900000D01*
X140700000Y-97400000D01*
X143600000Y-97400000D01*
X143200000Y-98900000D01*
G36*
X147069753Y-96999301D02*
G01*
X145300000Y-96500000D01*
X144800000Y-96400000D01*
X144200000Y-96600000D01*
X143800000Y-96900000D01*
X143606970Y-97365549D01*
X143600000Y-97400000D01*
X140700000Y-97400000D01*
X141200000Y-95400000D01*
X141900000Y-93800000D01*
X142900000Y-92200000D01*
X143600000Y-91300000D01*
X145800000Y-89300000D01*
X147100000Y-88500000D01*
X147069753Y-96999301D01*
G37*
X147069753Y-96999301D02*
X145300000Y-96500000D01*
X144800000Y-96400000D01*
X144200000Y-96600000D01*
X143800000Y-96900000D01*
X143606970Y-97365549D01*
X143600000Y-97400000D01*
X140700000Y-97400000D01*
X141200000Y-95400000D01*
X141900000Y-93800000D01*
X142900000Y-92200000D01*
X143600000Y-91300000D01*
X145800000Y-89300000D01*
X147100000Y-88500000D01*
X147069753Y-96999301D01*
G36*
X176000000Y-117600000D02*
G01*
X176400000Y-118000000D01*
X176500000Y-118500000D01*
X176500000Y-144500000D01*
X171500000Y-144500000D01*
X171500000Y-146000000D01*
X148500000Y-146000000D01*
X148500000Y-120000000D01*
X148700000Y-117500000D01*
X175500000Y-117500000D01*
X176000000Y-117600000D01*
G37*
X176000000Y-117600000D02*
X176400000Y-118000000D01*
X176500000Y-118500000D01*
X176500000Y-144500000D01*
X171500000Y-144500000D01*
X171500000Y-146000000D01*
X148500000Y-146000000D01*
X148500000Y-120000000D01*
X148700000Y-117500000D01*
X175500000Y-117500000D01*
X176000000Y-117600000D01*
G36*
X148700000Y-120000000D02*
G01*
X148500000Y-120000000D01*
X148500000Y-119800000D01*
X148300000Y-119600000D01*
X148000000Y-119500000D01*
X136800000Y-119500000D01*
X136600000Y-119700000D01*
X136500000Y-120000000D01*
X136500000Y-144100000D01*
X136700000Y-144400000D01*
X137000000Y-144500000D01*
X140500000Y-144500000D01*
X140500000Y-146000000D01*
X144500000Y-146000000D01*
X144500000Y-144500000D01*
X148200000Y-144500000D01*
X148400000Y-144300000D01*
X148500000Y-144000000D01*
X148500000Y-146000000D01*
X175000000Y-146000000D01*
X175000000Y-144500000D01*
X176500000Y-144500000D01*
X176500000Y-149000000D01*
X129500000Y-149000000D01*
X129500000Y-118300000D01*
X129600000Y-118100000D01*
X129800000Y-117800000D01*
X130100000Y-117600000D01*
X130500000Y-117500000D01*
X148700000Y-117500000D01*
X148700000Y-120000000D01*
G37*
X148700000Y-120000000D02*
X148500000Y-120000000D01*
X148500000Y-119800000D01*
X148300000Y-119600000D01*
X148000000Y-119500000D01*
X136800000Y-119500000D01*
X136600000Y-119700000D01*
X136500000Y-120000000D01*
X136500000Y-144100000D01*
X136700000Y-144400000D01*
X137000000Y-144500000D01*
X140500000Y-144500000D01*
X140500000Y-146000000D01*
X144500000Y-146000000D01*
X144500000Y-144500000D01*
X148200000Y-144500000D01*
X148400000Y-144300000D01*
X148500000Y-144000000D01*
X148500000Y-146000000D01*
X175000000Y-146000000D01*
X175000000Y-144500000D01*
X176500000Y-144500000D01*
X176500000Y-149000000D01*
X129500000Y-149000000D01*
X129500000Y-118300000D01*
X129600000Y-118100000D01*
X129800000Y-117800000D01*
X130100000Y-117600000D01*
X130500000Y-117500000D01*
X148700000Y-117500000D01*
X148700000Y-120000000D01*
D10*
X143606970Y-97365548D02*
X142312875Y-102195177D01*
X143550312Y-104338481D02*
X144999201Y-104726709D01*
X143550312Y-104338480D02*
G75*
G02*
X142312875Y-102195177I452933J1690370D01*
G01*
X146530132Y-103842824D02*
G75*
G02*
X144999201Y-104726709I-1207408J323523D01*
G01*
X147069753Y-96999302D02*
X145137901Y-96481664D01*
X146530132Y-103842825D02*
X147953637Y-98530233D01*
X147069753Y-96999301D02*
G75*
G02*
X147953637Y-98530233I-323524J-1207408D01*
G01*
X143606970Y-97365549D02*
G75*
G02*
X145137901Y-96481664I1207408J-323523D01*
G01*
X155512299Y-99193288D02*
G75*
G02*
X155054767Y-100900820I-1082532J-625000D01*
G01*
X153322716Y-101900819D02*
G75*
G02*
X151615185Y-101443288I-625000J1082531D01*
G01*
X150615184Y-99711237D02*
G75*
G02*
X151072716Y-98003705I1082532J625000D01*
G01*
X152804767Y-97003705D02*
G75*
G02*
X154512299Y-97461237I625000J-1082532D01*
G01*
X152804767Y-97003705D02*
X151072716Y-98003705D01*
X155512299Y-99193288D02*
X154512299Y-97461237D01*
X153322716Y-101900820D02*
X155054767Y-100900820D01*
X150615185Y-99711237D02*
X151615185Y-101443288D01*
D12*
X165500000Y-99500000D02*
G75*
G03*
X165500000Y-99500000I-12500000J0D01*
G01*
X166500000Y-100000000D02*
G75*
G03*
X166500000Y-100000000I-13500000J0D01*
G01*
D10*
X194500000Y-55500000D02*
X192500000Y-55500000D01*
X192000000Y-56000000D02*
X190500000Y-56000000D01*
X192500000Y-55500000D02*
X192000000Y-56000000D01*
X195000000Y-56000000D02*
X196500000Y-56000000D01*
X194500000Y-55500000D02*
X195000000Y-56000000D01*
X196500000Y-65500000D02*
X190500000Y-65500000D01*
X196500000Y-56000000D02*
X196500000Y-65500000D01*
X190500000Y-65500000D02*
X190500000Y-56000000D01*
D13*
X184976190Y-71452380D02*
X184976190Y-70452380D01*
X184642857Y-71166666D01*
X184309523Y-70452380D01*
X184309523Y-71452380D01*
X183880952Y-71166666D02*
X183404761Y-71166666D01*
X183976190Y-71452380D02*
X183642857Y-70452380D01*
X183309523Y-71452380D01*
X182976190Y-71452380D02*
X182976190Y-70452380D01*
X182738095Y-70452380D01*
X182595238Y-70500000D01*
X182500000Y-70595238D01*
X182452380Y-70690476D01*
X182404761Y-70880952D01*
X182404761Y-71023809D01*
X182452380Y-71214285D01*
X182500000Y-71309523D01*
X182595238Y-71404761D01*
X182738095Y-71452380D01*
X182976190Y-71452380D01*
X181976190Y-70928571D02*
X181642857Y-70928571D01*
X181500000Y-71452380D02*
X181976190Y-71452380D01*
X181976190Y-70452380D01*
X181500000Y-70452380D01*
X180309523Y-71452380D02*
X180309523Y-70452380D01*
X179833333Y-71452380D02*
X179833333Y-70452380D01*
X179261904Y-71452380D01*
X179261904Y-70452380D01*
X177547619Y-71452380D02*
X178023809Y-71452380D01*
X178023809Y-70452380D01*
X177023809Y-70452380D02*
X176833333Y-70452380D01*
X176738095Y-70500000D01*
X176642857Y-70595238D01*
X176595238Y-70785714D01*
X176595238Y-71119047D01*
X176642857Y-71309523D01*
X176738095Y-71404761D01*
X176833333Y-71452380D01*
X177023809Y-71452380D01*
X177119047Y-71404761D01*
X177214285Y-71309523D01*
X177261904Y-71119047D01*
X177261904Y-70785714D01*
X177214285Y-70595238D01*
X177119047Y-70500000D01*
X177023809Y-70452380D01*
X175833333Y-70928571D02*
X176166666Y-70928571D01*
X176166666Y-71452380D02*
X176166666Y-70452380D01*
X175690476Y-70452380D01*
X175119047Y-70452380D02*
X174928571Y-70452380D01*
X174833333Y-70500000D01*
X174738095Y-70595238D01*
X174690476Y-70785714D01*
X174690476Y-71119047D01*
X174738095Y-71309523D01*
X174833333Y-71404761D01*
X174928571Y-71452380D01*
X175119047Y-71452380D01*
X175214285Y-71404761D01*
X175309523Y-71309523D01*
X175357142Y-71119047D01*
X175357142Y-70785714D01*
X175309523Y-70595238D01*
X175214285Y-70500000D01*
X175119047Y-70452380D01*
X174404761Y-70452380D02*
X173833333Y-70452380D01*
X174119047Y-71452380D02*
X174119047Y-70452380D01*
X173500000Y-70928571D02*
X173166666Y-70928571D01*
X173023809Y-71452380D02*
X173500000Y-71452380D01*
X173500000Y-70452380D01*
X173023809Y-70452380D01*
X172595238Y-71452380D02*
X172595238Y-70452380D01*
X172023809Y-71452380D01*
X172023809Y-70452380D01*
D14*
X187250000Y-72250000D02*
X169750000Y-72250000D01*
X187250000Y-69750000D02*
X169750000Y-69750000D01*
X169750000Y-72250000D02*
G75*
G02*
X169750000Y-69750000I0J1250000D01*
G01*
X187250000Y-69750000D02*
G75*
G02*
X187250000Y-72250000I0J-1250000D01*
G01*
X183500000Y-148000000D02*
X184000000Y-148500000D01*
X182500000Y-148000000D02*
X183500000Y-148000000D01*
X182500000Y-147500000D02*
X182500000Y-148000000D01*
X176500000Y-147500000D02*
X182500000Y-147500000D01*
D12*
X113000000Y-134000000D02*
X112000000Y-134000000D01*
X113000000Y-130000000D02*
X112000000Y-130000000D01*
X113000000Y-130000000D02*
G75*
G02*
X113000000Y-134000000I0J-2000000D01*
G01*
X112000000Y-134000000D02*
G75*
G02*
X112000000Y-130000000I0J2000000D01*
G01*
X195500000Y-132000000D02*
G75*
G03*
X195500000Y-132000000I-2000000J0D01*
G01*
X110500000Y-140000000D02*
G75*
G02*
X108000000Y-142500000I-2500000J0D01*
G01*
X108000000Y-137500000D02*
G75*
G02*
X110500000Y-140000000I0J-2500000D01*
G01*
X198000000Y-142500000D02*
G75*
G02*
X195500000Y-140000000I0J2500000D01*
G01*
X195500000Y-140000000D02*
G75*
G02*
X198000000Y-137500000I2500000J0D01*
G01*
D14*
X188000000Y-145000000D02*
X176500000Y-145000000D01*
X188000000Y-146000000D02*
X188000000Y-145000000D01*
X176500000Y-146000000D02*
X188000000Y-146000000D01*
D10*
X171500000Y-144500000D02*
X175000000Y-144500000D01*
X171500000Y-146000000D02*
X171500000Y-144500000D01*
X175000000Y-146000000D02*
X171500000Y-146000000D01*
X175000000Y-144500000D02*
X175000000Y-146000000D01*
D14*
X148000000Y-144500000D02*
X144500000Y-144500000D01*
X137000000Y-119500000D02*
X148000000Y-119500000D01*
X148500000Y-120000000D02*
X148500000Y-144000000D01*
X148000000Y-119500000D02*
G75*
G02*
X148500000Y-120000000I0J-500000D01*
G01*
X136500000Y-120000000D02*
X136500000Y-144000000D01*
X137000000Y-144500000D02*
G75*
G02*
X136500000Y-144000000I0J500000D01*
G01*
X137000000Y-144500000D02*
X140500000Y-144500000D01*
X136500000Y-120000000D02*
G75*
G02*
X137000000Y-119500000I500000J0D01*
G01*
X148500000Y-144000000D02*
G75*
G02*
X148000000Y-144500000I-500000J0D01*
G01*
X140500000Y-144500000D02*
X140500000Y-146000000D01*
X144500000Y-144500000D02*
X144500000Y-146000000D01*
X140500000Y-146000000D02*
X144500000Y-146000000D01*
X129500000Y-118500000D02*
G75*
G02*
X130500000Y-117500000I1000000J0D01*
G01*
X175500000Y-117500000D02*
G75*
G02*
X176500000Y-118500000I0J-1000000D01*
G01*
X129500000Y-118500000D02*
X129500000Y-149000000D01*
X176500000Y-118500000D02*
X176500000Y-149000000D01*
X130500000Y-117500000D02*
X175500000Y-117500000D01*
X130500000Y-117000000D02*
X187500000Y-117000000D01*
X129000000Y-118500000D02*
X129000000Y-149000000D01*
X187500000Y-117000000D02*
G75*
G02*
X189000000Y-118500000I0J-1500000D01*
G01*
X189000000Y-118500000D02*
X189000000Y-149000000D01*
X129000000Y-118500000D02*
G75*
G02*
X130500000Y-117000000I1500000J0D01*
G01*
D12*
X189000000Y-55000000D02*
X189000000Y-67500000D01*
X117000000Y-55000000D02*
X117000000Y-67500000D01*
X118500000Y-69000000D02*
G75*
G02*
X117000000Y-67500000I0J1500000D01*
G01*
X189000000Y-67500000D02*
G75*
G02*
X187500000Y-69000000I-1500000J0D01*
G01*
X187500000Y-69000000D02*
X118500000Y-69000000D01*
M02*
