G04 #@! TF.GenerationSoftware,KiCad,Pcbnew,(5.1.8)-1*
G04 #@! TF.CreationDate,2021-09-29T13:24:07+02:00*
G04 #@! TF.ProjectId,Amiga Drawbridge,416d6967-6120-4447-9261-776272696467,rev?*
G04 #@! TF.SameCoordinates,Original*
G04 #@! TF.FileFunction,Copper,L2,Bot*
G04 #@! TF.FilePolarity,Positive*
%FSLAX46Y46*%
G04 Gerber Fmt 4.6, Leading zero omitted, Abs format (unit mm)*
G04 Created by KiCad (PCBNEW (5.1.8)-1) date 2021-09-29 13:24:07*
%MOMM*%
%LPD*%
G01*
G04 APERTURE LIST*
G04 #@! TA.AperFunction,ComponentPad*
%ADD10C,3.000000*%
G04 #@! TD*
G04 #@! TA.AperFunction,ComponentPad*
%ADD11R,3.000000X3.000000*%
G04 #@! TD*
G04 #@! TA.AperFunction,ComponentPad*
%ADD12C,1.700000*%
G04 #@! TD*
G04 #@! TA.AperFunction,ComponentPad*
%ADD13R,1.700000X1.700000*%
G04 #@! TD*
G04 #@! TA.AperFunction,ComponentPad*
%ADD14R,3.500000X3.500000*%
G04 #@! TD*
G04 #@! TA.AperFunction,ComponentPad*
%ADD15C,1.600000*%
G04 #@! TD*
G04 #@! TA.AperFunction,ComponentPad*
%ADD16O,1.600000X1.600000*%
G04 #@! TD*
G04 #@! TA.AperFunction,ComponentPad*
%ADD17C,3.500000*%
G04 #@! TD*
G04 #@! TA.AperFunction,ViaPad*
%ADD18C,0.800000*%
G04 #@! TD*
G04 #@! TA.AperFunction,ViaPad*
%ADD19C,1.000000*%
G04 #@! TD*
G04 #@! TA.AperFunction,Conductor*
%ADD20C,0.250000*%
G04 #@! TD*
G04 #@! TA.AperFunction,Conductor*
%ADD21C,0.381000*%
G04 #@! TD*
G04 #@! TA.AperFunction,Conductor*
%ADD22C,0.254000*%
G04 #@! TD*
G04 #@! TA.AperFunction,Conductor*
%ADD23C,0.100000*%
G04 #@! TD*
G04 APERTURE END LIST*
D10*
X185810000Y-63270000D03*
D11*
X182000000Y-58825000D03*
D10*
X182000000Y-63270000D03*
X185810000Y-58825000D03*
D12*
X187325000Y-85725000D03*
X187325000Y-88265000D03*
X187325000Y-90805000D03*
X187325000Y-93345000D03*
X187325000Y-95885000D03*
X187325000Y-98425000D03*
X184785000Y-99695000D03*
X182245000Y-99695000D03*
X179705000Y-99695000D03*
X177165000Y-99695000D03*
X174625000Y-99695000D03*
D13*
X184785000Y-84455000D03*
D12*
X172085000Y-99695000D03*
X169545000Y-99695000D03*
X167005000Y-99695000D03*
X164465000Y-99695000D03*
X161925000Y-99695000D03*
X159385000Y-99695000D03*
X156845000Y-99695000D03*
X156845000Y-97155000D03*
X156845000Y-94615000D03*
X156845000Y-92075000D03*
X156845000Y-89535000D03*
X156845000Y-86995000D03*
X156845000Y-84455000D03*
X159385000Y-84455000D03*
X161925000Y-84455000D03*
X164465000Y-84455000D03*
X167005000Y-84455000D03*
X169545000Y-84455000D03*
X172085000Y-84455000D03*
X174625000Y-84455000D03*
X177165000Y-84455000D03*
X179705000Y-84455000D03*
X182245000Y-84455000D03*
G04 #@! TA.AperFunction,ComponentPad*
G36*
G01*
X172720000Y-58840000D02*
X173920000Y-58840000D01*
G75*
G02*
X174170000Y-59090000I0J-250000D01*
G01*
X174170000Y-60290000D01*
G75*
G02*
X173920000Y-60540000I-250000J0D01*
G01*
X172720000Y-60540000D01*
G75*
G02*
X172470000Y-60290000I0J250000D01*
G01*
X172470000Y-59090000D01*
G75*
G02*
X172720000Y-58840000I250000J0D01*
G01*
G37*
G04 #@! TD.AperFunction*
X170780000Y-59690000D03*
X168240000Y-59690000D03*
X165700000Y-59690000D03*
X163160000Y-59690000D03*
X160620000Y-59690000D03*
X158080000Y-59690000D03*
X155540000Y-59690000D03*
X153000000Y-59690000D03*
X150460000Y-59690000D03*
X147920000Y-59690000D03*
X145380000Y-59690000D03*
X142840000Y-59690000D03*
X140300000Y-59690000D03*
X137760000Y-59690000D03*
X135220000Y-59690000D03*
X132680000Y-59690000D03*
X173320000Y-62230000D03*
X170780000Y-62230000D03*
X168240000Y-62230000D03*
X165700000Y-62230000D03*
X163160000Y-62230000D03*
X160620000Y-62230000D03*
X158080000Y-62230000D03*
X155540000Y-62230000D03*
X153000000Y-62230000D03*
X150460000Y-62230000D03*
X147920000Y-62230000D03*
X145380000Y-62230000D03*
X142840000Y-62230000D03*
X140300000Y-62230000D03*
X137760000Y-62230000D03*
X135220000Y-62230000D03*
X132680000Y-62230000D03*
D14*
X121920000Y-69215000D03*
G04 #@! TA.AperFunction,ComponentPad*
G36*
G01*
X120920000Y-61715000D02*
X122920000Y-61715000D01*
G75*
G02*
X123670000Y-62465000I0J-750000D01*
G01*
X123670000Y-63965000D01*
G75*
G02*
X122920000Y-64715000I-750000J0D01*
G01*
X120920000Y-64715000D01*
G75*
G02*
X120170000Y-63965000I0J750000D01*
G01*
X120170000Y-62465000D01*
G75*
G02*
X120920000Y-61715000I750000J0D01*
G01*
G37*
G04 #@! TD.AperFunction*
G04 #@! TA.AperFunction,ComponentPad*
G36*
G01*
X116345000Y-64465000D02*
X118095000Y-64465000D01*
G75*
G02*
X118970000Y-65340000I0J-875000D01*
G01*
X118970000Y-67090000D01*
G75*
G02*
X118095000Y-67965000I-875000J0D01*
G01*
X116345000Y-67965000D01*
G75*
G02*
X115470000Y-67090000I0J875000D01*
G01*
X115470000Y-65340000D01*
G75*
G02*
X116345000Y-64465000I875000J0D01*
G01*
G37*
G04 #@! TD.AperFunction*
D15*
X128270000Y-76835000D03*
D16*
X138430000Y-76835000D03*
D13*
X120340000Y-99695000D03*
D12*
X120340000Y-84455000D03*
X122880000Y-84455000D03*
X125420000Y-84455000D03*
X127960000Y-84455000D03*
X130500000Y-84455000D03*
X133040000Y-84455000D03*
X135580000Y-84455000D03*
X138120000Y-84455000D03*
X140660000Y-84455000D03*
X143200000Y-85725000D03*
X143200000Y-88265000D03*
X143200000Y-90805000D03*
X143200000Y-93345000D03*
X143200000Y-95885000D03*
X143200000Y-98425000D03*
X140660000Y-99695000D03*
X138120000Y-99695000D03*
X135580000Y-99695000D03*
X133040000Y-99695000D03*
X130500000Y-99695000D03*
X127960000Y-99695000D03*
X125420000Y-99695000D03*
X122880000Y-99695000D03*
D17*
X112500000Y-132000000D03*
X193500000Y-132000000D03*
X193500000Y-62500000D03*
X112500000Y-62500000D03*
D13*
X193500000Y-71000000D03*
D18*
X150495000Y-82550000D03*
X150494976Y-86450000D03*
X167005000Y-95160000D03*
X168275000Y-96520000D03*
X149225000Y-86360000D03*
X149225000Y-81915000D03*
D19*
X145415000Y-86995000D03*
X145415000Y-100330000D03*
D18*
X174625000Y-95160000D03*
X135890000Y-88265000D03*
X146685000Y-88900000D03*
X146685000Y-97790000D03*
X138112500Y-87185500D03*
D20*
X150495000Y-86449976D02*
X150494976Y-86450000D01*
X150495000Y-82550000D02*
X150495000Y-86449976D01*
X167005000Y-95160000D02*
X167005000Y-99695000D01*
X169545000Y-97790000D02*
X169545000Y-99695000D01*
X168275000Y-96520000D02*
X169545000Y-97790000D01*
X149225000Y-86360000D02*
X149225000Y-81915000D01*
D21*
X144780000Y-90805000D02*
X143200000Y-90805000D01*
X145415000Y-91440000D02*
X144780000Y-90805000D01*
X145415000Y-91440000D02*
X145415000Y-86995000D01*
X145415000Y-91440000D02*
X145415000Y-100330000D01*
D20*
X174625000Y-99695000D02*
X174625000Y-95160000D01*
X143200000Y-88265000D02*
X135890000Y-88265000D01*
X146685000Y-97790000D02*
X146685000Y-88900000D01*
X138120000Y-87178000D02*
X138112500Y-87185500D01*
X138120000Y-84455000D02*
X138120000Y-87178000D01*
D22*
X116387290Y-55753793D02*
X116448575Y-55868450D01*
X116531052Y-55968948D01*
X116631550Y-56051425D01*
X116746207Y-56112710D01*
X116870617Y-56150450D01*
X116967581Y-56160000D01*
X189032419Y-56160000D01*
X189129383Y-56150450D01*
X189253793Y-56112710D01*
X189368450Y-56051425D01*
X189468948Y-55968948D01*
X189551425Y-55868450D01*
X189612710Y-55753793D01*
X189641162Y-55660000D01*
X196467723Y-55660000D01*
X196662540Y-55679102D01*
X196818894Y-55726308D01*
X196963096Y-55802982D01*
X197089663Y-55906207D01*
X197193769Y-56032051D01*
X197271447Y-56175711D01*
X197319742Y-56331729D01*
X197340000Y-56524473D01*
X197340001Y-147467712D01*
X197320898Y-147662540D01*
X197273692Y-147818895D01*
X197197018Y-147963096D01*
X197093792Y-148089664D01*
X196967951Y-148193768D01*
X196824289Y-148271447D01*
X196668271Y-148319742D01*
X196475527Y-148340000D01*
X189641162Y-148340000D01*
X189612710Y-148246207D01*
X189551425Y-148131550D01*
X189468948Y-148031052D01*
X189368450Y-147948575D01*
X189253793Y-147887290D01*
X189129383Y-147849550D01*
X189032785Y-147840036D01*
X189000000Y-147836807D01*
X188967581Y-147840000D01*
X176532419Y-147840000D01*
X176500000Y-147836807D01*
X176467215Y-147840036D01*
X176370617Y-147849550D01*
X176246207Y-147887290D01*
X176131550Y-147948575D01*
X176031052Y-148031052D01*
X175948575Y-148131550D01*
X175887290Y-148246207D01*
X175858838Y-148340000D01*
X129660000Y-148340000D01*
X129660000Y-146532419D01*
X129663193Y-146500000D01*
X129650450Y-146370617D01*
X129612710Y-146246207D01*
X129551425Y-146131550D01*
X129468948Y-146031052D01*
X129368450Y-145948575D01*
X129253793Y-145887290D01*
X129129383Y-145849550D01*
X129032419Y-145840000D01*
X129000000Y-145836807D01*
X128967581Y-145840000D01*
X126032408Y-145840000D01*
X125999999Y-145836808D01*
X125967590Y-145840000D01*
X125967581Y-145840000D01*
X125870617Y-145849550D01*
X125746207Y-145887290D01*
X125631549Y-145948575D01*
X125556233Y-146010386D01*
X125531052Y-146031052D01*
X125510388Y-146056231D01*
X123726620Y-147840000D01*
X117467581Y-147840000D01*
X117439671Y-147842749D01*
X117436693Y-147842728D01*
X117427522Y-147843627D01*
X117379360Y-147848689D01*
X117370617Y-147849550D01*
X117370325Y-147849638D01*
X117330473Y-147853827D01*
X117271854Y-147865860D01*
X117213116Y-147877064D01*
X117204294Y-147879728D01*
X117111075Y-147908584D01*
X117055937Y-147931762D01*
X117000463Y-147954175D01*
X116992334Y-147958498D01*
X116992330Y-147958500D01*
X116992327Y-147958502D01*
X116906489Y-148004915D01*
X116856913Y-148038355D01*
X116806844Y-148071119D01*
X116799703Y-148076943D01*
X116724514Y-148139145D01*
X116682361Y-148181594D01*
X116639629Y-148223439D01*
X116633755Y-148230540D01*
X116572079Y-148306161D01*
X116549596Y-148340000D01*
X113273381Y-148340000D01*
X108660000Y-143726620D01*
X108660000Y-131765098D01*
X110115000Y-131765098D01*
X110115000Y-132234902D01*
X110206654Y-132695679D01*
X110386440Y-133129721D01*
X110647450Y-133520349D01*
X110979651Y-133852550D01*
X111370279Y-134113560D01*
X111804321Y-134293346D01*
X112265098Y-134385000D01*
X112734902Y-134385000D01*
X113195679Y-134293346D01*
X113629721Y-134113560D01*
X114020349Y-133852550D01*
X114352550Y-133520349D01*
X114613560Y-133129721D01*
X114793346Y-132695679D01*
X114885000Y-132234902D01*
X114885000Y-131765098D01*
X191115000Y-131765098D01*
X191115000Y-132234902D01*
X191206654Y-132695679D01*
X191386440Y-133129721D01*
X191647450Y-133520349D01*
X191979651Y-133852550D01*
X192370279Y-134113560D01*
X192804321Y-134293346D01*
X193265098Y-134385000D01*
X193734902Y-134385000D01*
X194195679Y-134293346D01*
X194629721Y-134113560D01*
X195020349Y-133852550D01*
X195352550Y-133520349D01*
X195613560Y-133129721D01*
X195793346Y-132695679D01*
X195885000Y-132234902D01*
X195885000Y-131765098D01*
X195793346Y-131304321D01*
X195613560Y-130870279D01*
X195352550Y-130479651D01*
X195020349Y-130147450D01*
X194629721Y-129886440D01*
X194195679Y-129706654D01*
X193734902Y-129615000D01*
X193265098Y-129615000D01*
X192804321Y-129706654D01*
X192370279Y-129886440D01*
X191979651Y-130147450D01*
X191647450Y-130479651D01*
X191386440Y-130870279D01*
X191206654Y-131304321D01*
X191115000Y-131765098D01*
X114885000Y-131765098D01*
X114793346Y-131304321D01*
X114613560Y-130870279D01*
X114352550Y-130479651D01*
X114020349Y-130147450D01*
X113629721Y-129886440D01*
X113195679Y-129706654D01*
X112734902Y-129615000D01*
X112265098Y-129615000D01*
X111804321Y-129706654D01*
X111370279Y-129886440D01*
X110979651Y-130147450D01*
X110647450Y-130479651D01*
X110386440Y-130870279D01*
X110206654Y-131304321D01*
X110115000Y-131765098D01*
X108660000Y-131765098D01*
X108660000Y-98845000D01*
X118851928Y-98845000D01*
X118851928Y-100545000D01*
X118864188Y-100669482D01*
X118900498Y-100789180D01*
X118959463Y-100899494D01*
X119038815Y-100996185D01*
X119135506Y-101075537D01*
X119245820Y-101134502D01*
X119365518Y-101170812D01*
X119490000Y-101183072D01*
X121190000Y-101183072D01*
X121314482Y-101170812D01*
X121434180Y-101134502D01*
X121544494Y-101075537D01*
X121641185Y-100996185D01*
X121720537Y-100899494D01*
X121779502Y-100789180D01*
X121801513Y-100716620D01*
X121933368Y-100848475D01*
X122176589Y-101010990D01*
X122446842Y-101122932D01*
X122733740Y-101180000D01*
X123026260Y-101180000D01*
X123313158Y-101122932D01*
X123583411Y-101010990D01*
X123826632Y-100848475D01*
X124033475Y-100641632D01*
X124150000Y-100467240D01*
X124266525Y-100641632D01*
X124473368Y-100848475D01*
X124716589Y-101010990D01*
X124986842Y-101122932D01*
X125273740Y-101180000D01*
X125566260Y-101180000D01*
X125853158Y-101122932D01*
X126123411Y-101010990D01*
X126366632Y-100848475D01*
X126573475Y-100641632D01*
X126690000Y-100467240D01*
X126806525Y-100641632D01*
X127013368Y-100848475D01*
X127256589Y-101010990D01*
X127526842Y-101122932D01*
X127813740Y-101180000D01*
X128106260Y-101180000D01*
X128393158Y-101122932D01*
X128663411Y-101010990D01*
X128906632Y-100848475D01*
X129113475Y-100641632D01*
X129230000Y-100467240D01*
X129346525Y-100641632D01*
X129553368Y-100848475D01*
X129796589Y-101010990D01*
X130066842Y-101122932D01*
X130353740Y-101180000D01*
X130646260Y-101180000D01*
X130933158Y-101122932D01*
X131203411Y-101010990D01*
X131446632Y-100848475D01*
X131653475Y-100641632D01*
X131770000Y-100467240D01*
X131886525Y-100641632D01*
X132093368Y-100848475D01*
X132336589Y-101010990D01*
X132606842Y-101122932D01*
X132893740Y-101180000D01*
X133186260Y-101180000D01*
X133473158Y-101122932D01*
X133743411Y-101010990D01*
X133986632Y-100848475D01*
X134193475Y-100641632D01*
X134310000Y-100467240D01*
X134426525Y-100641632D01*
X134633368Y-100848475D01*
X134876589Y-101010990D01*
X135146842Y-101122932D01*
X135433740Y-101180000D01*
X135726260Y-101180000D01*
X136013158Y-101122932D01*
X136283411Y-101010990D01*
X136526632Y-100848475D01*
X136733475Y-100641632D01*
X136850000Y-100467240D01*
X136966525Y-100641632D01*
X137173368Y-100848475D01*
X137416589Y-101010990D01*
X137686842Y-101122932D01*
X137973740Y-101180000D01*
X138266260Y-101180000D01*
X138553158Y-101122932D01*
X138823411Y-101010990D01*
X139066632Y-100848475D01*
X139191710Y-100723397D01*
X139811208Y-100723397D01*
X139888843Y-100972472D01*
X140152883Y-101098371D01*
X140436411Y-101170339D01*
X140728531Y-101185611D01*
X141018019Y-101143599D01*
X141293747Y-101045919D01*
X141431157Y-100972472D01*
X141508792Y-100723397D01*
X140660000Y-99874605D01*
X139811208Y-100723397D01*
X139191710Y-100723397D01*
X139273475Y-100641632D01*
X139389311Y-100468271D01*
X139631603Y-100543792D01*
X140480395Y-99695000D01*
X139631603Y-98846208D01*
X139389311Y-98921729D01*
X139273475Y-98748368D01*
X139191710Y-98666603D01*
X139811208Y-98666603D01*
X140660000Y-99515395D01*
X141508792Y-98666603D01*
X141431157Y-98417528D01*
X141167117Y-98291629D01*
X140883589Y-98219661D01*
X140591469Y-98204389D01*
X140301981Y-98246401D01*
X140026253Y-98344081D01*
X139888843Y-98417528D01*
X139811208Y-98666603D01*
X139191710Y-98666603D01*
X139066632Y-98541525D01*
X138823411Y-98379010D01*
X138553158Y-98267068D01*
X138266260Y-98210000D01*
X137973740Y-98210000D01*
X137686842Y-98267068D01*
X137416589Y-98379010D01*
X137173368Y-98541525D01*
X136966525Y-98748368D01*
X136850000Y-98922760D01*
X136733475Y-98748368D01*
X136526632Y-98541525D01*
X136283411Y-98379010D01*
X136013158Y-98267068D01*
X135726260Y-98210000D01*
X135433740Y-98210000D01*
X135146842Y-98267068D01*
X134876589Y-98379010D01*
X134633368Y-98541525D01*
X134426525Y-98748368D01*
X134310000Y-98922760D01*
X134193475Y-98748368D01*
X133986632Y-98541525D01*
X133743411Y-98379010D01*
X133473158Y-98267068D01*
X133186260Y-98210000D01*
X132893740Y-98210000D01*
X132606842Y-98267068D01*
X132336589Y-98379010D01*
X132093368Y-98541525D01*
X131886525Y-98748368D01*
X131770000Y-98922760D01*
X131653475Y-98748368D01*
X131446632Y-98541525D01*
X131203411Y-98379010D01*
X130933158Y-98267068D01*
X130646260Y-98210000D01*
X130353740Y-98210000D01*
X130066842Y-98267068D01*
X129796589Y-98379010D01*
X129553368Y-98541525D01*
X129346525Y-98748368D01*
X129230000Y-98922760D01*
X129113475Y-98748368D01*
X128906632Y-98541525D01*
X128663411Y-98379010D01*
X128393158Y-98267068D01*
X128106260Y-98210000D01*
X127813740Y-98210000D01*
X127526842Y-98267068D01*
X127256589Y-98379010D01*
X127013368Y-98541525D01*
X126806525Y-98748368D01*
X126690000Y-98922760D01*
X126573475Y-98748368D01*
X126366632Y-98541525D01*
X126123411Y-98379010D01*
X125853158Y-98267068D01*
X125566260Y-98210000D01*
X125273740Y-98210000D01*
X124986842Y-98267068D01*
X124716589Y-98379010D01*
X124473368Y-98541525D01*
X124266525Y-98748368D01*
X124150000Y-98922760D01*
X124033475Y-98748368D01*
X123826632Y-98541525D01*
X123583411Y-98379010D01*
X123313158Y-98267068D01*
X123026260Y-98210000D01*
X122733740Y-98210000D01*
X122446842Y-98267068D01*
X122176589Y-98379010D01*
X121933368Y-98541525D01*
X121801513Y-98673380D01*
X121779502Y-98600820D01*
X121720537Y-98490506D01*
X121641185Y-98393815D01*
X121544494Y-98314463D01*
X121434180Y-98255498D01*
X121314482Y-98219188D01*
X121190000Y-98206928D01*
X119490000Y-98206928D01*
X119365518Y-98219188D01*
X119245820Y-98255498D01*
X119135506Y-98314463D01*
X119038815Y-98393815D01*
X118959463Y-98490506D01*
X118900498Y-98600820D01*
X118864188Y-98720518D01*
X118851928Y-98845000D01*
X108660000Y-98845000D01*
X108660000Y-84308740D01*
X118855000Y-84308740D01*
X118855000Y-84601260D01*
X118912068Y-84888158D01*
X119024010Y-85158411D01*
X119186525Y-85401632D01*
X119393368Y-85608475D01*
X119636589Y-85770990D01*
X119906842Y-85882932D01*
X120193740Y-85940000D01*
X120486260Y-85940000D01*
X120773158Y-85882932D01*
X121043411Y-85770990D01*
X121286632Y-85608475D01*
X121493475Y-85401632D01*
X121610000Y-85227240D01*
X121726525Y-85401632D01*
X121933368Y-85608475D01*
X122176589Y-85770990D01*
X122446842Y-85882932D01*
X122733740Y-85940000D01*
X123026260Y-85940000D01*
X123313158Y-85882932D01*
X123583411Y-85770990D01*
X123826632Y-85608475D01*
X123951710Y-85483397D01*
X124571208Y-85483397D01*
X124648843Y-85732472D01*
X124912883Y-85858371D01*
X125196411Y-85930339D01*
X125488531Y-85945611D01*
X125778019Y-85903599D01*
X126053747Y-85805919D01*
X126191157Y-85732472D01*
X126268792Y-85483397D01*
X125420000Y-84634605D01*
X124571208Y-85483397D01*
X123951710Y-85483397D01*
X124033475Y-85401632D01*
X124149311Y-85228271D01*
X124391603Y-85303792D01*
X125240395Y-84455000D01*
X125599605Y-84455000D01*
X126448397Y-85303792D01*
X126690689Y-85228271D01*
X126806525Y-85401632D01*
X127013368Y-85608475D01*
X127256589Y-85770990D01*
X127526842Y-85882932D01*
X127813740Y-85940000D01*
X128106260Y-85940000D01*
X128393158Y-85882932D01*
X128663411Y-85770990D01*
X128906632Y-85608475D01*
X129113475Y-85401632D01*
X129230000Y-85227240D01*
X129346525Y-85401632D01*
X129553368Y-85608475D01*
X129796589Y-85770990D01*
X130066842Y-85882932D01*
X130353740Y-85940000D01*
X130646260Y-85940000D01*
X130933158Y-85882932D01*
X131203411Y-85770990D01*
X131446632Y-85608475D01*
X131653475Y-85401632D01*
X131770000Y-85227240D01*
X131886525Y-85401632D01*
X132093368Y-85608475D01*
X132336589Y-85770990D01*
X132606842Y-85882932D01*
X132893740Y-85940000D01*
X133186260Y-85940000D01*
X133473158Y-85882932D01*
X133743411Y-85770990D01*
X133986632Y-85608475D01*
X134193475Y-85401632D01*
X134310000Y-85227240D01*
X134426525Y-85401632D01*
X134633368Y-85608475D01*
X134876589Y-85770990D01*
X135146842Y-85882932D01*
X135433740Y-85940000D01*
X135726260Y-85940000D01*
X136013158Y-85882932D01*
X136283411Y-85770990D01*
X136526632Y-85608475D01*
X136733475Y-85401632D01*
X136850000Y-85227240D01*
X136966525Y-85401632D01*
X137173368Y-85608475D01*
X137360000Y-85733179D01*
X137360001Y-86474288D01*
X137308563Y-86525726D01*
X137195295Y-86695244D01*
X137117274Y-86883602D01*
X137077500Y-87083561D01*
X137077500Y-87287439D01*
X137117274Y-87487398D01*
X137124565Y-87505000D01*
X136593711Y-87505000D01*
X136549774Y-87461063D01*
X136380256Y-87347795D01*
X136191898Y-87269774D01*
X135991939Y-87230000D01*
X135788061Y-87230000D01*
X135588102Y-87269774D01*
X135399744Y-87347795D01*
X135230226Y-87461063D01*
X135086063Y-87605226D01*
X134972795Y-87774744D01*
X134894774Y-87963102D01*
X134855000Y-88163061D01*
X134855000Y-88366939D01*
X134894774Y-88566898D01*
X134972795Y-88755256D01*
X135086063Y-88924774D01*
X135230226Y-89068937D01*
X135399744Y-89182205D01*
X135588102Y-89260226D01*
X135788061Y-89300000D01*
X135991939Y-89300000D01*
X136191898Y-89260226D01*
X136380256Y-89182205D01*
X136549774Y-89068937D01*
X136593711Y-89025000D01*
X141921822Y-89025000D01*
X142046525Y-89211632D01*
X142253368Y-89418475D01*
X142427760Y-89535000D01*
X142253368Y-89651525D01*
X142046525Y-89858368D01*
X141884010Y-90101589D01*
X141772068Y-90371842D01*
X141715000Y-90658740D01*
X141715000Y-90951260D01*
X141772068Y-91238158D01*
X141884010Y-91508411D01*
X142046525Y-91751632D01*
X142253368Y-91958475D01*
X142427760Y-92075000D01*
X142253368Y-92191525D01*
X142046525Y-92398368D01*
X141884010Y-92641589D01*
X141772068Y-92911842D01*
X141715000Y-93198740D01*
X141715000Y-93491260D01*
X141772068Y-93778158D01*
X141884010Y-94048411D01*
X142046525Y-94291632D01*
X142253368Y-94498475D01*
X142427760Y-94615000D01*
X142253368Y-94731525D01*
X142046525Y-94938368D01*
X141884010Y-95181589D01*
X141772068Y-95451842D01*
X141715000Y-95738740D01*
X141715000Y-96031260D01*
X141772068Y-96318158D01*
X141884010Y-96588411D01*
X142046525Y-96831632D01*
X142253368Y-97038475D01*
X142427760Y-97155000D01*
X142253368Y-97271525D01*
X142046525Y-97478368D01*
X141884010Y-97721589D01*
X141772068Y-97991842D01*
X141715000Y-98278740D01*
X141715000Y-98571260D01*
X141772068Y-98858158D01*
X141778788Y-98874382D01*
X141688397Y-98846208D01*
X140839605Y-99695000D01*
X141688397Y-100543792D01*
X141937472Y-100466157D01*
X142063371Y-100202117D01*
X142135339Y-99918589D01*
X142150611Y-99626469D01*
X142125019Y-99450126D01*
X142253368Y-99578475D01*
X142496589Y-99740990D01*
X142766842Y-99852932D01*
X143053740Y-99910000D01*
X143346260Y-99910000D01*
X143633158Y-99852932D01*
X143903411Y-99740990D01*
X144146632Y-99578475D01*
X144353475Y-99371632D01*
X144515990Y-99128411D01*
X144589501Y-98950939D01*
X144589501Y-99550367D01*
X144533388Y-99606480D01*
X144409176Y-99792376D01*
X144323617Y-99998933D01*
X144280000Y-100218212D01*
X144280000Y-100441788D01*
X144323617Y-100661067D01*
X144409176Y-100867624D01*
X144533388Y-101053520D01*
X144691480Y-101211612D01*
X144877376Y-101335824D01*
X145083933Y-101421383D01*
X145303212Y-101465000D01*
X145526788Y-101465000D01*
X145746067Y-101421383D01*
X145952624Y-101335824D01*
X146138520Y-101211612D01*
X146296612Y-101053520D01*
X146420824Y-100867624D01*
X146506383Y-100661067D01*
X146550000Y-100441788D01*
X146550000Y-100218212D01*
X146506383Y-99998933D01*
X146420824Y-99792376D01*
X146296612Y-99606480D01*
X146240500Y-99550368D01*
X146240500Y-98726158D01*
X146383102Y-98785226D01*
X146583061Y-98825000D01*
X146786939Y-98825000D01*
X146986898Y-98785226D01*
X147175256Y-98707205D01*
X147344774Y-98593937D01*
X147488937Y-98449774D01*
X147602205Y-98280256D01*
X147680226Y-98091898D01*
X147720000Y-97891939D01*
X147720000Y-97688061D01*
X147680226Y-97488102D01*
X147602205Y-97299744D01*
X147488937Y-97130226D01*
X147445000Y-97086289D01*
X147445000Y-89603711D01*
X147488937Y-89559774D01*
X147602205Y-89390256D01*
X147602832Y-89388740D01*
X155360000Y-89388740D01*
X155360000Y-89681260D01*
X155417068Y-89968158D01*
X155529010Y-90238411D01*
X155691525Y-90481632D01*
X155898368Y-90688475D01*
X156072760Y-90805000D01*
X155898368Y-90921525D01*
X155691525Y-91128368D01*
X155529010Y-91371589D01*
X155417068Y-91641842D01*
X155360000Y-91928740D01*
X155360000Y-92221260D01*
X155417068Y-92508158D01*
X155529010Y-92778411D01*
X155691525Y-93021632D01*
X155898368Y-93228475D01*
X156072760Y-93345000D01*
X155898368Y-93461525D01*
X155691525Y-93668368D01*
X155529010Y-93911589D01*
X155417068Y-94181842D01*
X155360000Y-94468740D01*
X155360000Y-94761260D01*
X155417068Y-95048158D01*
X155529010Y-95318411D01*
X155691525Y-95561632D01*
X155898368Y-95768475D01*
X156072760Y-95885000D01*
X155898368Y-96001525D01*
X155691525Y-96208368D01*
X155529010Y-96451589D01*
X155417068Y-96721842D01*
X155360000Y-97008740D01*
X155360000Y-97301260D01*
X155417068Y-97588158D01*
X155529010Y-97858411D01*
X155691525Y-98101632D01*
X155898368Y-98308475D01*
X156072760Y-98425000D01*
X155898368Y-98541525D01*
X155691525Y-98748368D01*
X155529010Y-98991589D01*
X155417068Y-99261842D01*
X155360000Y-99548740D01*
X155360000Y-99841260D01*
X155417068Y-100128158D01*
X155529010Y-100398411D01*
X155691525Y-100641632D01*
X155898368Y-100848475D01*
X156141589Y-101010990D01*
X156411842Y-101122932D01*
X156698740Y-101180000D01*
X156991260Y-101180000D01*
X157278158Y-101122932D01*
X157548411Y-101010990D01*
X157791632Y-100848475D01*
X157998475Y-100641632D01*
X158115000Y-100467240D01*
X158231525Y-100641632D01*
X158438368Y-100848475D01*
X158681589Y-101010990D01*
X158951842Y-101122932D01*
X159238740Y-101180000D01*
X159531260Y-101180000D01*
X159818158Y-101122932D01*
X160088411Y-101010990D01*
X160331632Y-100848475D01*
X160456710Y-100723397D01*
X161076208Y-100723397D01*
X161153843Y-100972472D01*
X161417883Y-101098371D01*
X161701411Y-101170339D01*
X161993531Y-101185611D01*
X162283019Y-101143599D01*
X162558747Y-101045919D01*
X162696157Y-100972472D01*
X162773792Y-100723397D01*
X161925000Y-99874605D01*
X161076208Y-100723397D01*
X160456710Y-100723397D01*
X160538475Y-100641632D01*
X160654311Y-100468271D01*
X160896603Y-100543792D01*
X161745395Y-99695000D01*
X162104605Y-99695000D01*
X162953397Y-100543792D01*
X163195689Y-100468271D01*
X163311525Y-100641632D01*
X163518368Y-100848475D01*
X163761589Y-101010990D01*
X164031842Y-101122932D01*
X164318740Y-101180000D01*
X164611260Y-101180000D01*
X164898158Y-101122932D01*
X165168411Y-101010990D01*
X165411632Y-100848475D01*
X165618475Y-100641632D01*
X165735000Y-100467240D01*
X165851525Y-100641632D01*
X166058368Y-100848475D01*
X166301589Y-101010990D01*
X166571842Y-101122932D01*
X166858740Y-101180000D01*
X167151260Y-101180000D01*
X167438158Y-101122932D01*
X167708411Y-101010990D01*
X167951632Y-100848475D01*
X168158475Y-100641632D01*
X168275000Y-100467240D01*
X168391525Y-100641632D01*
X168598368Y-100848475D01*
X168841589Y-101010990D01*
X169111842Y-101122932D01*
X169398740Y-101180000D01*
X169691260Y-101180000D01*
X169978158Y-101122932D01*
X170248411Y-101010990D01*
X170491632Y-100848475D01*
X170698475Y-100641632D01*
X170815000Y-100467240D01*
X170931525Y-100641632D01*
X171138368Y-100848475D01*
X171381589Y-101010990D01*
X171651842Y-101122932D01*
X171938740Y-101180000D01*
X172231260Y-101180000D01*
X172518158Y-101122932D01*
X172788411Y-101010990D01*
X173031632Y-100848475D01*
X173238475Y-100641632D01*
X173355000Y-100467240D01*
X173471525Y-100641632D01*
X173678368Y-100848475D01*
X173921589Y-101010990D01*
X174191842Y-101122932D01*
X174478740Y-101180000D01*
X174771260Y-101180000D01*
X175058158Y-101122932D01*
X175328411Y-101010990D01*
X175571632Y-100848475D01*
X175778475Y-100641632D01*
X175895000Y-100467240D01*
X176011525Y-100641632D01*
X176218368Y-100848475D01*
X176461589Y-101010990D01*
X176731842Y-101122932D01*
X177018740Y-101180000D01*
X177311260Y-101180000D01*
X177598158Y-101122932D01*
X177868411Y-101010990D01*
X178111632Y-100848475D01*
X178318475Y-100641632D01*
X178435000Y-100467240D01*
X178551525Y-100641632D01*
X178758368Y-100848475D01*
X179001589Y-101010990D01*
X179271842Y-101122932D01*
X179558740Y-101180000D01*
X179851260Y-101180000D01*
X180138158Y-101122932D01*
X180408411Y-101010990D01*
X180651632Y-100848475D01*
X180776710Y-100723397D01*
X181396208Y-100723397D01*
X181473843Y-100972472D01*
X181737883Y-101098371D01*
X182021411Y-101170339D01*
X182313531Y-101185611D01*
X182603019Y-101143599D01*
X182878747Y-101045919D01*
X183016157Y-100972472D01*
X183093792Y-100723397D01*
X182245000Y-99874605D01*
X181396208Y-100723397D01*
X180776710Y-100723397D01*
X180858475Y-100641632D01*
X180974311Y-100468271D01*
X181216603Y-100543792D01*
X182065395Y-99695000D01*
X181216603Y-98846208D01*
X180974311Y-98921729D01*
X180858475Y-98748368D01*
X180776710Y-98666603D01*
X181396208Y-98666603D01*
X182245000Y-99515395D01*
X183093792Y-98666603D01*
X183016157Y-98417528D01*
X182752117Y-98291629D01*
X182468589Y-98219661D01*
X182176469Y-98204389D01*
X181886981Y-98246401D01*
X181611253Y-98344081D01*
X181473843Y-98417528D01*
X181396208Y-98666603D01*
X180776710Y-98666603D01*
X180651632Y-98541525D01*
X180408411Y-98379010D01*
X180138158Y-98267068D01*
X179851260Y-98210000D01*
X179558740Y-98210000D01*
X179271842Y-98267068D01*
X179001589Y-98379010D01*
X178758368Y-98541525D01*
X178551525Y-98748368D01*
X178435000Y-98922760D01*
X178318475Y-98748368D01*
X178111632Y-98541525D01*
X177868411Y-98379010D01*
X177598158Y-98267068D01*
X177311260Y-98210000D01*
X177018740Y-98210000D01*
X176731842Y-98267068D01*
X176461589Y-98379010D01*
X176218368Y-98541525D01*
X176011525Y-98748368D01*
X175895000Y-98922760D01*
X175778475Y-98748368D01*
X175571632Y-98541525D01*
X175385000Y-98416822D01*
X175385000Y-95863711D01*
X175428937Y-95819774D01*
X175542205Y-95650256D01*
X175620226Y-95461898D01*
X175660000Y-95261939D01*
X175660000Y-95058061D01*
X175620226Y-94858102D01*
X175542205Y-94669744D01*
X175428937Y-94500226D01*
X175284774Y-94356063D01*
X175115256Y-94242795D01*
X174926898Y-94164774D01*
X174726939Y-94125000D01*
X174523061Y-94125000D01*
X174323102Y-94164774D01*
X174134744Y-94242795D01*
X173965226Y-94356063D01*
X173821063Y-94500226D01*
X173707795Y-94669744D01*
X173629774Y-94858102D01*
X173590000Y-95058061D01*
X173590000Y-95261939D01*
X173629774Y-95461898D01*
X173707795Y-95650256D01*
X173821063Y-95819774D01*
X173865001Y-95863712D01*
X173865000Y-98416821D01*
X173678368Y-98541525D01*
X173471525Y-98748368D01*
X173355000Y-98922760D01*
X173238475Y-98748368D01*
X173031632Y-98541525D01*
X172788411Y-98379010D01*
X172518158Y-98267068D01*
X172231260Y-98210000D01*
X171938740Y-98210000D01*
X171651842Y-98267068D01*
X171381589Y-98379010D01*
X171138368Y-98541525D01*
X170931525Y-98748368D01*
X170815000Y-98922760D01*
X170698475Y-98748368D01*
X170491632Y-98541525D01*
X170305000Y-98416822D01*
X170305000Y-97827322D01*
X170308676Y-97789999D01*
X170305000Y-97752676D01*
X170305000Y-97752667D01*
X170294003Y-97641014D01*
X170250546Y-97497753D01*
X170179974Y-97365724D01*
X170085001Y-97249999D01*
X170056004Y-97226202D01*
X169310000Y-96480199D01*
X169310000Y-96418061D01*
X169270226Y-96218102D01*
X169192205Y-96029744D01*
X169078937Y-95860226D01*
X168934774Y-95716063D01*
X168765256Y-95602795D01*
X168576898Y-95524774D01*
X168376939Y-95485000D01*
X168173061Y-95485000D01*
X167974279Y-95524540D01*
X168000226Y-95461898D01*
X168040000Y-95261939D01*
X168040000Y-95058061D01*
X168000226Y-94858102D01*
X167922205Y-94669744D01*
X167808937Y-94500226D01*
X167664774Y-94356063D01*
X167495256Y-94242795D01*
X167306898Y-94164774D01*
X167106939Y-94125000D01*
X166903061Y-94125000D01*
X166703102Y-94164774D01*
X166514744Y-94242795D01*
X166345226Y-94356063D01*
X166201063Y-94500226D01*
X166087795Y-94669744D01*
X166009774Y-94858102D01*
X165970000Y-95058061D01*
X165970000Y-95261939D01*
X166009774Y-95461898D01*
X166087795Y-95650256D01*
X166201063Y-95819774D01*
X166245000Y-95863711D01*
X166245001Y-98416821D01*
X166058368Y-98541525D01*
X165851525Y-98748368D01*
X165735000Y-98922760D01*
X165618475Y-98748368D01*
X165411632Y-98541525D01*
X165168411Y-98379010D01*
X164898158Y-98267068D01*
X164611260Y-98210000D01*
X164318740Y-98210000D01*
X164031842Y-98267068D01*
X163761589Y-98379010D01*
X163518368Y-98541525D01*
X163311525Y-98748368D01*
X163195689Y-98921729D01*
X162953397Y-98846208D01*
X162104605Y-99695000D01*
X161745395Y-99695000D01*
X160896603Y-98846208D01*
X160654311Y-98921729D01*
X160538475Y-98748368D01*
X160456710Y-98666603D01*
X161076208Y-98666603D01*
X161925000Y-99515395D01*
X162773792Y-98666603D01*
X162696157Y-98417528D01*
X162432117Y-98291629D01*
X162148589Y-98219661D01*
X161856469Y-98204389D01*
X161566981Y-98246401D01*
X161291253Y-98344081D01*
X161153843Y-98417528D01*
X161076208Y-98666603D01*
X160456710Y-98666603D01*
X160331632Y-98541525D01*
X160088411Y-98379010D01*
X159818158Y-98267068D01*
X159531260Y-98210000D01*
X159238740Y-98210000D01*
X158951842Y-98267068D01*
X158681589Y-98379010D01*
X158438368Y-98541525D01*
X158231525Y-98748368D01*
X158115000Y-98922760D01*
X157998475Y-98748368D01*
X157791632Y-98541525D01*
X157617240Y-98425000D01*
X157791632Y-98308475D01*
X157998475Y-98101632D01*
X158160990Y-97858411D01*
X158272932Y-97588158D01*
X158330000Y-97301260D01*
X158330000Y-97008740D01*
X158272932Y-96721842D01*
X158160990Y-96451589D01*
X157998475Y-96208368D01*
X157791632Y-96001525D01*
X157617240Y-95885000D01*
X157791632Y-95768475D01*
X157998475Y-95561632D01*
X158160990Y-95318411D01*
X158272932Y-95048158D01*
X158330000Y-94761260D01*
X158330000Y-94468740D01*
X158272932Y-94181842D01*
X158160990Y-93911589D01*
X157998475Y-93668368D01*
X157791632Y-93461525D01*
X157617240Y-93345000D01*
X157791632Y-93228475D01*
X157998475Y-93021632D01*
X158160990Y-92778411D01*
X158272932Y-92508158D01*
X158330000Y-92221260D01*
X158330000Y-91928740D01*
X158272932Y-91641842D01*
X158160990Y-91371589D01*
X157998475Y-91128368D01*
X157791632Y-90921525D01*
X157617240Y-90805000D01*
X157791632Y-90688475D01*
X157998475Y-90481632D01*
X158160990Y-90238411D01*
X158272932Y-89968158D01*
X158330000Y-89681260D01*
X158330000Y-89388740D01*
X158272932Y-89101842D01*
X158160990Y-88831589D01*
X157998475Y-88588368D01*
X157791632Y-88381525D01*
X157618271Y-88265689D01*
X157693792Y-88023397D01*
X156845000Y-87174605D01*
X155996208Y-88023397D01*
X156071729Y-88265689D01*
X155898368Y-88381525D01*
X155691525Y-88588368D01*
X155529010Y-88831589D01*
X155417068Y-89101842D01*
X155360000Y-89388740D01*
X147602832Y-89388740D01*
X147680226Y-89201898D01*
X147720000Y-89001939D01*
X147720000Y-88798061D01*
X147680226Y-88598102D01*
X147602205Y-88409744D01*
X147488937Y-88240226D01*
X147344774Y-88096063D01*
X147175256Y-87982795D01*
X146986898Y-87904774D01*
X146786939Y-87865000D01*
X146583061Y-87865000D01*
X146383102Y-87904774D01*
X146240500Y-87963842D01*
X146240500Y-87774632D01*
X146296612Y-87718520D01*
X146420824Y-87532624D01*
X146506383Y-87326067D01*
X146550000Y-87106788D01*
X146550000Y-86883212D01*
X146506383Y-86663933D01*
X146420824Y-86457376D01*
X146296612Y-86271480D01*
X146138520Y-86113388D01*
X145952624Y-85989176D01*
X145746067Y-85903617D01*
X145526788Y-85860000D01*
X145303212Y-85860000D01*
X145083933Y-85903617D01*
X144877376Y-85989176D01*
X144691480Y-86113388D01*
X144613787Y-86191081D01*
X144675339Y-85948589D01*
X144690611Y-85656469D01*
X144648599Y-85366981D01*
X144550919Y-85091253D01*
X144477472Y-84953843D01*
X144228397Y-84876208D01*
X143379605Y-85725000D01*
X144228397Y-86573792D01*
X144380606Y-86526349D01*
X144323617Y-86663933D01*
X144280000Y-86883212D01*
X144280000Y-87106788D01*
X144314292Y-87279185D01*
X144146632Y-87111525D01*
X143973271Y-86995689D01*
X144048792Y-86753397D01*
X143200000Y-85904605D01*
X142351208Y-86753397D01*
X142426729Y-86995689D01*
X142253368Y-87111525D01*
X142046525Y-87318368D01*
X141921822Y-87505000D01*
X139100435Y-87505000D01*
X139107726Y-87487398D01*
X139147500Y-87287439D01*
X139147500Y-87083561D01*
X139107726Y-86883602D01*
X139029705Y-86695244D01*
X138916437Y-86525726D01*
X138880000Y-86489289D01*
X138880000Y-85733178D01*
X139066632Y-85608475D01*
X139273475Y-85401632D01*
X139390000Y-85227240D01*
X139506525Y-85401632D01*
X139713368Y-85608475D01*
X139956589Y-85770990D01*
X140226842Y-85882932D01*
X140513740Y-85940000D01*
X140806260Y-85940000D01*
X141093158Y-85882932D01*
X141363411Y-85770990D01*
X141606632Y-85608475D01*
X141728391Y-85486716D01*
X141724661Y-85501411D01*
X141709389Y-85793531D01*
X141751401Y-86083019D01*
X141849081Y-86358747D01*
X141922528Y-86496157D01*
X142171603Y-86573792D01*
X143020395Y-85725000D01*
X142171603Y-84876208D01*
X142081212Y-84904382D01*
X142087932Y-84888158D01*
X142126034Y-84696603D01*
X142351208Y-84696603D01*
X143200000Y-85545395D01*
X144048792Y-84696603D01*
X143971157Y-84447528D01*
X143707117Y-84321629D01*
X143423589Y-84249661D01*
X143131469Y-84234389D01*
X142841981Y-84276401D01*
X142566253Y-84374081D01*
X142428843Y-84447528D01*
X142351208Y-84696603D01*
X142126034Y-84696603D01*
X142145000Y-84601260D01*
X142145000Y-84308740D01*
X142087932Y-84021842D01*
X141975990Y-83751589D01*
X141813475Y-83508368D01*
X141606632Y-83301525D01*
X141363411Y-83139010D01*
X141093158Y-83027068D01*
X140806260Y-82970000D01*
X140513740Y-82970000D01*
X140226842Y-83027068D01*
X139956589Y-83139010D01*
X139713368Y-83301525D01*
X139506525Y-83508368D01*
X139390000Y-83682760D01*
X139273475Y-83508368D01*
X139066632Y-83301525D01*
X138823411Y-83139010D01*
X138553158Y-83027068D01*
X138266260Y-82970000D01*
X137973740Y-82970000D01*
X137686842Y-83027068D01*
X137416589Y-83139010D01*
X137173368Y-83301525D01*
X136966525Y-83508368D01*
X136850000Y-83682760D01*
X136733475Y-83508368D01*
X136526632Y-83301525D01*
X136283411Y-83139010D01*
X136013158Y-83027068D01*
X135726260Y-82970000D01*
X135433740Y-82970000D01*
X135146842Y-83027068D01*
X134876589Y-83139010D01*
X134633368Y-83301525D01*
X134426525Y-83508368D01*
X134310000Y-83682760D01*
X134193475Y-83508368D01*
X133986632Y-83301525D01*
X133743411Y-83139010D01*
X133473158Y-83027068D01*
X133186260Y-82970000D01*
X132893740Y-82970000D01*
X132606842Y-83027068D01*
X132336589Y-83139010D01*
X132093368Y-83301525D01*
X131886525Y-83508368D01*
X131770000Y-83682760D01*
X131653475Y-83508368D01*
X131446632Y-83301525D01*
X131203411Y-83139010D01*
X130933158Y-83027068D01*
X130646260Y-82970000D01*
X130353740Y-82970000D01*
X130066842Y-83027068D01*
X129796589Y-83139010D01*
X129553368Y-83301525D01*
X129346525Y-83508368D01*
X129230000Y-83682760D01*
X129113475Y-83508368D01*
X128906632Y-83301525D01*
X128663411Y-83139010D01*
X128393158Y-83027068D01*
X128106260Y-82970000D01*
X127813740Y-82970000D01*
X127526842Y-83027068D01*
X127256589Y-83139010D01*
X127013368Y-83301525D01*
X126806525Y-83508368D01*
X126690689Y-83681729D01*
X126448397Y-83606208D01*
X125599605Y-84455000D01*
X125240395Y-84455000D01*
X124391603Y-83606208D01*
X124149311Y-83681729D01*
X124033475Y-83508368D01*
X123951710Y-83426603D01*
X124571208Y-83426603D01*
X125420000Y-84275395D01*
X126268792Y-83426603D01*
X126191157Y-83177528D01*
X125927117Y-83051629D01*
X125643589Y-82979661D01*
X125351469Y-82964389D01*
X125061981Y-83006401D01*
X124786253Y-83104081D01*
X124648843Y-83177528D01*
X124571208Y-83426603D01*
X123951710Y-83426603D01*
X123826632Y-83301525D01*
X123583411Y-83139010D01*
X123313158Y-83027068D01*
X123026260Y-82970000D01*
X122733740Y-82970000D01*
X122446842Y-83027068D01*
X122176589Y-83139010D01*
X121933368Y-83301525D01*
X121726525Y-83508368D01*
X121610000Y-83682760D01*
X121493475Y-83508368D01*
X121286632Y-83301525D01*
X121043411Y-83139010D01*
X120773158Y-83027068D01*
X120486260Y-82970000D01*
X120193740Y-82970000D01*
X119906842Y-83027068D01*
X119636589Y-83139010D01*
X119393368Y-83301525D01*
X119186525Y-83508368D01*
X119024010Y-83751589D01*
X118912068Y-84021842D01*
X118855000Y-84308740D01*
X108660000Y-84308740D01*
X108660000Y-81813061D01*
X148190000Y-81813061D01*
X148190000Y-82016939D01*
X148229774Y-82216898D01*
X148307795Y-82405256D01*
X148421063Y-82574774D01*
X148465001Y-82618712D01*
X148465000Y-85656289D01*
X148421063Y-85700226D01*
X148307795Y-85869744D01*
X148229774Y-86058102D01*
X148190000Y-86258061D01*
X148190000Y-86461939D01*
X148229774Y-86661898D01*
X148307795Y-86850256D01*
X148421063Y-87019774D01*
X148565226Y-87163937D01*
X148734744Y-87277205D01*
X148923102Y-87355226D01*
X149123061Y-87395000D01*
X149326939Y-87395000D01*
X149526898Y-87355226D01*
X149715256Y-87277205D01*
X149801107Y-87219842D01*
X149835202Y-87253937D01*
X150004720Y-87367205D01*
X150193078Y-87445226D01*
X150393037Y-87485000D01*
X150596915Y-87485000D01*
X150796874Y-87445226D01*
X150985232Y-87367205D01*
X151154750Y-87253937D01*
X151298913Y-87109774D01*
X151329811Y-87063531D01*
X155354389Y-87063531D01*
X155396401Y-87353019D01*
X155494081Y-87628747D01*
X155567528Y-87766157D01*
X155816603Y-87843792D01*
X156665395Y-86995000D01*
X157024605Y-86995000D01*
X157873397Y-87843792D01*
X158122472Y-87766157D01*
X158248371Y-87502117D01*
X158320339Y-87218589D01*
X158335611Y-86926469D01*
X158293599Y-86636981D01*
X158195919Y-86361253D01*
X158122472Y-86223843D01*
X157873397Y-86146208D01*
X157024605Y-86995000D01*
X156665395Y-86995000D01*
X155816603Y-86146208D01*
X155567528Y-86223843D01*
X155441629Y-86487883D01*
X155369661Y-86771411D01*
X155354389Y-87063531D01*
X151329811Y-87063531D01*
X151412181Y-86940256D01*
X151490202Y-86751898D01*
X151529976Y-86551939D01*
X151529976Y-86348061D01*
X151490202Y-86148102D01*
X151412181Y-85959744D01*
X151298913Y-85790226D01*
X151255000Y-85746313D01*
X151255000Y-84308740D01*
X155360000Y-84308740D01*
X155360000Y-84601260D01*
X155417068Y-84888158D01*
X155529010Y-85158411D01*
X155691525Y-85401632D01*
X155898368Y-85608475D01*
X156071729Y-85724311D01*
X155996208Y-85966603D01*
X156845000Y-86815395D01*
X157693792Y-85966603D01*
X157618271Y-85724311D01*
X157791632Y-85608475D01*
X157998475Y-85401632D01*
X158115000Y-85227240D01*
X158231525Y-85401632D01*
X158438368Y-85608475D01*
X158681589Y-85770990D01*
X158951842Y-85882932D01*
X159238740Y-85940000D01*
X159531260Y-85940000D01*
X159818158Y-85882932D01*
X160088411Y-85770990D01*
X160331632Y-85608475D01*
X160538475Y-85401632D01*
X160655000Y-85227240D01*
X160771525Y-85401632D01*
X160978368Y-85608475D01*
X161221589Y-85770990D01*
X161491842Y-85882932D01*
X161778740Y-85940000D01*
X162071260Y-85940000D01*
X162358158Y-85882932D01*
X162628411Y-85770990D01*
X162871632Y-85608475D01*
X163078475Y-85401632D01*
X163195000Y-85227240D01*
X163311525Y-85401632D01*
X163518368Y-85608475D01*
X163761589Y-85770990D01*
X164031842Y-85882932D01*
X164318740Y-85940000D01*
X164611260Y-85940000D01*
X164898158Y-85882932D01*
X165168411Y-85770990D01*
X165411632Y-85608475D01*
X165618475Y-85401632D01*
X165735000Y-85227240D01*
X165851525Y-85401632D01*
X166058368Y-85608475D01*
X166301589Y-85770990D01*
X166571842Y-85882932D01*
X166858740Y-85940000D01*
X167151260Y-85940000D01*
X167438158Y-85882932D01*
X167708411Y-85770990D01*
X167951632Y-85608475D01*
X168158475Y-85401632D01*
X168275000Y-85227240D01*
X168391525Y-85401632D01*
X168598368Y-85608475D01*
X168841589Y-85770990D01*
X169111842Y-85882932D01*
X169398740Y-85940000D01*
X169691260Y-85940000D01*
X169978158Y-85882932D01*
X170248411Y-85770990D01*
X170491632Y-85608475D01*
X170698475Y-85401632D01*
X170815000Y-85227240D01*
X170931525Y-85401632D01*
X171138368Y-85608475D01*
X171381589Y-85770990D01*
X171651842Y-85882932D01*
X171938740Y-85940000D01*
X172231260Y-85940000D01*
X172518158Y-85882932D01*
X172788411Y-85770990D01*
X173031632Y-85608475D01*
X173238475Y-85401632D01*
X173355000Y-85227240D01*
X173471525Y-85401632D01*
X173678368Y-85608475D01*
X173921589Y-85770990D01*
X174191842Y-85882932D01*
X174478740Y-85940000D01*
X174771260Y-85940000D01*
X175058158Y-85882932D01*
X175328411Y-85770990D01*
X175571632Y-85608475D01*
X175696710Y-85483397D01*
X176316208Y-85483397D01*
X176393843Y-85732472D01*
X176657883Y-85858371D01*
X176941411Y-85930339D01*
X177233531Y-85945611D01*
X177523019Y-85903599D01*
X177798747Y-85805919D01*
X177936157Y-85732472D01*
X178013792Y-85483397D01*
X177165000Y-84634605D01*
X176316208Y-85483397D01*
X175696710Y-85483397D01*
X175778475Y-85401632D01*
X175894311Y-85228271D01*
X176136603Y-85303792D01*
X176985395Y-84455000D01*
X177344605Y-84455000D01*
X178193397Y-85303792D01*
X178435689Y-85228271D01*
X178551525Y-85401632D01*
X178758368Y-85608475D01*
X179001589Y-85770990D01*
X179271842Y-85882932D01*
X179558740Y-85940000D01*
X179851260Y-85940000D01*
X180138158Y-85882932D01*
X180408411Y-85770990D01*
X180651632Y-85608475D01*
X180858475Y-85401632D01*
X180975000Y-85227240D01*
X181091525Y-85401632D01*
X181298368Y-85608475D01*
X181541589Y-85770990D01*
X181811842Y-85882932D01*
X182098740Y-85940000D01*
X182391260Y-85940000D01*
X182678158Y-85882932D01*
X182948411Y-85770990D01*
X183191632Y-85608475D01*
X183323487Y-85476620D01*
X183345498Y-85549180D01*
X183404463Y-85659494D01*
X183483815Y-85756185D01*
X183580506Y-85835537D01*
X183690820Y-85894502D01*
X183810518Y-85930812D01*
X183935000Y-85943072D01*
X185635000Y-85943072D01*
X185759482Y-85930812D01*
X185846590Y-85904388D01*
X185897068Y-86158158D01*
X186009010Y-86428411D01*
X186171525Y-86671632D01*
X186378368Y-86878475D01*
X186552760Y-86995000D01*
X186378368Y-87111525D01*
X186171525Y-87318368D01*
X186009010Y-87561589D01*
X185897068Y-87831842D01*
X185840000Y-88118740D01*
X185840000Y-88411260D01*
X185897068Y-88698158D01*
X186009010Y-88968411D01*
X186171525Y-89211632D01*
X186378368Y-89418475D01*
X186552760Y-89535000D01*
X186378368Y-89651525D01*
X186171525Y-89858368D01*
X186009010Y-90101589D01*
X185897068Y-90371842D01*
X185840000Y-90658740D01*
X185840000Y-90951260D01*
X185897068Y-91238158D01*
X186009010Y-91508411D01*
X186171525Y-91751632D01*
X186378368Y-91958475D01*
X186552760Y-92075000D01*
X186378368Y-92191525D01*
X186171525Y-92398368D01*
X186009010Y-92641589D01*
X185897068Y-92911842D01*
X185840000Y-93198740D01*
X185840000Y-93491260D01*
X185897068Y-93778158D01*
X186009010Y-94048411D01*
X186171525Y-94291632D01*
X186378368Y-94498475D01*
X186552760Y-94615000D01*
X186378368Y-94731525D01*
X186171525Y-94938368D01*
X186009010Y-95181589D01*
X185897068Y-95451842D01*
X185840000Y-95738740D01*
X185840000Y-96031260D01*
X185897068Y-96318158D01*
X186009010Y-96588411D01*
X186171525Y-96831632D01*
X186378368Y-97038475D01*
X186552760Y-97155000D01*
X186378368Y-97271525D01*
X186171525Y-97478368D01*
X186009010Y-97721589D01*
X185897068Y-97991842D01*
X185840000Y-98278740D01*
X185840000Y-98571260D01*
X185859525Y-98669418D01*
X185731632Y-98541525D01*
X185488411Y-98379010D01*
X185218158Y-98267068D01*
X184931260Y-98210000D01*
X184638740Y-98210000D01*
X184351842Y-98267068D01*
X184081589Y-98379010D01*
X183838368Y-98541525D01*
X183631525Y-98748368D01*
X183515689Y-98921729D01*
X183273397Y-98846208D01*
X182424605Y-99695000D01*
X183273397Y-100543792D01*
X183515689Y-100468271D01*
X183631525Y-100641632D01*
X183838368Y-100848475D01*
X184081589Y-101010990D01*
X184351842Y-101122932D01*
X184638740Y-101180000D01*
X184931260Y-101180000D01*
X185218158Y-101122932D01*
X185488411Y-101010990D01*
X185731632Y-100848475D01*
X185938475Y-100641632D01*
X186100990Y-100398411D01*
X186212932Y-100128158D01*
X186270000Y-99841260D01*
X186270000Y-99548740D01*
X186250475Y-99450582D01*
X186378368Y-99578475D01*
X186621589Y-99740990D01*
X186891842Y-99852932D01*
X187178740Y-99910000D01*
X187471260Y-99910000D01*
X187758158Y-99852932D01*
X188028411Y-99740990D01*
X188271632Y-99578475D01*
X188478475Y-99371632D01*
X188640990Y-99128411D01*
X188752932Y-98858158D01*
X188810000Y-98571260D01*
X188810000Y-98278740D01*
X188752932Y-97991842D01*
X188640990Y-97721589D01*
X188478475Y-97478368D01*
X188271632Y-97271525D01*
X188097240Y-97155000D01*
X188271632Y-97038475D01*
X188478475Y-96831632D01*
X188640990Y-96588411D01*
X188752932Y-96318158D01*
X188810000Y-96031260D01*
X188810000Y-95738740D01*
X188752932Y-95451842D01*
X188640990Y-95181589D01*
X188478475Y-94938368D01*
X188271632Y-94731525D01*
X188097240Y-94615000D01*
X188271632Y-94498475D01*
X188478475Y-94291632D01*
X188640990Y-94048411D01*
X188752932Y-93778158D01*
X188810000Y-93491260D01*
X188810000Y-93198740D01*
X188752932Y-92911842D01*
X188640990Y-92641589D01*
X188478475Y-92398368D01*
X188271632Y-92191525D01*
X188097240Y-92075000D01*
X188271632Y-91958475D01*
X188478475Y-91751632D01*
X188640990Y-91508411D01*
X188752932Y-91238158D01*
X188810000Y-90951260D01*
X188810000Y-90658740D01*
X188752932Y-90371842D01*
X188640990Y-90101589D01*
X188478475Y-89858368D01*
X188271632Y-89651525D01*
X188097240Y-89535000D01*
X188271632Y-89418475D01*
X188478475Y-89211632D01*
X188640990Y-88968411D01*
X188752932Y-88698158D01*
X188810000Y-88411260D01*
X188810000Y-88118740D01*
X188752932Y-87831842D01*
X188640990Y-87561589D01*
X188478475Y-87318368D01*
X188271632Y-87111525D01*
X188097240Y-86995000D01*
X188271632Y-86878475D01*
X188478475Y-86671632D01*
X188640990Y-86428411D01*
X188752932Y-86158158D01*
X188810000Y-85871260D01*
X188810000Y-85578740D01*
X188752932Y-85291842D01*
X188640990Y-85021589D01*
X188478475Y-84778368D01*
X188271632Y-84571525D01*
X188028411Y-84409010D01*
X187758158Y-84297068D01*
X187471260Y-84240000D01*
X187178740Y-84240000D01*
X186891842Y-84297068D01*
X186621589Y-84409010D01*
X186378368Y-84571525D01*
X186273072Y-84676821D01*
X186273072Y-83605000D01*
X186260812Y-83480518D01*
X186224502Y-83360820D01*
X186165537Y-83250506D01*
X186086185Y-83153815D01*
X185989494Y-83074463D01*
X185879180Y-83015498D01*
X185759482Y-82979188D01*
X185635000Y-82966928D01*
X183935000Y-82966928D01*
X183810518Y-82979188D01*
X183690820Y-83015498D01*
X183580506Y-83074463D01*
X183483815Y-83153815D01*
X183404463Y-83250506D01*
X183345498Y-83360820D01*
X183323487Y-83433380D01*
X183191632Y-83301525D01*
X182948411Y-83139010D01*
X182678158Y-83027068D01*
X182391260Y-82970000D01*
X182098740Y-82970000D01*
X181811842Y-83027068D01*
X181541589Y-83139010D01*
X181298368Y-83301525D01*
X181091525Y-83508368D01*
X180975000Y-83682760D01*
X180858475Y-83508368D01*
X180651632Y-83301525D01*
X180408411Y-83139010D01*
X180138158Y-83027068D01*
X179851260Y-82970000D01*
X179558740Y-82970000D01*
X179271842Y-83027068D01*
X179001589Y-83139010D01*
X178758368Y-83301525D01*
X178551525Y-83508368D01*
X178435689Y-83681729D01*
X178193397Y-83606208D01*
X177344605Y-84455000D01*
X176985395Y-84455000D01*
X176136603Y-83606208D01*
X175894311Y-83681729D01*
X175778475Y-83508368D01*
X175696710Y-83426603D01*
X176316208Y-83426603D01*
X177165000Y-84275395D01*
X178013792Y-83426603D01*
X177936157Y-83177528D01*
X177672117Y-83051629D01*
X177388589Y-82979661D01*
X177096469Y-82964389D01*
X176806981Y-83006401D01*
X176531253Y-83104081D01*
X176393843Y-83177528D01*
X176316208Y-83426603D01*
X175696710Y-83426603D01*
X175571632Y-83301525D01*
X175328411Y-83139010D01*
X175058158Y-83027068D01*
X174771260Y-82970000D01*
X174478740Y-82970000D01*
X174191842Y-83027068D01*
X173921589Y-83139010D01*
X173678368Y-83301525D01*
X173471525Y-83508368D01*
X173355000Y-83682760D01*
X173238475Y-83508368D01*
X173031632Y-83301525D01*
X172788411Y-83139010D01*
X172518158Y-83027068D01*
X172231260Y-82970000D01*
X171938740Y-82970000D01*
X171651842Y-83027068D01*
X171381589Y-83139010D01*
X171138368Y-83301525D01*
X170931525Y-83508368D01*
X170815000Y-83682760D01*
X170698475Y-83508368D01*
X170491632Y-83301525D01*
X170248411Y-83139010D01*
X169978158Y-83027068D01*
X169691260Y-82970000D01*
X169398740Y-82970000D01*
X169111842Y-83027068D01*
X168841589Y-83139010D01*
X168598368Y-83301525D01*
X168391525Y-83508368D01*
X168275000Y-83682760D01*
X168158475Y-83508368D01*
X167951632Y-83301525D01*
X167708411Y-83139010D01*
X167438158Y-83027068D01*
X167151260Y-82970000D01*
X166858740Y-82970000D01*
X166571842Y-83027068D01*
X166301589Y-83139010D01*
X166058368Y-83301525D01*
X165851525Y-83508368D01*
X165735000Y-83682760D01*
X165618475Y-83508368D01*
X165411632Y-83301525D01*
X165168411Y-83139010D01*
X164898158Y-83027068D01*
X164611260Y-82970000D01*
X164318740Y-82970000D01*
X164031842Y-83027068D01*
X163761589Y-83139010D01*
X163518368Y-83301525D01*
X163311525Y-83508368D01*
X163195000Y-83682760D01*
X163078475Y-83508368D01*
X162871632Y-83301525D01*
X162628411Y-83139010D01*
X162358158Y-83027068D01*
X162071260Y-82970000D01*
X161778740Y-82970000D01*
X161491842Y-83027068D01*
X161221589Y-83139010D01*
X160978368Y-83301525D01*
X160771525Y-83508368D01*
X160655000Y-83682760D01*
X160538475Y-83508368D01*
X160331632Y-83301525D01*
X160088411Y-83139010D01*
X159818158Y-83027068D01*
X159531260Y-82970000D01*
X159238740Y-82970000D01*
X158951842Y-83027068D01*
X158681589Y-83139010D01*
X158438368Y-83301525D01*
X158231525Y-83508368D01*
X158115000Y-83682760D01*
X157998475Y-83508368D01*
X157791632Y-83301525D01*
X157548411Y-83139010D01*
X157278158Y-83027068D01*
X156991260Y-82970000D01*
X156698740Y-82970000D01*
X156411842Y-83027068D01*
X156141589Y-83139010D01*
X155898368Y-83301525D01*
X155691525Y-83508368D01*
X155529010Y-83751589D01*
X155417068Y-84021842D01*
X155360000Y-84308740D01*
X151255000Y-84308740D01*
X151255000Y-83253711D01*
X151298937Y-83209774D01*
X151412205Y-83040256D01*
X151490226Y-82851898D01*
X151530000Y-82651939D01*
X151530000Y-82448061D01*
X151490226Y-82248102D01*
X151412205Y-82059744D01*
X151298937Y-81890226D01*
X151154774Y-81746063D01*
X150985256Y-81632795D01*
X150796898Y-81554774D01*
X150596939Y-81515000D01*
X150393061Y-81515000D01*
X150195840Y-81554229D01*
X150142205Y-81424744D01*
X150028937Y-81255226D01*
X149884774Y-81111063D01*
X149715256Y-80997795D01*
X149526898Y-80919774D01*
X149326939Y-80880000D01*
X149123061Y-80880000D01*
X148923102Y-80919774D01*
X148734744Y-80997795D01*
X148565226Y-81111063D01*
X148421063Y-81255226D01*
X148307795Y-81424744D01*
X148229774Y-81613102D01*
X148190000Y-81813061D01*
X108660000Y-81813061D01*
X108660000Y-76693665D01*
X126835000Y-76693665D01*
X126835000Y-76976335D01*
X126890147Y-77253574D01*
X126998320Y-77514727D01*
X127155363Y-77749759D01*
X127355241Y-77949637D01*
X127590273Y-78106680D01*
X127851426Y-78214853D01*
X128128665Y-78270000D01*
X128411335Y-78270000D01*
X128688574Y-78214853D01*
X128949727Y-78106680D01*
X129184759Y-77949637D01*
X129384637Y-77749759D01*
X129541680Y-77514727D01*
X129649853Y-77253574D01*
X129705000Y-76976335D01*
X129705000Y-76693665D01*
X136995000Y-76693665D01*
X136995000Y-76976335D01*
X137050147Y-77253574D01*
X137158320Y-77514727D01*
X137315363Y-77749759D01*
X137515241Y-77949637D01*
X137750273Y-78106680D01*
X138011426Y-78214853D01*
X138288665Y-78270000D01*
X138571335Y-78270000D01*
X138848574Y-78214853D01*
X139109727Y-78106680D01*
X139344759Y-77949637D01*
X139544637Y-77749759D01*
X139701680Y-77514727D01*
X139809853Y-77253574D01*
X139865000Y-76976335D01*
X139865000Y-76693665D01*
X139809853Y-76416426D01*
X139701680Y-76155273D01*
X139544637Y-75920241D01*
X139344759Y-75720363D01*
X139109727Y-75563320D01*
X138848574Y-75455147D01*
X138571335Y-75400000D01*
X138288665Y-75400000D01*
X138011426Y-75455147D01*
X137750273Y-75563320D01*
X137515241Y-75720363D01*
X137315363Y-75920241D01*
X137158320Y-76155273D01*
X137050147Y-76416426D01*
X136995000Y-76693665D01*
X129705000Y-76693665D01*
X129649853Y-76416426D01*
X129541680Y-76155273D01*
X129384637Y-75920241D01*
X129184759Y-75720363D01*
X128949727Y-75563320D01*
X128688574Y-75455147D01*
X128411335Y-75400000D01*
X128128665Y-75400000D01*
X127851426Y-75455147D01*
X127590273Y-75563320D01*
X127355241Y-75720363D01*
X127155363Y-75920241D01*
X126998320Y-76155273D01*
X126890147Y-76416426D01*
X126835000Y-76693665D01*
X108660000Y-76693665D01*
X108660000Y-67965000D01*
X114831928Y-67965000D01*
X114844188Y-68089482D01*
X114880498Y-68209180D01*
X114939463Y-68319494D01*
X115018815Y-68416185D01*
X115115506Y-68495537D01*
X115225820Y-68554502D01*
X115345518Y-68590812D01*
X115470000Y-68603072D01*
X116934250Y-68600000D01*
X117093000Y-68441250D01*
X117093000Y-66342000D01*
X117347000Y-66342000D01*
X117347000Y-68441250D01*
X117505750Y-68600000D01*
X118970000Y-68603072D01*
X119094482Y-68590812D01*
X119214180Y-68554502D01*
X119324494Y-68495537D01*
X119421185Y-68416185D01*
X119500537Y-68319494D01*
X119531928Y-68260767D01*
X119531928Y-70965000D01*
X119544188Y-71089482D01*
X119580498Y-71209180D01*
X119639463Y-71319494D01*
X119718815Y-71416185D01*
X119815506Y-71495537D01*
X119925820Y-71554502D01*
X120045518Y-71590812D01*
X120170000Y-71603072D01*
X123670000Y-71603072D01*
X123794482Y-71590812D01*
X123914180Y-71554502D01*
X124024494Y-71495537D01*
X124121185Y-71416185D01*
X124200537Y-71319494D01*
X124259502Y-71209180D01*
X124295812Y-71089482D01*
X124308072Y-70965000D01*
X124308072Y-70150000D01*
X192011928Y-70150000D01*
X192011928Y-71850000D01*
X192024188Y-71974482D01*
X192060498Y-72094180D01*
X192119463Y-72204494D01*
X192198815Y-72301185D01*
X192295506Y-72380537D01*
X192405820Y-72439502D01*
X192525518Y-72475812D01*
X192650000Y-72488072D01*
X194350000Y-72488072D01*
X194474482Y-72475812D01*
X194594180Y-72439502D01*
X194704494Y-72380537D01*
X194801185Y-72301185D01*
X194880537Y-72204494D01*
X194939502Y-72094180D01*
X194975812Y-71974482D01*
X194988072Y-71850000D01*
X194988072Y-70150000D01*
X194975812Y-70025518D01*
X194939502Y-69905820D01*
X194880537Y-69795506D01*
X194801185Y-69698815D01*
X194704494Y-69619463D01*
X194594180Y-69560498D01*
X194474482Y-69524188D01*
X194350000Y-69511928D01*
X192650000Y-69511928D01*
X192525518Y-69524188D01*
X192405820Y-69560498D01*
X192295506Y-69619463D01*
X192198815Y-69698815D01*
X192119463Y-69795506D01*
X192060498Y-69905820D01*
X192024188Y-70025518D01*
X192011928Y-70150000D01*
X124308072Y-70150000D01*
X124308072Y-67465000D01*
X124295812Y-67340518D01*
X124259502Y-67220820D01*
X124200537Y-67110506D01*
X124121185Y-67013815D01*
X124024494Y-66934463D01*
X123914180Y-66875498D01*
X123794482Y-66839188D01*
X123670000Y-66826928D01*
X120170000Y-66826928D01*
X120045518Y-66839188D01*
X119925820Y-66875498D01*
X119815506Y-66934463D01*
X119718815Y-67013815D01*
X119639463Y-67110506D01*
X119606409Y-67172345D01*
X119605000Y-66500750D01*
X119446250Y-66342000D01*
X117347000Y-66342000D01*
X117093000Y-66342000D01*
X114993750Y-66342000D01*
X114835000Y-66500750D01*
X114831928Y-67965000D01*
X108660000Y-67965000D01*
X108660000Y-62265098D01*
X110115000Y-62265098D01*
X110115000Y-62734902D01*
X110206654Y-63195679D01*
X110386440Y-63629721D01*
X110647450Y-64020349D01*
X110979651Y-64352550D01*
X111370279Y-64613560D01*
X111804321Y-64793346D01*
X112265098Y-64885000D01*
X112734902Y-64885000D01*
X113195679Y-64793346D01*
X113629721Y-64613560D01*
X113852056Y-64465000D01*
X114831928Y-64465000D01*
X114835000Y-65929250D01*
X114993750Y-66088000D01*
X117093000Y-66088000D01*
X117093000Y-63988750D01*
X117347000Y-63988750D01*
X117347000Y-66088000D01*
X119446250Y-66088000D01*
X119605000Y-65929250D01*
X119606931Y-65008633D01*
X119639463Y-65069494D01*
X119718815Y-65166185D01*
X119815506Y-65245537D01*
X119925820Y-65304502D01*
X120045518Y-65340812D01*
X120170000Y-65353072D01*
X121634250Y-65350000D01*
X121793000Y-65191250D01*
X121793000Y-63342000D01*
X122047000Y-63342000D01*
X122047000Y-65191250D01*
X122205750Y-65350000D01*
X123670000Y-65353072D01*
X123794482Y-65340812D01*
X123914180Y-65304502D01*
X124024494Y-65245537D01*
X124121185Y-65166185D01*
X124200537Y-65069494D01*
X124259502Y-64959180D01*
X124295812Y-64839482D01*
X124303477Y-64761653D01*
X180687952Y-64761653D01*
X180843962Y-65077214D01*
X181218745Y-65268020D01*
X181623551Y-65382044D01*
X182042824Y-65414902D01*
X182460451Y-65365334D01*
X182860383Y-65235243D01*
X183156038Y-65077214D01*
X183312048Y-64761653D01*
X184497952Y-64761653D01*
X184653962Y-65077214D01*
X185028745Y-65268020D01*
X185433551Y-65382044D01*
X185852824Y-65414902D01*
X186270451Y-65365334D01*
X186670383Y-65235243D01*
X186966038Y-65077214D01*
X187122048Y-64761653D01*
X185810000Y-63449605D01*
X184497952Y-64761653D01*
X183312048Y-64761653D01*
X182000000Y-63449605D01*
X180687952Y-64761653D01*
X124303477Y-64761653D01*
X124308072Y-64715000D01*
X124305000Y-63500750D01*
X124146250Y-63342000D01*
X122047000Y-63342000D01*
X121793000Y-63342000D01*
X119693750Y-63342000D01*
X119535000Y-63500750D01*
X119533302Y-64171805D01*
X119500537Y-64110506D01*
X119421185Y-64013815D01*
X119324494Y-63934463D01*
X119214180Y-63875498D01*
X119094482Y-63839188D01*
X118970000Y-63826928D01*
X117505750Y-63830000D01*
X117347000Y-63988750D01*
X117093000Y-63988750D01*
X116934250Y-63830000D01*
X115470000Y-63826928D01*
X115345518Y-63839188D01*
X115225820Y-63875498D01*
X115115506Y-63934463D01*
X115018815Y-64013815D01*
X114939463Y-64110506D01*
X114880498Y-64220820D01*
X114844188Y-64340518D01*
X114831928Y-64465000D01*
X113852056Y-64465000D01*
X114020349Y-64352550D01*
X114352550Y-64020349D01*
X114613560Y-63629721D01*
X114793346Y-63195679D01*
X114885000Y-62734902D01*
X114885000Y-62265098D01*
X114793346Y-61804321D01*
X114756349Y-61715000D01*
X119531928Y-61715000D01*
X119535000Y-62929250D01*
X119693750Y-63088000D01*
X121793000Y-63088000D01*
X121793000Y-61238750D01*
X122047000Y-61238750D01*
X122047000Y-63088000D01*
X124146250Y-63088000D01*
X124305000Y-62929250D01*
X124307139Y-62083740D01*
X131195000Y-62083740D01*
X131195000Y-62376260D01*
X131252068Y-62663158D01*
X131364010Y-62933411D01*
X131526525Y-63176632D01*
X131733368Y-63383475D01*
X131976589Y-63545990D01*
X132246842Y-63657932D01*
X132533740Y-63715000D01*
X132826260Y-63715000D01*
X133113158Y-63657932D01*
X133383411Y-63545990D01*
X133626632Y-63383475D01*
X133833475Y-63176632D01*
X133950000Y-63002240D01*
X134066525Y-63176632D01*
X134273368Y-63383475D01*
X134516589Y-63545990D01*
X134786842Y-63657932D01*
X135073740Y-63715000D01*
X135366260Y-63715000D01*
X135653158Y-63657932D01*
X135923411Y-63545990D01*
X136166632Y-63383475D01*
X136373475Y-63176632D01*
X136490000Y-63002240D01*
X136606525Y-63176632D01*
X136813368Y-63383475D01*
X137056589Y-63545990D01*
X137326842Y-63657932D01*
X137613740Y-63715000D01*
X137906260Y-63715000D01*
X138193158Y-63657932D01*
X138463411Y-63545990D01*
X138706632Y-63383475D01*
X138913475Y-63176632D01*
X139030000Y-63002240D01*
X139146525Y-63176632D01*
X139353368Y-63383475D01*
X139596589Y-63545990D01*
X139866842Y-63657932D01*
X140153740Y-63715000D01*
X140446260Y-63715000D01*
X140733158Y-63657932D01*
X141003411Y-63545990D01*
X141246632Y-63383475D01*
X141453475Y-63176632D01*
X141570000Y-63002240D01*
X141686525Y-63176632D01*
X141893368Y-63383475D01*
X142136589Y-63545990D01*
X142406842Y-63657932D01*
X142693740Y-63715000D01*
X142986260Y-63715000D01*
X143273158Y-63657932D01*
X143543411Y-63545990D01*
X143786632Y-63383475D01*
X143993475Y-63176632D01*
X144110000Y-63002240D01*
X144226525Y-63176632D01*
X144433368Y-63383475D01*
X144676589Y-63545990D01*
X144946842Y-63657932D01*
X145233740Y-63715000D01*
X145526260Y-63715000D01*
X145813158Y-63657932D01*
X146083411Y-63545990D01*
X146326632Y-63383475D01*
X146533475Y-63176632D01*
X146650000Y-63002240D01*
X146766525Y-63176632D01*
X146973368Y-63383475D01*
X147216589Y-63545990D01*
X147486842Y-63657932D01*
X147773740Y-63715000D01*
X148066260Y-63715000D01*
X148353158Y-63657932D01*
X148623411Y-63545990D01*
X148866632Y-63383475D01*
X149073475Y-63176632D01*
X149190000Y-63002240D01*
X149306525Y-63176632D01*
X149513368Y-63383475D01*
X149756589Y-63545990D01*
X150026842Y-63657932D01*
X150313740Y-63715000D01*
X150606260Y-63715000D01*
X150893158Y-63657932D01*
X151163411Y-63545990D01*
X151406632Y-63383475D01*
X151613475Y-63176632D01*
X151730000Y-63002240D01*
X151846525Y-63176632D01*
X152053368Y-63383475D01*
X152296589Y-63545990D01*
X152566842Y-63657932D01*
X152853740Y-63715000D01*
X153146260Y-63715000D01*
X153433158Y-63657932D01*
X153703411Y-63545990D01*
X153946632Y-63383475D01*
X154153475Y-63176632D01*
X154270000Y-63002240D01*
X154386525Y-63176632D01*
X154593368Y-63383475D01*
X154836589Y-63545990D01*
X155106842Y-63657932D01*
X155393740Y-63715000D01*
X155686260Y-63715000D01*
X155973158Y-63657932D01*
X156243411Y-63545990D01*
X156486632Y-63383475D01*
X156693475Y-63176632D01*
X156810000Y-63002240D01*
X156926525Y-63176632D01*
X157133368Y-63383475D01*
X157376589Y-63545990D01*
X157646842Y-63657932D01*
X157933740Y-63715000D01*
X158226260Y-63715000D01*
X158513158Y-63657932D01*
X158783411Y-63545990D01*
X159026632Y-63383475D01*
X159233475Y-63176632D01*
X159350000Y-63002240D01*
X159466525Y-63176632D01*
X159673368Y-63383475D01*
X159916589Y-63545990D01*
X160186842Y-63657932D01*
X160473740Y-63715000D01*
X160766260Y-63715000D01*
X161053158Y-63657932D01*
X161323411Y-63545990D01*
X161566632Y-63383475D01*
X161773475Y-63176632D01*
X161890000Y-63002240D01*
X162006525Y-63176632D01*
X162213368Y-63383475D01*
X162456589Y-63545990D01*
X162726842Y-63657932D01*
X163013740Y-63715000D01*
X163306260Y-63715000D01*
X163593158Y-63657932D01*
X163863411Y-63545990D01*
X164106632Y-63383475D01*
X164313475Y-63176632D01*
X164430000Y-63002240D01*
X164546525Y-63176632D01*
X164753368Y-63383475D01*
X164996589Y-63545990D01*
X165266842Y-63657932D01*
X165553740Y-63715000D01*
X165846260Y-63715000D01*
X166133158Y-63657932D01*
X166403411Y-63545990D01*
X166646632Y-63383475D01*
X166853475Y-63176632D01*
X166970000Y-63002240D01*
X167086525Y-63176632D01*
X167293368Y-63383475D01*
X167536589Y-63545990D01*
X167806842Y-63657932D01*
X168093740Y-63715000D01*
X168386260Y-63715000D01*
X168673158Y-63657932D01*
X168943411Y-63545990D01*
X169186632Y-63383475D01*
X169393475Y-63176632D01*
X169510000Y-63002240D01*
X169626525Y-63176632D01*
X169833368Y-63383475D01*
X170076589Y-63545990D01*
X170346842Y-63657932D01*
X170633740Y-63715000D01*
X170926260Y-63715000D01*
X171213158Y-63657932D01*
X171483411Y-63545990D01*
X171726632Y-63383475D01*
X171933475Y-63176632D01*
X172050000Y-63002240D01*
X172166525Y-63176632D01*
X172373368Y-63383475D01*
X172616589Y-63545990D01*
X172886842Y-63657932D01*
X173173740Y-63715000D01*
X173466260Y-63715000D01*
X173753158Y-63657932D01*
X174023411Y-63545990D01*
X174266632Y-63383475D01*
X174337283Y-63312824D01*
X179855098Y-63312824D01*
X179904666Y-63730451D01*
X180034757Y-64130383D01*
X180192786Y-64426038D01*
X180508347Y-64582048D01*
X181820395Y-63270000D01*
X182179605Y-63270000D01*
X183491653Y-64582048D01*
X183807214Y-64426038D01*
X183902621Y-64238639D01*
X184002786Y-64426038D01*
X184318347Y-64582048D01*
X185630395Y-63270000D01*
X185989605Y-63270000D01*
X187301653Y-64582048D01*
X187617214Y-64426038D01*
X187808020Y-64051255D01*
X187922044Y-63646449D01*
X187954902Y-63227176D01*
X187905334Y-62809549D01*
X187775243Y-62409617D01*
X187697997Y-62265098D01*
X191115000Y-62265098D01*
X191115000Y-62734902D01*
X191206654Y-63195679D01*
X191386440Y-63629721D01*
X191647450Y-64020349D01*
X191979651Y-64352550D01*
X192370279Y-64613560D01*
X192804321Y-64793346D01*
X193265098Y-64885000D01*
X193734902Y-64885000D01*
X194195679Y-64793346D01*
X194629721Y-64613560D01*
X195020349Y-64352550D01*
X195352550Y-64020349D01*
X195613560Y-63629721D01*
X195793346Y-63195679D01*
X195885000Y-62734902D01*
X195885000Y-62265098D01*
X195793346Y-61804321D01*
X195613560Y-61370279D01*
X195352550Y-60979651D01*
X195020349Y-60647450D01*
X194629721Y-60386440D01*
X194195679Y-60206654D01*
X193734902Y-60115000D01*
X193265098Y-60115000D01*
X192804321Y-60206654D01*
X192370279Y-60386440D01*
X191979651Y-60647450D01*
X191647450Y-60979651D01*
X191386440Y-61370279D01*
X191206654Y-61804321D01*
X191115000Y-62265098D01*
X187697997Y-62265098D01*
X187617214Y-62113962D01*
X187301653Y-61957952D01*
X185989605Y-63270000D01*
X185630395Y-63270000D01*
X184318347Y-61957952D01*
X184002786Y-62113962D01*
X183907379Y-62301361D01*
X183807214Y-62113962D01*
X183491653Y-61957952D01*
X182179605Y-63270000D01*
X181820395Y-63270000D01*
X180508347Y-61957952D01*
X180192786Y-62113962D01*
X180001980Y-62488745D01*
X179887956Y-62893551D01*
X179855098Y-63312824D01*
X174337283Y-63312824D01*
X174473475Y-63176632D01*
X174635990Y-62933411D01*
X174747932Y-62663158D01*
X174805000Y-62376260D01*
X174805000Y-62083740D01*
X174747932Y-61796842D01*
X174740272Y-61778347D01*
X180687952Y-61778347D01*
X182000000Y-63090395D01*
X183312048Y-61778347D01*
X184497952Y-61778347D01*
X185810000Y-63090395D01*
X187122048Y-61778347D01*
X186966038Y-61462786D01*
X186591255Y-61271980D01*
X186186449Y-61157956D01*
X185767176Y-61125098D01*
X185349549Y-61174666D01*
X184949617Y-61304757D01*
X184653962Y-61462786D01*
X184497952Y-61778347D01*
X183312048Y-61778347D01*
X183156038Y-61462786D01*
X182781255Y-61271980D01*
X182376449Y-61157956D01*
X181957176Y-61125098D01*
X181539549Y-61174666D01*
X181139617Y-61304757D01*
X180843962Y-61462786D01*
X180687952Y-61778347D01*
X174740272Y-61778347D01*
X174635990Y-61526589D01*
X174473475Y-61283368D01*
X174341620Y-61151513D01*
X174414180Y-61129502D01*
X174524494Y-61070537D01*
X174621185Y-60991185D01*
X174700537Y-60894494D01*
X174759502Y-60784180D01*
X174795812Y-60664482D01*
X174808072Y-60540000D01*
X174805000Y-59975750D01*
X174646250Y-59817000D01*
X173447000Y-59817000D01*
X173447000Y-59837000D01*
X173193000Y-59837000D01*
X173193000Y-59817000D01*
X173173000Y-59817000D01*
X173173000Y-59563000D01*
X173193000Y-59563000D01*
X173193000Y-58363750D01*
X173447000Y-58363750D01*
X173447000Y-59563000D01*
X174646250Y-59563000D01*
X174805000Y-59404250D01*
X174808072Y-58840000D01*
X174795812Y-58715518D01*
X174759502Y-58595820D01*
X174700537Y-58485506D01*
X174621185Y-58388815D01*
X174524494Y-58309463D01*
X174414180Y-58250498D01*
X174294482Y-58214188D01*
X174170000Y-58201928D01*
X173605750Y-58205000D01*
X173447000Y-58363750D01*
X173193000Y-58363750D01*
X173034250Y-58205000D01*
X172470000Y-58201928D01*
X172345518Y-58214188D01*
X172225820Y-58250498D01*
X172115506Y-58309463D01*
X172018815Y-58388815D01*
X171939463Y-58485506D01*
X171880498Y-58595820D01*
X171858487Y-58668380D01*
X171726632Y-58536525D01*
X171483411Y-58374010D01*
X171213158Y-58262068D01*
X170926260Y-58205000D01*
X170633740Y-58205000D01*
X170346842Y-58262068D01*
X170076589Y-58374010D01*
X169833368Y-58536525D01*
X169626525Y-58743368D01*
X169510689Y-58916729D01*
X169268397Y-58841208D01*
X168419605Y-59690000D01*
X169268397Y-60538792D01*
X169510689Y-60463271D01*
X169626525Y-60636632D01*
X169833368Y-60843475D01*
X170007760Y-60960000D01*
X169833368Y-61076525D01*
X169626525Y-61283368D01*
X169510000Y-61457760D01*
X169393475Y-61283368D01*
X169186632Y-61076525D01*
X169013271Y-60960689D01*
X169088792Y-60718397D01*
X168240000Y-59869605D01*
X167391208Y-60718397D01*
X167466729Y-60960689D01*
X167293368Y-61076525D01*
X167086525Y-61283368D01*
X166970000Y-61457760D01*
X166853475Y-61283368D01*
X166646632Y-61076525D01*
X166473271Y-60960689D01*
X166548792Y-60718397D01*
X165700000Y-59869605D01*
X164851208Y-60718397D01*
X164926729Y-60960689D01*
X164753368Y-61076525D01*
X164546525Y-61283368D01*
X164430000Y-61457760D01*
X164313475Y-61283368D01*
X164106632Y-61076525D01*
X163933271Y-60960689D01*
X164008792Y-60718397D01*
X163160000Y-59869605D01*
X162311208Y-60718397D01*
X162386729Y-60960689D01*
X162213368Y-61076525D01*
X162006525Y-61283368D01*
X161890000Y-61457760D01*
X161773475Y-61283368D01*
X161566632Y-61076525D01*
X161393271Y-60960689D01*
X161468792Y-60718397D01*
X160620000Y-59869605D01*
X159771208Y-60718397D01*
X159846729Y-60960689D01*
X159673368Y-61076525D01*
X159466525Y-61283368D01*
X159350000Y-61457760D01*
X159233475Y-61283368D01*
X159026632Y-61076525D01*
X158853271Y-60960689D01*
X158928792Y-60718397D01*
X158080000Y-59869605D01*
X157231208Y-60718397D01*
X157306729Y-60960689D01*
X157133368Y-61076525D01*
X156926525Y-61283368D01*
X156810000Y-61457760D01*
X156693475Y-61283368D01*
X156486632Y-61076525D01*
X156313271Y-60960689D01*
X156388792Y-60718397D01*
X155540000Y-59869605D01*
X154691208Y-60718397D01*
X154766729Y-60960689D01*
X154593368Y-61076525D01*
X154386525Y-61283368D01*
X154270000Y-61457760D01*
X154153475Y-61283368D01*
X153946632Y-61076525D01*
X153773271Y-60960689D01*
X153848792Y-60718397D01*
X153000000Y-59869605D01*
X152151208Y-60718397D01*
X152226729Y-60960689D01*
X152053368Y-61076525D01*
X151846525Y-61283368D01*
X151730000Y-61457760D01*
X151613475Y-61283368D01*
X151406632Y-61076525D01*
X151233271Y-60960689D01*
X151308792Y-60718397D01*
X150460000Y-59869605D01*
X149611208Y-60718397D01*
X149686729Y-60960689D01*
X149513368Y-61076525D01*
X149306525Y-61283368D01*
X149190000Y-61457760D01*
X149073475Y-61283368D01*
X148866632Y-61076525D01*
X148693271Y-60960689D01*
X148768792Y-60718397D01*
X147920000Y-59869605D01*
X147071208Y-60718397D01*
X147146729Y-60960689D01*
X146973368Y-61076525D01*
X146766525Y-61283368D01*
X146650000Y-61457760D01*
X146533475Y-61283368D01*
X146326632Y-61076525D01*
X146153271Y-60960689D01*
X146228792Y-60718397D01*
X145380000Y-59869605D01*
X144531208Y-60718397D01*
X144606729Y-60960689D01*
X144433368Y-61076525D01*
X144226525Y-61283368D01*
X144110000Y-61457760D01*
X143993475Y-61283368D01*
X143786632Y-61076525D01*
X143613271Y-60960689D01*
X143688792Y-60718397D01*
X142840000Y-59869605D01*
X141991208Y-60718397D01*
X142066729Y-60960689D01*
X141893368Y-61076525D01*
X141686525Y-61283368D01*
X141570000Y-61457760D01*
X141453475Y-61283368D01*
X141246632Y-61076525D01*
X141073271Y-60960689D01*
X141148792Y-60718397D01*
X140300000Y-59869605D01*
X139451208Y-60718397D01*
X139526729Y-60960689D01*
X139353368Y-61076525D01*
X139146525Y-61283368D01*
X139030000Y-61457760D01*
X138913475Y-61283368D01*
X138706632Y-61076525D01*
X138533271Y-60960689D01*
X138608792Y-60718397D01*
X137760000Y-59869605D01*
X136911208Y-60718397D01*
X136986729Y-60960689D01*
X136813368Y-61076525D01*
X136606525Y-61283368D01*
X136490000Y-61457760D01*
X136373475Y-61283368D01*
X136166632Y-61076525D01*
X135993271Y-60960689D01*
X136068792Y-60718397D01*
X135220000Y-59869605D01*
X134371208Y-60718397D01*
X134446729Y-60960689D01*
X134273368Y-61076525D01*
X134066525Y-61283368D01*
X133950000Y-61457760D01*
X133833475Y-61283368D01*
X133626632Y-61076525D01*
X133453271Y-60960689D01*
X133528792Y-60718397D01*
X132680000Y-59869605D01*
X131831208Y-60718397D01*
X131906729Y-60960689D01*
X131733368Y-61076525D01*
X131526525Y-61283368D01*
X131364010Y-61526589D01*
X131252068Y-61796842D01*
X131195000Y-62083740D01*
X124307139Y-62083740D01*
X124308072Y-61715000D01*
X124295812Y-61590518D01*
X124259502Y-61470820D01*
X124200537Y-61360506D01*
X124121185Y-61263815D01*
X124024494Y-61184463D01*
X123914180Y-61125498D01*
X123794482Y-61089188D01*
X123670000Y-61076928D01*
X122205750Y-61080000D01*
X122047000Y-61238750D01*
X121793000Y-61238750D01*
X121634250Y-61080000D01*
X120170000Y-61076928D01*
X120045518Y-61089188D01*
X119925820Y-61125498D01*
X119815506Y-61184463D01*
X119718815Y-61263815D01*
X119639463Y-61360506D01*
X119580498Y-61470820D01*
X119544188Y-61590518D01*
X119531928Y-61715000D01*
X114756349Y-61715000D01*
X114613560Y-61370279D01*
X114352550Y-60979651D01*
X114020349Y-60647450D01*
X113629721Y-60386440D01*
X113195679Y-60206654D01*
X112734902Y-60115000D01*
X112265098Y-60115000D01*
X111804321Y-60206654D01*
X111370279Y-60386440D01*
X110979651Y-60647450D01*
X110647450Y-60979651D01*
X110386440Y-61370279D01*
X110206654Y-61804321D01*
X110115000Y-62265098D01*
X108660000Y-62265098D01*
X108660000Y-59758531D01*
X131189389Y-59758531D01*
X131231401Y-60048019D01*
X131329081Y-60323747D01*
X131402528Y-60461157D01*
X131651603Y-60538792D01*
X132500395Y-59690000D01*
X132859605Y-59690000D01*
X133708397Y-60538792D01*
X133950000Y-60463486D01*
X134191603Y-60538792D01*
X135040395Y-59690000D01*
X135399605Y-59690000D01*
X136248397Y-60538792D01*
X136490000Y-60463486D01*
X136731603Y-60538792D01*
X137580395Y-59690000D01*
X137939605Y-59690000D01*
X138788397Y-60538792D01*
X139030000Y-60463486D01*
X139271603Y-60538792D01*
X140120395Y-59690000D01*
X140479605Y-59690000D01*
X141328397Y-60538792D01*
X141570000Y-60463486D01*
X141811603Y-60538792D01*
X142660395Y-59690000D01*
X143019605Y-59690000D01*
X143868397Y-60538792D01*
X144110000Y-60463486D01*
X144351603Y-60538792D01*
X145200395Y-59690000D01*
X145559605Y-59690000D01*
X146408397Y-60538792D01*
X146650000Y-60463486D01*
X146891603Y-60538792D01*
X147740395Y-59690000D01*
X148099605Y-59690000D01*
X148948397Y-60538792D01*
X149190000Y-60463486D01*
X149431603Y-60538792D01*
X150280395Y-59690000D01*
X150639605Y-59690000D01*
X151488397Y-60538792D01*
X151730000Y-60463486D01*
X151971603Y-60538792D01*
X152820395Y-59690000D01*
X153179605Y-59690000D01*
X154028397Y-60538792D01*
X154270000Y-60463486D01*
X154511603Y-60538792D01*
X155360395Y-59690000D01*
X155719605Y-59690000D01*
X156568397Y-60538792D01*
X156810000Y-60463486D01*
X157051603Y-60538792D01*
X157900395Y-59690000D01*
X158259605Y-59690000D01*
X159108397Y-60538792D01*
X159350000Y-60463486D01*
X159591603Y-60538792D01*
X160440395Y-59690000D01*
X160799605Y-59690000D01*
X161648397Y-60538792D01*
X161890000Y-60463486D01*
X162131603Y-60538792D01*
X162980395Y-59690000D01*
X163339605Y-59690000D01*
X164188397Y-60538792D01*
X164430000Y-60463486D01*
X164671603Y-60538792D01*
X165520395Y-59690000D01*
X165879605Y-59690000D01*
X166728397Y-60538792D01*
X166970000Y-60463486D01*
X167211603Y-60538792D01*
X168060395Y-59690000D01*
X167211603Y-58841208D01*
X166970000Y-58916514D01*
X166728397Y-58841208D01*
X165879605Y-59690000D01*
X165520395Y-59690000D01*
X164671603Y-58841208D01*
X164430000Y-58916514D01*
X164188397Y-58841208D01*
X163339605Y-59690000D01*
X162980395Y-59690000D01*
X162131603Y-58841208D01*
X161890000Y-58916514D01*
X161648397Y-58841208D01*
X160799605Y-59690000D01*
X160440395Y-59690000D01*
X159591603Y-58841208D01*
X159350000Y-58916514D01*
X159108397Y-58841208D01*
X158259605Y-59690000D01*
X157900395Y-59690000D01*
X157051603Y-58841208D01*
X156810000Y-58916514D01*
X156568397Y-58841208D01*
X155719605Y-59690000D01*
X155360395Y-59690000D01*
X154511603Y-58841208D01*
X154270000Y-58916514D01*
X154028397Y-58841208D01*
X153179605Y-59690000D01*
X152820395Y-59690000D01*
X151971603Y-58841208D01*
X151730000Y-58916514D01*
X151488397Y-58841208D01*
X150639605Y-59690000D01*
X150280395Y-59690000D01*
X149431603Y-58841208D01*
X149190000Y-58916514D01*
X148948397Y-58841208D01*
X148099605Y-59690000D01*
X147740395Y-59690000D01*
X146891603Y-58841208D01*
X146650000Y-58916514D01*
X146408397Y-58841208D01*
X145559605Y-59690000D01*
X145200395Y-59690000D01*
X144351603Y-58841208D01*
X144110000Y-58916514D01*
X143868397Y-58841208D01*
X143019605Y-59690000D01*
X142660395Y-59690000D01*
X141811603Y-58841208D01*
X141570000Y-58916514D01*
X141328397Y-58841208D01*
X140479605Y-59690000D01*
X140120395Y-59690000D01*
X139271603Y-58841208D01*
X139030000Y-58916514D01*
X138788397Y-58841208D01*
X137939605Y-59690000D01*
X137580395Y-59690000D01*
X136731603Y-58841208D01*
X136490000Y-58916514D01*
X136248397Y-58841208D01*
X135399605Y-59690000D01*
X135040395Y-59690000D01*
X134191603Y-58841208D01*
X133950000Y-58916514D01*
X133708397Y-58841208D01*
X132859605Y-59690000D01*
X132500395Y-59690000D01*
X131651603Y-58841208D01*
X131402528Y-58918843D01*
X131276629Y-59182883D01*
X131204661Y-59466411D01*
X131189389Y-59758531D01*
X108660000Y-59758531D01*
X108660000Y-58661603D01*
X131831208Y-58661603D01*
X132680000Y-59510395D01*
X133528792Y-58661603D01*
X134371208Y-58661603D01*
X135220000Y-59510395D01*
X136068792Y-58661603D01*
X136911208Y-58661603D01*
X137760000Y-59510395D01*
X138608792Y-58661603D01*
X139451208Y-58661603D01*
X140300000Y-59510395D01*
X141148792Y-58661603D01*
X141991208Y-58661603D01*
X142840000Y-59510395D01*
X143688792Y-58661603D01*
X144531208Y-58661603D01*
X145380000Y-59510395D01*
X146228792Y-58661603D01*
X147071208Y-58661603D01*
X147920000Y-59510395D01*
X148768792Y-58661603D01*
X149611208Y-58661603D01*
X150460000Y-59510395D01*
X151308792Y-58661603D01*
X152151208Y-58661603D01*
X153000000Y-59510395D01*
X153848792Y-58661603D01*
X154691208Y-58661603D01*
X155540000Y-59510395D01*
X156388792Y-58661603D01*
X157231208Y-58661603D01*
X158080000Y-59510395D01*
X158928792Y-58661603D01*
X159771208Y-58661603D01*
X160620000Y-59510395D01*
X161468792Y-58661603D01*
X162311208Y-58661603D01*
X163160000Y-59510395D01*
X164008792Y-58661603D01*
X164851208Y-58661603D01*
X165700000Y-59510395D01*
X166548792Y-58661603D01*
X167391208Y-58661603D01*
X168240000Y-59510395D01*
X169088792Y-58661603D01*
X169011157Y-58412528D01*
X168747117Y-58286629D01*
X168463589Y-58214661D01*
X168171469Y-58199389D01*
X167881981Y-58241401D01*
X167606253Y-58339081D01*
X167468843Y-58412528D01*
X167391208Y-58661603D01*
X166548792Y-58661603D01*
X166471157Y-58412528D01*
X166207117Y-58286629D01*
X165923589Y-58214661D01*
X165631469Y-58199389D01*
X165341981Y-58241401D01*
X165066253Y-58339081D01*
X164928843Y-58412528D01*
X164851208Y-58661603D01*
X164008792Y-58661603D01*
X163931157Y-58412528D01*
X163667117Y-58286629D01*
X163383589Y-58214661D01*
X163091469Y-58199389D01*
X162801981Y-58241401D01*
X162526253Y-58339081D01*
X162388843Y-58412528D01*
X162311208Y-58661603D01*
X161468792Y-58661603D01*
X161391157Y-58412528D01*
X161127117Y-58286629D01*
X160843589Y-58214661D01*
X160551469Y-58199389D01*
X160261981Y-58241401D01*
X159986253Y-58339081D01*
X159848843Y-58412528D01*
X159771208Y-58661603D01*
X158928792Y-58661603D01*
X158851157Y-58412528D01*
X158587117Y-58286629D01*
X158303589Y-58214661D01*
X158011469Y-58199389D01*
X157721981Y-58241401D01*
X157446253Y-58339081D01*
X157308843Y-58412528D01*
X157231208Y-58661603D01*
X156388792Y-58661603D01*
X156311157Y-58412528D01*
X156047117Y-58286629D01*
X155763589Y-58214661D01*
X155471469Y-58199389D01*
X155181981Y-58241401D01*
X154906253Y-58339081D01*
X154768843Y-58412528D01*
X154691208Y-58661603D01*
X153848792Y-58661603D01*
X153771157Y-58412528D01*
X153507117Y-58286629D01*
X153223589Y-58214661D01*
X152931469Y-58199389D01*
X152641981Y-58241401D01*
X152366253Y-58339081D01*
X152228843Y-58412528D01*
X152151208Y-58661603D01*
X151308792Y-58661603D01*
X151231157Y-58412528D01*
X150967117Y-58286629D01*
X150683589Y-58214661D01*
X150391469Y-58199389D01*
X150101981Y-58241401D01*
X149826253Y-58339081D01*
X149688843Y-58412528D01*
X149611208Y-58661603D01*
X148768792Y-58661603D01*
X148691157Y-58412528D01*
X148427117Y-58286629D01*
X148143589Y-58214661D01*
X147851469Y-58199389D01*
X147561981Y-58241401D01*
X147286253Y-58339081D01*
X147148843Y-58412528D01*
X147071208Y-58661603D01*
X146228792Y-58661603D01*
X146151157Y-58412528D01*
X145887117Y-58286629D01*
X145603589Y-58214661D01*
X145311469Y-58199389D01*
X145021981Y-58241401D01*
X144746253Y-58339081D01*
X144608843Y-58412528D01*
X144531208Y-58661603D01*
X143688792Y-58661603D01*
X143611157Y-58412528D01*
X143347117Y-58286629D01*
X143063589Y-58214661D01*
X142771469Y-58199389D01*
X142481981Y-58241401D01*
X142206253Y-58339081D01*
X142068843Y-58412528D01*
X141991208Y-58661603D01*
X141148792Y-58661603D01*
X141071157Y-58412528D01*
X140807117Y-58286629D01*
X140523589Y-58214661D01*
X140231469Y-58199389D01*
X139941981Y-58241401D01*
X139666253Y-58339081D01*
X139528843Y-58412528D01*
X139451208Y-58661603D01*
X138608792Y-58661603D01*
X138531157Y-58412528D01*
X138267117Y-58286629D01*
X137983589Y-58214661D01*
X137691469Y-58199389D01*
X137401981Y-58241401D01*
X137126253Y-58339081D01*
X136988843Y-58412528D01*
X136911208Y-58661603D01*
X136068792Y-58661603D01*
X135991157Y-58412528D01*
X135727117Y-58286629D01*
X135443589Y-58214661D01*
X135151469Y-58199389D01*
X134861981Y-58241401D01*
X134586253Y-58339081D01*
X134448843Y-58412528D01*
X134371208Y-58661603D01*
X133528792Y-58661603D01*
X133451157Y-58412528D01*
X133187117Y-58286629D01*
X132903589Y-58214661D01*
X132611469Y-58199389D01*
X132321981Y-58241401D01*
X132046253Y-58339081D01*
X131908843Y-58412528D01*
X131831208Y-58661603D01*
X108660000Y-58661603D01*
X108660000Y-57325000D01*
X179861928Y-57325000D01*
X179861928Y-60325000D01*
X179874188Y-60449482D01*
X179910498Y-60569180D01*
X179969463Y-60679494D01*
X180048815Y-60776185D01*
X180145506Y-60855537D01*
X180255820Y-60914502D01*
X180375518Y-60950812D01*
X180500000Y-60963072D01*
X183500000Y-60963072D01*
X183624482Y-60950812D01*
X183744180Y-60914502D01*
X183854494Y-60855537D01*
X183951185Y-60776185D01*
X184030537Y-60679494D01*
X184089502Y-60569180D01*
X184125812Y-60449482D01*
X184138072Y-60325000D01*
X184138072Y-60165682D01*
X184151637Y-60185983D01*
X184449017Y-60483363D01*
X184798698Y-60717012D01*
X185187244Y-60877953D01*
X185599721Y-60960000D01*
X186020279Y-60960000D01*
X186432756Y-60877953D01*
X186821302Y-60717012D01*
X187170983Y-60483363D01*
X187468363Y-60185983D01*
X187702012Y-59836302D01*
X187862953Y-59447756D01*
X187945000Y-59035279D01*
X187945000Y-58614721D01*
X187862953Y-58202244D01*
X187702012Y-57813698D01*
X187468363Y-57464017D01*
X187170983Y-57166637D01*
X186821302Y-56932988D01*
X186432756Y-56772047D01*
X186020279Y-56690000D01*
X185599721Y-56690000D01*
X185187244Y-56772047D01*
X184798698Y-56932988D01*
X184449017Y-57166637D01*
X184151637Y-57464017D01*
X184138072Y-57484318D01*
X184138072Y-57325000D01*
X184125812Y-57200518D01*
X184089502Y-57080820D01*
X184030537Y-56970506D01*
X183951185Y-56873815D01*
X183854494Y-56794463D01*
X183744180Y-56735498D01*
X183624482Y-56699188D01*
X183500000Y-56686928D01*
X180500000Y-56686928D01*
X180375518Y-56699188D01*
X180255820Y-56735498D01*
X180145506Y-56794463D01*
X180048815Y-56873815D01*
X179969463Y-56970506D01*
X179910498Y-57080820D01*
X179874188Y-57200518D01*
X179861928Y-57325000D01*
X108660000Y-57325000D01*
X108660000Y-56532277D01*
X108679102Y-56337460D01*
X108726308Y-56181106D01*
X108802982Y-56036904D01*
X108906207Y-55910337D01*
X109032051Y-55806231D01*
X109175711Y-55728553D01*
X109331729Y-55680258D01*
X109524473Y-55660000D01*
X116358838Y-55660000D01*
X116387290Y-55753793D01*
G04 #@! TA.AperFunction,Conductor*
D23*
G36*
X116387290Y-55753793D02*
G01*
X116448575Y-55868450D01*
X116531052Y-55968948D01*
X116631550Y-56051425D01*
X116746207Y-56112710D01*
X116870617Y-56150450D01*
X116967581Y-56160000D01*
X189032419Y-56160000D01*
X189129383Y-56150450D01*
X189253793Y-56112710D01*
X189368450Y-56051425D01*
X189468948Y-55968948D01*
X189551425Y-55868450D01*
X189612710Y-55753793D01*
X189641162Y-55660000D01*
X196467723Y-55660000D01*
X196662540Y-55679102D01*
X196818894Y-55726308D01*
X196963096Y-55802982D01*
X197089663Y-55906207D01*
X197193769Y-56032051D01*
X197271447Y-56175711D01*
X197319742Y-56331729D01*
X197340000Y-56524473D01*
X197340001Y-147467712D01*
X197320898Y-147662540D01*
X197273692Y-147818895D01*
X197197018Y-147963096D01*
X197093792Y-148089664D01*
X196967951Y-148193768D01*
X196824289Y-148271447D01*
X196668271Y-148319742D01*
X196475527Y-148340000D01*
X189641162Y-148340000D01*
X189612710Y-148246207D01*
X189551425Y-148131550D01*
X189468948Y-148031052D01*
X189368450Y-147948575D01*
X189253793Y-147887290D01*
X189129383Y-147849550D01*
X189032785Y-147840036D01*
X189000000Y-147836807D01*
X188967581Y-147840000D01*
X176532419Y-147840000D01*
X176500000Y-147836807D01*
X176467215Y-147840036D01*
X176370617Y-147849550D01*
X176246207Y-147887290D01*
X176131550Y-147948575D01*
X176031052Y-148031052D01*
X175948575Y-148131550D01*
X175887290Y-148246207D01*
X175858838Y-148340000D01*
X129660000Y-148340000D01*
X129660000Y-146532419D01*
X129663193Y-146500000D01*
X129650450Y-146370617D01*
X129612710Y-146246207D01*
X129551425Y-146131550D01*
X129468948Y-146031052D01*
X129368450Y-145948575D01*
X129253793Y-145887290D01*
X129129383Y-145849550D01*
X129032419Y-145840000D01*
X129000000Y-145836807D01*
X128967581Y-145840000D01*
X126032408Y-145840000D01*
X125999999Y-145836808D01*
X125967590Y-145840000D01*
X125967581Y-145840000D01*
X125870617Y-145849550D01*
X125746207Y-145887290D01*
X125631549Y-145948575D01*
X125556233Y-146010386D01*
X125531052Y-146031052D01*
X125510388Y-146056231D01*
X123726620Y-147840000D01*
X117467581Y-147840000D01*
X117439671Y-147842749D01*
X117436693Y-147842728D01*
X117427522Y-147843627D01*
X117379360Y-147848689D01*
X117370617Y-147849550D01*
X117370325Y-147849638D01*
X117330473Y-147853827D01*
X117271854Y-147865860D01*
X117213116Y-147877064D01*
X117204294Y-147879728D01*
X117111075Y-147908584D01*
X117055937Y-147931762D01*
X117000463Y-147954175D01*
X116992334Y-147958498D01*
X116992330Y-147958500D01*
X116992327Y-147958502D01*
X116906489Y-148004915D01*
X116856913Y-148038355D01*
X116806844Y-148071119D01*
X116799703Y-148076943D01*
X116724514Y-148139145D01*
X116682361Y-148181594D01*
X116639629Y-148223439D01*
X116633755Y-148230540D01*
X116572079Y-148306161D01*
X116549596Y-148340000D01*
X113273381Y-148340000D01*
X108660000Y-143726620D01*
X108660000Y-131765098D01*
X110115000Y-131765098D01*
X110115000Y-132234902D01*
X110206654Y-132695679D01*
X110386440Y-133129721D01*
X110647450Y-133520349D01*
X110979651Y-133852550D01*
X111370279Y-134113560D01*
X111804321Y-134293346D01*
X112265098Y-134385000D01*
X112734902Y-134385000D01*
X113195679Y-134293346D01*
X113629721Y-134113560D01*
X114020349Y-133852550D01*
X114352550Y-133520349D01*
X114613560Y-133129721D01*
X114793346Y-132695679D01*
X114885000Y-132234902D01*
X114885000Y-131765098D01*
X191115000Y-131765098D01*
X191115000Y-132234902D01*
X191206654Y-132695679D01*
X191386440Y-133129721D01*
X191647450Y-133520349D01*
X191979651Y-133852550D01*
X192370279Y-134113560D01*
X192804321Y-134293346D01*
X193265098Y-134385000D01*
X193734902Y-134385000D01*
X194195679Y-134293346D01*
X194629721Y-134113560D01*
X195020349Y-133852550D01*
X195352550Y-133520349D01*
X195613560Y-133129721D01*
X195793346Y-132695679D01*
X195885000Y-132234902D01*
X195885000Y-131765098D01*
X195793346Y-131304321D01*
X195613560Y-130870279D01*
X195352550Y-130479651D01*
X195020349Y-130147450D01*
X194629721Y-129886440D01*
X194195679Y-129706654D01*
X193734902Y-129615000D01*
X193265098Y-129615000D01*
X192804321Y-129706654D01*
X192370279Y-129886440D01*
X191979651Y-130147450D01*
X191647450Y-130479651D01*
X191386440Y-130870279D01*
X191206654Y-131304321D01*
X191115000Y-131765098D01*
X114885000Y-131765098D01*
X114793346Y-131304321D01*
X114613560Y-130870279D01*
X114352550Y-130479651D01*
X114020349Y-130147450D01*
X113629721Y-129886440D01*
X113195679Y-129706654D01*
X112734902Y-129615000D01*
X112265098Y-129615000D01*
X111804321Y-129706654D01*
X111370279Y-129886440D01*
X110979651Y-130147450D01*
X110647450Y-130479651D01*
X110386440Y-130870279D01*
X110206654Y-131304321D01*
X110115000Y-131765098D01*
X108660000Y-131765098D01*
X108660000Y-98845000D01*
X118851928Y-98845000D01*
X118851928Y-100545000D01*
X118864188Y-100669482D01*
X118900498Y-100789180D01*
X118959463Y-100899494D01*
X119038815Y-100996185D01*
X119135506Y-101075537D01*
X119245820Y-101134502D01*
X119365518Y-101170812D01*
X119490000Y-101183072D01*
X121190000Y-101183072D01*
X121314482Y-101170812D01*
X121434180Y-101134502D01*
X121544494Y-101075537D01*
X121641185Y-100996185D01*
X121720537Y-100899494D01*
X121779502Y-100789180D01*
X121801513Y-100716620D01*
X121933368Y-100848475D01*
X122176589Y-101010990D01*
X122446842Y-101122932D01*
X122733740Y-101180000D01*
X123026260Y-101180000D01*
X123313158Y-101122932D01*
X123583411Y-101010990D01*
X123826632Y-100848475D01*
X124033475Y-100641632D01*
X124150000Y-100467240D01*
X124266525Y-100641632D01*
X124473368Y-100848475D01*
X124716589Y-101010990D01*
X124986842Y-101122932D01*
X125273740Y-101180000D01*
X125566260Y-101180000D01*
X125853158Y-101122932D01*
X126123411Y-101010990D01*
X126366632Y-100848475D01*
X126573475Y-100641632D01*
X126690000Y-100467240D01*
X126806525Y-100641632D01*
X127013368Y-100848475D01*
X127256589Y-101010990D01*
X127526842Y-101122932D01*
X127813740Y-101180000D01*
X128106260Y-101180000D01*
X128393158Y-101122932D01*
X128663411Y-101010990D01*
X128906632Y-100848475D01*
X129113475Y-100641632D01*
X129230000Y-100467240D01*
X129346525Y-100641632D01*
X129553368Y-100848475D01*
X129796589Y-101010990D01*
X130066842Y-101122932D01*
X130353740Y-101180000D01*
X130646260Y-101180000D01*
X130933158Y-101122932D01*
X131203411Y-101010990D01*
X131446632Y-100848475D01*
X131653475Y-100641632D01*
X131770000Y-100467240D01*
X131886525Y-100641632D01*
X132093368Y-100848475D01*
X132336589Y-101010990D01*
X132606842Y-101122932D01*
X132893740Y-101180000D01*
X133186260Y-101180000D01*
X133473158Y-101122932D01*
X133743411Y-101010990D01*
X133986632Y-100848475D01*
X134193475Y-100641632D01*
X134310000Y-100467240D01*
X134426525Y-100641632D01*
X134633368Y-100848475D01*
X134876589Y-101010990D01*
X135146842Y-101122932D01*
X135433740Y-101180000D01*
X135726260Y-101180000D01*
X136013158Y-101122932D01*
X136283411Y-101010990D01*
X136526632Y-100848475D01*
X136733475Y-100641632D01*
X136850000Y-100467240D01*
X136966525Y-100641632D01*
X137173368Y-100848475D01*
X137416589Y-101010990D01*
X137686842Y-101122932D01*
X137973740Y-101180000D01*
X138266260Y-101180000D01*
X138553158Y-101122932D01*
X138823411Y-101010990D01*
X139066632Y-100848475D01*
X139191710Y-100723397D01*
X139811208Y-100723397D01*
X139888843Y-100972472D01*
X140152883Y-101098371D01*
X140436411Y-101170339D01*
X140728531Y-101185611D01*
X141018019Y-101143599D01*
X141293747Y-101045919D01*
X141431157Y-100972472D01*
X141508792Y-100723397D01*
X140660000Y-99874605D01*
X139811208Y-100723397D01*
X139191710Y-100723397D01*
X139273475Y-100641632D01*
X139389311Y-100468271D01*
X139631603Y-100543792D01*
X140480395Y-99695000D01*
X139631603Y-98846208D01*
X139389311Y-98921729D01*
X139273475Y-98748368D01*
X139191710Y-98666603D01*
X139811208Y-98666603D01*
X140660000Y-99515395D01*
X141508792Y-98666603D01*
X141431157Y-98417528D01*
X141167117Y-98291629D01*
X140883589Y-98219661D01*
X140591469Y-98204389D01*
X140301981Y-98246401D01*
X140026253Y-98344081D01*
X139888843Y-98417528D01*
X139811208Y-98666603D01*
X139191710Y-98666603D01*
X139066632Y-98541525D01*
X138823411Y-98379010D01*
X138553158Y-98267068D01*
X138266260Y-98210000D01*
X137973740Y-98210000D01*
X137686842Y-98267068D01*
X137416589Y-98379010D01*
X137173368Y-98541525D01*
X136966525Y-98748368D01*
X136850000Y-98922760D01*
X136733475Y-98748368D01*
X136526632Y-98541525D01*
X136283411Y-98379010D01*
X136013158Y-98267068D01*
X135726260Y-98210000D01*
X135433740Y-98210000D01*
X135146842Y-98267068D01*
X134876589Y-98379010D01*
X134633368Y-98541525D01*
X134426525Y-98748368D01*
X134310000Y-98922760D01*
X134193475Y-98748368D01*
X133986632Y-98541525D01*
X133743411Y-98379010D01*
X133473158Y-98267068D01*
X133186260Y-98210000D01*
X132893740Y-98210000D01*
X132606842Y-98267068D01*
X132336589Y-98379010D01*
X132093368Y-98541525D01*
X131886525Y-98748368D01*
X131770000Y-98922760D01*
X131653475Y-98748368D01*
X131446632Y-98541525D01*
X131203411Y-98379010D01*
X130933158Y-98267068D01*
X130646260Y-98210000D01*
X130353740Y-98210000D01*
X130066842Y-98267068D01*
X129796589Y-98379010D01*
X129553368Y-98541525D01*
X129346525Y-98748368D01*
X129230000Y-98922760D01*
X129113475Y-98748368D01*
X128906632Y-98541525D01*
X128663411Y-98379010D01*
X128393158Y-98267068D01*
X128106260Y-98210000D01*
X127813740Y-98210000D01*
X127526842Y-98267068D01*
X127256589Y-98379010D01*
X127013368Y-98541525D01*
X126806525Y-98748368D01*
X126690000Y-98922760D01*
X126573475Y-98748368D01*
X126366632Y-98541525D01*
X126123411Y-98379010D01*
X125853158Y-98267068D01*
X125566260Y-98210000D01*
X125273740Y-98210000D01*
X124986842Y-98267068D01*
X124716589Y-98379010D01*
X124473368Y-98541525D01*
X124266525Y-98748368D01*
X124150000Y-98922760D01*
X124033475Y-98748368D01*
X123826632Y-98541525D01*
X123583411Y-98379010D01*
X123313158Y-98267068D01*
X123026260Y-98210000D01*
X122733740Y-98210000D01*
X122446842Y-98267068D01*
X122176589Y-98379010D01*
X121933368Y-98541525D01*
X121801513Y-98673380D01*
X121779502Y-98600820D01*
X121720537Y-98490506D01*
X121641185Y-98393815D01*
X121544494Y-98314463D01*
X121434180Y-98255498D01*
X121314482Y-98219188D01*
X121190000Y-98206928D01*
X119490000Y-98206928D01*
X119365518Y-98219188D01*
X119245820Y-98255498D01*
X119135506Y-98314463D01*
X119038815Y-98393815D01*
X118959463Y-98490506D01*
X118900498Y-98600820D01*
X118864188Y-98720518D01*
X118851928Y-98845000D01*
X108660000Y-98845000D01*
X108660000Y-84308740D01*
X118855000Y-84308740D01*
X118855000Y-84601260D01*
X118912068Y-84888158D01*
X119024010Y-85158411D01*
X119186525Y-85401632D01*
X119393368Y-85608475D01*
X119636589Y-85770990D01*
X119906842Y-85882932D01*
X120193740Y-85940000D01*
X120486260Y-85940000D01*
X120773158Y-85882932D01*
X121043411Y-85770990D01*
X121286632Y-85608475D01*
X121493475Y-85401632D01*
X121610000Y-85227240D01*
X121726525Y-85401632D01*
X121933368Y-85608475D01*
X122176589Y-85770990D01*
X122446842Y-85882932D01*
X122733740Y-85940000D01*
X123026260Y-85940000D01*
X123313158Y-85882932D01*
X123583411Y-85770990D01*
X123826632Y-85608475D01*
X123951710Y-85483397D01*
X124571208Y-85483397D01*
X124648843Y-85732472D01*
X124912883Y-85858371D01*
X125196411Y-85930339D01*
X125488531Y-85945611D01*
X125778019Y-85903599D01*
X126053747Y-85805919D01*
X126191157Y-85732472D01*
X126268792Y-85483397D01*
X125420000Y-84634605D01*
X124571208Y-85483397D01*
X123951710Y-85483397D01*
X124033475Y-85401632D01*
X124149311Y-85228271D01*
X124391603Y-85303792D01*
X125240395Y-84455000D01*
X125599605Y-84455000D01*
X126448397Y-85303792D01*
X126690689Y-85228271D01*
X126806525Y-85401632D01*
X127013368Y-85608475D01*
X127256589Y-85770990D01*
X127526842Y-85882932D01*
X127813740Y-85940000D01*
X128106260Y-85940000D01*
X128393158Y-85882932D01*
X128663411Y-85770990D01*
X128906632Y-85608475D01*
X129113475Y-85401632D01*
X129230000Y-85227240D01*
X129346525Y-85401632D01*
X129553368Y-85608475D01*
X129796589Y-85770990D01*
X130066842Y-85882932D01*
X130353740Y-85940000D01*
X130646260Y-85940000D01*
X130933158Y-85882932D01*
X131203411Y-85770990D01*
X131446632Y-85608475D01*
X131653475Y-85401632D01*
X131770000Y-85227240D01*
X131886525Y-85401632D01*
X132093368Y-85608475D01*
X132336589Y-85770990D01*
X132606842Y-85882932D01*
X132893740Y-85940000D01*
X133186260Y-85940000D01*
X133473158Y-85882932D01*
X133743411Y-85770990D01*
X133986632Y-85608475D01*
X134193475Y-85401632D01*
X134310000Y-85227240D01*
X134426525Y-85401632D01*
X134633368Y-85608475D01*
X134876589Y-85770990D01*
X135146842Y-85882932D01*
X135433740Y-85940000D01*
X135726260Y-85940000D01*
X136013158Y-85882932D01*
X136283411Y-85770990D01*
X136526632Y-85608475D01*
X136733475Y-85401632D01*
X136850000Y-85227240D01*
X136966525Y-85401632D01*
X137173368Y-85608475D01*
X137360000Y-85733179D01*
X137360001Y-86474288D01*
X137308563Y-86525726D01*
X137195295Y-86695244D01*
X137117274Y-86883602D01*
X137077500Y-87083561D01*
X137077500Y-87287439D01*
X137117274Y-87487398D01*
X137124565Y-87505000D01*
X136593711Y-87505000D01*
X136549774Y-87461063D01*
X136380256Y-87347795D01*
X136191898Y-87269774D01*
X135991939Y-87230000D01*
X135788061Y-87230000D01*
X135588102Y-87269774D01*
X135399744Y-87347795D01*
X135230226Y-87461063D01*
X135086063Y-87605226D01*
X134972795Y-87774744D01*
X134894774Y-87963102D01*
X134855000Y-88163061D01*
X134855000Y-88366939D01*
X134894774Y-88566898D01*
X134972795Y-88755256D01*
X135086063Y-88924774D01*
X135230226Y-89068937D01*
X135399744Y-89182205D01*
X135588102Y-89260226D01*
X135788061Y-89300000D01*
X135991939Y-89300000D01*
X136191898Y-89260226D01*
X136380256Y-89182205D01*
X136549774Y-89068937D01*
X136593711Y-89025000D01*
X141921822Y-89025000D01*
X142046525Y-89211632D01*
X142253368Y-89418475D01*
X142427760Y-89535000D01*
X142253368Y-89651525D01*
X142046525Y-89858368D01*
X141884010Y-90101589D01*
X141772068Y-90371842D01*
X141715000Y-90658740D01*
X141715000Y-90951260D01*
X141772068Y-91238158D01*
X141884010Y-91508411D01*
X142046525Y-91751632D01*
X142253368Y-91958475D01*
X142427760Y-92075000D01*
X142253368Y-92191525D01*
X142046525Y-92398368D01*
X141884010Y-92641589D01*
X141772068Y-92911842D01*
X141715000Y-93198740D01*
X141715000Y-93491260D01*
X141772068Y-93778158D01*
X141884010Y-94048411D01*
X142046525Y-94291632D01*
X142253368Y-94498475D01*
X142427760Y-94615000D01*
X142253368Y-94731525D01*
X142046525Y-94938368D01*
X141884010Y-95181589D01*
X141772068Y-95451842D01*
X141715000Y-95738740D01*
X141715000Y-96031260D01*
X141772068Y-96318158D01*
X141884010Y-96588411D01*
X142046525Y-96831632D01*
X142253368Y-97038475D01*
X142427760Y-97155000D01*
X142253368Y-97271525D01*
X142046525Y-97478368D01*
X141884010Y-97721589D01*
X141772068Y-97991842D01*
X141715000Y-98278740D01*
X141715000Y-98571260D01*
X141772068Y-98858158D01*
X141778788Y-98874382D01*
X141688397Y-98846208D01*
X140839605Y-99695000D01*
X141688397Y-100543792D01*
X141937472Y-100466157D01*
X142063371Y-100202117D01*
X142135339Y-99918589D01*
X142150611Y-99626469D01*
X142125019Y-99450126D01*
X142253368Y-99578475D01*
X142496589Y-99740990D01*
X142766842Y-99852932D01*
X143053740Y-99910000D01*
X143346260Y-99910000D01*
X143633158Y-99852932D01*
X143903411Y-99740990D01*
X144146632Y-99578475D01*
X144353475Y-99371632D01*
X144515990Y-99128411D01*
X144589501Y-98950939D01*
X144589501Y-99550367D01*
X144533388Y-99606480D01*
X144409176Y-99792376D01*
X144323617Y-99998933D01*
X144280000Y-100218212D01*
X144280000Y-100441788D01*
X144323617Y-100661067D01*
X144409176Y-100867624D01*
X144533388Y-101053520D01*
X144691480Y-101211612D01*
X144877376Y-101335824D01*
X145083933Y-101421383D01*
X145303212Y-101465000D01*
X145526788Y-101465000D01*
X145746067Y-101421383D01*
X145952624Y-101335824D01*
X146138520Y-101211612D01*
X146296612Y-101053520D01*
X146420824Y-100867624D01*
X146506383Y-100661067D01*
X146550000Y-100441788D01*
X146550000Y-100218212D01*
X146506383Y-99998933D01*
X146420824Y-99792376D01*
X146296612Y-99606480D01*
X146240500Y-99550368D01*
X146240500Y-98726158D01*
X146383102Y-98785226D01*
X146583061Y-98825000D01*
X146786939Y-98825000D01*
X146986898Y-98785226D01*
X147175256Y-98707205D01*
X147344774Y-98593937D01*
X147488937Y-98449774D01*
X147602205Y-98280256D01*
X147680226Y-98091898D01*
X147720000Y-97891939D01*
X147720000Y-97688061D01*
X147680226Y-97488102D01*
X147602205Y-97299744D01*
X147488937Y-97130226D01*
X147445000Y-97086289D01*
X147445000Y-89603711D01*
X147488937Y-89559774D01*
X147602205Y-89390256D01*
X147602832Y-89388740D01*
X155360000Y-89388740D01*
X155360000Y-89681260D01*
X155417068Y-89968158D01*
X155529010Y-90238411D01*
X155691525Y-90481632D01*
X155898368Y-90688475D01*
X156072760Y-90805000D01*
X155898368Y-90921525D01*
X155691525Y-91128368D01*
X155529010Y-91371589D01*
X155417068Y-91641842D01*
X155360000Y-91928740D01*
X155360000Y-92221260D01*
X155417068Y-92508158D01*
X155529010Y-92778411D01*
X155691525Y-93021632D01*
X155898368Y-93228475D01*
X156072760Y-93345000D01*
X155898368Y-93461525D01*
X155691525Y-93668368D01*
X155529010Y-93911589D01*
X155417068Y-94181842D01*
X155360000Y-94468740D01*
X155360000Y-94761260D01*
X155417068Y-95048158D01*
X155529010Y-95318411D01*
X155691525Y-95561632D01*
X155898368Y-95768475D01*
X156072760Y-95885000D01*
X155898368Y-96001525D01*
X155691525Y-96208368D01*
X155529010Y-96451589D01*
X155417068Y-96721842D01*
X155360000Y-97008740D01*
X155360000Y-97301260D01*
X155417068Y-97588158D01*
X155529010Y-97858411D01*
X155691525Y-98101632D01*
X155898368Y-98308475D01*
X156072760Y-98425000D01*
X155898368Y-98541525D01*
X155691525Y-98748368D01*
X155529010Y-98991589D01*
X155417068Y-99261842D01*
X155360000Y-99548740D01*
X155360000Y-99841260D01*
X155417068Y-100128158D01*
X155529010Y-100398411D01*
X155691525Y-100641632D01*
X155898368Y-100848475D01*
X156141589Y-101010990D01*
X156411842Y-101122932D01*
X156698740Y-101180000D01*
X156991260Y-101180000D01*
X157278158Y-101122932D01*
X157548411Y-101010990D01*
X157791632Y-100848475D01*
X157998475Y-100641632D01*
X158115000Y-100467240D01*
X158231525Y-100641632D01*
X158438368Y-100848475D01*
X158681589Y-101010990D01*
X158951842Y-101122932D01*
X159238740Y-101180000D01*
X159531260Y-101180000D01*
X159818158Y-101122932D01*
X160088411Y-101010990D01*
X160331632Y-100848475D01*
X160456710Y-100723397D01*
X161076208Y-100723397D01*
X161153843Y-100972472D01*
X161417883Y-101098371D01*
X161701411Y-101170339D01*
X161993531Y-101185611D01*
X162283019Y-101143599D01*
X162558747Y-101045919D01*
X162696157Y-100972472D01*
X162773792Y-100723397D01*
X161925000Y-99874605D01*
X161076208Y-100723397D01*
X160456710Y-100723397D01*
X160538475Y-100641632D01*
X160654311Y-100468271D01*
X160896603Y-100543792D01*
X161745395Y-99695000D01*
X162104605Y-99695000D01*
X162953397Y-100543792D01*
X163195689Y-100468271D01*
X163311525Y-100641632D01*
X163518368Y-100848475D01*
X163761589Y-101010990D01*
X164031842Y-101122932D01*
X164318740Y-101180000D01*
X164611260Y-101180000D01*
X164898158Y-101122932D01*
X165168411Y-101010990D01*
X165411632Y-100848475D01*
X165618475Y-100641632D01*
X165735000Y-100467240D01*
X165851525Y-100641632D01*
X166058368Y-100848475D01*
X166301589Y-101010990D01*
X166571842Y-101122932D01*
X166858740Y-101180000D01*
X167151260Y-101180000D01*
X167438158Y-101122932D01*
X167708411Y-101010990D01*
X167951632Y-100848475D01*
X168158475Y-100641632D01*
X168275000Y-100467240D01*
X168391525Y-100641632D01*
X168598368Y-100848475D01*
X168841589Y-101010990D01*
X169111842Y-101122932D01*
X169398740Y-101180000D01*
X169691260Y-101180000D01*
X169978158Y-101122932D01*
X170248411Y-101010990D01*
X170491632Y-100848475D01*
X170698475Y-100641632D01*
X170815000Y-100467240D01*
X170931525Y-100641632D01*
X171138368Y-100848475D01*
X171381589Y-101010990D01*
X171651842Y-101122932D01*
X171938740Y-101180000D01*
X172231260Y-101180000D01*
X172518158Y-101122932D01*
X172788411Y-101010990D01*
X173031632Y-100848475D01*
X173238475Y-100641632D01*
X173355000Y-100467240D01*
X173471525Y-100641632D01*
X173678368Y-100848475D01*
X173921589Y-101010990D01*
X174191842Y-101122932D01*
X174478740Y-101180000D01*
X174771260Y-101180000D01*
X175058158Y-101122932D01*
X175328411Y-101010990D01*
X175571632Y-100848475D01*
X175778475Y-100641632D01*
X175895000Y-100467240D01*
X176011525Y-100641632D01*
X176218368Y-100848475D01*
X176461589Y-101010990D01*
X176731842Y-101122932D01*
X177018740Y-101180000D01*
X177311260Y-101180000D01*
X177598158Y-101122932D01*
X177868411Y-101010990D01*
X178111632Y-100848475D01*
X178318475Y-100641632D01*
X178435000Y-100467240D01*
X178551525Y-100641632D01*
X178758368Y-100848475D01*
X179001589Y-101010990D01*
X179271842Y-101122932D01*
X179558740Y-101180000D01*
X179851260Y-101180000D01*
X180138158Y-101122932D01*
X180408411Y-101010990D01*
X180651632Y-100848475D01*
X180776710Y-100723397D01*
X181396208Y-100723397D01*
X181473843Y-100972472D01*
X181737883Y-101098371D01*
X182021411Y-101170339D01*
X182313531Y-101185611D01*
X182603019Y-101143599D01*
X182878747Y-101045919D01*
X183016157Y-100972472D01*
X183093792Y-100723397D01*
X182245000Y-99874605D01*
X181396208Y-100723397D01*
X180776710Y-100723397D01*
X180858475Y-100641632D01*
X180974311Y-100468271D01*
X181216603Y-100543792D01*
X182065395Y-99695000D01*
X181216603Y-98846208D01*
X180974311Y-98921729D01*
X180858475Y-98748368D01*
X180776710Y-98666603D01*
X181396208Y-98666603D01*
X182245000Y-99515395D01*
X183093792Y-98666603D01*
X183016157Y-98417528D01*
X182752117Y-98291629D01*
X182468589Y-98219661D01*
X182176469Y-98204389D01*
X181886981Y-98246401D01*
X181611253Y-98344081D01*
X181473843Y-98417528D01*
X181396208Y-98666603D01*
X180776710Y-98666603D01*
X180651632Y-98541525D01*
X180408411Y-98379010D01*
X180138158Y-98267068D01*
X179851260Y-98210000D01*
X179558740Y-98210000D01*
X179271842Y-98267068D01*
X179001589Y-98379010D01*
X178758368Y-98541525D01*
X178551525Y-98748368D01*
X178435000Y-98922760D01*
X178318475Y-98748368D01*
X178111632Y-98541525D01*
X177868411Y-98379010D01*
X177598158Y-98267068D01*
X177311260Y-98210000D01*
X177018740Y-98210000D01*
X176731842Y-98267068D01*
X176461589Y-98379010D01*
X176218368Y-98541525D01*
X176011525Y-98748368D01*
X175895000Y-98922760D01*
X175778475Y-98748368D01*
X175571632Y-98541525D01*
X175385000Y-98416822D01*
X175385000Y-95863711D01*
X175428937Y-95819774D01*
X175542205Y-95650256D01*
X175620226Y-95461898D01*
X175660000Y-95261939D01*
X175660000Y-95058061D01*
X175620226Y-94858102D01*
X175542205Y-94669744D01*
X175428937Y-94500226D01*
X175284774Y-94356063D01*
X175115256Y-94242795D01*
X174926898Y-94164774D01*
X174726939Y-94125000D01*
X174523061Y-94125000D01*
X174323102Y-94164774D01*
X174134744Y-94242795D01*
X173965226Y-94356063D01*
X173821063Y-94500226D01*
X173707795Y-94669744D01*
X173629774Y-94858102D01*
X173590000Y-95058061D01*
X173590000Y-95261939D01*
X173629774Y-95461898D01*
X173707795Y-95650256D01*
X173821063Y-95819774D01*
X173865001Y-95863712D01*
X173865000Y-98416821D01*
X173678368Y-98541525D01*
X173471525Y-98748368D01*
X173355000Y-98922760D01*
X173238475Y-98748368D01*
X173031632Y-98541525D01*
X172788411Y-98379010D01*
X172518158Y-98267068D01*
X172231260Y-98210000D01*
X171938740Y-98210000D01*
X171651842Y-98267068D01*
X171381589Y-98379010D01*
X171138368Y-98541525D01*
X170931525Y-98748368D01*
X170815000Y-98922760D01*
X170698475Y-98748368D01*
X170491632Y-98541525D01*
X170305000Y-98416822D01*
X170305000Y-97827322D01*
X170308676Y-97789999D01*
X170305000Y-97752676D01*
X170305000Y-97752667D01*
X170294003Y-97641014D01*
X170250546Y-97497753D01*
X170179974Y-97365724D01*
X170085001Y-97249999D01*
X170056004Y-97226202D01*
X169310000Y-96480199D01*
X169310000Y-96418061D01*
X169270226Y-96218102D01*
X169192205Y-96029744D01*
X169078937Y-95860226D01*
X168934774Y-95716063D01*
X168765256Y-95602795D01*
X168576898Y-95524774D01*
X168376939Y-95485000D01*
X168173061Y-95485000D01*
X167974279Y-95524540D01*
X168000226Y-95461898D01*
X168040000Y-95261939D01*
X168040000Y-95058061D01*
X168000226Y-94858102D01*
X167922205Y-94669744D01*
X167808937Y-94500226D01*
X167664774Y-94356063D01*
X167495256Y-94242795D01*
X167306898Y-94164774D01*
X167106939Y-94125000D01*
X166903061Y-94125000D01*
X166703102Y-94164774D01*
X166514744Y-94242795D01*
X166345226Y-94356063D01*
X166201063Y-94500226D01*
X166087795Y-94669744D01*
X166009774Y-94858102D01*
X165970000Y-95058061D01*
X165970000Y-95261939D01*
X166009774Y-95461898D01*
X166087795Y-95650256D01*
X166201063Y-95819774D01*
X166245000Y-95863711D01*
X166245001Y-98416821D01*
X166058368Y-98541525D01*
X165851525Y-98748368D01*
X165735000Y-98922760D01*
X165618475Y-98748368D01*
X165411632Y-98541525D01*
X165168411Y-98379010D01*
X164898158Y-98267068D01*
X164611260Y-98210000D01*
X164318740Y-98210000D01*
X164031842Y-98267068D01*
X163761589Y-98379010D01*
X163518368Y-98541525D01*
X163311525Y-98748368D01*
X163195689Y-98921729D01*
X162953397Y-98846208D01*
X162104605Y-99695000D01*
X161745395Y-99695000D01*
X160896603Y-98846208D01*
X160654311Y-98921729D01*
X160538475Y-98748368D01*
X160456710Y-98666603D01*
X161076208Y-98666603D01*
X161925000Y-99515395D01*
X162773792Y-98666603D01*
X162696157Y-98417528D01*
X162432117Y-98291629D01*
X162148589Y-98219661D01*
X161856469Y-98204389D01*
X161566981Y-98246401D01*
X161291253Y-98344081D01*
X161153843Y-98417528D01*
X161076208Y-98666603D01*
X160456710Y-98666603D01*
X160331632Y-98541525D01*
X160088411Y-98379010D01*
X159818158Y-98267068D01*
X159531260Y-98210000D01*
X159238740Y-98210000D01*
X158951842Y-98267068D01*
X158681589Y-98379010D01*
X158438368Y-98541525D01*
X158231525Y-98748368D01*
X158115000Y-98922760D01*
X157998475Y-98748368D01*
X157791632Y-98541525D01*
X157617240Y-98425000D01*
X157791632Y-98308475D01*
X157998475Y-98101632D01*
X158160990Y-97858411D01*
X158272932Y-97588158D01*
X158330000Y-97301260D01*
X158330000Y-97008740D01*
X158272932Y-96721842D01*
X158160990Y-96451589D01*
X157998475Y-96208368D01*
X157791632Y-96001525D01*
X157617240Y-95885000D01*
X157791632Y-95768475D01*
X157998475Y-95561632D01*
X158160990Y-95318411D01*
X158272932Y-95048158D01*
X158330000Y-94761260D01*
X158330000Y-94468740D01*
X158272932Y-94181842D01*
X158160990Y-93911589D01*
X157998475Y-93668368D01*
X157791632Y-93461525D01*
X157617240Y-93345000D01*
X157791632Y-93228475D01*
X157998475Y-93021632D01*
X158160990Y-92778411D01*
X158272932Y-92508158D01*
X158330000Y-92221260D01*
X158330000Y-91928740D01*
X158272932Y-91641842D01*
X158160990Y-91371589D01*
X157998475Y-91128368D01*
X157791632Y-90921525D01*
X157617240Y-90805000D01*
X157791632Y-90688475D01*
X157998475Y-90481632D01*
X158160990Y-90238411D01*
X158272932Y-89968158D01*
X158330000Y-89681260D01*
X158330000Y-89388740D01*
X158272932Y-89101842D01*
X158160990Y-88831589D01*
X157998475Y-88588368D01*
X157791632Y-88381525D01*
X157618271Y-88265689D01*
X157693792Y-88023397D01*
X156845000Y-87174605D01*
X155996208Y-88023397D01*
X156071729Y-88265689D01*
X155898368Y-88381525D01*
X155691525Y-88588368D01*
X155529010Y-88831589D01*
X155417068Y-89101842D01*
X155360000Y-89388740D01*
X147602832Y-89388740D01*
X147680226Y-89201898D01*
X147720000Y-89001939D01*
X147720000Y-88798061D01*
X147680226Y-88598102D01*
X147602205Y-88409744D01*
X147488937Y-88240226D01*
X147344774Y-88096063D01*
X147175256Y-87982795D01*
X146986898Y-87904774D01*
X146786939Y-87865000D01*
X146583061Y-87865000D01*
X146383102Y-87904774D01*
X146240500Y-87963842D01*
X146240500Y-87774632D01*
X146296612Y-87718520D01*
X146420824Y-87532624D01*
X146506383Y-87326067D01*
X146550000Y-87106788D01*
X146550000Y-86883212D01*
X146506383Y-86663933D01*
X146420824Y-86457376D01*
X146296612Y-86271480D01*
X146138520Y-86113388D01*
X145952624Y-85989176D01*
X145746067Y-85903617D01*
X145526788Y-85860000D01*
X145303212Y-85860000D01*
X145083933Y-85903617D01*
X144877376Y-85989176D01*
X144691480Y-86113388D01*
X144613787Y-86191081D01*
X144675339Y-85948589D01*
X144690611Y-85656469D01*
X144648599Y-85366981D01*
X144550919Y-85091253D01*
X144477472Y-84953843D01*
X144228397Y-84876208D01*
X143379605Y-85725000D01*
X144228397Y-86573792D01*
X144380606Y-86526349D01*
X144323617Y-86663933D01*
X144280000Y-86883212D01*
X144280000Y-87106788D01*
X144314292Y-87279185D01*
X144146632Y-87111525D01*
X143973271Y-86995689D01*
X144048792Y-86753397D01*
X143200000Y-85904605D01*
X142351208Y-86753397D01*
X142426729Y-86995689D01*
X142253368Y-87111525D01*
X142046525Y-87318368D01*
X141921822Y-87505000D01*
X139100435Y-87505000D01*
X139107726Y-87487398D01*
X139147500Y-87287439D01*
X139147500Y-87083561D01*
X139107726Y-86883602D01*
X139029705Y-86695244D01*
X138916437Y-86525726D01*
X138880000Y-86489289D01*
X138880000Y-85733178D01*
X139066632Y-85608475D01*
X139273475Y-85401632D01*
X139390000Y-85227240D01*
X139506525Y-85401632D01*
X139713368Y-85608475D01*
X139956589Y-85770990D01*
X140226842Y-85882932D01*
X140513740Y-85940000D01*
X140806260Y-85940000D01*
X141093158Y-85882932D01*
X141363411Y-85770990D01*
X141606632Y-85608475D01*
X141728391Y-85486716D01*
X141724661Y-85501411D01*
X141709389Y-85793531D01*
X141751401Y-86083019D01*
X141849081Y-86358747D01*
X141922528Y-86496157D01*
X142171603Y-86573792D01*
X143020395Y-85725000D01*
X142171603Y-84876208D01*
X142081212Y-84904382D01*
X142087932Y-84888158D01*
X142126034Y-84696603D01*
X142351208Y-84696603D01*
X143200000Y-85545395D01*
X144048792Y-84696603D01*
X143971157Y-84447528D01*
X143707117Y-84321629D01*
X143423589Y-84249661D01*
X143131469Y-84234389D01*
X142841981Y-84276401D01*
X142566253Y-84374081D01*
X142428843Y-84447528D01*
X142351208Y-84696603D01*
X142126034Y-84696603D01*
X142145000Y-84601260D01*
X142145000Y-84308740D01*
X142087932Y-84021842D01*
X141975990Y-83751589D01*
X141813475Y-83508368D01*
X141606632Y-83301525D01*
X141363411Y-83139010D01*
X141093158Y-83027068D01*
X140806260Y-82970000D01*
X140513740Y-82970000D01*
X140226842Y-83027068D01*
X139956589Y-83139010D01*
X139713368Y-83301525D01*
X139506525Y-83508368D01*
X139390000Y-83682760D01*
X139273475Y-83508368D01*
X139066632Y-83301525D01*
X138823411Y-83139010D01*
X138553158Y-83027068D01*
X138266260Y-82970000D01*
X137973740Y-82970000D01*
X137686842Y-83027068D01*
X137416589Y-83139010D01*
X137173368Y-83301525D01*
X136966525Y-83508368D01*
X136850000Y-83682760D01*
X136733475Y-83508368D01*
X136526632Y-83301525D01*
X136283411Y-83139010D01*
X136013158Y-83027068D01*
X135726260Y-82970000D01*
X135433740Y-82970000D01*
X135146842Y-83027068D01*
X134876589Y-83139010D01*
X134633368Y-83301525D01*
X134426525Y-83508368D01*
X134310000Y-83682760D01*
X134193475Y-83508368D01*
X133986632Y-83301525D01*
X133743411Y-83139010D01*
X133473158Y-83027068D01*
X133186260Y-82970000D01*
X132893740Y-82970000D01*
X132606842Y-83027068D01*
X132336589Y-83139010D01*
X132093368Y-83301525D01*
X131886525Y-83508368D01*
X131770000Y-83682760D01*
X131653475Y-83508368D01*
X131446632Y-83301525D01*
X131203411Y-83139010D01*
X130933158Y-83027068D01*
X130646260Y-82970000D01*
X130353740Y-82970000D01*
X130066842Y-83027068D01*
X129796589Y-83139010D01*
X129553368Y-83301525D01*
X129346525Y-83508368D01*
X129230000Y-83682760D01*
X129113475Y-83508368D01*
X128906632Y-83301525D01*
X128663411Y-83139010D01*
X128393158Y-83027068D01*
X128106260Y-82970000D01*
X127813740Y-82970000D01*
X127526842Y-83027068D01*
X127256589Y-83139010D01*
X127013368Y-83301525D01*
X126806525Y-83508368D01*
X126690689Y-83681729D01*
X126448397Y-83606208D01*
X125599605Y-84455000D01*
X125240395Y-84455000D01*
X124391603Y-83606208D01*
X124149311Y-83681729D01*
X124033475Y-83508368D01*
X123951710Y-83426603D01*
X124571208Y-83426603D01*
X125420000Y-84275395D01*
X126268792Y-83426603D01*
X126191157Y-83177528D01*
X125927117Y-83051629D01*
X125643589Y-82979661D01*
X125351469Y-82964389D01*
X125061981Y-83006401D01*
X124786253Y-83104081D01*
X124648843Y-83177528D01*
X124571208Y-83426603D01*
X123951710Y-83426603D01*
X123826632Y-83301525D01*
X123583411Y-83139010D01*
X123313158Y-83027068D01*
X123026260Y-82970000D01*
X122733740Y-82970000D01*
X122446842Y-83027068D01*
X122176589Y-83139010D01*
X121933368Y-83301525D01*
X121726525Y-83508368D01*
X121610000Y-83682760D01*
X121493475Y-83508368D01*
X121286632Y-83301525D01*
X121043411Y-83139010D01*
X120773158Y-83027068D01*
X120486260Y-82970000D01*
X120193740Y-82970000D01*
X119906842Y-83027068D01*
X119636589Y-83139010D01*
X119393368Y-83301525D01*
X119186525Y-83508368D01*
X119024010Y-83751589D01*
X118912068Y-84021842D01*
X118855000Y-84308740D01*
X108660000Y-84308740D01*
X108660000Y-81813061D01*
X148190000Y-81813061D01*
X148190000Y-82016939D01*
X148229774Y-82216898D01*
X148307795Y-82405256D01*
X148421063Y-82574774D01*
X148465001Y-82618712D01*
X148465000Y-85656289D01*
X148421063Y-85700226D01*
X148307795Y-85869744D01*
X148229774Y-86058102D01*
X148190000Y-86258061D01*
X148190000Y-86461939D01*
X148229774Y-86661898D01*
X148307795Y-86850256D01*
X148421063Y-87019774D01*
X148565226Y-87163937D01*
X148734744Y-87277205D01*
X148923102Y-87355226D01*
X149123061Y-87395000D01*
X149326939Y-87395000D01*
X149526898Y-87355226D01*
X149715256Y-87277205D01*
X149801107Y-87219842D01*
X149835202Y-87253937D01*
X150004720Y-87367205D01*
X150193078Y-87445226D01*
X150393037Y-87485000D01*
X150596915Y-87485000D01*
X150796874Y-87445226D01*
X150985232Y-87367205D01*
X151154750Y-87253937D01*
X151298913Y-87109774D01*
X151329811Y-87063531D01*
X155354389Y-87063531D01*
X155396401Y-87353019D01*
X155494081Y-87628747D01*
X155567528Y-87766157D01*
X155816603Y-87843792D01*
X156665395Y-86995000D01*
X157024605Y-86995000D01*
X157873397Y-87843792D01*
X158122472Y-87766157D01*
X158248371Y-87502117D01*
X158320339Y-87218589D01*
X158335611Y-86926469D01*
X158293599Y-86636981D01*
X158195919Y-86361253D01*
X158122472Y-86223843D01*
X157873397Y-86146208D01*
X157024605Y-86995000D01*
X156665395Y-86995000D01*
X155816603Y-86146208D01*
X155567528Y-86223843D01*
X155441629Y-86487883D01*
X155369661Y-86771411D01*
X155354389Y-87063531D01*
X151329811Y-87063531D01*
X151412181Y-86940256D01*
X151490202Y-86751898D01*
X151529976Y-86551939D01*
X151529976Y-86348061D01*
X151490202Y-86148102D01*
X151412181Y-85959744D01*
X151298913Y-85790226D01*
X151255000Y-85746313D01*
X151255000Y-84308740D01*
X155360000Y-84308740D01*
X155360000Y-84601260D01*
X155417068Y-84888158D01*
X155529010Y-85158411D01*
X155691525Y-85401632D01*
X155898368Y-85608475D01*
X156071729Y-85724311D01*
X155996208Y-85966603D01*
X156845000Y-86815395D01*
X157693792Y-85966603D01*
X157618271Y-85724311D01*
X157791632Y-85608475D01*
X157998475Y-85401632D01*
X158115000Y-85227240D01*
X158231525Y-85401632D01*
X158438368Y-85608475D01*
X158681589Y-85770990D01*
X158951842Y-85882932D01*
X159238740Y-85940000D01*
X159531260Y-85940000D01*
X159818158Y-85882932D01*
X160088411Y-85770990D01*
X160331632Y-85608475D01*
X160538475Y-85401632D01*
X160655000Y-85227240D01*
X160771525Y-85401632D01*
X160978368Y-85608475D01*
X161221589Y-85770990D01*
X161491842Y-85882932D01*
X161778740Y-85940000D01*
X162071260Y-85940000D01*
X162358158Y-85882932D01*
X162628411Y-85770990D01*
X162871632Y-85608475D01*
X163078475Y-85401632D01*
X163195000Y-85227240D01*
X163311525Y-85401632D01*
X163518368Y-85608475D01*
X163761589Y-85770990D01*
X164031842Y-85882932D01*
X164318740Y-85940000D01*
X164611260Y-85940000D01*
X164898158Y-85882932D01*
X165168411Y-85770990D01*
X165411632Y-85608475D01*
X165618475Y-85401632D01*
X165735000Y-85227240D01*
X165851525Y-85401632D01*
X166058368Y-85608475D01*
X166301589Y-85770990D01*
X166571842Y-85882932D01*
X166858740Y-85940000D01*
X167151260Y-85940000D01*
X167438158Y-85882932D01*
X167708411Y-85770990D01*
X167951632Y-85608475D01*
X168158475Y-85401632D01*
X168275000Y-85227240D01*
X168391525Y-85401632D01*
X168598368Y-85608475D01*
X168841589Y-85770990D01*
X169111842Y-85882932D01*
X169398740Y-85940000D01*
X169691260Y-85940000D01*
X169978158Y-85882932D01*
X170248411Y-85770990D01*
X170491632Y-85608475D01*
X170698475Y-85401632D01*
X170815000Y-85227240D01*
X170931525Y-85401632D01*
X171138368Y-85608475D01*
X171381589Y-85770990D01*
X171651842Y-85882932D01*
X171938740Y-85940000D01*
X172231260Y-85940000D01*
X172518158Y-85882932D01*
X172788411Y-85770990D01*
X173031632Y-85608475D01*
X173238475Y-85401632D01*
X173355000Y-85227240D01*
X173471525Y-85401632D01*
X173678368Y-85608475D01*
X173921589Y-85770990D01*
X174191842Y-85882932D01*
X174478740Y-85940000D01*
X174771260Y-85940000D01*
X175058158Y-85882932D01*
X175328411Y-85770990D01*
X175571632Y-85608475D01*
X175696710Y-85483397D01*
X176316208Y-85483397D01*
X176393843Y-85732472D01*
X176657883Y-85858371D01*
X176941411Y-85930339D01*
X177233531Y-85945611D01*
X177523019Y-85903599D01*
X177798747Y-85805919D01*
X177936157Y-85732472D01*
X178013792Y-85483397D01*
X177165000Y-84634605D01*
X176316208Y-85483397D01*
X175696710Y-85483397D01*
X175778475Y-85401632D01*
X175894311Y-85228271D01*
X176136603Y-85303792D01*
X176985395Y-84455000D01*
X177344605Y-84455000D01*
X178193397Y-85303792D01*
X178435689Y-85228271D01*
X178551525Y-85401632D01*
X178758368Y-85608475D01*
X179001589Y-85770990D01*
X179271842Y-85882932D01*
X179558740Y-85940000D01*
X179851260Y-85940000D01*
X180138158Y-85882932D01*
X180408411Y-85770990D01*
X180651632Y-85608475D01*
X180858475Y-85401632D01*
X180975000Y-85227240D01*
X181091525Y-85401632D01*
X181298368Y-85608475D01*
X181541589Y-85770990D01*
X181811842Y-85882932D01*
X182098740Y-85940000D01*
X182391260Y-85940000D01*
X182678158Y-85882932D01*
X182948411Y-85770990D01*
X183191632Y-85608475D01*
X183323487Y-85476620D01*
X183345498Y-85549180D01*
X183404463Y-85659494D01*
X183483815Y-85756185D01*
X183580506Y-85835537D01*
X183690820Y-85894502D01*
X183810518Y-85930812D01*
X183935000Y-85943072D01*
X185635000Y-85943072D01*
X185759482Y-85930812D01*
X185846590Y-85904388D01*
X185897068Y-86158158D01*
X186009010Y-86428411D01*
X186171525Y-86671632D01*
X186378368Y-86878475D01*
X186552760Y-86995000D01*
X186378368Y-87111525D01*
X186171525Y-87318368D01*
X186009010Y-87561589D01*
X185897068Y-87831842D01*
X185840000Y-88118740D01*
X185840000Y-88411260D01*
X185897068Y-88698158D01*
X186009010Y-88968411D01*
X186171525Y-89211632D01*
X186378368Y-89418475D01*
X186552760Y-89535000D01*
X186378368Y-89651525D01*
X186171525Y-89858368D01*
X186009010Y-90101589D01*
X185897068Y-90371842D01*
X185840000Y-90658740D01*
X185840000Y-90951260D01*
X185897068Y-91238158D01*
X186009010Y-91508411D01*
X186171525Y-91751632D01*
X186378368Y-91958475D01*
X186552760Y-92075000D01*
X186378368Y-92191525D01*
X186171525Y-92398368D01*
X186009010Y-92641589D01*
X185897068Y-92911842D01*
X185840000Y-93198740D01*
X185840000Y-93491260D01*
X185897068Y-93778158D01*
X186009010Y-94048411D01*
X186171525Y-94291632D01*
X186378368Y-94498475D01*
X186552760Y-94615000D01*
X186378368Y-94731525D01*
X186171525Y-94938368D01*
X186009010Y-95181589D01*
X185897068Y-95451842D01*
X185840000Y-95738740D01*
X185840000Y-96031260D01*
X185897068Y-96318158D01*
X186009010Y-96588411D01*
X186171525Y-96831632D01*
X186378368Y-97038475D01*
X186552760Y-97155000D01*
X186378368Y-97271525D01*
X186171525Y-97478368D01*
X186009010Y-97721589D01*
X185897068Y-97991842D01*
X185840000Y-98278740D01*
X185840000Y-98571260D01*
X185859525Y-98669418D01*
X185731632Y-98541525D01*
X185488411Y-98379010D01*
X185218158Y-98267068D01*
X184931260Y-98210000D01*
X184638740Y-98210000D01*
X184351842Y-98267068D01*
X184081589Y-98379010D01*
X183838368Y-98541525D01*
X183631525Y-98748368D01*
X183515689Y-98921729D01*
X183273397Y-98846208D01*
X182424605Y-99695000D01*
X183273397Y-100543792D01*
X183515689Y-100468271D01*
X183631525Y-100641632D01*
X183838368Y-100848475D01*
X184081589Y-101010990D01*
X184351842Y-101122932D01*
X184638740Y-101180000D01*
X184931260Y-101180000D01*
X185218158Y-101122932D01*
X185488411Y-101010990D01*
X185731632Y-100848475D01*
X185938475Y-100641632D01*
X186100990Y-100398411D01*
X186212932Y-100128158D01*
X186270000Y-99841260D01*
X186270000Y-99548740D01*
X186250475Y-99450582D01*
X186378368Y-99578475D01*
X186621589Y-99740990D01*
X186891842Y-99852932D01*
X187178740Y-99910000D01*
X187471260Y-99910000D01*
X187758158Y-99852932D01*
X188028411Y-99740990D01*
X188271632Y-99578475D01*
X188478475Y-99371632D01*
X188640990Y-99128411D01*
X188752932Y-98858158D01*
X188810000Y-98571260D01*
X188810000Y-98278740D01*
X188752932Y-97991842D01*
X188640990Y-97721589D01*
X188478475Y-97478368D01*
X188271632Y-97271525D01*
X188097240Y-97155000D01*
X188271632Y-97038475D01*
X188478475Y-96831632D01*
X188640990Y-96588411D01*
X188752932Y-96318158D01*
X188810000Y-96031260D01*
X188810000Y-95738740D01*
X188752932Y-95451842D01*
X188640990Y-95181589D01*
X188478475Y-94938368D01*
X188271632Y-94731525D01*
X188097240Y-94615000D01*
X188271632Y-94498475D01*
X188478475Y-94291632D01*
X188640990Y-94048411D01*
X188752932Y-93778158D01*
X188810000Y-93491260D01*
X188810000Y-93198740D01*
X188752932Y-92911842D01*
X188640990Y-92641589D01*
X188478475Y-92398368D01*
X188271632Y-92191525D01*
X188097240Y-92075000D01*
X188271632Y-91958475D01*
X188478475Y-91751632D01*
X188640990Y-91508411D01*
X188752932Y-91238158D01*
X188810000Y-90951260D01*
X188810000Y-90658740D01*
X188752932Y-90371842D01*
X188640990Y-90101589D01*
X188478475Y-89858368D01*
X188271632Y-89651525D01*
X188097240Y-89535000D01*
X188271632Y-89418475D01*
X188478475Y-89211632D01*
X188640990Y-88968411D01*
X188752932Y-88698158D01*
X188810000Y-88411260D01*
X188810000Y-88118740D01*
X188752932Y-87831842D01*
X188640990Y-87561589D01*
X188478475Y-87318368D01*
X188271632Y-87111525D01*
X188097240Y-86995000D01*
X188271632Y-86878475D01*
X188478475Y-86671632D01*
X188640990Y-86428411D01*
X188752932Y-86158158D01*
X188810000Y-85871260D01*
X188810000Y-85578740D01*
X188752932Y-85291842D01*
X188640990Y-85021589D01*
X188478475Y-84778368D01*
X188271632Y-84571525D01*
X188028411Y-84409010D01*
X187758158Y-84297068D01*
X187471260Y-84240000D01*
X187178740Y-84240000D01*
X186891842Y-84297068D01*
X186621589Y-84409010D01*
X186378368Y-84571525D01*
X186273072Y-84676821D01*
X186273072Y-83605000D01*
X186260812Y-83480518D01*
X186224502Y-83360820D01*
X186165537Y-83250506D01*
X186086185Y-83153815D01*
X185989494Y-83074463D01*
X185879180Y-83015498D01*
X185759482Y-82979188D01*
X185635000Y-82966928D01*
X183935000Y-82966928D01*
X183810518Y-82979188D01*
X183690820Y-83015498D01*
X183580506Y-83074463D01*
X183483815Y-83153815D01*
X183404463Y-83250506D01*
X183345498Y-83360820D01*
X183323487Y-83433380D01*
X183191632Y-83301525D01*
X182948411Y-83139010D01*
X182678158Y-83027068D01*
X182391260Y-82970000D01*
X182098740Y-82970000D01*
X181811842Y-83027068D01*
X181541589Y-83139010D01*
X181298368Y-83301525D01*
X181091525Y-83508368D01*
X180975000Y-83682760D01*
X180858475Y-83508368D01*
X180651632Y-83301525D01*
X180408411Y-83139010D01*
X180138158Y-83027068D01*
X179851260Y-82970000D01*
X179558740Y-82970000D01*
X179271842Y-83027068D01*
X179001589Y-83139010D01*
X178758368Y-83301525D01*
X178551525Y-83508368D01*
X178435689Y-83681729D01*
X178193397Y-83606208D01*
X177344605Y-84455000D01*
X176985395Y-84455000D01*
X176136603Y-83606208D01*
X175894311Y-83681729D01*
X175778475Y-83508368D01*
X175696710Y-83426603D01*
X176316208Y-83426603D01*
X177165000Y-84275395D01*
X178013792Y-83426603D01*
X177936157Y-83177528D01*
X177672117Y-83051629D01*
X177388589Y-82979661D01*
X177096469Y-82964389D01*
X176806981Y-83006401D01*
X176531253Y-83104081D01*
X176393843Y-83177528D01*
X176316208Y-83426603D01*
X175696710Y-83426603D01*
X175571632Y-83301525D01*
X175328411Y-83139010D01*
X175058158Y-83027068D01*
X174771260Y-82970000D01*
X174478740Y-82970000D01*
X174191842Y-83027068D01*
X173921589Y-83139010D01*
X173678368Y-83301525D01*
X173471525Y-83508368D01*
X173355000Y-83682760D01*
X173238475Y-83508368D01*
X173031632Y-83301525D01*
X172788411Y-83139010D01*
X172518158Y-83027068D01*
X172231260Y-82970000D01*
X171938740Y-82970000D01*
X171651842Y-83027068D01*
X171381589Y-83139010D01*
X171138368Y-83301525D01*
X170931525Y-83508368D01*
X170815000Y-83682760D01*
X170698475Y-83508368D01*
X170491632Y-83301525D01*
X170248411Y-83139010D01*
X169978158Y-83027068D01*
X169691260Y-82970000D01*
X169398740Y-82970000D01*
X169111842Y-83027068D01*
X168841589Y-83139010D01*
X168598368Y-83301525D01*
X168391525Y-83508368D01*
X168275000Y-83682760D01*
X168158475Y-83508368D01*
X167951632Y-83301525D01*
X167708411Y-83139010D01*
X167438158Y-83027068D01*
X167151260Y-82970000D01*
X166858740Y-82970000D01*
X166571842Y-83027068D01*
X166301589Y-83139010D01*
X166058368Y-83301525D01*
X165851525Y-83508368D01*
X165735000Y-83682760D01*
X165618475Y-83508368D01*
X165411632Y-83301525D01*
X165168411Y-83139010D01*
X164898158Y-83027068D01*
X164611260Y-82970000D01*
X164318740Y-82970000D01*
X164031842Y-83027068D01*
X163761589Y-83139010D01*
X163518368Y-83301525D01*
X163311525Y-83508368D01*
X163195000Y-83682760D01*
X163078475Y-83508368D01*
X162871632Y-83301525D01*
X162628411Y-83139010D01*
X162358158Y-83027068D01*
X162071260Y-82970000D01*
X161778740Y-82970000D01*
X161491842Y-83027068D01*
X161221589Y-83139010D01*
X160978368Y-83301525D01*
X160771525Y-83508368D01*
X160655000Y-83682760D01*
X160538475Y-83508368D01*
X160331632Y-83301525D01*
X160088411Y-83139010D01*
X159818158Y-83027068D01*
X159531260Y-82970000D01*
X159238740Y-82970000D01*
X158951842Y-83027068D01*
X158681589Y-83139010D01*
X158438368Y-83301525D01*
X158231525Y-83508368D01*
X158115000Y-83682760D01*
X157998475Y-83508368D01*
X157791632Y-83301525D01*
X157548411Y-83139010D01*
X157278158Y-83027068D01*
X156991260Y-82970000D01*
X156698740Y-82970000D01*
X156411842Y-83027068D01*
X156141589Y-83139010D01*
X155898368Y-83301525D01*
X155691525Y-83508368D01*
X155529010Y-83751589D01*
X155417068Y-84021842D01*
X155360000Y-84308740D01*
X151255000Y-84308740D01*
X151255000Y-83253711D01*
X151298937Y-83209774D01*
X151412205Y-83040256D01*
X151490226Y-82851898D01*
X151530000Y-82651939D01*
X151530000Y-82448061D01*
X151490226Y-82248102D01*
X151412205Y-82059744D01*
X151298937Y-81890226D01*
X151154774Y-81746063D01*
X150985256Y-81632795D01*
X150796898Y-81554774D01*
X150596939Y-81515000D01*
X150393061Y-81515000D01*
X150195840Y-81554229D01*
X150142205Y-81424744D01*
X150028937Y-81255226D01*
X149884774Y-81111063D01*
X149715256Y-80997795D01*
X149526898Y-80919774D01*
X149326939Y-80880000D01*
X149123061Y-80880000D01*
X148923102Y-80919774D01*
X148734744Y-80997795D01*
X148565226Y-81111063D01*
X148421063Y-81255226D01*
X148307795Y-81424744D01*
X148229774Y-81613102D01*
X148190000Y-81813061D01*
X108660000Y-81813061D01*
X108660000Y-76693665D01*
X126835000Y-76693665D01*
X126835000Y-76976335D01*
X126890147Y-77253574D01*
X126998320Y-77514727D01*
X127155363Y-77749759D01*
X127355241Y-77949637D01*
X127590273Y-78106680D01*
X127851426Y-78214853D01*
X128128665Y-78270000D01*
X128411335Y-78270000D01*
X128688574Y-78214853D01*
X128949727Y-78106680D01*
X129184759Y-77949637D01*
X129384637Y-77749759D01*
X129541680Y-77514727D01*
X129649853Y-77253574D01*
X129705000Y-76976335D01*
X129705000Y-76693665D01*
X136995000Y-76693665D01*
X136995000Y-76976335D01*
X137050147Y-77253574D01*
X137158320Y-77514727D01*
X137315363Y-77749759D01*
X137515241Y-77949637D01*
X137750273Y-78106680D01*
X138011426Y-78214853D01*
X138288665Y-78270000D01*
X138571335Y-78270000D01*
X138848574Y-78214853D01*
X139109727Y-78106680D01*
X139344759Y-77949637D01*
X139544637Y-77749759D01*
X139701680Y-77514727D01*
X139809853Y-77253574D01*
X139865000Y-76976335D01*
X139865000Y-76693665D01*
X139809853Y-76416426D01*
X139701680Y-76155273D01*
X139544637Y-75920241D01*
X139344759Y-75720363D01*
X139109727Y-75563320D01*
X138848574Y-75455147D01*
X138571335Y-75400000D01*
X138288665Y-75400000D01*
X138011426Y-75455147D01*
X137750273Y-75563320D01*
X137515241Y-75720363D01*
X137315363Y-75920241D01*
X137158320Y-76155273D01*
X137050147Y-76416426D01*
X136995000Y-76693665D01*
X129705000Y-76693665D01*
X129649853Y-76416426D01*
X129541680Y-76155273D01*
X129384637Y-75920241D01*
X129184759Y-75720363D01*
X128949727Y-75563320D01*
X128688574Y-75455147D01*
X128411335Y-75400000D01*
X128128665Y-75400000D01*
X127851426Y-75455147D01*
X127590273Y-75563320D01*
X127355241Y-75720363D01*
X127155363Y-75920241D01*
X126998320Y-76155273D01*
X126890147Y-76416426D01*
X126835000Y-76693665D01*
X108660000Y-76693665D01*
X108660000Y-67965000D01*
X114831928Y-67965000D01*
X114844188Y-68089482D01*
X114880498Y-68209180D01*
X114939463Y-68319494D01*
X115018815Y-68416185D01*
X115115506Y-68495537D01*
X115225820Y-68554502D01*
X115345518Y-68590812D01*
X115470000Y-68603072D01*
X116934250Y-68600000D01*
X117093000Y-68441250D01*
X117093000Y-66342000D01*
X117347000Y-66342000D01*
X117347000Y-68441250D01*
X117505750Y-68600000D01*
X118970000Y-68603072D01*
X119094482Y-68590812D01*
X119214180Y-68554502D01*
X119324494Y-68495537D01*
X119421185Y-68416185D01*
X119500537Y-68319494D01*
X119531928Y-68260767D01*
X119531928Y-70965000D01*
X119544188Y-71089482D01*
X119580498Y-71209180D01*
X119639463Y-71319494D01*
X119718815Y-71416185D01*
X119815506Y-71495537D01*
X119925820Y-71554502D01*
X120045518Y-71590812D01*
X120170000Y-71603072D01*
X123670000Y-71603072D01*
X123794482Y-71590812D01*
X123914180Y-71554502D01*
X124024494Y-71495537D01*
X124121185Y-71416185D01*
X124200537Y-71319494D01*
X124259502Y-71209180D01*
X124295812Y-71089482D01*
X124308072Y-70965000D01*
X124308072Y-70150000D01*
X192011928Y-70150000D01*
X192011928Y-71850000D01*
X192024188Y-71974482D01*
X192060498Y-72094180D01*
X192119463Y-72204494D01*
X192198815Y-72301185D01*
X192295506Y-72380537D01*
X192405820Y-72439502D01*
X192525518Y-72475812D01*
X192650000Y-72488072D01*
X194350000Y-72488072D01*
X194474482Y-72475812D01*
X194594180Y-72439502D01*
X194704494Y-72380537D01*
X194801185Y-72301185D01*
X194880537Y-72204494D01*
X194939502Y-72094180D01*
X194975812Y-71974482D01*
X194988072Y-71850000D01*
X194988072Y-70150000D01*
X194975812Y-70025518D01*
X194939502Y-69905820D01*
X194880537Y-69795506D01*
X194801185Y-69698815D01*
X194704494Y-69619463D01*
X194594180Y-69560498D01*
X194474482Y-69524188D01*
X194350000Y-69511928D01*
X192650000Y-69511928D01*
X192525518Y-69524188D01*
X192405820Y-69560498D01*
X192295506Y-69619463D01*
X192198815Y-69698815D01*
X192119463Y-69795506D01*
X192060498Y-69905820D01*
X192024188Y-70025518D01*
X192011928Y-70150000D01*
X124308072Y-70150000D01*
X124308072Y-67465000D01*
X124295812Y-67340518D01*
X124259502Y-67220820D01*
X124200537Y-67110506D01*
X124121185Y-67013815D01*
X124024494Y-66934463D01*
X123914180Y-66875498D01*
X123794482Y-66839188D01*
X123670000Y-66826928D01*
X120170000Y-66826928D01*
X120045518Y-66839188D01*
X119925820Y-66875498D01*
X119815506Y-66934463D01*
X119718815Y-67013815D01*
X119639463Y-67110506D01*
X119606409Y-67172345D01*
X119605000Y-66500750D01*
X119446250Y-66342000D01*
X117347000Y-66342000D01*
X117093000Y-66342000D01*
X114993750Y-66342000D01*
X114835000Y-66500750D01*
X114831928Y-67965000D01*
X108660000Y-67965000D01*
X108660000Y-62265098D01*
X110115000Y-62265098D01*
X110115000Y-62734902D01*
X110206654Y-63195679D01*
X110386440Y-63629721D01*
X110647450Y-64020349D01*
X110979651Y-64352550D01*
X111370279Y-64613560D01*
X111804321Y-64793346D01*
X112265098Y-64885000D01*
X112734902Y-64885000D01*
X113195679Y-64793346D01*
X113629721Y-64613560D01*
X113852056Y-64465000D01*
X114831928Y-64465000D01*
X114835000Y-65929250D01*
X114993750Y-66088000D01*
X117093000Y-66088000D01*
X117093000Y-63988750D01*
X117347000Y-63988750D01*
X117347000Y-66088000D01*
X119446250Y-66088000D01*
X119605000Y-65929250D01*
X119606931Y-65008633D01*
X119639463Y-65069494D01*
X119718815Y-65166185D01*
X119815506Y-65245537D01*
X119925820Y-65304502D01*
X120045518Y-65340812D01*
X120170000Y-65353072D01*
X121634250Y-65350000D01*
X121793000Y-65191250D01*
X121793000Y-63342000D01*
X122047000Y-63342000D01*
X122047000Y-65191250D01*
X122205750Y-65350000D01*
X123670000Y-65353072D01*
X123794482Y-65340812D01*
X123914180Y-65304502D01*
X124024494Y-65245537D01*
X124121185Y-65166185D01*
X124200537Y-65069494D01*
X124259502Y-64959180D01*
X124295812Y-64839482D01*
X124303477Y-64761653D01*
X180687952Y-64761653D01*
X180843962Y-65077214D01*
X181218745Y-65268020D01*
X181623551Y-65382044D01*
X182042824Y-65414902D01*
X182460451Y-65365334D01*
X182860383Y-65235243D01*
X183156038Y-65077214D01*
X183312048Y-64761653D01*
X184497952Y-64761653D01*
X184653962Y-65077214D01*
X185028745Y-65268020D01*
X185433551Y-65382044D01*
X185852824Y-65414902D01*
X186270451Y-65365334D01*
X186670383Y-65235243D01*
X186966038Y-65077214D01*
X187122048Y-64761653D01*
X185810000Y-63449605D01*
X184497952Y-64761653D01*
X183312048Y-64761653D01*
X182000000Y-63449605D01*
X180687952Y-64761653D01*
X124303477Y-64761653D01*
X124308072Y-64715000D01*
X124305000Y-63500750D01*
X124146250Y-63342000D01*
X122047000Y-63342000D01*
X121793000Y-63342000D01*
X119693750Y-63342000D01*
X119535000Y-63500750D01*
X119533302Y-64171805D01*
X119500537Y-64110506D01*
X119421185Y-64013815D01*
X119324494Y-63934463D01*
X119214180Y-63875498D01*
X119094482Y-63839188D01*
X118970000Y-63826928D01*
X117505750Y-63830000D01*
X117347000Y-63988750D01*
X117093000Y-63988750D01*
X116934250Y-63830000D01*
X115470000Y-63826928D01*
X115345518Y-63839188D01*
X115225820Y-63875498D01*
X115115506Y-63934463D01*
X115018815Y-64013815D01*
X114939463Y-64110506D01*
X114880498Y-64220820D01*
X114844188Y-64340518D01*
X114831928Y-64465000D01*
X113852056Y-64465000D01*
X114020349Y-64352550D01*
X114352550Y-64020349D01*
X114613560Y-63629721D01*
X114793346Y-63195679D01*
X114885000Y-62734902D01*
X114885000Y-62265098D01*
X114793346Y-61804321D01*
X114756349Y-61715000D01*
X119531928Y-61715000D01*
X119535000Y-62929250D01*
X119693750Y-63088000D01*
X121793000Y-63088000D01*
X121793000Y-61238750D01*
X122047000Y-61238750D01*
X122047000Y-63088000D01*
X124146250Y-63088000D01*
X124305000Y-62929250D01*
X124307139Y-62083740D01*
X131195000Y-62083740D01*
X131195000Y-62376260D01*
X131252068Y-62663158D01*
X131364010Y-62933411D01*
X131526525Y-63176632D01*
X131733368Y-63383475D01*
X131976589Y-63545990D01*
X132246842Y-63657932D01*
X132533740Y-63715000D01*
X132826260Y-63715000D01*
X133113158Y-63657932D01*
X133383411Y-63545990D01*
X133626632Y-63383475D01*
X133833475Y-63176632D01*
X133950000Y-63002240D01*
X134066525Y-63176632D01*
X134273368Y-63383475D01*
X134516589Y-63545990D01*
X134786842Y-63657932D01*
X135073740Y-63715000D01*
X135366260Y-63715000D01*
X135653158Y-63657932D01*
X135923411Y-63545990D01*
X136166632Y-63383475D01*
X136373475Y-63176632D01*
X136490000Y-63002240D01*
X136606525Y-63176632D01*
X136813368Y-63383475D01*
X137056589Y-63545990D01*
X137326842Y-63657932D01*
X137613740Y-63715000D01*
X137906260Y-63715000D01*
X138193158Y-63657932D01*
X138463411Y-63545990D01*
X138706632Y-63383475D01*
X138913475Y-63176632D01*
X139030000Y-63002240D01*
X139146525Y-63176632D01*
X139353368Y-63383475D01*
X139596589Y-63545990D01*
X139866842Y-63657932D01*
X140153740Y-63715000D01*
X140446260Y-63715000D01*
X140733158Y-63657932D01*
X141003411Y-63545990D01*
X141246632Y-63383475D01*
X141453475Y-63176632D01*
X141570000Y-63002240D01*
X141686525Y-63176632D01*
X141893368Y-63383475D01*
X142136589Y-63545990D01*
X142406842Y-63657932D01*
X142693740Y-63715000D01*
X142986260Y-63715000D01*
X143273158Y-63657932D01*
X143543411Y-63545990D01*
X143786632Y-63383475D01*
X143993475Y-63176632D01*
X144110000Y-63002240D01*
X144226525Y-63176632D01*
X144433368Y-63383475D01*
X144676589Y-63545990D01*
X144946842Y-63657932D01*
X145233740Y-63715000D01*
X145526260Y-63715000D01*
X145813158Y-63657932D01*
X146083411Y-63545990D01*
X146326632Y-63383475D01*
X146533475Y-63176632D01*
X146650000Y-63002240D01*
X146766525Y-63176632D01*
X146973368Y-63383475D01*
X147216589Y-63545990D01*
X147486842Y-63657932D01*
X147773740Y-63715000D01*
X148066260Y-63715000D01*
X148353158Y-63657932D01*
X148623411Y-63545990D01*
X148866632Y-63383475D01*
X149073475Y-63176632D01*
X149190000Y-63002240D01*
X149306525Y-63176632D01*
X149513368Y-63383475D01*
X149756589Y-63545990D01*
X150026842Y-63657932D01*
X150313740Y-63715000D01*
X150606260Y-63715000D01*
X150893158Y-63657932D01*
X151163411Y-63545990D01*
X151406632Y-63383475D01*
X151613475Y-63176632D01*
X151730000Y-63002240D01*
X151846525Y-63176632D01*
X152053368Y-63383475D01*
X152296589Y-63545990D01*
X152566842Y-63657932D01*
X152853740Y-63715000D01*
X153146260Y-63715000D01*
X153433158Y-63657932D01*
X153703411Y-63545990D01*
X153946632Y-63383475D01*
X154153475Y-63176632D01*
X154270000Y-63002240D01*
X154386525Y-63176632D01*
X154593368Y-63383475D01*
X154836589Y-63545990D01*
X155106842Y-63657932D01*
X155393740Y-63715000D01*
X155686260Y-63715000D01*
X155973158Y-63657932D01*
X156243411Y-63545990D01*
X156486632Y-63383475D01*
X156693475Y-63176632D01*
X156810000Y-63002240D01*
X156926525Y-63176632D01*
X157133368Y-63383475D01*
X157376589Y-63545990D01*
X157646842Y-63657932D01*
X157933740Y-63715000D01*
X158226260Y-63715000D01*
X158513158Y-63657932D01*
X158783411Y-63545990D01*
X159026632Y-63383475D01*
X159233475Y-63176632D01*
X159350000Y-63002240D01*
X159466525Y-63176632D01*
X159673368Y-63383475D01*
X159916589Y-63545990D01*
X160186842Y-63657932D01*
X160473740Y-63715000D01*
X160766260Y-63715000D01*
X161053158Y-63657932D01*
X161323411Y-63545990D01*
X161566632Y-63383475D01*
X161773475Y-63176632D01*
X161890000Y-63002240D01*
X162006525Y-63176632D01*
X162213368Y-63383475D01*
X162456589Y-63545990D01*
X162726842Y-63657932D01*
X163013740Y-63715000D01*
X163306260Y-63715000D01*
X163593158Y-63657932D01*
X163863411Y-63545990D01*
X164106632Y-63383475D01*
X164313475Y-63176632D01*
X164430000Y-63002240D01*
X164546525Y-63176632D01*
X164753368Y-63383475D01*
X164996589Y-63545990D01*
X165266842Y-63657932D01*
X165553740Y-63715000D01*
X165846260Y-63715000D01*
X166133158Y-63657932D01*
X166403411Y-63545990D01*
X166646632Y-63383475D01*
X166853475Y-63176632D01*
X166970000Y-63002240D01*
X167086525Y-63176632D01*
X167293368Y-63383475D01*
X167536589Y-63545990D01*
X167806842Y-63657932D01*
X168093740Y-63715000D01*
X168386260Y-63715000D01*
X168673158Y-63657932D01*
X168943411Y-63545990D01*
X169186632Y-63383475D01*
X169393475Y-63176632D01*
X169510000Y-63002240D01*
X169626525Y-63176632D01*
X169833368Y-63383475D01*
X170076589Y-63545990D01*
X170346842Y-63657932D01*
X170633740Y-63715000D01*
X170926260Y-63715000D01*
X171213158Y-63657932D01*
X171483411Y-63545990D01*
X171726632Y-63383475D01*
X171933475Y-63176632D01*
X172050000Y-63002240D01*
X172166525Y-63176632D01*
X172373368Y-63383475D01*
X172616589Y-63545990D01*
X172886842Y-63657932D01*
X173173740Y-63715000D01*
X173466260Y-63715000D01*
X173753158Y-63657932D01*
X174023411Y-63545990D01*
X174266632Y-63383475D01*
X174337283Y-63312824D01*
X179855098Y-63312824D01*
X179904666Y-63730451D01*
X180034757Y-64130383D01*
X180192786Y-64426038D01*
X180508347Y-64582048D01*
X181820395Y-63270000D01*
X182179605Y-63270000D01*
X183491653Y-64582048D01*
X183807214Y-64426038D01*
X183902621Y-64238639D01*
X184002786Y-64426038D01*
X184318347Y-64582048D01*
X185630395Y-63270000D01*
X185989605Y-63270000D01*
X187301653Y-64582048D01*
X187617214Y-64426038D01*
X187808020Y-64051255D01*
X187922044Y-63646449D01*
X187954902Y-63227176D01*
X187905334Y-62809549D01*
X187775243Y-62409617D01*
X187697997Y-62265098D01*
X191115000Y-62265098D01*
X191115000Y-62734902D01*
X191206654Y-63195679D01*
X191386440Y-63629721D01*
X191647450Y-64020349D01*
X191979651Y-64352550D01*
X192370279Y-64613560D01*
X192804321Y-64793346D01*
X193265098Y-64885000D01*
X193734902Y-64885000D01*
X194195679Y-64793346D01*
X194629721Y-64613560D01*
X195020349Y-64352550D01*
X195352550Y-64020349D01*
X195613560Y-63629721D01*
X195793346Y-63195679D01*
X195885000Y-62734902D01*
X195885000Y-62265098D01*
X195793346Y-61804321D01*
X195613560Y-61370279D01*
X195352550Y-60979651D01*
X195020349Y-60647450D01*
X194629721Y-60386440D01*
X194195679Y-60206654D01*
X193734902Y-60115000D01*
X193265098Y-60115000D01*
X192804321Y-60206654D01*
X192370279Y-60386440D01*
X191979651Y-60647450D01*
X191647450Y-60979651D01*
X191386440Y-61370279D01*
X191206654Y-61804321D01*
X191115000Y-62265098D01*
X187697997Y-62265098D01*
X187617214Y-62113962D01*
X187301653Y-61957952D01*
X185989605Y-63270000D01*
X185630395Y-63270000D01*
X184318347Y-61957952D01*
X184002786Y-62113962D01*
X183907379Y-62301361D01*
X183807214Y-62113962D01*
X183491653Y-61957952D01*
X182179605Y-63270000D01*
X181820395Y-63270000D01*
X180508347Y-61957952D01*
X180192786Y-62113962D01*
X180001980Y-62488745D01*
X179887956Y-62893551D01*
X179855098Y-63312824D01*
X174337283Y-63312824D01*
X174473475Y-63176632D01*
X174635990Y-62933411D01*
X174747932Y-62663158D01*
X174805000Y-62376260D01*
X174805000Y-62083740D01*
X174747932Y-61796842D01*
X174740272Y-61778347D01*
X180687952Y-61778347D01*
X182000000Y-63090395D01*
X183312048Y-61778347D01*
X184497952Y-61778347D01*
X185810000Y-63090395D01*
X187122048Y-61778347D01*
X186966038Y-61462786D01*
X186591255Y-61271980D01*
X186186449Y-61157956D01*
X185767176Y-61125098D01*
X185349549Y-61174666D01*
X184949617Y-61304757D01*
X184653962Y-61462786D01*
X184497952Y-61778347D01*
X183312048Y-61778347D01*
X183156038Y-61462786D01*
X182781255Y-61271980D01*
X182376449Y-61157956D01*
X181957176Y-61125098D01*
X181539549Y-61174666D01*
X181139617Y-61304757D01*
X180843962Y-61462786D01*
X180687952Y-61778347D01*
X174740272Y-61778347D01*
X174635990Y-61526589D01*
X174473475Y-61283368D01*
X174341620Y-61151513D01*
X174414180Y-61129502D01*
X174524494Y-61070537D01*
X174621185Y-60991185D01*
X174700537Y-60894494D01*
X174759502Y-60784180D01*
X174795812Y-60664482D01*
X174808072Y-60540000D01*
X174805000Y-59975750D01*
X174646250Y-59817000D01*
X173447000Y-59817000D01*
X173447000Y-59837000D01*
X173193000Y-59837000D01*
X173193000Y-59817000D01*
X173173000Y-59817000D01*
X173173000Y-59563000D01*
X173193000Y-59563000D01*
X173193000Y-58363750D01*
X173447000Y-58363750D01*
X173447000Y-59563000D01*
X174646250Y-59563000D01*
X174805000Y-59404250D01*
X174808072Y-58840000D01*
X174795812Y-58715518D01*
X174759502Y-58595820D01*
X174700537Y-58485506D01*
X174621185Y-58388815D01*
X174524494Y-58309463D01*
X174414180Y-58250498D01*
X174294482Y-58214188D01*
X174170000Y-58201928D01*
X173605750Y-58205000D01*
X173447000Y-58363750D01*
X173193000Y-58363750D01*
X173034250Y-58205000D01*
X172470000Y-58201928D01*
X172345518Y-58214188D01*
X172225820Y-58250498D01*
X172115506Y-58309463D01*
X172018815Y-58388815D01*
X171939463Y-58485506D01*
X171880498Y-58595820D01*
X171858487Y-58668380D01*
X171726632Y-58536525D01*
X171483411Y-58374010D01*
X171213158Y-58262068D01*
X170926260Y-58205000D01*
X170633740Y-58205000D01*
X170346842Y-58262068D01*
X170076589Y-58374010D01*
X169833368Y-58536525D01*
X169626525Y-58743368D01*
X169510689Y-58916729D01*
X169268397Y-58841208D01*
X168419605Y-59690000D01*
X169268397Y-60538792D01*
X169510689Y-60463271D01*
X169626525Y-60636632D01*
X169833368Y-60843475D01*
X170007760Y-60960000D01*
X169833368Y-61076525D01*
X169626525Y-61283368D01*
X169510000Y-61457760D01*
X169393475Y-61283368D01*
X169186632Y-61076525D01*
X169013271Y-60960689D01*
X169088792Y-60718397D01*
X168240000Y-59869605D01*
X167391208Y-60718397D01*
X167466729Y-60960689D01*
X167293368Y-61076525D01*
X167086525Y-61283368D01*
X166970000Y-61457760D01*
X166853475Y-61283368D01*
X166646632Y-61076525D01*
X166473271Y-60960689D01*
X166548792Y-60718397D01*
X165700000Y-59869605D01*
X164851208Y-60718397D01*
X164926729Y-60960689D01*
X164753368Y-61076525D01*
X164546525Y-61283368D01*
X164430000Y-61457760D01*
X164313475Y-61283368D01*
X164106632Y-61076525D01*
X163933271Y-60960689D01*
X164008792Y-60718397D01*
X163160000Y-59869605D01*
X162311208Y-60718397D01*
X162386729Y-60960689D01*
X162213368Y-61076525D01*
X162006525Y-61283368D01*
X161890000Y-61457760D01*
X161773475Y-61283368D01*
X161566632Y-61076525D01*
X161393271Y-60960689D01*
X161468792Y-60718397D01*
X160620000Y-59869605D01*
X159771208Y-60718397D01*
X159846729Y-60960689D01*
X159673368Y-61076525D01*
X159466525Y-61283368D01*
X159350000Y-61457760D01*
X159233475Y-61283368D01*
X159026632Y-61076525D01*
X158853271Y-60960689D01*
X158928792Y-60718397D01*
X158080000Y-59869605D01*
X157231208Y-60718397D01*
X157306729Y-60960689D01*
X157133368Y-61076525D01*
X156926525Y-61283368D01*
X156810000Y-61457760D01*
X156693475Y-61283368D01*
X156486632Y-61076525D01*
X156313271Y-60960689D01*
X156388792Y-60718397D01*
X155540000Y-59869605D01*
X154691208Y-60718397D01*
X154766729Y-60960689D01*
X154593368Y-61076525D01*
X154386525Y-61283368D01*
X154270000Y-61457760D01*
X154153475Y-61283368D01*
X153946632Y-61076525D01*
X153773271Y-60960689D01*
X153848792Y-60718397D01*
X153000000Y-59869605D01*
X152151208Y-60718397D01*
X152226729Y-60960689D01*
X152053368Y-61076525D01*
X151846525Y-61283368D01*
X151730000Y-61457760D01*
X151613475Y-61283368D01*
X151406632Y-61076525D01*
X151233271Y-60960689D01*
X151308792Y-60718397D01*
X150460000Y-59869605D01*
X149611208Y-60718397D01*
X149686729Y-60960689D01*
X149513368Y-61076525D01*
X149306525Y-61283368D01*
X149190000Y-61457760D01*
X149073475Y-61283368D01*
X148866632Y-61076525D01*
X148693271Y-60960689D01*
X148768792Y-60718397D01*
X147920000Y-59869605D01*
X147071208Y-60718397D01*
X147146729Y-60960689D01*
X146973368Y-61076525D01*
X146766525Y-61283368D01*
X146650000Y-61457760D01*
X146533475Y-61283368D01*
X146326632Y-61076525D01*
X146153271Y-60960689D01*
X146228792Y-60718397D01*
X145380000Y-59869605D01*
X144531208Y-60718397D01*
X144606729Y-60960689D01*
X144433368Y-61076525D01*
X144226525Y-61283368D01*
X144110000Y-61457760D01*
X143993475Y-61283368D01*
X143786632Y-61076525D01*
X143613271Y-60960689D01*
X143688792Y-60718397D01*
X142840000Y-59869605D01*
X141991208Y-60718397D01*
X142066729Y-60960689D01*
X141893368Y-61076525D01*
X141686525Y-61283368D01*
X141570000Y-61457760D01*
X141453475Y-61283368D01*
X141246632Y-61076525D01*
X141073271Y-60960689D01*
X141148792Y-60718397D01*
X140300000Y-59869605D01*
X139451208Y-60718397D01*
X139526729Y-60960689D01*
X139353368Y-61076525D01*
X139146525Y-61283368D01*
X139030000Y-61457760D01*
X138913475Y-61283368D01*
X138706632Y-61076525D01*
X138533271Y-60960689D01*
X138608792Y-60718397D01*
X137760000Y-59869605D01*
X136911208Y-60718397D01*
X136986729Y-60960689D01*
X136813368Y-61076525D01*
X136606525Y-61283368D01*
X136490000Y-61457760D01*
X136373475Y-61283368D01*
X136166632Y-61076525D01*
X135993271Y-60960689D01*
X136068792Y-60718397D01*
X135220000Y-59869605D01*
X134371208Y-60718397D01*
X134446729Y-60960689D01*
X134273368Y-61076525D01*
X134066525Y-61283368D01*
X133950000Y-61457760D01*
X133833475Y-61283368D01*
X133626632Y-61076525D01*
X133453271Y-60960689D01*
X133528792Y-60718397D01*
X132680000Y-59869605D01*
X131831208Y-60718397D01*
X131906729Y-60960689D01*
X131733368Y-61076525D01*
X131526525Y-61283368D01*
X131364010Y-61526589D01*
X131252068Y-61796842D01*
X131195000Y-62083740D01*
X124307139Y-62083740D01*
X124308072Y-61715000D01*
X124295812Y-61590518D01*
X124259502Y-61470820D01*
X124200537Y-61360506D01*
X124121185Y-61263815D01*
X124024494Y-61184463D01*
X123914180Y-61125498D01*
X123794482Y-61089188D01*
X123670000Y-61076928D01*
X122205750Y-61080000D01*
X122047000Y-61238750D01*
X121793000Y-61238750D01*
X121634250Y-61080000D01*
X120170000Y-61076928D01*
X120045518Y-61089188D01*
X119925820Y-61125498D01*
X119815506Y-61184463D01*
X119718815Y-61263815D01*
X119639463Y-61360506D01*
X119580498Y-61470820D01*
X119544188Y-61590518D01*
X119531928Y-61715000D01*
X114756349Y-61715000D01*
X114613560Y-61370279D01*
X114352550Y-60979651D01*
X114020349Y-60647450D01*
X113629721Y-60386440D01*
X113195679Y-60206654D01*
X112734902Y-60115000D01*
X112265098Y-60115000D01*
X111804321Y-60206654D01*
X111370279Y-60386440D01*
X110979651Y-60647450D01*
X110647450Y-60979651D01*
X110386440Y-61370279D01*
X110206654Y-61804321D01*
X110115000Y-62265098D01*
X108660000Y-62265098D01*
X108660000Y-59758531D01*
X131189389Y-59758531D01*
X131231401Y-60048019D01*
X131329081Y-60323747D01*
X131402528Y-60461157D01*
X131651603Y-60538792D01*
X132500395Y-59690000D01*
X132859605Y-59690000D01*
X133708397Y-60538792D01*
X133950000Y-60463486D01*
X134191603Y-60538792D01*
X135040395Y-59690000D01*
X135399605Y-59690000D01*
X136248397Y-60538792D01*
X136490000Y-60463486D01*
X136731603Y-60538792D01*
X137580395Y-59690000D01*
X137939605Y-59690000D01*
X138788397Y-60538792D01*
X139030000Y-60463486D01*
X139271603Y-60538792D01*
X140120395Y-59690000D01*
X140479605Y-59690000D01*
X141328397Y-60538792D01*
X141570000Y-60463486D01*
X141811603Y-60538792D01*
X142660395Y-59690000D01*
X143019605Y-59690000D01*
X143868397Y-60538792D01*
X144110000Y-60463486D01*
X144351603Y-60538792D01*
X145200395Y-59690000D01*
X145559605Y-59690000D01*
X146408397Y-60538792D01*
X146650000Y-60463486D01*
X146891603Y-60538792D01*
X147740395Y-59690000D01*
X148099605Y-59690000D01*
X148948397Y-60538792D01*
X149190000Y-60463486D01*
X149431603Y-60538792D01*
X150280395Y-59690000D01*
X150639605Y-59690000D01*
X151488397Y-60538792D01*
X151730000Y-60463486D01*
X151971603Y-60538792D01*
X152820395Y-59690000D01*
X153179605Y-59690000D01*
X154028397Y-60538792D01*
X154270000Y-60463486D01*
X154511603Y-60538792D01*
X155360395Y-59690000D01*
X155719605Y-59690000D01*
X156568397Y-60538792D01*
X156810000Y-60463486D01*
X157051603Y-60538792D01*
X157900395Y-59690000D01*
X158259605Y-59690000D01*
X159108397Y-60538792D01*
X159350000Y-60463486D01*
X159591603Y-60538792D01*
X160440395Y-59690000D01*
X160799605Y-59690000D01*
X161648397Y-60538792D01*
X161890000Y-60463486D01*
X162131603Y-60538792D01*
X162980395Y-59690000D01*
X163339605Y-59690000D01*
X164188397Y-60538792D01*
X164430000Y-60463486D01*
X164671603Y-60538792D01*
X165520395Y-59690000D01*
X165879605Y-59690000D01*
X166728397Y-60538792D01*
X166970000Y-60463486D01*
X167211603Y-60538792D01*
X168060395Y-59690000D01*
X167211603Y-58841208D01*
X166970000Y-58916514D01*
X166728397Y-58841208D01*
X165879605Y-59690000D01*
X165520395Y-59690000D01*
X164671603Y-58841208D01*
X164430000Y-58916514D01*
X164188397Y-58841208D01*
X163339605Y-59690000D01*
X162980395Y-59690000D01*
X162131603Y-58841208D01*
X161890000Y-58916514D01*
X161648397Y-58841208D01*
X160799605Y-59690000D01*
X160440395Y-59690000D01*
X159591603Y-58841208D01*
X159350000Y-58916514D01*
X159108397Y-58841208D01*
X158259605Y-59690000D01*
X157900395Y-59690000D01*
X157051603Y-58841208D01*
X156810000Y-58916514D01*
X156568397Y-58841208D01*
X155719605Y-59690000D01*
X155360395Y-59690000D01*
X154511603Y-58841208D01*
X154270000Y-58916514D01*
X154028397Y-58841208D01*
X153179605Y-59690000D01*
X152820395Y-59690000D01*
X151971603Y-58841208D01*
X151730000Y-58916514D01*
X151488397Y-58841208D01*
X150639605Y-59690000D01*
X150280395Y-59690000D01*
X149431603Y-58841208D01*
X149190000Y-58916514D01*
X148948397Y-58841208D01*
X148099605Y-59690000D01*
X147740395Y-59690000D01*
X146891603Y-58841208D01*
X146650000Y-58916514D01*
X146408397Y-58841208D01*
X145559605Y-59690000D01*
X145200395Y-59690000D01*
X144351603Y-58841208D01*
X144110000Y-58916514D01*
X143868397Y-58841208D01*
X143019605Y-59690000D01*
X142660395Y-59690000D01*
X141811603Y-58841208D01*
X141570000Y-58916514D01*
X141328397Y-58841208D01*
X140479605Y-59690000D01*
X140120395Y-59690000D01*
X139271603Y-58841208D01*
X139030000Y-58916514D01*
X138788397Y-58841208D01*
X137939605Y-59690000D01*
X137580395Y-59690000D01*
X136731603Y-58841208D01*
X136490000Y-58916514D01*
X136248397Y-58841208D01*
X135399605Y-59690000D01*
X135040395Y-59690000D01*
X134191603Y-58841208D01*
X133950000Y-58916514D01*
X133708397Y-58841208D01*
X132859605Y-59690000D01*
X132500395Y-59690000D01*
X131651603Y-58841208D01*
X131402528Y-58918843D01*
X131276629Y-59182883D01*
X131204661Y-59466411D01*
X131189389Y-59758531D01*
X108660000Y-59758531D01*
X108660000Y-58661603D01*
X131831208Y-58661603D01*
X132680000Y-59510395D01*
X133528792Y-58661603D01*
X134371208Y-58661603D01*
X135220000Y-59510395D01*
X136068792Y-58661603D01*
X136911208Y-58661603D01*
X137760000Y-59510395D01*
X138608792Y-58661603D01*
X139451208Y-58661603D01*
X140300000Y-59510395D01*
X141148792Y-58661603D01*
X141991208Y-58661603D01*
X142840000Y-59510395D01*
X143688792Y-58661603D01*
X144531208Y-58661603D01*
X145380000Y-59510395D01*
X146228792Y-58661603D01*
X147071208Y-58661603D01*
X147920000Y-59510395D01*
X148768792Y-58661603D01*
X149611208Y-58661603D01*
X150460000Y-59510395D01*
X151308792Y-58661603D01*
X152151208Y-58661603D01*
X153000000Y-59510395D01*
X153848792Y-58661603D01*
X154691208Y-58661603D01*
X155540000Y-59510395D01*
X156388792Y-58661603D01*
X157231208Y-58661603D01*
X158080000Y-59510395D01*
X158928792Y-58661603D01*
X159771208Y-58661603D01*
X160620000Y-59510395D01*
X161468792Y-58661603D01*
X162311208Y-58661603D01*
X163160000Y-59510395D01*
X164008792Y-58661603D01*
X164851208Y-58661603D01*
X165700000Y-59510395D01*
X166548792Y-58661603D01*
X167391208Y-58661603D01*
X168240000Y-59510395D01*
X169088792Y-58661603D01*
X169011157Y-58412528D01*
X168747117Y-58286629D01*
X168463589Y-58214661D01*
X168171469Y-58199389D01*
X167881981Y-58241401D01*
X167606253Y-58339081D01*
X167468843Y-58412528D01*
X167391208Y-58661603D01*
X166548792Y-58661603D01*
X166471157Y-58412528D01*
X166207117Y-58286629D01*
X165923589Y-58214661D01*
X165631469Y-58199389D01*
X165341981Y-58241401D01*
X165066253Y-58339081D01*
X164928843Y-58412528D01*
X164851208Y-58661603D01*
X164008792Y-58661603D01*
X163931157Y-58412528D01*
X163667117Y-58286629D01*
X163383589Y-58214661D01*
X163091469Y-58199389D01*
X162801981Y-58241401D01*
X162526253Y-58339081D01*
X162388843Y-58412528D01*
X162311208Y-58661603D01*
X161468792Y-58661603D01*
X161391157Y-58412528D01*
X161127117Y-58286629D01*
X160843589Y-58214661D01*
X160551469Y-58199389D01*
X160261981Y-58241401D01*
X159986253Y-58339081D01*
X159848843Y-58412528D01*
X159771208Y-58661603D01*
X158928792Y-58661603D01*
X158851157Y-58412528D01*
X158587117Y-58286629D01*
X158303589Y-58214661D01*
X158011469Y-58199389D01*
X157721981Y-58241401D01*
X157446253Y-58339081D01*
X157308843Y-58412528D01*
X157231208Y-58661603D01*
X156388792Y-58661603D01*
X156311157Y-58412528D01*
X156047117Y-58286629D01*
X155763589Y-58214661D01*
X155471469Y-58199389D01*
X155181981Y-58241401D01*
X154906253Y-58339081D01*
X154768843Y-58412528D01*
X154691208Y-58661603D01*
X153848792Y-58661603D01*
X153771157Y-58412528D01*
X153507117Y-58286629D01*
X153223589Y-58214661D01*
X152931469Y-58199389D01*
X152641981Y-58241401D01*
X152366253Y-58339081D01*
X152228843Y-58412528D01*
X152151208Y-58661603D01*
X151308792Y-58661603D01*
X151231157Y-58412528D01*
X150967117Y-58286629D01*
X150683589Y-58214661D01*
X150391469Y-58199389D01*
X150101981Y-58241401D01*
X149826253Y-58339081D01*
X149688843Y-58412528D01*
X149611208Y-58661603D01*
X148768792Y-58661603D01*
X148691157Y-58412528D01*
X148427117Y-58286629D01*
X148143589Y-58214661D01*
X147851469Y-58199389D01*
X147561981Y-58241401D01*
X147286253Y-58339081D01*
X147148843Y-58412528D01*
X147071208Y-58661603D01*
X146228792Y-58661603D01*
X146151157Y-58412528D01*
X145887117Y-58286629D01*
X145603589Y-58214661D01*
X145311469Y-58199389D01*
X145021981Y-58241401D01*
X144746253Y-58339081D01*
X144608843Y-58412528D01*
X144531208Y-58661603D01*
X143688792Y-58661603D01*
X143611157Y-58412528D01*
X143347117Y-58286629D01*
X143063589Y-58214661D01*
X142771469Y-58199389D01*
X142481981Y-58241401D01*
X142206253Y-58339081D01*
X142068843Y-58412528D01*
X141991208Y-58661603D01*
X141148792Y-58661603D01*
X141071157Y-58412528D01*
X140807117Y-58286629D01*
X140523589Y-58214661D01*
X140231469Y-58199389D01*
X139941981Y-58241401D01*
X139666253Y-58339081D01*
X139528843Y-58412528D01*
X139451208Y-58661603D01*
X138608792Y-58661603D01*
X138531157Y-58412528D01*
X138267117Y-58286629D01*
X137983589Y-58214661D01*
X137691469Y-58199389D01*
X137401981Y-58241401D01*
X137126253Y-58339081D01*
X136988843Y-58412528D01*
X136911208Y-58661603D01*
X136068792Y-58661603D01*
X135991157Y-58412528D01*
X135727117Y-58286629D01*
X135443589Y-58214661D01*
X135151469Y-58199389D01*
X134861981Y-58241401D01*
X134586253Y-58339081D01*
X134448843Y-58412528D01*
X134371208Y-58661603D01*
X133528792Y-58661603D01*
X133451157Y-58412528D01*
X133187117Y-58286629D01*
X132903589Y-58214661D01*
X132611469Y-58199389D01*
X132321981Y-58241401D01*
X132046253Y-58339081D01*
X131908843Y-58412528D01*
X131831208Y-58661603D01*
X108660000Y-58661603D01*
X108660000Y-57325000D01*
X179861928Y-57325000D01*
X179861928Y-60325000D01*
X179874188Y-60449482D01*
X179910498Y-60569180D01*
X179969463Y-60679494D01*
X180048815Y-60776185D01*
X180145506Y-60855537D01*
X180255820Y-60914502D01*
X180375518Y-60950812D01*
X180500000Y-60963072D01*
X183500000Y-60963072D01*
X183624482Y-60950812D01*
X183744180Y-60914502D01*
X183854494Y-60855537D01*
X183951185Y-60776185D01*
X184030537Y-60679494D01*
X184089502Y-60569180D01*
X184125812Y-60449482D01*
X184138072Y-60325000D01*
X184138072Y-60165682D01*
X184151637Y-60185983D01*
X184449017Y-60483363D01*
X184798698Y-60717012D01*
X185187244Y-60877953D01*
X185599721Y-60960000D01*
X186020279Y-60960000D01*
X186432756Y-60877953D01*
X186821302Y-60717012D01*
X187170983Y-60483363D01*
X187468363Y-60185983D01*
X187702012Y-59836302D01*
X187862953Y-59447756D01*
X187945000Y-59035279D01*
X187945000Y-58614721D01*
X187862953Y-58202244D01*
X187702012Y-57813698D01*
X187468363Y-57464017D01*
X187170983Y-57166637D01*
X186821302Y-56932988D01*
X186432756Y-56772047D01*
X186020279Y-56690000D01*
X185599721Y-56690000D01*
X185187244Y-56772047D01*
X184798698Y-56932988D01*
X184449017Y-57166637D01*
X184151637Y-57464017D01*
X184138072Y-57484318D01*
X184138072Y-57325000D01*
X184125812Y-57200518D01*
X184089502Y-57080820D01*
X184030537Y-56970506D01*
X183951185Y-56873815D01*
X183854494Y-56794463D01*
X183744180Y-56735498D01*
X183624482Y-56699188D01*
X183500000Y-56686928D01*
X180500000Y-56686928D01*
X180375518Y-56699188D01*
X180255820Y-56735498D01*
X180145506Y-56794463D01*
X180048815Y-56873815D01*
X179969463Y-56970506D01*
X179910498Y-57080820D01*
X179874188Y-57200518D01*
X179861928Y-57325000D01*
X108660000Y-57325000D01*
X108660000Y-56532277D01*
X108679102Y-56337460D01*
X108726308Y-56181106D01*
X108802982Y-56036904D01*
X108906207Y-55910337D01*
X109032051Y-55806231D01*
X109175711Y-55728553D01*
X109331729Y-55680258D01*
X109524473Y-55660000D01*
X116358838Y-55660000D01*
X116387290Y-55753793D01*
G37*
G04 #@! TD.AperFunction*
M02*
