G04 #@! TF.GenerationSoftware,KiCad,Pcbnew,(5.1.8)-1*
G04 #@! TF.CreationDate,2021-09-29T13:24:07+02:00*
G04 #@! TF.ProjectId,Amiga Drawbridge,416d6967-6120-4447-9261-776272696467,rev?*
G04 #@! TF.SameCoordinates,Original*
G04 #@! TF.FileFunction,Legend,Top*
G04 #@! TF.FilePolarity,Positive*
%FSLAX46Y46*%
G04 Gerber Fmt 4.6, Leading zero omitted, Abs format (unit mm)*
G04 Created by KiCad (PCBNEW (5.1.8)-1) date 2021-09-29 13:24:07*
%MOMM*%
%LPD*%
G01*
G04 APERTURE LIST*
%ADD10C,0.150000*%
%ADD11C,0.300000*%
%ADD12C,0.120000*%
%ADD13C,0.100000*%
%ADD14C,0.200000*%
%ADD15C,0.010000*%
G04 APERTURE END LIST*
D10*
X146439761Y-68961666D02*
X146915952Y-68961666D01*
X146344523Y-69247380D02*
X146677857Y-68247380D01*
X147011190Y-69247380D01*
X147344523Y-69247380D02*
X147344523Y-68580714D01*
X147344523Y-68675952D02*
X147392142Y-68628333D01*
X147487380Y-68580714D01*
X147630238Y-68580714D01*
X147725476Y-68628333D01*
X147773095Y-68723571D01*
X147773095Y-69247380D01*
X147773095Y-68723571D02*
X147820714Y-68628333D01*
X147915952Y-68580714D01*
X148058809Y-68580714D01*
X148154047Y-68628333D01*
X148201666Y-68723571D01*
X148201666Y-69247380D01*
X148677857Y-69247380D02*
X148677857Y-68580714D01*
X148677857Y-68247380D02*
X148630238Y-68295000D01*
X148677857Y-68342619D01*
X148725476Y-68295000D01*
X148677857Y-68247380D01*
X148677857Y-68342619D01*
X149582619Y-68580714D02*
X149582619Y-69390238D01*
X149535000Y-69485476D01*
X149487380Y-69533095D01*
X149392142Y-69580714D01*
X149249285Y-69580714D01*
X149154047Y-69533095D01*
X149582619Y-69199761D02*
X149487380Y-69247380D01*
X149296904Y-69247380D01*
X149201666Y-69199761D01*
X149154047Y-69152142D01*
X149106428Y-69056904D01*
X149106428Y-68771190D01*
X149154047Y-68675952D01*
X149201666Y-68628333D01*
X149296904Y-68580714D01*
X149487380Y-68580714D01*
X149582619Y-68628333D01*
X150487380Y-69247380D02*
X150487380Y-68723571D01*
X150439761Y-68628333D01*
X150344523Y-68580714D01*
X150154047Y-68580714D01*
X150058809Y-68628333D01*
X150487380Y-69199761D02*
X150392142Y-69247380D01*
X150154047Y-69247380D01*
X150058809Y-69199761D01*
X150011190Y-69104523D01*
X150011190Y-69009285D01*
X150058809Y-68914047D01*
X150154047Y-68866428D01*
X150392142Y-68866428D01*
X150487380Y-68818809D01*
X151725476Y-69247380D02*
X151725476Y-68247380D01*
X151963571Y-68247380D01*
X152106428Y-68295000D01*
X152201666Y-68390238D01*
X152249285Y-68485476D01*
X152296904Y-68675952D01*
X152296904Y-68818809D01*
X152249285Y-69009285D01*
X152201666Y-69104523D01*
X152106428Y-69199761D01*
X151963571Y-69247380D01*
X151725476Y-69247380D01*
X152725476Y-69247380D02*
X152725476Y-68580714D01*
X152725476Y-68771190D02*
X152773095Y-68675952D01*
X152820714Y-68628333D01*
X152915952Y-68580714D01*
X153011190Y-68580714D01*
X153773095Y-69247380D02*
X153773095Y-68723571D01*
X153725476Y-68628333D01*
X153630238Y-68580714D01*
X153439761Y-68580714D01*
X153344523Y-68628333D01*
X153773095Y-69199761D02*
X153677857Y-69247380D01*
X153439761Y-69247380D01*
X153344523Y-69199761D01*
X153296904Y-69104523D01*
X153296904Y-69009285D01*
X153344523Y-68914047D01*
X153439761Y-68866428D01*
X153677857Y-68866428D01*
X153773095Y-68818809D01*
X154154047Y-68580714D02*
X154344523Y-69247380D01*
X154535000Y-68771190D01*
X154725476Y-69247380D01*
X154915952Y-68580714D01*
X155630238Y-68723571D02*
X155773095Y-68771190D01*
X155820714Y-68818809D01*
X155868333Y-68914047D01*
X155868333Y-69056904D01*
X155820714Y-69152142D01*
X155773095Y-69199761D01*
X155677857Y-69247380D01*
X155296904Y-69247380D01*
X155296904Y-68247380D01*
X155630238Y-68247380D01*
X155725476Y-68295000D01*
X155773095Y-68342619D01*
X155820714Y-68437857D01*
X155820714Y-68533095D01*
X155773095Y-68628333D01*
X155725476Y-68675952D01*
X155630238Y-68723571D01*
X155296904Y-68723571D01*
X156296904Y-69247380D02*
X156296904Y-68580714D01*
X156296904Y-68771190D02*
X156344523Y-68675952D01*
X156392142Y-68628333D01*
X156487380Y-68580714D01*
X156582619Y-68580714D01*
X156915952Y-69247380D02*
X156915952Y-68580714D01*
X156915952Y-68247380D02*
X156868333Y-68295000D01*
X156915952Y-68342619D01*
X156963571Y-68295000D01*
X156915952Y-68247380D01*
X156915952Y-68342619D01*
X157820714Y-69247380D02*
X157820714Y-68247380D01*
X157820714Y-69199761D02*
X157725476Y-69247380D01*
X157535000Y-69247380D01*
X157439761Y-69199761D01*
X157392142Y-69152142D01*
X157344523Y-69056904D01*
X157344523Y-68771190D01*
X157392142Y-68675952D01*
X157439761Y-68628333D01*
X157535000Y-68580714D01*
X157725476Y-68580714D01*
X157820714Y-68628333D01*
X158725476Y-68580714D02*
X158725476Y-69390238D01*
X158677857Y-69485476D01*
X158630238Y-69533095D01*
X158535000Y-69580714D01*
X158392142Y-69580714D01*
X158296904Y-69533095D01*
X158725476Y-69199761D02*
X158630238Y-69247380D01*
X158439761Y-69247380D01*
X158344523Y-69199761D01*
X158296904Y-69152142D01*
X158249285Y-69056904D01*
X158249285Y-68771190D01*
X158296904Y-68675952D01*
X158344523Y-68628333D01*
X158439761Y-68580714D01*
X158630238Y-68580714D01*
X158725476Y-68628333D01*
X159582619Y-69199761D02*
X159487380Y-69247380D01*
X159296904Y-69247380D01*
X159201666Y-69199761D01*
X159154047Y-69104523D01*
X159154047Y-68723571D01*
X159201666Y-68628333D01*
X159296904Y-68580714D01*
X159487380Y-68580714D01*
X159582619Y-68628333D01*
X159630238Y-68723571D01*
X159630238Y-68818809D01*
X159154047Y-68914047D01*
X147630238Y-70230714D02*
X147630238Y-71040238D01*
X147582619Y-71135476D01*
X147535000Y-71183095D01*
X147439761Y-71230714D01*
X147296904Y-71230714D01*
X147201666Y-71183095D01*
X147630238Y-70849761D02*
X147535000Y-70897380D01*
X147344523Y-70897380D01*
X147249285Y-70849761D01*
X147201666Y-70802142D01*
X147154047Y-70706904D01*
X147154047Y-70421190D01*
X147201666Y-70325952D01*
X147249285Y-70278333D01*
X147344523Y-70230714D01*
X147535000Y-70230714D01*
X147630238Y-70278333D01*
X148106428Y-70897380D02*
X148106428Y-70230714D01*
X148106428Y-69897380D02*
X148058809Y-69945000D01*
X148106428Y-69992619D01*
X148154047Y-69945000D01*
X148106428Y-69897380D01*
X148106428Y-69992619D01*
X148439761Y-70230714D02*
X148820714Y-70230714D01*
X148582619Y-69897380D02*
X148582619Y-70754523D01*
X148630238Y-70849761D01*
X148725476Y-70897380D01*
X148820714Y-70897380D01*
X149154047Y-70897380D02*
X149154047Y-69897380D01*
X149582619Y-70897380D02*
X149582619Y-70373571D01*
X149535000Y-70278333D01*
X149439761Y-70230714D01*
X149296904Y-70230714D01*
X149201666Y-70278333D01*
X149154047Y-70325952D01*
X150487380Y-70230714D02*
X150487380Y-70897380D01*
X150058809Y-70230714D02*
X150058809Y-70754523D01*
X150106428Y-70849761D01*
X150201666Y-70897380D01*
X150344523Y-70897380D01*
X150439761Y-70849761D01*
X150487380Y-70802142D01*
X150963571Y-70897380D02*
X150963571Y-69897380D01*
X150963571Y-70278333D02*
X151058809Y-70230714D01*
X151249285Y-70230714D01*
X151344523Y-70278333D01*
X151392142Y-70325952D01*
X151439761Y-70421190D01*
X151439761Y-70706904D01*
X151392142Y-70802142D01*
X151344523Y-70849761D01*
X151249285Y-70897380D01*
X151058809Y-70897380D01*
X150963571Y-70849761D01*
X151868333Y-70802142D02*
X151915952Y-70849761D01*
X151868333Y-70897380D01*
X151820714Y-70849761D01*
X151868333Y-70802142D01*
X151868333Y-70897380D01*
X152773095Y-70849761D02*
X152677857Y-70897380D01*
X152487380Y-70897380D01*
X152392142Y-70849761D01*
X152344523Y-70802142D01*
X152296904Y-70706904D01*
X152296904Y-70421190D01*
X152344523Y-70325952D01*
X152392142Y-70278333D01*
X152487380Y-70230714D01*
X152677857Y-70230714D01*
X152773095Y-70278333D01*
X153344523Y-70897380D02*
X153249285Y-70849761D01*
X153201666Y-70802142D01*
X153154047Y-70706904D01*
X153154047Y-70421190D01*
X153201666Y-70325952D01*
X153249285Y-70278333D01*
X153344523Y-70230714D01*
X153487380Y-70230714D01*
X153582619Y-70278333D01*
X153630238Y-70325952D01*
X153677857Y-70421190D01*
X153677857Y-70706904D01*
X153630238Y-70802142D01*
X153582619Y-70849761D01*
X153487380Y-70897380D01*
X153344523Y-70897380D01*
X154106428Y-70897380D02*
X154106428Y-70230714D01*
X154106428Y-70325952D02*
X154154047Y-70278333D01*
X154249285Y-70230714D01*
X154392142Y-70230714D01*
X154487380Y-70278333D01*
X154535000Y-70373571D01*
X154535000Y-70897380D01*
X154535000Y-70373571D02*
X154582619Y-70278333D01*
X154677857Y-70230714D01*
X154820714Y-70230714D01*
X154915952Y-70278333D01*
X154963571Y-70373571D01*
X154963571Y-70897380D01*
X156154047Y-69849761D02*
X155296904Y-71135476D01*
X156344523Y-70230714D02*
X156725476Y-70230714D01*
X156487380Y-69897380D02*
X156487380Y-70754523D01*
X156535000Y-70849761D01*
X156630238Y-70897380D01*
X156725476Y-70897380D01*
X157439761Y-70849761D02*
X157344523Y-70897380D01*
X157154047Y-70897380D01*
X157058809Y-70849761D01*
X157011190Y-70754523D01*
X157011190Y-70373571D01*
X157058809Y-70278333D01*
X157154047Y-70230714D01*
X157344523Y-70230714D01*
X157439761Y-70278333D01*
X157487380Y-70373571D01*
X157487380Y-70468809D01*
X157011190Y-70564047D01*
X157915952Y-70897380D02*
X157915952Y-69897380D01*
X157915952Y-70278333D02*
X158011190Y-70230714D01*
X158201666Y-70230714D01*
X158296904Y-70278333D01*
X158344523Y-70325952D01*
X158392142Y-70421190D01*
X158392142Y-70706904D01*
X158344523Y-70802142D01*
X158296904Y-70849761D01*
X158201666Y-70897380D01*
X158011190Y-70897380D01*
X157915952Y-70849761D01*
X158963571Y-70897380D02*
X158868333Y-70849761D01*
X158820714Y-70754523D01*
X158820714Y-69897380D01*
X158402976Y-103926666D02*
X158879166Y-103926666D01*
X158307738Y-104212380D02*
X158641071Y-103212380D01*
X158974404Y-104212380D01*
X159879166Y-104212380D02*
X159545833Y-103736190D01*
X159307738Y-104212380D02*
X159307738Y-103212380D01*
X159688690Y-103212380D01*
X159783928Y-103260000D01*
X159831547Y-103307619D01*
X159879166Y-103402857D01*
X159879166Y-103545714D01*
X159831547Y-103640952D01*
X159783928Y-103688571D01*
X159688690Y-103736190D01*
X159307738Y-103736190D01*
X160307738Y-104212380D02*
X160307738Y-103212380D01*
X160545833Y-103212380D01*
X160688690Y-103260000D01*
X160783928Y-103355238D01*
X160831547Y-103450476D01*
X160879166Y-103640952D01*
X160879166Y-103783809D01*
X160831547Y-103974285D01*
X160783928Y-104069523D01*
X160688690Y-104164761D01*
X160545833Y-104212380D01*
X160307738Y-104212380D01*
X161069642Y-104307619D02*
X161831547Y-104307619D01*
X161926785Y-103212380D02*
X162498214Y-103212380D01*
X162212500Y-104212380D02*
X162212500Y-103212380D01*
X163022023Y-103736190D02*
X163022023Y-104212380D01*
X162688690Y-103212380D02*
X163022023Y-103736190D01*
X163355357Y-103212380D01*
X163688690Y-104212380D02*
X163688690Y-103212380D01*
X164069642Y-103212380D01*
X164164880Y-103260000D01*
X164212500Y-103307619D01*
X164260119Y-103402857D01*
X164260119Y-103545714D01*
X164212500Y-103640952D01*
X164164880Y-103688571D01*
X164069642Y-103736190D01*
X163688690Y-103736190D01*
X164688690Y-103688571D02*
X165022023Y-103688571D01*
X165164880Y-104212380D02*
X164688690Y-104212380D01*
X164688690Y-103212380D01*
X165164880Y-103212380D01*
X165593452Y-104117142D02*
X165641071Y-104164761D01*
X165593452Y-104212380D01*
X165545833Y-104164761D01*
X165593452Y-104117142D01*
X165593452Y-104212380D01*
X165593452Y-103593333D02*
X165641071Y-103640952D01*
X165593452Y-103688571D01*
X165545833Y-103640952D01*
X165593452Y-103593333D01*
X165593452Y-103688571D01*
X158974404Y-105862380D02*
X158402976Y-105862380D01*
X158688690Y-105862380D02*
X158688690Y-104862380D01*
X158593452Y-105005238D01*
X158498214Y-105100476D01*
X158402976Y-105148095D01*
X159402976Y-105481428D02*
X160164880Y-105481428D01*
X160593452Y-104957619D02*
X160641071Y-104910000D01*
X160736309Y-104862380D01*
X160974404Y-104862380D01*
X161069642Y-104910000D01*
X161117261Y-104957619D01*
X161164880Y-105052857D01*
X161164880Y-105148095D01*
X161117261Y-105290952D01*
X160545833Y-105862380D01*
X161164880Y-105862380D01*
X162355357Y-105862380D02*
X162355357Y-104862380D01*
X162593452Y-104862380D01*
X162736309Y-104910000D01*
X162831547Y-105005238D01*
X162879166Y-105100476D01*
X162926785Y-105290952D01*
X162926785Y-105433809D01*
X162879166Y-105624285D01*
X162831547Y-105719523D01*
X162736309Y-105814761D01*
X162593452Y-105862380D01*
X162355357Y-105862380D01*
X163212500Y-104862380D02*
X163783928Y-104862380D01*
X163498214Y-105862380D02*
X163498214Y-104862380D01*
X164688690Y-105862380D02*
X164355357Y-105386190D01*
X164117261Y-105862380D02*
X164117261Y-104862380D01*
X164498214Y-104862380D01*
X164593452Y-104910000D01*
X164641071Y-104957619D01*
X164688690Y-105052857D01*
X164688690Y-105195714D01*
X164641071Y-105290952D01*
X164593452Y-105338571D01*
X164498214Y-105386190D01*
X164117261Y-105386190D01*
X165736309Y-104862380D02*
X166307738Y-104862380D01*
X166022023Y-105862380D02*
X166022023Y-104862380D01*
X166545833Y-104862380D02*
X167212500Y-105862380D01*
X167212500Y-104862380D02*
X166545833Y-105862380D01*
X167783928Y-104862380D02*
X167974404Y-104862380D01*
X168069642Y-104910000D01*
X168164880Y-105005238D01*
X168212500Y-105195714D01*
X168212500Y-105529047D01*
X168164880Y-105719523D01*
X168069642Y-105814761D01*
X167974404Y-105862380D01*
X167783928Y-105862380D01*
X167688690Y-105814761D01*
X167593452Y-105719523D01*
X167545833Y-105529047D01*
X167545833Y-105195714D01*
X167593452Y-105005238D01*
X167688690Y-104910000D01*
X167783928Y-104862380D01*
X169974404Y-105862380D02*
X169641071Y-105386190D01*
X169402976Y-105862380D02*
X169402976Y-104862380D01*
X169783928Y-104862380D01*
X169879166Y-104910000D01*
X169926785Y-104957619D01*
X169974404Y-105052857D01*
X169974404Y-105195714D01*
X169926785Y-105290952D01*
X169879166Y-105338571D01*
X169783928Y-105386190D01*
X169402976Y-105386190D01*
X170307738Y-104862380D02*
X170974404Y-105862380D01*
X170974404Y-104862380D02*
X170307738Y-105862380D01*
X171355357Y-105862380D02*
X171355357Y-104862380D01*
X172450595Y-104862380D02*
X172783928Y-105862380D01*
X173117261Y-104862380D01*
X174022023Y-105767142D02*
X173974404Y-105814761D01*
X173831547Y-105862380D01*
X173736309Y-105862380D01*
X173593452Y-105814761D01*
X173498214Y-105719523D01*
X173450595Y-105624285D01*
X173402976Y-105433809D01*
X173402976Y-105290952D01*
X173450595Y-105100476D01*
X173498214Y-105005238D01*
X173593452Y-104910000D01*
X173736309Y-104862380D01*
X173831547Y-104862380D01*
X173974404Y-104910000D01*
X174022023Y-104957619D01*
X175022023Y-105767142D02*
X174974404Y-105814761D01*
X174831547Y-105862380D01*
X174736309Y-105862380D01*
X174593452Y-105814761D01*
X174498214Y-105719523D01*
X174450595Y-105624285D01*
X174402976Y-105433809D01*
X174402976Y-105290952D01*
X174450595Y-105100476D01*
X174498214Y-105005238D01*
X174593452Y-104910000D01*
X174736309Y-104862380D01*
X174831547Y-104862380D01*
X174974404Y-104910000D01*
X175022023Y-104957619D01*
X176736309Y-104910000D02*
X176641071Y-104862380D01*
X176498214Y-104862380D01*
X176355357Y-104910000D01*
X176260119Y-105005238D01*
X176212500Y-105100476D01*
X176164880Y-105290952D01*
X176164880Y-105433809D01*
X176212500Y-105624285D01*
X176260119Y-105719523D01*
X176355357Y-105814761D01*
X176498214Y-105862380D01*
X176593452Y-105862380D01*
X176736309Y-105814761D01*
X176783928Y-105767142D01*
X176783928Y-105433809D01*
X176593452Y-105433809D01*
X177212500Y-105862380D02*
X177212500Y-104862380D01*
X177783928Y-105862380D01*
X177783928Y-104862380D01*
X178260119Y-105862380D02*
X178260119Y-104862380D01*
X178498214Y-104862380D01*
X178641071Y-104910000D01*
X178736309Y-105005238D01*
X178783928Y-105100476D01*
X178831547Y-105290952D01*
X178831547Y-105433809D01*
X178783928Y-105624285D01*
X178736309Y-105719523D01*
X178641071Y-105814761D01*
X178498214Y-105862380D01*
X178260119Y-105862380D01*
X180545833Y-104910000D02*
X180450595Y-104862380D01*
X180307738Y-104862380D01*
X180164880Y-104910000D01*
X180069642Y-105005238D01*
X180022023Y-105100476D01*
X179974404Y-105290952D01*
X179974404Y-105433809D01*
X180022023Y-105624285D01*
X180069642Y-105719523D01*
X180164880Y-105814761D01*
X180307738Y-105862380D01*
X180402976Y-105862380D01*
X180545833Y-105814761D01*
X180593452Y-105767142D01*
X180593452Y-105433809D01*
X180402976Y-105433809D01*
X181022023Y-105862380D02*
X181022023Y-104862380D01*
X181593452Y-105862380D01*
X181593452Y-104862380D01*
X182069642Y-105862380D02*
X182069642Y-104862380D01*
X182307738Y-104862380D01*
X182450595Y-104910000D01*
X182545833Y-105005238D01*
X182593452Y-105100476D01*
X182641071Y-105290952D01*
X182641071Y-105433809D01*
X182593452Y-105624285D01*
X182545833Y-105719523D01*
X182450595Y-105814761D01*
X182307738Y-105862380D01*
X182069642Y-105862380D01*
X184117261Y-106243333D02*
X184069642Y-106195714D01*
X183974404Y-106052857D01*
X183926785Y-105957619D01*
X183879166Y-105814761D01*
X183831547Y-105576666D01*
X183831547Y-105386190D01*
X183879166Y-105148095D01*
X183926785Y-105005238D01*
X183974404Y-104910000D01*
X184069642Y-104767142D01*
X184117261Y-104719523D01*
X184450595Y-105576666D02*
X184926785Y-105576666D01*
X184355357Y-105862380D02*
X184688690Y-104862380D01*
X185022023Y-105862380D01*
X185260119Y-106243333D02*
X185307738Y-106195714D01*
X185402976Y-106052857D01*
X185450595Y-105957619D01*
X185498214Y-105814761D01*
X185545833Y-105576666D01*
X185545833Y-105386190D01*
X185498214Y-105148095D01*
X185450595Y-105005238D01*
X185402976Y-104910000D01*
X185307738Y-104767142D01*
X185260119Y-104719523D01*
X158402976Y-106607619D02*
X158450595Y-106560000D01*
X158545833Y-106512380D01*
X158783928Y-106512380D01*
X158879166Y-106560000D01*
X158926785Y-106607619D01*
X158974404Y-106702857D01*
X158974404Y-106798095D01*
X158926785Y-106940952D01*
X158355357Y-107512380D01*
X158974404Y-107512380D01*
X159402976Y-107131428D02*
X160164880Y-107131428D01*
X160545833Y-106512380D02*
X161164880Y-106512380D01*
X160831547Y-106893333D01*
X160974404Y-106893333D01*
X161069642Y-106940952D01*
X161117261Y-106988571D01*
X161164880Y-107083809D01*
X161164880Y-107321904D01*
X161117261Y-107417142D01*
X161069642Y-107464761D01*
X160974404Y-107512380D01*
X160688690Y-107512380D01*
X160593452Y-107464761D01*
X160545833Y-107417142D01*
X162879166Y-106560000D02*
X162783928Y-106512380D01*
X162641071Y-106512380D01*
X162498214Y-106560000D01*
X162402976Y-106655238D01*
X162355357Y-106750476D01*
X162307738Y-106940952D01*
X162307738Y-107083809D01*
X162355357Y-107274285D01*
X162402976Y-107369523D01*
X162498214Y-107464761D01*
X162641071Y-107512380D01*
X162736309Y-107512380D01*
X162879166Y-107464761D01*
X162926785Y-107417142D01*
X162926785Y-107083809D01*
X162736309Y-107083809D01*
X163355357Y-107512380D02*
X163355357Y-106512380D01*
X163926785Y-107512380D01*
X163926785Y-106512380D01*
X164402976Y-107512380D02*
X164402976Y-106512380D01*
X164641071Y-106512380D01*
X164783928Y-106560000D01*
X164879166Y-106655238D01*
X164926785Y-106750476D01*
X164974404Y-106940952D01*
X164974404Y-107083809D01*
X164926785Y-107274285D01*
X164879166Y-107369523D01*
X164783928Y-107464761D01*
X164641071Y-107512380D01*
X164402976Y-107512380D01*
X166688690Y-106560000D02*
X166593452Y-106512380D01*
X166450595Y-106512380D01*
X166307738Y-106560000D01*
X166212500Y-106655238D01*
X166164880Y-106750476D01*
X166117261Y-106940952D01*
X166117261Y-107083809D01*
X166164880Y-107274285D01*
X166212500Y-107369523D01*
X166307738Y-107464761D01*
X166450595Y-107512380D01*
X166545833Y-107512380D01*
X166688690Y-107464761D01*
X166736309Y-107417142D01*
X166736309Y-107083809D01*
X166545833Y-107083809D01*
X167164880Y-107512380D02*
X167164880Y-106512380D01*
X167736309Y-107512380D01*
X167736309Y-106512380D01*
X168212500Y-107512380D02*
X168212500Y-106512380D01*
X168450595Y-106512380D01*
X168593452Y-106560000D01*
X168688690Y-106655238D01*
X168736309Y-106750476D01*
X168783928Y-106940952D01*
X168783928Y-107083809D01*
X168736309Y-107274285D01*
X168688690Y-107369523D01*
X168593452Y-107464761D01*
X168450595Y-107512380D01*
X168212500Y-107512380D01*
X169831547Y-106512380D02*
X170164880Y-107512380D01*
X170498214Y-106512380D01*
X171402976Y-107417142D02*
X171355357Y-107464761D01*
X171212500Y-107512380D01*
X171117261Y-107512380D01*
X170974404Y-107464761D01*
X170879166Y-107369523D01*
X170831547Y-107274285D01*
X170783928Y-107083809D01*
X170783928Y-106940952D01*
X170831547Y-106750476D01*
X170879166Y-106655238D01*
X170974404Y-106560000D01*
X171117261Y-106512380D01*
X171212500Y-106512380D01*
X171355357Y-106560000D01*
X171402976Y-106607619D01*
X172402976Y-107417142D02*
X172355357Y-107464761D01*
X172212500Y-107512380D01*
X172117261Y-107512380D01*
X171974404Y-107464761D01*
X171879166Y-107369523D01*
X171831547Y-107274285D01*
X171783928Y-107083809D01*
X171783928Y-106940952D01*
X171831547Y-106750476D01*
X171879166Y-106655238D01*
X171974404Y-106560000D01*
X172117261Y-106512380D01*
X172212500Y-106512380D01*
X172355357Y-106560000D01*
X172402976Y-106607619D01*
X174164880Y-107512380D02*
X173831547Y-107036190D01*
X173593452Y-107512380D02*
X173593452Y-106512380D01*
X173974404Y-106512380D01*
X174069642Y-106560000D01*
X174117261Y-106607619D01*
X174164880Y-106702857D01*
X174164880Y-106845714D01*
X174117261Y-106940952D01*
X174069642Y-106988571D01*
X173974404Y-107036190D01*
X173593452Y-107036190D01*
X174498214Y-106512380D02*
X175164880Y-107512380D01*
X175164880Y-106512380D02*
X174498214Y-107512380D01*
X175545833Y-107512380D02*
X175545833Y-106512380D01*
X176641071Y-106512380D02*
X177212500Y-106512380D01*
X176926785Y-107512380D02*
X176926785Y-106512380D01*
X177450595Y-106512380D02*
X178117261Y-107512380D01*
X178117261Y-106512380D02*
X177450595Y-107512380D01*
X178688690Y-106512380D02*
X178879166Y-106512380D01*
X178974404Y-106560000D01*
X179069642Y-106655238D01*
X179117261Y-106845714D01*
X179117261Y-107179047D01*
X179069642Y-107369523D01*
X178974404Y-107464761D01*
X178879166Y-107512380D01*
X178688690Y-107512380D01*
X178593452Y-107464761D01*
X178498214Y-107369523D01*
X178450595Y-107179047D01*
X178450595Y-106845714D01*
X178498214Y-106655238D01*
X178593452Y-106560000D01*
X178688690Y-106512380D01*
X180307738Y-107512380D02*
X180307738Y-106512380D01*
X180545833Y-106512380D01*
X180688690Y-106560000D01*
X180783928Y-106655238D01*
X180831547Y-106750476D01*
X180879166Y-106940952D01*
X180879166Y-107083809D01*
X180831547Y-107274285D01*
X180783928Y-107369523D01*
X180688690Y-107464761D01*
X180545833Y-107512380D01*
X180307738Y-107512380D01*
X181164880Y-106512380D02*
X181736309Y-106512380D01*
X181450595Y-107512380D02*
X181450595Y-106512380D01*
X182641071Y-107512380D02*
X182307738Y-107036190D01*
X182069642Y-107512380D02*
X182069642Y-106512380D01*
X182450595Y-106512380D01*
X182545833Y-106560000D01*
X182593452Y-106607619D01*
X182641071Y-106702857D01*
X182641071Y-106845714D01*
X182593452Y-106940952D01*
X182545833Y-106988571D01*
X182450595Y-107036190D01*
X182069642Y-107036190D01*
X184117261Y-107893333D02*
X184069642Y-107845714D01*
X183974404Y-107702857D01*
X183926785Y-107607619D01*
X183879166Y-107464761D01*
X183831547Y-107226666D01*
X183831547Y-107036190D01*
X183879166Y-106798095D01*
X183926785Y-106655238D01*
X183974404Y-106560000D01*
X184069642Y-106417142D01*
X184117261Y-106369523D01*
X184831547Y-106988571D02*
X184974404Y-107036190D01*
X185022023Y-107083809D01*
X185069642Y-107179047D01*
X185069642Y-107321904D01*
X185022023Y-107417142D01*
X184974404Y-107464761D01*
X184879166Y-107512380D01*
X184498214Y-107512380D01*
X184498214Y-106512380D01*
X184831547Y-106512380D01*
X184926785Y-106560000D01*
X184974404Y-106607619D01*
X185022023Y-106702857D01*
X185022023Y-106798095D01*
X184974404Y-106893333D01*
X184926785Y-106940952D01*
X184831547Y-106988571D01*
X184498214Y-106988571D01*
X185402976Y-107893333D02*
X185450595Y-107845714D01*
X185545833Y-107702857D01*
X185593452Y-107607619D01*
X185641071Y-107464761D01*
X185688690Y-107226666D01*
X185688690Y-107036190D01*
X185641071Y-106798095D01*
X185593452Y-106655238D01*
X185545833Y-106560000D01*
X185450595Y-106417142D01*
X185402976Y-106369523D01*
X120350595Y-104212380D02*
X120350595Y-103212380D01*
X120731547Y-103212380D01*
X120826785Y-103260000D01*
X120874404Y-103307619D01*
X120922023Y-103402857D01*
X120922023Y-103545714D01*
X120874404Y-103640952D01*
X120826785Y-103688571D01*
X120731547Y-103736190D01*
X120350595Y-103736190D01*
X121255357Y-103212380D02*
X121493452Y-104212380D01*
X121683928Y-103498095D01*
X121874404Y-104212380D01*
X122112500Y-103212380D01*
X123064880Y-104212380D02*
X122731547Y-103736190D01*
X122493452Y-104212380D02*
X122493452Y-103212380D01*
X122874404Y-103212380D01*
X122969642Y-103260000D01*
X123017261Y-103307619D01*
X123064880Y-103402857D01*
X123064880Y-103545714D01*
X123017261Y-103640952D01*
X122969642Y-103688571D01*
X122874404Y-103736190D01*
X122493452Y-103736190D01*
X123255357Y-104307619D02*
X124017261Y-104307619D01*
X124207738Y-104164761D02*
X124350595Y-104212380D01*
X124588690Y-104212380D01*
X124683928Y-104164761D01*
X124731547Y-104117142D01*
X124779166Y-104021904D01*
X124779166Y-103926666D01*
X124731547Y-103831428D01*
X124683928Y-103783809D01*
X124588690Y-103736190D01*
X124398214Y-103688571D01*
X124302976Y-103640952D01*
X124255357Y-103593333D01*
X124207738Y-103498095D01*
X124207738Y-103402857D01*
X124255357Y-103307619D01*
X124302976Y-103260000D01*
X124398214Y-103212380D01*
X124636309Y-103212380D01*
X124779166Y-103260000D01*
X125207738Y-103688571D02*
X125541071Y-103688571D01*
X125683928Y-104212380D02*
X125207738Y-104212380D01*
X125207738Y-103212380D01*
X125683928Y-103212380D01*
X126588690Y-104212380D02*
X126112500Y-104212380D01*
X126112500Y-103212380D01*
X126922023Y-104117142D02*
X126969642Y-104164761D01*
X126922023Y-104212380D01*
X126874404Y-104164761D01*
X126922023Y-104117142D01*
X126922023Y-104212380D01*
X126922023Y-103593333D02*
X126969642Y-103640952D01*
X126922023Y-103688571D01*
X126874404Y-103640952D01*
X126922023Y-103593333D01*
X126922023Y-103688571D01*
X120874404Y-105862380D02*
X120302976Y-105862380D01*
X120588690Y-105862380D02*
X120588690Y-104862380D01*
X120493452Y-105005238D01*
X120398214Y-105100476D01*
X120302976Y-105148095D01*
X121302976Y-105481428D02*
X122064880Y-105481428D01*
X122493452Y-104957619D02*
X122541071Y-104910000D01*
X122636309Y-104862380D01*
X122874404Y-104862380D01*
X122969642Y-104910000D01*
X123017261Y-104957619D01*
X123064880Y-105052857D01*
X123064880Y-105148095D01*
X123017261Y-105290952D01*
X122445833Y-105862380D01*
X123064880Y-105862380D01*
X124255357Y-104862380D02*
X124255357Y-105671904D01*
X124302976Y-105767142D01*
X124350595Y-105814761D01*
X124445833Y-105862380D01*
X124636309Y-105862380D01*
X124731547Y-105814761D01*
X124779166Y-105767142D01*
X124826785Y-105671904D01*
X124826785Y-104862380D01*
X125255357Y-105814761D02*
X125398214Y-105862380D01*
X125636309Y-105862380D01*
X125731547Y-105814761D01*
X125779166Y-105767142D01*
X125826785Y-105671904D01*
X125826785Y-105576666D01*
X125779166Y-105481428D01*
X125731547Y-105433809D01*
X125636309Y-105386190D01*
X125445833Y-105338571D01*
X125350595Y-105290952D01*
X125302976Y-105243333D01*
X125255357Y-105148095D01*
X125255357Y-105052857D01*
X125302976Y-104957619D01*
X125350595Y-104910000D01*
X125445833Y-104862380D01*
X125683928Y-104862380D01*
X125826785Y-104910000D01*
X126588690Y-105338571D02*
X126731547Y-105386190D01*
X126779166Y-105433809D01*
X126826785Y-105529047D01*
X126826785Y-105671904D01*
X126779166Y-105767142D01*
X126731547Y-105814761D01*
X126636309Y-105862380D01*
X126255357Y-105862380D01*
X126255357Y-104862380D01*
X126588690Y-104862380D01*
X126683928Y-104910000D01*
X126731547Y-104957619D01*
X126779166Y-105052857D01*
X126779166Y-105148095D01*
X126731547Y-105243333D01*
X126683928Y-105290952D01*
X126588690Y-105338571D01*
X126255357Y-105338571D01*
X120302976Y-106607619D02*
X120350595Y-106560000D01*
X120445833Y-106512380D01*
X120683928Y-106512380D01*
X120779166Y-106560000D01*
X120826785Y-106607619D01*
X120874404Y-106702857D01*
X120874404Y-106798095D01*
X120826785Y-106940952D01*
X120255357Y-107512380D01*
X120874404Y-107512380D01*
X121302976Y-107131428D02*
X122064880Y-107131428D01*
X122445833Y-106512380D02*
X123064880Y-106512380D01*
X122731547Y-106893333D01*
X122874404Y-106893333D01*
X122969642Y-106940952D01*
X123017261Y-106988571D01*
X123064880Y-107083809D01*
X123064880Y-107321904D01*
X123017261Y-107417142D01*
X122969642Y-107464761D01*
X122874404Y-107512380D01*
X122588690Y-107512380D01*
X122493452Y-107464761D01*
X122445833Y-107417142D01*
X124731547Y-106512380D02*
X124255357Y-106512380D01*
X124207738Y-106988571D01*
X124255357Y-106940952D01*
X124350595Y-106893333D01*
X124588690Y-106893333D01*
X124683928Y-106940952D01*
X124731547Y-106988571D01*
X124779166Y-107083809D01*
X124779166Y-107321904D01*
X124731547Y-107417142D01*
X124683928Y-107464761D01*
X124588690Y-107512380D01*
X124350595Y-107512380D01*
X124255357Y-107464761D01*
X124207738Y-107417142D01*
X125112500Y-106845714D02*
X125350595Y-107512380D01*
X125588690Y-106845714D01*
X126731547Y-107512380D02*
X126731547Y-106512380D01*
X126731547Y-106893333D02*
X126826785Y-106845714D01*
X127017261Y-106845714D01*
X127112500Y-106893333D01*
X127160119Y-106940952D01*
X127207738Y-107036190D01*
X127207738Y-107321904D01*
X127160119Y-107417142D01*
X127112500Y-107464761D01*
X127017261Y-107512380D01*
X126826785Y-107512380D01*
X126731547Y-107464761D01*
X128064880Y-107512380D02*
X128064880Y-106988571D01*
X128017261Y-106893333D01*
X127922023Y-106845714D01*
X127731547Y-106845714D01*
X127636309Y-106893333D01*
X128064880Y-107464761D02*
X127969642Y-107512380D01*
X127731547Y-107512380D01*
X127636309Y-107464761D01*
X127588690Y-107369523D01*
X127588690Y-107274285D01*
X127636309Y-107179047D01*
X127731547Y-107131428D01*
X127969642Y-107131428D01*
X128064880Y-107083809D01*
X128541071Y-107512380D02*
X128541071Y-106845714D01*
X128541071Y-107036190D02*
X128588690Y-106940952D01*
X128636309Y-106893333D01*
X128731547Y-106845714D01*
X128826785Y-106845714D01*
X129160119Y-107512380D02*
X129160119Y-106845714D01*
X129160119Y-107036190D02*
X129207738Y-106940952D01*
X129255357Y-106893333D01*
X129350595Y-106845714D01*
X129445833Y-106845714D01*
X130160119Y-107464761D02*
X130064880Y-107512380D01*
X129874404Y-107512380D01*
X129779166Y-107464761D01*
X129731547Y-107369523D01*
X129731547Y-106988571D01*
X129779166Y-106893333D01*
X129874404Y-106845714D01*
X130064880Y-106845714D01*
X130160119Y-106893333D01*
X130207738Y-106988571D01*
X130207738Y-107083809D01*
X129731547Y-107179047D01*
X130779166Y-107512380D02*
X130683928Y-107464761D01*
X130636309Y-107369523D01*
X130636309Y-106512380D01*
X131922023Y-106845714D02*
X131922023Y-107702857D01*
X131874404Y-107798095D01*
X131779166Y-107845714D01*
X131731547Y-107845714D01*
X131922023Y-106512380D02*
X131874404Y-106560000D01*
X131922023Y-106607619D01*
X131969642Y-106560000D01*
X131922023Y-106512380D01*
X131922023Y-106607619D01*
X132826785Y-107512380D02*
X132826785Y-106988571D01*
X132779166Y-106893333D01*
X132683928Y-106845714D01*
X132493452Y-106845714D01*
X132398214Y-106893333D01*
X132826785Y-107464761D02*
X132731547Y-107512380D01*
X132493452Y-107512380D01*
X132398214Y-107464761D01*
X132350595Y-107369523D01*
X132350595Y-107274285D01*
X132398214Y-107179047D01*
X132493452Y-107131428D01*
X132731547Y-107131428D01*
X132826785Y-107083809D01*
X133731547Y-107464761D02*
X133636309Y-107512380D01*
X133445833Y-107512380D01*
X133350595Y-107464761D01*
X133302976Y-107417142D01*
X133255357Y-107321904D01*
X133255357Y-107036190D01*
X133302976Y-106940952D01*
X133350595Y-106893333D01*
X133445833Y-106845714D01*
X133636309Y-106845714D01*
X133731547Y-106893333D01*
X134160119Y-107512380D02*
X134160119Y-106512380D01*
X134255357Y-107131428D02*
X134541071Y-107512380D01*
X134541071Y-106845714D02*
X134160119Y-107226666D01*
X185048095Y-65667000D02*
X184952857Y-65619380D01*
X184810000Y-65619380D01*
X184667142Y-65667000D01*
X184571904Y-65762238D01*
X184524285Y-65857476D01*
X184476666Y-66047952D01*
X184476666Y-66190809D01*
X184524285Y-66381285D01*
X184571904Y-66476523D01*
X184667142Y-66571761D01*
X184810000Y-66619380D01*
X184905238Y-66619380D01*
X185048095Y-66571761D01*
X185095714Y-66524142D01*
X185095714Y-66190809D01*
X184905238Y-66190809D01*
X185524285Y-66619380D02*
X185524285Y-65619380D01*
X186095714Y-66619380D01*
X186095714Y-65619380D01*
X186571904Y-66619380D02*
X186571904Y-65619380D01*
X186810000Y-65619380D01*
X186952857Y-65667000D01*
X187048095Y-65762238D01*
X187095714Y-65857476D01*
X187143333Y-66047952D01*
X187143333Y-66190809D01*
X187095714Y-66381285D01*
X187048095Y-66476523D01*
X186952857Y-66571761D01*
X186810000Y-66619380D01*
X186571904Y-66619380D01*
X181238095Y-65667000D02*
X181142857Y-65619380D01*
X181000000Y-65619380D01*
X180857142Y-65667000D01*
X180761904Y-65762238D01*
X180714285Y-65857476D01*
X180666666Y-66047952D01*
X180666666Y-66190809D01*
X180714285Y-66381285D01*
X180761904Y-66476523D01*
X180857142Y-66571761D01*
X181000000Y-66619380D01*
X181095238Y-66619380D01*
X181238095Y-66571761D01*
X181285714Y-66524142D01*
X181285714Y-66190809D01*
X181095238Y-66190809D01*
X181714285Y-66619380D02*
X181714285Y-65619380D01*
X182285714Y-66619380D01*
X182285714Y-65619380D01*
X182761904Y-66619380D02*
X182761904Y-65619380D01*
X183000000Y-65619380D01*
X183142857Y-65667000D01*
X183238095Y-65762238D01*
X183285714Y-65857476D01*
X183333333Y-66047952D01*
X183333333Y-66190809D01*
X183285714Y-66381285D01*
X183238095Y-66476523D01*
X183142857Y-66571761D01*
X183000000Y-66619380D01*
X182761904Y-66619380D01*
X185190952Y-56713380D02*
X184619523Y-56713380D01*
X184905238Y-56713380D02*
X184905238Y-55713380D01*
X184810000Y-55856238D01*
X184714761Y-55951476D01*
X184619523Y-55999095D01*
X185571904Y-55808619D02*
X185619523Y-55761000D01*
X185714761Y-55713380D01*
X185952857Y-55713380D01*
X186048095Y-55761000D01*
X186095714Y-55808619D01*
X186143333Y-55903857D01*
X186143333Y-55999095D01*
X186095714Y-56141952D01*
X185524285Y-56713380D01*
X186143333Y-56713380D01*
X186429047Y-55713380D02*
X186762380Y-56713380D01*
X187095714Y-55713380D01*
X181809523Y-55713380D02*
X181333333Y-55713380D01*
X181285714Y-56189571D01*
X181333333Y-56141952D01*
X181428571Y-56094333D01*
X181666666Y-56094333D01*
X181761904Y-56141952D01*
X181809523Y-56189571D01*
X181857142Y-56284809D01*
X181857142Y-56522904D01*
X181809523Y-56618142D01*
X181761904Y-56665761D01*
X181666666Y-56713380D01*
X181428571Y-56713380D01*
X181333333Y-56665761D01*
X181285714Y-56618142D01*
X182142857Y-55713380D02*
X182476190Y-56713380D01*
X182809523Y-55713380D01*
D11*
X117000000Y-101050000D02*
X117000000Y-108500000D01*
D12*
X196000000Y-60000000D02*
X191000000Y-60000000D01*
X191000000Y-65000000D02*
X191000000Y-60000000D01*
X196000000Y-60000000D02*
X196000000Y-65000000D01*
X196000000Y-65000000D02*
X191000000Y-65000000D01*
D13*
G36*
X194500000Y-137500000D02*
G01*
X196000000Y-137500000D01*
X193500000Y-143000000D01*
X191000000Y-137500000D01*
X192500000Y-137500000D01*
X192500000Y-135000000D01*
X194500000Y-135000000D01*
X194500000Y-137500000D01*
G37*
X194500000Y-137500000D02*
X196000000Y-137500000D01*
X193500000Y-143000000D01*
X191000000Y-137500000D01*
X192500000Y-137500000D01*
X192500000Y-135000000D01*
X194500000Y-135000000D01*
X194500000Y-137500000D01*
G36*
X175900000Y-117600000D02*
G01*
X176200000Y-117800000D01*
X176400000Y-118100000D01*
X176500000Y-118500000D01*
X176500000Y-149000000D01*
X171500000Y-149000000D01*
X171500000Y-148500000D01*
X168500000Y-148500000D01*
X168500000Y-149000000D01*
X149500000Y-149000000D01*
X149500000Y-117500000D01*
X175500000Y-117500000D01*
X175900000Y-117600000D01*
G37*
X175900000Y-117600000D02*
X176200000Y-117800000D01*
X176400000Y-118100000D01*
X176500000Y-118500000D01*
X176500000Y-149000000D01*
X171500000Y-149000000D01*
X171500000Y-148500000D01*
X168500000Y-148500000D01*
X168500000Y-149000000D01*
X149500000Y-149000000D01*
X149500000Y-117500000D01*
X175500000Y-117500000D01*
X175900000Y-117600000D01*
G36*
X149500000Y-149000000D02*
G01*
X137000000Y-149000000D01*
X137000000Y-144500000D01*
X148000000Y-144500000D01*
X148300000Y-144400000D01*
X148500000Y-144200000D01*
X148500000Y-120000000D01*
X148400000Y-119700000D01*
X148200000Y-119500000D01*
X137000000Y-119500000D01*
X137000000Y-117500000D01*
X149500000Y-117500000D01*
X149500000Y-149000000D01*
G37*
X149500000Y-149000000D02*
X137000000Y-149000000D01*
X137000000Y-144500000D01*
X148000000Y-144500000D01*
X148300000Y-144400000D01*
X148500000Y-144200000D01*
X148500000Y-120000000D01*
X148400000Y-119700000D01*
X148200000Y-119500000D01*
X137000000Y-119500000D01*
X137000000Y-117500000D01*
X149500000Y-117500000D01*
X149500000Y-149000000D01*
G36*
X136600000Y-144300000D02*
G01*
X136800000Y-144500000D01*
X137000000Y-144500000D01*
X137000000Y-149000000D01*
X136500000Y-149000000D01*
X136500000Y-144000000D01*
X136600000Y-144300000D01*
G37*
X136600000Y-144300000D02*
X136800000Y-144500000D01*
X137000000Y-144500000D01*
X137000000Y-149000000D01*
X136500000Y-149000000D01*
X136500000Y-144000000D01*
X136600000Y-144300000D01*
G36*
X137000000Y-119500000D02*
G01*
X136800000Y-119500000D01*
X136600000Y-119700000D01*
X136500000Y-120000000D01*
X136500000Y-117500000D01*
X137000000Y-117500000D01*
X137000000Y-119500000D01*
G37*
X137000000Y-119500000D02*
X136800000Y-119500000D01*
X136600000Y-119700000D01*
X136500000Y-120000000D01*
X136500000Y-117500000D01*
X137000000Y-117500000D01*
X137000000Y-119500000D01*
G36*
X136500000Y-149000000D02*
G01*
X129500000Y-149000000D01*
X129500000Y-118500000D01*
X129600000Y-118000000D01*
X130000000Y-117600000D01*
X130500000Y-117500000D01*
X136500000Y-117500000D01*
X136500000Y-149000000D01*
G37*
X136500000Y-149000000D02*
X129500000Y-149000000D01*
X129500000Y-118500000D01*
X129600000Y-118000000D01*
X130000000Y-117600000D01*
X130500000Y-117500000D01*
X136500000Y-117500000D01*
X136500000Y-149000000D01*
D12*
X194500000Y-135000000D02*
X194500000Y-137500000D01*
X192500000Y-135000000D02*
X194500000Y-135000000D01*
X192500000Y-137500000D02*
X192500000Y-135000000D01*
X191000000Y-137500000D02*
X192500000Y-137500000D01*
X193500000Y-143000000D02*
X191000000Y-137500000D01*
X196000000Y-137500000D02*
X194500000Y-137500000D01*
X193500000Y-143000000D02*
X196000000Y-137500000D01*
X185000000Y-148000000D02*
X184500000Y-148500000D01*
X189000000Y-148000000D02*
X185000000Y-148000000D01*
D14*
X140500000Y-144500000D02*
X144500000Y-144500000D01*
X148000000Y-144500000D02*
X144500000Y-144500000D01*
X137000000Y-144500000D02*
G75*
G02*
X136500000Y-144000000I0J500000D01*
G01*
X148500000Y-144000000D02*
G75*
G02*
X148000000Y-144500000I-500000J0D01*
G01*
X148000000Y-119500000D02*
G75*
G02*
X148500000Y-120000000I0J-500000D01*
G01*
X136500000Y-120000000D02*
G75*
G02*
X137000000Y-119500000I500000J0D01*
G01*
X137000000Y-119500000D02*
X148000000Y-119500000D01*
X137000000Y-144500000D02*
X140500000Y-144500000D01*
X148500000Y-120000000D02*
X148500000Y-144000000D01*
X136500000Y-120000000D02*
X136500000Y-144000000D01*
D13*
X171500000Y-148500000D02*
X168500000Y-148500000D01*
X168500000Y-148500000D02*
X168500000Y-149000000D01*
X171500000Y-148500000D02*
X171500000Y-149000000D01*
D14*
X176500000Y-118500000D02*
X176500000Y-149000000D01*
X130500000Y-117500000D02*
X175500000Y-117500000D01*
X175500000Y-117500000D02*
G75*
G02*
X176500000Y-118500000I0J-1000000D01*
G01*
X129500000Y-118500000D02*
X129500000Y-149000000D01*
X129500000Y-118500000D02*
G75*
G02*
X130500000Y-117500000I1000000J0D01*
G01*
X130500000Y-117000000D02*
X187500000Y-117000000D01*
X129000000Y-118500000D02*
G75*
G02*
X130500000Y-117000000I1500000J0D01*
G01*
X129000000Y-118500000D02*
X129000000Y-149000000D01*
X187500000Y-117000000D02*
G75*
G02*
X189000000Y-118500000I0J-1500000D01*
G01*
X189000000Y-118500000D02*
X189000000Y-149000000D01*
D11*
X189000000Y-108500000D02*
G75*
G02*
X187500000Y-110000000I-1500000J0D01*
G01*
X118500000Y-110000000D02*
G75*
G02*
X117000000Y-108500000I0J1500000D01*
G01*
X187500000Y-110000000D02*
X118500000Y-110000000D01*
X189000000Y-55000000D02*
X189000000Y-108500000D01*
X117000000Y-55000000D02*
X117000000Y-83100000D01*
D15*
G36*
X150463360Y-77952468D02*
G01*
X150498592Y-77969874D01*
X150542040Y-78000206D01*
X150573706Y-78033283D01*
X150595394Y-78074817D01*
X150608903Y-78130522D01*
X150616038Y-78206111D01*
X150618600Y-78307296D01*
X150618750Y-78350797D01*
X150618312Y-78446135D01*
X150616496Y-78514271D01*
X150612545Y-78561418D01*
X150605702Y-78593790D01*
X150595211Y-78617600D01*
X150584296Y-78633843D01*
X150514619Y-78702952D01*
X150432566Y-78744521D01*
X150344050Y-78757023D01*
X150254981Y-78738934D01*
X150226763Y-78726142D01*
X150159210Y-78690931D01*
X150159210Y-79242700D01*
X150208512Y-79217205D01*
X150273473Y-79197480D01*
X150353320Y-79192427D01*
X150433052Y-79201756D01*
X150493265Y-79222714D01*
X150543208Y-79262627D01*
X150585881Y-79319741D01*
X150589090Y-79325605D01*
X150602622Y-79353227D01*
X150612505Y-79381068D01*
X150619309Y-79414794D01*
X150623601Y-79460071D01*
X150625951Y-79522562D01*
X150626928Y-79607935D01*
X150627105Y-79704010D01*
X150627105Y-80010526D01*
X150443289Y-80010526D01*
X150443289Y-79445339D01*
X150391875Y-79402077D01*
X150338466Y-79367472D01*
X150287888Y-79361180D01*
X150237030Y-79377372D01*
X150209925Y-79393227D01*
X150189751Y-79415810D01*
X150175403Y-79449940D01*
X150165776Y-79500434D01*
X150159763Y-79572111D01*
X150156260Y-79669788D01*
X150155026Y-79734802D01*
X150150855Y-80002171D01*
X150063125Y-80007222D01*
X149975394Y-80012273D01*
X149975394Y-78353101D01*
X150159210Y-78353101D01*
X150163896Y-78445600D01*
X150179688Y-78509809D01*
X150209183Y-78549759D01*
X150254980Y-78569480D01*
X150301250Y-78573421D01*
X150353628Y-78568892D01*
X150388390Y-78551069D01*
X150410128Y-78527519D01*
X150427240Y-78502189D01*
X150437427Y-78473969D01*
X150441960Y-78434431D01*
X150442109Y-78375142D01*
X150440584Y-78325498D01*
X150437081Y-78250710D01*
X150431867Y-78201611D01*
X150423087Y-78170467D01*
X150408886Y-78149545D01*
X150395484Y-78137452D01*
X150339487Y-78111081D01*
X150273211Y-78106822D01*
X150235156Y-78115906D01*
X150197477Y-78148196D01*
X150172519Y-78211006D01*
X150160422Y-78303894D01*
X150159210Y-78353101D01*
X149975394Y-78353101D01*
X149975394Y-77938421D01*
X150067302Y-77938421D01*
X150122483Y-77940603D01*
X150150952Y-77948351D01*
X150159206Y-77963468D01*
X150159210Y-77963916D01*
X150163040Y-77978720D01*
X150179933Y-77977039D01*
X150213519Y-77960772D01*
X150291778Y-77935887D01*
X150379827Y-77933271D01*
X150463360Y-77952468D01*
G37*
X150463360Y-77952468D02*
X150498592Y-77969874D01*
X150542040Y-78000206D01*
X150573706Y-78033283D01*
X150595394Y-78074817D01*
X150608903Y-78130522D01*
X150616038Y-78206111D01*
X150618600Y-78307296D01*
X150618750Y-78350797D01*
X150618312Y-78446135D01*
X150616496Y-78514271D01*
X150612545Y-78561418D01*
X150605702Y-78593790D01*
X150595211Y-78617600D01*
X150584296Y-78633843D01*
X150514619Y-78702952D01*
X150432566Y-78744521D01*
X150344050Y-78757023D01*
X150254981Y-78738934D01*
X150226763Y-78726142D01*
X150159210Y-78690931D01*
X150159210Y-79242700D01*
X150208512Y-79217205D01*
X150273473Y-79197480D01*
X150353320Y-79192427D01*
X150433052Y-79201756D01*
X150493265Y-79222714D01*
X150543208Y-79262627D01*
X150585881Y-79319741D01*
X150589090Y-79325605D01*
X150602622Y-79353227D01*
X150612505Y-79381068D01*
X150619309Y-79414794D01*
X150623601Y-79460071D01*
X150625951Y-79522562D01*
X150626928Y-79607935D01*
X150627105Y-79704010D01*
X150627105Y-80010526D01*
X150443289Y-80010526D01*
X150443289Y-79445339D01*
X150391875Y-79402077D01*
X150338466Y-79367472D01*
X150287888Y-79361180D01*
X150237030Y-79377372D01*
X150209925Y-79393227D01*
X150189751Y-79415810D01*
X150175403Y-79449940D01*
X150165776Y-79500434D01*
X150159763Y-79572111D01*
X150156260Y-79669788D01*
X150155026Y-79734802D01*
X150150855Y-80002171D01*
X150063125Y-80007222D01*
X149975394Y-80012273D01*
X149975394Y-78353101D01*
X150159210Y-78353101D01*
X150163896Y-78445600D01*
X150179688Y-78509809D01*
X150209183Y-78549759D01*
X150254980Y-78569480D01*
X150301250Y-78573421D01*
X150353628Y-78568892D01*
X150388390Y-78551069D01*
X150410128Y-78527519D01*
X150427240Y-78502189D01*
X150437427Y-78473969D01*
X150441960Y-78434431D01*
X150442109Y-78375142D01*
X150440584Y-78325498D01*
X150437081Y-78250710D01*
X150431867Y-78201611D01*
X150423087Y-78170467D01*
X150408886Y-78149545D01*
X150395484Y-78137452D01*
X150339487Y-78111081D01*
X150273211Y-78106822D01*
X150235156Y-78115906D01*
X150197477Y-78148196D01*
X150172519Y-78211006D01*
X150160422Y-78303894D01*
X150159210Y-78353101D01*
X149975394Y-78353101D01*
X149975394Y-77938421D01*
X150067302Y-77938421D01*
X150122483Y-77940603D01*
X150150952Y-77948351D01*
X150159206Y-77963468D01*
X150159210Y-77963916D01*
X150163040Y-77978720D01*
X150179933Y-77977039D01*
X150213519Y-77960772D01*
X150291778Y-77935887D01*
X150379827Y-77933271D01*
X150463360Y-77952468D01*
G36*
X151160457Y-79198184D02*
G01*
X151239070Y-79219160D01*
X151298916Y-79257180D01*
X151341147Y-79306978D01*
X151354275Y-79328230D01*
X151363968Y-79350492D01*
X151370744Y-79378970D01*
X151375123Y-79418871D01*
X151377624Y-79475401D01*
X151378768Y-79553767D01*
X151379072Y-79659176D01*
X151379078Y-79687142D01*
X151379078Y-80010526D01*
X151298868Y-80010526D01*
X151247706Y-80006943D01*
X151209877Y-79997866D01*
X151200399Y-79992268D01*
X151174488Y-79982606D01*
X151148024Y-79992268D01*
X151104452Y-80004330D01*
X151041160Y-80009185D01*
X150971010Y-80007078D01*
X150906860Y-79998256D01*
X150869407Y-79986937D01*
X150796933Y-79940412D01*
X150751640Y-79875846D01*
X150731278Y-79790000D01*
X150731088Y-79787796D01*
X150732875Y-79749713D01*
X150894473Y-79749713D01*
X150908601Y-79793030D01*
X150931612Y-79817408D01*
X150977804Y-79835845D01*
X151038775Y-79843205D01*
X151100949Y-79839583D01*
X151150751Y-79825074D01*
X151164703Y-79815765D01*
X151189085Y-79772753D01*
X151195263Y-79723857D01*
X151195263Y-79659605D01*
X151102818Y-79659605D01*
X151014995Y-79666366D01*
X150948418Y-79685520D01*
X150907002Y-79715376D01*
X150894473Y-79749713D01*
X150732875Y-79749713D01*
X150735490Y-79694004D01*
X150766424Y-79619847D01*
X150824581Y-79563767D01*
X150832620Y-79558665D01*
X150867163Y-79542055D01*
X150909918Y-79531996D01*
X150969686Y-79527107D01*
X151040690Y-79525983D01*
X151195263Y-79525921D01*
X151195263Y-79461125D01*
X151188706Y-79410850D01*
X151171975Y-79377169D01*
X151170016Y-79375376D01*
X151132783Y-79360642D01*
X151076580Y-79354931D01*
X151014467Y-79357737D01*
X150959510Y-79368556D01*
X150926899Y-79384782D01*
X150909228Y-79397780D01*
X150890569Y-79400262D01*
X150864819Y-79389613D01*
X150825873Y-79363218D01*
X150767630Y-79318465D01*
X150762284Y-79314273D01*
X150765023Y-79298760D01*
X150787876Y-79272960D01*
X150822609Y-79244289D01*
X150860990Y-79220166D01*
X150873048Y-79214470D01*
X150917034Y-79203103D01*
X150981487Y-79194995D01*
X151053497Y-79191743D01*
X151056864Y-79191736D01*
X151160457Y-79198184D01*
G37*
X151160457Y-79198184D02*
X151239070Y-79219160D01*
X151298916Y-79257180D01*
X151341147Y-79306978D01*
X151354275Y-79328230D01*
X151363968Y-79350492D01*
X151370744Y-79378970D01*
X151375123Y-79418871D01*
X151377624Y-79475401D01*
X151378768Y-79553767D01*
X151379072Y-79659176D01*
X151379078Y-79687142D01*
X151379078Y-80010526D01*
X151298868Y-80010526D01*
X151247706Y-80006943D01*
X151209877Y-79997866D01*
X151200399Y-79992268D01*
X151174488Y-79982606D01*
X151148024Y-79992268D01*
X151104452Y-80004330D01*
X151041160Y-80009185D01*
X150971010Y-80007078D01*
X150906860Y-79998256D01*
X150869407Y-79986937D01*
X150796933Y-79940412D01*
X150751640Y-79875846D01*
X150731278Y-79790000D01*
X150731088Y-79787796D01*
X150732875Y-79749713D01*
X150894473Y-79749713D01*
X150908601Y-79793030D01*
X150931612Y-79817408D01*
X150977804Y-79835845D01*
X151038775Y-79843205D01*
X151100949Y-79839583D01*
X151150751Y-79825074D01*
X151164703Y-79815765D01*
X151189085Y-79772753D01*
X151195263Y-79723857D01*
X151195263Y-79659605D01*
X151102818Y-79659605D01*
X151014995Y-79666366D01*
X150948418Y-79685520D01*
X150907002Y-79715376D01*
X150894473Y-79749713D01*
X150732875Y-79749713D01*
X150735490Y-79694004D01*
X150766424Y-79619847D01*
X150824581Y-79563767D01*
X150832620Y-79558665D01*
X150867163Y-79542055D01*
X150909918Y-79531996D01*
X150969686Y-79527107D01*
X151040690Y-79525983D01*
X151195263Y-79525921D01*
X151195263Y-79461125D01*
X151188706Y-79410850D01*
X151171975Y-79377169D01*
X151170016Y-79375376D01*
X151132783Y-79360642D01*
X151076580Y-79354931D01*
X151014467Y-79357737D01*
X150959510Y-79368556D01*
X150926899Y-79384782D01*
X150909228Y-79397780D01*
X150890569Y-79400262D01*
X150864819Y-79389613D01*
X150825873Y-79363218D01*
X150767630Y-79318465D01*
X150762284Y-79314273D01*
X150765023Y-79298760D01*
X150787876Y-79272960D01*
X150822609Y-79244289D01*
X150860990Y-79220166D01*
X150873048Y-79214470D01*
X150917034Y-79203103D01*
X150981487Y-79194995D01*
X151053497Y-79191743D01*
X151056864Y-79191736D01*
X151160457Y-79198184D01*
G36*
X151679881Y-79193486D02*
G01*
X151704888Y-79200982D01*
X151712950Y-79217451D01*
X151713289Y-79224886D01*
X151714736Y-79245594D01*
X151724698Y-79248845D01*
X151751612Y-79234648D01*
X151767598Y-79224948D01*
X151818033Y-79204175D01*
X151878272Y-79193904D01*
X151941434Y-79193114D01*
X152000637Y-79200786D01*
X152049002Y-79215898D01*
X152079646Y-79237432D01*
X152085689Y-79264366D01*
X152082639Y-79271660D01*
X152060406Y-79301937D01*
X152025930Y-79339175D01*
X152019694Y-79345195D01*
X151986833Y-79372875D01*
X151958480Y-79381818D01*
X151918827Y-79375576D01*
X151902942Y-79371429D01*
X151853509Y-79361467D01*
X151818752Y-79365947D01*
X151789400Y-79381746D01*
X151762513Y-79402949D01*
X151742710Y-79429614D01*
X151728948Y-79466827D01*
X151720184Y-79519673D01*
X151715374Y-79593237D01*
X151713474Y-79692605D01*
X151713289Y-79752601D01*
X151713289Y-80010526D01*
X151546184Y-80010526D01*
X151546184Y-79191710D01*
X151629736Y-79191710D01*
X151679881Y-79193486D01*
G37*
X151679881Y-79193486D02*
X151704888Y-79200982D01*
X151712950Y-79217451D01*
X151713289Y-79224886D01*
X151714736Y-79245594D01*
X151724698Y-79248845D01*
X151751612Y-79234648D01*
X151767598Y-79224948D01*
X151818033Y-79204175D01*
X151878272Y-79193904D01*
X151941434Y-79193114D01*
X152000637Y-79200786D01*
X152049002Y-79215898D01*
X152079646Y-79237432D01*
X152085689Y-79264366D01*
X152082639Y-79271660D01*
X152060406Y-79301937D01*
X152025930Y-79339175D01*
X152019694Y-79345195D01*
X151986833Y-79372875D01*
X151958480Y-79381818D01*
X151918827Y-79375576D01*
X151902942Y-79371429D01*
X151853509Y-79361467D01*
X151818752Y-79365947D01*
X151789400Y-79381746D01*
X151762513Y-79402949D01*
X151742710Y-79429614D01*
X151728948Y-79466827D01*
X151720184Y-79519673D01*
X151715374Y-79593237D01*
X151713474Y-79692605D01*
X151713289Y-79752601D01*
X151713289Y-80010526D01*
X151546184Y-80010526D01*
X151546184Y-79191710D01*
X151629736Y-79191710D01*
X151679881Y-79193486D01*
G36*
X152732631Y-80010526D02*
G01*
X152640723Y-80010526D01*
X152587377Y-80008962D01*
X152559593Y-80002485D01*
X152549590Y-79988418D01*
X152548815Y-79978906D01*
X152547128Y-79959832D01*
X152536490Y-79956174D01*
X152508535Y-79967932D01*
X152486795Y-79978906D01*
X152403332Y-80004911D01*
X152312604Y-80006416D01*
X152238842Y-79987021D01*
X152170154Y-79940165D01*
X152117794Y-79871004D01*
X152089122Y-79789427D01*
X152088392Y-79784866D01*
X152084132Y-79735101D01*
X152082014Y-79663659D01*
X152082184Y-79609626D01*
X152264720Y-79609626D01*
X152268949Y-79681441D01*
X152278568Y-79740634D01*
X152291590Y-79774060D01*
X152340856Y-79819740D01*
X152399350Y-79836115D01*
X152459671Y-79822873D01*
X152511217Y-79783373D01*
X152530738Y-79756807D01*
X152542152Y-79725106D01*
X152547498Y-79678832D01*
X152548815Y-79609328D01*
X152546458Y-79540499D01*
X152540233Y-79480026D01*
X152531408Y-79439556D01*
X152529937Y-79435929D01*
X152494347Y-79392802D01*
X152442400Y-79369124D01*
X152384278Y-79365301D01*
X152330160Y-79381738D01*
X152290226Y-79418840D01*
X152286083Y-79426222D01*
X152273116Y-79471239D01*
X152266052Y-79535967D01*
X152264720Y-79609626D01*
X152082184Y-79609626D01*
X152082271Y-79582230D01*
X152083472Y-79538405D01*
X152091645Y-79429988D01*
X152108630Y-79348588D01*
X152136887Y-79288412D01*
X152178872Y-79243666D01*
X152219632Y-79217400D01*
X152276581Y-79198935D01*
X152347411Y-79192602D01*
X152419941Y-79197760D01*
X152481986Y-79213769D01*
X152514768Y-79232920D01*
X152548815Y-79263732D01*
X152548815Y-78874210D01*
X152732631Y-78874210D01*
X152732631Y-80010526D01*
G37*
X152732631Y-80010526D02*
X152640723Y-80010526D01*
X152587377Y-80008962D01*
X152559593Y-80002485D01*
X152549590Y-79988418D01*
X152548815Y-79978906D01*
X152547128Y-79959832D01*
X152536490Y-79956174D01*
X152508535Y-79967932D01*
X152486795Y-79978906D01*
X152403332Y-80004911D01*
X152312604Y-80006416D01*
X152238842Y-79987021D01*
X152170154Y-79940165D01*
X152117794Y-79871004D01*
X152089122Y-79789427D01*
X152088392Y-79784866D01*
X152084132Y-79735101D01*
X152082014Y-79663659D01*
X152082184Y-79609626D01*
X152264720Y-79609626D01*
X152268949Y-79681441D01*
X152278568Y-79740634D01*
X152291590Y-79774060D01*
X152340856Y-79819740D01*
X152399350Y-79836115D01*
X152459671Y-79822873D01*
X152511217Y-79783373D01*
X152530738Y-79756807D01*
X152542152Y-79725106D01*
X152547498Y-79678832D01*
X152548815Y-79609328D01*
X152546458Y-79540499D01*
X152540233Y-79480026D01*
X152531408Y-79439556D01*
X152529937Y-79435929D01*
X152494347Y-79392802D01*
X152442400Y-79369124D01*
X152384278Y-79365301D01*
X152330160Y-79381738D01*
X152290226Y-79418840D01*
X152286083Y-79426222D01*
X152273116Y-79471239D01*
X152266052Y-79535967D01*
X152264720Y-79609626D01*
X152082184Y-79609626D01*
X152082271Y-79582230D01*
X152083472Y-79538405D01*
X152091645Y-79429988D01*
X152108630Y-79348588D01*
X152136887Y-79288412D01*
X152178872Y-79243666D01*
X152219632Y-79217400D01*
X152276581Y-79198935D01*
X152347411Y-79192602D01*
X152419941Y-79197760D01*
X152481986Y-79213769D01*
X152514768Y-79232920D01*
X152548815Y-79263732D01*
X152548815Y-78874210D01*
X152732631Y-78874210D01*
X152732631Y-80010526D01*
G36*
X153374130Y-79195104D02*
G01*
X153440220Y-79200066D01*
X153526626Y-79459079D01*
X153613031Y-79718092D01*
X153640124Y-79626184D01*
X153656428Y-79569384D01*
X153677875Y-79492625D01*
X153701035Y-79408251D01*
X153713280Y-79362993D01*
X153759344Y-79191710D01*
X153949387Y-79191710D01*
X153892582Y-79371349D01*
X153864607Y-79459704D01*
X153830813Y-79566281D01*
X153795520Y-79677454D01*
X153764013Y-79776579D01*
X153692250Y-80002171D01*
X153537286Y-80012253D01*
X153495270Y-79873528D01*
X153469359Y-79787351D01*
X153441083Y-79692347D01*
X153416369Y-79608441D01*
X153415394Y-79605102D01*
X153396935Y-79548248D01*
X153380649Y-79509456D01*
X153369242Y-79494787D01*
X153366898Y-79496483D01*
X153358671Y-79519225D01*
X153343038Y-79567940D01*
X153321904Y-79636502D01*
X153297170Y-79718785D01*
X153283787Y-79764046D01*
X153211311Y-80010526D01*
X153057495Y-80010526D01*
X152934531Y-79622006D01*
X152899988Y-79513022D01*
X152868521Y-79414048D01*
X152841616Y-79329736D01*
X152820759Y-79264734D01*
X152807438Y-79223692D01*
X152803388Y-79211701D01*
X152806594Y-79199423D01*
X152831765Y-79194046D01*
X152884146Y-79194584D01*
X152892345Y-79194990D01*
X152989482Y-79200066D01*
X153053100Y-79434013D01*
X153076484Y-79519333D01*
X153097381Y-79594335D01*
X153113951Y-79652507D01*
X153124354Y-79687337D01*
X153126276Y-79693016D01*
X153134241Y-79686486D01*
X153150304Y-79652654D01*
X153172621Y-79596127D01*
X153199345Y-79521510D01*
X153221937Y-79454107D01*
X153308041Y-79190143D01*
X153374130Y-79195104D01*
G37*
X153374130Y-79195104D02*
X153440220Y-79200066D01*
X153526626Y-79459079D01*
X153613031Y-79718092D01*
X153640124Y-79626184D01*
X153656428Y-79569384D01*
X153677875Y-79492625D01*
X153701035Y-79408251D01*
X153713280Y-79362993D01*
X153759344Y-79191710D01*
X153949387Y-79191710D01*
X153892582Y-79371349D01*
X153864607Y-79459704D01*
X153830813Y-79566281D01*
X153795520Y-79677454D01*
X153764013Y-79776579D01*
X153692250Y-80002171D01*
X153537286Y-80012253D01*
X153495270Y-79873528D01*
X153469359Y-79787351D01*
X153441083Y-79692347D01*
X153416369Y-79608441D01*
X153415394Y-79605102D01*
X153396935Y-79548248D01*
X153380649Y-79509456D01*
X153369242Y-79494787D01*
X153366898Y-79496483D01*
X153358671Y-79519225D01*
X153343038Y-79567940D01*
X153321904Y-79636502D01*
X153297170Y-79718785D01*
X153283787Y-79764046D01*
X153211311Y-80010526D01*
X153057495Y-80010526D01*
X152934531Y-79622006D01*
X152899988Y-79513022D01*
X152868521Y-79414048D01*
X152841616Y-79329736D01*
X152820759Y-79264734D01*
X152807438Y-79223692D01*
X152803388Y-79211701D01*
X152806594Y-79199423D01*
X152831765Y-79194046D01*
X152884146Y-79194584D01*
X152892345Y-79194990D01*
X152989482Y-79200066D01*
X153053100Y-79434013D01*
X153076484Y-79519333D01*
X153097381Y-79594335D01*
X153113951Y-79652507D01*
X153124354Y-79687337D01*
X153126276Y-79693016D01*
X153134241Y-79686486D01*
X153150304Y-79652654D01*
X153172621Y-79596127D01*
X153199345Y-79521510D01*
X153221937Y-79454107D01*
X153308041Y-79190143D01*
X153374130Y-79195104D01*
G36*
X154379992Y-79196673D02*
G01*
X154450427Y-79213780D01*
X154470787Y-79222844D01*
X154510253Y-79246583D01*
X154540541Y-79273321D01*
X154562952Y-79307699D01*
X154578786Y-79354360D01*
X154589343Y-79417946D01*
X154595924Y-79503099D01*
X154599828Y-79614462D01*
X154601310Y-79688849D01*
X154606765Y-80010526D01*
X154513580Y-80010526D01*
X154457047Y-80008156D01*
X154427922Y-80000055D01*
X154420394Y-79986451D01*
X154416420Y-79971741D01*
X154398652Y-79974554D01*
X154374440Y-79986348D01*
X154313828Y-80004427D01*
X154235929Y-80009299D01*
X154153995Y-80001330D01*
X154081281Y-79980889D01*
X154074759Y-79978051D01*
X154008302Y-79931365D01*
X153964491Y-79866464D01*
X153944332Y-79790600D01*
X153945872Y-79763344D01*
X154110345Y-79763344D01*
X154124837Y-79800024D01*
X154167805Y-79826309D01*
X154237129Y-79840417D01*
X154274177Y-79842290D01*
X154335919Y-79837494D01*
X154376960Y-79818858D01*
X154386973Y-79810000D01*
X154414100Y-79761806D01*
X154420394Y-79718092D01*
X154420394Y-79659605D01*
X154338930Y-79659605D01*
X154244234Y-79664432D01*
X154177813Y-79679613D01*
X154135846Y-79706200D01*
X154126449Y-79718052D01*
X154110345Y-79763344D01*
X153945872Y-79763344D01*
X153948829Y-79711026D01*
X153978985Y-79634995D01*
X154020131Y-79583612D01*
X154045052Y-79561397D01*
X154069448Y-79546798D01*
X154101191Y-79537897D01*
X154148152Y-79532775D01*
X154218204Y-79529515D01*
X154245990Y-79528577D01*
X154420394Y-79522879D01*
X154420138Y-79470091D01*
X154413384Y-79414603D01*
X154388964Y-79381052D01*
X154339630Y-79359618D01*
X154338306Y-79359236D01*
X154268360Y-79350808D01*
X154199914Y-79361816D01*
X154149047Y-79388585D01*
X154128637Y-79401803D01*
X154106654Y-79399974D01*
X154072826Y-79380824D01*
X154052961Y-79367308D01*
X154014106Y-79338432D01*
X153990038Y-79316786D01*
X153986176Y-79310589D01*
X154002079Y-79278519D01*
X154049065Y-79240219D01*
X154069473Y-79227297D01*
X154128143Y-79205041D01*
X154207212Y-79192432D01*
X154295041Y-79189600D01*
X154379992Y-79196673D01*
G37*
X154379992Y-79196673D02*
X154450427Y-79213780D01*
X154470787Y-79222844D01*
X154510253Y-79246583D01*
X154540541Y-79273321D01*
X154562952Y-79307699D01*
X154578786Y-79354360D01*
X154589343Y-79417946D01*
X154595924Y-79503099D01*
X154599828Y-79614462D01*
X154601310Y-79688849D01*
X154606765Y-80010526D01*
X154513580Y-80010526D01*
X154457047Y-80008156D01*
X154427922Y-80000055D01*
X154420394Y-79986451D01*
X154416420Y-79971741D01*
X154398652Y-79974554D01*
X154374440Y-79986348D01*
X154313828Y-80004427D01*
X154235929Y-80009299D01*
X154153995Y-80001330D01*
X154081281Y-79980889D01*
X154074759Y-79978051D01*
X154008302Y-79931365D01*
X153964491Y-79866464D01*
X153944332Y-79790600D01*
X153945872Y-79763344D01*
X154110345Y-79763344D01*
X154124837Y-79800024D01*
X154167805Y-79826309D01*
X154237129Y-79840417D01*
X154274177Y-79842290D01*
X154335919Y-79837494D01*
X154376960Y-79818858D01*
X154386973Y-79810000D01*
X154414100Y-79761806D01*
X154420394Y-79718092D01*
X154420394Y-79659605D01*
X154338930Y-79659605D01*
X154244234Y-79664432D01*
X154177813Y-79679613D01*
X154135846Y-79706200D01*
X154126449Y-79718052D01*
X154110345Y-79763344D01*
X153945872Y-79763344D01*
X153948829Y-79711026D01*
X153978985Y-79634995D01*
X154020131Y-79583612D01*
X154045052Y-79561397D01*
X154069448Y-79546798D01*
X154101191Y-79537897D01*
X154148152Y-79532775D01*
X154218204Y-79529515D01*
X154245990Y-79528577D01*
X154420394Y-79522879D01*
X154420138Y-79470091D01*
X154413384Y-79414603D01*
X154388964Y-79381052D01*
X154339630Y-79359618D01*
X154338306Y-79359236D01*
X154268360Y-79350808D01*
X154199914Y-79361816D01*
X154149047Y-79388585D01*
X154128637Y-79401803D01*
X154106654Y-79399974D01*
X154072826Y-79380824D01*
X154052961Y-79367308D01*
X154014106Y-79338432D01*
X153990038Y-79316786D01*
X153986176Y-79310589D01*
X154002079Y-79278519D01*
X154049065Y-79240219D01*
X154069473Y-79227297D01*
X154128143Y-79205041D01*
X154207212Y-79192432D01*
X154295041Y-79189600D01*
X154379992Y-79196673D01*
G36*
X155173167Y-79191447D02*
G01*
X155237408Y-79204112D01*
X155273980Y-79222864D01*
X155312453Y-79254017D01*
X155257717Y-79323127D01*
X155223969Y-79364979D01*
X155201053Y-79385398D01*
X155178279Y-79388517D01*
X155144956Y-79378472D01*
X155129314Y-79372789D01*
X155065542Y-79364404D01*
X155007140Y-79382378D01*
X154964264Y-79422982D01*
X154957299Y-79435929D01*
X154949713Y-79470224D01*
X154943859Y-79533427D01*
X154940011Y-79621060D01*
X154938443Y-79728640D01*
X154938421Y-79743944D01*
X154938421Y-80010526D01*
X154754605Y-80010526D01*
X154754605Y-79191710D01*
X154846513Y-79191710D01*
X154899507Y-79193094D01*
X154927115Y-79199252D01*
X154937324Y-79213194D01*
X154938421Y-79226344D01*
X154938421Y-79260978D01*
X154982450Y-79226344D01*
X155032937Y-79202716D01*
X155100760Y-79191033D01*
X155173167Y-79191447D01*
G37*
X155173167Y-79191447D02*
X155237408Y-79204112D01*
X155273980Y-79222864D01*
X155312453Y-79254017D01*
X155257717Y-79323127D01*
X155223969Y-79364979D01*
X155201053Y-79385398D01*
X155178279Y-79388517D01*
X155144956Y-79378472D01*
X155129314Y-79372789D01*
X155065542Y-79364404D01*
X155007140Y-79382378D01*
X154964264Y-79422982D01*
X154957299Y-79435929D01*
X154949713Y-79470224D01*
X154943859Y-79533427D01*
X154940011Y-79621060D01*
X154938443Y-79728640D01*
X154938421Y-79743944D01*
X154938421Y-80010526D01*
X154754605Y-80010526D01*
X154754605Y-79191710D01*
X154846513Y-79191710D01*
X154899507Y-79193094D01*
X154927115Y-79199252D01*
X154937324Y-79213194D01*
X154938421Y-79226344D01*
X154938421Y-79260978D01*
X154982450Y-79226344D01*
X155032937Y-79202716D01*
X155100760Y-79191033D01*
X155173167Y-79191447D01*
G36*
X155701193Y-79196078D02*
G01*
X155781068Y-79216845D01*
X155847962Y-79259705D01*
X155880351Y-79291723D01*
X155933445Y-79367413D01*
X155963873Y-79455216D01*
X155974327Y-79563150D01*
X155974380Y-79571875D01*
X155974473Y-79659605D01*
X155469534Y-79659605D01*
X155480298Y-79705559D01*
X155499732Y-79747178D01*
X155533745Y-79790544D01*
X155540860Y-79797467D01*
X155602003Y-79834935D01*
X155671729Y-79841289D01*
X155751987Y-79816638D01*
X155765592Y-79810000D01*
X155807319Y-79789819D01*
X155835268Y-79778321D01*
X155840145Y-79777258D01*
X155857168Y-79787583D01*
X155889633Y-79812845D01*
X155906114Y-79826650D01*
X155940264Y-79858361D01*
X155951478Y-79879299D01*
X155943695Y-79898560D01*
X155939535Y-79903827D01*
X155911357Y-79926878D01*
X155864862Y-79954892D01*
X155832434Y-79971246D01*
X155740385Y-80000059D01*
X155638476Y-80009395D01*
X155541963Y-79998332D01*
X155514934Y-79990412D01*
X155431276Y-79945581D01*
X155369266Y-79876598D01*
X155328545Y-79782794D01*
X155308755Y-79663498D01*
X155306582Y-79601118D01*
X155312926Y-79510298D01*
X155473157Y-79510298D01*
X155488655Y-79517012D01*
X155530312Y-79522280D01*
X155590876Y-79525389D01*
X155631907Y-79525921D01*
X155705711Y-79525408D01*
X155752293Y-79523006D01*
X155777848Y-79517422D01*
X155788569Y-79507361D01*
X155790657Y-79492763D01*
X155776331Y-79447796D01*
X155740262Y-79403353D01*
X155692815Y-79369242D01*
X155645349Y-79355288D01*
X155580879Y-79367666D01*
X155525070Y-79403452D01*
X155486374Y-79455033D01*
X155473157Y-79510298D01*
X155312926Y-79510298D01*
X155315821Y-79468866D01*
X155344336Y-79363498D01*
X155392729Y-79284178D01*
X155461604Y-79230071D01*
X155551565Y-79200343D01*
X155600300Y-79194618D01*
X155701193Y-79196078D01*
G37*
X155701193Y-79196078D02*
X155781068Y-79216845D01*
X155847962Y-79259705D01*
X155880351Y-79291723D01*
X155933445Y-79367413D01*
X155963873Y-79455216D01*
X155974327Y-79563150D01*
X155974380Y-79571875D01*
X155974473Y-79659605D01*
X155469534Y-79659605D01*
X155480298Y-79705559D01*
X155499732Y-79747178D01*
X155533745Y-79790544D01*
X155540860Y-79797467D01*
X155602003Y-79834935D01*
X155671729Y-79841289D01*
X155751987Y-79816638D01*
X155765592Y-79810000D01*
X155807319Y-79789819D01*
X155835268Y-79778321D01*
X155840145Y-79777258D01*
X155857168Y-79787583D01*
X155889633Y-79812845D01*
X155906114Y-79826650D01*
X155940264Y-79858361D01*
X155951478Y-79879299D01*
X155943695Y-79898560D01*
X155939535Y-79903827D01*
X155911357Y-79926878D01*
X155864862Y-79954892D01*
X155832434Y-79971246D01*
X155740385Y-80000059D01*
X155638476Y-80009395D01*
X155541963Y-79998332D01*
X155514934Y-79990412D01*
X155431276Y-79945581D01*
X155369266Y-79876598D01*
X155328545Y-79782794D01*
X155308755Y-79663498D01*
X155306582Y-79601118D01*
X155312926Y-79510298D01*
X155473157Y-79510298D01*
X155488655Y-79517012D01*
X155530312Y-79522280D01*
X155590876Y-79525389D01*
X155631907Y-79525921D01*
X155705711Y-79525408D01*
X155752293Y-79523006D01*
X155777848Y-79517422D01*
X155788569Y-79507361D01*
X155790657Y-79492763D01*
X155776331Y-79447796D01*
X155740262Y-79403353D01*
X155692815Y-79369242D01*
X155645349Y-79355288D01*
X155580879Y-79367666D01*
X155525070Y-79403452D01*
X155486374Y-79455033D01*
X155473157Y-79510298D01*
X155312926Y-79510298D01*
X155315821Y-79468866D01*
X155344336Y-79363498D01*
X155392729Y-79284178D01*
X155461604Y-79230071D01*
X155551565Y-79200343D01*
X155600300Y-79194618D01*
X155701193Y-79196078D01*
G36*
X149626784Y-77947104D02*
G01*
X149714205Y-77985754D01*
X149780570Y-78050290D01*
X149825976Y-78140812D01*
X149850518Y-78257418D01*
X149852277Y-78275624D01*
X149853656Y-78403984D01*
X149835784Y-78516496D01*
X149799750Y-78607688D01*
X149780455Y-78637022D01*
X149713245Y-78699106D01*
X149627650Y-78739316D01*
X149531890Y-78756003D01*
X149434187Y-78747517D01*
X149359917Y-78721380D01*
X149296047Y-78677335D01*
X149243846Y-78619587D01*
X149242943Y-78618236D01*
X149221744Y-78582593D01*
X149207967Y-78546752D01*
X149199624Y-78501519D01*
X149194727Y-78437701D01*
X149192569Y-78385368D01*
X149191671Y-78337910D01*
X149358743Y-78337910D01*
X149360376Y-78385154D01*
X149366304Y-78448046D01*
X149376761Y-78488407D01*
X149395619Y-78517122D01*
X149413281Y-78533896D01*
X149475894Y-78569016D01*
X149541408Y-78573710D01*
X149602421Y-78548440D01*
X149632928Y-78520124D01*
X149654911Y-78491589D01*
X149667769Y-78464284D01*
X149673412Y-78428750D01*
X149673751Y-78375524D01*
X149672012Y-78326506D01*
X149668271Y-78256482D01*
X149662341Y-78211064D01*
X149651653Y-78181440D01*
X149633639Y-78158797D01*
X149619363Y-78145855D01*
X149559651Y-78111860D01*
X149495234Y-78110165D01*
X149441219Y-78130301D01*
X149395140Y-78172352D01*
X149367689Y-78241428D01*
X149358743Y-78337910D01*
X149191671Y-78337910D01*
X149190599Y-78281299D01*
X149193964Y-78203468D01*
X149204045Y-78144930D01*
X149222226Y-78098737D01*
X149249890Y-78057942D01*
X149260146Y-78045828D01*
X149324278Y-77985474D01*
X149393066Y-77950220D01*
X149477189Y-77935450D01*
X149518209Y-77934243D01*
X149626784Y-77947104D01*
G37*
X149626784Y-77947104D02*
X149714205Y-77985754D01*
X149780570Y-78050290D01*
X149825976Y-78140812D01*
X149850518Y-78257418D01*
X149852277Y-78275624D01*
X149853656Y-78403984D01*
X149835784Y-78516496D01*
X149799750Y-78607688D01*
X149780455Y-78637022D01*
X149713245Y-78699106D01*
X149627650Y-78739316D01*
X149531890Y-78756003D01*
X149434187Y-78747517D01*
X149359917Y-78721380D01*
X149296047Y-78677335D01*
X149243846Y-78619587D01*
X149242943Y-78618236D01*
X149221744Y-78582593D01*
X149207967Y-78546752D01*
X149199624Y-78501519D01*
X149194727Y-78437701D01*
X149192569Y-78385368D01*
X149191671Y-78337910D01*
X149358743Y-78337910D01*
X149360376Y-78385154D01*
X149366304Y-78448046D01*
X149376761Y-78488407D01*
X149395619Y-78517122D01*
X149413281Y-78533896D01*
X149475894Y-78569016D01*
X149541408Y-78573710D01*
X149602421Y-78548440D01*
X149632928Y-78520124D01*
X149654911Y-78491589D01*
X149667769Y-78464284D01*
X149673412Y-78428750D01*
X149673751Y-78375524D01*
X149672012Y-78326506D01*
X149668271Y-78256482D01*
X149662341Y-78211064D01*
X149651653Y-78181440D01*
X149633639Y-78158797D01*
X149619363Y-78145855D01*
X149559651Y-78111860D01*
X149495234Y-78110165D01*
X149441219Y-78130301D01*
X149395140Y-78172352D01*
X149367689Y-78241428D01*
X149358743Y-78337910D01*
X149191671Y-78337910D01*
X149190599Y-78281299D01*
X149193964Y-78203468D01*
X149204045Y-78144930D01*
X149222226Y-78098737D01*
X149249890Y-78057942D01*
X149260146Y-78045828D01*
X149324278Y-77985474D01*
X149393066Y-77950220D01*
X149477189Y-77935450D01*
X149518209Y-77934243D01*
X149626784Y-77947104D01*
G36*
X151197018Y-77957027D02*
G01*
X151213670Y-77964866D01*
X151271305Y-78007086D01*
X151325805Y-78068700D01*
X151366499Y-78136543D01*
X151378074Y-78167734D01*
X151388634Y-78223449D01*
X151394931Y-78290781D01*
X151395696Y-78318585D01*
X151395789Y-78406316D01*
X150890850Y-78406316D01*
X150901613Y-78452270D01*
X150928033Y-78506620D01*
X150974222Y-78553591D01*
X151029172Y-78583848D01*
X151064189Y-78590131D01*
X151111677Y-78582506D01*
X151168335Y-78563383D01*
X151187582Y-78554584D01*
X151258759Y-78519036D01*
X151319502Y-78565367D01*
X151354552Y-78596703D01*
X151373202Y-78622567D01*
X151374147Y-78630158D01*
X151357485Y-78648556D01*
X151320970Y-78676515D01*
X151287828Y-78698327D01*
X151198393Y-78737537D01*
X151098129Y-78755285D01*
X150998754Y-78750670D01*
X150919539Y-78726551D01*
X150837880Y-78674884D01*
X150779849Y-78606856D01*
X150743546Y-78518843D01*
X150727072Y-78407216D01*
X150725611Y-78356138D01*
X150731457Y-78239091D01*
X150732175Y-78235686D01*
X150899489Y-78235686D01*
X150904097Y-78246662D01*
X150923036Y-78252715D01*
X150962098Y-78255310D01*
X151027077Y-78255910D01*
X151052097Y-78255921D01*
X151128221Y-78255014D01*
X151176496Y-78251720D01*
X151202460Y-78245181D01*
X151211648Y-78234537D01*
X151211973Y-78231119D01*
X151201487Y-78203956D01*
X151175242Y-78165903D01*
X151163959Y-78152579D01*
X151122072Y-78114896D01*
X151078409Y-78100080D01*
X151054885Y-78098842D01*
X150991243Y-78114329D01*
X150937873Y-78155930D01*
X150904019Y-78216353D01*
X150903419Y-78218322D01*
X150899489Y-78235686D01*
X150732175Y-78235686D01*
X150750899Y-78146928D01*
X150785922Y-78073190D01*
X150828756Y-78020848D01*
X150907948Y-77964092D01*
X151001040Y-77933762D01*
X151100055Y-77931021D01*
X151197018Y-77957027D01*
G37*
X151197018Y-77957027D02*
X151213670Y-77964866D01*
X151271305Y-78007086D01*
X151325805Y-78068700D01*
X151366499Y-78136543D01*
X151378074Y-78167734D01*
X151388634Y-78223449D01*
X151394931Y-78290781D01*
X151395696Y-78318585D01*
X151395789Y-78406316D01*
X150890850Y-78406316D01*
X150901613Y-78452270D01*
X150928033Y-78506620D01*
X150974222Y-78553591D01*
X151029172Y-78583848D01*
X151064189Y-78590131D01*
X151111677Y-78582506D01*
X151168335Y-78563383D01*
X151187582Y-78554584D01*
X151258759Y-78519036D01*
X151319502Y-78565367D01*
X151354552Y-78596703D01*
X151373202Y-78622567D01*
X151374147Y-78630158D01*
X151357485Y-78648556D01*
X151320970Y-78676515D01*
X151287828Y-78698327D01*
X151198393Y-78737537D01*
X151098129Y-78755285D01*
X150998754Y-78750670D01*
X150919539Y-78726551D01*
X150837880Y-78674884D01*
X150779849Y-78606856D01*
X150743546Y-78518843D01*
X150727072Y-78407216D01*
X150725611Y-78356138D01*
X150731457Y-78239091D01*
X150732175Y-78235686D01*
X150899489Y-78235686D01*
X150904097Y-78246662D01*
X150923036Y-78252715D01*
X150962098Y-78255310D01*
X151027077Y-78255910D01*
X151052097Y-78255921D01*
X151128221Y-78255014D01*
X151176496Y-78251720D01*
X151202460Y-78245181D01*
X151211648Y-78234537D01*
X151211973Y-78231119D01*
X151201487Y-78203956D01*
X151175242Y-78165903D01*
X151163959Y-78152579D01*
X151122072Y-78114896D01*
X151078409Y-78100080D01*
X151054885Y-78098842D01*
X150991243Y-78114329D01*
X150937873Y-78155930D01*
X150904019Y-78216353D01*
X150903419Y-78218322D01*
X150899489Y-78235686D01*
X150732175Y-78235686D01*
X150750899Y-78146928D01*
X150785922Y-78073190D01*
X150828756Y-78020848D01*
X150907948Y-77964092D01*
X151001040Y-77933762D01*
X151100055Y-77931021D01*
X151197018Y-77957027D01*
G36*
X153018628Y-77935547D02*
G01*
X153081908Y-77947548D01*
X153147557Y-77972648D01*
X153154572Y-77975848D01*
X153204356Y-78002026D01*
X153238834Y-78026353D01*
X153249978Y-78041937D01*
X153239366Y-78067353D01*
X153213588Y-78104853D01*
X153202146Y-78118852D01*
X153154992Y-78173954D01*
X153094201Y-78138086D01*
X153036347Y-78114192D01*
X152969500Y-78101420D01*
X152905394Y-78100613D01*
X152855764Y-78112615D01*
X152843854Y-78120105D01*
X152821172Y-78154450D01*
X152818416Y-78194013D01*
X152835388Y-78224920D01*
X152845427Y-78230913D01*
X152875510Y-78238357D01*
X152928389Y-78247106D01*
X152993575Y-78255467D01*
X153005600Y-78256778D01*
X153110297Y-78274888D01*
X153186232Y-78305651D01*
X153236592Y-78351907D01*
X153264564Y-78416497D01*
X153273278Y-78495387D01*
X153261240Y-78585065D01*
X153222151Y-78655486D01*
X153155855Y-78706777D01*
X153062194Y-78739067D01*
X152958223Y-78751807D01*
X152873438Y-78751654D01*
X152804665Y-78740083D01*
X152757697Y-78724109D01*
X152698350Y-78696275D01*
X152643506Y-78663973D01*
X152624013Y-78649755D01*
X152573881Y-78608835D01*
X152694803Y-78486477D01*
X152763543Y-78531967D01*
X152832488Y-78566133D01*
X152906111Y-78584004D01*
X152976883Y-78585889D01*
X153037274Y-78572101D01*
X153079757Y-78542949D01*
X153093474Y-78518352D01*
X153091417Y-78478904D01*
X153057330Y-78448737D01*
X152991308Y-78427906D01*
X152918974Y-78418279D01*
X152807652Y-78399910D01*
X152724952Y-78365254D01*
X152669765Y-78313297D01*
X152640988Y-78243023D01*
X152637001Y-78159707D01*
X152656693Y-78072681D01*
X152701589Y-78006902D01*
X152772091Y-77962068D01*
X152868601Y-77937879D01*
X152940100Y-77933137D01*
X153018628Y-77935547D01*
G37*
X153018628Y-77935547D02*
X153081908Y-77947548D01*
X153147557Y-77972648D01*
X153154572Y-77975848D01*
X153204356Y-78002026D01*
X153238834Y-78026353D01*
X153249978Y-78041937D01*
X153239366Y-78067353D01*
X153213588Y-78104853D01*
X153202146Y-78118852D01*
X153154992Y-78173954D01*
X153094201Y-78138086D01*
X153036347Y-78114192D01*
X152969500Y-78101420D01*
X152905394Y-78100613D01*
X152855764Y-78112615D01*
X152843854Y-78120105D01*
X152821172Y-78154450D01*
X152818416Y-78194013D01*
X152835388Y-78224920D01*
X152845427Y-78230913D01*
X152875510Y-78238357D01*
X152928389Y-78247106D01*
X152993575Y-78255467D01*
X153005600Y-78256778D01*
X153110297Y-78274888D01*
X153186232Y-78305651D01*
X153236592Y-78351907D01*
X153264564Y-78416497D01*
X153273278Y-78495387D01*
X153261240Y-78585065D01*
X153222151Y-78655486D01*
X153155855Y-78706777D01*
X153062194Y-78739067D01*
X152958223Y-78751807D01*
X152873438Y-78751654D01*
X152804665Y-78740083D01*
X152757697Y-78724109D01*
X152698350Y-78696275D01*
X152643506Y-78663973D01*
X152624013Y-78649755D01*
X152573881Y-78608835D01*
X152694803Y-78486477D01*
X152763543Y-78531967D01*
X152832488Y-78566133D01*
X152906111Y-78584004D01*
X152976883Y-78585889D01*
X153037274Y-78572101D01*
X153079757Y-78542949D01*
X153093474Y-78518352D01*
X153091417Y-78478904D01*
X153057330Y-78448737D01*
X152991308Y-78427906D01*
X152918974Y-78418279D01*
X152807652Y-78399910D01*
X152724952Y-78365254D01*
X152669765Y-78313297D01*
X152640988Y-78243023D01*
X152637001Y-78159707D01*
X152656693Y-78072681D01*
X152701589Y-78006902D01*
X152772091Y-77962068D01*
X152868601Y-77937879D01*
X152940100Y-77933137D01*
X153018628Y-77935547D01*
G36*
X153811669Y-77948310D02*
G01*
X153896192Y-77994340D01*
X153962321Y-78067006D01*
X153993478Y-78126106D01*
X154006855Y-78178305D01*
X154015522Y-78252719D01*
X154019237Y-78338442D01*
X154017754Y-78424569D01*
X154010831Y-78500193D01*
X154002745Y-78540584D01*
X153975465Y-78595840D01*
X153928220Y-78654530D01*
X153871282Y-78705852D01*
X153814924Y-78739005D01*
X153813550Y-78739531D01*
X153743616Y-78754018D01*
X153660737Y-78754377D01*
X153581977Y-78741188D01*
X153551566Y-78730617D01*
X153473239Y-78686201D01*
X153417143Y-78628007D01*
X153380286Y-78550965D01*
X153359680Y-78450001D01*
X153355018Y-78397116D01*
X153355613Y-78330663D01*
X153534736Y-78330663D01*
X153540770Y-78427630D01*
X153558138Y-78501523D01*
X153585740Y-78548736D01*
X153605404Y-78562237D01*
X153655787Y-78571651D01*
X153715673Y-78568864D01*
X153767449Y-78555316D01*
X153781027Y-78547862D01*
X153816849Y-78504451D01*
X153840493Y-78438014D01*
X153850558Y-78357161D01*
X153845642Y-78270502D01*
X153834655Y-78218349D01*
X153803109Y-78157951D01*
X153753311Y-78120197D01*
X153693337Y-78107143D01*
X153631264Y-78120849D01*
X153583582Y-78154372D01*
X153558525Y-78182031D01*
X153543900Y-78209294D01*
X153536929Y-78246190D01*
X153534833Y-78302750D01*
X153534736Y-78330663D01*
X153355613Y-78330663D01*
X153356282Y-78255994D01*
X153379265Y-78140271D01*
X153423972Y-78049941D01*
X153490405Y-77985000D01*
X153578565Y-77945445D01*
X153597495Y-77940858D01*
X153711266Y-77930090D01*
X153811669Y-77948310D01*
G37*
X153811669Y-77948310D02*
X153896192Y-77994340D01*
X153962321Y-78067006D01*
X153993478Y-78126106D01*
X154006855Y-78178305D01*
X154015522Y-78252719D01*
X154019237Y-78338442D01*
X154017754Y-78424569D01*
X154010831Y-78500193D01*
X154002745Y-78540584D01*
X153975465Y-78595840D01*
X153928220Y-78654530D01*
X153871282Y-78705852D01*
X153814924Y-78739005D01*
X153813550Y-78739531D01*
X153743616Y-78754018D01*
X153660737Y-78754377D01*
X153581977Y-78741188D01*
X153551566Y-78730617D01*
X153473239Y-78686201D01*
X153417143Y-78628007D01*
X153380286Y-78550965D01*
X153359680Y-78450001D01*
X153355018Y-78397116D01*
X153355613Y-78330663D01*
X153534736Y-78330663D01*
X153540770Y-78427630D01*
X153558138Y-78501523D01*
X153585740Y-78548736D01*
X153605404Y-78562237D01*
X153655787Y-78571651D01*
X153715673Y-78568864D01*
X153767449Y-78555316D01*
X153781027Y-78547862D01*
X153816849Y-78504451D01*
X153840493Y-78438014D01*
X153850558Y-78357161D01*
X153845642Y-78270502D01*
X153834655Y-78218349D01*
X153803109Y-78157951D01*
X153753311Y-78120197D01*
X153693337Y-78107143D01*
X153631264Y-78120849D01*
X153583582Y-78154372D01*
X153558525Y-78182031D01*
X153543900Y-78209294D01*
X153536929Y-78246190D01*
X153534833Y-78302750D01*
X153534736Y-78330663D01*
X153355613Y-78330663D01*
X153356282Y-78255994D01*
X153379265Y-78140271D01*
X153423972Y-78049941D01*
X153490405Y-77985000D01*
X153578565Y-77945445D01*
X153597495Y-77940858D01*
X153711266Y-77930090D01*
X153811669Y-77948310D01*
G36*
X154320131Y-78198533D02*
G01*
X154321710Y-78321089D01*
X154327481Y-78414179D01*
X154338991Y-78481651D01*
X154357790Y-78527355D01*
X154385426Y-78555139D01*
X154423448Y-78568854D01*
X154470526Y-78572358D01*
X154519832Y-78568432D01*
X154557283Y-78554089D01*
X154584428Y-78525478D01*
X154602815Y-78478751D01*
X154613993Y-78410058D01*
X154619511Y-78315550D01*
X154620921Y-78198533D01*
X154620921Y-77938421D01*
X154804736Y-77938421D01*
X154804736Y-78740526D01*
X154712828Y-78740526D01*
X154657422Y-78738281D01*
X154628891Y-78730396D01*
X154620921Y-78715428D01*
X154616120Y-78702097D01*
X154597014Y-78704917D01*
X154558504Y-78723783D01*
X154470239Y-78752887D01*
X154376623Y-78750825D01*
X154286921Y-78719221D01*
X154244204Y-78694257D01*
X154211621Y-78667226D01*
X154187817Y-78633405D01*
X154171439Y-78588068D01*
X154161131Y-78526489D01*
X154155541Y-78443943D01*
X154153312Y-78335705D01*
X154153026Y-78252004D01*
X154153026Y-77938421D01*
X154320131Y-77938421D01*
X154320131Y-78198533D01*
G37*
X154320131Y-78198533D02*
X154321710Y-78321089D01*
X154327481Y-78414179D01*
X154338991Y-78481651D01*
X154357790Y-78527355D01*
X154385426Y-78555139D01*
X154423448Y-78568854D01*
X154470526Y-78572358D01*
X154519832Y-78568432D01*
X154557283Y-78554089D01*
X154584428Y-78525478D01*
X154602815Y-78478751D01*
X154613993Y-78410058D01*
X154619511Y-78315550D01*
X154620921Y-78198533D01*
X154620921Y-77938421D01*
X154804736Y-77938421D01*
X154804736Y-78740526D01*
X154712828Y-78740526D01*
X154657422Y-78738281D01*
X154628891Y-78730396D01*
X154620921Y-78715428D01*
X154616120Y-78702097D01*
X154597014Y-78704917D01*
X154558504Y-78723783D01*
X154470239Y-78752887D01*
X154376623Y-78750825D01*
X154286921Y-78719221D01*
X154244204Y-78694257D01*
X154211621Y-78667226D01*
X154187817Y-78633405D01*
X154171439Y-78588068D01*
X154161131Y-78526489D01*
X154155541Y-78443943D01*
X154153312Y-78335705D01*
X154153026Y-78252004D01*
X154153026Y-77938421D01*
X154320131Y-77938421D01*
X154320131Y-78198533D01*
G36*
X155946576Y-77945419D02*
G01*
X156043395Y-77986549D01*
X156073890Y-78006571D01*
X156112865Y-78037340D01*
X156137331Y-78061533D01*
X156141578Y-78069413D01*
X156129584Y-78086899D01*
X156098887Y-78116570D01*
X156074312Y-78137279D01*
X156007046Y-78191336D01*
X155953930Y-78146642D01*
X155912884Y-78117789D01*
X155872863Y-78107829D01*
X155827059Y-78110261D01*
X155754324Y-78128345D01*
X155704256Y-78165881D01*
X155673829Y-78226562D01*
X155660017Y-78314081D01*
X155660013Y-78314136D01*
X155661208Y-78411958D01*
X155679772Y-78483730D01*
X155716804Y-78532595D01*
X155742050Y-78549143D01*
X155809097Y-78569749D01*
X155880709Y-78569762D01*
X155943015Y-78549768D01*
X155957763Y-78540000D01*
X155994750Y-78515047D01*
X156023668Y-78510958D01*
X156054856Y-78529530D01*
X156089336Y-78562887D01*
X156143912Y-78619196D01*
X156083318Y-78669142D01*
X155989698Y-78725513D01*
X155884125Y-78753293D01*
X155773798Y-78751282D01*
X155701343Y-78732862D01*
X155616656Y-78687310D01*
X155548927Y-78615650D01*
X155518157Y-78565066D01*
X155493236Y-78492488D01*
X155480766Y-78400569D01*
X155480670Y-78300948D01*
X155492870Y-78205267D01*
X155517290Y-78125169D01*
X155521136Y-78116956D01*
X155578093Y-78036413D01*
X155655209Y-77977771D01*
X155746390Y-77942247D01*
X155845543Y-77931057D01*
X155946576Y-77945419D01*
G37*
X155946576Y-77945419D02*
X156043395Y-77986549D01*
X156073890Y-78006571D01*
X156112865Y-78037340D01*
X156137331Y-78061533D01*
X156141578Y-78069413D01*
X156129584Y-78086899D01*
X156098887Y-78116570D01*
X156074312Y-78137279D01*
X156007046Y-78191336D01*
X155953930Y-78146642D01*
X155912884Y-78117789D01*
X155872863Y-78107829D01*
X155827059Y-78110261D01*
X155754324Y-78128345D01*
X155704256Y-78165881D01*
X155673829Y-78226562D01*
X155660017Y-78314081D01*
X155660013Y-78314136D01*
X155661208Y-78411958D01*
X155679772Y-78483730D01*
X155716804Y-78532595D01*
X155742050Y-78549143D01*
X155809097Y-78569749D01*
X155880709Y-78569762D01*
X155943015Y-78549768D01*
X155957763Y-78540000D01*
X155994750Y-78515047D01*
X156023668Y-78510958D01*
X156054856Y-78529530D01*
X156089336Y-78562887D01*
X156143912Y-78619196D01*
X156083318Y-78669142D01*
X155989698Y-78725513D01*
X155884125Y-78753293D01*
X155773798Y-78751282D01*
X155701343Y-78732862D01*
X155616656Y-78687310D01*
X155548927Y-78615650D01*
X155518157Y-78565066D01*
X155493236Y-78492488D01*
X155480766Y-78400569D01*
X155480670Y-78300948D01*
X155492870Y-78205267D01*
X155517290Y-78125169D01*
X155521136Y-78116956D01*
X155578093Y-78036413D01*
X155655209Y-77977771D01*
X155746390Y-77942247D01*
X155845543Y-77931057D01*
X155946576Y-77945419D01*
G36*
X156558784Y-77935554D02*
G01*
X156601574Y-77945949D01*
X156683609Y-77984013D01*
X156753757Y-78042149D01*
X156802305Y-78111852D01*
X156808975Y-78127502D01*
X156818124Y-78168496D01*
X156824529Y-78229138D01*
X156826710Y-78290430D01*
X156826710Y-78406316D01*
X156584407Y-78406316D01*
X156484471Y-78406693D01*
X156414069Y-78408987D01*
X156369313Y-78414938D01*
X156346315Y-78426285D01*
X156341189Y-78444771D01*
X156350048Y-78472136D01*
X156365917Y-78504155D01*
X156410184Y-78557592D01*
X156471699Y-78584215D01*
X156546885Y-78583347D01*
X156632053Y-78554371D01*
X156705659Y-78518611D01*
X156766734Y-78566904D01*
X156827810Y-78615197D01*
X156770351Y-78668285D01*
X156693641Y-78718445D01*
X156599302Y-78748688D01*
X156497827Y-78757151D01*
X156399711Y-78741974D01*
X156383881Y-78736824D01*
X156297647Y-78691791D01*
X156233501Y-78624652D01*
X156190091Y-78533405D01*
X156166064Y-78416044D01*
X156165784Y-78413529D01*
X156163633Y-78285627D01*
X156172329Y-78239997D01*
X156342105Y-78239997D01*
X156357697Y-78247013D01*
X156400029Y-78252388D01*
X156462434Y-78255457D01*
X156501981Y-78255921D01*
X156575728Y-78255630D01*
X156621840Y-78253783D01*
X156646100Y-78248912D01*
X156654294Y-78239555D01*
X156652206Y-78224245D01*
X156650455Y-78218322D01*
X156620560Y-78162668D01*
X156573542Y-78117815D01*
X156532049Y-78098105D01*
X156476926Y-78099295D01*
X156421068Y-78123875D01*
X156374212Y-78164570D01*
X156346094Y-78214108D01*
X156342105Y-78239997D01*
X156172329Y-78239997D01*
X156185074Y-78173133D01*
X156227611Y-78078727D01*
X156288747Y-78005088D01*
X156365985Y-77954893D01*
X156456830Y-77930822D01*
X156558784Y-77935554D01*
G37*
X156558784Y-77935554D02*
X156601574Y-77945949D01*
X156683609Y-77984013D01*
X156753757Y-78042149D01*
X156802305Y-78111852D01*
X156808975Y-78127502D01*
X156818124Y-78168496D01*
X156824529Y-78229138D01*
X156826710Y-78290430D01*
X156826710Y-78406316D01*
X156584407Y-78406316D01*
X156484471Y-78406693D01*
X156414069Y-78408987D01*
X156369313Y-78414938D01*
X156346315Y-78426285D01*
X156341189Y-78444771D01*
X156350048Y-78472136D01*
X156365917Y-78504155D01*
X156410184Y-78557592D01*
X156471699Y-78584215D01*
X156546885Y-78583347D01*
X156632053Y-78554371D01*
X156705659Y-78518611D01*
X156766734Y-78566904D01*
X156827810Y-78615197D01*
X156770351Y-78668285D01*
X156693641Y-78718445D01*
X156599302Y-78748688D01*
X156497827Y-78757151D01*
X156399711Y-78741974D01*
X156383881Y-78736824D01*
X156297647Y-78691791D01*
X156233501Y-78624652D01*
X156190091Y-78533405D01*
X156166064Y-78416044D01*
X156165784Y-78413529D01*
X156163633Y-78285627D01*
X156172329Y-78239997D01*
X156342105Y-78239997D01*
X156357697Y-78247013D01*
X156400029Y-78252388D01*
X156462434Y-78255457D01*
X156501981Y-78255921D01*
X156575728Y-78255630D01*
X156621840Y-78253783D01*
X156646100Y-78248912D01*
X156654294Y-78239555D01*
X156652206Y-78224245D01*
X156650455Y-78218322D01*
X156620560Y-78162668D01*
X156573542Y-78117815D01*
X156532049Y-78098105D01*
X156476926Y-78099295D01*
X156421068Y-78123875D01*
X156374212Y-78164570D01*
X156346094Y-78214108D01*
X156342105Y-78239997D01*
X156172329Y-78239997D01*
X156185074Y-78173133D01*
X156227611Y-78078727D01*
X156288747Y-78005088D01*
X156365985Y-77954893D01*
X156456830Y-77930822D01*
X156558784Y-77935554D01*
G36*
X151997957Y-77952226D02*
G01*
X152039546Y-77972090D01*
X152079825Y-78000784D01*
X152110510Y-78033809D01*
X152132861Y-78075931D01*
X152148136Y-78131915D01*
X152157592Y-78206528D01*
X152162487Y-78304535D01*
X152164081Y-78430702D01*
X152164106Y-78443914D01*
X152164473Y-78740526D01*
X151980657Y-78740526D01*
X151980657Y-78467081D01*
X151980527Y-78365777D01*
X151979621Y-78292353D01*
X151977173Y-78241271D01*
X151972414Y-78206990D01*
X151964574Y-78183971D01*
X151952885Y-78166673D01*
X151936602Y-78149581D01*
X151879634Y-78112857D01*
X151817445Y-78106042D01*
X151758199Y-78129261D01*
X151737595Y-78146543D01*
X151722470Y-78162791D01*
X151711610Y-78180191D01*
X151704310Y-78204212D01*
X151699863Y-78240322D01*
X151697564Y-78293988D01*
X151696704Y-78370680D01*
X151696578Y-78464043D01*
X151696578Y-78740526D01*
X151512763Y-78740526D01*
X151512763Y-77938421D01*
X151604671Y-77938421D01*
X151659851Y-77940603D01*
X151688320Y-77948351D01*
X151696575Y-77963468D01*
X151696578Y-77963916D01*
X151700408Y-77978720D01*
X151717301Y-77977040D01*
X151750888Y-77960773D01*
X151827063Y-77936840D01*
X151914200Y-77934178D01*
X151997957Y-77952226D01*
G37*
X151997957Y-77952226D02*
X152039546Y-77972090D01*
X152079825Y-78000784D01*
X152110510Y-78033809D01*
X152132861Y-78075931D01*
X152148136Y-78131915D01*
X152157592Y-78206528D01*
X152162487Y-78304535D01*
X152164081Y-78430702D01*
X152164106Y-78443914D01*
X152164473Y-78740526D01*
X151980657Y-78740526D01*
X151980657Y-78467081D01*
X151980527Y-78365777D01*
X151979621Y-78292353D01*
X151977173Y-78241271D01*
X151972414Y-78206990D01*
X151964574Y-78183971D01*
X151952885Y-78166673D01*
X151936602Y-78149581D01*
X151879634Y-78112857D01*
X151817445Y-78106042D01*
X151758199Y-78129261D01*
X151737595Y-78146543D01*
X151722470Y-78162791D01*
X151711610Y-78180191D01*
X151704310Y-78204212D01*
X151699863Y-78240322D01*
X151697564Y-78293988D01*
X151696704Y-78370680D01*
X151696578Y-78464043D01*
X151696578Y-78740526D01*
X151512763Y-78740526D01*
X151512763Y-77938421D01*
X151604671Y-77938421D01*
X151659851Y-77940603D01*
X151688320Y-77948351D01*
X151696575Y-77963468D01*
X151696578Y-77963916D01*
X151700408Y-77978720D01*
X151717301Y-77977040D01*
X151750888Y-77960773D01*
X151827063Y-77936840D01*
X151914200Y-77934178D01*
X151997957Y-77952226D01*
G36*
X155391388Y-77937645D02*
G01*
X155448865Y-77955206D01*
X155485872Y-77977395D01*
X155497927Y-77994942D01*
X155494609Y-78015742D01*
X155473079Y-78048419D01*
X155454874Y-78071562D01*
X155417344Y-78113402D01*
X155389148Y-78131005D01*
X155365111Y-78129856D01*
X155293808Y-78111710D01*
X155241442Y-78112534D01*
X155198918Y-78133098D01*
X155184642Y-78145134D01*
X155138947Y-78187483D01*
X155138947Y-78740526D01*
X154955131Y-78740526D01*
X154955131Y-77938421D01*
X155047039Y-77938421D01*
X155102219Y-77940603D01*
X155130688Y-77948351D01*
X155138943Y-77963468D01*
X155138947Y-77963916D01*
X155142845Y-77979749D01*
X155160474Y-77977684D01*
X155184901Y-77966261D01*
X155235350Y-77945005D01*
X155276316Y-77932216D01*
X155329028Y-77928938D01*
X155391388Y-77937645D01*
G37*
X155391388Y-77937645D02*
X155448865Y-77955206D01*
X155485872Y-77977395D01*
X155497927Y-77994942D01*
X155494609Y-78015742D01*
X155473079Y-78048419D01*
X155454874Y-78071562D01*
X155417344Y-78113402D01*
X155389148Y-78131005D01*
X155365111Y-78129856D01*
X155293808Y-78111710D01*
X155241442Y-78112534D01*
X155198918Y-78133098D01*
X155184642Y-78145134D01*
X155138947Y-78187483D01*
X155138947Y-78740526D01*
X154955131Y-78740526D01*
X154955131Y-77938421D01*
X155047039Y-77938421D01*
X155102219Y-77940603D01*
X155130688Y-77948351D01*
X155138943Y-77963468D01*
X155138947Y-77963916D01*
X155142845Y-77979749D01*
X155160474Y-77977684D01*
X155184901Y-77966261D01*
X155235350Y-77945005D01*
X155276316Y-77932216D01*
X155329028Y-77928938D01*
X155391388Y-77937645D01*
G36*
X153500964Y-72398576D02*
G01*
X153576513Y-72799322D01*
X154134041Y-73029154D01*
X154468465Y-72801748D01*
X154562122Y-72738431D01*
X154646782Y-72681896D01*
X154718495Y-72634727D01*
X154773311Y-72599502D01*
X154807280Y-72578805D01*
X154816530Y-72574342D01*
X154833195Y-72585820D01*
X154868806Y-72617551D01*
X154919371Y-72665483D01*
X154980900Y-72725562D01*
X155049399Y-72793733D01*
X155120879Y-72865945D01*
X155191347Y-72938142D01*
X155256811Y-73006273D01*
X155313280Y-73066283D01*
X155356763Y-73114119D01*
X155383268Y-73145727D01*
X155389605Y-73156305D01*
X155380486Y-73175806D01*
X155354920Y-73218531D01*
X155315597Y-73280298D01*
X155265203Y-73356931D01*
X155206427Y-73444248D01*
X155172368Y-73494052D01*
X155110289Y-73584993D01*
X155055126Y-73667059D01*
X155009554Y-73736163D01*
X154976250Y-73788222D01*
X154957890Y-73819150D01*
X154955131Y-73825650D01*
X154961385Y-73844121D01*
X154978434Y-73887172D01*
X155003703Y-73948749D01*
X155034622Y-74022799D01*
X155068618Y-74103270D01*
X155103118Y-74184107D01*
X155135551Y-74259258D01*
X155163343Y-74322671D01*
X155183923Y-74368293D01*
X155194719Y-74390069D01*
X155195356Y-74390926D01*
X155212307Y-74395084D01*
X155257451Y-74404361D01*
X155326110Y-74417844D01*
X155413602Y-74434621D01*
X155515250Y-74453781D01*
X155574556Y-74464830D01*
X155683172Y-74485510D01*
X155781277Y-74505189D01*
X155863909Y-74522789D01*
X155926104Y-74537233D01*
X155962899Y-74547446D01*
X155970296Y-74550686D01*
X155977540Y-74572617D01*
X155983385Y-74622147D01*
X155987835Y-74693485D01*
X155990893Y-74780839D01*
X155992565Y-74878417D01*
X155992853Y-74980426D01*
X155991761Y-75081075D01*
X155989294Y-75174572D01*
X155985456Y-75255125D01*
X155980250Y-75316942D01*
X155973681Y-75354230D01*
X155969741Y-75361993D01*
X155946188Y-75371298D01*
X155896282Y-75384600D01*
X155826623Y-75400337D01*
X155743813Y-75416946D01*
X155714905Y-75422319D01*
X155575531Y-75447848D01*
X155465436Y-75468408D01*
X155380982Y-75484815D01*
X155318530Y-75497887D01*
X155274444Y-75508441D01*
X155245085Y-75517294D01*
X155226815Y-75525263D01*
X155215998Y-75533165D01*
X155214485Y-75534727D01*
X155199377Y-75559886D01*
X155176329Y-75608850D01*
X155147644Y-75675621D01*
X155115622Y-75754205D01*
X155082565Y-75838607D01*
X155050773Y-75922830D01*
X155022549Y-76000879D01*
X155000193Y-76066759D01*
X154986007Y-76114473D01*
X154982293Y-76138027D01*
X154982602Y-76138852D01*
X154995189Y-76158104D01*
X155023744Y-76200463D01*
X155065267Y-76261521D01*
X155116756Y-76336868D01*
X155175211Y-76422096D01*
X155191858Y-76446315D01*
X155251215Y-76534123D01*
X155303447Y-76614238D01*
X155345708Y-76682062D01*
X155375153Y-76732993D01*
X155388937Y-76762431D01*
X155389605Y-76766048D01*
X155378024Y-76785057D01*
X155346024Y-76822714D01*
X155297718Y-76874973D01*
X155237220Y-76937786D01*
X155168644Y-77007106D01*
X155096104Y-77078885D01*
X155023712Y-77149077D01*
X154955584Y-77213635D01*
X154895832Y-77268510D01*
X154848571Y-77309656D01*
X154817913Y-77333026D01*
X154809432Y-77336842D01*
X154789691Y-77327855D01*
X154749274Y-77303616D01*
X154694763Y-77268209D01*
X154652823Y-77239711D01*
X154576829Y-77187418D01*
X154486834Y-77125845D01*
X154396564Y-77064370D01*
X154348032Y-77031469D01*
X154183762Y-76920359D01*
X154045869Y-76994916D01*
X153983049Y-77027578D01*
X153929629Y-77052966D01*
X153893484Y-77067446D01*
X153884284Y-77069460D01*
X153873221Y-77054584D01*
X153851394Y-77012547D01*
X153820434Y-76947227D01*
X153781970Y-76862500D01*
X153737632Y-76762245D01*
X153689047Y-76650339D01*
X153637846Y-76530659D01*
X153585659Y-76407084D01*
X153534113Y-76283491D01*
X153484840Y-76163757D01*
X153439467Y-76051759D01*
X153399625Y-75951377D01*
X153366942Y-75866486D01*
X153343049Y-75800965D01*
X153329574Y-75758690D01*
X153327406Y-75744172D01*
X153344583Y-75725653D01*
X153382190Y-75695590D01*
X153432366Y-75660232D01*
X153436578Y-75657434D01*
X153566264Y-75553625D01*
X153670834Y-75432515D01*
X153749381Y-75297976D01*
X153800999Y-75153882D01*
X153824782Y-75004105D01*
X153819823Y-74852517D01*
X153785217Y-74702992D01*
X153720057Y-74559400D01*
X153700886Y-74527984D01*
X153601174Y-74401125D01*
X153483377Y-74299255D01*
X153351571Y-74222904D01*
X153209833Y-74172602D01*
X153062242Y-74148879D01*
X152912873Y-74152265D01*
X152765803Y-74183288D01*
X152625111Y-74242480D01*
X152494873Y-74330369D01*
X152454586Y-74366042D01*
X152352055Y-74477706D01*
X152277341Y-74595257D01*
X152226090Y-74727020D01*
X152197546Y-74857507D01*
X152190500Y-75004216D01*
X152213996Y-75151653D01*
X152265649Y-75294834D01*
X152343071Y-75428777D01*
X152443875Y-75548498D01*
X152565676Y-75649014D01*
X152581684Y-75659609D01*
X152632398Y-75694306D01*
X152670950Y-75724370D01*
X152689381Y-75743565D01*
X152689649Y-75744172D01*
X152685692Y-75764936D01*
X152670007Y-75812062D01*
X152644222Y-75881673D01*
X152609969Y-75969893D01*
X152568877Y-76072844D01*
X152522576Y-76186650D01*
X152472696Y-76307435D01*
X152420867Y-76431321D01*
X152368719Y-76554432D01*
X152317882Y-76672891D01*
X152269987Y-76782823D01*
X152226662Y-76880349D01*
X152189538Y-76961593D01*
X152160244Y-77022679D01*
X152140412Y-77059730D01*
X152132426Y-77069460D01*
X152108021Y-77061883D01*
X152062358Y-77041560D01*
X152003310Y-77012125D01*
X151970840Y-76994916D01*
X151832947Y-76920359D01*
X151668677Y-77031469D01*
X151584821Y-77088390D01*
X151493013Y-77151030D01*
X151406980Y-77210011D01*
X151363887Y-77239711D01*
X151303277Y-77280410D01*
X151251955Y-77312663D01*
X151216615Y-77332384D01*
X151205137Y-77336554D01*
X151188430Y-77325307D01*
X151151454Y-77293911D01*
X151097795Y-77245624D01*
X151031038Y-77183708D01*
X150954766Y-77111421D01*
X150906527Y-77065008D01*
X150822133Y-76982087D01*
X150749197Y-76907920D01*
X150690669Y-76845680D01*
X150649497Y-76798541D01*
X150628628Y-76769673D01*
X150626626Y-76763815D01*
X150635917Y-76741532D01*
X150661591Y-76696477D01*
X150700800Y-76633211D01*
X150750697Y-76556295D01*
X150808433Y-76470292D01*
X150824851Y-76446315D01*
X150884677Y-76359170D01*
X150938350Y-76280710D01*
X150982870Y-76215345D01*
X151015235Y-76167484D01*
X151032445Y-76141535D01*
X151034107Y-76138852D01*
X151031621Y-76118172D01*
X151018423Y-76072704D01*
X150996814Y-76008444D01*
X150969096Y-75931387D01*
X150937570Y-75847529D01*
X150904537Y-75762866D01*
X150872299Y-75683392D01*
X150843157Y-75615104D01*
X150819412Y-75563997D01*
X150803365Y-75536067D01*
X150802225Y-75534727D01*
X150792412Y-75526745D01*
X150775839Y-75518851D01*
X150748868Y-75510229D01*
X150707861Y-75500062D01*
X150649180Y-75487531D01*
X150569187Y-75471821D01*
X150464245Y-75452113D01*
X150330715Y-75427592D01*
X150301804Y-75422319D01*
X150216118Y-75405764D01*
X150141418Y-75389569D01*
X150084306Y-75375296D01*
X150051383Y-75364508D01*
X150046969Y-75361993D01*
X150039694Y-75339696D01*
X150033781Y-75289869D01*
X150029234Y-75218304D01*
X150026055Y-75130793D01*
X150024251Y-75033128D01*
X150023823Y-74931101D01*
X150024777Y-74830503D01*
X150027116Y-74737127D01*
X150030844Y-74656765D01*
X150035966Y-74595209D01*
X150042484Y-74558250D01*
X150046414Y-74550686D01*
X150068292Y-74543056D01*
X150118109Y-74530642D01*
X150190903Y-74514522D01*
X150281711Y-74495773D01*
X150385569Y-74475471D01*
X150442154Y-74464830D01*
X150549514Y-74444760D01*
X150645254Y-74426580D01*
X150724694Y-74411199D01*
X150783154Y-74399531D01*
X150815955Y-74392488D01*
X150821354Y-74390926D01*
X150830478Y-74373322D01*
X150849765Y-74330918D01*
X150876645Y-74269772D01*
X150908546Y-74195943D01*
X150942898Y-74115489D01*
X150977129Y-74034468D01*
X151008669Y-73958937D01*
X151034946Y-73894955D01*
X151053389Y-73848580D01*
X151061429Y-73825869D01*
X151061578Y-73824876D01*
X151052465Y-73806961D01*
X151026914Y-73765733D01*
X150987612Y-73705291D01*
X150937243Y-73629731D01*
X150878494Y-73543152D01*
X150844342Y-73493421D01*
X150782110Y-73402236D01*
X150726836Y-73319449D01*
X150681218Y-73249249D01*
X150647952Y-73195824D01*
X150629736Y-73163361D01*
X150627105Y-73156083D01*
X150638414Y-73139145D01*
X150669681Y-73102978D01*
X150716910Y-73051635D01*
X150776108Y-72989167D01*
X150843281Y-72919626D01*
X150914434Y-72847065D01*
X150985574Y-72775535D01*
X151052707Y-72709087D01*
X151111839Y-72651774D01*
X151158975Y-72607647D01*
X151190123Y-72580759D01*
X151200543Y-72574342D01*
X151217509Y-72583365D01*
X151258089Y-72608715D01*
X151318337Y-72647810D01*
X151394307Y-72698071D01*
X151482054Y-72756917D01*
X151548244Y-72801748D01*
X151882668Y-73029154D01*
X152161433Y-72914238D01*
X152440197Y-72799322D01*
X152515746Y-72398576D01*
X152591294Y-71997829D01*
X153425415Y-71997829D01*
X153500964Y-72398576D01*
G37*
X153500964Y-72398576D02*
X153576513Y-72799322D01*
X154134041Y-73029154D01*
X154468465Y-72801748D01*
X154562122Y-72738431D01*
X154646782Y-72681896D01*
X154718495Y-72634727D01*
X154773311Y-72599502D01*
X154807280Y-72578805D01*
X154816530Y-72574342D01*
X154833195Y-72585820D01*
X154868806Y-72617551D01*
X154919371Y-72665483D01*
X154980900Y-72725562D01*
X155049399Y-72793733D01*
X155120879Y-72865945D01*
X155191347Y-72938142D01*
X155256811Y-73006273D01*
X155313280Y-73066283D01*
X155356763Y-73114119D01*
X155383268Y-73145727D01*
X155389605Y-73156305D01*
X155380486Y-73175806D01*
X155354920Y-73218531D01*
X155315597Y-73280298D01*
X155265203Y-73356931D01*
X155206427Y-73444248D01*
X155172368Y-73494052D01*
X155110289Y-73584993D01*
X155055126Y-73667059D01*
X155009554Y-73736163D01*
X154976250Y-73788222D01*
X154957890Y-73819150D01*
X154955131Y-73825650D01*
X154961385Y-73844121D01*
X154978434Y-73887172D01*
X155003703Y-73948749D01*
X155034622Y-74022799D01*
X155068618Y-74103270D01*
X155103118Y-74184107D01*
X155135551Y-74259258D01*
X155163343Y-74322671D01*
X155183923Y-74368293D01*
X155194719Y-74390069D01*
X155195356Y-74390926D01*
X155212307Y-74395084D01*
X155257451Y-74404361D01*
X155326110Y-74417844D01*
X155413602Y-74434621D01*
X155515250Y-74453781D01*
X155574556Y-74464830D01*
X155683172Y-74485510D01*
X155781277Y-74505189D01*
X155863909Y-74522789D01*
X155926104Y-74537233D01*
X155962899Y-74547446D01*
X155970296Y-74550686D01*
X155977540Y-74572617D01*
X155983385Y-74622147D01*
X155987835Y-74693485D01*
X155990893Y-74780839D01*
X155992565Y-74878417D01*
X155992853Y-74980426D01*
X155991761Y-75081075D01*
X155989294Y-75174572D01*
X155985456Y-75255125D01*
X155980250Y-75316942D01*
X155973681Y-75354230D01*
X155969741Y-75361993D01*
X155946188Y-75371298D01*
X155896282Y-75384600D01*
X155826623Y-75400337D01*
X155743813Y-75416946D01*
X155714905Y-75422319D01*
X155575531Y-75447848D01*
X155465436Y-75468408D01*
X155380982Y-75484815D01*
X155318530Y-75497887D01*
X155274444Y-75508441D01*
X155245085Y-75517294D01*
X155226815Y-75525263D01*
X155215998Y-75533165D01*
X155214485Y-75534727D01*
X155199377Y-75559886D01*
X155176329Y-75608850D01*
X155147644Y-75675621D01*
X155115622Y-75754205D01*
X155082565Y-75838607D01*
X155050773Y-75922830D01*
X155022549Y-76000879D01*
X155000193Y-76066759D01*
X154986007Y-76114473D01*
X154982293Y-76138027D01*
X154982602Y-76138852D01*
X154995189Y-76158104D01*
X155023744Y-76200463D01*
X155065267Y-76261521D01*
X155116756Y-76336868D01*
X155175211Y-76422096D01*
X155191858Y-76446315D01*
X155251215Y-76534123D01*
X155303447Y-76614238D01*
X155345708Y-76682062D01*
X155375153Y-76732993D01*
X155388937Y-76762431D01*
X155389605Y-76766048D01*
X155378024Y-76785057D01*
X155346024Y-76822714D01*
X155297718Y-76874973D01*
X155237220Y-76937786D01*
X155168644Y-77007106D01*
X155096104Y-77078885D01*
X155023712Y-77149077D01*
X154955584Y-77213635D01*
X154895832Y-77268510D01*
X154848571Y-77309656D01*
X154817913Y-77333026D01*
X154809432Y-77336842D01*
X154789691Y-77327855D01*
X154749274Y-77303616D01*
X154694763Y-77268209D01*
X154652823Y-77239711D01*
X154576829Y-77187418D01*
X154486834Y-77125845D01*
X154396564Y-77064370D01*
X154348032Y-77031469D01*
X154183762Y-76920359D01*
X154045869Y-76994916D01*
X153983049Y-77027578D01*
X153929629Y-77052966D01*
X153893484Y-77067446D01*
X153884284Y-77069460D01*
X153873221Y-77054584D01*
X153851394Y-77012547D01*
X153820434Y-76947227D01*
X153781970Y-76862500D01*
X153737632Y-76762245D01*
X153689047Y-76650339D01*
X153637846Y-76530659D01*
X153585659Y-76407084D01*
X153534113Y-76283491D01*
X153484840Y-76163757D01*
X153439467Y-76051759D01*
X153399625Y-75951377D01*
X153366942Y-75866486D01*
X153343049Y-75800965D01*
X153329574Y-75758690D01*
X153327406Y-75744172D01*
X153344583Y-75725653D01*
X153382190Y-75695590D01*
X153432366Y-75660232D01*
X153436578Y-75657434D01*
X153566264Y-75553625D01*
X153670834Y-75432515D01*
X153749381Y-75297976D01*
X153800999Y-75153882D01*
X153824782Y-75004105D01*
X153819823Y-74852517D01*
X153785217Y-74702992D01*
X153720057Y-74559400D01*
X153700886Y-74527984D01*
X153601174Y-74401125D01*
X153483377Y-74299255D01*
X153351571Y-74222904D01*
X153209833Y-74172602D01*
X153062242Y-74148879D01*
X152912873Y-74152265D01*
X152765803Y-74183288D01*
X152625111Y-74242480D01*
X152494873Y-74330369D01*
X152454586Y-74366042D01*
X152352055Y-74477706D01*
X152277341Y-74595257D01*
X152226090Y-74727020D01*
X152197546Y-74857507D01*
X152190500Y-75004216D01*
X152213996Y-75151653D01*
X152265649Y-75294834D01*
X152343071Y-75428777D01*
X152443875Y-75548498D01*
X152565676Y-75649014D01*
X152581684Y-75659609D01*
X152632398Y-75694306D01*
X152670950Y-75724370D01*
X152689381Y-75743565D01*
X152689649Y-75744172D01*
X152685692Y-75764936D01*
X152670007Y-75812062D01*
X152644222Y-75881673D01*
X152609969Y-75969893D01*
X152568877Y-76072844D01*
X152522576Y-76186650D01*
X152472696Y-76307435D01*
X152420867Y-76431321D01*
X152368719Y-76554432D01*
X152317882Y-76672891D01*
X152269987Y-76782823D01*
X152226662Y-76880349D01*
X152189538Y-76961593D01*
X152160244Y-77022679D01*
X152140412Y-77059730D01*
X152132426Y-77069460D01*
X152108021Y-77061883D01*
X152062358Y-77041560D01*
X152003310Y-77012125D01*
X151970840Y-76994916D01*
X151832947Y-76920359D01*
X151668677Y-77031469D01*
X151584821Y-77088390D01*
X151493013Y-77151030D01*
X151406980Y-77210011D01*
X151363887Y-77239711D01*
X151303277Y-77280410D01*
X151251955Y-77312663D01*
X151216615Y-77332384D01*
X151205137Y-77336554D01*
X151188430Y-77325307D01*
X151151454Y-77293911D01*
X151097795Y-77245624D01*
X151031038Y-77183708D01*
X150954766Y-77111421D01*
X150906527Y-77065008D01*
X150822133Y-76982087D01*
X150749197Y-76907920D01*
X150690669Y-76845680D01*
X150649497Y-76798541D01*
X150628628Y-76769673D01*
X150626626Y-76763815D01*
X150635917Y-76741532D01*
X150661591Y-76696477D01*
X150700800Y-76633211D01*
X150750697Y-76556295D01*
X150808433Y-76470292D01*
X150824851Y-76446315D01*
X150884677Y-76359170D01*
X150938350Y-76280710D01*
X150982870Y-76215345D01*
X151015235Y-76167484D01*
X151032445Y-76141535D01*
X151034107Y-76138852D01*
X151031621Y-76118172D01*
X151018423Y-76072704D01*
X150996814Y-76008444D01*
X150969096Y-75931387D01*
X150937570Y-75847529D01*
X150904537Y-75762866D01*
X150872299Y-75683392D01*
X150843157Y-75615104D01*
X150819412Y-75563997D01*
X150803365Y-75536067D01*
X150802225Y-75534727D01*
X150792412Y-75526745D01*
X150775839Y-75518851D01*
X150748868Y-75510229D01*
X150707861Y-75500062D01*
X150649180Y-75487531D01*
X150569187Y-75471821D01*
X150464245Y-75452113D01*
X150330715Y-75427592D01*
X150301804Y-75422319D01*
X150216118Y-75405764D01*
X150141418Y-75389569D01*
X150084306Y-75375296D01*
X150051383Y-75364508D01*
X150046969Y-75361993D01*
X150039694Y-75339696D01*
X150033781Y-75289869D01*
X150029234Y-75218304D01*
X150026055Y-75130793D01*
X150024251Y-75033128D01*
X150023823Y-74931101D01*
X150024777Y-74830503D01*
X150027116Y-74737127D01*
X150030844Y-74656765D01*
X150035966Y-74595209D01*
X150042484Y-74558250D01*
X150046414Y-74550686D01*
X150068292Y-74543056D01*
X150118109Y-74530642D01*
X150190903Y-74514522D01*
X150281711Y-74495773D01*
X150385569Y-74475471D01*
X150442154Y-74464830D01*
X150549514Y-74444760D01*
X150645254Y-74426580D01*
X150724694Y-74411199D01*
X150783154Y-74399531D01*
X150815955Y-74392488D01*
X150821354Y-74390926D01*
X150830478Y-74373322D01*
X150849765Y-74330918D01*
X150876645Y-74269772D01*
X150908546Y-74195943D01*
X150942898Y-74115489D01*
X150977129Y-74034468D01*
X151008669Y-73958937D01*
X151034946Y-73894955D01*
X151053389Y-73848580D01*
X151061429Y-73825869D01*
X151061578Y-73824876D01*
X151052465Y-73806961D01*
X151026914Y-73765733D01*
X150987612Y-73705291D01*
X150937243Y-73629731D01*
X150878494Y-73543152D01*
X150844342Y-73493421D01*
X150782110Y-73402236D01*
X150726836Y-73319449D01*
X150681218Y-73249249D01*
X150647952Y-73195824D01*
X150629736Y-73163361D01*
X150627105Y-73156083D01*
X150638414Y-73139145D01*
X150669681Y-73102978D01*
X150716910Y-73051635D01*
X150776108Y-72989167D01*
X150843281Y-72919626D01*
X150914434Y-72847065D01*
X150985574Y-72775535D01*
X151052707Y-72709087D01*
X151111839Y-72651774D01*
X151158975Y-72607647D01*
X151190123Y-72580759D01*
X151200543Y-72574342D01*
X151217509Y-72583365D01*
X151258089Y-72608715D01*
X151318337Y-72647810D01*
X151394307Y-72698071D01*
X151482054Y-72756917D01*
X151548244Y-72801748D01*
X151882668Y-73029154D01*
X152161433Y-72914238D01*
X152440197Y-72799322D01*
X152515746Y-72398576D01*
X152591294Y-71997829D01*
X153425415Y-71997829D01*
X153500964Y-72398576D01*
D12*
X179460000Y-56920000D02*
X179460000Y-65175000D01*
X188350000Y-65175000D02*
X188350000Y-56920000D01*
X179460000Y-56920000D02*
X188350000Y-56920000D01*
X179460000Y-65175000D02*
X188350000Y-65175000D01*
X168275000Y-92075000D02*
X173355000Y-86995000D01*
X173355000Y-97155000D02*
X168275000Y-92075000D01*
X178435000Y-92075000D02*
X173355000Y-97155000D01*
X173355000Y-86995000D02*
X178435000Y-92075000D01*
X163830000Y-94615000D02*
X163830000Y-88900000D01*
X167640000Y-88900000D02*
X167640000Y-94615000D01*
X160020000Y-90170000D02*
X161290000Y-90170000D01*
X160020000Y-93345000D02*
X160020000Y-90170000D01*
X161290000Y-93345000D02*
X160020000Y-93345000D01*
X161290000Y-90170000D02*
X161290000Y-93345000D01*
X159385000Y-94615000D02*
X159385000Y-88900000D01*
X161925000Y-94615000D02*
X159385000Y-94615000D01*
X161925000Y-88900000D02*
X161925000Y-94615000D01*
X159385000Y-88900000D02*
X161925000Y-88900000D01*
D10*
X155575000Y-83185000D02*
X155575000Y-100965000D01*
X188595000Y-83185000D02*
X155575000Y-83185000D01*
X155575000Y-100965000D02*
X188595000Y-100965000D01*
X188595000Y-83185000D02*
X188595000Y-100965000D01*
D12*
X167640000Y-94615000D02*
G75*
G02*
X163830000Y-94615000I-1905000J0D01*
G01*
X163830000Y-88900000D02*
G75*
G02*
X167640000Y-88900000I1905000J0D01*
G01*
X172820000Y-55010000D02*
X173320000Y-56010000D01*
X173820000Y-55010000D02*
X172820000Y-55010000D01*
X173320000Y-56010000D02*
X173820000Y-55010000D01*
X150950000Y-57710000D02*
X150950000Y-56400000D01*
X150950000Y-57710000D02*
X150950000Y-57710000D01*
X128770000Y-57710000D02*
X150950000Y-57710000D01*
X128770000Y-64210000D02*
X128770000Y-57710000D01*
X177230000Y-64210000D02*
X128770000Y-64210000D01*
X177230000Y-57710000D02*
X177230000Y-64210000D01*
X155050000Y-57710000D02*
X177230000Y-57710000D01*
X155050000Y-56400000D02*
X155050000Y-57710000D01*
X127470000Y-56400000D02*
X178530000Y-56400000D01*
X127470000Y-65520000D02*
X127470000Y-56400000D01*
X178530000Y-65520000D02*
X127470000Y-65520000D01*
X178530000Y-56400000D02*
X178530000Y-65520000D01*
X126520000Y-70115000D02*
X123920000Y-70115000D01*
X126520000Y-55415000D02*
X126520000Y-70115000D01*
X117320000Y-70115000D02*
X117320000Y-68215000D01*
X120020000Y-70115000D02*
X117320000Y-70115000D01*
X117320000Y-55415000D02*
X126520000Y-55415000D01*
X117320000Y-64215000D02*
X117320000Y-55415000D01*
X126720000Y-69265000D02*
X126720000Y-70315000D01*
X125670000Y-70315000D02*
X126720000Y-70315000D01*
D10*
X191770000Y-92964000D02*
X191516000Y-92964000D01*
X194564000Y-95250000D02*
X194564000Y-88900000D01*
X194564000Y-88900000D02*
X191516000Y-88900000D01*
X191770000Y-89408000D02*
X191516000Y-89408000D01*
X191516000Y-89408000D02*
X191516000Y-92964000D01*
X191516000Y-93472000D02*
X191516000Y-95250000D01*
X191516000Y-95250000D02*
X194564000Y-95250000D01*
X118745000Y-75311000D02*
X118745000Y-78359000D01*
X120523000Y-75311000D02*
X118745000Y-75311000D01*
X124587000Y-75311000D02*
X121031000Y-75311000D01*
X124587000Y-75565000D02*
X124587000Y-75311000D01*
X125095000Y-78359000D02*
X125095000Y-75311000D01*
X118745000Y-78359000D02*
X125095000Y-78359000D01*
X121031000Y-75565000D02*
X121031000Y-75311000D01*
D12*
X137390000Y-76835000D02*
X136620000Y-76835000D01*
X129310000Y-76835000D02*
X130080000Y-76835000D01*
X136620000Y-75465000D02*
X130080000Y-75465000D01*
X136620000Y-78205000D02*
X136620000Y-75465000D01*
X130080000Y-78205000D02*
X136620000Y-78205000D01*
X130080000Y-75465000D02*
X130080000Y-78205000D01*
X127960000Y-94615000D02*
X135580000Y-94615000D01*
X127960000Y-89535000D02*
X127960000Y-94615000D01*
X135580000Y-89535000D02*
X127960000Y-89535000D01*
X135580000Y-94615000D02*
X135580000Y-89535000D01*
D13*
G36*
X138755000Y-92075000D02*
G01*
X138755000Y-92202000D01*
X138882000Y-92456000D01*
X139009000Y-92583000D01*
X139263000Y-92710000D01*
X139517000Y-92710000D01*
X139771000Y-92583000D01*
X140025000Y-92329000D01*
X140025000Y-94361000D01*
X139771000Y-94107000D01*
X139517000Y-93980000D01*
X139263000Y-93980000D01*
X139009000Y-94107000D01*
X138882000Y-94234000D01*
X138755000Y-94361000D01*
X138755000Y-94488000D01*
X138755000Y-94615000D01*
X138120000Y-94615000D01*
X138120000Y-92075000D01*
X138755000Y-92075000D01*
G37*
X138755000Y-92075000D02*
X138755000Y-92202000D01*
X138882000Y-92456000D01*
X139009000Y-92583000D01*
X139263000Y-92710000D01*
X139517000Y-92710000D01*
X139771000Y-92583000D01*
X140025000Y-92329000D01*
X140025000Y-94361000D01*
X139771000Y-94107000D01*
X139517000Y-93980000D01*
X139263000Y-93980000D01*
X139009000Y-94107000D01*
X138882000Y-94234000D01*
X138755000Y-94361000D01*
X138755000Y-94488000D01*
X138755000Y-94615000D01*
X138120000Y-94615000D01*
X138120000Y-92075000D01*
X138755000Y-92075000D01*
G36*
X138755000Y-94615000D02*
G01*
X138755000Y-94767400D01*
X138882000Y-94996000D01*
X139009000Y-95123000D01*
X139263000Y-95250000D01*
X139517000Y-95250000D01*
X139771000Y-95123000D01*
X140025000Y-94869000D01*
X140025000Y-95885000D01*
X138120000Y-95885000D01*
X138120000Y-94615000D01*
X138755000Y-94615000D01*
G37*
X138755000Y-94615000D02*
X138755000Y-94767400D01*
X138882000Y-94996000D01*
X139009000Y-95123000D01*
X139263000Y-95250000D01*
X139517000Y-95250000D01*
X139771000Y-95123000D01*
X140025000Y-94869000D01*
X140025000Y-95885000D01*
X138120000Y-95885000D01*
X138120000Y-94615000D01*
X138755000Y-94615000D01*
G36*
X140660000Y-90805000D02*
G01*
X140660000Y-95885000D01*
X140025000Y-95885000D01*
X140025000Y-91821000D01*
X139771000Y-91567000D01*
X139517000Y-91440000D01*
X139263000Y-91440000D01*
X139136000Y-91440000D01*
X138882000Y-91694000D01*
X138780400Y-91744800D01*
X138729600Y-91897200D01*
X138755000Y-92075000D01*
X138120000Y-92075000D01*
X138120000Y-90805000D01*
X140660000Y-90805000D01*
G37*
X140660000Y-90805000D02*
X140660000Y-95885000D01*
X140025000Y-95885000D01*
X140025000Y-91821000D01*
X139771000Y-91567000D01*
X139517000Y-91440000D01*
X139263000Y-91440000D01*
X139136000Y-91440000D01*
X138882000Y-91694000D01*
X138780400Y-91744800D01*
X138729600Y-91897200D01*
X138755000Y-92075000D01*
X138120000Y-92075000D01*
X138120000Y-90805000D01*
X140660000Y-90805000D01*
D12*
X141295000Y-96520000D02*
X137485000Y-96520000D01*
X141295000Y-88265000D02*
X141295000Y-96520000D01*
X137485000Y-88265000D02*
X141295000Y-88265000D01*
X137485000Y-96520000D02*
X137485000Y-88265000D01*
X140660000Y-90805000D02*
X138120000Y-90805000D01*
X140660000Y-95885000D02*
X140660000Y-90805000D01*
X138120000Y-95885000D02*
X140660000Y-95885000D01*
X138120000Y-90805000D02*
X138120000Y-95885000D01*
X140025000Y-94615000D02*
G75*
G03*
X140025000Y-94615000I-635000J0D01*
G01*
X140025000Y-92075000D02*
G75*
G03*
X140025000Y-92075000I-635000J0D01*
G01*
X140025000Y-89535000D02*
G75*
G03*
X140025000Y-89535000I-635000J0D01*
G01*
X116530000Y-95885000D02*
X108275000Y-95885000D01*
X116530000Y-88265000D02*
X116530000Y-95885000D01*
X108275000Y-88265000D02*
X116530000Y-88265000D01*
D10*
X108275000Y-88265000D02*
X108275000Y-83185000D01*
X107640000Y-88265000D02*
X108275000Y-88265000D01*
X107640000Y-95885000D02*
X107640000Y-88265000D01*
X108275000Y-95885000D02*
X107640000Y-95885000D01*
X108275000Y-100965000D02*
X108275000Y-95885000D01*
X144470000Y-83185000D02*
X108275000Y-83185000D01*
X108275000Y-100965000D02*
X144470000Y-100965000D01*
X144470000Y-100965000D02*
X144470000Y-83185000D01*
D12*
X192170000Y-72330000D02*
X194830000Y-72330000D01*
X192170000Y-72270000D02*
X192170000Y-72330000D01*
X194830000Y-72270000D02*
X194830000Y-72330000D01*
X192170000Y-72270000D02*
X194830000Y-72270000D01*
X192170000Y-71000000D02*
X192170000Y-69670000D01*
X192170000Y-69670000D02*
X193500000Y-69670000D01*
D10*
X181911666Y-54062380D02*
X181911666Y-54776666D01*
X181864047Y-54919523D01*
X181768809Y-55014761D01*
X181625952Y-55062380D01*
X181530714Y-55062380D01*
X182292619Y-54062380D02*
X182911666Y-54062380D01*
X182578333Y-54443333D01*
X182721190Y-54443333D01*
X182816428Y-54490952D01*
X182864047Y-54538571D01*
X182911666Y-54633809D01*
X182911666Y-54871904D01*
X182864047Y-54967142D01*
X182816428Y-55014761D01*
X182721190Y-55062380D01*
X182435476Y-55062380D01*
X182340238Y-55014761D01*
X182292619Y-54967142D01*
X173521666Y-92789285D02*
X173521666Y-92313095D01*
X173807380Y-92884523D02*
X172807380Y-92551190D01*
X173807380Y-92217857D01*
X173807380Y-91360714D02*
X173807380Y-91932142D01*
X173807380Y-91646428D02*
X172807380Y-91646428D01*
X172950238Y-91741666D01*
X173045476Y-91836904D01*
X173093095Y-91932142D01*
X183046666Y-98194047D02*
X183046666Y-97717857D01*
X183332380Y-98289285D02*
X182332380Y-97955952D01*
X183332380Y-97622619D01*
X183332380Y-97289285D02*
X182665714Y-97289285D01*
X182856190Y-97289285D02*
X182760952Y-97241666D01*
X182713333Y-97194047D01*
X182665714Y-97098809D01*
X182665714Y-97003571D01*
X183332380Y-96241666D02*
X182332380Y-96241666D01*
X183284761Y-96241666D02*
X183332380Y-96336904D01*
X183332380Y-96527380D01*
X183284761Y-96622619D01*
X183237142Y-96670238D01*
X183141904Y-96717857D01*
X182856190Y-96717857D01*
X182760952Y-96670238D01*
X182713333Y-96622619D01*
X182665714Y-96527380D01*
X182665714Y-96336904D01*
X182713333Y-96241666D01*
X182665714Y-95336904D02*
X183332380Y-95336904D01*
X182665714Y-95765476D02*
X183189523Y-95765476D01*
X183284761Y-95717857D01*
X183332380Y-95622619D01*
X183332380Y-95479761D01*
X183284761Y-95384523D01*
X183237142Y-95336904D01*
X183332380Y-94860714D02*
X182665714Y-94860714D01*
X182332380Y-94860714D02*
X182380000Y-94908333D01*
X182427619Y-94860714D01*
X182380000Y-94813095D01*
X182332380Y-94860714D01*
X182427619Y-94860714D01*
X182665714Y-94384523D02*
X183332380Y-94384523D01*
X182760952Y-94384523D02*
X182713333Y-94336904D01*
X182665714Y-94241666D01*
X182665714Y-94098809D01*
X182713333Y-94003571D01*
X182808571Y-93955952D01*
X183332380Y-93955952D01*
X183332380Y-93336904D02*
X183284761Y-93432142D01*
X183237142Y-93479761D01*
X183141904Y-93527380D01*
X182856190Y-93527380D01*
X182760952Y-93479761D01*
X182713333Y-93432142D01*
X182665714Y-93336904D01*
X182665714Y-93194047D01*
X182713333Y-93098809D01*
X182760952Y-93051190D01*
X182856190Y-93003571D01*
X183141904Y-93003571D01*
X183237142Y-93051190D01*
X183284761Y-93098809D01*
X183332380Y-93194047D01*
X183332380Y-93336904D01*
X183427619Y-92813095D02*
X183427619Y-92051190D01*
X183332380Y-91813095D02*
X182332380Y-91813095D01*
X182332380Y-91432142D01*
X182380000Y-91336904D01*
X182427619Y-91289285D01*
X182522857Y-91241666D01*
X182665714Y-91241666D01*
X182760952Y-91289285D01*
X182808571Y-91336904D01*
X182856190Y-91432142D01*
X182856190Y-91813095D01*
X183332380Y-90813095D02*
X182665714Y-90813095D01*
X182856190Y-90813095D02*
X182760952Y-90765476D01*
X182713333Y-90717857D01*
X182665714Y-90622619D01*
X182665714Y-90527380D01*
X183332380Y-90051190D02*
X183284761Y-90146428D01*
X183237142Y-90194047D01*
X183141904Y-90241666D01*
X182856190Y-90241666D01*
X182760952Y-90194047D01*
X182713333Y-90146428D01*
X182665714Y-90051190D01*
X182665714Y-89908333D01*
X182713333Y-89813095D01*
X182760952Y-89765476D01*
X182856190Y-89717857D01*
X183141904Y-89717857D01*
X183237142Y-89765476D01*
X183284761Y-89813095D01*
X183332380Y-89908333D01*
X183332380Y-90051190D01*
X183427619Y-89527380D02*
X183427619Y-88765476D01*
X183332380Y-88527380D02*
X182332380Y-88527380D01*
X183046666Y-88194047D01*
X182332380Y-87860714D01*
X183332380Y-87860714D01*
X183332380Y-87384523D02*
X182665714Y-87384523D01*
X182332380Y-87384523D02*
X182380000Y-87432142D01*
X182427619Y-87384523D01*
X182380000Y-87336904D01*
X182332380Y-87384523D01*
X182427619Y-87384523D01*
X182665714Y-86908333D02*
X183332380Y-86908333D01*
X182760952Y-86908333D02*
X182713333Y-86860714D01*
X182665714Y-86765476D01*
X182665714Y-86622619D01*
X182713333Y-86527380D01*
X182808571Y-86479761D01*
X183332380Y-86479761D01*
X183332380Y-86003571D02*
X182665714Y-86003571D01*
X182332380Y-86003571D02*
X182380000Y-86051190D01*
X182427619Y-86003571D01*
X182380000Y-85955952D01*
X182332380Y-86003571D01*
X182427619Y-86003571D01*
X181427380Y-95313095D02*
X180427380Y-95313095D01*
X180427380Y-94932142D01*
X180475000Y-94836904D01*
X180522619Y-94789285D01*
X180617857Y-94741666D01*
X180760714Y-94741666D01*
X180855952Y-94789285D01*
X180903571Y-94836904D01*
X180951190Y-94932142D01*
X180951190Y-95313095D01*
X181427380Y-93741666D02*
X180951190Y-94075000D01*
X181427380Y-94313095D02*
X180427380Y-94313095D01*
X180427380Y-93932142D01*
X180475000Y-93836904D01*
X180522619Y-93789285D01*
X180617857Y-93741666D01*
X180760714Y-93741666D01*
X180855952Y-93789285D01*
X180903571Y-93836904D01*
X180951190Y-93932142D01*
X180951190Y-94313095D01*
X180427380Y-93122619D02*
X180427380Y-92932142D01*
X180475000Y-92836904D01*
X180570238Y-92741666D01*
X180760714Y-92694047D01*
X181094047Y-92694047D01*
X181284523Y-92741666D01*
X181379761Y-92836904D01*
X181427380Y-92932142D01*
X181427380Y-93122619D01*
X181379761Y-93217857D01*
X181284523Y-93313095D01*
X181094047Y-93360714D01*
X180760714Y-93360714D01*
X180570238Y-93313095D01*
X180475000Y-93217857D01*
X180427380Y-93122619D01*
X181427380Y-91503571D02*
X180427380Y-91503571D01*
X181141666Y-91170238D01*
X180427380Y-90836904D01*
X181427380Y-90836904D01*
X181427380Y-90360714D02*
X180427380Y-90360714D01*
X181427380Y-89884523D02*
X180427380Y-89884523D01*
X181427380Y-89313095D01*
X180427380Y-89313095D01*
X181427380Y-88836904D02*
X180427380Y-88836904D01*
X173021666Y-53427380D02*
X173021666Y-54141666D01*
X172974047Y-54284523D01*
X172878809Y-54379761D01*
X172735952Y-54427380D01*
X172640714Y-54427380D01*
X174021666Y-54427380D02*
X173450238Y-54427380D01*
X173735952Y-54427380D02*
X173735952Y-53427380D01*
X173640714Y-53570238D01*
X173545476Y-53665476D01*
X173450238Y-53713095D01*
X121586666Y-59777380D02*
X121586666Y-60491666D01*
X121539047Y-60634523D01*
X121443809Y-60729761D01*
X121300952Y-60777380D01*
X121205714Y-60777380D01*
X122015238Y-59872619D02*
X122062857Y-59825000D01*
X122158095Y-59777380D01*
X122396190Y-59777380D01*
X122491428Y-59825000D01*
X122539047Y-59872619D01*
X122586666Y-59967857D01*
X122586666Y-60063095D01*
X122539047Y-60205952D01*
X121967619Y-60777380D01*
X122586666Y-60777380D01*
X118896190Y-57602380D02*
X118896190Y-56602380D01*
X119277142Y-56602380D01*
X119372380Y-56650000D01*
X119420000Y-56697619D01*
X119467619Y-56792857D01*
X119467619Y-56935714D01*
X119420000Y-57030952D01*
X119372380Y-57078571D01*
X119277142Y-57126190D01*
X118896190Y-57126190D01*
X119800952Y-56602380D02*
X120039047Y-57602380D01*
X120229523Y-56888095D01*
X120420000Y-57602380D01*
X120658095Y-56602380D01*
X121610476Y-57602380D02*
X121277142Y-57126190D01*
X121039047Y-57602380D02*
X121039047Y-56602380D01*
X121420000Y-56602380D01*
X121515238Y-56650000D01*
X121562857Y-56697619D01*
X121610476Y-56792857D01*
X121610476Y-56935714D01*
X121562857Y-57030952D01*
X121515238Y-57078571D01*
X121420000Y-57126190D01*
X121039047Y-57126190D01*
X121800952Y-57697619D02*
X122562857Y-57697619D01*
X122800952Y-57078571D02*
X123134285Y-57078571D01*
X123277142Y-57602380D02*
X122800952Y-57602380D01*
X122800952Y-56602380D01*
X123277142Y-56602380D01*
X123610476Y-56602380D02*
X124277142Y-57602380D01*
X124277142Y-56602380D02*
X123610476Y-57602380D01*
X124515238Y-56602380D02*
X125086666Y-56602380D01*
X124800952Y-57602380D02*
X124800952Y-56602380D01*
X190666666Y-95582952D02*
X190666666Y-95106761D01*
X190952380Y-95678190D02*
X189952380Y-95344857D01*
X190952380Y-95011523D01*
X190952380Y-94106761D02*
X190476190Y-94440095D01*
X190952380Y-94678190D02*
X189952380Y-94678190D01*
X189952380Y-94297238D01*
X190000000Y-94202000D01*
X190047619Y-94154380D01*
X190142857Y-94106761D01*
X190285714Y-94106761D01*
X190380952Y-94154380D01*
X190428571Y-94202000D01*
X190476190Y-94297238D01*
X190476190Y-94678190D01*
X190952380Y-93678190D02*
X189952380Y-93678190D01*
X189952380Y-93440095D01*
X190000000Y-93297238D01*
X190095238Y-93202000D01*
X190190476Y-93154380D01*
X190380952Y-93106761D01*
X190523809Y-93106761D01*
X190714285Y-93154380D01*
X190809523Y-93202000D01*
X190904761Y-93297238D01*
X190952380Y-93440095D01*
X190952380Y-93678190D01*
X191047619Y-92916285D02*
X191047619Y-92154380D01*
X189952380Y-92059142D02*
X189952380Y-91487714D01*
X190952380Y-91773428D02*
X189952380Y-91773428D01*
X190476190Y-90963904D02*
X190952380Y-90963904D01*
X189952380Y-91297238D02*
X190476190Y-90963904D01*
X189952380Y-90630571D01*
X190952380Y-90297238D02*
X189952380Y-90297238D01*
X189952380Y-89916285D01*
X190000000Y-89821047D01*
X190047619Y-89773428D01*
X190142857Y-89725809D01*
X190285714Y-89725809D01*
X190380952Y-89773428D01*
X190428571Y-89821047D01*
X190476190Y-89916285D01*
X190476190Y-90297238D01*
X190428571Y-89297238D02*
X190428571Y-88963904D01*
X190952380Y-88821047D02*
X190952380Y-89297238D01*
X189952380Y-89297238D01*
X189952380Y-88821047D01*
X118745380Y-74747380D02*
X118745380Y-73747380D01*
X119126333Y-73747380D01*
X119221571Y-73795000D01*
X119269190Y-73842619D01*
X119316809Y-73937857D01*
X119316809Y-74080714D01*
X119269190Y-74175952D01*
X119221571Y-74223571D01*
X119126333Y-74271190D01*
X118745380Y-74271190D01*
X119650142Y-73747380D02*
X119888238Y-74747380D01*
X120078714Y-74033095D01*
X120269190Y-74747380D01*
X120507285Y-73747380D01*
X121459666Y-74747380D02*
X121126333Y-74271190D01*
X120888238Y-74747380D02*
X120888238Y-73747380D01*
X121269190Y-73747380D01*
X121364428Y-73795000D01*
X121412047Y-73842619D01*
X121459666Y-73937857D01*
X121459666Y-74080714D01*
X121412047Y-74175952D01*
X121364428Y-74223571D01*
X121269190Y-74271190D01*
X120888238Y-74271190D01*
X121650142Y-74842619D02*
X122412047Y-74842619D01*
X122602523Y-74699761D02*
X122745380Y-74747380D01*
X122983476Y-74747380D01*
X123078714Y-74699761D01*
X123126333Y-74652142D01*
X123173952Y-74556904D01*
X123173952Y-74461666D01*
X123126333Y-74366428D01*
X123078714Y-74318809D01*
X122983476Y-74271190D01*
X122793000Y-74223571D01*
X122697761Y-74175952D01*
X122650142Y-74128333D01*
X122602523Y-74033095D01*
X122602523Y-73937857D01*
X122650142Y-73842619D01*
X122697761Y-73795000D01*
X122793000Y-73747380D01*
X123031095Y-73747380D01*
X123173952Y-73795000D01*
X123602523Y-74223571D02*
X123935857Y-74223571D01*
X124078714Y-74747380D02*
X123602523Y-74747380D01*
X123602523Y-73747380D01*
X124078714Y-73747380D01*
X124983476Y-74747380D02*
X124507285Y-74747380D01*
X124507285Y-73747380D01*
X131897380Y-77001666D02*
X131421190Y-77335000D01*
X131897380Y-77573095D02*
X130897380Y-77573095D01*
X130897380Y-77192142D01*
X130945000Y-77096904D01*
X130992619Y-77049285D01*
X131087857Y-77001666D01*
X131230714Y-77001666D01*
X131325952Y-77049285D01*
X131373571Y-77096904D01*
X131421190Y-77192142D01*
X131421190Y-77573095D01*
X131897380Y-76049285D02*
X131897380Y-76620714D01*
X131897380Y-76335000D02*
X130897380Y-76335000D01*
X131040238Y-76430238D01*
X131135476Y-76525476D01*
X131183095Y-76620714D01*
X134500952Y-77287380D02*
X133929523Y-77287380D01*
X134215238Y-77287380D02*
X134215238Y-76287380D01*
X134120000Y-76430238D01*
X134024761Y-76525476D01*
X133929523Y-76573095D01*
X134929523Y-77287380D02*
X134929523Y-76287380D01*
X135024761Y-76906428D02*
X135310476Y-77287380D01*
X135310476Y-76620714D02*
X134929523Y-77001666D01*
X121776666Y-92789285D02*
X121776666Y-92313095D01*
X122062380Y-92884523D02*
X121062380Y-92551190D01*
X122062380Y-92217857D01*
X121157619Y-91932142D02*
X121110000Y-91884523D01*
X121062380Y-91789285D01*
X121062380Y-91551190D01*
X121110000Y-91455952D01*
X121157619Y-91408333D01*
X121252857Y-91360714D01*
X121348095Y-91360714D01*
X121490952Y-91408333D01*
X122062380Y-91979761D01*
X122062380Y-91360714D01*
X123443571Y-94646428D02*
X123443571Y-94979761D01*
X123967380Y-94979761D02*
X122967380Y-94979761D01*
X122967380Y-94503571D01*
X122967380Y-94265476D02*
X122967380Y-93694047D01*
X123967380Y-93979761D02*
X122967380Y-93979761D01*
X123062619Y-93408333D02*
X123015000Y-93360714D01*
X122967380Y-93265476D01*
X122967380Y-93027380D01*
X123015000Y-92932142D01*
X123062619Y-92884523D01*
X123157857Y-92836904D01*
X123253095Y-92836904D01*
X123395952Y-92884523D01*
X123967380Y-93455952D01*
X123967380Y-92836904D01*
X122967380Y-92503571D02*
X122967380Y-91884523D01*
X123348333Y-92217857D01*
X123348333Y-92075000D01*
X123395952Y-91979761D01*
X123443571Y-91932142D01*
X123538809Y-91884523D01*
X123776904Y-91884523D01*
X123872142Y-91932142D01*
X123919761Y-91979761D01*
X123967380Y-92075000D01*
X123967380Y-92360714D01*
X123919761Y-92455952D01*
X123872142Y-92503571D01*
X123062619Y-91503571D02*
X123015000Y-91455952D01*
X122967380Y-91360714D01*
X122967380Y-91122619D01*
X123015000Y-91027380D01*
X123062619Y-90979761D01*
X123157857Y-90932142D01*
X123253095Y-90932142D01*
X123395952Y-90979761D01*
X123967380Y-91551190D01*
X123967380Y-90932142D01*
X123967380Y-89932142D02*
X123491190Y-90265476D01*
X123967380Y-90503571D02*
X122967380Y-90503571D01*
X122967380Y-90122619D01*
X123015000Y-90027380D01*
X123062619Y-89979761D01*
X123157857Y-89932142D01*
X123300714Y-89932142D01*
X123395952Y-89979761D01*
X123443571Y-90027380D01*
X123491190Y-90122619D01*
X123491190Y-90503571D01*
X123967380Y-89027380D02*
X123967380Y-89503571D01*
X122967380Y-89503571D01*
X130793809Y-92003571D02*
X130460476Y-92003571D01*
X130460476Y-92527380D02*
X130460476Y-91527380D01*
X130936666Y-91527380D01*
X131174761Y-91527380D02*
X131746190Y-91527380D01*
X131460476Y-92527380D02*
X131460476Y-91527380D01*
X132079523Y-92527380D02*
X132079523Y-91527380D01*
X132317619Y-91527380D01*
X132460476Y-91575000D01*
X132555714Y-91670238D01*
X132603333Y-91765476D01*
X132650952Y-91955952D01*
X132650952Y-92098809D01*
X132603333Y-92289285D01*
X132555714Y-92384523D01*
X132460476Y-92479761D01*
X132317619Y-92527380D01*
X132079523Y-92527380D01*
X133079523Y-92527380D02*
X133079523Y-91527380D01*
X192928571Y-74112380D02*
X192357142Y-74112380D01*
X192642857Y-74112380D02*
X192642857Y-73112380D01*
X192547619Y-73255238D01*
X192452380Y-73350476D01*
X192357142Y-73398095D01*
X193309523Y-73207619D02*
X193357142Y-73160000D01*
X193452380Y-73112380D01*
X193690476Y-73112380D01*
X193785714Y-73160000D01*
X193833333Y-73207619D01*
X193880952Y-73302857D01*
X193880952Y-73398095D01*
X193833333Y-73540952D01*
X193261904Y-74112380D01*
X193880952Y-74112380D01*
X194214285Y-73445714D02*
X194452380Y-74112380D01*
X194690476Y-73445714D01*
M02*
