M48
INCH,TZ
T1C0.0157
T2C0.0315
T3C0.0394
T4C0.0598
T5C0.1200
%
G90
G05
T1
X53500Y-34750
X54375Y-34325
X57250Y-34250
X57250Y-39500
X57750Y-35000
X57750Y-38500
X58750Y-32250
X58750Y-34000
X59250Y-34035
X59250Y-32500
X65750Y-37465
X66250Y-38000
X68750Y-37465
T2
X50500Y-30250
X54500Y-30250
T3
X61750Y-33250
X61750Y-34250
X61750Y-35250
X61750Y-36250
X61750Y-37250
X61750Y-38250
X61750Y-39250
X62750Y-33250
X62750Y-39250
X63750Y-33250
X63750Y-39250
X64750Y-33250
X64750Y-39250
X65750Y-33250
X65750Y-39250
X66750Y-33250
X66750Y-39250
X67750Y-33250
X67750Y-39250
X68750Y-33250
X68750Y-39250
X69750Y-33250
X69750Y-39250
X70750Y-33250
X70750Y-39250
X71750Y-33250
X71750Y-39250
X72750Y-33250
X72750Y-39250
X73750Y-33750
X73750Y-34750
X73750Y-35750
X73750Y-36750
X73750Y-37750
X73750Y-38750
X76181Y-27953
X52236Y-23500
X52236Y-24500
X53236Y-23500
X53236Y-24500
X54236Y-23500
X54236Y-24500
X55236Y-23500
X55236Y-24500
X56236Y-23500
X56236Y-24500
X57236Y-23500
X57236Y-24500
X58236Y-23500
X58236Y-24500
X59236Y-23500
X59236Y-24500
X60236Y-23500
X60236Y-24500
X61236Y-23500
X61236Y-24500
X62236Y-23500
X62236Y-24500
X63236Y-23500
X63236Y-24500
X64236Y-23500
X64236Y-24500
X65236Y-23500
X65236Y-24500
X66236Y-23500
X66236Y-24500
X67236Y-23500
X67236Y-24500
X68236Y-23500
X68236Y-24500
X47378Y-33250
X47378Y-39250
X48378Y-33250
X48378Y-39250
X49378Y-33250
X49378Y-39250
X50378Y-33250
X50378Y-39250
X51378Y-33250
X51378Y-39250
X52378Y-33250
X52378Y-39250
X53378Y-33250
X53378Y-39250
X54378Y-33250
X54378Y-39250
X55378Y-33250
X55378Y-39250
X56378Y-33750
X56378Y-34750
X56378Y-35750
X56378Y-36750
X56378Y-37750
X56378Y-38750
T4
X71654Y-23159
X71654Y-24909
X73154Y-23159
X73154Y-24909
T5
X44291Y-51969
X76181Y-51969
X44291Y-24606
X76181Y-24606
T3
G00X46150Y-25675
M15
G01X46150Y-26463
M16
G05
G00X48394Y-24888
M15
G01X47606Y-24888
M16
G05
G00X48394Y-27250
M15
G01X47606Y-27250
M16
G05
T0
M30
