G04 #@! TF.GenerationSoftware,KiCad,Pcbnew,(5.1.8)-1*
G04 #@! TF.CreationDate,2021-11-03T22:48:26+01:00*
G04 #@! TF.ProjectId,Amiga Drawbridge,416d6967-6120-4447-9261-776272696467,rev?*
G04 #@! TF.SameCoordinates,Original*
G04 #@! TF.FileFunction,Profile,NP*
%FSLAX46Y46*%
G04 Gerber Fmt 4.6, Leading zero omitted, Abs format (unit mm)*
G04 Created by KiCad (PCBNEW (5.1.8)-1) date 2021-11-03 22:48:26*
%MOMM*%
%LPD*%
G01*
G04 APERTURE LIST*
G04 #@! TA.AperFunction,Profile*
%ADD10C,0.050000*%
G04 #@! TD*
G04 APERTURE END LIST*
D10*
X198000000Y-147300000D02*
G75*
G02*
X196300000Y-149000000I-1700000J0D01*
G01*
X196300000Y-55000000D02*
G75*
G02*
X198000000Y-56700000I0J-1700000D01*
G01*
X176500000Y-148500000D02*
X185000000Y-148500000D01*
X176500000Y-149000000D02*
X176500000Y-148500000D01*
X189000000Y-149000000D02*
X196300000Y-149000000D01*
X189000000Y-148500000D02*
X185000000Y-148500000D01*
X189000000Y-149000000D02*
X189000000Y-148500000D01*
X117000000Y-149000000D02*
X113000000Y-149000000D01*
X129000000Y-146500000D02*
X129000000Y-149000000D01*
X117000000Y-149000000D02*
G75*
G02*
X117500000Y-148500000I500000J0D01*
G01*
X126000000Y-146500000D02*
X129000000Y-146500000D01*
X124000000Y-148500000D02*
X126000000Y-146500000D01*
X117500000Y-148500000D02*
X124000000Y-148500000D01*
X113000000Y-149000000D02*
X108000000Y-144000000D01*
X189000000Y-55500000D02*
G75*
G02*
X189500000Y-55000000I500000J0D01*
G01*
X116500000Y-55000000D02*
G75*
G02*
X117000000Y-55500000I0J-500000D01*
G01*
X109700000Y-55000000D02*
X116500000Y-55000000D01*
X117000000Y-55500000D02*
X189000000Y-55500000D01*
X108000000Y-56700000D02*
G75*
G02*
X109700000Y-55000000I1700000J0D01*
G01*
X108000000Y-144000000D02*
X108000000Y-56700000D01*
X176500000Y-149000000D02*
X129000000Y-149000000D01*
X198000000Y-56700000D02*
X198000000Y-147300000D01*
X189500000Y-55000000D02*
X196300000Y-55000000D01*
M02*
