M48
INCH,TZ
T1C0.0157
T2C0.0315
T3C0.0354
T4C0.0394
T5C0.0598
T6C0.1200
%
G90
G05
T1
X53500Y-36750
X54375Y-36325
X57000Y-30750
X57250Y-35000
X57250Y-41500
X57500Y-31750
X57750Y-37000
X57750Y-40500
X58750Y-34000
X58750Y-36000
X59250Y-36035
X59500Y-32215
X59500Y-32785
X63465Y-34250
X64250Y-43500
X65750Y-39465
X66035Y-34250
X66250Y-40000
X68750Y-39465
T2
X51600Y-32000
X55600Y-32000
X46600Y-33600
X50600Y-33600
X51600Y-33600
X55600Y-33600
T3
X44291Y-31550
X44291Y-32550
X44291Y-27850
X44291Y-28850
T4
X61750Y-35250
X61750Y-36250
X61750Y-37250
X61750Y-38250
X61750Y-39250
X61750Y-40250
X61750Y-41250
X62750Y-35250
X62750Y-41250
X63750Y-35250
X63750Y-41250
X64750Y-35250
X64750Y-41250
X65750Y-35250
X65750Y-41250
X66750Y-35250
X66750Y-41250
X67750Y-35250
X67750Y-41250
X68750Y-35250
X68750Y-41250
X69750Y-35250
X69750Y-41250
X70750Y-35250
X70750Y-41250
X71750Y-35250
X71750Y-41250
X72750Y-35250
X72750Y-41250
X73750Y-35750
X73750Y-36750
X73750Y-37750
X73750Y-38750
X73750Y-39750
X73750Y-40750
X48250Y-23500
X48250Y-24500
X49250Y-23500
X49250Y-24500
X50250Y-23500
X50250Y-24500
X51250Y-23500
X51250Y-24500
X52250Y-23500
X52250Y-24500
X53250Y-23500
X53250Y-24500
X54250Y-23500
X54250Y-24500
X55250Y-23500
X55250Y-24500
X56250Y-23500
X56250Y-24500
X57250Y-23500
X57250Y-24500
X58250Y-23500
X58250Y-24500
X59250Y-23500
X59250Y-24500
X60250Y-23500
X60250Y-24500
X61250Y-23500
X61250Y-24500
X62250Y-23500
X62250Y-24500
X63250Y-23500
X63250Y-24500
X64250Y-23500
X64250Y-24500
X47378Y-35250
X47378Y-41250
X48378Y-35250
X48378Y-41250
X49378Y-35250
X49378Y-41250
X50378Y-35250
X50378Y-41250
X51378Y-35250
X51378Y-41250
X52378Y-35250
X52378Y-41250
X53378Y-35250
X53378Y-41250
X54378Y-35250
X54378Y-41250
X55378Y-35250
X55378Y-41250
X56378Y-35750
X56378Y-36750
X56378Y-37750
X56378Y-38750
X56378Y-39750
X56378Y-40750
T5
X70250Y-30250
X71750Y-30250
X73250Y-30250
X67750Y-23250
X67750Y-25000
X69250Y-23250
X69250Y-25000
T6
X44291Y-25000
X76181Y-51969
X76181Y-25000
X44291Y-51969
T4
G00X70810Y-25665
M15
G01X70810Y-26453
M16
G05
G00X73054Y-24878
M15
G01X72266Y-24878
M16
G05
G00X73054Y-27240
M15
G01X72266Y-27240
M16
G05
T0
M30
