G04 #@! TF.GenerationSoftware,KiCad,Pcbnew,(5.1.8)-1*
G04 #@! TF.CreationDate,2021-09-29T13:24:07+02:00*
G04 #@! TF.ProjectId,Amiga Drawbridge,416d6967-6120-4447-9261-776272696467,rev?*
G04 #@! TF.SameCoordinates,Original*
G04 #@! TF.FileFunction,Soldermask,Top*
G04 #@! TF.FilePolarity,Negative*
%FSLAX46Y46*%
G04 Gerber Fmt 4.6, Leading zero omitted, Abs format (unit mm)*
G04 Created by KiCad (PCBNEW (5.1.8)-1) date 2021-09-29 13:24:07*
%MOMM*%
%LPD*%
G01*
G04 APERTURE LIST*
%ADD10C,3.000000*%
%ADD11R,3.000000X3.000000*%
%ADD12C,1.700000*%
%ADD13R,1.700000X1.700000*%
%ADD14R,3.500000X3.500000*%
%ADD15R,2.000000X1.500000*%
%ADD16O,2.000000X1.500000*%
%ADD17O,1.500000X2.000000*%
%ADD18R,1.500000X2.000000*%
%ADD19C,1.600000*%
%ADD20O,1.600000X1.600000*%
%ADD21C,5.100000*%
G04 APERTURE END LIST*
D10*
X185810000Y-63270000D03*
D11*
X182000000Y-58825000D03*
D10*
X182000000Y-63270000D03*
X185810000Y-58825000D03*
D12*
X187325000Y-85725000D03*
X187325000Y-88265000D03*
X187325000Y-90805000D03*
X187325000Y-93345000D03*
X187325000Y-95885000D03*
X187325000Y-98425000D03*
X184785000Y-99695000D03*
X182245000Y-99695000D03*
X179705000Y-99695000D03*
X177165000Y-99695000D03*
X174625000Y-99695000D03*
D13*
X184785000Y-84455000D03*
D12*
X172085000Y-99695000D03*
X169545000Y-99695000D03*
X167005000Y-99695000D03*
X164465000Y-99695000D03*
X161925000Y-99695000D03*
X159385000Y-99695000D03*
X156845000Y-99695000D03*
X156845000Y-97155000D03*
X156845000Y-94615000D03*
X156845000Y-92075000D03*
X156845000Y-89535000D03*
X156845000Y-86995000D03*
X156845000Y-84455000D03*
X159385000Y-84455000D03*
X161925000Y-84455000D03*
X164465000Y-84455000D03*
X167005000Y-84455000D03*
X169545000Y-84455000D03*
X172085000Y-84455000D03*
X174625000Y-84455000D03*
X177165000Y-84455000D03*
X179705000Y-84455000D03*
X182245000Y-84455000D03*
G36*
G01*
X172720000Y-58840000D02*
X173920000Y-58840000D01*
G75*
G02*
X174170000Y-59090000I0J-250000D01*
G01*
X174170000Y-60290000D01*
G75*
G02*
X173920000Y-60540000I-250000J0D01*
G01*
X172720000Y-60540000D01*
G75*
G02*
X172470000Y-60290000I0J250000D01*
G01*
X172470000Y-59090000D01*
G75*
G02*
X172720000Y-58840000I250000J0D01*
G01*
G37*
X170780000Y-59690000D03*
X168240000Y-59690000D03*
X165700000Y-59690000D03*
X163160000Y-59690000D03*
X160620000Y-59690000D03*
X158080000Y-59690000D03*
X155540000Y-59690000D03*
X153000000Y-59690000D03*
X150460000Y-59690000D03*
X147920000Y-59690000D03*
X145380000Y-59690000D03*
X142840000Y-59690000D03*
X140300000Y-59690000D03*
X137760000Y-59690000D03*
X135220000Y-59690000D03*
X132680000Y-59690000D03*
X173320000Y-62230000D03*
X170780000Y-62230000D03*
X168240000Y-62230000D03*
X165700000Y-62230000D03*
X163160000Y-62230000D03*
X160620000Y-62230000D03*
X158080000Y-62230000D03*
X155540000Y-62230000D03*
X153000000Y-62230000D03*
X150460000Y-62230000D03*
X147920000Y-62230000D03*
X145380000Y-62230000D03*
X142840000Y-62230000D03*
X140300000Y-62230000D03*
X137760000Y-62230000D03*
X135220000Y-62230000D03*
X132680000Y-62230000D03*
D14*
X121920000Y-69215000D03*
G36*
G01*
X120920000Y-61715000D02*
X122920000Y-61715000D01*
G75*
G02*
X123670000Y-62465000I0J-750000D01*
G01*
X123670000Y-63965000D01*
G75*
G02*
X122920000Y-64715000I-750000J0D01*
G01*
X120920000Y-64715000D01*
G75*
G02*
X120170000Y-63965000I0J750000D01*
G01*
X120170000Y-62465000D01*
G75*
G02*
X120920000Y-61715000I750000J0D01*
G01*
G37*
G36*
G01*
X116345000Y-64465000D02*
X118095000Y-64465000D01*
G75*
G02*
X118970000Y-65340000I0J-875000D01*
G01*
X118970000Y-67090000D01*
G75*
G02*
X118095000Y-67965000I-875000J0D01*
G01*
X116345000Y-67965000D01*
G75*
G02*
X115470000Y-67090000I0J875000D01*
G01*
X115470000Y-65340000D01*
G75*
G02*
X116345000Y-64465000I875000J0D01*
G01*
G37*
D15*
X193040000Y-90170000D03*
D16*
X193040000Y-92075000D03*
X193040000Y-93980000D03*
D17*
X120015000Y-76835000D03*
X121920000Y-76835000D03*
D18*
X123825000Y-76835000D03*
D19*
X128270000Y-76835000D03*
D20*
X138430000Y-76835000D03*
D13*
X120340000Y-99695000D03*
D12*
X120340000Y-84455000D03*
X122880000Y-84455000D03*
X125420000Y-84455000D03*
X127960000Y-84455000D03*
X130500000Y-84455000D03*
X133040000Y-84455000D03*
X135580000Y-84455000D03*
X138120000Y-84455000D03*
X140660000Y-84455000D03*
X143200000Y-85725000D03*
X143200000Y-88265000D03*
X143200000Y-90805000D03*
X143200000Y-93345000D03*
X143200000Y-95885000D03*
X143200000Y-98425000D03*
X140660000Y-99695000D03*
X138120000Y-99695000D03*
X135580000Y-99695000D03*
X133040000Y-99695000D03*
X130500000Y-99695000D03*
X127960000Y-99695000D03*
X125420000Y-99695000D03*
X122880000Y-99695000D03*
D21*
X112500000Y-132000000D03*
X193500000Y-132000000D03*
X193500000Y-62500000D03*
X112500000Y-62500000D03*
D13*
X193500000Y-71000000D03*
M02*
