G04 #@! TF.GenerationSoftware,KiCad,Pcbnew,(5.1.8)-1*
G04 #@! TF.CreationDate,2021-11-22T15:54:14+01:00*
G04 #@! TF.ProjectId,Amiga Drawbridge,416d6967-6120-4447-9261-776272696467,rev?*
G04 #@! TF.SameCoordinates,Original*
G04 #@! TF.FileFunction,Soldermask,Bot*
G04 #@! TF.FilePolarity,Negative*
%FSLAX46Y46*%
G04 Gerber Fmt 4.6, Leading zero omitted, Abs format (unit mm)*
G04 Created by KiCad (PCBNEW (5.1.8)-1) date 2021-11-22 15:54:14*
%MOMM*%
%LPD*%
G01*
G04 APERTURE LIST*
%ADD10R,3.000000X3.000000*%
%ADD11C,3.000000*%
%ADD12C,1.600000*%
%ADD13O,1.600000X1.600000*%
%ADD14C,1.700000*%
%ADD15R,1.700000X1.700000*%
%ADD16R,3.500000X3.500000*%
%ADD17C,5.100000*%
%ADD18R,1.800000X1.800000*%
%ADD19C,1.800000*%
G04 APERTURE END LIST*
D10*
X184531000Y-74168000D03*
D11*
X184531000Y-81788000D03*
X184531000Y-77978000D03*
X184531000Y-85598000D03*
X175895000Y-63500000D03*
D10*
X172085000Y-59055000D03*
D11*
X172085000Y-63500000D03*
X175895000Y-59055000D03*
D12*
X141224000Y-81280000D03*
D13*
X131064000Y-81280000D03*
G36*
G01*
X162595000Y-58840000D02*
X163795000Y-58840000D01*
G75*
G02*
X164045000Y-59090000I0J-250000D01*
G01*
X164045000Y-60290000D01*
G75*
G02*
X163795000Y-60540000I-250000J0D01*
G01*
X162595000Y-60540000D01*
G75*
G02*
X162345000Y-60290000I0J250000D01*
G01*
X162345000Y-59090000D01*
G75*
G02*
X162595000Y-58840000I250000J0D01*
G01*
G37*
D14*
X160655000Y-59690000D03*
X158115000Y-59690000D03*
X155575000Y-59690000D03*
X153035000Y-59690000D03*
X150495000Y-59690000D03*
X147955000Y-59690000D03*
X145415000Y-59690000D03*
X142875000Y-59690000D03*
X140335000Y-59690000D03*
X137795000Y-59690000D03*
X135255000Y-59690000D03*
X132715000Y-59690000D03*
X130175000Y-59690000D03*
X127635000Y-59690000D03*
X125095000Y-59690000D03*
X122555000Y-59690000D03*
X163195000Y-62230000D03*
X160655000Y-62230000D03*
X158115000Y-62230000D03*
X155575000Y-62230000D03*
X153035000Y-62230000D03*
X150495000Y-62230000D03*
X147955000Y-62230000D03*
X145415000Y-62230000D03*
X142875000Y-62230000D03*
X140335000Y-62230000D03*
X137795000Y-62230000D03*
X135255000Y-62230000D03*
X132715000Y-62230000D03*
X130175000Y-62230000D03*
X127635000Y-62230000D03*
X125095000Y-62230000D03*
X122555000Y-62230000D03*
X187325000Y-90805000D03*
X187325000Y-93345000D03*
X187325000Y-95885000D03*
X187325000Y-98425000D03*
X187325000Y-100965000D03*
X187325000Y-103505000D03*
X184785000Y-104775000D03*
X182245000Y-104775000D03*
X179705000Y-104775000D03*
X177165000Y-104775000D03*
X174625000Y-104775000D03*
D15*
X184785000Y-89535000D03*
D14*
X172085000Y-104775000D03*
X169545000Y-104775000D03*
X167005000Y-104775000D03*
X164465000Y-104775000D03*
X161925000Y-104775000D03*
X159385000Y-104775000D03*
X156845000Y-104775000D03*
X156845000Y-102235000D03*
X156845000Y-99695000D03*
X156845000Y-97155000D03*
X156845000Y-94615000D03*
X156845000Y-92075000D03*
X156845000Y-89535000D03*
X159385000Y-89535000D03*
X161925000Y-89535000D03*
X164465000Y-89535000D03*
X167005000Y-89535000D03*
X169545000Y-89535000D03*
X172085000Y-89535000D03*
X174625000Y-89535000D03*
X177165000Y-89535000D03*
X179705000Y-89535000D03*
X182245000Y-89535000D03*
D16*
X184556400Y-69189600D03*
G36*
G01*
X183556400Y-61689600D02*
X185556400Y-61689600D01*
G75*
G02*
X186306400Y-62439600I0J-750000D01*
G01*
X186306400Y-63939600D01*
G75*
G02*
X185556400Y-64689600I-750000J0D01*
G01*
X183556400Y-64689600D01*
G75*
G02*
X182806400Y-63939600I0J750000D01*
G01*
X182806400Y-62439600D01*
G75*
G02*
X183556400Y-61689600I750000J0D01*
G01*
G37*
G36*
G01*
X178981400Y-64439600D02*
X180731400Y-64439600D01*
G75*
G02*
X181606400Y-65314600I0J-875000D01*
G01*
X181606400Y-67064600D01*
G75*
G02*
X180731400Y-67939600I-875000J0D01*
G01*
X178981400Y-67939600D01*
G75*
G02*
X178106400Y-67064600I0J875000D01*
G01*
X178106400Y-65314600D01*
G75*
G02*
X178981400Y-64439600I875000J0D01*
G01*
G37*
D15*
X120340000Y-104775000D03*
D14*
X120340000Y-89535000D03*
X122880000Y-89535000D03*
X125420000Y-89535000D03*
X127960000Y-89535000D03*
X130500000Y-89535000D03*
X133040000Y-89535000D03*
X135580000Y-89535000D03*
X138120000Y-89535000D03*
X140660000Y-89535000D03*
X143200000Y-90805000D03*
X143200000Y-93345000D03*
X143200000Y-95885000D03*
X143200000Y-98425000D03*
X143200000Y-100965000D03*
X143200000Y-103505000D03*
X140660000Y-104775000D03*
X138120000Y-104775000D03*
X135580000Y-104775000D03*
X133040000Y-104775000D03*
X130500000Y-104775000D03*
X127960000Y-104775000D03*
X125420000Y-104775000D03*
X122880000Y-104775000D03*
D17*
X112500000Y-132000000D03*
X193500000Y-132000000D03*
X193500000Y-63500000D03*
X112500000Y-63500000D03*
D18*
X112500000Y-73279000D03*
D19*
X112500000Y-70739000D03*
X112500000Y-80137000D03*
D18*
X112500000Y-82677000D03*
D13*
X141224000Y-85344000D03*
D12*
X131064000Y-85344000D03*
X118364000Y-85344000D03*
D13*
X128524000Y-85344000D03*
M02*
