G04 #@! TF.GenerationSoftware,KiCad,Pcbnew,(5.1.8)-1*
G04 #@! TF.CreationDate,2021-11-04T15:10:50+01:00*
G04 #@! TF.ProjectId,Greaseweazle FB1,47726561-7365-4776-9561-7a6c65204642,rev?*
G04 #@! TF.SameCoordinates,Original*
G04 #@! TF.FileFunction,Legend,Bot*
G04 #@! TF.FilePolarity,Positive*
%FSLAX46Y46*%
G04 Gerber Fmt 4.6, Leading zero omitted, Abs format (unit mm)*
G04 Created by KiCad (PCBNEW (5.1.8)-1) date 2021-11-04 15:10:50*
%MOMM*%
%LPD*%
G01*
G04 APERTURE LIST*
%ADD10C,0.150000*%
%ADD11C,0.120000*%
%ADD12C,0.100000*%
%ADD13C,0.300000*%
%ADD14C,0.200000*%
%ADD15C,0.010000*%
G04 APERTURE END LIST*
D10*
X186595238Y-74416666D02*
X186119047Y-74416666D01*
X186690476Y-74702380D02*
X186357142Y-73702380D01*
X186023809Y-74702380D01*
X185690476Y-74702380D02*
X185690476Y-74035714D01*
X185690476Y-74130952D02*
X185642857Y-74083333D01*
X185547619Y-74035714D01*
X185404761Y-74035714D01*
X185309523Y-74083333D01*
X185261904Y-74178571D01*
X185261904Y-74702380D01*
X185261904Y-74178571D02*
X185214285Y-74083333D01*
X185119047Y-74035714D01*
X184976190Y-74035714D01*
X184880952Y-74083333D01*
X184833333Y-74178571D01*
X184833333Y-74702380D01*
X184357142Y-74702380D02*
X184357142Y-74035714D01*
X184357142Y-73702380D02*
X184404761Y-73750000D01*
X184357142Y-73797619D01*
X184309523Y-73750000D01*
X184357142Y-73702380D01*
X184357142Y-73797619D01*
X183452380Y-74035714D02*
X183452380Y-74845238D01*
X183500000Y-74940476D01*
X183547619Y-74988095D01*
X183642857Y-75035714D01*
X183785714Y-75035714D01*
X183880952Y-74988095D01*
X183452380Y-74654761D02*
X183547619Y-74702380D01*
X183738095Y-74702380D01*
X183833333Y-74654761D01*
X183880952Y-74607142D01*
X183928571Y-74511904D01*
X183928571Y-74226190D01*
X183880952Y-74130952D01*
X183833333Y-74083333D01*
X183738095Y-74035714D01*
X183547619Y-74035714D01*
X183452380Y-74083333D01*
X182547619Y-74702380D02*
X182547619Y-74178571D01*
X182595238Y-74083333D01*
X182690476Y-74035714D01*
X182880952Y-74035714D01*
X182976190Y-74083333D01*
X182547619Y-74654761D02*
X182642857Y-74702380D01*
X182880952Y-74702380D01*
X182976190Y-74654761D01*
X183023809Y-74559523D01*
X183023809Y-74464285D01*
X182976190Y-74369047D01*
X182880952Y-74321428D01*
X182642857Y-74321428D01*
X182547619Y-74273809D01*
X181309523Y-74702380D02*
X181309523Y-73702380D01*
X181071428Y-73702380D01*
X180928571Y-73750000D01*
X180833333Y-73845238D01*
X180785714Y-73940476D01*
X180738095Y-74130952D01*
X180738095Y-74273809D01*
X180785714Y-74464285D01*
X180833333Y-74559523D01*
X180928571Y-74654761D01*
X181071428Y-74702380D01*
X181309523Y-74702380D01*
X180309523Y-74702380D02*
X180309523Y-74035714D01*
X180309523Y-74226190D02*
X180261904Y-74130952D01*
X180214285Y-74083333D01*
X180119047Y-74035714D01*
X180023809Y-74035714D01*
X179261904Y-74702380D02*
X179261904Y-74178571D01*
X179309523Y-74083333D01*
X179404761Y-74035714D01*
X179595238Y-74035714D01*
X179690476Y-74083333D01*
X179261904Y-74654761D02*
X179357142Y-74702380D01*
X179595238Y-74702380D01*
X179690476Y-74654761D01*
X179738095Y-74559523D01*
X179738095Y-74464285D01*
X179690476Y-74369047D01*
X179595238Y-74321428D01*
X179357142Y-74321428D01*
X179261904Y-74273809D01*
X178880952Y-74035714D02*
X178690476Y-74702380D01*
X178500000Y-74226190D01*
X178309523Y-74702380D01*
X178119047Y-74035714D01*
X177404761Y-74178571D02*
X177261904Y-74226190D01*
X177214285Y-74273809D01*
X177166666Y-74369047D01*
X177166666Y-74511904D01*
X177214285Y-74607142D01*
X177261904Y-74654761D01*
X177357142Y-74702380D01*
X177738095Y-74702380D01*
X177738095Y-73702380D01*
X177404761Y-73702380D01*
X177309523Y-73750000D01*
X177261904Y-73797619D01*
X177214285Y-73892857D01*
X177214285Y-73988095D01*
X177261904Y-74083333D01*
X177309523Y-74130952D01*
X177404761Y-74178571D01*
X177738095Y-74178571D01*
X176738095Y-74702380D02*
X176738095Y-74035714D01*
X176738095Y-74226190D02*
X176690476Y-74130952D01*
X176642857Y-74083333D01*
X176547619Y-74035714D01*
X176452380Y-74035714D01*
X176119047Y-74702380D02*
X176119047Y-74035714D01*
X176119047Y-73702380D02*
X176166666Y-73750000D01*
X176119047Y-73797619D01*
X176071428Y-73750000D01*
X176119047Y-73702380D01*
X176119047Y-73797619D01*
X175214285Y-74702380D02*
X175214285Y-73702380D01*
X175214285Y-74654761D02*
X175309523Y-74702380D01*
X175500000Y-74702380D01*
X175595238Y-74654761D01*
X175642857Y-74607142D01*
X175690476Y-74511904D01*
X175690476Y-74226190D01*
X175642857Y-74130952D01*
X175595238Y-74083333D01*
X175500000Y-74035714D01*
X175309523Y-74035714D01*
X175214285Y-74083333D01*
X174309523Y-74035714D02*
X174309523Y-74845238D01*
X174357142Y-74940476D01*
X174404761Y-74988095D01*
X174500000Y-75035714D01*
X174642857Y-75035714D01*
X174738095Y-74988095D01*
X174309523Y-74654761D02*
X174404761Y-74702380D01*
X174595238Y-74702380D01*
X174690476Y-74654761D01*
X174738095Y-74607142D01*
X174785714Y-74511904D01*
X174785714Y-74226190D01*
X174738095Y-74130952D01*
X174690476Y-74083333D01*
X174595238Y-74035714D01*
X174404761Y-74035714D01*
X174309523Y-74083333D01*
X173452380Y-74654761D02*
X173547619Y-74702380D01*
X173738095Y-74702380D01*
X173833333Y-74654761D01*
X173880952Y-74559523D01*
X173880952Y-74178571D01*
X173833333Y-74083333D01*
X173738095Y-74035714D01*
X173547619Y-74035714D01*
X173452380Y-74083333D01*
X173404761Y-74178571D01*
X173404761Y-74273809D01*
X173880952Y-74369047D01*
X185166666Y-76733333D02*
X185214285Y-76685714D01*
X185309523Y-76542857D01*
X185357142Y-76447619D01*
X185404761Y-76304761D01*
X185452380Y-76066666D01*
X185452380Y-75876190D01*
X185404761Y-75638095D01*
X185357142Y-75495238D01*
X185309523Y-75400000D01*
X185214285Y-75257142D01*
X185166666Y-75209523D01*
X184261904Y-75400000D02*
X184357142Y-75352380D01*
X184500000Y-75352380D01*
X184642857Y-75400000D01*
X184738095Y-75495238D01*
X184785714Y-75590476D01*
X184833333Y-75780952D01*
X184833333Y-75923809D01*
X184785714Y-76114285D01*
X184738095Y-76209523D01*
X184642857Y-76304761D01*
X184500000Y-76352380D01*
X184404761Y-76352380D01*
X184261904Y-76304761D01*
X184214285Y-76257142D01*
X184214285Y-75923809D01*
X184404761Y-75923809D01*
X183785714Y-76352380D02*
X183785714Y-75685714D01*
X183785714Y-75876190D02*
X183738095Y-75780952D01*
X183690476Y-75733333D01*
X183595238Y-75685714D01*
X183500000Y-75685714D01*
X182785714Y-76304761D02*
X182880952Y-76352380D01*
X183071428Y-76352380D01*
X183166666Y-76304761D01*
X183214285Y-76209523D01*
X183214285Y-75828571D01*
X183166666Y-75733333D01*
X183071428Y-75685714D01*
X182880952Y-75685714D01*
X182785714Y-75733333D01*
X182738095Y-75828571D01*
X182738095Y-75923809D01*
X183214285Y-76019047D01*
X181880952Y-76352380D02*
X181880952Y-75828571D01*
X181928571Y-75733333D01*
X182023809Y-75685714D01*
X182214285Y-75685714D01*
X182309523Y-75733333D01*
X181880952Y-76304761D02*
X181976190Y-76352380D01*
X182214285Y-76352380D01*
X182309523Y-76304761D01*
X182357142Y-76209523D01*
X182357142Y-76114285D01*
X182309523Y-76019047D01*
X182214285Y-75971428D01*
X181976190Y-75971428D01*
X181880952Y-75923809D01*
X181452380Y-76304761D02*
X181357142Y-76352380D01*
X181166666Y-76352380D01*
X181071428Y-76304761D01*
X181023809Y-76209523D01*
X181023809Y-76161904D01*
X181071428Y-76066666D01*
X181166666Y-76019047D01*
X181309523Y-76019047D01*
X181404761Y-75971428D01*
X181452380Y-75876190D01*
X181452380Y-75828571D01*
X181404761Y-75733333D01*
X181309523Y-75685714D01*
X181166666Y-75685714D01*
X181071428Y-75733333D01*
X180214285Y-76304761D02*
X180309523Y-76352380D01*
X180500000Y-76352380D01*
X180595238Y-76304761D01*
X180642857Y-76209523D01*
X180642857Y-75828571D01*
X180595238Y-75733333D01*
X180500000Y-75685714D01*
X180309523Y-75685714D01*
X180214285Y-75733333D01*
X180166666Y-75828571D01*
X180166666Y-75923809D01*
X180642857Y-76019047D01*
X179833333Y-75685714D02*
X179642857Y-76352380D01*
X179452380Y-75876190D01*
X179261904Y-76352380D01*
X179071428Y-75685714D01*
X178309523Y-76304761D02*
X178404761Y-76352380D01*
X178595238Y-76352380D01*
X178690476Y-76304761D01*
X178738095Y-76209523D01*
X178738095Y-75828571D01*
X178690476Y-75733333D01*
X178595238Y-75685714D01*
X178404761Y-75685714D01*
X178309523Y-75733333D01*
X178261904Y-75828571D01*
X178261904Y-75923809D01*
X178738095Y-76019047D01*
X177404761Y-76352380D02*
X177404761Y-75828571D01*
X177452380Y-75733333D01*
X177547619Y-75685714D01*
X177738095Y-75685714D01*
X177833333Y-75733333D01*
X177404761Y-76304761D02*
X177500000Y-76352380D01*
X177738095Y-76352380D01*
X177833333Y-76304761D01*
X177880952Y-76209523D01*
X177880952Y-76114285D01*
X177833333Y-76019047D01*
X177738095Y-75971428D01*
X177500000Y-75971428D01*
X177404761Y-75923809D01*
X177023809Y-75685714D02*
X176500000Y-75685714D01*
X177023809Y-76352380D01*
X176500000Y-76352380D01*
X175976190Y-76352380D02*
X176071428Y-76304761D01*
X176119047Y-76209523D01*
X176119047Y-75352380D01*
X175214285Y-76304761D02*
X175309523Y-76352380D01*
X175500000Y-76352380D01*
X175595238Y-76304761D01*
X175642857Y-76209523D01*
X175642857Y-75828571D01*
X175595238Y-75733333D01*
X175500000Y-75685714D01*
X175309523Y-75685714D01*
X175214285Y-75733333D01*
X175166666Y-75828571D01*
X175166666Y-75923809D01*
X175642857Y-76019047D01*
X174833333Y-76733333D02*
X174785714Y-76685714D01*
X174690476Y-76542857D01*
X174642857Y-76447619D01*
X174595238Y-76304761D01*
X174547619Y-76066666D01*
X174547619Y-75876190D01*
X174595238Y-75638095D01*
X174642857Y-75495238D01*
X174690476Y-75400000D01*
X174785714Y-75257142D01*
X174833333Y-75209523D01*
X185404761Y-77335714D02*
X185404761Y-78145238D01*
X185452380Y-78240476D01*
X185500000Y-78288095D01*
X185595238Y-78335714D01*
X185738095Y-78335714D01*
X185833333Y-78288095D01*
X185404761Y-77954761D02*
X185500000Y-78002380D01*
X185690476Y-78002380D01*
X185785714Y-77954761D01*
X185833333Y-77907142D01*
X185880952Y-77811904D01*
X185880952Y-77526190D01*
X185833333Y-77430952D01*
X185785714Y-77383333D01*
X185690476Y-77335714D01*
X185500000Y-77335714D01*
X185404761Y-77383333D01*
X184928571Y-78002380D02*
X184928571Y-77335714D01*
X184928571Y-77002380D02*
X184976190Y-77050000D01*
X184928571Y-77097619D01*
X184880952Y-77050000D01*
X184928571Y-77002380D01*
X184928571Y-77097619D01*
X184595238Y-77335714D02*
X184214285Y-77335714D01*
X184452380Y-77002380D02*
X184452380Y-77859523D01*
X184404761Y-77954761D01*
X184309523Y-78002380D01*
X184214285Y-78002380D01*
X183880952Y-78002380D02*
X183880952Y-77002380D01*
X183452380Y-78002380D02*
X183452380Y-77478571D01*
X183500000Y-77383333D01*
X183595238Y-77335714D01*
X183738095Y-77335714D01*
X183833333Y-77383333D01*
X183880952Y-77430952D01*
X182547619Y-77335714D02*
X182547619Y-78002380D01*
X182976190Y-77335714D02*
X182976190Y-77859523D01*
X182928571Y-77954761D01*
X182833333Y-78002380D01*
X182690476Y-78002380D01*
X182595238Y-77954761D01*
X182547619Y-77907142D01*
X182071428Y-78002380D02*
X182071428Y-77002380D01*
X182071428Y-77383333D02*
X181976190Y-77335714D01*
X181785714Y-77335714D01*
X181690476Y-77383333D01*
X181642857Y-77430952D01*
X181595238Y-77526190D01*
X181595238Y-77811904D01*
X181642857Y-77907142D01*
X181690476Y-77954761D01*
X181785714Y-78002380D01*
X181976190Y-78002380D01*
X182071428Y-77954761D01*
X181166666Y-77907142D02*
X181119047Y-77954761D01*
X181166666Y-78002380D01*
X181214285Y-77954761D01*
X181166666Y-77907142D01*
X181166666Y-78002380D01*
X180261904Y-77954761D02*
X180357142Y-78002380D01*
X180547619Y-78002380D01*
X180642857Y-77954761D01*
X180690476Y-77907142D01*
X180738095Y-77811904D01*
X180738095Y-77526190D01*
X180690476Y-77430952D01*
X180642857Y-77383333D01*
X180547619Y-77335714D01*
X180357142Y-77335714D01*
X180261904Y-77383333D01*
X179690476Y-78002380D02*
X179785714Y-77954761D01*
X179833333Y-77907142D01*
X179880952Y-77811904D01*
X179880952Y-77526190D01*
X179833333Y-77430952D01*
X179785714Y-77383333D01*
X179690476Y-77335714D01*
X179547619Y-77335714D01*
X179452380Y-77383333D01*
X179404761Y-77430952D01*
X179357142Y-77526190D01*
X179357142Y-77811904D01*
X179404761Y-77907142D01*
X179452380Y-77954761D01*
X179547619Y-78002380D01*
X179690476Y-78002380D01*
X178928571Y-78002380D02*
X178928571Y-77335714D01*
X178928571Y-77430952D02*
X178880952Y-77383333D01*
X178785714Y-77335714D01*
X178642857Y-77335714D01*
X178547619Y-77383333D01*
X178500000Y-77478571D01*
X178500000Y-78002380D01*
X178500000Y-77478571D02*
X178452380Y-77383333D01*
X178357142Y-77335714D01*
X178214285Y-77335714D01*
X178119047Y-77383333D01*
X178071428Y-77478571D01*
X178071428Y-78002380D01*
X176880952Y-76954761D02*
X177738095Y-78240476D01*
X176690476Y-77335714D02*
X176309523Y-77335714D01*
X176547619Y-77002380D02*
X176547619Y-77859523D01*
X176500000Y-77954761D01*
X176404761Y-78002380D01*
X176309523Y-78002380D01*
X175595238Y-77954761D02*
X175690476Y-78002380D01*
X175880952Y-78002380D01*
X175976190Y-77954761D01*
X176023809Y-77859523D01*
X176023809Y-77478571D01*
X175976190Y-77383333D01*
X175880952Y-77335714D01*
X175690476Y-77335714D01*
X175595238Y-77383333D01*
X175547619Y-77478571D01*
X175547619Y-77573809D01*
X176023809Y-77669047D01*
X175119047Y-78002380D02*
X175119047Y-77002380D01*
X175119047Y-77383333D02*
X175023809Y-77335714D01*
X174833333Y-77335714D01*
X174738095Y-77383333D01*
X174690476Y-77430952D01*
X174642857Y-77526190D01*
X174642857Y-77811904D01*
X174690476Y-77907142D01*
X174738095Y-77954761D01*
X174833333Y-78002380D01*
X175023809Y-78002380D01*
X175119047Y-77954761D01*
X174071428Y-78002380D02*
X174166666Y-77954761D01*
X174214285Y-77859523D01*
X174214285Y-77002380D01*
D11*
X191000000Y-61000000D02*
X191000000Y-66000000D01*
X196000000Y-61000000D02*
X191000000Y-61000000D01*
X196000000Y-66000000D02*
X196000000Y-61000000D01*
X191000000Y-66000000D02*
X196000000Y-66000000D01*
D12*
G36*
X155700000Y-87300000D02*
G01*
X157800000Y-87900000D01*
X159500000Y-88800000D01*
X161300000Y-90100000D01*
X162400000Y-91300000D01*
X163100000Y-92100000D01*
X163800000Y-93200000D01*
X164200000Y-94000000D01*
X147100000Y-88500000D01*
X148400000Y-87900000D01*
X150300000Y-87300000D01*
X152000000Y-87000000D01*
X153600000Y-87000000D01*
X155700000Y-87300000D01*
G37*
X155700000Y-87300000D02*
X157800000Y-87900000D01*
X159500000Y-88800000D01*
X161300000Y-90100000D01*
X162400000Y-91300000D01*
X163100000Y-92100000D01*
X163800000Y-93200000D01*
X164200000Y-94000000D01*
X147100000Y-88500000D01*
X148400000Y-87900000D01*
X150300000Y-87300000D01*
X152000000Y-87000000D01*
X153600000Y-87000000D01*
X155700000Y-87300000D01*
G36*
X150500000Y-98700000D02*
G01*
X150400000Y-99100000D01*
X150500000Y-99400000D01*
X150615185Y-99711237D01*
X150800000Y-100000000D01*
X147600000Y-100000000D01*
X147953637Y-98530233D01*
X148000000Y-98200000D01*
X150800000Y-98200000D01*
X150500000Y-98700000D01*
G37*
X150500000Y-98700000D02*
X150400000Y-99100000D01*
X150500000Y-99400000D01*
X150615185Y-99711237D01*
X150800000Y-100000000D01*
X147600000Y-100000000D01*
X147953637Y-98530233D01*
X148000000Y-98200000D01*
X150800000Y-98200000D01*
X150500000Y-98700000D01*
G36*
X164200000Y-94000000D02*
G01*
X165100000Y-96300000D01*
X165500000Y-98900000D01*
X165300000Y-101700000D01*
X164800000Y-103700000D01*
X146530132Y-103842824D01*
X146700000Y-103200000D01*
X147200000Y-101400000D01*
X147600000Y-100000000D01*
X150800000Y-100000000D01*
X151615185Y-101443288D01*
X151900000Y-101800000D01*
X152300000Y-102000000D01*
X152800000Y-102100000D01*
X153100000Y-102000000D01*
X153500000Y-101800000D01*
X155200000Y-100800000D01*
X155400000Y-100600000D01*
X155600000Y-100300000D01*
X155700000Y-99800000D01*
X155600000Y-99400000D01*
X155300000Y-98800000D01*
X154400000Y-97300000D01*
X154100000Y-97000000D01*
X153500000Y-96800000D01*
X153000000Y-96900000D01*
X150800000Y-98200000D01*
X148000000Y-98200000D01*
X147900000Y-97700000D01*
X147800000Y-97500000D01*
X147500000Y-97200000D01*
X147069753Y-96999301D01*
X147100000Y-88500000D01*
X164200000Y-94000000D01*
G37*
X164200000Y-94000000D02*
X165100000Y-96300000D01*
X165500000Y-98900000D01*
X165300000Y-101700000D01*
X164800000Y-103700000D01*
X146530132Y-103842824D01*
X146700000Y-103200000D01*
X147200000Y-101400000D01*
X147600000Y-100000000D01*
X150800000Y-100000000D01*
X151615185Y-101443288D01*
X151900000Y-101800000D01*
X152300000Y-102000000D01*
X152800000Y-102100000D01*
X153100000Y-102000000D01*
X153500000Y-101800000D01*
X155200000Y-100800000D01*
X155400000Y-100600000D01*
X155600000Y-100300000D01*
X155700000Y-99800000D01*
X155600000Y-99400000D01*
X155300000Y-98800000D01*
X154400000Y-97300000D01*
X154100000Y-97000000D01*
X153500000Y-96800000D01*
X153000000Y-96900000D01*
X150800000Y-98200000D01*
X148000000Y-98200000D01*
X147900000Y-97700000D01*
X147800000Y-97500000D01*
X147500000Y-97200000D01*
X147069753Y-96999301D01*
X147100000Y-88500000D01*
X164200000Y-94000000D01*
G36*
X143200000Y-98900000D02*
G01*
X142312875Y-102195177D01*
X142200000Y-102700000D01*
X142500000Y-103600000D01*
X142800000Y-103900000D01*
X143200000Y-104200000D01*
X143800000Y-104400000D01*
X144900000Y-104700000D01*
X145300000Y-104800000D01*
X145800000Y-104700000D01*
X146100000Y-104500000D01*
X146400000Y-104200000D01*
X146530132Y-103842824D01*
X164800000Y-103700000D01*
X163800000Y-105700000D01*
X162600000Y-107500000D01*
X161400000Y-108700000D01*
X160000000Y-109900000D01*
X158500000Y-110700000D01*
X157400000Y-111200000D01*
X155700000Y-111700000D01*
X154400000Y-111900000D01*
X152800000Y-112000000D01*
X151200000Y-111900000D01*
X149700000Y-111600000D01*
X148100000Y-111000000D01*
X146700000Y-110300000D01*
X145100000Y-109200000D01*
X143700000Y-107900000D01*
X142700000Y-106600000D01*
X141800000Y-105100000D01*
X141200000Y-103600000D01*
X140700000Y-102000000D01*
X140500000Y-100600000D01*
X140500000Y-98900000D01*
X140700000Y-97400000D01*
X143600000Y-97400000D01*
X143200000Y-98900000D01*
G37*
X143200000Y-98900000D02*
X142312875Y-102195177D01*
X142200000Y-102700000D01*
X142500000Y-103600000D01*
X142800000Y-103900000D01*
X143200000Y-104200000D01*
X143800000Y-104400000D01*
X144900000Y-104700000D01*
X145300000Y-104800000D01*
X145800000Y-104700000D01*
X146100000Y-104500000D01*
X146400000Y-104200000D01*
X146530132Y-103842824D01*
X164800000Y-103700000D01*
X163800000Y-105700000D01*
X162600000Y-107500000D01*
X161400000Y-108700000D01*
X160000000Y-109900000D01*
X158500000Y-110700000D01*
X157400000Y-111200000D01*
X155700000Y-111700000D01*
X154400000Y-111900000D01*
X152800000Y-112000000D01*
X151200000Y-111900000D01*
X149700000Y-111600000D01*
X148100000Y-111000000D01*
X146700000Y-110300000D01*
X145100000Y-109200000D01*
X143700000Y-107900000D01*
X142700000Y-106600000D01*
X141800000Y-105100000D01*
X141200000Y-103600000D01*
X140700000Y-102000000D01*
X140500000Y-100600000D01*
X140500000Y-98900000D01*
X140700000Y-97400000D01*
X143600000Y-97400000D01*
X143200000Y-98900000D01*
G36*
X147069753Y-96999301D02*
G01*
X145300000Y-96500000D01*
X144800000Y-96400000D01*
X144200000Y-96600000D01*
X143800000Y-96900000D01*
X143606970Y-97365549D01*
X143600000Y-97400000D01*
X140700000Y-97400000D01*
X141200000Y-95400000D01*
X141900000Y-93800000D01*
X142900000Y-92200000D01*
X143600000Y-91300000D01*
X145800000Y-89300000D01*
X147100000Y-88500000D01*
X147069753Y-96999301D01*
G37*
X147069753Y-96999301D02*
X145300000Y-96500000D01*
X144800000Y-96400000D01*
X144200000Y-96600000D01*
X143800000Y-96900000D01*
X143606970Y-97365549D01*
X143600000Y-97400000D01*
X140700000Y-97400000D01*
X141200000Y-95400000D01*
X141900000Y-93800000D01*
X142900000Y-92200000D01*
X143600000Y-91300000D01*
X145800000Y-89300000D01*
X147100000Y-88500000D01*
X147069753Y-96999301D01*
G36*
X176000000Y-117600000D02*
G01*
X176400000Y-118000000D01*
X176500000Y-118500000D01*
X176500000Y-144500000D01*
X171500000Y-144500000D01*
X171500000Y-146000000D01*
X148500000Y-146000000D01*
X148500000Y-120000000D01*
X148700000Y-117500000D01*
X175500000Y-117500000D01*
X176000000Y-117600000D01*
G37*
X176000000Y-117600000D02*
X176400000Y-118000000D01*
X176500000Y-118500000D01*
X176500000Y-144500000D01*
X171500000Y-144500000D01*
X171500000Y-146000000D01*
X148500000Y-146000000D01*
X148500000Y-120000000D01*
X148700000Y-117500000D01*
X175500000Y-117500000D01*
X176000000Y-117600000D01*
G36*
X148700000Y-120000000D02*
G01*
X148500000Y-120000000D01*
X148500000Y-119800000D01*
X148300000Y-119600000D01*
X148000000Y-119500000D01*
X136800000Y-119500000D01*
X136600000Y-119700000D01*
X136500000Y-120000000D01*
X136500000Y-144100000D01*
X136700000Y-144400000D01*
X137000000Y-144500000D01*
X140500000Y-144500000D01*
X140500000Y-146000000D01*
X144500000Y-146000000D01*
X144500000Y-144500000D01*
X148200000Y-144500000D01*
X148400000Y-144300000D01*
X148500000Y-144000000D01*
X148500000Y-146000000D01*
X175000000Y-146000000D01*
X175000000Y-144500000D01*
X176500000Y-144500000D01*
X176500000Y-149000000D01*
X129500000Y-149000000D01*
X129500000Y-118300000D01*
X129600000Y-118100000D01*
X129800000Y-117800000D01*
X130100000Y-117600000D01*
X130500000Y-117500000D01*
X148700000Y-117500000D01*
X148700000Y-120000000D01*
G37*
X148700000Y-120000000D02*
X148500000Y-120000000D01*
X148500000Y-119800000D01*
X148300000Y-119600000D01*
X148000000Y-119500000D01*
X136800000Y-119500000D01*
X136600000Y-119700000D01*
X136500000Y-120000000D01*
X136500000Y-144100000D01*
X136700000Y-144400000D01*
X137000000Y-144500000D01*
X140500000Y-144500000D01*
X140500000Y-146000000D01*
X144500000Y-146000000D01*
X144500000Y-144500000D01*
X148200000Y-144500000D01*
X148400000Y-144300000D01*
X148500000Y-144000000D01*
X148500000Y-146000000D01*
X175000000Y-146000000D01*
X175000000Y-144500000D01*
X176500000Y-144500000D01*
X176500000Y-149000000D01*
X129500000Y-149000000D01*
X129500000Y-118300000D01*
X129600000Y-118100000D01*
X129800000Y-117800000D01*
X130100000Y-117600000D01*
X130500000Y-117500000D01*
X148700000Y-117500000D01*
X148700000Y-120000000D01*
D11*
X143606970Y-97365548D02*
X142312875Y-102195177D01*
X143550312Y-104338481D02*
X144999201Y-104726709D01*
X143550312Y-104338480D02*
G75*
G02*
X142312875Y-102195177I452933J1690370D01*
G01*
X146530132Y-103842824D02*
G75*
G02*
X144999201Y-104726709I-1207408J323523D01*
G01*
X147069753Y-96999302D02*
X145137901Y-96481664D01*
X146530132Y-103842825D02*
X147953637Y-98530233D01*
X147069753Y-96999301D02*
G75*
G02*
X147953637Y-98530233I-323524J-1207408D01*
G01*
X143606970Y-97365549D02*
G75*
G02*
X145137901Y-96481664I1207408J-323523D01*
G01*
X155512299Y-99193288D02*
G75*
G02*
X155054767Y-100900820I-1082532J-625000D01*
G01*
X153322716Y-101900819D02*
G75*
G02*
X151615185Y-101443288I-625000J1082531D01*
G01*
X150615184Y-99711237D02*
G75*
G02*
X151072716Y-98003705I1082532J625000D01*
G01*
X152804767Y-97003705D02*
G75*
G02*
X154512299Y-97461237I625000J-1082532D01*
G01*
X152804767Y-97003705D02*
X151072716Y-98003705D01*
X155512299Y-99193288D02*
X154512299Y-97461237D01*
X153322716Y-101900820D02*
X155054767Y-100900820D01*
X150615185Y-99711237D02*
X151615185Y-101443288D01*
D13*
X165500000Y-99500000D02*
G75*
G03*
X165500000Y-99500000I-12500000J0D01*
G01*
X166500000Y-100000000D02*
G75*
G03*
X166500000Y-100000000I-13500000J0D01*
G01*
D11*
X194500000Y-56500000D02*
X192500000Y-56500000D01*
X192000000Y-57000000D02*
X190500000Y-57000000D01*
X192500000Y-56500000D02*
X192000000Y-57000000D01*
X195000000Y-57000000D02*
X196500000Y-57000000D01*
X194500000Y-56500000D02*
X195000000Y-57000000D01*
X196500000Y-66500000D02*
X190500000Y-66500000D01*
X196500000Y-57000000D02*
X196500000Y-66500000D01*
X190500000Y-66500000D02*
X190500000Y-57000000D01*
D14*
X183500000Y-148000000D02*
X184000000Y-148500000D01*
X182500000Y-148000000D02*
X183500000Y-148000000D01*
X182500000Y-147500000D02*
X182500000Y-148000000D01*
X176500000Y-147500000D02*
X182500000Y-147500000D01*
D13*
X113000000Y-134000000D02*
X112000000Y-134000000D01*
X113000000Y-130000000D02*
X112000000Y-130000000D01*
X113000000Y-130000000D02*
G75*
G02*
X113000000Y-134000000I0J-2000000D01*
G01*
X112000000Y-134000000D02*
G75*
G02*
X112000000Y-130000000I0J2000000D01*
G01*
X195500000Y-132000000D02*
G75*
G03*
X195500000Y-132000000I-2000000J0D01*
G01*
X110500000Y-140000000D02*
G75*
G02*
X108000000Y-142500000I-2500000J0D01*
G01*
X108000000Y-137500000D02*
G75*
G02*
X110500000Y-140000000I0J-2500000D01*
G01*
X198000000Y-142500000D02*
G75*
G02*
X195500000Y-140000000I0J2500000D01*
G01*
X195500000Y-140000000D02*
G75*
G02*
X198000000Y-137500000I2500000J0D01*
G01*
D14*
X188000000Y-145000000D02*
X176500000Y-145000000D01*
X188000000Y-146000000D02*
X188000000Y-145000000D01*
X176500000Y-146000000D02*
X188000000Y-146000000D01*
D11*
X171500000Y-144500000D02*
X175000000Y-144500000D01*
X171500000Y-146000000D02*
X171500000Y-144500000D01*
X175000000Y-146000000D02*
X171500000Y-146000000D01*
X175000000Y-144500000D02*
X175000000Y-146000000D01*
D14*
X148000000Y-144500000D02*
X144500000Y-144500000D01*
X137000000Y-119500000D02*
X148000000Y-119500000D01*
X148500000Y-120000000D02*
X148500000Y-144000000D01*
X148000000Y-119500000D02*
G75*
G02*
X148500000Y-120000000I0J-500000D01*
G01*
X136500000Y-120000000D02*
X136500000Y-144000000D01*
X137000000Y-144500000D02*
G75*
G02*
X136500000Y-144000000I0J500000D01*
G01*
X137000000Y-144500000D02*
X140500000Y-144500000D01*
X136500000Y-120000000D02*
G75*
G02*
X137000000Y-119500000I500000J0D01*
G01*
X148500000Y-144000000D02*
G75*
G02*
X148000000Y-144500000I-500000J0D01*
G01*
X140500000Y-144500000D02*
X140500000Y-146000000D01*
X144500000Y-144500000D02*
X144500000Y-146000000D01*
X140500000Y-146000000D02*
X144500000Y-146000000D01*
X129500000Y-118500000D02*
G75*
G02*
X130500000Y-117500000I1000000J0D01*
G01*
X175500000Y-117500000D02*
G75*
G02*
X176500000Y-118500000I0J-1000000D01*
G01*
X129500000Y-118500000D02*
X129500000Y-149000000D01*
X176500000Y-118500000D02*
X176500000Y-149000000D01*
X130500000Y-117500000D02*
X175500000Y-117500000D01*
X130500000Y-117000000D02*
X187500000Y-117000000D01*
X129000000Y-118500000D02*
X129000000Y-149000000D01*
X187500000Y-117000000D02*
G75*
G02*
X189000000Y-118500000I0J-1500000D01*
G01*
X189000000Y-118500000D02*
X189000000Y-149000000D01*
X129000000Y-118500000D02*
G75*
G02*
X130500000Y-117000000I1500000J0D01*
G01*
D13*
X189000000Y-55000000D02*
X189000000Y-67500000D01*
X117000000Y-55000000D02*
X117000000Y-67500000D01*
X118500000Y-69000000D02*
G75*
G02*
X117000000Y-67500000I0J1500000D01*
G01*
X189000000Y-67500000D02*
G75*
G02*
X187500000Y-69000000I-1500000J0D01*
G01*
X187500000Y-69000000D02*
X118500000Y-69000000D01*
D15*
G36*
X179461036Y-79446576D02*
G01*
X179385487Y-79847322D01*
X178827959Y-80077154D01*
X178493535Y-79849748D01*
X178399878Y-79786431D01*
X178315218Y-79729896D01*
X178243505Y-79682727D01*
X178188689Y-79647502D01*
X178154720Y-79626805D01*
X178145470Y-79622342D01*
X178128805Y-79633820D01*
X178093194Y-79665551D01*
X178042629Y-79713483D01*
X177981100Y-79773562D01*
X177912601Y-79841733D01*
X177841121Y-79913945D01*
X177770653Y-79986142D01*
X177705189Y-80054273D01*
X177648720Y-80114283D01*
X177605237Y-80162119D01*
X177578732Y-80193727D01*
X177572395Y-80204305D01*
X177581514Y-80223806D01*
X177607080Y-80266531D01*
X177646403Y-80328298D01*
X177696797Y-80404931D01*
X177755573Y-80492248D01*
X177789632Y-80542052D01*
X177851711Y-80632993D01*
X177906874Y-80715059D01*
X177952446Y-80784163D01*
X177985750Y-80836222D01*
X178004110Y-80867150D01*
X178006869Y-80873650D01*
X178000615Y-80892121D01*
X177983566Y-80935172D01*
X177958297Y-80996749D01*
X177927378Y-81070799D01*
X177893382Y-81151270D01*
X177858882Y-81232107D01*
X177826449Y-81307258D01*
X177798657Y-81370671D01*
X177778077Y-81416293D01*
X177767281Y-81438069D01*
X177766644Y-81438926D01*
X177749693Y-81443084D01*
X177704549Y-81452361D01*
X177635890Y-81465844D01*
X177548398Y-81482621D01*
X177446750Y-81501781D01*
X177387444Y-81512830D01*
X177278828Y-81533510D01*
X177180723Y-81553189D01*
X177098091Y-81570789D01*
X177035896Y-81585233D01*
X176999101Y-81595446D01*
X176991704Y-81598686D01*
X176984460Y-81620617D01*
X176978615Y-81670147D01*
X176974165Y-81741485D01*
X176971107Y-81828839D01*
X176969435Y-81926417D01*
X176969147Y-82028426D01*
X176970239Y-82129075D01*
X176972706Y-82222572D01*
X176976544Y-82303125D01*
X176981750Y-82364942D01*
X176988319Y-82402230D01*
X176992259Y-82409993D01*
X177015812Y-82419298D01*
X177065718Y-82432600D01*
X177135377Y-82448337D01*
X177218187Y-82464946D01*
X177247095Y-82470319D01*
X177386469Y-82495848D01*
X177496564Y-82516408D01*
X177581018Y-82532815D01*
X177643470Y-82545887D01*
X177687556Y-82556441D01*
X177716915Y-82565294D01*
X177735185Y-82573263D01*
X177746002Y-82581165D01*
X177747515Y-82582727D01*
X177762623Y-82607886D01*
X177785671Y-82656850D01*
X177814356Y-82723621D01*
X177846378Y-82802205D01*
X177879435Y-82886607D01*
X177911227Y-82970830D01*
X177939451Y-83048879D01*
X177961807Y-83114759D01*
X177975993Y-83162473D01*
X177979707Y-83186027D01*
X177979398Y-83186852D01*
X177966811Y-83206104D01*
X177938256Y-83248463D01*
X177896733Y-83309521D01*
X177845244Y-83384868D01*
X177786789Y-83470096D01*
X177770142Y-83494315D01*
X177710785Y-83582123D01*
X177658553Y-83662238D01*
X177616292Y-83730062D01*
X177586847Y-83780993D01*
X177573063Y-83810431D01*
X177572395Y-83814048D01*
X177583976Y-83833057D01*
X177615976Y-83870714D01*
X177664282Y-83922973D01*
X177724780Y-83985786D01*
X177793356Y-84055106D01*
X177865896Y-84126885D01*
X177938288Y-84197077D01*
X178006416Y-84261635D01*
X178066168Y-84316510D01*
X178113429Y-84357656D01*
X178144087Y-84381026D01*
X178152568Y-84384842D01*
X178172309Y-84375855D01*
X178212726Y-84351616D01*
X178267237Y-84316209D01*
X178309177Y-84287711D01*
X178385171Y-84235418D01*
X178475166Y-84173845D01*
X178565436Y-84112370D01*
X178613968Y-84079469D01*
X178778238Y-83968359D01*
X178916131Y-84042916D01*
X178978951Y-84075578D01*
X179032371Y-84100966D01*
X179068516Y-84115446D01*
X179077716Y-84117460D01*
X179088779Y-84102584D01*
X179110606Y-84060547D01*
X179141566Y-83995227D01*
X179180030Y-83910500D01*
X179224368Y-83810245D01*
X179272953Y-83698339D01*
X179324154Y-83578659D01*
X179376341Y-83455084D01*
X179427887Y-83331491D01*
X179477160Y-83211757D01*
X179522533Y-83099759D01*
X179562375Y-82999377D01*
X179595058Y-82914486D01*
X179618951Y-82848965D01*
X179632426Y-82806690D01*
X179634594Y-82792172D01*
X179617417Y-82773653D01*
X179579810Y-82743590D01*
X179529634Y-82708232D01*
X179525422Y-82705434D01*
X179395736Y-82601625D01*
X179291166Y-82480515D01*
X179212619Y-82345976D01*
X179161001Y-82201882D01*
X179137218Y-82052105D01*
X179142177Y-81900517D01*
X179176783Y-81750992D01*
X179241943Y-81607400D01*
X179261114Y-81575984D01*
X179360826Y-81449125D01*
X179478623Y-81347255D01*
X179610429Y-81270904D01*
X179752167Y-81220602D01*
X179899758Y-81196879D01*
X180049127Y-81200265D01*
X180196197Y-81231288D01*
X180336889Y-81290480D01*
X180467127Y-81378369D01*
X180507414Y-81414042D01*
X180609945Y-81525706D01*
X180684659Y-81643257D01*
X180735910Y-81775020D01*
X180764454Y-81905507D01*
X180771500Y-82052216D01*
X180748004Y-82199653D01*
X180696351Y-82342834D01*
X180618929Y-82476777D01*
X180518125Y-82596498D01*
X180396324Y-82697014D01*
X180380316Y-82707609D01*
X180329602Y-82742306D01*
X180291050Y-82772370D01*
X180272619Y-82791565D01*
X180272351Y-82792172D01*
X180276308Y-82812936D01*
X180291993Y-82860062D01*
X180317778Y-82929673D01*
X180352031Y-83017893D01*
X180393123Y-83120844D01*
X180439424Y-83234650D01*
X180489304Y-83355435D01*
X180541133Y-83479321D01*
X180593281Y-83602432D01*
X180644118Y-83720891D01*
X180692013Y-83830823D01*
X180735338Y-83928349D01*
X180772462Y-84009593D01*
X180801756Y-84070679D01*
X180821588Y-84107730D01*
X180829574Y-84117460D01*
X180853979Y-84109883D01*
X180899642Y-84089560D01*
X180958690Y-84060125D01*
X180991160Y-84042916D01*
X181129053Y-83968359D01*
X181293323Y-84079469D01*
X181377179Y-84136390D01*
X181468987Y-84199030D01*
X181555020Y-84258011D01*
X181598113Y-84287711D01*
X181658723Y-84328410D01*
X181710045Y-84360663D01*
X181745385Y-84380384D01*
X181756863Y-84384554D01*
X181773570Y-84373307D01*
X181810546Y-84341911D01*
X181864205Y-84293624D01*
X181930962Y-84231708D01*
X182007234Y-84159421D01*
X182055473Y-84113008D01*
X182139867Y-84030087D01*
X182212803Y-83955920D01*
X182271331Y-83893680D01*
X182312503Y-83846541D01*
X182333372Y-83817673D01*
X182335374Y-83811815D01*
X182326083Y-83789532D01*
X182300409Y-83744477D01*
X182261200Y-83681211D01*
X182211303Y-83604295D01*
X182153567Y-83518292D01*
X182137149Y-83494315D01*
X182077323Y-83407170D01*
X182023650Y-83328710D01*
X181979130Y-83263345D01*
X181946765Y-83215484D01*
X181929555Y-83189535D01*
X181927893Y-83186852D01*
X181930379Y-83166172D01*
X181943577Y-83120704D01*
X181965186Y-83056444D01*
X181992904Y-82979387D01*
X182024430Y-82895529D01*
X182057463Y-82810866D01*
X182089701Y-82731392D01*
X182118843Y-82663104D01*
X182142588Y-82611997D01*
X182158635Y-82584067D01*
X182159775Y-82582727D01*
X182169588Y-82574745D01*
X182186161Y-82566851D01*
X182213132Y-82558229D01*
X182254139Y-82548062D01*
X182312820Y-82535531D01*
X182392813Y-82519821D01*
X182497755Y-82500113D01*
X182631285Y-82475592D01*
X182660196Y-82470319D01*
X182745882Y-82453764D01*
X182820582Y-82437569D01*
X182877694Y-82423296D01*
X182910617Y-82412508D01*
X182915031Y-82409993D01*
X182922306Y-82387696D01*
X182928219Y-82337869D01*
X182932766Y-82266304D01*
X182935945Y-82178793D01*
X182937749Y-82081128D01*
X182938177Y-81979101D01*
X182937223Y-81878503D01*
X182934884Y-81785127D01*
X182931156Y-81704765D01*
X182926034Y-81643209D01*
X182919516Y-81606250D01*
X182915586Y-81598686D01*
X182893708Y-81591056D01*
X182843891Y-81578642D01*
X182771097Y-81562522D01*
X182680289Y-81543773D01*
X182576431Y-81523471D01*
X182519846Y-81512830D01*
X182412486Y-81492760D01*
X182316746Y-81474580D01*
X182237306Y-81459199D01*
X182178846Y-81447531D01*
X182146045Y-81440488D01*
X182140646Y-81438926D01*
X182131522Y-81421322D01*
X182112235Y-81378918D01*
X182085355Y-81317772D01*
X182053454Y-81243943D01*
X182019102Y-81163489D01*
X181984871Y-81082468D01*
X181953331Y-81006937D01*
X181927054Y-80942955D01*
X181908611Y-80896580D01*
X181900571Y-80873869D01*
X181900422Y-80872876D01*
X181909535Y-80854961D01*
X181935086Y-80813733D01*
X181974388Y-80753291D01*
X182024757Y-80677731D01*
X182083506Y-80591152D01*
X182117658Y-80541421D01*
X182179890Y-80450236D01*
X182235164Y-80367449D01*
X182280782Y-80297249D01*
X182314048Y-80243824D01*
X182332264Y-80211361D01*
X182334895Y-80204083D01*
X182323586Y-80187145D01*
X182292319Y-80150978D01*
X182245090Y-80099635D01*
X182185892Y-80037167D01*
X182118719Y-79967626D01*
X182047566Y-79895065D01*
X181976426Y-79823535D01*
X181909293Y-79757087D01*
X181850161Y-79699774D01*
X181803025Y-79655647D01*
X181771877Y-79628759D01*
X181761457Y-79622342D01*
X181744491Y-79631365D01*
X181703911Y-79656715D01*
X181643663Y-79695810D01*
X181567693Y-79746071D01*
X181479946Y-79804917D01*
X181413756Y-79849748D01*
X181079332Y-80077154D01*
X180800567Y-79962238D01*
X180521803Y-79847322D01*
X180446254Y-79446576D01*
X180370706Y-79045829D01*
X179536585Y-79045829D01*
X179461036Y-79446576D01*
G37*
X179461036Y-79446576D02*
X179385487Y-79847322D01*
X178827959Y-80077154D01*
X178493535Y-79849748D01*
X178399878Y-79786431D01*
X178315218Y-79729896D01*
X178243505Y-79682727D01*
X178188689Y-79647502D01*
X178154720Y-79626805D01*
X178145470Y-79622342D01*
X178128805Y-79633820D01*
X178093194Y-79665551D01*
X178042629Y-79713483D01*
X177981100Y-79773562D01*
X177912601Y-79841733D01*
X177841121Y-79913945D01*
X177770653Y-79986142D01*
X177705189Y-80054273D01*
X177648720Y-80114283D01*
X177605237Y-80162119D01*
X177578732Y-80193727D01*
X177572395Y-80204305D01*
X177581514Y-80223806D01*
X177607080Y-80266531D01*
X177646403Y-80328298D01*
X177696797Y-80404931D01*
X177755573Y-80492248D01*
X177789632Y-80542052D01*
X177851711Y-80632993D01*
X177906874Y-80715059D01*
X177952446Y-80784163D01*
X177985750Y-80836222D01*
X178004110Y-80867150D01*
X178006869Y-80873650D01*
X178000615Y-80892121D01*
X177983566Y-80935172D01*
X177958297Y-80996749D01*
X177927378Y-81070799D01*
X177893382Y-81151270D01*
X177858882Y-81232107D01*
X177826449Y-81307258D01*
X177798657Y-81370671D01*
X177778077Y-81416293D01*
X177767281Y-81438069D01*
X177766644Y-81438926D01*
X177749693Y-81443084D01*
X177704549Y-81452361D01*
X177635890Y-81465844D01*
X177548398Y-81482621D01*
X177446750Y-81501781D01*
X177387444Y-81512830D01*
X177278828Y-81533510D01*
X177180723Y-81553189D01*
X177098091Y-81570789D01*
X177035896Y-81585233D01*
X176999101Y-81595446D01*
X176991704Y-81598686D01*
X176984460Y-81620617D01*
X176978615Y-81670147D01*
X176974165Y-81741485D01*
X176971107Y-81828839D01*
X176969435Y-81926417D01*
X176969147Y-82028426D01*
X176970239Y-82129075D01*
X176972706Y-82222572D01*
X176976544Y-82303125D01*
X176981750Y-82364942D01*
X176988319Y-82402230D01*
X176992259Y-82409993D01*
X177015812Y-82419298D01*
X177065718Y-82432600D01*
X177135377Y-82448337D01*
X177218187Y-82464946D01*
X177247095Y-82470319D01*
X177386469Y-82495848D01*
X177496564Y-82516408D01*
X177581018Y-82532815D01*
X177643470Y-82545887D01*
X177687556Y-82556441D01*
X177716915Y-82565294D01*
X177735185Y-82573263D01*
X177746002Y-82581165D01*
X177747515Y-82582727D01*
X177762623Y-82607886D01*
X177785671Y-82656850D01*
X177814356Y-82723621D01*
X177846378Y-82802205D01*
X177879435Y-82886607D01*
X177911227Y-82970830D01*
X177939451Y-83048879D01*
X177961807Y-83114759D01*
X177975993Y-83162473D01*
X177979707Y-83186027D01*
X177979398Y-83186852D01*
X177966811Y-83206104D01*
X177938256Y-83248463D01*
X177896733Y-83309521D01*
X177845244Y-83384868D01*
X177786789Y-83470096D01*
X177770142Y-83494315D01*
X177710785Y-83582123D01*
X177658553Y-83662238D01*
X177616292Y-83730062D01*
X177586847Y-83780993D01*
X177573063Y-83810431D01*
X177572395Y-83814048D01*
X177583976Y-83833057D01*
X177615976Y-83870714D01*
X177664282Y-83922973D01*
X177724780Y-83985786D01*
X177793356Y-84055106D01*
X177865896Y-84126885D01*
X177938288Y-84197077D01*
X178006416Y-84261635D01*
X178066168Y-84316510D01*
X178113429Y-84357656D01*
X178144087Y-84381026D01*
X178152568Y-84384842D01*
X178172309Y-84375855D01*
X178212726Y-84351616D01*
X178267237Y-84316209D01*
X178309177Y-84287711D01*
X178385171Y-84235418D01*
X178475166Y-84173845D01*
X178565436Y-84112370D01*
X178613968Y-84079469D01*
X178778238Y-83968359D01*
X178916131Y-84042916D01*
X178978951Y-84075578D01*
X179032371Y-84100966D01*
X179068516Y-84115446D01*
X179077716Y-84117460D01*
X179088779Y-84102584D01*
X179110606Y-84060547D01*
X179141566Y-83995227D01*
X179180030Y-83910500D01*
X179224368Y-83810245D01*
X179272953Y-83698339D01*
X179324154Y-83578659D01*
X179376341Y-83455084D01*
X179427887Y-83331491D01*
X179477160Y-83211757D01*
X179522533Y-83099759D01*
X179562375Y-82999377D01*
X179595058Y-82914486D01*
X179618951Y-82848965D01*
X179632426Y-82806690D01*
X179634594Y-82792172D01*
X179617417Y-82773653D01*
X179579810Y-82743590D01*
X179529634Y-82708232D01*
X179525422Y-82705434D01*
X179395736Y-82601625D01*
X179291166Y-82480515D01*
X179212619Y-82345976D01*
X179161001Y-82201882D01*
X179137218Y-82052105D01*
X179142177Y-81900517D01*
X179176783Y-81750992D01*
X179241943Y-81607400D01*
X179261114Y-81575984D01*
X179360826Y-81449125D01*
X179478623Y-81347255D01*
X179610429Y-81270904D01*
X179752167Y-81220602D01*
X179899758Y-81196879D01*
X180049127Y-81200265D01*
X180196197Y-81231288D01*
X180336889Y-81290480D01*
X180467127Y-81378369D01*
X180507414Y-81414042D01*
X180609945Y-81525706D01*
X180684659Y-81643257D01*
X180735910Y-81775020D01*
X180764454Y-81905507D01*
X180771500Y-82052216D01*
X180748004Y-82199653D01*
X180696351Y-82342834D01*
X180618929Y-82476777D01*
X180518125Y-82596498D01*
X180396324Y-82697014D01*
X180380316Y-82707609D01*
X180329602Y-82742306D01*
X180291050Y-82772370D01*
X180272619Y-82791565D01*
X180272351Y-82792172D01*
X180276308Y-82812936D01*
X180291993Y-82860062D01*
X180317778Y-82929673D01*
X180352031Y-83017893D01*
X180393123Y-83120844D01*
X180439424Y-83234650D01*
X180489304Y-83355435D01*
X180541133Y-83479321D01*
X180593281Y-83602432D01*
X180644118Y-83720891D01*
X180692013Y-83830823D01*
X180735338Y-83928349D01*
X180772462Y-84009593D01*
X180801756Y-84070679D01*
X180821588Y-84107730D01*
X180829574Y-84117460D01*
X180853979Y-84109883D01*
X180899642Y-84089560D01*
X180958690Y-84060125D01*
X180991160Y-84042916D01*
X181129053Y-83968359D01*
X181293323Y-84079469D01*
X181377179Y-84136390D01*
X181468987Y-84199030D01*
X181555020Y-84258011D01*
X181598113Y-84287711D01*
X181658723Y-84328410D01*
X181710045Y-84360663D01*
X181745385Y-84380384D01*
X181756863Y-84384554D01*
X181773570Y-84373307D01*
X181810546Y-84341911D01*
X181864205Y-84293624D01*
X181930962Y-84231708D01*
X182007234Y-84159421D01*
X182055473Y-84113008D01*
X182139867Y-84030087D01*
X182212803Y-83955920D01*
X182271331Y-83893680D01*
X182312503Y-83846541D01*
X182333372Y-83817673D01*
X182335374Y-83811815D01*
X182326083Y-83789532D01*
X182300409Y-83744477D01*
X182261200Y-83681211D01*
X182211303Y-83604295D01*
X182153567Y-83518292D01*
X182137149Y-83494315D01*
X182077323Y-83407170D01*
X182023650Y-83328710D01*
X181979130Y-83263345D01*
X181946765Y-83215484D01*
X181929555Y-83189535D01*
X181927893Y-83186852D01*
X181930379Y-83166172D01*
X181943577Y-83120704D01*
X181965186Y-83056444D01*
X181992904Y-82979387D01*
X182024430Y-82895529D01*
X182057463Y-82810866D01*
X182089701Y-82731392D01*
X182118843Y-82663104D01*
X182142588Y-82611997D01*
X182158635Y-82584067D01*
X182159775Y-82582727D01*
X182169588Y-82574745D01*
X182186161Y-82566851D01*
X182213132Y-82558229D01*
X182254139Y-82548062D01*
X182312820Y-82535531D01*
X182392813Y-82519821D01*
X182497755Y-82500113D01*
X182631285Y-82475592D01*
X182660196Y-82470319D01*
X182745882Y-82453764D01*
X182820582Y-82437569D01*
X182877694Y-82423296D01*
X182910617Y-82412508D01*
X182915031Y-82409993D01*
X182922306Y-82387696D01*
X182928219Y-82337869D01*
X182932766Y-82266304D01*
X182935945Y-82178793D01*
X182937749Y-82081128D01*
X182938177Y-81979101D01*
X182937223Y-81878503D01*
X182934884Y-81785127D01*
X182931156Y-81704765D01*
X182926034Y-81643209D01*
X182919516Y-81606250D01*
X182915586Y-81598686D01*
X182893708Y-81591056D01*
X182843891Y-81578642D01*
X182771097Y-81562522D01*
X182680289Y-81543773D01*
X182576431Y-81523471D01*
X182519846Y-81512830D01*
X182412486Y-81492760D01*
X182316746Y-81474580D01*
X182237306Y-81459199D01*
X182178846Y-81447531D01*
X182146045Y-81440488D01*
X182140646Y-81438926D01*
X182131522Y-81421322D01*
X182112235Y-81378918D01*
X182085355Y-81317772D01*
X182053454Y-81243943D01*
X182019102Y-81163489D01*
X181984871Y-81082468D01*
X181953331Y-81006937D01*
X181927054Y-80942955D01*
X181908611Y-80896580D01*
X181900571Y-80873869D01*
X181900422Y-80872876D01*
X181909535Y-80854961D01*
X181935086Y-80813733D01*
X181974388Y-80753291D01*
X182024757Y-80677731D01*
X182083506Y-80591152D01*
X182117658Y-80541421D01*
X182179890Y-80450236D01*
X182235164Y-80367449D01*
X182280782Y-80297249D01*
X182314048Y-80243824D01*
X182332264Y-80211361D01*
X182334895Y-80204083D01*
X182323586Y-80187145D01*
X182292319Y-80150978D01*
X182245090Y-80099635D01*
X182185892Y-80037167D01*
X182118719Y-79967626D01*
X182047566Y-79895065D01*
X181976426Y-79823535D01*
X181909293Y-79757087D01*
X181850161Y-79699774D01*
X181803025Y-79655647D01*
X181771877Y-79628759D01*
X181761457Y-79622342D01*
X181744491Y-79631365D01*
X181703911Y-79656715D01*
X181643663Y-79695810D01*
X181567693Y-79746071D01*
X181479946Y-79804917D01*
X181413756Y-79849748D01*
X181079332Y-80077154D01*
X180800567Y-79962238D01*
X180521803Y-79847322D01*
X180446254Y-79446576D01*
X180370706Y-79045829D01*
X179536585Y-79045829D01*
X179461036Y-79446576D01*
G36*
X177570612Y-84985645D02*
G01*
X177513135Y-85003206D01*
X177476128Y-85025395D01*
X177464073Y-85042942D01*
X177467391Y-85063742D01*
X177488921Y-85096419D01*
X177507126Y-85119562D01*
X177544656Y-85161402D01*
X177572852Y-85179005D01*
X177596889Y-85177856D01*
X177668192Y-85159710D01*
X177720558Y-85160534D01*
X177763082Y-85181098D01*
X177777358Y-85193134D01*
X177823053Y-85235483D01*
X177823053Y-85788526D01*
X178006869Y-85788526D01*
X178006869Y-84986421D01*
X177914961Y-84986421D01*
X177859781Y-84988603D01*
X177831312Y-84996351D01*
X177823057Y-85011468D01*
X177823053Y-85011916D01*
X177819155Y-85027749D01*
X177801526Y-85025684D01*
X177777099Y-85014261D01*
X177726650Y-84993005D01*
X177685684Y-84980216D01*
X177632972Y-84976938D01*
X177570612Y-84985645D01*
G37*
X177570612Y-84985645D02*
X177513135Y-85003206D01*
X177476128Y-85025395D01*
X177464073Y-85042942D01*
X177467391Y-85063742D01*
X177488921Y-85096419D01*
X177507126Y-85119562D01*
X177544656Y-85161402D01*
X177572852Y-85179005D01*
X177596889Y-85177856D01*
X177668192Y-85159710D01*
X177720558Y-85160534D01*
X177763082Y-85181098D01*
X177777358Y-85193134D01*
X177823053Y-85235483D01*
X177823053Y-85788526D01*
X178006869Y-85788526D01*
X178006869Y-84986421D01*
X177914961Y-84986421D01*
X177859781Y-84988603D01*
X177831312Y-84996351D01*
X177823057Y-85011468D01*
X177823053Y-85011916D01*
X177819155Y-85027749D01*
X177801526Y-85025684D01*
X177777099Y-85014261D01*
X177726650Y-84993005D01*
X177685684Y-84980216D01*
X177632972Y-84976938D01*
X177570612Y-84985645D01*
G36*
X180964043Y-85000226D02*
G01*
X180922454Y-85020090D01*
X180882175Y-85048784D01*
X180851490Y-85081809D01*
X180829139Y-85123931D01*
X180813864Y-85179915D01*
X180804408Y-85254528D01*
X180799513Y-85352535D01*
X180797919Y-85478702D01*
X180797894Y-85491914D01*
X180797527Y-85788526D01*
X180981343Y-85788526D01*
X180981343Y-85515081D01*
X180981473Y-85413777D01*
X180982379Y-85340353D01*
X180984827Y-85289271D01*
X180989586Y-85254990D01*
X180997426Y-85231971D01*
X181009115Y-85214673D01*
X181025398Y-85197581D01*
X181082366Y-85160857D01*
X181144555Y-85154042D01*
X181203801Y-85177261D01*
X181224405Y-85194543D01*
X181239530Y-85210791D01*
X181250390Y-85228191D01*
X181257690Y-85252212D01*
X181262137Y-85288322D01*
X181264436Y-85341988D01*
X181265296Y-85418680D01*
X181265422Y-85512043D01*
X181265422Y-85788526D01*
X181449237Y-85788526D01*
X181449237Y-84986421D01*
X181357329Y-84986421D01*
X181302149Y-84988603D01*
X181273680Y-84996351D01*
X181265425Y-85011468D01*
X181265422Y-85011916D01*
X181261592Y-85026720D01*
X181244699Y-85025040D01*
X181211112Y-85008773D01*
X181134937Y-84984840D01*
X181047800Y-84982178D01*
X180964043Y-85000226D01*
G37*
X180964043Y-85000226D02*
X180922454Y-85020090D01*
X180882175Y-85048784D01*
X180851490Y-85081809D01*
X180829139Y-85123931D01*
X180813864Y-85179915D01*
X180804408Y-85254528D01*
X180799513Y-85352535D01*
X180797919Y-85478702D01*
X180797894Y-85491914D01*
X180797527Y-85788526D01*
X180981343Y-85788526D01*
X180981343Y-85515081D01*
X180981473Y-85413777D01*
X180982379Y-85340353D01*
X180984827Y-85289271D01*
X180989586Y-85254990D01*
X180997426Y-85231971D01*
X181009115Y-85214673D01*
X181025398Y-85197581D01*
X181082366Y-85160857D01*
X181144555Y-85154042D01*
X181203801Y-85177261D01*
X181224405Y-85194543D01*
X181239530Y-85210791D01*
X181250390Y-85228191D01*
X181257690Y-85252212D01*
X181262137Y-85288322D01*
X181264436Y-85341988D01*
X181265296Y-85418680D01*
X181265422Y-85512043D01*
X181265422Y-85788526D01*
X181449237Y-85788526D01*
X181449237Y-84986421D01*
X181357329Y-84986421D01*
X181302149Y-84988603D01*
X181273680Y-84996351D01*
X181265425Y-85011468D01*
X181265422Y-85011916D01*
X181261592Y-85026720D01*
X181244699Y-85025040D01*
X181211112Y-85008773D01*
X181134937Y-84984840D01*
X181047800Y-84982178D01*
X180964043Y-85000226D01*
G36*
X176403216Y-84983554D02*
G01*
X176360426Y-84993949D01*
X176278391Y-85032013D01*
X176208243Y-85090149D01*
X176159695Y-85159852D01*
X176153025Y-85175502D01*
X176143876Y-85216496D01*
X176137471Y-85277138D01*
X176135290Y-85338430D01*
X176135290Y-85454316D01*
X176377593Y-85454316D01*
X176477529Y-85454693D01*
X176547931Y-85456987D01*
X176592687Y-85462938D01*
X176615685Y-85474285D01*
X176620811Y-85492771D01*
X176611952Y-85520136D01*
X176596083Y-85552155D01*
X176551816Y-85605592D01*
X176490301Y-85632215D01*
X176415115Y-85631347D01*
X176329947Y-85602371D01*
X176256341Y-85566611D01*
X176195266Y-85614904D01*
X176134190Y-85663197D01*
X176191649Y-85716285D01*
X176268359Y-85766445D01*
X176362698Y-85796688D01*
X176464173Y-85805151D01*
X176562289Y-85789974D01*
X176578119Y-85784824D01*
X176664353Y-85739791D01*
X176728499Y-85672652D01*
X176771909Y-85581405D01*
X176795936Y-85464044D01*
X176796216Y-85461529D01*
X176798367Y-85333627D01*
X176789671Y-85287997D01*
X176619895Y-85287997D01*
X176604303Y-85295013D01*
X176561971Y-85300388D01*
X176499566Y-85303457D01*
X176460019Y-85303921D01*
X176386272Y-85303630D01*
X176340160Y-85301783D01*
X176315900Y-85296912D01*
X176307706Y-85287555D01*
X176309794Y-85272245D01*
X176311545Y-85266322D01*
X176341440Y-85210668D01*
X176388458Y-85165815D01*
X176429951Y-85146105D01*
X176485074Y-85147295D01*
X176540932Y-85171875D01*
X176587788Y-85212570D01*
X176615906Y-85262108D01*
X176619895Y-85287997D01*
X176789671Y-85287997D01*
X176776926Y-85221133D01*
X176734389Y-85126727D01*
X176673253Y-85053088D01*
X176596015Y-85002893D01*
X176505170Y-84978822D01*
X176403216Y-84983554D01*
G37*
X176403216Y-84983554D02*
X176360426Y-84993949D01*
X176278391Y-85032013D01*
X176208243Y-85090149D01*
X176159695Y-85159852D01*
X176153025Y-85175502D01*
X176143876Y-85216496D01*
X176137471Y-85277138D01*
X176135290Y-85338430D01*
X176135290Y-85454316D01*
X176377593Y-85454316D01*
X176477529Y-85454693D01*
X176547931Y-85456987D01*
X176592687Y-85462938D01*
X176615685Y-85474285D01*
X176620811Y-85492771D01*
X176611952Y-85520136D01*
X176596083Y-85552155D01*
X176551816Y-85605592D01*
X176490301Y-85632215D01*
X176415115Y-85631347D01*
X176329947Y-85602371D01*
X176256341Y-85566611D01*
X176195266Y-85614904D01*
X176134190Y-85663197D01*
X176191649Y-85716285D01*
X176268359Y-85766445D01*
X176362698Y-85796688D01*
X176464173Y-85805151D01*
X176562289Y-85789974D01*
X176578119Y-85784824D01*
X176664353Y-85739791D01*
X176728499Y-85672652D01*
X176771909Y-85581405D01*
X176795936Y-85464044D01*
X176796216Y-85461529D01*
X176798367Y-85333627D01*
X176789671Y-85287997D01*
X176619895Y-85287997D01*
X176604303Y-85295013D01*
X176561971Y-85300388D01*
X176499566Y-85303457D01*
X176460019Y-85303921D01*
X176386272Y-85303630D01*
X176340160Y-85301783D01*
X176315900Y-85296912D01*
X176307706Y-85287555D01*
X176309794Y-85272245D01*
X176311545Y-85266322D01*
X176341440Y-85210668D01*
X176388458Y-85165815D01*
X176429951Y-85146105D01*
X176485074Y-85147295D01*
X176540932Y-85171875D01*
X176587788Y-85212570D01*
X176615906Y-85262108D01*
X176619895Y-85287997D01*
X176789671Y-85287997D01*
X176776926Y-85221133D01*
X176734389Y-85126727D01*
X176673253Y-85053088D01*
X176596015Y-85002893D01*
X176505170Y-84978822D01*
X176403216Y-84983554D01*
G36*
X177015424Y-84993419D02*
G01*
X176918605Y-85034549D01*
X176888110Y-85054571D01*
X176849135Y-85085340D01*
X176824669Y-85109533D01*
X176820422Y-85117413D01*
X176832416Y-85134899D01*
X176863113Y-85164570D01*
X176887688Y-85185279D01*
X176954954Y-85239336D01*
X177008070Y-85194642D01*
X177049116Y-85165789D01*
X177089137Y-85155829D01*
X177134941Y-85158261D01*
X177207676Y-85176345D01*
X177257744Y-85213881D01*
X177288171Y-85274562D01*
X177301983Y-85362081D01*
X177301987Y-85362136D01*
X177300792Y-85459958D01*
X177282228Y-85531730D01*
X177245196Y-85580595D01*
X177219950Y-85597143D01*
X177152903Y-85617749D01*
X177081291Y-85617762D01*
X177018985Y-85597768D01*
X177004237Y-85588000D01*
X176967250Y-85563047D01*
X176938332Y-85558958D01*
X176907144Y-85577530D01*
X176872664Y-85610887D01*
X176818088Y-85667196D01*
X176878682Y-85717142D01*
X176972302Y-85773513D01*
X177077875Y-85801293D01*
X177188202Y-85799282D01*
X177260657Y-85780862D01*
X177345344Y-85735310D01*
X177413073Y-85663650D01*
X177443843Y-85613066D01*
X177468764Y-85540488D01*
X177481234Y-85448569D01*
X177481330Y-85348948D01*
X177469130Y-85253267D01*
X177444710Y-85173169D01*
X177440864Y-85164956D01*
X177383907Y-85084413D01*
X177306791Y-85025771D01*
X177215610Y-84990247D01*
X177116457Y-84979057D01*
X177015424Y-84993419D01*
G37*
X177015424Y-84993419D02*
X176918605Y-85034549D01*
X176888110Y-85054571D01*
X176849135Y-85085340D01*
X176824669Y-85109533D01*
X176820422Y-85117413D01*
X176832416Y-85134899D01*
X176863113Y-85164570D01*
X176887688Y-85185279D01*
X176954954Y-85239336D01*
X177008070Y-85194642D01*
X177049116Y-85165789D01*
X177089137Y-85155829D01*
X177134941Y-85158261D01*
X177207676Y-85176345D01*
X177257744Y-85213881D01*
X177288171Y-85274562D01*
X177301983Y-85362081D01*
X177301987Y-85362136D01*
X177300792Y-85459958D01*
X177282228Y-85531730D01*
X177245196Y-85580595D01*
X177219950Y-85597143D01*
X177152903Y-85617749D01*
X177081291Y-85617762D01*
X177018985Y-85597768D01*
X177004237Y-85588000D01*
X176967250Y-85563047D01*
X176938332Y-85558958D01*
X176907144Y-85577530D01*
X176872664Y-85610887D01*
X176818088Y-85667196D01*
X176878682Y-85717142D01*
X176972302Y-85773513D01*
X177077875Y-85801293D01*
X177188202Y-85799282D01*
X177260657Y-85780862D01*
X177345344Y-85735310D01*
X177413073Y-85663650D01*
X177443843Y-85613066D01*
X177468764Y-85540488D01*
X177481234Y-85448569D01*
X177481330Y-85348948D01*
X177469130Y-85253267D01*
X177444710Y-85173169D01*
X177440864Y-85164956D01*
X177383907Y-85084413D01*
X177306791Y-85025771D01*
X177215610Y-84990247D01*
X177116457Y-84979057D01*
X177015424Y-84993419D01*
G36*
X178641869Y-85246533D02*
G01*
X178640290Y-85369089D01*
X178634519Y-85462179D01*
X178623009Y-85529651D01*
X178604210Y-85575355D01*
X178576574Y-85603139D01*
X178538552Y-85616854D01*
X178491474Y-85620358D01*
X178442168Y-85616432D01*
X178404717Y-85602089D01*
X178377572Y-85573478D01*
X178359185Y-85526751D01*
X178348007Y-85458058D01*
X178342489Y-85363550D01*
X178341079Y-85246533D01*
X178341079Y-84986421D01*
X178157264Y-84986421D01*
X178157264Y-85788526D01*
X178249172Y-85788526D01*
X178304578Y-85786281D01*
X178333109Y-85778396D01*
X178341079Y-85763428D01*
X178345880Y-85750097D01*
X178364986Y-85752917D01*
X178403496Y-85771783D01*
X178491761Y-85800887D01*
X178585377Y-85798825D01*
X178675079Y-85767221D01*
X178717796Y-85742257D01*
X178750379Y-85715226D01*
X178774183Y-85681405D01*
X178790561Y-85636068D01*
X178800869Y-85574489D01*
X178806459Y-85491943D01*
X178808688Y-85383705D01*
X178808974Y-85300004D01*
X178808974Y-84986421D01*
X178641869Y-84986421D01*
X178641869Y-85246533D01*
G37*
X178641869Y-85246533D02*
X178640290Y-85369089D01*
X178634519Y-85462179D01*
X178623009Y-85529651D01*
X178604210Y-85575355D01*
X178576574Y-85603139D01*
X178538552Y-85616854D01*
X178491474Y-85620358D01*
X178442168Y-85616432D01*
X178404717Y-85602089D01*
X178377572Y-85573478D01*
X178359185Y-85526751D01*
X178348007Y-85458058D01*
X178342489Y-85363550D01*
X178341079Y-85246533D01*
X178341079Y-84986421D01*
X178157264Y-84986421D01*
X178157264Y-85788526D01*
X178249172Y-85788526D01*
X178304578Y-85786281D01*
X178333109Y-85778396D01*
X178341079Y-85763428D01*
X178345880Y-85750097D01*
X178364986Y-85752917D01*
X178403496Y-85771783D01*
X178491761Y-85800887D01*
X178585377Y-85798825D01*
X178675079Y-85767221D01*
X178717796Y-85742257D01*
X178750379Y-85715226D01*
X178774183Y-85681405D01*
X178790561Y-85636068D01*
X178800869Y-85574489D01*
X178806459Y-85491943D01*
X178808688Y-85383705D01*
X178808974Y-85300004D01*
X178808974Y-84986421D01*
X178641869Y-84986421D01*
X178641869Y-85246533D01*
G36*
X179150331Y-84996310D02*
G01*
X179065808Y-85042340D01*
X178999679Y-85115006D01*
X178968522Y-85174106D01*
X178955145Y-85226305D01*
X178946478Y-85300719D01*
X178942763Y-85386442D01*
X178944246Y-85472569D01*
X178951169Y-85548193D01*
X178959255Y-85588584D01*
X178986535Y-85643840D01*
X179033780Y-85702530D01*
X179090718Y-85753852D01*
X179147076Y-85787005D01*
X179148450Y-85787531D01*
X179218384Y-85802018D01*
X179301263Y-85802377D01*
X179380023Y-85789188D01*
X179410434Y-85778617D01*
X179488761Y-85734201D01*
X179544857Y-85676007D01*
X179581714Y-85598965D01*
X179602320Y-85498001D01*
X179606982Y-85445116D01*
X179606387Y-85378663D01*
X179427264Y-85378663D01*
X179421230Y-85475630D01*
X179403862Y-85549523D01*
X179376260Y-85596736D01*
X179356596Y-85610237D01*
X179306213Y-85619651D01*
X179246327Y-85616864D01*
X179194551Y-85603316D01*
X179180973Y-85595862D01*
X179145151Y-85552451D01*
X179121507Y-85486014D01*
X179111442Y-85405161D01*
X179116358Y-85318502D01*
X179127345Y-85266349D01*
X179158891Y-85205951D01*
X179208689Y-85168197D01*
X179268663Y-85155143D01*
X179330736Y-85168849D01*
X179378418Y-85202372D01*
X179403475Y-85230031D01*
X179418100Y-85257294D01*
X179425071Y-85294190D01*
X179427167Y-85350750D01*
X179427264Y-85378663D01*
X179606387Y-85378663D01*
X179605718Y-85303994D01*
X179582735Y-85188271D01*
X179538028Y-85097941D01*
X179471595Y-85033000D01*
X179383435Y-84993445D01*
X179364505Y-84988858D01*
X179250734Y-84978090D01*
X179150331Y-84996310D01*
G37*
X179150331Y-84996310D02*
X179065808Y-85042340D01*
X178999679Y-85115006D01*
X178968522Y-85174106D01*
X178955145Y-85226305D01*
X178946478Y-85300719D01*
X178942763Y-85386442D01*
X178944246Y-85472569D01*
X178951169Y-85548193D01*
X178959255Y-85588584D01*
X178986535Y-85643840D01*
X179033780Y-85702530D01*
X179090718Y-85753852D01*
X179147076Y-85787005D01*
X179148450Y-85787531D01*
X179218384Y-85802018D01*
X179301263Y-85802377D01*
X179380023Y-85789188D01*
X179410434Y-85778617D01*
X179488761Y-85734201D01*
X179544857Y-85676007D01*
X179581714Y-85598965D01*
X179602320Y-85498001D01*
X179606982Y-85445116D01*
X179606387Y-85378663D01*
X179427264Y-85378663D01*
X179421230Y-85475630D01*
X179403862Y-85549523D01*
X179376260Y-85596736D01*
X179356596Y-85610237D01*
X179306213Y-85619651D01*
X179246327Y-85616864D01*
X179194551Y-85603316D01*
X179180973Y-85595862D01*
X179145151Y-85552451D01*
X179121507Y-85486014D01*
X179111442Y-85405161D01*
X179116358Y-85318502D01*
X179127345Y-85266349D01*
X179158891Y-85205951D01*
X179208689Y-85168197D01*
X179268663Y-85155143D01*
X179330736Y-85168849D01*
X179378418Y-85202372D01*
X179403475Y-85230031D01*
X179418100Y-85257294D01*
X179425071Y-85294190D01*
X179427167Y-85350750D01*
X179427264Y-85378663D01*
X179606387Y-85378663D01*
X179605718Y-85303994D01*
X179582735Y-85188271D01*
X179538028Y-85097941D01*
X179471595Y-85033000D01*
X179383435Y-84993445D01*
X179364505Y-84988858D01*
X179250734Y-84978090D01*
X179150331Y-84996310D01*
G36*
X179943372Y-84983547D02*
G01*
X179880092Y-84995548D01*
X179814443Y-85020648D01*
X179807428Y-85023848D01*
X179757644Y-85050026D01*
X179723166Y-85074353D01*
X179712022Y-85089937D01*
X179722634Y-85115353D01*
X179748412Y-85152853D01*
X179759854Y-85166852D01*
X179807008Y-85221954D01*
X179867799Y-85186086D01*
X179925653Y-85162192D01*
X179992500Y-85149420D01*
X180056606Y-85148613D01*
X180106236Y-85160615D01*
X180118146Y-85168105D01*
X180140828Y-85202450D01*
X180143584Y-85242013D01*
X180126612Y-85272920D01*
X180116573Y-85278913D01*
X180086490Y-85286357D01*
X180033611Y-85295106D01*
X179968425Y-85303467D01*
X179956400Y-85304778D01*
X179851703Y-85322888D01*
X179775768Y-85353651D01*
X179725408Y-85399907D01*
X179697436Y-85464497D01*
X179688722Y-85543387D01*
X179700760Y-85633065D01*
X179739849Y-85703486D01*
X179806145Y-85754777D01*
X179899806Y-85787067D01*
X180003777Y-85799807D01*
X180088562Y-85799654D01*
X180157335Y-85788083D01*
X180204303Y-85772109D01*
X180263650Y-85744275D01*
X180318494Y-85711973D01*
X180337987Y-85697755D01*
X180388119Y-85656835D01*
X180267197Y-85534477D01*
X180198457Y-85579967D01*
X180129512Y-85614133D01*
X180055889Y-85632004D01*
X179985117Y-85633889D01*
X179924726Y-85620101D01*
X179882243Y-85590949D01*
X179868526Y-85566352D01*
X179870583Y-85526904D01*
X179904670Y-85496737D01*
X179970692Y-85475906D01*
X180043026Y-85466279D01*
X180154348Y-85447910D01*
X180237048Y-85413254D01*
X180292235Y-85361297D01*
X180321012Y-85291023D01*
X180324999Y-85207707D01*
X180305307Y-85120681D01*
X180260411Y-85054902D01*
X180189909Y-85010068D01*
X180093399Y-84985879D01*
X180021900Y-84981137D01*
X179943372Y-84983547D01*
G37*
X179943372Y-84983547D02*
X179880092Y-84995548D01*
X179814443Y-85020648D01*
X179807428Y-85023848D01*
X179757644Y-85050026D01*
X179723166Y-85074353D01*
X179712022Y-85089937D01*
X179722634Y-85115353D01*
X179748412Y-85152853D01*
X179759854Y-85166852D01*
X179807008Y-85221954D01*
X179867799Y-85186086D01*
X179925653Y-85162192D01*
X179992500Y-85149420D01*
X180056606Y-85148613D01*
X180106236Y-85160615D01*
X180118146Y-85168105D01*
X180140828Y-85202450D01*
X180143584Y-85242013D01*
X180126612Y-85272920D01*
X180116573Y-85278913D01*
X180086490Y-85286357D01*
X180033611Y-85295106D01*
X179968425Y-85303467D01*
X179956400Y-85304778D01*
X179851703Y-85322888D01*
X179775768Y-85353651D01*
X179725408Y-85399907D01*
X179697436Y-85464497D01*
X179688722Y-85543387D01*
X179700760Y-85633065D01*
X179739849Y-85703486D01*
X179806145Y-85754777D01*
X179899806Y-85787067D01*
X180003777Y-85799807D01*
X180088562Y-85799654D01*
X180157335Y-85788083D01*
X180204303Y-85772109D01*
X180263650Y-85744275D01*
X180318494Y-85711973D01*
X180337987Y-85697755D01*
X180388119Y-85656835D01*
X180267197Y-85534477D01*
X180198457Y-85579967D01*
X180129512Y-85614133D01*
X180055889Y-85632004D01*
X179985117Y-85633889D01*
X179924726Y-85620101D01*
X179882243Y-85590949D01*
X179868526Y-85566352D01*
X179870583Y-85526904D01*
X179904670Y-85496737D01*
X179970692Y-85475906D01*
X180043026Y-85466279D01*
X180154348Y-85447910D01*
X180237048Y-85413254D01*
X180292235Y-85361297D01*
X180321012Y-85291023D01*
X180324999Y-85207707D01*
X180305307Y-85120681D01*
X180260411Y-85054902D01*
X180189909Y-85010068D01*
X180093399Y-84985879D01*
X180021900Y-84981137D01*
X179943372Y-84983547D01*
G36*
X181764982Y-85005027D02*
G01*
X181748330Y-85012866D01*
X181690695Y-85055086D01*
X181636195Y-85116700D01*
X181595501Y-85184543D01*
X181583926Y-85215734D01*
X181573366Y-85271449D01*
X181567069Y-85338781D01*
X181566304Y-85366585D01*
X181566211Y-85454316D01*
X182071150Y-85454316D01*
X182060387Y-85500270D01*
X182033967Y-85554620D01*
X181987778Y-85601591D01*
X181932828Y-85631848D01*
X181897811Y-85638131D01*
X181850323Y-85630506D01*
X181793665Y-85611383D01*
X181774418Y-85602584D01*
X181703241Y-85567036D01*
X181642498Y-85613367D01*
X181607448Y-85644703D01*
X181588798Y-85670567D01*
X181587853Y-85678158D01*
X181604515Y-85696556D01*
X181641030Y-85724515D01*
X181674172Y-85746327D01*
X181763607Y-85785537D01*
X181863871Y-85803285D01*
X181963246Y-85798670D01*
X182042461Y-85774551D01*
X182124120Y-85722884D01*
X182182151Y-85654856D01*
X182218454Y-85566843D01*
X182234928Y-85455216D01*
X182236389Y-85404138D01*
X182230543Y-85287091D01*
X182229825Y-85283686D01*
X182062511Y-85283686D01*
X182057903Y-85294662D01*
X182038964Y-85300715D01*
X181999902Y-85303310D01*
X181934923Y-85303910D01*
X181909903Y-85303921D01*
X181833779Y-85303014D01*
X181785504Y-85299720D01*
X181759540Y-85293181D01*
X181750352Y-85282537D01*
X181750027Y-85279119D01*
X181760513Y-85251956D01*
X181786758Y-85213903D01*
X181798041Y-85200579D01*
X181839928Y-85162896D01*
X181883591Y-85148080D01*
X181907115Y-85146842D01*
X181970757Y-85162329D01*
X182024127Y-85203930D01*
X182057981Y-85264353D01*
X182058581Y-85266322D01*
X182062511Y-85283686D01*
X182229825Y-85283686D01*
X182211101Y-85194928D01*
X182176078Y-85121190D01*
X182133244Y-85068848D01*
X182054052Y-85012092D01*
X181960960Y-84981762D01*
X181861945Y-84979021D01*
X181764982Y-85005027D01*
G37*
X181764982Y-85005027D02*
X181748330Y-85012866D01*
X181690695Y-85055086D01*
X181636195Y-85116700D01*
X181595501Y-85184543D01*
X181583926Y-85215734D01*
X181573366Y-85271449D01*
X181567069Y-85338781D01*
X181566304Y-85366585D01*
X181566211Y-85454316D01*
X182071150Y-85454316D01*
X182060387Y-85500270D01*
X182033967Y-85554620D01*
X181987778Y-85601591D01*
X181932828Y-85631848D01*
X181897811Y-85638131D01*
X181850323Y-85630506D01*
X181793665Y-85611383D01*
X181774418Y-85602584D01*
X181703241Y-85567036D01*
X181642498Y-85613367D01*
X181607448Y-85644703D01*
X181588798Y-85670567D01*
X181587853Y-85678158D01*
X181604515Y-85696556D01*
X181641030Y-85724515D01*
X181674172Y-85746327D01*
X181763607Y-85785537D01*
X181863871Y-85803285D01*
X181963246Y-85798670D01*
X182042461Y-85774551D01*
X182124120Y-85722884D01*
X182182151Y-85654856D01*
X182218454Y-85566843D01*
X182234928Y-85455216D01*
X182236389Y-85404138D01*
X182230543Y-85287091D01*
X182229825Y-85283686D01*
X182062511Y-85283686D01*
X182057903Y-85294662D01*
X182038964Y-85300715D01*
X181999902Y-85303310D01*
X181934923Y-85303910D01*
X181909903Y-85303921D01*
X181833779Y-85303014D01*
X181785504Y-85299720D01*
X181759540Y-85293181D01*
X181750352Y-85282537D01*
X181750027Y-85279119D01*
X181760513Y-85251956D01*
X181786758Y-85213903D01*
X181798041Y-85200579D01*
X181839928Y-85162896D01*
X181883591Y-85148080D01*
X181907115Y-85146842D01*
X181970757Y-85162329D01*
X182024127Y-85203930D01*
X182057981Y-85264353D01*
X182058581Y-85266322D01*
X182062511Y-85283686D01*
X182229825Y-85283686D01*
X182211101Y-85194928D01*
X182176078Y-85121190D01*
X182133244Y-85068848D01*
X182054052Y-85012092D01*
X181960960Y-84981762D01*
X181861945Y-84979021D01*
X181764982Y-85005027D01*
G36*
X183335216Y-84995104D02*
G01*
X183247795Y-85033754D01*
X183181430Y-85098290D01*
X183136024Y-85188812D01*
X183111482Y-85305418D01*
X183109723Y-85323624D01*
X183108344Y-85451984D01*
X183126216Y-85564496D01*
X183162250Y-85655688D01*
X183181545Y-85685022D01*
X183248755Y-85747106D01*
X183334350Y-85787316D01*
X183430110Y-85804003D01*
X183527813Y-85795517D01*
X183602083Y-85769380D01*
X183665953Y-85725335D01*
X183718154Y-85667587D01*
X183719057Y-85666236D01*
X183740256Y-85630593D01*
X183754033Y-85594752D01*
X183762376Y-85549519D01*
X183767273Y-85485701D01*
X183769431Y-85433368D01*
X183770329Y-85385910D01*
X183603257Y-85385910D01*
X183601624Y-85433154D01*
X183595696Y-85496046D01*
X183585239Y-85536407D01*
X183566381Y-85565122D01*
X183548719Y-85581896D01*
X183486106Y-85617016D01*
X183420592Y-85621710D01*
X183359579Y-85596440D01*
X183329072Y-85568124D01*
X183307089Y-85539589D01*
X183294231Y-85512284D01*
X183288588Y-85476750D01*
X183288249Y-85423524D01*
X183289988Y-85374506D01*
X183293729Y-85304482D01*
X183299659Y-85259064D01*
X183310347Y-85229440D01*
X183328361Y-85206797D01*
X183342637Y-85193855D01*
X183402349Y-85159860D01*
X183466766Y-85158165D01*
X183520781Y-85178301D01*
X183566860Y-85220352D01*
X183594311Y-85289428D01*
X183603257Y-85385910D01*
X183770329Y-85385910D01*
X183771401Y-85329299D01*
X183768036Y-85251468D01*
X183757955Y-85192930D01*
X183739774Y-85146737D01*
X183712110Y-85105942D01*
X183701854Y-85093828D01*
X183637722Y-85033474D01*
X183568934Y-84998220D01*
X183484811Y-84983450D01*
X183443791Y-84982243D01*
X183335216Y-84995104D01*
G37*
X183335216Y-84995104D02*
X183247795Y-85033754D01*
X183181430Y-85098290D01*
X183136024Y-85188812D01*
X183111482Y-85305418D01*
X183109723Y-85323624D01*
X183108344Y-85451984D01*
X183126216Y-85564496D01*
X183162250Y-85655688D01*
X183181545Y-85685022D01*
X183248755Y-85747106D01*
X183334350Y-85787316D01*
X183430110Y-85804003D01*
X183527813Y-85795517D01*
X183602083Y-85769380D01*
X183665953Y-85725335D01*
X183718154Y-85667587D01*
X183719057Y-85666236D01*
X183740256Y-85630593D01*
X183754033Y-85594752D01*
X183762376Y-85549519D01*
X183767273Y-85485701D01*
X183769431Y-85433368D01*
X183770329Y-85385910D01*
X183603257Y-85385910D01*
X183601624Y-85433154D01*
X183595696Y-85496046D01*
X183585239Y-85536407D01*
X183566381Y-85565122D01*
X183548719Y-85581896D01*
X183486106Y-85617016D01*
X183420592Y-85621710D01*
X183359579Y-85596440D01*
X183329072Y-85568124D01*
X183307089Y-85539589D01*
X183294231Y-85512284D01*
X183288588Y-85476750D01*
X183288249Y-85423524D01*
X183289988Y-85374506D01*
X183293729Y-85304482D01*
X183299659Y-85259064D01*
X183310347Y-85229440D01*
X183328361Y-85206797D01*
X183342637Y-85193855D01*
X183402349Y-85159860D01*
X183466766Y-85158165D01*
X183520781Y-85178301D01*
X183566860Y-85220352D01*
X183594311Y-85289428D01*
X183603257Y-85385910D01*
X183770329Y-85385910D01*
X183771401Y-85329299D01*
X183768036Y-85251468D01*
X183757955Y-85192930D01*
X183739774Y-85146737D01*
X183712110Y-85105942D01*
X183701854Y-85093828D01*
X183637722Y-85033474D01*
X183568934Y-84998220D01*
X183484811Y-84983450D01*
X183443791Y-84982243D01*
X183335216Y-84995104D01*
G36*
X177260807Y-86244078D02*
G01*
X177180932Y-86264845D01*
X177114038Y-86307705D01*
X177081649Y-86339723D01*
X177028555Y-86415413D01*
X176998127Y-86503216D01*
X176987673Y-86611150D01*
X176987620Y-86619875D01*
X176987527Y-86707605D01*
X177492466Y-86707605D01*
X177481702Y-86753559D01*
X177462268Y-86795178D01*
X177428255Y-86838544D01*
X177421140Y-86845467D01*
X177359997Y-86882935D01*
X177290271Y-86889289D01*
X177210013Y-86864638D01*
X177196408Y-86858000D01*
X177154681Y-86837819D01*
X177126732Y-86826321D01*
X177121855Y-86825258D01*
X177104832Y-86835583D01*
X177072367Y-86860845D01*
X177055886Y-86874650D01*
X177021736Y-86906361D01*
X177010522Y-86927299D01*
X177018305Y-86946560D01*
X177022465Y-86951827D01*
X177050643Y-86974878D01*
X177097138Y-87002892D01*
X177129566Y-87019246D01*
X177221615Y-87048059D01*
X177323524Y-87057395D01*
X177420037Y-87046332D01*
X177447066Y-87038412D01*
X177530724Y-86993581D01*
X177592734Y-86924598D01*
X177633455Y-86830794D01*
X177653245Y-86711498D01*
X177655418Y-86649118D01*
X177649074Y-86558298D01*
X177488843Y-86558298D01*
X177473345Y-86565012D01*
X177431688Y-86570280D01*
X177371124Y-86573389D01*
X177330093Y-86573921D01*
X177256289Y-86573408D01*
X177209707Y-86571006D01*
X177184152Y-86565422D01*
X177173431Y-86555361D01*
X177171343Y-86540763D01*
X177185669Y-86495796D01*
X177221738Y-86451353D01*
X177269185Y-86417242D01*
X177316651Y-86403288D01*
X177381121Y-86415666D01*
X177436930Y-86451452D01*
X177475626Y-86503033D01*
X177488843Y-86558298D01*
X177649074Y-86558298D01*
X177646179Y-86516866D01*
X177617664Y-86411498D01*
X177569271Y-86332178D01*
X177500396Y-86278071D01*
X177410435Y-86248343D01*
X177361700Y-86242618D01*
X177260807Y-86244078D01*
G37*
X177260807Y-86244078D02*
X177180932Y-86264845D01*
X177114038Y-86307705D01*
X177081649Y-86339723D01*
X177028555Y-86415413D01*
X176998127Y-86503216D01*
X176987673Y-86611150D01*
X176987620Y-86619875D01*
X176987527Y-86707605D01*
X177492466Y-86707605D01*
X177481702Y-86753559D01*
X177462268Y-86795178D01*
X177428255Y-86838544D01*
X177421140Y-86845467D01*
X177359997Y-86882935D01*
X177290271Y-86889289D01*
X177210013Y-86864638D01*
X177196408Y-86858000D01*
X177154681Y-86837819D01*
X177126732Y-86826321D01*
X177121855Y-86825258D01*
X177104832Y-86835583D01*
X177072367Y-86860845D01*
X177055886Y-86874650D01*
X177021736Y-86906361D01*
X177010522Y-86927299D01*
X177018305Y-86946560D01*
X177022465Y-86951827D01*
X177050643Y-86974878D01*
X177097138Y-87002892D01*
X177129566Y-87019246D01*
X177221615Y-87048059D01*
X177323524Y-87057395D01*
X177420037Y-87046332D01*
X177447066Y-87038412D01*
X177530724Y-86993581D01*
X177592734Y-86924598D01*
X177633455Y-86830794D01*
X177653245Y-86711498D01*
X177655418Y-86649118D01*
X177649074Y-86558298D01*
X177488843Y-86558298D01*
X177473345Y-86565012D01*
X177431688Y-86570280D01*
X177371124Y-86573389D01*
X177330093Y-86573921D01*
X177256289Y-86573408D01*
X177209707Y-86571006D01*
X177184152Y-86565422D01*
X177173431Y-86555361D01*
X177171343Y-86540763D01*
X177185669Y-86495796D01*
X177221738Y-86451353D01*
X177269185Y-86417242D01*
X177316651Y-86403288D01*
X177381121Y-86415666D01*
X177436930Y-86451452D01*
X177475626Y-86503033D01*
X177488843Y-86558298D01*
X177649074Y-86558298D01*
X177646179Y-86516866D01*
X177617664Y-86411498D01*
X177569271Y-86332178D01*
X177500396Y-86278071D01*
X177410435Y-86248343D01*
X177361700Y-86242618D01*
X177260807Y-86244078D01*
G36*
X177788833Y-86239447D02*
G01*
X177724592Y-86252112D01*
X177688020Y-86270864D01*
X177649547Y-86302017D01*
X177704283Y-86371127D01*
X177738031Y-86412979D01*
X177760947Y-86433398D01*
X177783721Y-86436517D01*
X177817044Y-86426472D01*
X177832686Y-86420789D01*
X177896458Y-86412404D01*
X177954860Y-86430378D01*
X177997736Y-86470982D01*
X178004701Y-86483929D01*
X178012287Y-86518224D01*
X178018141Y-86581427D01*
X178021989Y-86669060D01*
X178023557Y-86776640D01*
X178023579Y-86791944D01*
X178023579Y-87058526D01*
X178207395Y-87058526D01*
X178207395Y-86239710D01*
X178115487Y-86239710D01*
X178062493Y-86241094D01*
X178034885Y-86247252D01*
X178024676Y-86261194D01*
X178023579Y-86274344D01*
X178023579Y-86308978D01*
X177979550Y-86274344D01*
X177929063Y-86250716D01*
X177861240Y-86239033D01*
X177788833Y-86239447D01*
G37*
X177788833Y-86239447D02*
X177724592Y-86252112D01*
X177688020Y-86270864D01*
X177649547Y-86302017D01*
X177704283Y-86371127D01*
X177738031Y-86412979D01*
X177760947Y-86433398D01*
X177783721Y-86436517D01*
X177817044Y-86426472D01*
X177832686Y-86420789D01*
X177896458Y-86412404D01*
X177954860Y-86430378D01*
X177997736Y-86470982D01*
X178004701Y-86483929D01*
X178012287Y-86518224D01*
X178018141Y-86581427D01*
X178021989Y-86669060D01*
X178023557Y-86776640D01*
X178023579Y-86791944D01*
X178023579Y-87058526D01*
X178207395Y-87058526D01*
X178207395Y-86239710D01*
X178115487Y-86239710D01*
X178062493Y-86241094D01*
X178034885Y-86247252D01*
X178024676Y-86261194D01*
X178023579Y-86274344D01*
X178023579Y-86308978D01*
X177979550Y-86274344D01*
X177929063Y-86250716D01*
X177861240Y-86239033D01*
X177788833Y-86239447D01*
G36*
X178582008Y-86244673D02*
G01*
X178511573Y-86261780D01*
X178491213Y-86270844D01*
X178451747Y-86294583D01*
X178421459Y-86321321D01*
X178399048Y-86355699D01*
X178383214Y-86402360D01*
X178372657Y-86465946D01*
X178366076Y-86551099D01*
X178362172Y-86662462D01*
X178360690Y-86736849D01*
X178355235Y-87058526D01*
X178448420Y-87058526D01*
X178504953Y-87056156D01*
X178534078Y-87048055D01*
X178541606Y-87034451D01*
X178545580Y-87019741D01*
X178563348Y-87022554D01*
X178587560Y-87034348D01*
X178648172Y-87052427D01*
X178726071Y-87057299D01*
X178808005Y-87049330D01*
X178880719Y-87028889D01*
X178887241Y-87026051D01*
X178953698Y-86979365D01*
X178997509Y-86914464D01*
X179017668Y-86838600D01*
X179016128Y-86811344D01*
X178851655Y-86811344D01*
X178837163Y-86848024D01*
X178794195Y-86874309D01*
X178724871Y-86888417D01*
X178687823Y-86890290D01*
X178626081Y-86885494D01*
X178585040Y-86866858D01*
X178575027Y-86858000D01*
X178547900Y-86809806D01*
X178541606Y-86766092D01*
X178541606Y-86707605D01*
X178623070Y-86707605D01*
X178717766Y-86712432D01*
X178784187Y-86727613D01*
X178826154Y-86754200D01*
X178835551Y-86766052D01*
X178851655Y-86811344D01*
X179016128Y-86811344D01*
X179013171Y-86759026D01*
X178983015Y-86682995D01*
X178941869Y-86631612D01*
X178916948Y-86609397D01*
X178892552Y-86594798D01*
X178860809Y-86585897D01*
X178813848Y-86580775D01*
X178743796Y-86577515D01*
X178716010Y-86576577D01*
X178541606Y-86570879D01*
X178541862Y-86518091D01*
X178548616Y-86462603D01*
X178573036Y-86429052D01*
X178622370Y-86407618D01*
X178623694Y-86407236D01*
X178693640Y-86398808D01*
X178762086Y-86409816D01*
X178812953Y-86436585D01*
X178833363Y-86449803D01*
X178855346Y-86447974D01*
X178889174Y-86428824D01*
X178909039Y-86415308D01*
X178947894Y-86386432D01*
X178971962Y-86364786D01*
X178975824Y-86358589D01*
X178959921Y-86326519D01*
X178912935Y-86288219D01*
X178892527Y-86275297D01*
X178833857Y-86253041D01*
X178754788Y-86240432D01*
X178666959Y-86237600D01*
X178582008Y-86244673D01*
G37*
X178582008Y-86244673D02*
X178511573Y-86261780D01*
X178491213Y-86270844D01*
X178451747Y-86294583D01*
X178421459Y-86321321D01*
X178399048Y-86355699D01*
X178383214Y-86402360D01*
X178372657Y-86465946D01*
X178366076Y-86551099D01*
X178362172Y-86662462D01*
X178360690Y-86736849D01*
X178355235Y-87058526D01*
X178448420Y-87058526D01*
X178504953Y-87056156D01*
X178534078Y-87048055D01*
X178541606Y-87034451D01*
X178545580Y-87019741D01*
X178563348Y-87022554D01*
X178587560Y-87034348D01*
X178648172Y-87052427D01*
X178726071Y-87057299D01*
X178808005Y-87049330D01*
X178880719Y-87028889D01*
X178887241Y-87026051D01*
X178953698Y-86979365D01*
X178997509Y-86914464D01*
X179017668Y-86838600D01*
X179016128Y-86811344D01*
X178851655Y-86811344D01*
X178837163Y-86848024D01*
X178794195Y-86874309D01*
X178724871Y-86888417D01*
X178687823Y-86890290D01*
X178626081Y-86885494D01*
X178585040Y-86866858D01*
X178575027Y-86858000D01*
X178547900Y-86809806D01*
X178541606Y-86766092D01*
X178541606Y-86707605D01*
X178623070Y-86707605D01*
X178717766Y-86712432D01*
X178784187Y-86727613D01*
X178826154Y-86754200D01*
X178835551Y-86766052D01*
X178851655Y-86811344D01*
X179016128Y-86811344D01*
X179013171Y-86759026D01*
X178983015Y-86682995D01*
X178941869Y-86631612D01*
X178916948Y-86609397D01*
X178892552Y-86594798D01*
X178860809Y-86585897D01*
X178813848Y-86580775D01*
X178743796Y-86577515D01*
X178716010Y-86576577D01*
X178541606Y-86570879D01*
X178541862Y-86518091D01*
X178548616Y-86462603D01*
X178573036Y-86429052D01*
X178622370Y-86407618D01*
X178623694Y-86407236D01*
X178693640Y-86398808D01*
X178762086Y-86409816D01*
X178812953Y-86436585D01*
X178833363Y-86449803D01*
X178855346Y-86447974D01*
X178889174Y-86428824D01*
X178909039Y-86415308D01*
X178947894Y-86386432D01*
X178971962Y-86364786D01*
X178975824Y-86358589D01*
X178959921Y-86326519D01*
X178912935Y-86288219D01*
X178892527Y-86275297D01*
X178833857Y-86253041D01*
X178754788Y-86240432D01*
X178666959Y-86237600D01*
X178582008Y-86244673D01*
G36*
X179587870Y-86243104D02*
G01*
X179521780Y-86248066D01*
X179435374Y-86507079D01*
X179348969Y-86766092D01*
X179321876Y-86674184D01*
X179305572Y-86617384D01*
X179284125Y-86540625D01*
X179260965Y-86456251D01*
X179248720Y-86410993D01*
X179202656Y-86239710D01*
X179012613Y-86239710D01*
X179069418Y-86419349D01*
X179097393Y-86507704D01*
X179131187Y-86614281D01*
X179166480Y-86725454D01*
X179197987Y-86824579D01*
X179269750Y-87050171D01*
X179424714Y-87060253D01*
X179466730Y-86921528D01*
X179492641Y-86835351D01*
X179520917Y-86740347D01*
X179545631Y-86656441D01*
X179546606Y-86653102D01*
X179565065Y-86596248D01*
X179581351Y-86557456D01*
X179592758Y-86542787D01*
X179595102Y-86544483D01*
X179603329Y-86567225D01*
X179618962Y-86615940D01*
X179640096Y-86684502D01*
X179664830Y-86766785D01*
X179678213Y-86812046D01*
X179750689Y-87058526D01*
X179904505Y-87058526D01*
X180027469Y-86670006D01*
X180062012Y-86561022D01*
X180093479Y-86462048D01*
X180120384Y-86377736D01*
X180141241Y-86312734D01*
X180154562Y-86271692D01*
X180158612Y-86259701D01*
X180155406Y-86247423D01*
X180130235Y-86242046D01*
X180077854Y-86242584D01*
X180069655Y-86242990D01*
X179972518Y-86248066D01*
X179908900Y-86482013D01*
X179885516Y-86567333D01*
X179864619Y-86642335D01*
X179848049Y-86700507D01*
X179837646Y-86735337D01*
X179835724Y-86741016D01*
X179827759Y-86734486D01*
X179811696Y-86700654D01*
X179789379Y-86644127D01*
X179762655Y-86569510D01*
X179740063Y-86502107D01*
X179653959Y-86238143D01*
X179587870Y-86243104D01*
G37*
X179587870Y-86243104D02*
X179521780Y-86248066D01*
X179435374Y-86507079D01*
X179348969Y-86766092D01*
X179321876Y-86674184D01*
X179305572Y-86617384D01*
X179284125Y-86540625D01*
X179260965Y-86456251D01*
X179248720Y-86410993D01*
X179202656Y-86239710D01*
X179012613Y-86239710D01*
X179069418Y-86419349D01*
X179097393Y-86507704D01*
X179131187Y-86614281D01*
X179166480Y-86725454D01*
X179197987Y-86824579D01*
X179269750Y-87050171D01*
X179424714Y-87060253D01*
X179466730Y-86921528D01*
X179492641Y-86835351D01*
X179520917Y-86740347D01*
X179545631Y-86656441D01*
X179546606Y-86653102D01*
X179565065Y-86596248D01*
X179581351Y-86557456D01*
X179592758Y-86542787D01*
X179595102Y-86544483D01*
X179603329Y-86567225D01*
X179618962Y-86615940D01*
X179640096Y-86684502D01*
X179664830Y-86766785D01*
X179678213Y-86812046D01*
X179750689Y-87058526D01*
X179904505Y-87058526D01*
X180027469Y-86670006D01*
X180062012Y-86561022D01*
X180093479Y-86462048D01*
X180120384Y-86377736D01*
X180141241Y-86312734D01*
X180154562Y-86271692D01*
X180158612Y-86259701D01*
X180155406Y-86247423D01*
X180130235Y-86242046D01*
X180077854Y-86242584D01*
X180069655Y-86242990D01*
X179972518Y-86248066D01*
X179908900Y-86482013D01*
X179885516Y-86567333D01*
X179864619Y-86642335D01*
X179848049Y-86700507D01*
X179837646Y-86735337D01*
X179835724Y-86741016D01*
X179827759Y-86734486D01*
X179811696Y-86700654D01*
X179789379Y-86644127D01*
X179762655Y-86569510D01*
X179740063Y-86502107D01*
X179653959Y-86238143D01*
X179587870Y-86243104D01*
G36*
X180229369Y-87058526D02*
G01*
X180321277Y-87058526D01*
X180374623Y-87056962D01*
X180402407Y-87050485D01*
X180412410Y-87036418D01*
X180413185Y-87026906D01*
X180414872Y-87007832D01*
X180425510Y-87004174D01*
X180453465Y-87015932D01*
X180475205Y-87026906D01*
X180558668Y-87052911D01*
X180649396Y-87054416D01*
X180723158Y-87035021D01*
X180791846Y-86988165D01*
X180844206Y-86919004D01*
X180872878Y-86837427D01*
X180873608Y-86832866D01*
X180877868Y-86783101D01*
X180879986Y-86711659D01*
X180879816Y-86657626D01*
X180697280Y-86657626D01*
X180693051Y-86729441D01*
X180683432Y-86788634D01*
X180670410Y-86822060D01*
X180621144Y-86867740D01*
X180562650Y-86884115D01*
X180502329Y-86870873D01*
X180450783Y-86831373D01*
X180431262Y-86804807D01*
X180419848Y-86773106D01*
X180414502Y-86726832D01*
X180413185Y-86657328D01*
X180415542Y-86588499D01*
X180421767Y-86528026D01*
X180430592Y-86487556D01*
X180432063Y-86483929D01*
X180467653Y-86440802D01*
X180519600Y-86417124D01*
X180577722Y-86413301D01*
X180631840Y-86429738D01*
X180671774Y-86466840D01*
X180675917Y-86474222D01*
X180688884Y-86519239D01*
X180695948Y-86583967D01*
X180697280Y-86657626D01*
X180879816Y-86657626D01*
X180879729Y-86630230D01*
X180878528Y-86586405D01*
X180870355Y-86477988D01*
X180853370Y-86396588D01*
X180825113Y-86336412D01*
X180783128Y-86291666D01*
X180742368Y-86265400D01*
X180685419Y-86246935D01*
X180614589Y-86240602D01*
X180542059Y-86245760D01*
X180480014Y-86261769D01*
X180447232Y-86280920D01*
X180413185Y-86311732D01*
X180413185Y-85922210D01*
X180229369Y-85922210D01*
X180229369Y-87058526D01*
G37*
X180229369Y-87058526D02*
X180321277Y-87058526D01*
X180374623Y-87056962D01*
X180402407Y-87050485D01*
X180412410Y-87036418D01*
X180413185Y-87026906D01*
X180414872Y-87007832D01*
X180425510Y-87004174D01*
X180453465Y-87015932D01*
X180475205Y-87026906D01*
X180558668Y-87052911D01*
X180649396Y-87054416D01*
X180723158Y-87035021D01*
X180791846Y-86988165D01*
X180844206Y-86919004D01*
X180872878Y-86837427D01*
X180873608Y-86832866D01*
X180877868Y-86783101D01*
X180879986Y-86711659D01*
X180879816Y-86657626D01*
X180697280Y-86657626D01*
X180693051Y-86729441D01*
X180683432Y-86788634D01*
X180670410Y-86822060D01*
X180621144Y-86867740D01*
X180562650Y-86884115D01*
X180502329Y-86870873D01*
X180450783Y-86831373D01*
X180431262Y-86804807D01*
X180419848Y-86773106D01*
X180414502Y-86726832D01*
X180413185Y-86657328D01*
X180415542Y-86588499D01*
X180421767Y-86528026D01*
X180430592Y-86487556D01*
X180432063Y-86483929D01*
X180467653Y-86440802D01*
X180519600Y-86417124D01*
X180577722Y-86413301D01*
X180631840Y-86429738D01*
X180671774Y-86466840D01*
X180675917Y-86474222D01*
X180688884Y-86519239D01*
X180695948Y-86583967D01*
X180697280Y-86657626D01*
X180879816Y-86657626D01*
X180879729Y-86630230D01*
X180878528Y-86586405D01*
X180870355Y-86477988D01*
X180853370Y-86396588D01*
X180825113Y-86336412D01*
X180783128Y-86291666D01*
X180742368Y-86265400D01*
X180685419Y-86246935D01*
X180614589Y-86240602D01*
X180542059Y-86245760D01*
X180480014Y-86261769D01*
X180447232Y-86280920D01*
X180413185Y-86311732D01*
X180413185Y-85922210D01*
X180229369Y-85922210D01*
X180229369Y-87058526D01*
G36*
X181282119Y-86241486D02*
G01*
X181257112Y-86248982D01*
X181249050Y-86265451D01*
X181248711Y-86272886D01*
X181247264Y-86293594D01*
X181237302Y-86296845D01*
X181210388Y-86282648D01*
X181194402Y-86272948D01*
X181143967Y-86252175D01*
X181083728Y-86241904D01*
X181020566Y-86241114D01*
X180961363Y-86248786D01*
X180912998Y-86263898D01*
X180882354Y-86285432D01*
X180876311Y-86312366D01*
X180879361Y-86319660D01*
X180901594Y-86349937D01*
X180936070Y-86387175D01*
X180942306Y-86393195D01*
X180975167Y-86420875D01*
X181003520Y-86429818D01*
X181043173Y-86423576D01*
X181059058Y-86419429D01*
X181108491Y-86409467D01*
X181143248Y-86413947D01*
X181172600Y-86429746D01*
X181199487Y-86450949D01*
X181219290Y-86477614D01*
X181233052Y-86514827D01*
X181241816Y-86567673D01*
X181246626Y-86641237D01*
X181248526Y-86740605D01*
X181248711Y-86800601D01*
X181248711Y-87058526D01*
X181415816Y-87058526D01*
X181415816Y-86239710D01*
X181332264Y-86239710D01*
X181282119Y-86241486D01*
G37*
X181282119Y-86241486D02*
X181257112Y-86248982D01*
X181249050Y-86265451D01*
X181248711Y-86272886D01*
X181247264Y-86293594D01*
X181237302Y-86296845D01*
X181210388Y-86282648D01*
X181194402Y-86272948D01*
X181143967Y-86252175D01*
X181083728Y-86241904D01*
X181020566Y-86241114D01*
X180961363Y-86248786D01*
X180912998Y-86263898D01*
X180882354Y-86285432D01*
X180876311Y-86312366D01*
X180879361Y-86319660D01*
X180901594Y-86349937D01*
X180936070Y-86387175D01*
X180942306Y-86393195D01*
X180975167Y-86420875D01*
X181003520Y-86429818D01*
X181043173Y-86423576D01*
X181059058Y-86419429D01*
X181108491Y-86409467D01*
X181143248Y-86413947D01*
X181172600Y-86429746D01*
X181199487Y-86450949D01*
X181219290Y-86477614D01*
X181233052Y-86514827D01*
X181241816Y-86567673D01*
X181246626Y-86641237D01*
X181248526Y-86740605D01*
X181248711Y-86800601D01*
X181248711Y-87058526D01*
X181415816Y-87058526D01*
X181415816Y-86239710D01*
X181332264Y-86239710D01*
X181282119Y-86241486D01*
G36*
X181801543Y-86246184D02*
G01*
X181722930Y-86267160D01*
X181663084Y-86305180D01*
X181620853Y-86354978D01*
X181607725Y-86376230D01*
X181598032Y-86398492D01*
X181591256Y-86426970D01*
X181586877Y-86466871D01*
X181584376Y-86523401D01*
X181583232Y-86601767D01*
X181582928Y-86707176D01*
X181582922Y-86735142D01*
X181582922Y-87058526D01*
X181663132Y-87058526D01*
X181714294Y-87054943D01*
X181752123Y-87045866D01*
X181761601Y-87040268D01*
X181787512Y-87030606D01*
X181813976Y-87040268D01*
X181857548Y-87052330D01*
X181920840Y-87057185D01*
X181990990Y-87055078D01*
X182055140Y-87046256D01*
X182092593Y-87034937D01*
X182165067Y-86988412D01*
X182210360Y-86923846D01*
X182230722Y-86838000D01*
X182230912Y-86835796D01*
X182229125Y-86797713D01*
X182067527Y-86797713D01*
X182053399Y-86841030D01*
X182030388Y-86865408D01*
X181984196Y-86883845D01*
X181923225Y-86891205D01*
X181861051Y-86887583D01*
X181811249Y-86873074D01*
X181797297Y-86863765D01*
X181772915Y-86820753D01*
X181766737Y-86771857D01*
X181766737Y-86707605D01*
X181859182Y-86707605D01*
X181947005Y-86714366D01*
X182013582Y-86733520D01*
X182054998Y-86763376D01*
X182067527Y-86797713D01*
X182229125Y-86797713D01*
X182226510Y-86742004D01*
X182195576Y-86667847D01*
X182137419Y-86611767D01*
X182129380Y-86606665D01*
X182094837Y-86590055D01*
X182052082Y-86579996D01*
X181992314Y-86575107D01*
X181921310Y-86573983D01*
X181766737Y-86573921D01*
X181766737Y-86509125D01*
X181773294Y-86458850D01*
X181790025Y-86425169D01*
X181791984Y-86423376D01*
X181829217Y-86408642D01*
X181885420Y-86402931D01*
X181947533Y-86405737D01*
X182002490Y-86416556D01*
X182035101Y-86432782D01*
X182052772Y-86445780D01*
X182071431Y-86448262D01*
X182097181Y-86437613D01*
X182136127Y-86411218D01*
X182194370Y-86366465D01*
X182199716Y-86362273D01*
X182196977Y-86346760D01*
X182174124Y-86320960D01*
X182139391Y-86292289D01*
X182101010Y-86268166D01*
X182088952Y-86262470D01*
X182044966Y-86251103D01*
X181980513Y-86242995D01*
X181908503Y-86239743D01*
X181905136Y-86239736D01*
X181801543Y-86246184D01*
G37*
X181801543Y-86246184D02*
X181722930Y-86267160D01*
X181663084Y-86305180D01*
X181620853Y-86354978D01*
X181607725Y-86376230D01*
X181598032Y-86398492D01*
X181591256Y-86426970D01*
X181586877Y-86466871D01*
X181584376Y-86523401D01*
X181583232Y-86601767D01*
X181582928Y-86707176D01*
X181582922Y-86735142D01*
X181582922Y-87058526D01*
X181663132Y-87058526D01*
X181714294Y-87054943D01*
X181752123Y-87045866D01*
X181761601Y-87040268D01*
X181787512Y-87030606D01*
X181813976Y-87040268D01*
X181857548Y-87052330D01*
X181920840Y-87057185D01*
X181990990Y-87055078D01*
X182055140Y-87046256D01*
X182092593Y-87034937D01*
X182165067Y-86988412D01*
X182210360Y-86923846D01*
X182230722Y-86838000D01*
X182230912Y-86835796D01*
X182229125Y-86797713D01*
X182067527Y-86797713D01*
X182053399Y-86841030D01*
X182030388Y-86865408D01*
X181984196Y-86883845D01*
X181923225Y-86891205D01*
X181861051Y-86887583D01*
X181811249Y-86873074D01*
X181797297Y-86863765D01*
X181772915Y-86820753D01*
X181766737Y-86771857D01*
X181766737Y-86707605D01*
X181859182Y-86707605D01*
X181947005Y-86714366D01*
X182013582Y-86733520D01*
X182054998Y-86763376D01*
X182067527Y-86797713D01*
X182229125Y-86797713D01*
X182226510Y-86742004D01*
X182195576Y-86667847D01*
X182137419Y-86611767D01*
X182129380Y-86606665D01*
X182094837Y-86590055D01*
X182052082Y-86579996D01*
X181992314Y-86575107D01*
X181921310Y-86573983D01*
X181766737Y-86573921D01*
X181766737Y-86509125D01*
X181773294Y-86458850D01*
X181790025Y-86425169D01*
X181791984Y-86423376D01*
X181829217Y-86408642D01*
X181885420Y-86402931D01*
X181947533Y-86405737D01*
X182002490Y-86416556D01*
X182035101Y-86432782D01*
X182052772Y-86445780D01*
X182071431Y-86448262D01*
X182097181Y-86437613D01*
X182136127Y-86411218D01*
X182194370Y-86366465D01*
X182199716Y-86362273D01*
X182196977Y-86346760D01*
X182174124Y-86320960D01*
X182139391Y-86292289D01*
X182101010Y-86268166D01*
X182088952Y-86262470D01*
X182044966Y-86251103D01*
X181980513Y-86242995D01*
X181908503Y-86239743D01*
X181905136Y-86239736D01*
X181801543Y-86246184D01*
G36*
X182498640Y-85000468D02*
G01*
X182463408Y-85017874D01*
X182419960Y-85048206D01*
X182388294Y-85081283D01*
X182366606Y-85122817D01*
X182353097Y-85178522D01*
X182345962Y-85254111D01*
X182343400Y-85355296D01*
X182343250Y-85398797D01*
X182343688Y-85494135D01*
X182345504Y-85562271D01*
X182349455Y-85609418D01*
X182356298Y-85641790D01*
X182366789Y-85665600D01*
X182377704Y-85681843D01*
X182447381Y-85750952D01*
X182529434Y-85792521D01*
X182617950Y-85805023D01*
X182707019Y-85786934D01*
X182735237Y-85774142D01*
X182802790Y-85738931D01*
X182802790Y-86290700D01*
X182753488Y-86265205D01*
X182688527Y-86245480D01*
X182608680Y-86240427D01*
X182528948Y-86249756D01*
X182468735Y-86270714D01*
X182418792Y-86310627D01*
X182376119Y-86367741D01*
X182372910Y-86373605D01*
X182359378Y-86401227D01*
X182349495Y-86429068D01*
X182342691Y-86462794D01*
X182338399Y-86508071D01*
X182336049Y-86570562D01*
X182335072Y-86655935D01*
X182334895Y-86752010D01*
X182334895Y-87058526D01*
X182518711Y-87058526D01*
X182518711Y-86493339D01*
X182570125Y-86450077D01*
X182623534Y-86415472D01*
X182674112Y-86409180D01*
X182724970Y-86425372D01*
X182752075Y-86441227D01*
X182772249Y-86463810D01*
X182786597Y-86497940D01*
X182796224Y-86548434D01*
X182802237Y-86620111D01*
X182805740Y-86717788D01*
X182806974Y-86782802D01*
X182811145Y-87050171D01*
X182898875Y-87055222D01*
X182986606Y-87060273D01*
X182986606Y-85401101D01*
X182802790Y-85401101D01*
X182798104Y-85493600D01*
X182782312Y-85557809D01*
X182752817Y-85597759D01*
X182707020Y-85617480D01*
X182660750Y-85621421D01*
X182608372Y-85616892D01*
X182573610Y-85599069D01*
X182551872Y-85575519D01*
X182534760Y-85550189D01*
X182524573Y-85521969D01*
X182520040Y-85482431D01*
X182519891Y-85423142D01*
X182521416Y-85373498D01*
X182524919Y-85298710D01*
X182530133Y-85249611D01*
X182538913Y-85218467D01*
X182553114Y-85197545D01*
X182566516Y-85185452D01*
X182622513Y-85159081D01*
X182688789Y-85154822D01*
X182726844Y-85163906D01*
X182764523Y-85196196D01*
X182789481Y-85259006D01*
X182801578Y-85351894D01*
X182802790Y-85401101D01*
X182986606Y-85401101D01*
X182986606Y-84986421D01*
X182894698Y-84986421D01*
X182839517Y-84988603D01*
X182811048Y-84996351D01*
X182802794Y-85011468D01*
X182802790Y-85011916D01*
X182798960Y-85026720D01*
X182782067Y-85025039D01*
X182748481Y-85008772D01*
X182670222Y-84983887D01*
X182582173Y-84981271D01*
X182498640Y-85000468D01*
G37*
X182498640Y-85000468D02*
X182463408Y-85017874D01*
X182419960Y-85048206D01*
X182388294Y-85081283D01*
X182366606Y-85122817D01*
X182353097Y-85178522D01*
X182345962Y-85254111D01*
X182343400Y-85355296D01*
X182343250Y-85398797D01*
X182343688Y-85494135D01*
X182345504Y-85562271D01*
X182349455Y-85609418D01*
X182356298Y-85641790D01*
X182366789Y-85665600D01*
X182377704Y-85681843D01*
X182447381Y-85750952D01*
X182529434Y-85792521D01*
X182617950Y-85805023D01*
X182707019Y-85786934D01*
X182735237Y-85774142D01*
X182802790Y-85738931D01*
X182802790Y-86290700D01*
X182753488Y-86265205D01*
X182688527Y-86245480D01*
X182608680Y-86240427D01*
X182528948Y-86249756D01*
X182468735Y-86270714D01*
X182418792Y-86310627D01*
X182376119Y-86367741D01*
X182372910Y-86373605D01*
X182359378Y-86401227D01*
X182349495Y-86429068D01*
X182342691Y-86462794D01*
X182338399Y-86508071D01*
X182336049Y-86570562D01*
X182335072Y-86655935D01*
X182334895Y-86752010D01*
X182334895Y-87058526D01*
X182518711Y-87058526D01*
X182518711Y-86493339D01*
X182570125Y-86450077D01*
X182623534Y-86415472D01*
X182674112Y-86409180D01*
X182724970Y-86425372D01*
X182752075Y-86441227D01*
X182772249Y-86463810D01*
X182786597Y-86497940D01*
X182796224Y-86548434D01*
X182802237Y-86620111D01*
X182805740Y-86717788D01*
X182806974Y-86782802D01*
X182811145Y-87050171D01*
X182898875Y-87055222D01*
X182986606Y-87060273D01*
X182986606Y-85401101D01*
X182802790Y-85401101D01*
X182798104Y-85493600D01*
X182782312Y-85557809D01*
X182752817Y-85597759D01*
X182707020Y-85617480D01*
X182660750Y-85621421D01*
X182608372Y-85616892D01*
X182573610Y-85599069D01*
X182551872Y-85575519D01*
X182534760Y-85550189D01*
X182524573Y-85521969D01*
X182520040Y-85482431D01*
X182519891Y-85423142D01*
X182521416Y-85373498D01*
X182524919Y-85298710D01*
X182530133Y-85249611D01*
X182538913Y-85218467D01*
X182553114Y-85197545D01*
X182566516Y-85185452D01*
X182622513Y-85159081D01*
X182688789Y-85154822D01*
X182726844Y-85163906D01*
X182764523Y-85196196D01*
X182789481Y-85259006D01*
X182801578Y-85351894D01*
X182802790Y-85401101D01*
X182986606Y-85401101D01*
X182986606Y-84986421D01*
X182894698Y-84986421D01*
X182839517Y-84988603D01*
X182811048Y-84996351D01*
X182802794Y-85011468D01*
X182802790Y-85011916D01*
X182798960Y-85026720D01*
X182782067Y-85025039D01*
X182748481Y-85008772D01*
X182670222Y-84983887D01*
X182582173Y-84981271D01*
X182498640Y-85000468D01*
M02*
