G04 #@! TF.GenerationSoftware,KiCad,Pcbnew,(5.1.8)-1*
G04 #@! TF.CreationDate,2021-11-20T01:16:09+01:00*
G04 #@! TF.ProjectId,Greaseweazle FA1,47726561-7365-4776-9561-7a6c65204641,rev?*
G04 #@! TF.SameCoordinates,Original*
G04 #@! TF.FileFunction,Legend,Bot*
G04 #@! TF.FilePolarity,Positive*
%FSLAX46Y46*%
G04 Gerber Fmt 4.6, Leading zero omitted, Abs format (unit mm)*
G04 Created by KiCad (PCBNEW (5.1.8)-1) date 2021-11-20 01:16:09*
%MOMM*%
%LPD*%
G01*
G04 APERTURE LIST*
%ADD10C,0.150000*%
%ADD11C,0.120000*%
%ADD12C,0.100000*%
%ADD13C,0.300000*%
%ADD14C,0.200000*%
%ADD15C,0.010000*%
G04 APERTURE END LIST*
D10*
X159122238Y-71184666D02*
X158646047Y-71184666D01*
X159217476Y-71470380D02*
X158884142Y-70470380D01*
X158550809Y-71470380D01*
X158217476Y-71470380D02*
X158217476Y-70803714D01*
X158217476Y-70898952D02*
X158169857Y-70851333D01*
X158074619Y-70803714D01*
X157931761Y-70803714D01*
X157836523Y-70851333D01*
X157788904Y-70946571D01*
X157788904Y-71470380D01*
X157788904Y-70946571D02*
X157741285Y-70851333D01*
X157646047Y-70803714D01*
X157503190Y-70803714D01*
X157407952Y-70851333D01*
X157360333Y-70946571D01*
X157360333Y-71470380D01*
X156884142Y-71470380D02*
X156884142Y-70803714D01*
X156884142Y-70470380D02*
X156931761Y-70518000D01*
X156884142Y-70565619D01*
X156836523Y-70518000D01*
X156884142Y-70470380D01*
X156884142Y-70565619D01*
X155979380Y-70803714D02*
X155979380Y-71613238D01*
X156027000Y-71708476D01*
X156074619Y-71756095D01*
X156169857Y-71803714D01*
X156312714Y-71803714D01*
X156407952Y-71756095D01*
X155979380Y-71422761D02*
X156074619Y-71470380D01*
X156265095Y-71470380D01*
X156360333Y-71422761D01*
X156407952Y-71375142D01*
X156455571Y-71279904D01*
X156455571Y-70994190D01*
X156407952Y-70898952D01*
X156360333Y-70851333D01*
X156265095Y-70803714D01*
X156074619Y-70803714D01*
X155979380Y-70851333D01*
X155074619Y-71470380D02*
X155074619Y-70946571D01*
X155122238Y-70851333D01*
X155217476Y-70803714D01*
X155407952Y-70803714D01*
X155503190Y-70851333D01*
X155074619Y-71422761D02*
X155169857Y-71470380D01*
X155407952Y-71470380D01*
X155503190Y-71422761D01*
X155550809Y-71327523D01*
X155550809Y-71232285D01*
X155503190Y-71137047D01*
X155407952Y-71089428D01*
X155169857Y-71089428D01*
X155074619Y-71041809D01*
X153836523Y-71470380D02*
X153836523Y-70470380D01*
X153598428Y-70470380D01*
X153455571Y-70518000D01*
X153360333Y-70613238D01*
X153312714Y-70708476D01*
X153265095Y-70898952D01*
X153265095Y-71041809D01*
X153312714Y-71232285D01*
X153360333Y-71327523D01*
X153455571Y-71422761D01*
X153598428Y-71470380D01*
X153836523Y-71470380D01*
X152836523Y-71470380D02*
X152836523Y-70803714D01*
X152836523Y-70994190D02*
X152788904Y-70898952D01*
X152741285Y-70851333D01*
X152646047Y-70803714D01*
X152550809Y-70803714D01*
X151788904Y-71470380D02*
X151788904Y-70946571D01*
X151836523Y-70851333D01*
X151931761Y-70803714D01*
X152122238Y-70803714D01*
X152217476Y-70851333D01*
X151788904Y-71422761D02*
X151884142Y-71470380D01*
X152122238Y-71470380D01*
X152217476Y-71422761D01*
X152265095Y-71327523D01*
X152265095Y-71232285D01*
X152217476Y-71137047D01*
X152122238Y-71089428D01*
X151884142Y-71089428D01*
X151788904Y-71041809D01*
X151407952Y-70803714D02*
X151217476Y-71470380D01*
X151027000Y-70994190D01*
X150836523Y-71470380D01*
X150646047Y-70803714D01*
X149931761Y-70946571D02*
X149788904Y-70994190D01*
X149741285Y-71041809D01*
X149693666Y-71137047D01*
X149693666Y-71279904D01*
X149741285Y-71375142D01*
X149788904Y-71422761D01*
X149884142Y-71470380D01*
X150265095Y-71470380D01*
X150265095Y-70470380D01*
X149931761Y-70470380D01*
X149836523Y-70518000D01*
X149788904Y-70565619D01*
X149741285Y-70660857D01*
X149741285Y-70756095D01*
X149788904Y-70851333D01*
X149836523Y-70898952D01*
X149931761Y-70946571D01*
X150265095Y-70946571D01*
X149265095Y-71470380D02*
X149265095Y-70803714D01*
X149265095Y-70994190D02*
X149217476Y-70898952D01*
X149169857Y-70851333D01*
X149074619Y-70803714D01*
X148979380Y-70803714D01*
X148646047Y-71470380D02*
X148646047Y-70803714D01*
X148646047Y-70470380D02*
X148693666Y-70518000D01*
X148646047Y-70565619D01*
X148598428Y-70518000D01*
X148646047Y-70470380D01*
X148646047Y-70565619D01*
X147741285Y-71470380D02*
X147741285Y-70470380D01*
X147741285Y-71422761D02*
X147836523Y-71470380D01*
X148027000Y-71470380D01*
X148122238Y-71422761D01*
X148169857Y-71375142D01*
X148217476Y-71279904D01*
X148217476Y-70994190D01*
X148169857Y-70898952D01*
X148122238Y-70851333D01*
X148027000Y-70803714D01*
X147836523Y-70803714D01*
X147741285Y-70851333D01*
X146836523Y-70803714D02*
X146836523Y-71613238D01*
X146884142Y-71708476D01*
X146931761Y-71756095D01*
X147027000Y-71803714D01*
X147169857Y-71803714D01*
X147265095Y-71756095D01*
X146836523Y-71422761D02*
X146931761Y-71470380D01*
X147122238Y-71470380D01*
X147217476Y-71422761D01*
X147265095Y-71375142D01*
X147312714Y-71279904D01*
X147312714Y-70994190D01*
X147265095Y-70898952D01*
X147217476Y-70851333D01*
X147122238Y-70803714D01*
X146931761Y-70803714D01*
X146836523Y-70851333D01*
X145979380Y-71422761D02*
X146074619Y-71470380D01*
X146265095Y-71470380D01*
X146360333Y-71422761D01*
X146407952Y-71327523D01*
X146407952Y-70946571D01*
X146360333Y-70851333D01*
X146265095Y-70803714D01*
X146074619Y-70803714D01*
X145979380Y-70851333D01*
X145931761Y-70946571D01*
X145931761Y-71041809D01*
X146407952Y-71137047D01*
X157693666Y-73501333D02*
X157741285Y-73453714D01*
X157836523Y-73310857D01*
X157884142Y-73215619D01*
X157931761Y-73072761D01*
X157979380Y-72834666D01*
X157979380Y-72644190D01*
X157931761Y-72406095D01*
X157884142Y-72263238D01*
X157836523Y-72168000D01*
X157741285Y-72025142D01*
X157693666Y-71977523D01*
X156788904Y-72168000D02*
X156884142Y-72120380D01*
X157027000Y-72120380D01*
X157169857Y-72168000D01*
X157265095Y-72263238D01*
X157312714Y-72358476D01*
X157360333Y-72548952D01*
X157360333Y-72691809D01*
X157312714Y-72882285D01*
X157265095Y-72977523D01*
X157169857Y-73072761D01*
X157027000Y-73120380D01*
X156931761Y-73120380D01*
X156788904Y-73072761D01*
X156741285Y-73025142D01*
X156741285Y-72691809D01*
X156931761Y-72691809D01*
X156312714Y-73120380D02*
X156312714Y-72453714D01*
X156312714Y-72644190D02*
X156265095Y-72548952D01*
X156217476Y-72501333D01*
X156122238Y-72453714D01*
X156027000Y-72453714D01*
X155312714Y-73072761D02*
X155407952Y-73120380D01*
X155598428Y-73120380D01*
X155693666Y-73072761D01*
X155741285Y-72977523D01*
X155741285Y-72596571D01*
X155693666Y-72501333D01*
X155598428Y-72453714D01*
X155407952Y-72453714D01*
X155312714Y-72501333D01*
X155265095Y-72596571D01*
X155265095Y-72691809D01*
X155741285Y-72787047D01*
X154407952Y-73120380D02*
X154407952Y-72596571D01*
X154455571Y-72501333D01*
X154550809Y-72453714D01*
X154741285Y-72453714D01*
X154836523Y-72501333D01*
X154407952Y-73072761D02*
X154503190Y-73120380D01*
X154741285Y-73120380D01*
X154836523Y-73072761D01*
X154884142Y-72977523D01*
X154884142Y-72882285D01*
X154836523Y-72787047D01*
X154741285Y-72739428D01*
X154503190Y-72739428D01*
X154407952Y-72691809D01*
X153979380Y-73072761D02*
X153884142Y-73120380D01*
X153693666Y-73120380D01*
X153598428Y-73072761D01*
X153550809Y-72977523D01*
X153550809Y-72929904D01*
X153598428Y-72834666D01*
X153693666Y-72787047D01*
X153836523Y-72787047D01*
X153931761Y-72739428D01*
X153979380Y-72644190D01*
X153979380Y-72596571D01*
X153931761Y-72501333D01*
X153836523Y-72453714D01*
X153693666Y-72453714D01*
X153598428Y-72501333D01*
X152741285Y-73072761D02*
X152836523Y-73120380D01*
X153027000Y-73120380D01*
X153122238Y-73072761D01*
X153169857Y-72977523D01*
X153169857Y-72596571D01*
X153122238Y-72501333D01*
X153027000Y-72453714D01*
X152836523Y-72453714D01*
X152741285Y-72501333D01*
X152693666Y-72596571D01*
X152693666Y-72691809D01*
X153169857Y-72787047D01*
X152360333Y-72453714D02*
X152169857Y-73120380D01*
X151979380Y-72644190D01*
X151788904Y-73120380D01*
X151598428Y-72453714D01*
X150836523Y-73072761D02*
X150931761Y-73120380D01*
X151122238Y-73120380D01*
X151217476Y-73072761D01*
X151265095Y-72977523D01*
X151265095Y-72596571D01*
X151217476Y-72501333D01*
X151122238Y-72453714D01*
X150931761Y-72453714D01*
X150836523Y-72501333D01*
X150788904Y-72596571D01*
X150788904Y-72691809D01*
X151265095Y-72787047D01*
X149931761Y-73120380D02*
X149931761Y-72596571D01*
X149979380Y-72501333D01*
X150074619Y-72453714D01*
X150265095Y-72453714D01*
X150360333Y-72501333D01*
X149931761Y-73072761D02*
X150027000Y-73120380D01*
X150265095Y-73120380D01*
X150360333Y-73072761D01*
X150407952Y-72977523D01*
X150407952Y-72882285D01*
X150360333Y-72787047D01*
X150265095Y-72739428D01*
X150027000Y-72739428D01*
X149931761Y-72691809D01*
X149550809Y-72453714D02*
X149027000Y-72453714D01*
X149550809Y-73120380D01*
X149027000Y-73120380D01*
X148503190Y-73120380D02*
X148598428Y-73072761D01*
X148646047Y-72977523D01*
X148646047Y-72120380D01*
X147741285Y-73072761D02*
X147836523Y-73120380D01*
X148027000Y-73120380D01*
X148122238Y-73072761D01*
X148169857Y-72977523D01*
X148169857Y-72596571D01*
X148122238Y-72501333D01*
X148027000Y-72453714D01*
X147836523Y-72453714D01*
X147741285Y-72501333D01*
X147693666Y-72596571D01*
X147693666Y-72691809D01*
X148169857Y-72787047D01*
X147360333Y-73501333D02*
X147312714Y-73453714D01*
X147217476Y-73310857D01*
X147169857Y-73215619D01*
X147122238Y-73072761D01*
X147074619Y-72834666D01*
X147074619Y-72644190D01*
X147122238Y-72406095D01*
X147169857Y-72263238D01*
X147217476Y-72168000D01*
X147312714Y-72025142D01*
X147360333Y-71977523D01*
X157931761Y-74103714D02*
X157931761Y-74913238D01*
X157979380Y-75008476D01*
X158027000Y-75056095D01*
X158122238Y-75103714D01*
X158265095Y-75103714D01*
X158360333Y-75056095D01*
X157931761Y-74722761D02*
X158027000Y-74770380D01*
X158217476Y-74770380D01*
X158312714Y-74722761D01*
X158360333Y-74675142D01*
X158407952Y-74579904D01*
X158407952Y-74294190D01*
X158360333Y-74198952D01*
X158312714Y-74151333D01*
X158217476Y-74103714D01*
X158027000Y-74103714D01*
X157931761Y-74151333D01*
X157455571Y-74770380D02*
X157455571Y-74103714D01*
X157455571Y-73770380D02*
X157503190Y-73818000D01*
X157455571Y-73865619D01*
X157407952Y-73818000D01*
X157455571Y-73770380D01*
X157455571Y-73865619D01*
X157122238Y-74103714D02*
X156741285Y-74103714D01*
X156979380Y-73770380D02*
X156979380Y-74627523D01*
X156931761Y-74722761D01*
X156836523Y-74770380D01*
X156741285Y-74770380D01*
X156407952Y-74770380D02*
X156407952Y-73770380D01*
X155979380Y-74770380D02*
X155979380Y-74246571D01*
X156027000Y-74151333D01*
X156122238Y-74103714D01*
X156265095Y-74103714D01*
X156360333Y-74151333D01*
X156407952Y-74198952D01*
X155074619Y-74103714D02*
X155074619Y-74770380D01*
X155503190Y-74103714D02*
X155503190Y-74627523D01*
X155455571Y-74722761D01*
X155360333Y-74770380D01*
X155217476Y-74770380D01*
X155122238Y-74722761D01*
X155074619Y-74675142D01*
X154598428Y-74770380D02*
X154598428Y-73770380D01*
X154598428Y-74151333D02*
X154503190Y-74103714D01*
X154312714Y-74103714D01*
X154217476Y-74151333D01*
X154169857Y-74198952D01*
X154122238Y-74294190D01*
X154122238Y-74579904D01*
X154169857Y-74675142D01*
X154217476Y-74722761D01*
X154312714Y-74770380D01*
X154503190Y-74770380D01*
X154598428Y-74722761D01*
X153693666Y-74675142D02*
X153646047Y-74722761D01*
X153693666Y-74770380D01*
X153741285Y-74722761D01*
X153693666Y-74675142D01*
X153693666Y-74770380D01*
X152788904Y-74722761D02*
X152884142Y-74770380D01*
X153074619Y-74770380D01*
X153169857Y-74722761D01*
X153217476Y-74675142D01*
X153265095Y-74579904D01*
X153265095Y-74294190D01*
X153217476Y-74198952D01*
X153169857Y-74151333D01*
X153074619Y-74103714D01*
X152884142Y-74103714D01*
X152788904Y-74151333D01*
X152217476Y-74770380D02*
X152312714Y-74722761D01*
X152360333Y-74675142D01*
X152407952Y-74579904D01*
X152407952Y-74294190D01*
X152360333Y-74198952D01*
X152312714Y-74151333D01*
X152217476Y-74103714D01*
X152074619Y-74103714D01*
X151979380Y-74151333D01*
X151931761Y-74198952D01*
X151884142Y-74294190D01*
X151884142Y-74579904D01*
X151931761Y-74675142D01*
X151979380Y-74722761D01*
X152074619Y-74770380D01*
X152217476Y-74770380D01*
X151455571Y-74770380D02*
X151455571Y-74103714D01*
X151455571Y-74198952D02*
X151407952Y-74151333D01*
X151312714Y-74103714D01*
X151169857Y-74103714D01*
X151074619Y-74151333D01*
X151027000Y-74246571D01*
X151027000Y-74770380D01*
X151027000Y-74246571D02*
X150979380Y-74151333D01*
X150884142Y-74103714D01*
X150741285Y-74103714D01*
X150646047Y-74151333D01*
X150598428Y-74246571D01*
X150598428Y-74770380D01*
X149407952Y-73722761D02*
X150265095Y-75008476D01*
X149217476Y-74103714D02*
X148836523Y-74103714D01*
X149074619Y-73770380D02*
X149074619Y-74627523D01*
X149027000Y-74722761D01*
X148931761Y-74770380D01*
X148836523Y-74770380D01*
X148122238Y-74722761D02*
X148217476Y-74770380D01*
X148407952Y-74770380D01*
X148503190Y-74722761D01*
X148550809Y-74627523D01*
X148550809Y-74246571D01*
X148503190Y-74151333D01*
X148407952Y-74103714D01*
X148217476Y-74103714D01*
X148122238Y-74151333D01*
X148074619Y-74246571D01*
X148074619Y-74341809D01*
X148550809Y-74437047D01*
X147646047Y-74770380D02*
X147646047Y-73770380D01*
X147646047Y-74151333D02*
X147550809Y-74103714D01*
X147360333Y-74103714D01*
X147265095Y-74151333D01*
X147217476Y-74198952D01*
X147169857Y-74294190D01*
X147169857Y-74579904D01*
X147217476Y-74675142D01*
X147265095Y-74722761D01*
X147360333Y-74770380D01*
X147550809Y-74770380D01*
X147646047Y-74722761D01*
X146598428Y-74770380D02*
X146693666Y-74722761D01*
X146741285Y-74627523D01*
X146741285Y-73770380D01*
D11*
X191000000Y-61000000D02*
X191000000Y-66000000D01*
X196000000Y-61000000D02*
X191000000Y-61000000D01*
X196000000Y-66000000D02*
X196000000Y-61000000D01*
X191000000Y-66000000D02*
X196000000Y-66000000D01*
D12*
G36*
X155700000Y-87300000D02*
G01*
X157800000Y-87900000D01*
X159500000Y-88800000D01*
X161300000Y-90100000D01*
X162400000Y-91300000D01*
X163100000Y-92100000D01*
X163800000Y-93200000D01*
X164200000Y-94000000D01*
X147100000Y-88500000D01*
X148400000Y-87900000D01*
X150300000Y-87300000D01*
X152000000Y-87000000D01*
X153600000Y-87000000D01*
X155700000Y-87300000D01*
G37*
X155700000Y-87300000D02*
X157800000Y-87900000D01*
X159500000Y-88800000D01*
X161300000Y-90100000D01*
X162400000Y-91300000D01*
X163100000Y-92100000D01*
X163800000Y-93200000D01*
X164200000Y-94000000D01*
X147100000Y-88500000D01*
X148400000Y-87900000D01*
X150300000Y-87300000D01*
X152000000Y-87000000D01*
X153600000Y-87000000D01*
X155700000Y-87300000D01*
G36*
X150500000Y-98700000D02*
G01*
X150400000Y-99100000D01*
X150500000Y-99400000D01*
X150615185Y-99711237D01*
X150800000Y-100000000D01*
X147600000Y-100000000D01*
X147953637Y-98530233D01*
X148000000Y-98200000D01*
X150800000Y-98200000D01*
X150500000Y-98700000D01*
G37*
X150500000Y-98700000D02*
X150400000Y-99100000D01*
X150500000Y-99400000D01*
X150615185Y-99711237D01*
X150800000Y-100000000D01*
X147600000Y-100000000D01*
X147953637Y-98530233D01*
X148000000Y-98200000D01*
X150800000Y-98200000D01*
X150500000Y-98700000D01*
G36*
X164200000Y-94000000D02*
G01*
X165100000Y-96300000D01*
X165500000Y-98900000D01*
X165300000Y-101700000D01*
X164800000Y-103700000D01*
X146530132Y-103842824D01*
X146700000Y-103200000D01*
X147200000Y-101400000D01*
X147600000Y-100000000D01*
X150800000Y-100000000D01*
X151615185Y-101443288D01*
X151900000Y-101800000D01*
X152300000Y-102000000D01*
X152800000Y-102100000D01*
X153100000Y-102000000D01*
X153500000Y-101800000D01*
X155200000Y-100800000D01*
X155400000Y-100600000D01*
X155600000Y-100300000D01*
X155700000Y-99800000D01*
X155600000Y-99400000D01*
X155300000Y-98800000D01*
X154400000Y-97300000D01*
X154100000Y-97000000D01*
X153500000Y-96800000D01*
X153000000Y-96900000D01*
X150800000Y-98200000D01*
X148000000Y-98200000D01*
X147900000Y-97700000D01*
X147800000Y-97500000D01*
X147500000Y-97200000D01*
X147069753Y-96999301D01*
X147100000Y-88500000D01*
X164200000Y-94000000D01*
G37*
X164200000Y-94000000D02*
X165100000Y-96300000D01*
X165500000Y-98900000D01*
X165300000Y-101700000D01*
X164800000Y-103700000D01*
X146530132Y-103842824D01*
X146700000Y-103200000D01*
X147200000Y-101400000D01*
X147600000Y-100000000D01*
X150800000Y-100000000D01*
X151615185Y-101443288D01*
X151900000Y-101800000D01*
X152300000Y-102000000D01*
X152800000Y-102100000D01*
X153100000Y-102000000D01*
X153500000Y-101800000D01*
X155200000Y-100800000D01*
X155400000Y-100600000D01*
X155600000Y-100300000D01*
X155700000Y-99800000D01*
X155600000Y-99400000D01*
X155300000Y-98800000D01*
X154400000Y-97300000D01*
X154100000Y-97000000D01*
X153500000Y-96800000D01*
X153000000Y-96900000D01*
X150800000Y-98200000D01*
X148000000Y-98200000D01*
X147900000Y-97700000D01*
X147800000Y-97500000D01*
X147500000Y-97200000D01*
X147069753Y-96999301D01*
X147100000Y-88500000D01*
X164200000Y-94000000D01*
G36*
X143200000Y-98900000D02*
G01*
X142312875Y-102195177D01*
X142200000Y-102700000D01*
X142500000Y-103600000D01*
X142800000Y-103900000D01*
X143200000Y-104200000D01*
X143800000Y-104400000D01*
X144900000Y-104700000D01*
X145300000Y-104800000D01*
X145800000Y-104700000D01*
X146100000Y-104500000D01*
X146400000Y-104200000D01*
X146530132Y-103842824D01*
X164800000Y-103700000D01*
X163800000Y-105700000D01*
X162600000Y-107500000D01*
X161400000Y-108700000D01*
X160000000Y-109900000D01*
X158500000Y-110700000D01*
X157400000Y-111200000D01*
X155700000Y-111700000D01*
X154400000Y-111900000D01*
X152800000Y-112000000D01*
X151200000Y-111900000D01*
X149700000Y-111600000D01*
X148100000Y-111000000D01*
X146700000Y-110300000D01*
X145100000Y-109200000D01*
X143700000Y-107900000D01*
X142700000Y-106600000D01*
X141800000Y-105100000D01*
X141200000Y-103600000D01*
X140700000Y-102000000D01*
X140500000Y-100600000D01*
X140500000Y-98900000D01*
X140700000Y-97400000D01*
X143600000Y-97400000D01*
X143200000Y-98900000D01*
G37*
X143200000Y-98900000D02*
X142312875Y-102195177D01*
X142200000Y-102700000D01*
X142500000Y-103600000D01*
X142800000Y-103900000D01*
X143200000Y-104200000D01*
X143800000Y-104400000D01*
X144900000Y-104700000D01*
X145300000Y-104800000D01*
X145800000Y-104700000D01*
X146100000Y-104500000D01*
X146400000Y-104200000D01*
X146530132Y-103842824D01*
X164800000Y-103700000D01*
X163800000Y-105700000D01*
X162600000Y-107500000D01*
X161400000Y-108700000D01*
X160000000Y-109900000D01*
X158500000Y-110700000D01*
X157400000Y-111200000D01*
X155700000Y-111700000D01*
X154400000Y-111900000D01*
X152800000Y-112000000D01*
X151200000Y-111900000D01*
X149700000Y-111600000D01*
X148100000Y-111000000D01*
X146700000Y-110300000D01*
X145100000Y-109200000D01*
X143700000Y-107900000D01*
X142700000Y-106600000D01*
X141800000Y-105100000D01*
X141200000Y-103600000D01*
X140700000Y-102000000D01*
X140500000Y-100600000D01*
X140500000Y-98900000D01*
X140700000Y-97400000D01*
X143600000Y-97400000D01*
X143200000Y-98900000D01*
G36*
X147069753Y-96999301D02*
G01*
X145300000Y-96500000D01*
X144800000Y-96400000D01*
X144200000Y-96600000D01*
X143800000Y-96900000D01*
X143606970Y-97365549D01*
X143600000Y-97400000D01*
X140700000Y-97400000D01*
X141200000Y-95400000D01*
X141900000Y-93800000D01*
X142900000Y-92200000D01*
X143600000Y-91300000D01*
X145800000Y-89300000D01*
X147100000Y-88500000D01*
X147069753Y-96999301D01*
G37*
X147069753Y-96999301D02*
X145300000Y-96500000D01*
X144800000Y-96400000D01*
X144200000Y-96600000D01*
X143800000Y-96900000D01*
X143606970Y-97365549D01*
X143600000Y-97400000D01*
X140700000Y-97400000D01*
X141200000Y-95400000D01*
X141900000Y-93800000D01*
X142900000Y-92200000D01*
X143600000Y-91300000D01*
X145800000Y-89300000D01*
X147100000Y-88500000D01*
X147069753Y-96999301D01*
G36*
X176000000Y-117600000D02*
G01*
X176400000Y-118000000D01*
X176500000Y-118500000D01*
X176500000Y-144500000D01*
X171500000Y-144500000D01*
X171500000Y-146000000D01*
X148500000Y-146000000D01*
X148500000Y-120000000D01*
X148700000Y-117500000D01*
X175500000Y-117500000D01*
X176000000Y-117600000D01*
G37*
X176000000Y-117600000D02*
X176400000Y-118000000D01*
X176500000Y-118500000D01*
X176500000Y-144500000D01*
X171500000Y-144500000D01*
X171500000Y-146000000D01*
X148500000Y-146000000D01*
X148500000Y-120000000D01*
X148700000Y-117500000D01*
X175500000Y-117500000D01*
X176000000Y-117600000D01*
G36*
X148700000Y-120000000D02*
G01*
X148500000Y-120000000D01*
X148500000Y-119800000D01*
X148300000Y-119600000D01*
X148000000Y-119500000D01*
X136800000Y-119500000D01*
X136600000Y-119700000D01*
X136500000Y-120000000D01*
X136500000Y-144100000D01*
X136700000Y-144400000D01*
X137000000Y-144500000D01*
X140500000Y-144500000D01*
X140500000Y-146000000D01*
X144500000Y-146000000D01*
X144500000Y-144500000D01*
X148200000Y-144500000D01*
X148400000Y-144300000D01*
X148500000Y-144000000D01*
X148500000Y-146000000D01*
X175000000Y-146000000D01*
X175000000Y-144500000D01*
X176500000Y-144500000D01*
X176500000Y-149000000D01*
X129500000Y-149000000D01*
X129500000Y-118300000D01*
X129600000Y-118100000D01*
X129800000Y-117800000D01*
X130100000Y-117600000D01*
X130500000Y-117500000D01*
X148700000Y-117500000D01*
X148700000Y-120000000D01*
G37*
X148700000Y-120000000D02*
X148500000Y-120000000D01*
X148500000Y-119800000D01*
X148300000Y-119600000D01*
X148000000Y-119500000D01*
X136800000Y-119500000D01*
X136600000Y-119700000D01*
X136500000Y-120000000D01*
X136500000Y-144100000D01*
X136700000Y-144400000D01*
X137000000Y-144500000D01*
X140500000Y-144500000D01*
X140500000Y-146000000D01*
X144500000Y-146000000D01*
X144500000Y-144500000D01*
X148200000Y-144500000D01*
X148400000Y-144300000D01*
X148500000Y-144000000D01*
X148500000Y-146000000D01*
X175000000Y-146000000D01*
X175000000Y-144500000D01*
X176500000Y-144500000D01*
X176500000Y-149000000D01*
X129500000Y-149000000D01*
X129500000Y-118300000D01*
X129600000Y-118100000D01*
X129800000Y-117800000D01*
X130100000Y-117600000D01*
X130500000Y-117500000D01*
X148700000Y-117500000D01*
X148700000Y-120000000D01*
D11*
X143606970Y-97365548D02*
X142312875Y-102195177D01*
X143550312Y-104338481D02*
X144999201Y-104726709D01*
X143550312Y-104338480D02*
G75*
G02*
X142312875Y-102195177I452933J1690370D01*
G01*
X146530132Y-103842824D02*
G75*
G02*
X144999201Y-104726709I-1207408J323523D01*
G01*
X147069753Y-96999302D02*
X145137901Y-96481664D01*
X146530132Y-103842825D02*
X147953637Y-98530233D01*
X147069753Y-96999301D02*
G75*
G02*
X147953637Y-98530233I-323524J-1207408D01*
G01*
X143606970Y-97365549D02*
G75*
G02*
X145137901Y-96481664I1207408J-323523D01*
G01*
X155512299Y-99193288D02*
G75*
G02*
X155054767Y-100900820I-1082532J-625000D01*
G01*
X153322716Y-101900819D02*
G75*
G02*
X151615185Y-101443288I-625000J1082531D01*
G01*
X150615184Y-99711237D02*
G75*
G02*
X151072716Y-98003705I1082532J625000D01*
G01*
X152804767Y-97003705D02*
G75*
G02*
X154512299Y-97461237I625000J-1082532D01*
G01*
X152804767Y-97003705D02*
X151072716Y-98003705D01*
X155512299Y-99193288D02*
X154512299Y-97461237D01*
X153322716Y-101900820D02*
X155054767Y-100900820D01*
X150615185Y-99711237D02*
X151615185Y-101443288D01*
D13*
X165500000Y-99500000D02*
G75*
G03*
X165500000Y-99500000I-12500000J0D01*
G01*
X166500000Y-100000000D02*
G75*
G03*
X166500000Y-100000000I-13500000J0D01*
G01*
D11*
X194500000Y-56500000D02*
X192500000Y-56500000D01*
X192000000Y-57000000D02*
X190500000Y-57000000D01*
X192500000Y-56500000D02*
X192000000Y-57000000D01*
X195000000Y-57000000D02*
X196500000Y-57000000D01*
X194500000Y-56500000D02*
X195000000Y-57000000D01*
X196500000Y-66500000D02*
X190500000Y-66500000D01*
X196500000Y-57000000D02*
X196500000Y-66500000D01*
X190500000Y-66500000D02*
X190500000Y-57000000D01*
D14*
X183500000Y-148000000D02*
X184000000Y-148500000D01*
X182500000Y-148000000D02*
X183500000Y-148000000D01*
X182500000Y-147500000D02*
X182500000Y-148000000D01*
X176500000Y-147500000D02*
X182500000Y-147500000D01*
D13*
X113000000Y-134000000D02*
X112000000Y-134000000D01*
X113000000Y-130000000D02*
X112000000Y-130000000D01*
X113000000Y-130000000D02*
G75*
G02*
X113000000Y-134000000I0J-2000000D01*
G01*
X112000000Y-134000000D02*
G75*
G02*
X112000000Y-130000000I0J2000000D01*
G01*
X195500000Y-132000000D02*
G75*
G03*
X195500000Y-132000000I-2000000J0D01*
G01*
X110500000Y-140000000D02*
G75*
G02*
X108000000Y-142500000I-2500000J0D01*
G01*
X108000000Y-137500000D02*
G75*
G02*
X110500000Y-140000000I0J-2500000D01*
G01*
X198000000Y-142500000D02*
G75*
G02*
X195500000Y-140000000I0J2500000D01*
G01*
X195500000Y-140000000D02*
G75*
G02*
X198000000Y-137500000I2500000J0D01*
G01*
D14*
X188000000Y-145000000D02*
X176500000Y-145000000D01*
X188000000Y-146000000D02*
X188000000Y-145000000D01*
X176500000Y-146000000D02*
X188000000Y-146000000D01*
D11*
X171500000Y-144500000D02*
X175000000Y-144500000D01*
X171500000Y-146000000D02*
X171500000Y-144500000D01*
X175000000Y-146000000D02*
X171500000Y-146000000D01*
X175000000Y-144500000D02*
X175000000Y-146000000D01*
D14*
X148000000Y-144500000D02*
X144500000Y-144500000D01*
X137000000Y-119500000D02*
X148000000Y-119500000D01*
X148500000Y-120000000D02*
X148500000Y-144000000D01*
X148000000Y-119500000D02*
G75*
G02*
X148500000Y-120000000I0J-500000D01*
G01*
X136500000Y-120000000D02*
X136500000Y-144000000D01*
X137000000Y-144500000D02*
G75*
G02*
X136500000Y-144000000I0J500000D01*
G01*
X137000000Y-144500000D02*
X140500000Y-144500000D01*
X136500000Y-120000000D02*
G75*
G02*
X137000000Y-119500000I500000J0D01*
G01*
X148500000Y-144000000D02*
G75*
G02*
X148000000Y-144500000I-500000J0D01*
G01*
X140500000Y-144500000D02*
X140500000Y-146000000D01*
X144500000Y-144500000D02*
X144500000Y-146000000D01*
X140500000Y-146000000D02*
X144500000Y-146000000D01*
X129500000Y-118500000D02*
G75*
G02*
X130500000Y-117500000I1000000J0D01*
G01*
X175500000Y-117500000D02*
G75*
G02*
X176500000Y-118500000I0J-1000000D01*
G01*
X129500000Y-118500000D02*
X129500000Y-149000000D01*
X176500000Y-118500000D02*
X176500000Y-149000000D01*
X130500000Y-117500000D02*
X175500000Y-117500000D01*
X130500000Y-117000000D02*
X187500000Y-117000000D01*
X129000000Y-118500000D02*
X129000000Y-149000000D01*
X187500000Y-117000000D02*
G75*
G02*
X189000000Y-118500000I0J-1500000D01*
G01*
X189000000Y-118500000D02*
X189000000Y-149000000D01*
X129000000Y-118500000D02*
G75*
G02*
X130500000Y-117000000I1500000J0D01*
G01*
D13*
X189000000Y-55000000D02*
X189000000Y-67500000D01*
X117000000Y-55000000D02*
X117000000Y-67500000D01*
X118500000Y-69000000D02*
G75*
G02*
X117000000Y-67500000I0J1500000D01*
G01*
X189000000Y-67500000D02*
G75*
G02*
X187500000Y-69000000I-1500000J0D01*
G01*
X187500000Y-69000000D02*
X118500000Y-69000000D01*
D15*
G36*
X155098640Y-82152468D02*
G01*
X155063408Y-82169874D01*
X155019960Y-82200206D01*
X154988294Y-82233283D01*
X154966606Y-82274817D01*
X154953097Y-82330522D01*
X154945962Y-82406111D01*
X154943400Y-82507296D01*
X154943250Y-82550797D01*
X154943688Y-82646135D01*
X154945504Y-82714271D01*
X154949455Y-82761418D01*
X154956298Y-82793790D01*
X154966789Y-82817600D01*
X154977704Y-82833843D01*
X155047381Y-82902952D01*
X155129434Y-82944521D01*
X155217950Y-82957023D01*
X155307019Y-82938934D01*
X155335237Y-82926142D01*
X155402790Y-82890931D01*
X155402790Y-83442700D01*
X155353488Y-83417205D01*
X155288527Y-83397480D01*
X155208680Y-83392427D01*
X155128948Y-83401756D01*
X155068735Y-83422714D01*
X155018792Y-83462627D01*
X154976119Y-83519741D01*
X154972910Y-83525605D01*
X154959378Y-83553227D01*
X154949495Y-83581068D01*
X154942691Y-83614794D01*
X154938399Y-83660071D01*
X154936049Y-83722562D01*
X154935072Y-83807935D01*
X154934895Y-83904010D01*
X154934895Y-84210526D01*
X155118711Y-84210526D01*
X155118711Y-83645339D01*
X155170125Y-83602077D01*
X155223534Y-83567472D01*
X155274112Y-83561180D01*
X155324970Y-83577372D01*
X155352075Y-83593227D01*
X155372249Y-83615810D01*
X155386597Y-83649940D01*
X155396224Y-83700434D01*
X155402237Y-83772111D01*
X155405740Y-83869788D01*
X155406974Y-83934802D01*
X155411145Y-84202171D01*
X155498875Y-84207222D01*
X155586606Y-84212273D01*
X155586606Y-82553101D01*
X155402790Y-82553101D01*
X155398104Y-82645600D01*
X155382312Y-82709809D01*
X155352817Y-82749759D01*
X155307020Y-82769480D01*
X155260750Y-82773421D01*
X155208372Y-82768892D01*
X155173610Y-82751069D01*
X155151872Y-82727519D01*
X155134760Y-82702189D01*
X155124573Y-82673969D01*
X155120040Y-82634431D01*
X155119891Y-82575142D01*
X155121416Y-82525498D01*
X155124919Y-82450710D01*
X155130133Y-82401611D01*
X155138913Y-82370467D01*
X155153114Y-82349545D01*
X155166516Y-82337452D01*
X155222513Y-82311081D01*
X155288789Y-82306822D01*
X155326844Y-82315906D01*
X155364523Y-82348196D01*
X155389481Y-82411006D01*
X155401578Y-82503894D01*
X155402790Y-82553101D01*
X155586606Y-82553101D01*
X155586606Y-82138421D01*
X155494698Y-82138421D01*
X155439517Y-82140603D01*
X155411048Y-82148351D01*
X155402794Y-82163468D01*
X155402790Y-82163916D01*
X155398960Y-82178720D01*
X155382067Y-82177039D01*
X155348481Y-82160772D01*
X155270222Y-82135887D01*
X155182173Y-82133271D01*
X155098640Y-82152468D01*
G37*
X155098640Y-82152468D02*
X155063408Y-82169874D01*
X155019960Y-82200206D01*
X154988294Y-82233283D01*
X154966606Y-82274817D01*
X154953097Y-82330522D01*
X154945962Y-82406111D01*
X154943400Y-82507296D01*
X154943250Y-82550797D01*
X154943688Y-82646135D01*
X154945504Y-82714271D01*
X154949455Y-82761418D01*
X154956298Y-82793790D01*
X154966789Y-82817600D01*
X154977704Y-82833843D01*
X155047381Y-82902952D01*
X155129434Y-82944521D01*
X155217950Y-82957023D01*
X155307019Y-82938934D01*
X155335237Y-82926142D01*
X155402790Y-82890931D01*
X155402790Y-83442700D01*
X155353488Y-83417205D01*
X155288527Y-83397480D01*
X155208680Y-83392427D01*
X155128948Y-83401756D01*
X155068735Y-83422714D01*
X155018792Y-83462627D01*
X154976119Y-83519741D01*
X154972910Y-83525605D01*
X154959378Y-83553227D01*
X154949495Y-83581068D01*
X154942691Y-83614794D01*
X154938399Y-83660071D01*
X154936049Y-83722562D01*
X154935072Y-83807935D01*
X154934895Y-83904010D01*
X154934895Y-84210526D01*
X155118711Y-84210526D01*
X155118711Y-83645339D01*
X155170125Y-83602077D01*
X155223534Y-83567472D01*
X155274112Y-83561180D01*
X155324970Y-83577372D01*
X155352075Y-83593227D01*
X155372249Y-83615810D01*
X155386597Y-83649940D01*
X155396224Y-83700434D01*
X155402237Y-83772111D01*
X155405740Y-83869788D01*
X155406974Y-83934802D01*
X155411145Y-84202171D01*
X155498875Y-84207222D01*
X155586606Y-84212273D01*
X155586606Y-82553101D01*
X155402790Y-82553101D01*
X155398104Y-82645600D01*
X155382312Y-82709809D01*
X155352817Y-82749759D01*
X155307020Y-82769480D01*
X155260750Y-82773421D01*
X155208372Y-82768892D01*
X155173610Y-82751069D01*
X155151872Y-82727519D01*
X155134760Y-82702189D01*
X155124573Y-82673969D01*
X155120040Y-82634431D01*
X155119891Y-82575142D01*
X155121416Y-82525498D01*
X155124919Y-82450710D01*
X155130133Y-82401611D01*
X155138913Y-82370467D01*
X155153114Y-82349545D01*
X155166516Y-82337452D01*
X155222513Y-82311081D01*
X155288789Y-82306822D01*
X155326844Y-82315906D01*
X155364523Y-82348196D01*
X155389481Y-82411006D01*
X155401578Y-82503894D01*
X155402790Y-82553101D01*
X155586606Y-82553101D01*
X155586606Y-82138421D01*
X155494698Y-82138421D01*
X155439517Y-82140603D01*
X155411048Y-82148351D01*
X155402794Y-82163468D01*
X155402790Y-82163916D01*
X155398960Y-82178720D01*
X155382067Y-82177039D01*
X155348481Y-82160772D01*
X155270222Y-82135887D01*
X155182173Y-82133271D01*
X155098640Y-82152468D01*
G36*
X154401543Y-83398184D02*
G01*
X154322930Y-83419160D01*
X154263084Y-83457180D01*
X154220853Y-83506978D01*
X154207725Y-83528230D01*
X154198032Y-83550492D01*
X154191256Y-83578970D01*
X154186877Y-83618871D01*
X154184376Y-83675401D01*
X154183232Y-83753767D01*
X154182928Y-83859176D01*
X154182922Y-83887142D01*
X154182922Y-84210526D01*
X154263132Y-84210526D01*
X154314294Y-84206943D01*
X154352123Y-84197866D01*
X154361601Y-84192268D01*
X154387512Y-84182606D01*
X154413976Y-84192268D01*
X154457548Y-84204330D01*
X154520840Y-84209185D01*
X154590990Y-84207078D01*
X154655140Y-84198256D01*
X154692593Y-84186937D01*
X154765067Y-84140412D01*
X154810360Y-84075846D01*
X154830722Y-83990000D01*
X154830912Y-83987796D01*
X154829125Y-83949713D01*
X154667527Y-83949713D01*
X154653399Y-83993030D01*
X154630388Y-84017408D01*
X154584196Y-84035845D01*
X154523225Y-84043205D01*
X154461051Y-84039583D01*
X154411249Y-84025074D01*
X154397297Y-84015765D01*
X154372915Y-83972753D01*
X154366737Y-83923857D01*
X154366737Y-83859605D01*
X154459182Y-83859605D01*
X154547005Y-83866366D01*
X154613582Y-83885520D01*
X154654998Y-83915376D01*
X154667527Y-83949713D01*
X154829125Y-83949713D01*
X154826510Y-83894004D01*
X154795576Y-83819847D01*
X154737419Y-83763767D01*
X154729380Y-83758665D01*
X154694837Y-83742055D01*
X154652082Y-83731996D01*
X154592314Y-83727107D01*
X154521310Y-83725983D01*
X154366737Y-83725921D01*
X154366737Y-83661125D01*
X154373294Y-83610850D01*
X154390025Y-83577169D01*
X154391984Y-83575376D01*
X154429217Y-83560642D01*
X154485420Y-83554931D01*
X154547533Y-83557737D01*
X154602490Y-83568556D01*
X154635101Y-83584782D01*
X154652772Y-83597780D01*
X154671431Y-83600262D01*
X154697181Y-83589613D01*
X154736127Y-83563218D01*
X154794370Y-83518465D01*
X154799716Y-83514273D01*
X154796977Y-83498760D01*
X154774124Y-83472960D01*
X154739391Y-83444289D01*
X154701010Y-83420166D01*
X154688952Y-83414470D01*
X154644966Y-83403103D01*
X154580513Y-83394995D01*
X154508503Y-83391743D01*
X154505136Y-83391736D01*
X154401543Y-83398184D01*
G37*
X154401543Y-83398184D02*
X154322930Y-83419160D01*
X154263084Y-83457180D01*
X154220853Y-83506978D01*
X154207725Y-83528230D01*
X154198032Y-83550492D01*
X154191256Y-83578970D01*
X154186877Y-83618871D01*
X154184376Y-83675401D01*
X154183232Y-83753767D01*
X154182928Y-83859176D01*
X154182922Y-83887142D01*
X154182922Y-84210526D01*
X154263132Y-84210526D01*
X154314294Y-84206943D01*
X154352123Y-84197866D01*
X154361601Y-84192268D01*
X154387512Y-84182606D01*
X154413976Y-84192268D01*
X154457548Y-84204330D01*
X154520840Y-84209185D01*
X154590990Y-84207078D01*
X154655140Y-84198256D01*
X154692593Y-84186937D01*
X154765067Y-84140412D01*
X154810360Y-84075846D01*
X154830722Y-83990000D01*
X154830912Y-83987796D01*
X154829125Y-83949713D01*
X154667527Y-83949713D01*
X154653399Y-83993030D01*
X154630388Y-84017408D01*
X154584196Y-84035845D01*
X154523225Y-84043205D01*
X154461051Y-84039583D01*
X154411249Y-84025074D01*
X154397297Y-84015765D01*
X154372915Y-83972753D01*
X154366737Y-83923857D01*
X154366737Y-83859605D01*
X154459182Y-83859605D01*
X154547005Y-83866366D01*
X154613582Y-83885520D01*
X154654998Y-83915376D01*
X154667527Y-83949713D01*
X154829125Y-83949713D01*
X154826510Y-83894004D01*
X154795576Y-83819847D01*
X154737419Y-83763767D01*
X154729380Y-83758665D01*
X154694837Y-83742055D01*
X154652082Y-83731996D01*
X154592314Y-83727107D01*
X154521310Y-83725983D01*
X154366737Y-83725921D01*
X154366737Y-83661125D01*
X154373294Y-83610850D01*
X154390025Y-83577169D01*
X154391984Y-83575376D01*
X154429217Y-83560642D01*
X154485420Y-83554931D01*
X154547533Y-83557737D01*
X154602490Y-83568556D01*
X154635101Y-83584782D01*
X154652772Y-83597780D01*
X154671431Y-83600262D01*
X154697181Y-83589613D01*
X154736127Y-83563218D01*
X154794370Y-83518465D01*
X154799716Y-83514273D01*
X154796977Y-83498760D01*
X154774124Y-83472960D01*
X154739391Y-83444289D01*
X154701010Y-83420166D01*
X154688952Y-83414470D01*
X154644966Y-83403103D01*
X154580513Y-83394995D01*
X154508503Y-83391743D01*
X154505136Y-83391736D01*
X154401543Y-83398184D01*
G36*
X153882119Y-83393486D02*
G01*
X153857112Y-83400982D01*
X153849050Y-83417451D01*
X153848711Y-83424886D01*
X153847264Y-83445594D01*
X153837302Y-83448845D01*
X153810388Y-83434648D01*
X153794402Y-83424948D01*
X153743967Y-83404175D01*
X153683728Y-83393904D01*
X153620566Y-83393114D01*
X153561363Y-83400786D01*
X153512998Y-83415898D01*
X153482354Y-83437432D01*
X153476311Y-83464366D01*
X153479361Y-83471660D01*
X153501594Y-83501937D01*
X153536070Y-83539175D01*
X153542306Y-83545195D01*
X153575167Y-83572875D01*
X153603520Y-83581818D01*
X153643173Y-83575576D01*
X153659058Y-83571429D01*
X153708491Y-83561467D01*
X153743248Y-83565947D01*
X153772600Y-83581746D01*
X153799487Y-83602949D01*
X153819290Y-83629614D01*
X153833052Y-83666827D01*
X153841816Y-83719673D01*
X153846626Y-83793237D01*
X153848526Y-83892605D01*
X153848711Y-83952601D01*
X153848711Y-84210526D01*
X154015816Y-84210526D01*
X154015816Y-83391710D01*
X153932264Y-83391710D01*
X153882119Y-83393486D01*
G37*
X153882119Y-83393486D02*
X153857112Y-83400982D01*
X153849050Y-83417451D01*
X153848711Y-83424886D01*
X153847264Y-83445594D01*
X153837302Y-83448845D01*
X153810388Y-83434648D01*
X153794402Y-83424948D01*
X153743967Y-83404175D01*
X153683728Y-83393904D01*
X153620566Y-83393114D01*
X153561363Y-83400786D01*
X153512998Y-83415898D01*
X153482354Y-83437432D01*
X153476311Y-83464366D01*
X153479361Y-83471660D01*
X153501594Y-83501937D01*
X153536070Y-83539175D01*
X153542306Y-83545195D01*
X153575167Y-83572875D01*
X153603520Y-83581818D01*
X153643173Y-83575576D01*
X153659058Y-83571429D01*
X153708491Y-83561467D01*
X153743248Y-83565947D01*
X153772600Y-83581746D01*
X153799487Y-83602949D01*
X153819290Y-83629614D01*
X153833052Y-83666827D01*
X153841816Y-83719673D01*
X153846626Y-83793237D01*
X153848526Y-83892605D01*
X153848711Y-83952601D01*
X153848711Y-84210526D01*
X154015816Y-84210526D01*
X154015816Y-83391710D01*
X153932264Y-83391710D01*
X153882119Y-83393486D01*
G36*
X152829369Y-84210526D02*
G01*
X152921277Y-84210526D01*
X152974623Y-84208962D01*
X153002407Y-84202485D01*
X153012410Y-84188418D01*
X153013185Y-84178906D01*
X153014872Y-84159832D01*
X153025510Y-84156174D01*
X153053465Y-84167932D01*
X153075205Y-84178906D01*
X153158668Y-84204911D01*
X153249396Y-84206416D01*
X153323158Y-84187021D01*
X153391846Y-84140165D01*
X153444206Y-84071004D01*
X153472878Y-83989427D01*
X153473608Y-83984866D01*
X153477868Y-83935101D01*
X153479986Y-83863659D01*
X153479816Y-83809626D01*
X153297280Y-83809626D01*
X153293051Y-83881441D01*
X153283432Y-83940634D01*
X153270410Y-83974060D01*
X153221144Y-84019740D01*
X153162650Y-84036115D01*
X153102329Y-84022873D01*
X153050783Y-83983373D01*
X153031262Y-83956807D01*
X153019848Y-83925106D01*
X153014502Y-83878832D01*
X153013185Y-83809328D01*
X153015542Y-83740499D01*
X153021767Y-83680026D01*
X153030592Y-83639556D01*
X153032063Y-83635929D01*
X153067653Y-83592802D01*
X153119600Y-83569124D01*
X153177722Y-83565301D01*
X153231840Y-83581738D01*
X153271774Y-83618840D01*
X153275917Y-83626222D01*
X153288884Y-83671239D01*
X153295948Y-83735967D01*
X153297280Y-83809626D01*
X153479816Y-83809626D01*
X153479729Y-83782230D01*
X153478528Y-83738405D01*
X153470355Y-83629988D01*
X153453370Y-83548588D01*
X153425113Y-83488412D01*
X153383128Y-83443666D01*
X153342368Y-83417400D01*
X153285419Y-83398935D01*
X153214589Y-83392602D01*
X153142059Y-83397760D01*
X153080014Y-83413769D01*
X153047232Y-83432920D01*
X153013185Y-83463732D01*
X153013185Y-83074210D01*
X152829369Y-83074210D01*
X152829369Y-84210526D01*
G37*
X152829369Y-84210526D02*
X152921277Y-84210526D01*
X152974623Y-84208962D01*
X153002407Y-84202485D01*
X153012410Y-84188418D01*
X153013185Y-84178906D01*
X153014872Y-84159832D01*
X153025510Y-84156174D01*
X153053465Y-84167932D01*
X153075205Y-84178906D01*
X153158668Y-84204911D01*
X153249396Y-84206416D01*
X153323158Y-84187021D01*
X153391846Y-84140165D01*
X153444206Y-84071004D01*
X153472878Y-83989427D01*
X153473608Y-83984866D01*
X153477868Y-83935101D01*
X153479986Y-83863659D01*
X153479816Y-83809626D01*
X153297280Y-83809626D01*
X153293051Y-83881441D01*
X153283432Y-83940634D01*
X153270410Y-83974060D01*
X153221144Y-84019740D01*
X153162650Y-84036115D01*
X153102329Y-84022873D01*
X153050783Y-83983373D01*
X153031262Y-83956807D01*
X153019848Y-83925106D01*
X153014502Y-83878832D01*
X153013185Y-83809328D01*
X153015542Y-83740499D01*
X153021767Y-83680026D01*
X153030592Y-83639556D01*
X153032063Y-83635929D01*
X153067653Y-83592802D01*
X153119600Y-83569124D01*
X153177722Y-83565301D01*
X153231840Y-83581738D01*
X153271774Y-83618840D01*
X153275917Y-83626222D01*
X153288884Y-83671239D01*
X153295948Y-83735967D01*
X153297280Y-83809626D01*
X153479816Y-83809626D01*
X153479729Y-83782230D01*
X153478528Y-83738405D01*
X153470355Y-83629988D01*
X153453370Y-83548588D01*
X153425113Y-83488412D01*
X153383128Y-83443666D01*
X153342368Y-83417400D01*
X153285419Y-83398935D01*
X153214589Y-83392602D01*
X153142059Y-83397760D01*
X153080014Y-83413769D01*
X153047232Y-83432920D01*
X153013185Y-83463732D01*
X153013185Y-83074210D01*
X152829369Y-83074210D01*
X152829369Y-84210526D01*
G36*
X152187870Y-83395104D02*
G01*
X152121780Y-83400066D01*
X152035374Y-83659079D01*
X151948969Y-83918092D01*
X151921876Y-83826184D01*
X151905572Y-83769384D01*
X151884125Y-83692625D01*
X151860965Y-83608251D01*
X151848720Y-83562993D01*
X151802656Y-83391710D01*
X151612613Y-83391710D01*
X151669418Y-83571349D01*
X151697393Y-83659704D01*
X151731187Y-83766281D01*
X151766480Y-83877454D01*
X151797987Y-83976579D01*
X151869750Y-84202171D01*
X152024714Y-84212253D01*
X152066730Y-84073528D01*
X152092641Y-83987351D01*
X152120917Y-83892347D01*
X152145631Y-83808441D01*
X152146606Y-83805102D01*
X152165065Y-83748248D01*
X152181351Y-83709456D01*
X152192758Y-83694787D01*
X152195102Y-83696483D01*
X152203329Y-83719225D01*
X152218962Y-83767940D01*
X152240096Y-83836502D01*
X152264830Y-83918785D01*
X152278213Y-83964046D01*
X152350689Y-84210526D01*
X152504505Y-84210526D01*
X152627469Y-83822006D01*
X152662012Y-83713022D01*
X152693479Y-83614048D01*
X152720384Y-83529736D01*
X152741241Y-83464734D01*
X152754562Y-83423692D01*
X152758612Y-83411701D01*
X152755406Y-83399423D01*
X152730235Y-83394046D01*
X152677854Y-83394584D01*
X152669655Y-83394990D01*
X152572518Y-83400066D01*
X152508900Y-83634013D01*
X152485516Y-83719333D01*
X152464619Y-83794335D01*
X152448049Y-83852507D01*
X152437646Y-83887337D01*
X152435724Y-83893016D01*
X152427759Y-83886486D01*
X152411696Y-83852654D01*
X152389379Y-83796127D01*
X152362655Y-83721510D01*
X152340063Y-83654107D01*
X152253959Y-83390143D01*
X152187870Y-83395104D01*
G37*
X152187870Y-83395104D02*
X152121780Y-83400066D01*
X152035374Y-83659079D01*
X151948969Y-83918092D01*
X151921876Y-83826184D01*
X151905572Y-83769384D01*
X151884125Y-83692625D01*
X151860965Y-83608251D01*
X151848720Y-83562993D01*
X151802656Y-83391710D01*
X151612613Y-83391710D01*
X151669418Y-83571349D01*
X151697393Y-83659704D01*
X151731187Y-83766281D01*
X151766480Y-83877454D01*
X151797987Y-83976579D01*
X151869750Y-84202171D01*
X152024714Y-84212253D01*
X152066730Y-84073528D01*
X152092641Y-83987351D01*
X152120917Y-83892347D01*
X152145631Y-83808441D01*
X152146606Y-83805102D01*
X152165065Y-83748248D01*
X152181351Y-83709456D01*
X152192758Y-83694787D01*
X152195102Y-83696483D01*
X152203329Y-83719225D01*
X152218962Y-83767940D01*
X152240096Y-83836502D01*
X152264830Y-83918785D01*
X152278213Y-83964046D01*
X152350689Y-84210526D01*
X152504505Y-84210526D01*
X152627469Y-83822006D01*
X152662012Y-83713022D01*
X152693479Y-83614048D01*
X152720384Y-83529736D01*
X152741241Y-83464734D01*
X152754562Y-83423692D01*
X152758612Y-83411701D01*
X152755406Y-83399423D01*
X152730235Y-83394046D01*
X152677854Y-83394584D01*
X152669655Y-83394990D01*
X152572518Y-83400066D01*
X152508900Y-83634013D01*
X152485516Y-83719333D01*
X152464619Y-83794335D01*
X152448049Y-83852507D01*
X152437646Y-83887337D01*
X152435724Y-83893016D01*
X152427759Y-83886486D01*
X152411696Y-83852654D01*
X152389379Y-83796127D01*
X152362655Y-83721510D01*
X152340063Y-83654107D01*
X152253959Y-83390143D01*
X152187870Y-83395104D01*
G36*
X151182008Y-83396673D02*
G01*
X151111573Y-83413780D01*
X151091213Y-83422844D01*
X151051747Y-83446583D01*
X151021459Y-83473321D01*
X150999048Y-83507699D01*
X150983214Y-83554360D01*
X150972657Y-83617946D01*
X150966076Y-83703099D01*
X150962172Y-83814462D01*
X150960690Y-83888849D01*
X150955235Y-84210526D01*
X151048420Y-84210526D01*
X151104953Y-84208156D01*
X151134078Y-84200055D01*
X151141606Y-84186451D01*
X151145580Y-84171741D01*
X151163348Y-84174554D01*
X151187560Y-84186348D01*
X151248172Y-84204427D01*
X151326071Y-84209299D01*
X151408005Y-84201330D01*
X151480719Y-84180889D01*
X151487241Y-84178051D01*
X151553698Y-84131365D01*
X151597509Y-84066464D01*
X151617668Y-83990600D01*
X151616128Y-83963344D01*
X151451655Y-83963344D01*
X151437163Y-84000024D01*
X151394195Y-84026309D01*
X151324871Y-84040417D01*
X151287823Y-84042290D01*
X151226081Y-84037494D01*
X151185040Y-84018858D01*
X151175027Y-84010000D01*
X151147900Y-83961806D01*
X151141606Y-83918092D01*
X151141606Y-83859605D01*
X151223070Y-83859605D01*
X151317766Y-83864432D01*
X151384187Y-83879613D01*
X151426154Y-83906200D01*
X151435551Y-83918052D01*
X151451655Y-83963344D01*
X151616128Y-83963344D01*
X151613171Y-83911026D01*
X151583015Y-83834995D01*
X151541869Y-83783612D01*
X151516948Y-83761397D01*
X151492552Y-83746798D01*
X151460809Y-83737897D01*
X151413848Y-83732775D01*
X151343796Y-83729515D01*
X151316010Y-83728577D01*
X151141606Y-83722879D01*
X151141862Y-83670091D01*
X151148616Y-83614603D01*
X151173036Y-83581052D01*
X151222370Y-83559618D01*
X151223694Y-83559236D01*
X151293640Y-83550808D01*
X151362086Y-83561816D01*
X151412953Y-83588585D01*
X151433363Y-83601803D01*
X151455346Y-83599974D01*
X151489174Y-83580824D01*
X151509039Y-83567308D01*
X151547894Y-83538432D01*
X151571962Y-83516786D01*
X151575824Y-83510589D01*
X151559921Y-83478519D01*
X151512935Y-83440219D01*
X151492527Y-83427297D01*
X151433857Y-83405041D01*
X151354788Y-83392432D01*
X151266959Y-83389600D01*
X151182008Y-83396673D01*
G37*
X151182008Y-83396673D02*
X151111573Y-83413780D01*
X151091213Y-83422844D01*
X151051747Y-83446583D01*
X151021459Y-83473321D01*
X150999048Y-83507699D01*
X150983214Y-83554360D01*
X150972657Y-83617946D01*
X150966076Y-83703099D01*
X150962172Y-83814462D01*
X150960690Y-83888849D01*
X150955235Y-84210526D01*
X151048420Y-84210526D01*
X151104953Y-84208156D01*
X151134078Y-84200055D01*
X151141606Y-84186451D01*
X151145580Y-84171741D01*
X151163348Y-84174554D01*
X151187560Y-84186348D01*
X151248172Y-84204427D01*
X151326071Y-84209299D01*
X151408005Y-84201330D01*
X151480719Y-84180889D01*
X151487241Y-84178051D01*
X151553698Y-84131365D01*
X151597509Y-84066464D01*
X151617668Y-83990600D01*
X151616128Y-83963344D01*
X151451655Y-83963344D01*
X151437163Y-84000024D01*
X151394195Y-84026309D01*
X151324871Y-84040417D01*
X151287823Y-84042290D01*
X151226081Y-84037494D01*
X151185040Y-84018858D01*
X151175027Y-84010000D01*
X151147900Y-83961806D01*
X151141606Y-83918092D01*
X151141606Y-83859605D01*
X151223070Y-83859605D01*
X151317766Y-83864432D01*
X151384187Y-83879613D01*
X151426154Y-83906200D01*
X151435551Y-83918052D01*
X151451655Y-83963344D01*
X151616128Y-83963344D01*
X151613171Y-83911026D01*
X151583015Y-83834995D01*
X151541869Y-83783612D01*
X151516948Y-83761397D01*
X151492552Y-83746798D01*
X151460809Y-83737897D01*
X151413848Y-83732775D01*
X151343796Y-83729515D01*
X151316010Y-83728577D01*
X151141606Y-83722879D01*
X151141862Y-83670091D01*
X151148616Y-83614603D01*
X151173036Y-83581052D01*
X151222370Y-83559618D01*
X151223694Y-83559236D01*
X151293640Y-83550808D01*
X151362086Y-83561816D01*
X151412953Y-83588585D01*
X151433363Y-83601803D01*
X151455346Y-83599974D01*
X151489174Y-83580824D01*
X151509039Y-83567308D01*
X151547894Y-83538432D01*
X151571962Y-83516786D01*
X151575824Y-83510589D01*
X151559921Y-83478519D01*
X151512935Y-83440219D01*
X151492527Y-83427297D01*
X151433857Y-83405041D01*
X151354788Y-83392432D01*
X151266959Y-83389600D01*
X151182008Y-83396673D01*
G36*
X150388833Y-83391447D02*
G01*
X150324592Y-83404112D01*
X150288020Y-83422864D01*
X150249547Y-83454017D01*
X150304283Y-83523127D01*
X150338031Y-83564979D01*
X150360947Y-83585398D01*
X150383721Y-83588517D01*
X150417044Y-83578472D01*
X150432686Y-83572789D01*
X150496458Y-83564404D01*
X150554860Y-83582378D01*
X150597736Y-83622982D01*
X150604701Y-83635929D01*
X150612287Y-83670224D01*
X150618141Y-83733427D01*
X150621989Y-83821060D01*
X150623557Y-83928640D01*
X150623579Y-83943944D01*
X150623579Y-84210526D01*
X150807395Y-84210526D01*
X150807395Y-83391710D01*
X150715487Y-83391710D01*
X150662493Y-83393094D01*
X150634885Y-83399252D01*
X150624676Y-83413194D01*
X150623579Y-83426344D01*
X150623579Y-83460978D01*
X150579550Y-83426344D01*
X150529063Y-83402716D01*
X150461240Y-83391033D01*
X150388833Y-83391447D01*
G37*
X150388833Y-83391447D02*
X150324592Y-83404112D01*
X150288020Y-83422864D01*
X150249547Y-83454017D01*
X150304283Y-83523127D01*
X150338031Y-83564979D01*
X150360947Y-83585398D01*
X150383721Y-83588517D01*
X150417044Y-83578472D01*
X150432686Y-83572789D01*
X150496458Y-83564404D01*
X150554860Y-83582378D01*
X150597736Y-83622982D01*
X150604701Y-83635929D01*
X150612287Y-83670224D01*
X150618141Y-83733427D01*
X150621989Y-83821060D01*
X150623557Y-83928640D01*
X150623579Y-83943944D01*
X150623579Y-84210526D01*
X150807395Y-84210526D01*
X150807395Y-83391710D01*
X150715487Y-83391710D01*
X150662493Y-83393094D01*
X150634885Y-83399252D01*
X150624676Y-83413194D01*
X150623579Y-83426344D01*
X150623579Y-83460978D01*
X150579550Y-83426344D01*
X150529063Y-83402716D01*
X150461240Y-83391033D01*
X150388833Y-83391447D01*
G36*
X149860807Y-83396078D02*
G01*
X149780932Y-83416845D01*
X149714038Y-83459705D01*
X149681649Y-83491723D01*
X149628555Y-83567413D01*
X149598127Y-83655216D01*
X149587673Y-83763150D01*
X149587620Y-83771875D01*
X149587527Y-83859605D01*
X150092466Y-83859605D01*
X150081702Y-83905559D01*
X150062268Y-83947178D01*
X150028255Y-83990544D01*
X150021140Y-83997467D01*
X149959997Y-84034935D01*
X149890271Y-84041289D01*
X149810013Y-84016638D01*
X149796408Y-84010000D01*
X149754681Y-83989819D01*
X149726732Y-83978321D01*
X149721855Y-83977258D01*
X149704832Y-83987583D01*
X149672367Y-84012845D01*
X149655886Y-84026650D01*
X149621736Y-84058361D01*
X149610522Y-84079299D01*
X149618305Y-84098560D01*
X149622465Y-84103827D01*
X149650643Y-84126878D01*
X149697138Y-84154892D01*
X149729566Y-84171246D01*
X149821615Y-84200059D01*
X149923524Y-84209395D01*
X150020037Y-84198332D01*
X150047066Y-84190412D01*
X150130724Y-84145581D01*
X150192734Y-84076598D01*
X150233455Y-83982794D01*
X150253245Y-83863498D01*
X150255418Y-83801118D01*
X150249074Y-83710298D01*
X150088843Y-83710298D01*
X150073345Y-83717012D01*
X150031688Y-83722280D01*
X149971124Y-83725389D01*
X149930093Y-83725921D01*
X149856289Y-83725408D01*
X149809707Y-83723006D01*
X149784152Y-83717422D01*
X149773431Y-83707361D01*
X149771343Y-83692763D01*
X149785669Y-83647796D01*
X149821738Y-83603353D01*
X149869185Y-83569242D01*
X149916651Y-83555288D01*
X149981121Y-83567666D01*
X150036930Y-83603452D01*
X150075626Y-83655033D01*
X150088843Y-83710298D01*
X150249074Y-83710298D01*
X150246179Y-83668866D01*
X150217664Y-83563498D01*
X150169271Y-83484178D01*
X150100396Y-83430071D01*
X150010435Y-83400343D01*
X149961700Y-83394618D01*
X149860807Y-83396078D01*
G37*
X149860807Y-83396078D02*
X149780932Y-83416845D01*
X149714038Y-83459705D01*
X149681649Y-83491723D01*
X149628555Y-83567413D01*
X149598127Y-83655216D01*
X149587673Y-83763150D01*
X149587620Y-83771875D01*
X149587527Y-83859605D01*
X150092466Y-83859605D01*
X150081702Y-83905559D01*
X150062268Y-83947178D01*
X150028255Y-83990544D01*
X150021140Y-83997467D01*
X149959997Y-84034935D01*
X149890271Y-84041289D01*
X149810013Y-84016638D01*
X149796408Y-84010000D01*
X149754681Y-83989819D01*
X149726732Y-83978321D01*
X149721855Y-83977258D01*
X149704832Y-83987583D01*
X149672367Y-84012845D01*
X149655886Y-84026650D01*
X149621736Y-84058361D01*
X149610522Y-84079299D01*
X149618305Y-84098560D01*
X149622465Y-84103827D01*
X149650643Y-84126878D01*
X149697138Y-84154892D01*
X149729566Y-84171246D01*
X149821615Y-84200059D01*
X149923524Y-84209395D01*
X150020037Y-84198332D01*
X150047066Y-84190412D01*
X150130724Y-84145581D01*
X150192734Y-84076598D01*
X150233455Y-83982794D01*
X150253245Y-83863498D01*
X150255418Y-83801118D01*
X150249074Y-83710298D01*
X150088843Y-83710298D01*
X150073345Y-83717012D01*
X150031688Y-83722280D01*
X149971124Y-83725389D01*
X149930093Y-83725921D01*
X149856289Y-83725408D01*
X149809707Y-83723006D01*
X149784152Y-83717422D01*
X149773431Y-83707361D01*
X149771343Y-83692763D01*
X149785669Y-83647796D01*
X149821738Y-83603353D01*
X149869185Y-83569242D01*
X149916651Y-83555288D01*
X149981121Y-83567666D01*
X150036930Y-83603452D01*
X150075626Y-83655033D01*
X150088843Y-83710298D01*
X150249074Y-83710298D01*
X150246179Y-83668866D01*
X150217664Y-83563498D01*
X150169271Y-83484178D01*
X150100396Y-83430071D01*
X150010435Y-83400343D01*
X149961700Y-83394618D01*
X149860807Y-83396078D01*
G36*
X155935216Y-82147104D02*
G01*
X155847795Y-82185754D01*
X155781430Y-82250290D01*
X155736024Y-82340812D01*
X155711482Y-82457418D01*
X155709723Y-82475624D01*
X155708344Y-82603984D01*
X155726216Y-82716496D01*
X155762250Y-82807688D01*
X155781545Y-82837022D01*
X155848755Y-82899106D01*
X155934350Y-82939316D01*
X156030110Y-82956003D01*
X156127813Y-82947517D01*
X156202083Y-82921380D01*
X156265953Y-82877335D01*
X156318154Y-82819587D01*
X156319057Y-82818236D01*
X156340256Y-82782593D01*
X156354033Y-82746752D01*
X156362376Y-82701519D01*
X156367273Y-82637701D01*
X156369431Y-82585368D01*
X156370329Y-82537910D01*
X156203257Y-82537910D01*
X156201624Y-82585154D01*
X156195696Y-82648046D01*
X156185239Y-82688407D01*
X156166381Y-82717122D01*
X156148719Y-82733896D01*
X156086106Y-82769016D01*
X156020592Y-82773710D01*
X155959579Y-82748440D01*
X155929072Y-82720124D01*
X155907089Y-82691589D01*
X155894231Y-82664284D01*
X155888588Y-82628750D01*
X155888249Y-82575524D01*
X155889988Y-82526506D01*
X155893729Y-82456482D01*
X155899659Y-82411064D01*
X155910347Y-82381440D01*
X155928361Y-82358797D01*
X155942637Y-82345855D01*
X156002349Y-82311860D01*
X156066766Y-82310165D01*
X156120781Y-82330301D01*
X156166860Y-82372352D01*
X156194311Y-82441428D01*
X156203257Y-82537910D01*
X156370329Y-82537910D01*
X156371401Y-82481299D01*
X156368036Y-82403468D01*
X156357955Y-82344930D01*
X156339774Y-82298737D01*
X156312110Y-82257942D01*
X156301854Y-82245828D01*
X156237722Y-82185474D01*
X156168934Y-82150220D01*
X156084811Y-82135450D01*
X156043791Y-82134243D01*
X155935216Y-82147104D01*
G37*
X155935216Y-82147104D02*
X155847795Y-82185754D01*
X155781430Y-82250290D01*
X155736024Y-82340812D01*
X155711482Y-82457418D01*
X155709723Y-82475624D01*
X155708344Y-82603984D01*
X155726216Y-82716496D01*
X155762250Y-82807688D01*
X155781545Y-82837022D01*
X155848755Y-82899106D01*
X155934350Y-82939316D01*
X156030110Y-82956003D01*
X156127813Y-82947517D01*
X156202083Y-82921380D01*
X156265953Y-82877335D01*
X156318154Y-82819587D01*
X156319057Y-82818236D01*
X156340256Y-82782593D01*
X156354033Y-82746752D01*
X156362376Y-82701519D01*
X156367273Y-82637701D01*
X156369431Y-82585368D01*
X156370329Y-82537910D01*
X156203257Y-82537910D01*
X156201624Y-82585154D01*
X156195696Y-82648046D01*
X156185239Y-82688407D01*
X156166381Y-82717122D01*
X156148719Y-82733896D01*
X156086106Y-82769016D01*
X156020592Y-82773710D01*
X155959579Y-82748440D01*
X155929072Y-82720124D01*
X155907089Y-82691589D01*
X155894231Y-82664284D01*
X155888588Y-82628750D01*
X155888249Y-82575524D01*
X155889988Y-82526506D01*
X155893729Y-82456482D01*
X155899659Y-82411064D01*
X155910347Y-82381440D01*
X155928361Y-82358797D01*
X155942637Y-82345855D01*
X156002349Y-82311860D01*
X156066766Y-82310165D01*
X156120781Y-82330301D01*
X156166860Y-82372352D01*
X156194311Y-82441428D01*
X156203257Y-82537910D01*
X156370329Y-82537910D01*
X156371401Y-82481299D01*
X156368036Y-82403468D01*
X156357955Y-82344930D01*
X156339774Y-82298737D01*
X156312110Y-82257942D01*
X156301854Y-82245828D01*
X156237722Y-82185474D01*
X156168934Y-82150220D01*
X156084811Y-82135450D01*
X156043791Y-82134243D01*
X155935216Y-82147104D01*
G36*
X154364982Y-82157027D02*
G01*
X154348330Y-82164866D01*
X154290695Y-82207086D01*
X154236195Y-82268700D01*
X154195501Y-82336543D01*
X154183926Y-82367734D01*
X154173366Y-82423449D01*
X154167069Y-82490781D01*
X154166304Y-82518585D01*
X154166211Y-82606316D01*
X154671150Y-82606316D01*
X154660387Y-82652270D01*
X154633967Y-82706620D01*
X154587778Y-82753591D01*
X154532828Y-82783848D01*
X154497811Y-82790131D01*
X154450323Y-82782506D01*
X154393665Y-82763383D01*
X154374418Y-82754584D01*
X154303241Y-82719036D01*
X154242498Y-82765367D01*
X154207448Y-82796703D01*
X154188798Y-82822567D01*
X154187853Y-82830158D01*
X154204515Y-82848556D01*
X154241030Y-82876515D01*
X154274172Y-82898327D01*
X154363607Y-82937537D01*
X154463871Y-82955285D01*
X154563246Y-82950670D01*
X154642461Y-82926551D01*
X154724120Y-82874884D01*
X154782151Y-82806856D01*
X154818454Y-82718843D01*
X154834928Y-82607216D01*
X154836389Y-82556138D01*
X154830543Y-82439091D01*
X154829825Y-82435686D01*
X154662511Y-82435686D01*
X154657903Y-82446662D01*
X154638964Y-82452715D01*
X154599902Y-82455310D01*
X154534923Y-82455910D01*
X154509903Y-82455921D01*
X154433779Y-82455014D01*
X154385504Y-82451720D01*
X154359540Y-82445181D01*
X154350352Y-82434537D01*
X154350027Y-82431119D01*
X154360513Y-82403956D01*
X154386758Y-82365903D01*
X154398041Y-82352579D01*
X154439928Y-82314896D01*
X154483591Y-82300080D01*
X154507115Y-82298842D01*
X154570757Y-82314329D01*
X154624127Y-82355930D01*
X154657981Y-82416353D01*
X154658581Y-82418322D01*
X154662511Y-82435686D01*
X154829825Y-82435686D01*
X154811101Y-82346928D01*
X154776078Y-82273190D01*
X154733244Y-82220848D01*
X154654052Y-82164092D01*
X154560960Y-82133762D01*
X154461945Y-82131021D01*
X154364982Y-82157027D01*
G37*
X154364982Y-82157027D02*
X154348330Y-82164866D01*
X154290695Y-82207086D01*
X154236195Y-82268700D01*
X154195501Y-82336543D01*
X154183926Y-82367734D01*
X154173366Y-82423449D01*
X154167069Y-82490781D01*
X154166304Y-82518585D01*
X154166211Y-82606316D01*
X154671150Y-82606316D01*
X154660387Y-82652270D01*
X154633967Y-82706620D01*
X154587778Y-82753591D01*
X154532828Y-82783848D01*
X154497811Y-82790131D01*
X154450323Y-82782506D01*
X154393665Y-82763383D01*
X154374418Y-82754584D01*
X154303241Y-82719036D01*
X154242498Y-82765367D01*
X154207448Y-82796703D01*
X154188798Y-82822567D01*
X154187853Y-82830158D01*
X154204515Y-82848556D01*
X154241030Y-82876515D01*
X154274172Y-82898327D01*
X154363607Y-82937537D01*
X154463871Y-82955285D01*
X154563246Y-82950670D01*
X154642461Y-82926551D01*
X154724120Y-82874884D01*
X154782151Y-82806856D01*
X154818454Y-82718843D01*
X154834928Y-82607216D01*
X154836389Y-82556138D01*
X154830543Y-82439091D01*
X154829825Y-82435686D01*
X154662511Y-82435686D01*
X154657903Y-82446662D01*
X154638964Y-82452715D01*
X154599902Y-82455310D01*
X154534923Y-82455910D01*
X154509903Y-82455921D01*
X154433779Y-82455014D01*
X154385504Y-82451720D01*
X154359540Y-82445181D01*
X154350352Y-82434537D01*
X154350027Y-82431119D01*
X154360513Y-82403956D01*
X154386758Y-82365903D01*
X154398041Y-82352579D01*
X154439928Y-82314896D01*
X154483591Y-82300080D01*
X154507115Y-82298842D01*
X154570757Y-82314329D01*
X154624127Y-82355930D01*
X154657981Y-82416353D01*
X154658581Y-82418322D01*
X154662511Y-82435686D01*
X154829825Y-82435686D01*
X154811101Y-82346928D01*
X154776078Y-82273190D01*
X154733244Y-82220848D01*
X154654052Y-82164092D01*
X154560960Y-82133762D01*
X154461945Y-82131021D01*
X154364982Y-82157027D01*
G36*
X152543372Y-82135547D02*
G01*
X152480092Y-82147548D01*
X152414443Y-82172648D01*
X152407428Y-82175848D01*
X152357644Y-82202026D01*
X152323166Y-82226353D01*
X152312022Y-82241937D01*
X152322634Y-82267353D01*
X152348412Y-82304853D01*
X152359854Y-82318852D01*
X152407008Y-82373954D01*
X152467799Y-82338086D01*
X152525653Y-82314192D01*
X152592500Y-82301420D01*
X152656606Y-82300613D01*
X152706236Y-82312615D01*
X152718146Y-82320105D01*
X152740828Y-82354450D01*
X152743584Y-82394013D01*
X152726612Y-82424920D01*
X152716573Y-82430913D01*
X152686490Y-82438357D01*
X152633611Y-82447106D01*
X152568425Y-82455467D01*
X152556400Y-82456778D01*
X152451703Y-82474888D01*
X152375768Y-82505651D01*
X152325408Y-82551907D01*
X152297436Y-82616497D01*
X152288722Y-82695387D01*
X152300760Y-82785065D01*
X152339849Y-82855486D01*
X152406145Y-82906777D01*
X152499806Y-82939067D01*
X152603777Y-82951807D01*
X152688562Y-82951654D01*
X152757335Y-82940083D01*
X152804303Y-82924109D01*
X152863650Y-82896275D01*
X152918494Y-82863973D01*
X152937987Y-82849755D01*
X152988119Y-82808835D01*
X152867197Y-82686477D01*
X152798457Y-82731967D01*
X152729512Y-82766133D01*
X152655889Y-82784004D01*
X152585117Y-82785889D01*
X152524726Y-82772101D01*
X152482243Y-82742949D01*
X152468526Y-82718352D01*
X152470583Y-82678904D01*
X152504670Y-82648737D01*
X152570692Y-82627906D01*
X152643026Y-82618279D01*
X152754348Y-82599910D01*
X152837048Y-82565254D01*
X152892235Y-82513297D01*
X152921012Y-82443023D01*
X152924999Y-82359707D01*
X152905307Y-82272681D01*
X152860411Y-82206902D01*
X152789909Y-82162068D01*
X152693399Y-82137879D01*
X152621900Y-82133137D01*
X152543372Y-82135547D01*
G37*
X152543372Y-82135547D02*
X152480092Y-82147548D01*
X152414443Y-82172648D01*
X152407428Y-82175848D01*
X152357644Y-82202026D01*
X152323166Y-82226353D01*
X152312022Y-82241937D01*
X152322634Y-82267353D01*
X152348412Y-82304853D01*
X152359854Y-82318852D01*
X152407008Y-82373954D01*
X152467799Y-82338086D01*
X152525653Y-82314192D01*
X152592500Y-82301420D01*
X152656606Y-82300613D01*
X152706236Y-82312615D01*
X152718146Y-82320105D01*
X152740828Y-82354450D01*
X152743584Y-82394013D01*
X152726612Y-82424920D01*
X152716573Y-82430913D01*
X152686490Y-82438357D01*
X152633611Y-82447106D01*
X152568425Y-82455467D01*
X152556400Y-82456778D01*
X152451703Y-82474888D01*
X152375768Y-82505651D01*
X152325408Y-82551907D01*
X152297436Y-82616497D01*
X152288722Y-82695387D01*
X152300760Y-82785065D01*
X152339849Y-82855486D01*
X152406145Y-82906777D01*
X152499806Y-82939067D01*
X152603777Y-82951807D01*
X152688562Y-82951654D01*
X152757335Y-82940083D01*
X152804303Y-82924109D01*
X152863650Y-82896275D01*
X152918494Y-82863973D01*
X152937987Y-82849755D01*
X152988119Y-82808835D01*
X152867197Y-82686477D01*
X152798457Y-82731967D01*
X152729512Y-82766133D01*
X152655889Y-82784004D01*
X152585117Y-82785889D01*
X152524726Y-82772101D01*
X152482243Y-82742949D01*
X152468526Y-82718352D01*
X152470583Y-82678904D01*
X152504670Y-82648737D01*
X152570692Y-82627906D01*
X152643026Y-82618279D01*
X152754348Y-82599910D01*
X152837048Y-82565254D01*
X152892235Y-82513297D01*
X152921012Y-82443023D01*
X152924999Y-82359707D01*
X152905307Y-82272681D01*
X152860411Y-82206902D01*
X152789909Y-82162068D01*
X152693399Y-82137879D01*
X152621900Y-82133137D01*
X152543372Y-82135547D01*
G36*
X151750331Y-82148310D02*
G01*
X151665808Y-82194340D01*
X151599679Y-82267006D01*
X151568522Y-82326106D01*
X151555145Y-82378305D01*
X151546478Y-82452719D01*
X151542763Y-82538442D01*
X151544246Y-82624569D01*
X151551169Y-82700193D01*
X151559255Y-82740584D01*
X151586535Y-82795840D01*
X151633780Y-82854530D01*
X151690718Y-82905852D01*
X151747076Y-82939005D01*
X151748450Y-82939531D01*
X151818384Y-82954018D01*
X151901263Y-82954377D01*
X151980023Y-82941188D01*
X152010434Y-82930617D01*
X152088761Y-82886201D01*
X152144857Y-82828007D01*
X152181714Y-82750965D01*
X152202320Y-82650001D01*
X152206982Y-82597116D01*
X152206387Y-82530663D01*
X152027264Y-82530663D01*
X152021230Y-82627630D01*
X152003862Y-82701523D01*
X151976260Y-82748736D01*
X151956596Y-82762237D01*
X151906213Y-82771651D01*
X151846327Y-82768864D01*
X151794551Y-82755316D01*
X151780973Y-82747862D01*
X151745151Y-82704451D01*
X151721507Y-82638014D01*
X151711442Y-82557161D01*
X151716358Y-82470502D01*
X151727345Y-82418349D01*
X151758891Y-82357951D01*
X151808689Y-82320197D01*
X151868663Y-82307143D01*
X151930736Y-82320849D01*
X151978418Y-82354372D01*
X152003475Y-82382031D01*
X152018100Y-82409294D01*
X152025071Y-82446190D01*
X152027167Y-82502750D01*
X152027264Y-82530663D01*
X152206387Y-82530663D01*
X152205718Y-82455994D01*
X152182735Y-82340271D01*
X152138028Y-82249941D01*
X152071595Y-82185000D01*
X151983435Y-82145445D01*
X151964505Y-82140858D01*
X151850734Y-82130090D01*
X151750331Y-82148310D01*
G37*
X151750331Y-82148310D02*
X151665808Y-82194340D01*
X151599679Y-82267006D01*
X151568522Y-82326106D01*
X151555145Y-82378305D01*
X151546478Y-82452719D01*
X151542763Y-82538442D01*
X151544246Y-82624569D01*
X151551169Y-82700193D01*
X151559255Y-82740584D01*
X151586535Y-82795840D01*
X151633780Y-82854530D01*
X151690718Y-82905852D01*
X151747076Y-82939005D01*
X151748450Y-82939531D01*
X151818384Y-82954018D01*
X151901263Y-82954377D01*
X151980023Y-82941188D01*
X152010434Y-82930617D01*
X152088761Y-82886201D01*
X152144857Y-82828007D01*
X152181714Y-82750965D01*
X152202320Y-82650001D01*
X152206982Y-82597116D01*
X152206387Y-82530663D01*
X152027264Y-82530663D01*
X152021230Y-82627630D01*
X152003862Y-82701523D01*
X151976260Y-82748736D01*
X151956596Y-82762237D01*
X151906213Y-82771651D01*
X151846327Y-82768864D01*
X151794551Y-82755316D01*
X151780973Y-82747862D01*
X151745151Y-82704451D01*
X151721507Y-82638014D01*
X151711442Y-82557161D01*
X151716358Y-82470502D01*
X151727345Y-82418349D01*
X151758891Y-82357951D01*
X151808689Y-82320197D01*
X151868663Y-82307143D01*
X151930736Y-82320849D01*
X151978418Y-82354372D01*
X152003475Y-82382031D01*
X152018100Y-82409294D01*
X152025071Y-82446190D01*
X152027167Y-82502750D01*
X152027264Y-82530663D01*
X152206387Y-82530663D01*
X152205718Y-82455994D01*
X152182735Y-82340271D01*
X152138028Y-82249941D01*
X152071595Y-82185000D01*
X151983435Y-82145445D01*
X151964505Y-82140858D01*
X151850734Y-82130090D01*
X151750331Y-82148310D01*
G36*
X151241869Y-82398533D02*
G01*
X151240290Y-82521089D01*
X151234519Y-82614179D01*
X151223009Y-82681651D01*
X151204210Y-82727355D01*
X151176574Y-82755139D01*
X151138552Y-82768854D01*
X151091474Y-82772358D01*
X151042168Y-82768432D01*
X151004717Y-82754089D01*
X150977572Y-82725478D01*
X150959185Y-82678751D01*
X150948007Y-82610058D01*
X150942489Y-82515550D01*
X150941079Y-82398533D01*
X150941079Y-82138421D01*
X150757264Y-82138421D01*
X150757264Y-82940526D01*
X150849172Y-82940526D01*
X150904578Y-82938281D01*
X150933109Y-82930396D01*
X150941079Y-82915428D01*
X150945880Y-82902097D01*
X150964986Y-82904917D01*
X151003496Y-82923783D01*
X151091761Y-82952887D01*
X151185377Y-82950825D01*
X151275079Y-82919221D01*
X151317796Y-82894257D01*
X151350379Y-82867226D01*
X151374183Y-82833405D01*
X151390561Y-82788068D01*
X151400869Y-82726489D01*
X151406459Y-82643943D01*
X151408688Y-82535705D01*
X151408974Y-82452004D01*
X151408974Y-82138421D01*
X151241869Y-82138421D01*
X151241869Y-82398533D01*
G37*
X151241869Y-82398533D02*
X151240290Y-82521089D01*
X151234519Y-82614179D01*
X151223009Y-82681651D01*
X151204210Y-82727355D01*
X151176574Y-82755139D01*
X151138552Y-82768854D01*
X151091474Y-82772358D01*
X151042168Y-82768432D01*
X151004717Y-82754089D01*
X150977572Y-82725478D01*
X150959185Y-82678751D01*
X150948007Y-82610058D01*
X150942489Y-82515550D01*
X150941079Y-82398533D01*
X150941079Y-82138421D01*
X150757264Y-82138421D01*
X150757264Y-82940526D01*
X150849172Y-82940526D01*
X150904578Y-82938281D01*
X150933109Y-82930396D01*
X150941079Y-82915428D01*
X150945880Y-82902097D01*
X150964986Y-82904917D01*
X151003496Y-82923783D01*
X151091761Y-82952887D01*
X151185377Y-82950825D01*
X151275079Y-82919221D01*
X151317796Y-82894257D01*
X151350379Y-82867226D01*
X151374183Y-82833405D01*
X151390561Y-82788068D01*
X151400869Y-82726489D01*
X151406459Y-82643943D01*
X151408688Y-82535705D01*
X151408974Y-82452004D01*
X151408974Y-82138421D01*
X151241869Y-82138421D01*
X151241869Y-82398533D01*
G36*
X149615424Y-82145419D02*
G01*
X149518605Y-82186549D01*
X149488110Y-82206571D01*
X149449135Y-82237340D01*
X149424669Y-82261533D01*
X149420422Y-82269413D01*
X149432416Y-82286899D01*
X149463113Y-82316570D01*
X149487688Y-82337279D01*
X149554954Y-82391336D01*
X149608070Y-82346642D01*
X149649116Y-82317789D01*
X149689137Y-82307829D01*
X149734941Y-82310261D01*
X149807676Y-82328345D01*
X149857744Y-82365881D01*
X149888171Y-82426562D01*
X149901983Y-82514081D01*
X149901987Y-82514136D01*
X149900792Y-82611958D01*
X149882228Y-82683730D01*
X149845196Y-82732595D01*
X149819950Y-82749143D01*
X149752903Y-82769749D01*
X149681291Y-82769762D01*
X149618985Y-82749768D01*
X149604237Y-82740000D01*
X149567250Y-82715047D01*
X149538332Y-82710958D01*
X149507144Y-82729530D01*
X149472664Y-82762887D01*
X149418088Y-82819196D01*
X149478682Y-82869142D01*
X149572302Y-82925513D01*
X149677875Y-82953293D01*
X149788202Y-82951282D01*
X149860657Y-82932862D01*
X149945344Y-82887310D01*
X150013073Y-82815650D01*
X150043843Y-82765066D01*
X150068764Y-82692488D01*
X150081234Y-82600569D01*
X150081330Y-82500948D01*
X150069130Y-82405267D01*
X150044710Y-82325169D01*
X150040864Y-82316956D01*
X149983907Y-82236413D01*
X149906791Y-82177771D01*
X149815610Y-82142247D01*
X149716457Y-82131057D01*
X149615424Y-82145419D01*
G37*
X149615424Y-82145419D02*
X149518605Y-82186549D01*
X149488110Y-82206571D01*
X149449135Y-82237340D01*
X149424669Y-82261533D01*
X149420422Y-82269413D01*
X149432416Y-82286899D01*
X149463113Y-82316570D01*
X149487688Y-82337279D01*
X149554954Y-82391336D01*
X149608070Y-82346642D01*
X149649116Y-82317789D01*
X149689137Y-82307829D01*
X149734941Y-82310261D01*
X149807676Y-82328345D01*
X149857744Y-82365881D01*
X149888171Y-82426562D01*
X149901983Y-82514081D01*
X149901987Y-82514136D01*
X149900792Y-82611958D01*
X149882228Y-82683730D01*
X149845196Y-82732595D01*
X149819950Y-82749143D01*
X149752903Y-82769749D01*
X149681291Y-82769762D01*
X149618985Y-82749768D01*
X149604237Y-82740000D01*
X149567250Y-82715047D01*
X149538332Y-82710958D01*
X149507144Y-82729530D01*
X149472664Y-82762887D01*
X149418088Y-82819196D01*
X149478682Y-82869142D01*
X149572302Y-82925513D01*
X149677875Y-82953293D01*
X149788202Y-82951282D01*
X149860657Y-82932862D01*
X149945344Y-82887310D01*
X150013073Y-82815650D01*
X150043843Y-82765066D01*
X150068764Y-82692488D01*
X150081234Y-82600569D01*
X150081330Y-82500948D01*
X150069130Y-82405267D01*
X150044710Y-82325169D01*
X150040864Y-82316956D01*
X149983907Y-82236413D01*
X149906791Y-82177771D01*
X149815610Y-82142247D01*
X149716457Y-82131057D01*
X149615424Y-82145419D01*
G36*
X149003216Y-82135554D02*
G01*
X148960426Y-82145949D01*
X148878391Y-82184013D01*
X148808243Y-82242149D01*
X148759695Y-82311852D01*
X148753025Y-82327502D01*
X148743876Y-82368496D01*
X148737471Y-82429138D01*
X148735290Y-82490430D01*
X148735290Y-82606316D01*
X148977593Y-82606316D01*
X149077529Y-82606693D01*
X149147931Y-82608987D01*
X149192687Y-82614938D01*
X149215685Y-82626285D01*
X149220811Y-82644771D01*
X149211952Y-82672136D01*
X149196083Y-82704155D01*
X149151816Y-82757592D01*
X149090301Y-82784215D01*
X149015115Y-82783347D01*
X148929947Y-82754371D01*
X148856341Y-82718611D01*
X148795266Y-82766904D01*
X148734190Y-82815197D01*
X148791649Y-82868285D01*
X148868359Y-82918445D01*
X148962698Y-82948688D01*
X149064173Y-82957151D01*
X149162289Y-82941974D01*
X149178119Y-82936824D01*
X149264353Y-82891791D01*
X149328499Y-82824652D01*
X149371909Y-82733405D01*
X149395936Y-82616044D01*
X149396216Y-82613529D01*
X149398367Y-82485627D01*
X149389671Y-82439997D01*
X149219895Y-82439997D01*
X149204303Y-82447013D01*
X149161971Y-82452388D01*
X149099566Y-82455457D01*
X149060019Y-82455921D01*
X148986272Y-82455630D01*
X148940160Y-82453783D01*
X148915900Y-82448912D01*
X148907706Y-82439555D01*
X148909794Y-82424245D01*
X148911545Y-82418322D01*
X148941440Y-82362668D01*
X148988458Y-82317815D01*
X149029951Y-82298105D01*
X149085074Y-82299295D01*
X149140932Y-82323875D01*
X149187788Y-82364570D01*
X149215906Y-82414108D01*
X149219895Y-82439997D01*
X149389671Y-82439997D01*
X149376926Y-82373133D01*
X149334389Y-82278727D01*
X149273253Y-82205088D01*
X149196015Y-82154893D01*
X149105170Y-82130822D01*
X149003216Y-82135554D01*
G37*
X149003216Y-82135554D02*
X148960426Y-82145949D01*
X148878391Y-82184013D01*
X148808243Y-82242149D01*
X148759695Y-82311852D01*
X148753025Y-82327502D01*
X148743876Y-82368496D01*
X148737471Y-82429138D01*
X148735290Y-82490430D01*
X148735290Y-82606316D01*
X148977593Y-82606316D01*
X149077529Y-82606693D01*
X149147931Y-82608987D01*
X149192687Y-82614938D01*
X149215685Y-82626285D01*
X149220811Y-82644771D01*
X149211952Y-82672136D01*
X149196083Y-82704155D01*
X149151816Y-82757592D01*
X149090301Y-82784215D01*
X149015115Y-82783347D01*
X148929947Y-82754371D01*
X148856341Y-82718611D01*
X148795266Y-82766904D01*
X148734190Y-82815197D01*
X148791649Y-82868285D01*
X148868359Y-82918445D01*
X148962698Y-82948688D01*
X149064173Y-82957151D01*
X149162289Y-82941974D01*
X149178119Y-82936824D01*
X149264353Y-82891791D01*
X149328499Y-82824652D01*
X149371909Y-82733405D01*
X149395936Y-82616044D01*
X149396216Y-82613529D01*
X149398367Y-82485627D01*
X149389671Y-82439997D01*
X149219895Y-82439997D01*
X149204303Y-82447013D01*
X149161971Y-82452388D01*
X149099566Y-82455457D01*
X149060019Y-82455921D01*
X148986272Y-82455630D01*
X148940160Y-82453783D01*
X148915900Y-82448912D01*
X148907706Y-82439555D01*
X148909794Y-82424245D01*
X148911545Y-82418322D01*
X148941440Y-82362668D01*
X148988458Y-82317815D01*
X149029951Y-82298105D01*
X149085074Y-82299295D01*
X149140932Y-82323875D01*
X149187788Y-82364570D01*
X149215906Y-82414108D01*
X149219895Y-82439997D01*
X149389671Y-82439997D01*
X149376926Y-82373133D01*
X149334389Y-82278727D01*
X149273253Y-82205088D01*
X149196015Y-82154893D01*
X149105170Y-82130822D01*
X149003216Y-82135554D01*
G36*
X153564043Y-82152226D02*
G01*
X153522454Y-82172090D01*
X153482175Y-82200784D01*
X153451490Y-82233809D01*
X153429139Y-82275931D01*
X153413864Y-82331915D01*
X153404408Y-82406528D01*
X153399513Y-82504535D01*
X153397919Y-82630702D01*
X153397894Y-82643914D01*
X153397527Y-82940526D01*
X153581343Y-82940526D01*
X153581343Y-82667081D01*
X153581473Y-82565777D01*
X153582379Y-82492353D01*
X153584827Y-82441271D01*
X153589586Y-82406990D01*
X153597426Y-82383971D01*
X153609115Y-82366673D01*
X153625398Y-82349581D01*
X153682366Y-82312857D01*
X153744555Y-82306042D01*
X153803801Y-82329261D01*
X153824405Y-82346543D01*
X153839530Y-82362791D01*
X153850390Y-82380191D01*
X153857690Y-82404212D01*
X153862137Y-82440322D01*
X153864436Y-82493988D01*
X153865296Y-82570680D01*
X153865422Y-82664043D01*
X153865422Y-82940526D01*
X154049237Y-82940526D01*
X154049237Y-82138421D01*
X153957329Y-82138421D01*
X153902149Y-82140603D01*
X153873680Y-82148351D01*
X153865425Y-82163468D01*
X153865422Y-82163916D01*
X153861592Y-82178720D01*
X153844699Y-82177040D01*
X153811112Y-82160773D01*
X153734937Y-82136840D01*
X153647800Y-82134178D01*
X153564043Y-82152226D01*
G37*
X153564043Y-82152226D02*
X153522454Y-82172090D01*
X153482175Y-82200784D01*
X153451490Y-82233809D01*
X153429139Y-82275931D01*
X153413864Y-82331915D01*
X153404408Y-82406528D01*
X153399513Y-82504535D01*
X153397919Y-82630702D01*
X153397894Y-82643914D01*
X153397527Y-82940526D01*
X153581343Y-82940526D01*
X153581343Y-82667081D01*
X153581473Y-82565777D01*
X153582379Y-82492353D01*
X153584827Y-82441271D01*
X153589586Y-82406990D01*
X153597426Y-82383971D01*
X153609115Y-82366673D01*
X153625398Y-82349581D01*
X153682366Y-82312857D01*
X153744555Y-82306042D01*
X153803801Y-82329261D01*
X153824405Y-82346543D01*
X153839530Y-82362791D01*
X153850390Y-82380191D01*
X153857690Y-82404212D01*
X153862137Y-82440322D01*
X153864436Y-82493988D01*
X153865296Y-82570680D01*
X153865422Y-82664043D01*
X153865422Y-82940526D01*
X154049237Y-82940526D01*
X154049237Y-82138421D01*
X153957329Y-82138421D01*
X153902149Y-82140603D01*
X153873680Y-82148351D01*
X153865425Y-82163468D01*
X153865422Y-82163916D01*
X153861592Y-82178720D01*
X153844699Y-82177040D01*
X153811112Y-82160773D01*
X153734937Y-82136840D01*
X153647800Y-82134178D01*
X153564043Y-82152226D01*
G36*
X150170612Y-82137645D02*
G01*
X150113135Y-82155206D01*
X150076128Y-82177395D01*
X150064073Y-82194942D01*
X150067391Y-82215742D01*
X150088921Y-82248419D01*
X150107126Y-82271562D01*
X150144656Y-82313402D01*
X150172852Y-82331005D01*
X150196889Y-82329856D01*
X150268192Y-82311710D01*
X150320558Y-82312534D01*
X150363082Y-82333098D01*
X150377358Y-82345134D01*
X150423053Y-82387483D01*
X150423053Y-82940526D01*
X150606869Y-82940526D01*
X150606869Y-82138421D01*
X150514961Y-82138421D01*
X150459781Y-82140603D01*
X150431312Y-82148351D01*
X150423057Y-82163468D01*
X150423053Y-82163916D01*
X150419155Y-82179749D01*
X150401526Y-82177684D01*
X150377099Y-82166261D01*
X150326650Y-82145005D01*
X150285684Y-82132216D01*
X150232972Y-82128938D01*
X150170612Y-82137645D01*
G37*
X150170612Y-82137645D02*
X150113135Y-82155206D01*
X150076128Y-82177395D01*
X150064073Y-82194942D01*
X150067391Y-82215742D01*
X150088921Y-82248419D01*
X150107126Y-82271562D01*
X150144656Y-82313402D01*
X150172852Y-82331005D01*
X150196889Y-82329856D01*
X150268192Y-82311710D01*
X150320558Y-82312534D01*
X150363082Y-82333098D01*
X150377358Y-82345134D01*
X150423053Y-82387483D01*
X150423053Y-82940526D01*
X150606869Y-82940526D01*
X150606869Y-82138421D01*
X150514961Y-82138421D01*
X150459781Y-82140603D01*
X150431312Y-82148351D01*
X150423057Y-82163468D01*
X150423053Y-82163916D01*
X150419155Y-82179749D01*
X150401526Y-82177684D01*
X150377099Y-82166261D01*
X150326650Y-82145005D01*
X150285684Y-82132216D01*
X150232972Y-82128938D01*
X150170612Y-82137645D01*
G36*
X152061036Y-76598576D02*
G01*
X151985487Y-76999322D01*
X151427959Y-77229154D01*
X151093535Y-77001748D01*
X150999878Y-76938431D01*
X150915218Y-76881896D01*
X150843505Y-76834727D01*
X150788689Y-76799502D01*
X150754720Y-76778805D01*
X150745470Y-76774342D01*
X150728805Y-76785820D01*
X150693194Y-76817551D01*
X150642629Y-76865483D01*
X150581100Y-76925562D01*
X150512601Y-76993733D01*
X150441121Y-77065945D01*
X150370653Y-77138142D01*
X150305189Y-77206273D01*
X150248720Y-77266283D01*
X150205237Y-77314119D01*
X150178732Y-77345727D01*
X150172395Y-77356305D01*
X150181514Y-77375806D01*
X150207080Y-77418531D01*
X150246403Y-77480298D01*
X150296797Y-77556931D01*
X150355573Y-77644248D01*
X150389632Y-77694052D01*
X150451711Y-77784993D01*
X150506874Y-77867059D01*
X150552446Y-77936163D01*
X150585750Y-77988222D01*
X150604110Y-78019150D01*
X150606869Y-78025650D01*
X150600615Y-78044121D01*
X150583566Y-78087172D01*
X150558297Y-78148749D01*
X150527378Y-78222799D01*
X150493382Y-78303270D01*
X150458882Y-78384107D01*
X150426449Y-78459258D01*
X150398657Y-78522671D01*
X150378077Y-78568293D01*
X150367281Y-78590069D01*
X150366644Y-78590926D01*
X150349693Y-78595084D01*
X150304549Y-78604361D01*
X150235890Y-78617844D01*
X150148398Y-78634621D01*
X150046750Y-78653781D01*
X149987444Y-78664830D01*
X149878828Y-78685510D01*
X149780723Y-78705189D01*
X149698091Y-78722789D01*
X149635896Y-78737233D01*
X149599101Y-78747446D01*
X149591704Y-78750686D01*
X149584460Y-78772617D01*
X149578615Y-78822147D01*
X149574165Y-78893485D01*
X149571107Y-78980839D01*
X149569435Y-79078417D01*
X149569147Y-79180426D01*
X149570239Y-79281075D01*
X149572706Y-79374572D01*
X149576544Y-79455125D01*
X149581750Y-79516942D01*
X149588319Y-79554230D01*
X149592259Y-79561993D01*
X149615812Y-79571298D01*
X149665718Y-79584600D01*
X149735377Y-79600337D01*
X149818187Y-79616946D01*
X149847095Y-79622319D01*
X149986469Y-79647848D01*
X150096564Y-79668408D01*
X150181018Y-79684815D01*
X150243470Y-79697887D01*
X150287556Y-79708441D01*
X150316915Y-79717294D01*
X150335185Y-79725263D01*
X150346002Y-79733165D01*
X150347515Y-79734727D01*
X150362623Y-79759886D01*
X150385671Y-79808850D01*
X150414356Y-79875621D01*
X150446378Y-79954205D01*
X150479435Y-80038607D01*
X150511227Y-80122830D01*
X150539451Y-80200879D01*
X150561807Y-80266759D01*
X150575993Y-80314473D01*
X150579707Y-80338027D01*
X150579398Y-80338852D01*
X150566811Y-80358104D01*
X150538256Y-80400463D01*
X150496733Y-80461521D01*
X150445244Y-80536868D01*
X150386789Y-80622096D01*
X150370142Y-80646315D01*
X150310785Y-80734123D01*
X150258553Y-80814238D01*
X150216292Y-80882062D01*
X150186847Y-80932993D01*
X150173063Y-80962431D01*
X150172395Y-80966048D01*
X150183976Y-80985057D01*
X150215976Y-81022714D01*
X150264282Y-81074973D01*
X150324780Y-81137786D01*
X150393356Y-81207106D01*
X150465896Y-81278885D01*
X150538288Y-81349077D01*
X150606416Y-81413635D01*
X150666168Y-81468510D01*
X150713429Y-81509656D01*
X150744087Y-81533026D01*
X150752568Y-81536842D01*
X150772309Y-81527855D01*
X150812726Y-81503616D01*
X150867237Y-81468209D01*
X150909177Y-81439711D01*
X150985171Y-81387418D01*
X151075166Y-81325845D01*
X151165436Y-81264370D01*
X151213968Y-81231469D01*
X151378238Y-81120359D01*
X151516131Y-81194916D01*
X151578951Y-81227578D01*
X151632371Y-81252966D01*
X151668516Y-81267446D01*
X151677716Y-81269460D01*
X151688779Y-81254584D01*
X151710606Y-81212547D01*
X151741566Y-81147227D01*
X151780030Y-81062500D01*
X151824368Y-80962245D01*
X151872953Y-80850339D01*
X151924154Y-80730659D01*
X151976341Y-80607084D01*
X152027887Y-80483491D01*
X152077160Y-80363757D01*
X152122533Y-80251759D01*
X152162375Y-80151377D01*
X152195058Y-80066486D01*
X152218951Y-80000965D01*
X152232426Y-79958690D01*
X152234594Y-79944172D01*
X152217417Y-79925653D01*
X152179810Y-79895590D01*
X152129634Y-79860232D01*
X152125422Y-79857434D01*
X151995736Y-79753625D01*
X151891166Y-79632515D01*
X151812619Y-79497976D01*
X151761001Y-79353882D01*
X151737218Y-79204105D01*
X151742177Y-79052517D01*
X151776783Y-78902992D01*
X151841943Y-78759400D01*
X151861114Y-78727984D01*
X151960826Y-78601125D01*
X152078623Y-78499255D01*
X152210429Y-78422904D01*
X152352167Y-78372602D01*
X152499758Y-78348879D01*
X152649127Y-78352265D01*
X152796197Y-78383288D01*
X152936889Y-78442480D01*
X153067127Y-78530369D01*
X153107414Y-78566042D01*
X153209945Y-78677706D01*
X153284659Y-78795257D01*
X153335910Y-78927020D01*
X153364454Y-79057507D01*
X153371500Y-79204216D01*
X153348004Y-79351653D01*
X153296351Y-79494834D01*
X153218929Y-79628777D01*
X153118125Y-79748498D01*
X152996324Y-79849014D01*
X152980316Y-79859609D01*
X152929602Y-79894306D01*
X152891050Y-79924370D01*
X152872619Y-79943565D01*
X152872351Y-79944172D01*
X152876308Y-79964936D01*
X152891993Y-80012062D01*
X152917778Y-80081673D01*
X152952031Y-80169893D01*
X152993123Y-80272844D01*
X153039424Y-80386650D01*
X153089304Y-80507435D01*
X153141133Y-80631321D01*
X153193281Y-80754432D01*
X153244118Y-80872891D01*
X153292013Y-80982823D01*
X153335338Y-81080349D01*
X153372462Y-81161593D01*
X153401756Y-81222679D01*
X153421588Y-81259730D01*
X153429574Y-81269460D01*
X153453979Y-81261883D01*
X153499642Y-81241560D01*
X153558690Y-81212125D01*
X153591160Y-81194916D01*
X153729053Y-81120359D01*
X153893323Y-81231469D01*
X153977179Y-81288390D01*
X154068987Y-81351030D01*
X154155020Y-81410011D01*
X154198113Y-81439711D01*
X154258723Y-81480410D01*
X154310045Y-81512663D01*
X154345385Y-81532384D01*
X154356863Y-81536554D01*
X154373570Y-81525307D01*
X154410546Y-81493911D01*
X154464205Y-81445624D01*
X154530962Y-81383708D01*
X154607234Y-81311421D01*
X154655473Y-81265008D01*
X154739867Y-81182087D01*
X154812803Y-81107920D01*
X154871331Y-81045680D01*
X154912503Y-80998541D01*
X154933372Y-80969673D01*
X154935374Y-80963815D01*
X154926083Y-80941532D01*
X154900409Y-80896477D01*
X154861200Y-80833211D01*
X154811303Y-80756295D01*
X154753567Y-80670292D01*
X154737149Y-80646315D01*
X154677323Y-80559170D01*
X154623650Y-80480710D01*
X154579130Y-80415345D01*
X154546765Y-80367484D01*
X154529555Y-80341535D01*
X154527893Y-80338852D01*
X154530379Y-80318172D01*
X154543577Y-80272704D01*
X154565186Y-80208444D01*
X154592904Y-80131387D01*
X154624430Y-80047529D01*
X154657463Y-79962866D01*
X154689701Y-79883392D01*
X154718843Y-79815104D01*
X154742588Y-79763997D01*
X154758635Y-79736067D01*
X154759775Y-79734727D01*
X154769588Y-79726745D01*
X154786161Y-79718851D01*
X154813132Y-79710229D01*
X154854139Y-79700062D01*
X154912820Y-79687531D01*
X154992813Y-79671821D01*
X155097755Y-79652113D01*
X155231285Y-79627592D01*
X155260196Y-79622319D01*
X155345882Y-79605764D01*
X155420582Y-79589569D01*
X155477694Y-79575296D01*
X155510617Y-79564508D01*
X155515031Y-79561993D01*
X155522306Y-79539696D01*
X155528219Y-79489869D01*
X155532766Y-79418304D01*
X155535945Y-79330793D01*
X155537749Y-79233128D01*
X155538177Y-79131101D01*
X155537223Y-79030503D01*
X155534884Y-78937127D01*
X155531156Y-78856765D01*
X155526034Y-78795209D01*
X155519516Y-78758250D01*
X155515586Y-78750686D01*
X155493708Y-78743056D01*
X155443891Y-78730642D01*
X155371097Y-78714522D01*
X155280289Y-78695773D01*
X155176431Y-78675471D01*
X155119846Y-78664830D01*
X155012486Y-78644760D01*
X154916746Y-78626580D01*
X154837306Y-78611199D01*
X154778846Y-78599531D01*
X154746045Y-78592488D01*
X154740646Y-78590926D01*
X154731522Y-78573322D01*
X154712235Y-78530918D01*
X154685355Y-78469772D01*
X154653454Y-78395943D01*
X154619102Y-78315489D01*
X154584871Y-78234468D01*
X154553331Y-78158937D01*
X154527054Y-78094955D01*
X154508611Y-78048580D01*
X154500571Y-78025869D01*
X154500422Y-78024876D01*
X154509535Y-78006961D01*
X154535086Y-77965733D01*
X154574388Y-77905291D01*
X154624757Y-77829731D01*
X154683506Y-77743152D01*
X154717658Y-77693421D01*
X154779890Y-77602236D01*
X154835164Y-77519449D01*
X154880782Y-77449249D01*
X154914048Y-77395824D01*
X154932264Y-77363361D01*
X154934895Y-77356083D01*
X154923586Y-77339145D01*
X154892319Y-77302978D01*
X154845090Y-77251635D01*
X154785892Y-77189167D01*
X154718719Y-77119626D01*
X154647566Y-77047065D01*
X154576426Y-76975535D01*
X154509293Y-76909087D01*
X154450161Y-76851774D01*
X154403025Y-76807647D01*
X154371877Y-76780759D01*
X154361457Y-76774342D01*
X154344491Y-76783365D01*
X154303911Y-76808715D01*
X154243663Y-76847810D01*
X154167693Y-76898071D01*
X154079946Y-76956917D01*
X154013756Y-77001748D01*
X153679332Y-77229154D01*
X153400567Y-77114238D01*
X153121803Y-76999322D01*
X153046254Y-76598576D01*
X152970706Y-76197829D01*
X152136585Y-76197829D01*
X152061036Y-76598576D01*
G37*
X152061036Y-76598576D02*
X151985487Y-76999322D01*
X151427959Y-77229154D01*
X151093535Y-77001748D01*
X150999878Y-76938431D01*
X150915218Y-76881896D01*
X150843505Y-76834727D01*
X150788689Y-76799502D01*
X150754720Y-76778805D01*
X150745470Y-76774342D01*
X150728805Y-76785820D01*
X150693194Y-76817551D01*
X150642629Y-76865483D01*
X150581100Y-76925562D01*
X150512601Y-76993733D01*
X150441121Y-77065945D01*
X150370653Y-77138142D01*
X150305189Y-77206273D01*
X150248720Y-77266283D01*
X150205237Y-77314119D01*
X150178732Y-77345727D01*
X150172395Y-77356305D01*
X150181514Y-77375806D01*
X150207080Y-77418531D01*
X150246403Y-77480298D01*
X150296797Y-77556931D01*
X150355573Y-77644248D01*
X150389632Y-77694052D01*
X150451711Y-77784993D01*
X150506874Y-77867059D01*
X150552446Y-77936163D01*
X150585750Y-77988222D01*
X150604110Y-78019150D01*
X150606869Y-78025650D01*
X150600615Y-78044121D01*
X150583566Y-78087172D01*
X150558297Y-78148749D01*
X150527378Y-78222799D01*
X150493382Y-78303270D01*
X150458882Y-78384107D01*
X150426449Y-78459258D01*
X150398657Y-78522671D01*
X150378077Y-78568293D01*
X150367281Y-78590069D01*
X150366644Y-78590926D01*
X150349693Y-78595084D01*
X150304549Y-78604361D01*
X150235890Y-78617844D01*
X150148398Y-78634621D01*
X150046750Y-78653781D01*
X149987444Y-78664830D01*
X149878828Y-78685510D01*
X149780723Y-78705189D01*
X149698091Y-78722789D01*
X149635896Y-78737233D01*
X149599101Y-78747446D01*
X149591704Y-78750686D01*
X149584460Y-78772617D01*
X149578615Y-78822147D01*
X149574165Y-78893485D01*
X149571107Y-78980839D01*
X149569435Y-79078417D01*
X149569147Y-79180426D01*
X149570239Y-79281075D01*
X149572706Y-79374572D01*
X149576544Y-79455125D01*
X149581750Y-79516942D01*
X149588319Y-79554230D01*
X149592259Y-79561993D01*
X149615812Y-79571298D01*
X149665718Y-79584600D01*
X149735377Y-79600337D01*
X149818187Y-79616946D01*
X149847095Y-79622319D01*
X149986469Y-79647848D01*
X150096564Y-79668408D01*
X150181018Y-79684815D01*
X150243470Y-79697887D01*
X150287556Y-79708441D01*
X150316915Y-79717294D01*
X150335185Y-79725263D01*
X150346002Y-79733165D01*
X150347515Y-79734727D01*
X150362623Y-79759886D01*
X150385671Y-79808850D01*
X150414356Y-79875621D01*
X150446378Y-79954205D01*
X150479435Y-80038607D01*
X150511227Y-80122830D01*
X150539451Y-80200879D01*
X150561807Y-80266759D01*
X150575993Y-80314473D01*
X150579707Y-80338027D01*
X150579398Y-80338852D01*
X150566811Y-80358104D01*
X150538256Y-80400463D01*
X150496733Y-80461521D01*
X150445244Y-80536868D01*
X150386789Y-80622096D01*
X150370142Y-80646315D01*
X150310785Y-80734123D01*
X150258553Y-80814238D01*
X150216292Y-80882062D01*
X150186847Y-80932993D01*
X150173063Y-80962431D01*
X150172395Y-80966048D01*
X150183976Y-80985057D01*
X150215976Y-81022714D01*
X150264282Y-81074973D01*
X150324780Y-81137786D01*
X150393356Y-81207106D01*
X150465896Y-81278885D01*
X150538288Y-81349077D01*
X150606416Y-81413635D01*
X150666168Y-81468510D01*
X150713429Y-81509656D01*
X150744087Y-81533026D01*
X150752568Y-81536842D01*
X150772309Y-81527855D01*
X150812726Y-81503616D01*
X150867237Y-81468209D01*
X150909177Y-81439711D01*
X150985171Y-81387418D01*
X151075166Y-81325845D01*
X151165436Y-81264370D01*
X151213968Y-81231469D01*
X151378238Y-81120359D01*
X151516131Y-81194916D01*
X151578951Y-81227578D01*
X151632371Y-81252966D01*
X151668516Y-81267446D01*
X151677716Y-81269460D01*
X151688779Y-81254584D01*
X151710606Y-81212547D01*
X151741566Y-81147227D01*
X151780030Y-81062500D01*
X151824368Y-80962245D01*
X151872953Y-80850339D01*
X151924154Y-80730659D01*
X151976341Y-80607084D01*
X152027887Y-80483491D01*
X152077160Y-80363757D01*
X152122533Y-80251759D01*
X152162375Y-80151377D01*
X152195058Y-80066486D01*
X152218951Y-80000965D01*
X152232426Y-79958690D01*
X152234594Y-79944172D01*
X152217417Y-79925653D01*
X152179810Y-79895590D01*
X152129634Y-79860232D01*
X152125422Y-79857434D01*
X151995736Y-79753625D01*
X151891166Y-79632515D01*
X151812619Y-79497976D01*
X151761001Y-79353882D01*
X151737218Y-79204105D01*
X151742177Y-79052517D01*
X151776783Y-78902992D01*
X151841943Y-78759400D01*
X151861114Y-78727984D01*
X151960826Y-78601125D01*
X152078623Y-78499255D01*
X152210429Y-78422904D01*
X152352167Y-78372602D01*
X152499758Y-78348879D01*
X152649127Y-78352265D01*
X152796197Y-78383288D01*
X152936889Y-78442480D01*
X153067127Y-78530369D01*
X153107414Y-78566042D01*
X153209945Y-78677706D01*
X153284659Y-78795257D01*
X153335910Y-78927020D01*
X153364454Y-79057507D01*
X153371500Y-79204216D01*
X153348004Y-79351653D01*
X153296351Y-79494834D01*
X153218929Y-79628777D01*
X153118125Y-79748498D01*
X152996324Y-79849014D01*
X152980316Y-79859609D01*
X152929602Y-79894306D01*
X152891050Y-79924370D01*
X152872619Y-79943565D01*
X152872351Y-79944172D01*
X152876308Y-79964936D01*
X152891993Y-80012062D01*
X152917778Y-80081673D01*
X152952031Y-80169893D01*
X152993123Y-80272844D01*
X153039424Y-80386650D01*
X153089304Y-80507435D01*
X153141133Y-80631321D01*
X153193281Y-80754432D01*
X153244118Y-80872891D01*
X153292013Y-80982823D01*
X153335338Y-81080349D01*
X153372462Y-81161593D01*
X153401756Y-81222679D01*
X153421588Y-81259730D01*
X153429574Y-81269460D01*
X153453979Y-81261883D01*
X153499642Y-81241560D01*
X153558690Y-81212125D01*
X153591160Y-81194916D01*
X153729053Y-81120359D01*
X153893323Y-81231469D01*
X153977179Y-81288390D01*
X154068987Y-81351030D01*
X154155020Y-81410011D01*
X154198113Y-81439711D01*
X154258723Y-81480410D01*
X154310045Y-81512663D01*
X154345385Y-81532384D01*
X154356863Y-81536554D01*
X154373570Y-81525307D01*
X154410546Y-81493911D01*
X154464205Y-81445624D01*
X154530962Y-81383708D01*
X154607234Y-81311421D01*
X154655473Y-81265008D01*
X154739867Y-81182087D01*
X154812803Y-81107920D01*
X154871331Y-81045680D01*
X154912503Y-80998541D01*
X154933372Y-80969673D01*
X154935374Y-80963815D01*
X154926083Y-80941532D01*
X154900409Y-80896477D01*
X154861200Y-80833211D01*
X154811303Y-80756295D01*
X154753567Y-80670292D01*
X154737149Y-80646315D01*
X154677323Y-80559170D01*
X154623650Y-80480710D01*
X154579130Y-80415345D01*
X154546765Y-80367484D01*
X154529555Y-80341535D01*
X154527893Y-80338852D01*
X154530379Y-80318172D01*
X154543577Y-80272704D01*
X154565186Y-80208444D01*
X154592904Y-80131387D01*
X154624430Y-80047529D01*
X154657463Y-79962866D01*
X154689701Y-79883392D01*
X154718843Y-79815104D01*
X154742588Y-79763997D01*
X154758635Y-79736067D01*
X154759775Y-79734727D01*
X154769588Y-79726745D01*
X154786161Y-79718851D01*
X154813132Y-79710229D01*
X154854139Y-79700062D01*
X154912820Y-79687531D01*
X154992813Y-79671821D01*
X155097755Y-79652113D01*
X155231285Y-79627592D01*
X155260196Y-79622319D01*
X155345882Y-79605764D01*
X155420582Y-79589569D01*
X155477694Y-79575296D01*
X155510617Y-79564508D01*
X155515031Y-79561993D01*
X155522306Y-79539696D01*
X155528219Y-79489869D01*
X155532766Y-79418304D01*
X155535945Y-79330793D01*
X155537749Y-79233128D01*
X155538177Y-79131101D01*
X155537223Y-79030503D01*
X155534884Y-78937127D01*
X155531156Y-78856765D01*
X155526034Y-78795209D01*
X155519516Y-78758250D01*
X155515586Y-78750686D01*
X155493708Y-78743056D01*
X155443891Y-78730642D01*
X155371097Y-78714522D01*
X155280289Y-78695773D01*
X155176431Y-78675471D01*
X155119846Y-78664830D01*
X155012486Y-78644760D01*
X154916746Y-78626580D01*
X154837306Y-78611199D01*
X154778846Y-78599531D01*
X154746045Y-78592488D01*
X154740646Y-78590926D01*
X154731522Y-78573322D01*
X154712235Y-78530918D01*
X154685355Y-78469772D01*
X154653454Y-78395943D01*
X154619102Y-78315489D01*
X154584871Y-78234468D01*
X154553331Y-78158937D01*
X154527054Y-78094955D01*
X154508611Y-78048580D01*
X154500571Y-78025869D01*
X154500422Y-78024876D01*
X154509535Y-78006961D01*
X154535086Y-77965733D01*
X154574388Y-77905291D01*
X154624757Y-77829731D01*
X154683506Y-77743152D01*
X154717658Y-77693421D01*
X154779890Y-77602236D01*
X154835164Y-77519449D01*
X154880782Y-77449249D01*
X154914048Y-77395824D01*
X154932264Y-77363361D01*
X154934895Y-77356083D01*
X154923586Y-77339145D01*
X154892319Y-77302978D01*
X154845090Y-77251635D01*
X154785892Y-77189167D01*
X154718719Y-77119626D01*
X154647566Y-77047065D01*
X154576426Y-76975535D01*
X154509293Y-76909087D01*
X154450161Y-76851774D01*
X154403025Y-76807647D01*
X154371877Y-76780759D01*
X154361457Y-76774342D01*
X154344491Y-76783365D01*
X154303911Y-76808715D01*
X154243663Y-76847810D01*
X154167693Y-76898071D01*
X154079946Y-76956917D01*
X154013756Y-77001748D01*
X153679332Y-77229154D01*
X153400567Y-77114238D01*
X153121803Y-76999322D01*
X153046254Y-76598576D01*
X152970706Y-76197829D01*
X152136585Y-76197829D01*
X152061036Y-76598576D01*
M02*
