G04 #@! TF.GenerationSoftware,KiCad,Pcbnew,(5.1.8)-1*
G04 #@! TF.CreationDate,2021-11-04T13:52:05+01:00*
G04 #@! TF.ProjectId,Greaseweazle FA1,47726561-7365-4776-9561-7a6c65204641,rev?*
G04 #@! TF.SameCoordinates,Original*
G04 #@! TF.FileFunction,Legend,Bot*
G04 #@! TF.FilePolarity,Positive*
%FSLAX46Y46*%
G04 Gerber Fmt 4.6, Leading zero omitted, Abs format (unit mm)*
G04 Created by KiCad (PCBNEW (5.1.8)-1) date 2021-11-04 13:52:05*
%MOMM*%
%LPD*%
G01*
G04 APERTURE LIST*
%ADD10C,0.150000*%
%ADD11C,0.120000*%
%ADD12C,0.100000*%
%ADD13C,0.300000*%
%ADD14C,0.200000*%
%ADD15C,0.010000*%
G04 APERTURE END LIST*
D10*
X159122238Y-72009666D02*
X158646047Y-72009666D01*
X159217476Y-72295380D02*
X158884142Y-71295380D01*
X158550809Y-72295380D01*
X158217476Y-72295380D02*
X158217476Y-71628714D01*
X158217476Y-71723952D02*
X158169857Y-71676333D01*
X158074619Y-71628714D01*
X157931761Y-71628714D01*
X157836523Y-71676333D01*
X157788904Y-71771571D01*
X157788904Y-72295380D01*
X157788904Y-71771571D02*
X157741285Y-71676333D01*
X157646047Y-71628714D01*
X157503190Y-71628714D01*
X157407952Y-71676333D01*
X157360333Y-71771571D01*
X157360333Y-72295380D01*
X156884142Y-72295380D02*
X156884142Y-71628714D01*
X156884142Y-71295380D02*
X156931761Y-71343000D01*
X156884142Y-71390619D01*
X156836523Y-71343000D01*
X156884142Y-71295380D01*
X156884142Y-71390619D01*
X155979380Y-71628714D02*
X155979380Y-72438238D01*
X156027000Y-72533476D01*
X156074619Y-72581095D01*
X156169857Y-72628714D01*
X156312714Y-72628714D01*
X156407952Y-72581095D01*
X155979380Y-72247761D02*
X156074619Y-72295380D01*
X156265095Y-72295380D01*
X156360333Y-72247761D01*
X156407952Y-72200142D01*
X156455571Y-72104904D01*
X156455571Y-71819190D01*
X156407952Y-71723952D01*
X156360333Y-71676333D01*
X156265095Y-71628714D01*
X156074619Y-71628714D01*
X155979380Y-71676333D01*
X155074619Y-72295380D02*
X155074619Y-71771571D01*
X155122238Y-71676333D01*
X155217476Y-71628714D01*
X155407952Y-71628714D01*
X155503190Y-71676333D01*
X155074619Y-72247761D02*
X155169857Y-72295380D01*
X155407952Y-72295380D01*
X155503190Y-72247761D01*
X155550809Y-72152523D01*
X155550809Y-72057285D01*
X155503190Y-71962047D01*
X155407952Y-71914428D01*
X155169857Y-71914428D01*
X155074619Y-71866809D01*
X153836523Y-72295380D02*
X153836523Y-71295380D01*
X153598428Y-71295380D01*
X153455571Y-71343000D01*
X153360333Y-71438238D01*
X153312714Y-71533476D01*
X153265095Y-71723952D01*
X153265095Y-71866809D01*
X153312714Y-72057285D01*
X153360333Y-72152523D01*
X153455571Y-72247761D01*
X153598428Y-72295380D01*
X153836523Y-72295380D01*
X152836523Y-72295380D02*
X152836523Y-71628714D01*
X152836523Y-71819190D02*
X152788904Y-71723952D01*
X152741285Y-71676333D01*
X152646047Y-71628714D01*
X152550809Y-71628714D01*
X151788904Y-72295380D02*
X151788904Y-71771571D01*
X151836523Y-71676333D01*
X151931761Y-71628714D01*
X152122238Y-71628714D01*
X152217476Y-71676333D01*
X151788904Y-72247761D02*
X151884142Y-72295380D01*
X152122238Y-72295380D01*
X152217476Y-72247761D01*
X152265095Y-72152523D01*
X152265095Y-72057285D01*
X152217476Y-71962047D01*
X152122238Y-71914428D01*
X151884142Y-71914428D01*
X151788904Y-71866809D01*
X151407952Y-71628714D02*
X151217476Y-72295380D01*
X151027000Y-71819190D01*
X150836523Y-72295380D01*
X150646047Y-71628714D01*
X149931761Y-71771571D02*
X149788904Y-71819190D01*
X149741285Y-71866809D01*
X149693666Y-71962047D01*
X149693666Y-72104904D01*
X149741285Y-72200142D01*
X149788904Y-72247761D01*
X149884142Y-72295380D01*
X150265095Y-72295380D01*
X150265095Y-71295380D01*
X149931761Y-71295380D01*
X149836523Y-71343000D01*
X149788904Y-71390619D01*
X149741285Y-71485857D01*
X149741285Y-71581095D01*
X149788904Y-71676333D01*
X149836523Y-71723952D01*
X149931761Y-71771571D01*
X150265095Y-71771571D01*
X149265095Y-72295380D02*
X149265095Y-71628714D01*
X149265095Y-71819190D02*
X149217476Y-71723952D01*
X149169857Y-71676333D01*
X149074619Y-71628714D01*
X148979380Y-71628714D01*
X148646047Y-72295380D02*
X148646047Y-71628714D01*
X148646047Y-71295380D02*
X148693666Y-71343000D01*
X148646047Y-71390619D01*
X148598428Y-71343000D01*
X148646047Y-71295380D01*
X148646047Y-71390619D01*
X147741285Y-72295380D02*
X147741285Y-71295380D01*
X147741285Y-72247761D02*
X147836523Y-72295380D01*
X148027000Y-72295380D01*
X148122238Y-72247761D01*
X148169857Y-72200142D01*
X148217476Y-72104904D01*
X148217476Y-71819190D01*
X148169857Y-71723952D01*
X148122238Y-71676333D01*
X148027000Y-71628714D01*
X147836523Y-71628714D01*
X147741285Y-71676333D01*
X146836523Y-71628714D02*
X146836523Y-72438238D01*
X146884142Y-72533476D01*
X146931761Y-72581095D01*
X147027000Y-72628714D01*
X147169857Y-72628714D01*
X147265095Y-72581095D01*
X146836523Y-72247761D02*
X146931761Y-72295380D01*
X147122238Y-72295380D01*
X147217476Y-72247761D01*
X147265095Y-72200142D01*
X147312714Y-72104904D01*
X147312714Y-71819190D01*
X147265095Y-71723952D01*
X147217476Y-71676333D01*
X147122238Y-71628714D01*
X146931761Y-71628714D01*
X146836523Y-71676333D01*
X145979380Y-72247761D02*
X146074619Y-72295380D01*
X146265095Y-72295380D01*
X146360333Y-72247761D01*
X146407952Y-72152523D01*
X146407952Y-71771571D01*
X146360333Y-71676333D01*
X146265095Y-71628714D01*
X146074619Y-71628714D01*
X145979380Y-71676333D01*
X145931761Y-71771571D01*
X145931761Y-71866809D01*
X146407952Y-71962047D01*
X157931761Y-73278714D02*
X157931761Y-74088238D01*
X157979380Y-74183476D01*
X158027000Y-74231095D01*
X158122238Y-74278714D01*
X158265095Y-74278714D01*
X158360333Y-74231095D01*
X157931761Y-73897761D02*
X158027000Y-73945380D01*
X158217476Y-73945380D01*
X158312714Y-73897761D01*
X158360333Y-73850142D01*
X158407952Y-73754904D01*
X158407952Y-73469190D01*
X158360333Y-73373952D01*
X158312714Y-73326333D01*
X158217476Y-73278714D01*
X158027000Y-73278714D01*
X157931761Y-73326333D01*
X157455571Y-73945380D02*
X157455571Y-73278714D01*
X157455571Y-72945380D02*
X157503190Y-72993000D01*
X157455571Y-73040619D01*
X157407952Y-72993000D01*
X157455571Y-72945380D01*
X157455571Y-73040619D01*
X157122238Y-73278714D02*
X156741285Y-73278714D01*
X156979380Y-72945380D02*
X156979380Y-73802523D01*
X156931761Y-73897761D01*
X156836523Y-73945380D01*
X156741285Y-73945380D01*
X156407952Y-73945380D02*
X156407952Y-72945380D01*
X155979380Y-73945380D02*
X155979380Y-73421571D01*
X156027000Y-73326333D01*
X156122238Y-73278714D01*
X156265095Y-73278714D01*
X156360333Y-73326333D01*
X156407952Y-73373952D01*
X155074619Y-73278714D02*
X155074619Y-73945380D01*
X155503190Y-73278714D02*
X155503190Y-73802523D01*
X155455571Y-73897761D01*
X155360333Y-73945380D01*
X155217476Y-73945380D01*
X155122238Y-73897761D01*
X155074619Y-73850142D01*
X154598428Y-73945380D02*
X154598428Y-72945380D01*
X154598428Y-73326333D02*
X154503190Y-73278714D01*
X154312714Y-73278714D01*
X154217476Y-73326333D01*
X154169857Y-73373952D01*
X154122238Y-73469190D01*
X154122238Y-73754904D01*
X154169857Y-73850142D01*
X154217476Y-73897761D01*
X154312714Y-73945380D01*
X154503190Y-73945380D01*
X154598428Y-73897761D01*
X153693666Y-73850142D02*
X153646047Y-73897761D01*
X153693666Y-73945380D01*
X153741285Y-73897761D01*
X153693666Y-73850142D01*
X153693666Y-73945380D01*
X152788904Y-73897761D02*
X152884142Y-73945380D01*
X153074619Y-73945380D01*
X153169857Y-73897761D01*
X153217476Y-73850142D01*
X153265095Y-73754904D01*
X153265095Y-73469190D01*
X153217476Y-73373952D01*
X153169857Y-73326333D01*
X153074619Y-73278714D01*
X152884142Y-73278714D01*
X152788904Y-73326333D01*
X152217476Y-73945380D02*
X152312714Y-73897761D01*
X152360333Y-73850142D01*
X152407952Y-73754904D01*
X152407952Y-73469190D01*
X152360333Y-73373952D01*
X152312714Y-73326333D01*
X152217476Y-73278714D01*
X152074619Y-73278714D01*
X151979380Y-73326333D01*
X151931761Y-73373952D01*
X151884142Y-73469190D01*
X151884142Y-73754904D01*
X151931761Y-73850142D01*
X151979380Y-73897761D01*
X152074619Y-73945380D01*
X152217476Y-73945380D01*
X151455571Y-73945380D02*
X151455571Y-73278714D01*
X151455571Y-73373952D02*
X151407952Y-73326333D01*
X151312714Y-73278714D01*
X151169857Y-73278714D01*
X151074619Y-73326333D01*
X151027000Y-73421571D01*
X151027000Y-73945380D01*
X151027000Y-73421571D02*
X150979380Y-73326333D01*
X150884142Y-73278714D01*
X150741285Y-73278714D01*
X150646047Y-73326333D01*
X150598428Y-73421571D01*
X150598428Y-73945380D01*
X149407952Y-72897761D02*
X150265095Y-74183476D01*
X149217476Y-73278714D02*
X148836523Y-73278714D01*
X149074619Y-72945380D02*
X149074619Y-73802523D01*
X149027000Y-73897761D01*
X148931761Y-73945380D01*
X148836523Y-73945380D01*
X148122238Y-73897761D02*
X148217476Y-73945380D01*
X148407952Y-73945380D01*
X148503190Y-73897761D01*
X148550809Y-73802523D01*
X148550809Y-73421571D01*
X148503190Y-73326333D01*
X148407952Y-73278714D01*
X148217476Y-73278714D01*
X148122238Y-73326333D01*
X148074619Y-73421571D01*
X148074619Y-73516809D01*
X148550809Y-73612047D01*
X147646047Y-73945380D02*
X147646047Y-72945380D01*
X147646047Y-73326333D02*
X147550809Y-73278714D01*
X147360333Y-73278714D01*
X147265095Y-73326333D01*
X147217476Y-73373952D01*
X147169857Y-73469190D01*
X147169857Y-73754904D01*
X147217476Y-73850142D01*
X147265095Y-73897761D01*
X147360333Y-73945380D01*
X147550809Y-73945380D01*
X147646047Y-73897761D01*
X146598428Y-73945380D02*
X146693666Y-73897761D01*
X146741285Y-73802523D01*
X146741285Y-72945380D01*
D11*
X191000000Y-61000000D02*
X191000000Y-66000000D01*
X196000000Y-61000000D02*
X191000000Y-61000000D01*
X196000000Y-66000000D02*
X196000000Y-61000000D01*
X191000000Y-66000000D02*
X196000000Y-66000000D01*
D12*
G36*
X155700000Y-87300000D02*
G01*
X157800000Y-87900000D01*
X159500000Y-88800000D01*
X161300000Y-90100000D01*
X162400000Y-91300000D01*
X163100000Y-92100000D01*
X163800000Y-93200000D01*
X164200000Y-94000000D01*
X147100000Y-88500000D01*
X148400000Y-87900000D01*
X150300000Y-87300000D01*
X152000000Y-87000000D01*
X153600000Y-87000000D01*
X155700000Y-87300000D01*
G37*
X155700000Y-87300000D02*
X157800000Y-87900000D01*
X159500000Y-88800000D01*
X161300000Y-90100000D01*
X162400000Y-91300000D01*
X163100000Y-92100000D01*
X163800000Y-93200000D01*
X164200000Y-94000000D01*
X147100000Y-88500000D01*
X148400000Y-87900000D01*
X150300000Y-87300000D01*
X152000000Y-87000000D01*
X153600000Y-87000000D01*
X155700000Y-87300000D01*
G36*
X150500000Y-98700000D02*
G01*
X150400000Y-99100000D01*
X150500000Y-99400000D01*
X150615185Y-99711237D01*
X150800000Y-100000000D01*
X147600000Y-100000000D01*
X147953637Y-98530233D01*
X148000000Y-98200000D01*
X150800000Y-98200000D01*
X150500000Y-98700000D01*
G37*
X150500000Y-98700000D02*
X150400000Y-99100000D01*
X150500000Y-99400000D01*
X150615185Y-99711237D01*
X150800000Y-100000000D01*
X147600000Y-100000000D01*
X147953637Y-98530233D01*
X148000000Y-98200000D01*
X150800000Y-98200000D01*
X150500000Y-98700000D01*
G36*
X164200000Y-94000000D02*
G01*
X165100000Y-96300000D01*
X165500000Y-98900000D01*
X165300000Y-101700000D01*
X164800000Y-103700000D01*
X146530132Y-103842824D01*
X146700000Y-103200000D01*
X147200000Y-101400000D01*
X147600000Y-100000000D01*
X150800000Y-100000000D01*
X151615185Y-101443288D01*
X151900000Y-101800000D01*
X152300000Y-102000000D01*
X152800000Y-102100000D01*
X153100000Y-102000000D01*
X153500000Y-101800000D01*
X155200000Y-100800000D01*
X155400000Y-100600000D01*
X155600000Y-100300000D01*
X155700000Y-99800000D01*
X155600000Y-99400000D01*
X155300000Y-98800000D01*
X154400000Y-97300000D01*
X154100000Y-97000000D01*
X153500000Y-96800000D01*
X153000000Y-96900000D01*
X150800000Y-98200000D01*
X148000000Y-98200000D01*
X147900000Y-97700000D01*
X147800000Y-97500000D01*
X147500000Y-97200000D01*
X147069753Y-96999301D01*
X147100000Y-88500000D01*
X164200000Y-94000000D01*
G37*
X164200000Y-94000000D02*
X165100000Y-96300000D01*
X165500000Y-98900000D01*
X165300000Y-101700000D01*
X164800000Y-103700000D01*
X146530132Y-103842824D01*
X146700000Y-103200000D01*
X147200000Y-101400000D01*
X147600000Y-100000000D01*
X150800000Y-100000000D01*
X151615185Y-101443288D01*
X151900000Y-101800000D01*
X152300000Y-102000000D01*
X152800000Y-102100000D01*
X153100000Y-102000000D01*
X153500000Y-101800000D01*
X155200000Y-100800000D01*
X155400000Y-100600000D01*
X155600000Y-100300000D01*
X155700000Y-99800000D01*
X155600000Y-99400000D01*
X155300000Y-98800000D01*
X154400000Y-97300000D01*
X154100000Y-97000000D01*
X153500000Y-96800000D01*
X153000000Y-96900000D01*
X150800000Y-98200000D01*
X148000000Y-98200000D01*
X147900000Y-97700000D01*
X147800000Y-97500000D01*
X147500000Y-97200000D01*
X147069753Y-96999301D01*
X147100000Y-88500000D01*
X164200000Y-94000000D01*
G36*
X143200000Y-98900000D02*
G01*
X142312875Y-102195177D01*
X142200000Y-102700000D01*
X142500000Y-103600000D01*
X142800000Y-103900000D01*
X143200000Y-104200000D01*
X143800000Y-104400000D01*
X144900000Y-104700000D01*
X145300000Y-104800000D01*
X145800000Y-104700000D01*
X146100000Y-104500000D01*
X146400000Y-104200000D01*
X146530132Y-103842824D01*
X164800000Y-103700000D01*
X163800000Y-105700000D01*
X162600000Y-107500000D01*
X161400000Y-108700000D01*
X160000000Y-109900000D01*
X158500000Y-110700000D01*
X157400000Y-111200000D01*
X155700000Y-111700000D01*
X154400000Y-111900000D01*
X152800000Y-112000000D01*
X151200000Y-111900000D01*
X149700000Y-111600000D01*
X148100000Y-111000000D01*
X146700000Y-110300000D01*
X145100000Y-109200000D01*
X143700000Y-107900000D01*
X142700000Y-106600000D01*
X141800000Y-105100000D01*
X141200000Y-103600000D01*
X140700000Y-102000000D01*
X140500000Y-100600000D01*
X140500000Y-98900000D01*
X140700000Y-97400000D01*
X143600000Y-97400000D01*
X143200000Y-98900000D01*
G37*
X143200000Y-98900000D02*
X142312875Y-102195177D01*
X142200000Y-102700000D01*
X142500000Y-103600000D01*
X142800000Y-103900000D01*
X143200000Y-104200000D01*
X143800000Y-104400000D01*
X144900000Y-104700000D01*
X145300000Y-104800000D01*
X145800000Y-104700000D01*
X146100000Y-104500000D01*
X146400000Y-104200000D01*
X146530132Y-103842824D01*
X164800000Y-103700000D01*
X163800000Y-105700000D01*
X162600000Y-107500000D01*
X161400000Y-108700000D01*
X160000000Y-109900000D01*
X158500000Y-110700000D01*
X157400000Y-111200000D01*
X155700000Y-111700000D01*
X154400000Y-111900000D01*
X152800000Y-112000000D01*
X151200000Y-111900000D01*
X149700000Y-111600000D01*
X148100000Y-111000000D01*
X146700000Y-110300000D01*
X145100000Y-109200000D01*
X143700000Y-107900000D01*
X142700000Y-106600000D01*
X141800000Y-105100000D01*
X141200000Y-103600000D01*
X140700000Y-102000000D01*
X140500000Y-100600000D01*
X140500000Y-98900000D01*
X140700000Y-97400000D01*
X143600000Y-97400000D01*
X143200000Y-98900000D01*
G36*
X147069753Y-96999301D02*
G01*
X145300000Y-96500000D01*
X144800000Y-96400000D01*
X144200000Y-96600000D01*
X143800000Y-96900000D01*
X143606970Y-97365549D01*
X143600000Y-97400000D01*
X140700000Y-97400000D01*
X141200000Y-95400000D01*
X141900000Y-93800000D01*
X142900000Y-92200000D01*
X143600000Y-91300000D01*
X145800000Y-89300000D01*
X147100000Y-88500000D01*
X147069753Y-96999301D01*
G37*
X147069753Y-96999301D02*
X145300000Y-96500000D01*
X144800000Y-96400000D01*
X144200000Y-96600000D01*
X143800000Y-96900000D01*
X143606970Y-97365549D01*
X143600000Y-97400000D01*
X140700000Y-97400000D01*
X141200000Y-95400000D01*
X141900000Y-93800000D01*
X142900000Y-92200000D01*
X143600000Y-91300000D01*
X145800000Y-89300000D01*
X147100000Y-88500000D01*
X147069753Y-96999301D01*
G36*
X176000000Y-117600000D02*
G01*
X176400000Y-118000000D01*
X176500000Y-118500000D01*
X176500000Y-144500000D01*
X171500000Y-144500000D01*
X171500000Y-146000000D01*
X148500000Y-146000000D01*
X148500000Y-120000000D01*
X148700000Y-117500000D01*
X175500000Y-117500000D01*
X176000000Y-117600000D01*
G37*
X176000000Y-117600000D02*
X176400000Y-118000000D01*
X176500000Y-118500000D01*
X176500000Y-144500000D01*
X171500000Y-144500000D01*
X171500000Y-146000000D01*
X148500000Y-146000000D01*
X148500000Y-120000000D01*
X148700000Y-117500000D01*
X175500000Y-117500000D01*
X176000000Y-117600000D01*
G36*
X148700000Y-120000000D02*
G01*
X148500000Y-120000000D01*
X148500000Y-119800000D01*
X148300000Y-119600000D01*
X148000000Y-119500000D01*
X136800000Y-119500000D01*
X136600000Y-119700000D01*
X136500000Y-120000000D01*
X136500000Y-144100000D01*
X136700000Y-144400000D01*
X137000000Y-144500000D01*
X140500000Y-144500000D01*
X140500000Y-146000000D01*
X144500000Y-146000000D01*
X144500000Y-144500000D01*
X148200000Y-144500000D01*
X148400000Y-144300000D01*
X148500000Y-144000000D01*
X148500000Y-146000000D01*
X175000000Y-146000000D01*
X175000000Y-144500000D01*
X176500000Y-144500000D01*
X176500000Y-149000000D01*
X129500000Y-149000000D01*
X129500000Y-118300000D01*
X129600000Y-118100000D01*
X129800000Y-117800000D01*
X130100000Y-117600000D01*
X130500000Y-117500000D01*
X148700000Y-117500000D01*
X148700000Y-120000000D01*
G37*
X148700000Y-120000000D02*
X148500000Y-120000000D01*
X148500000Y-119800000D01*
X148300000Y-119600000D01*
X148000000Y-119500000D01*
X136800000Y-119500000D01*
X136600000Y-119700000D01*
X136500000Y-120000000D01*
X136500000Y-144100000D01*
X136700000Y-144400000D01*
X137000000Y-144500000D01*
X140500000Y-144500000D01*
X140500000Y-146000000D01*
X144500000Y-146000000D01*
X144500000Y-144500000D01*
X148200000Y-144500000D01*
X148400000Y-144300000D01*
X148500000Y-144000000D01*
X148500000Y-146000000D01*
X175000000Y-146000000D01*
X175000000Y-144500000D01*
X176500000Y-144500000D01*
X176500000Y-149000000D01*
X129500000Y-149000000D01*
X129500000Y-118300000D01*
X129600000Y-118100000D01*
X129800000Y-117800000D01*
X130100000Y-117600000D01*
X130500000Y-117500000D01*
X148700000Y-117500000D01*
X148700000Y-120000000D01*
D11*
X143606970Y-97365548D02*
X142312875Y-102195177D01*
X143550312Y-104338481D02*
X144999201Y-104726709D01*
X143550312Y-104338480D02*
G75*
G02*
X142312875Y-102195177I452933J1690370D01*
G01*
X146530132Y-103842824D02*
G75*
G02*
X144999201Y-104726709I-1207408J323523D01*
G01*
X147069753Y-96999302D02*
X145137901Y-96481664D01*
X146530132Y-103842825D02*
X147953637Y-98530233D01*
X147069753Y-96999301D02*
G75*
G02*
X147953637Y-98530233I-323524J-1207408D01*
G01*
X143606970Y-97365549D02*
G75*
G02*
X145137901Y-96481664I1207408J-323523D01*
G01*
X155512299Y-99193288D02*
G75*
G02*
X155054767Y-100900820I-1082532J-625000D01*
G01*
X153322716Y-101900819D02*
G75*
G02*
X151615185Y-101443288I-625000J1082531D01*
G01*
X150615184Y-99711237D02*
G75*
G02*
X151072716Y-98003705I1082532J625000D01*
G01*
X152804767Y-97003705D02*
G75*
G02*
X154512299Y-97461237I625000J-1082532D01*
G01*
X152804767Y-97003705D02*
X151072716Y-98003705D01*
X155512299Y-99193288D02*
X154512299Y-97461237D01*
X153322716Y-101900820D02*
X155054767Y-100900820D01*
X150615185Y-99711237D02*
X151615185Y-101443288D01*
D13*
X165500000Y-99500000D02*
G75*
G03*
X165500000Y-99500000I-12500000J0D01*
G01*
X166500000Y-100000000D02*
G75*
G03*
X166500000Y-100000000I-13500000J0D01*
G01*
D11*
X194500000Y-56500000D02*
X192500000Y-56500000D01*
X192000000Y-57000000D02*
X190500000Y-57000000D01*
X192500000Y-56500000D02*
X192000000Y-57000000D01*
X195000000Y-57000000D02*
X196500000Y-57000000D01*
X194500000Y-56500000D02*
X195000000Y-57000000D01*
X196500000Y-66500000D02*
X190500000Y-66500000D01*
X196500000Y-57000000D02*
X196500000Y-66500000D01*
X190500000Y-66500000D02*
X190500000Y-57000000D01*
D14*
X183500000Y-148000000D02*
X184000000Y-148500000D01*
X182500000Y-148000000D02*
X183500000Y-148000000D01*
X182500000Y-147500000D02*
X182500000Y-148000000D01*
X176500000Y-147500000D02*
X182500000Y-147500000D01*
D13*
X113000000Y-134000000D02*
X112000000Y-134000000D01*
X113000000Y-130000000D02*
X112000000Y-130000000D01*
X113000000Y-130000000D02*
G75*
G02*
X113000000Y-134000000I0J-2000000D01*
G01*
X112000000Y-134000000D02*
G75*
G02*
X112000000Y-130000000I0J2000000D01*
G01*
X195500000Y-132000000D02*
G75*
G03*
X195500000Y-132000000I-2000000J0D01*
G01*
X110500000Y-140000000D02*
G75*
G02*
X108000000Y-142500000I-2500000J0D01*
G01*
X108000000Y-137500000D02*
G75*
G02*
X110500000Y-140000000I0J-2500000D01*
G01*
X198000000Y-142500000D02*
G75*
G02*
X195500000Y-140000000I0J2500000D01*
G01*
X195500000Y-140000000D02*
G75*
G02*
X198000000Y-137500000I2500000J0D01*
G01*
D14*
X188000000Y-145000000D02*
X176500000Y-145000000D01*
X188000000Y-146000000D02*
X188000000Y-145000000D01*
X176500000Y-146000000D02*
X188000000Y-146000000D01*
D11*
X171500000Y-144500000D02*
X175000000Y-144500000D01*
X171500000Y-146000000D02*
X171500000Y-144500000D01*
X175000000Y-146000000D02*
X171500000Y-146000000D01*
X175000000Y-144500000D02*
X175000000Y-146000000D01*
D14*
X148000000Y-144500000D02*
X144500000Y-144500000D01*
X137000000Y-119500000D02*
X148000000Y-119500000D01*
X148500000Y-120000000D02*
X148500000Y-144000000D01*
X148000000Y-119500000D02*
G75*
G02*
X148500000Y-120000000I0J-500000D01*
G01*
X136500000Y-120000000D02*
X136500000Y-144000000D01*
X137000000Y-144500000D02*
G75*
G02*
X136500000Y-144000000I0J500000D01*
G01*
X137000000Y-144500000D02*
X140500000Y-144500000D01*
X136500000Y-120000000D02*
G75*
G02*
X137000000Y-119500000I500000J0D01*
G01*
X148500000Y-144000000D02*
G75*
G02*
X148000000Y-144500000I-500000J0D01*
G01*
X140500000Y-144500000D02*
X140500000Y-146000000D01*
X144500000Y-144500000D02*
X144500000Y-146000000D01*
X140500000Y-146000000D02*
X144500000Y-146000000D01*
X129500000Y-118500000D02*
G75*
G02*
X130500000Y-117500000I1000000J0D01*
G01*
X175500000Y-117500000D02*
G75*
G02*
X176500000Y-118500000I0J-1000000D01*
G01*
X129500000Y-118500000D02*
X129500000Y-149000000D01*
X176500000Y-118500000D02*
X176500000Y-149000000D01*
X130500000Y-117500000D02*
X175500000Y-117500000D01*
X130500000Y-117000000D02*
X187500000Y-117000000D01*
X129000000Y-118500000D02*
X129000000Y-149000000D01*
X187500000Y-117000000D02*
G75*
G02*
X189000000Y-118500000I0J-1500000D01*
G01*
X189000000Y-118500000D02*
X189000000Y-149000000D01*
X129000000Y-118500000D02*
G75*
G02*
X130500000Y-117000000I1500000J0D01*
G01*
D13*
X189000000Y-55000000D02*
X189000000Y-67500000D01*
X117000000Y-55000000D02*
X117000000Y-67500000D01*
X118500000Y-69000000D02*
G75*
G02*
X117000000Y-67500000I0J1500000D01*
G01*
X189000000Y-67500000D02*
G75*
G02*
X187500000Y-69000000I-1500000J0D01*
G01*
X187500000Y-69000000D02*
X118500000Y-69000000D01*
D15*
G36*
X152061036Y-75446576D02*
G01*
X151985487Y-75847322D01*
X151427959Y-76077154D01*
X151093535Y-75849748D01*
X150999878Y-75786431D01*
X150915218Y-75729896D01*
X150843505Y-75682727D01*
X150788689Y-75647502D01*
X150754720Y-75626805D01*
X150745470Y-75622342D01*
X150728805Y-75633820D01*
X150693194Y-75665551D01*
X150642629Y-75713483D01*
X150581100Y-75773562D01*
X150512601Y-75841733D01*
X150441121Y-75913945D01*
X150370653Y-75986142D01*
X150305189Y-76054273D01*
X150248720Y-76114283D01*
X150205237Y-76162119D01*
X150178732Y-76193727D01*
X150172395Y-76204305D01*
X150181514Y-76223806D01*
X150207080Y-76266531D01*
X150246403Y-76328298D01*
X150296797Y-76404931D01*
X150355573Y-76492248D01*
X150389632Y-76542052D01*
X150451711Y-76632993D01*
X150506874Y-76715059D01*
X150552446Y-76784163D01*
X150585750Y-76836222D01*
X150604110Y-76867150D01*
X150606869Y-76873650D01*
X150600615Y-76892121D01*
X150583566Y-76935172D01*
X150558297Y-76996749D01*
X150527378Y-77070799D01*
X150493382Y-77151270D01*
X150458882Y-77232107D01*
X150426449Y-77307258D01*
X150398657Y-77370671D01*
X150378077Y-77416293D01*
X150367281Y-77438069D01*
X150366644Y-77438926D01*
X150349693Y-77443084D01*
X150304549Y-77452361D01*
X150235890Y-77465844D01*
X150148398Y-77482621D01*
X150046750Y-77501781D01*
X149987444Y-77512830D01*
X149878828Y-77533510D01*
X149780723Y-77553189D01*
X149698091Y-77570789D01*
X149635896Y-77585233D01*
X149599101Y-77595446D01*
X149591704Y-77598686D01*
X149584460Y-77620617D01*
X149578615Y-77670147D01*
X149574165Y-77741485D01*
X149571107Y-77828839D01*
X149569435Y-77926417D01*
X149569147Y-78028426D01*
X149570239Y-78129075D01*
X149572706Y-78222572D01*
X149576544Y-78303125D01*
X149581750Y-78364942D01*
X149588319Y-78402230D01*
X149592259Y-78409993D01*
X149615812Y-78419298D01*
X149665718Y-78432600D01*
X149735377Y-78448337D01*
X149818187Y-78464946D01*
X149847095Y-78470319D01*
X149986469Y-78495848D01*
X150096564Y-78516408D01*
X150181018Y-78532815D01*
X150243470Y-78545887D01*
X150287556Y-78556441D01*
X150316915Y-78565294D01*
X150335185Y-78573263D01*
X150346002Y-78581165D01*
X150347515Y-78582727D01*
X150362623Y-78607886D01*
X150385671Y-78656850D01*
X150414356Y-78723621D01*
X150446378Y-78802205D01*
X150479435Y-78886607D01*
X150511227Y-78970830D01*
X150539451Y-79048879D01*
X150561807Y-79114759D01*
X150575993Y-79162473D01*
X150579707Y-79186027D01*
X150579398Y-79186852D01*
X150566811Y-79206104D01*
X150538256Y-79248463D01*
X150496733Y-79309521D01*
X150445244Y-79384868D01*
X150386789Y-79470096D01*
X150370142Y-79494315D01*
X150310785Y-79582123D01*
X150258553Y-79662238D01*
X150216292Y-79730062D01*
X150186847Y-79780993D01*
X150173063Y-79810431D01*
X150172395Y-79814048D01*
X150183976Y-79833057D01*
X150215976Y-79870714D01*
X150264282Y-79922973D01*
X150324780Y-79985786D01*
X150393356Y-80055106D01*
X150465896Y-80126885D01*
X150538288Y-80197077D01*
X150606416Y-80261635D01*
X150666168Y-80316510D01*
X150713429Y-80357656D01*
X150744087Y-80381026D01*
X150752568Y-80384842D01*
X150772309Y-80375855D01*
X150812726Y-80351616D01*
X150867237Y-80316209D01*
X150909177Y-80287711D01*
X150985171Y-80235418D01*
X151075166Y-80173845D01*
X151165436Y-80112370D01*
X151213968Y-80079469D01*
X151378238Y-79968359D01*
X151516131Y-80042916D01*
X151578951Y-80075578D01*
X151632371Y-80100966D01*
X151668516Y-80115446D01*
X151677716Y-80117460D01*
X151688779Y-80102584D01*
X151710606Y-80060547D01*
X151741566Y-79995227D01*
X151780030Y-79910500D01*
X151824368Y-79810245D01*
X151872953Y-79698339D01*
X151924154Y-79578659D01*
X151976341Y-79455084D01*
X152027887Y-79331491D01*
X152077160Y-79211757D01*
X152122533Y-79099759D01*
X152162375Y-78999377D01*
X152195058Y-78914486D01*
X152218951Y-78848965D01*
X152232426Y-78806690D01*
X152234594Y-78792172D01*
X152217417Y-78773653D01*
X152179810Y-78743590D01*
X152129634Y-78708232D01*
X152125422Y-78705434D01*
X151995736Y-78601625D01*
X151891166Y-78480515D01*
X151812619Y-78345976D01*
X151761001Y-78201882D01*
X151737218Y-78052105D01*
X151742177Y-77900517D01*
X151776783Y-77750992D01*
X151841943Y-77607400D01*
X151861114Y-77575984D01*
X151960826Y-77449125D01*
X152078623Y-77347255D01*
X152210429Y-77270904D01*
X152352167Y-77220602D01*
X152499758Y-77196879D01*
X152649127Y-77200265D01*
X152796197Y-77231288D01*
X152936889Y-77290480D01*
X153067127Y-77378369D01*
X153107414Y-77414042D01*
X153209945Y-77525706D01*
X153284659Y-77643257D01*
X153335910Y-77775020D01*
X153364454Y-77905507D01*
X153371500Y-78052216D01*
X153348004Y-78199653D01*
X153296351Y-78342834D01*
X153218929Y-78476777D01*
X153118125Y-78596498D01*
X152996324Y-78697014D01*
X152980316Y-78707609D01*
X152929602Y-78742306D01*
X152891050Y-78772370D01*
X152872619Y-78791565D01*
X152872351Y-78792172D01*
X152876308Y-78812936D01*
X152891993Y-78860062D01*
X152917778Y-78929673D01*
X152952031Y-79017893D01*
X152993123Y-79120844D01*
X153039424Y-79234650D01*
X153089304Y-79355435D01*
X153141133Y-79479321D01*
X153193281Y-79602432D01*
X153244118Y-79720891D01*
X153292013Y-79830823D01*
X153335338Y-79928349D01*
X153372462Y-80009593D01*
X153401756Y-80070679D01*
X153421588Y-80107730D01*
X153429574Y-80117460D01*
X153453979Y-80109883D01*
X153499642Y-80089560D01*
X153558690Y-80060125D01*
X153591160Y-80042916D01*
X153729053Y-79968359D01*
X153893323Y-80079469D01*
X153977179Y-80136390D01*
X154068987Y-80199030D01*
X154155020Y-80258011D01*
X154198113Y-80287711D01*
X154258723Y-80328410D01*
X154310045Y-80360663D01*
X154345385Y-80380384D01*
X154356863Y-80384554D01*
X154373570Y-80373307D01*
X154410546Y-80341911D01*
X154464205Y-80293624D01*
X154530962Y-80231708D01*
X154607234Y-80159421D01*
X154655473Y-80113008D01*
X154739867Y-80030087D01*
X154812803Y-79955920D01*
X154871331Y-79893680D01*
X154912503Y-79846541D01*
X154933372Y-79817673D01*
X154935374Y-79811815D01*
X154926083Y-79789532D01*
X154900409Y-79744477D01*
X154861200Y-79681211D01*
X154811303Y-79604295D01*
X154753567Y-79518292D01*
X154737149Y-79494315D01*
X154677323Y-79407170D01*
X154623650Y-79328710D01*
X154579130Y-79263345D01*
X154546765Y-79215484D01*
X154529555Y-79189535D01*
X154527893Y-79186852D01*
X154530379Y-79166172D01*
X154543577Y-79120704D01*
X154565186Y-79056444D01*
X154592904Y-78979387D01*
X154624430Y-78895529D01*
X154657463Y-78810866D01*
X154689701Y-78731392D01*
X154718843Y-78663104D01*
X154742588Y-78611997D01*
X154758635Y-78584067D01*
X154759775Y-78582727D01*
X154769588Y-78574745D01*
X154786161Y-78566851D01*
X154813132Y-78558229D01*
X154854139Y-78548062D01*
X154912820Y-78535531D01*
X154992813Y-78519821D01*
X155097755Y-78500113D01*
X155231285Y-78475592D01*
X155260196Y-78470319D01*
X155345882Y-78453764D01*
X155420582Y-78437569D01*
X155477694Y-78423296D01*
X155510617Y-78412508D01*
X155515031Y-78409993D01*
X155522306Y-78387696D01*
X155528219Y-78337869D01*
X155532766Y-78266304D01*
X155535945Y-78178793D01*
X155537749Y-78081128D01*
X155538177Y-77979101D01*
X155537223Y-77878503D01*
X155534884Y-77785127D01*
X155531156Y-77704765D01*
X155526034Y-77643209D01*
X155519516Y-77606250D01*
X155515586Y-77598686D01*
X155493708Y-77591056D01*
X155443891Y-77578642D01*
X155371097Y-77562522D01*
X155280289Y-77543773D01*
X155176431Y-77523471D01*
X155119846Y-77512830D01*
X155012486Y-77492760D01*
X154916746Y-77474580D01*
X154837306Y-77459199D01*
X154778846Y-77447531D01*
X154746045Y-77440488D01*
X154740646Y-77438926D01*
X154731522Y-77421322D01*
X154712235Y-77378918D01*
X154685355Y-77317772D01*
X154653454Y-77243943D01*
X154619102Y-77163489D01*
X154584871Y-77082468D01*
X154553331Y-77006937D01*
X154527054Y-76942955D01*
X154508611Y-76896580D01*
X154500571Y-76873869D01*
X154500422Y-76872876D01*
X154509535Y-76854961D01*
X154535086Y-76813733D01*
X154574388Y-76753291D01*
X154624757Y-76677731D01*
X154683506Y-76591152D01*
X154717658Y-76541421D01*
X154779890Y-76450236D01*
X154835164Y-76367449D01*
X154880782Y-76297249D01*
X154914048Y-76243824D01*
X154932264Y-76211361D01*
X154934895Y-76204083D01*
X154923586Y-76187145D01*
X154892319Y-76150978D01*
X154845090Y-76099635D01*
X154785892Y-76037167D01*
X154718719Y-75967626D01*
X154647566Y-75895065D01*
X154576426Y-75823535D01*
X154509293Y-75757087D01*
X154450161Y-75699774D01*
X154403025Y-75655647D01*
X154371877Y-75628759D01*
X154361457Y-75622342D01*
X154344491Y-75631365D01*
X154303911Y-75656715D01*
X154243663Y-75695810D01*
X154167693Y-75746071D01*
X154079946Y-75804917D01*
X154013756Y-75849748D01*
X153679332Y-76077154D01*
X153400567Y-75962238D01*
X153121803Y-75847322D01*
X153046254Y-75446576D01*
X152970706Y-75045829D01*
X152136585Y-75045829D01*
X152061036Y-75446576D01*
G37*
X152061036Y-75446576D02*
X151985487Y-75847322D01*
X151427959Y-76077154D01*
X151093535Y-75849748D01*
X150999878Y-75786431D01*
X150915218Y-75729896D01*
X150843505Y-75682727D01*
X150788689Y-75647502D01*
X150754720Y-75626805D01*
X150745470Y-75622342D01*
X150728805Y-75633820D01*
X150693194Y-75665551D01*
X150642629Y-75713483D01*
X150581100Y-75773562D01*
X150512601Y-75841733D01*
X150441121Y-75913945D01*
X150370653Y-75986142D01*
X150305189Y-76054273D01*
X150248720Y-76114283D01*
X150205237Y-76162119D01*
X150178732Y-76193727D01*
X150172395Y-76204305D01*
X150181514Y-76223806D01*
X150207080Y-76266531D01*
X150246403Y-76328298D01*
X150296797Y-76404931D01*
X150355573Y-76492248D01*
X150389632Y-76542052D01*
X150451711Y-76632993D01*
X150506874Y-76715059D01*
X150552446Y-76784163D01*
X150585750Y-76836222D01*
X150604110Y-76867150D01*
X150606869Y-76873650D01*
X150600615Y-76892121D01*
X150583566Y-76935172D01*
X150558297Y-76996749D01*
X150527378Y-77070799D01*
X150493382Y-77151270D01*
X150458882Y-77232107D01*
X150426449Y-77307258D01*
X150398657Y-77370671D01*
X150378077Y-77416293D01*
X150367281Y-77438069D01*
X150366644Y-77438926D01*
X150349693Y-77443084D01*
X150304549Y-77452361D01*
X150235890Y-77465844D01*
X150148398Y-77482621D01*
X150046750Y-77501781D01*
X149987444Y-77512830D01*
X149878828Y-77533510D01*
X149780723Y-77553189D01*
X149698091Y-77570789D01*
X149635896Y-77585233D01*
X149599101Y-77595446D01*
X149591704Y-77598686D01*
X149584460Y-77620617D01*
X149578615Y-77670147D01*
X149574165Y-77741485D01*
X149571107Y-77828839D01*
X149569435Y-77926417D01*
X149569147Y-78028426D01*
X149570239Y-78129075D01*
X149572706Y-78222572D01*
X149576544Y-78303125D01*
X149581750Y-78364942D01*
X149588319Y-78402230D01*
X149592259Y-78409993D01*
X149615812Y-78419298D01*
X149665718Y-78432600D01*
X149735377Y-78448337D01*
X149818187Y-78464946D01*
X149847095Y-78470319D01*
X149986469Y-78495848D01*
X150096564Y-78516408D01*
X150181018Y-78532815D01*
X150243470Y-78545887D01*
X150287556Y-78556441D01*
X150316915Y-78565294D01*
X150335185Y-78573263D01*
X150346002Y-78581165D01*
X150347515Y-78582727D01*
X150362623Y-78607886D01*
X150385671Y-78656850D01*
X150414356Y-78723621D01*
X150446378Y-78802205D01*
X150479435Y-78886607D01*
X150511227Y-78970830D01*
X150539451Y-79048879D01*
X150561807Y-79114759D01*
X150575993Y-79162473D01*
X150579707Y-79186027D01*
X150579398Y-79186852D01*
X150566811Y-79206104D01*
X150538256Y-79248463D01*
X150496733Y-79309521D01*
X150445244Y-79384868D01*
X150386789Y-79470096D01*
X150370142Y-79494315D01*
X150310785Y-79582123D01*
X150258553Y-79662238D01*
X150216292Y-79730062D01*
X150186847Y-79780993D01*
X150173063Y-79810431D01*
X150172395Y-79814048D01*
X150183976Y-79833057D01*
X150215976Y-79870714D01*
X150264282Y-79922973D01*
X150324780Y-79985786D01*
X150393356Y-80055106D01*
X150465896Y-80126885D01*
X150538288Y-80197077D01*
X150606416Y-80261635D01*
X150666168Y-80316510D01*
X150713429Y-80357656D01*
X150744087Y-80381026D01*
X150752568Y-80384842D01*
X150772309Y-80375855D01*
X150812726Y-80351616D01*
X150867237Y-80316209D01*
X150909177Y-80287711D01*
X150985171Y-80235418D01*
X151075166Y-80173845D01*
X151165436Y-80112370D01*
X151213968Y-80079469D01*
X151378238Y-79968359D01*
X151516131Y-80042916D01*
X151578951Y-80075578D01*
X151632371Y-80100966D01*
X151668516Y-80115446D01*
X151677716Y-80117460D01*
X151688779Y-80102584D01*
X151710606Y-80060547D01*
X151741566Y-79995227D01*
X151780030Y-79910500D01*
X151824368Y-79810245D01*
X151872953Y-79698339D01*
X151924154Y-79578659D01*
X151976341Y-79455084D01*
X152027887Y-79331491D01*
X152077160Y-79211757D01*
X152122533Y-79099759D01*
X152162375Y-78999377D01*
X152195058Y-78914486D01*
X152218951Y-78848965D01*
X152232426Y-78806690D01*
X152234594Y-78792172D01*
X152217417Y-78773653D01*
X152179810Y-78743590D01*
X152129634Y-78708232D01*
X152125422Y-78705434D01*
X151995736Y-78601625D01*
X151891166Y-78480515D01*
X151812619Y-78345976D01*
X151761001Y-78201882D01*
X151737218Y-78052105D01*
X151742177Y-77900517D01*
X151776783Y-77750992D01*
X151841943Y-77607400D01*
X151861114Y-77575984D01*
X151960826Y-77449125D01*
X152078623Y-77347255D01*
X152210429Y-77270904D01*
X152352167Y-77220602D01*
X152499758Y-77196879D01*
X152649127Y-77200265D01*
X152796197Y-77231288D01*
X152936889Y-77290480D01*
X153067127Y-77378369D01*
X153107414Y-77414042D01*
X153209945Y-77525706D01*
X153284659Y-77643257D01*
X153335910Y-77775020D01*
X153364454Y-77905507D01*
X153371500Y-78052216D01*
X153348004Y-78199653D01*
X153296351Y-78342834D01*
X153218929Y-78476777D01*
X153118125Y-78596498D01*
X152996324Y-78697014D01*
X152980316Y-78707609D01*
X152929602Y-78742306D01*
X152891050Y-78772370D01*
X152872619Y-78791565D01*
X152872351Y-78792172D01*
X152876308Y-78812936D01*
X152891993Y-78860062D01*
X152917778Y-78929673D01*
X152952031Y-79017893D01*
X152993123Y-79120844D01*
X153039424Y-79234650D01*
X153089304Y-79355435D01*
X153141133Y-79479321D01*
X153193281Y-79602432D01*
X153244118Y-79720891D01*
X153292013Y-79830823D01*
X153335338Y-79928349D01*
X153372462Y-80009593D01*
X153401756Y-80070679D01*
X153421588Y-80107730D01*
X153429574Y-80117460D01*
X153453979Y-80109883D01*
X153499642Y-80089560D01*
X153558690Y-80060125D01*
X153591160Y-80042916D01*
X153729053Y-79968359D01*
X153893323Y-80079469D01*
X153977179Y-80136390D01*
X154068987Y-80199030D01*
X154155020Y-80258011D01*
X154198113Y-80287711D01*
X154258723Y-80328410D01*
X154310045Y-80360663D01*
X154345385Y-80380384D01*
X154356863Y-80384554D01*
X154373570Y-80373307D01*
X154410546Y-80341911D01*
X154464205Y-80293624D01*
X154530962Y-80231708D01*
X154607234Y-80159421D01*
X154655473Y-80113008D01*
X154739867Y-80030087D01*
X154812803Y-79955920D01*
X154871331Y-79893680D01*
X154912503Y-79846541D01*
X154933372Y-79817673D01*
X154935374Y-79811815D01*
X154926083Y-79789532D01*
X154900409Y-79744477D01*
X154861200Y-79681211D01*
X154811303Y-79604295D01*
X154753567Y-79518292D01*
X154737149Y-79494315D01*
X154677323Y-79407170D01*
X154623650Y-79328710D01*
X154579130Y-79263345D01*
X154546765Y-79215484D01*
X154529555Y-79189535D01*
X154527893Y-79186852D01*
X154530379Y-79166172D01*
X154543577Y-79120704D01*
X154565186Y-79056444D01*
X154592904Y-78979387D01*
X154624430Y-78895529D01*
X154657463Y-78810866D01*
X154689701Y-78731392D01*
X154718843Y-78663104D01*
X154742588Y-78611997D01*
X154758635Y-78584067D01*
X154759775Y-78582727D01*
X154769588Y-78574745D01*
X154786161Y-78566851D01*
X154813132Y-78558229D01*
X154854139Y-78548062D01*
X154912820Y-78535531D01*
X154992813Y-78519821D01*
X155097755Y-78500113D01*
X155231285Y-78475592D01*
X155260196Y-78470319D01*
X155345882Y-78453764D01*
X155420582Y-78437569D01*
X155477694Y-78423296D01*
X155510617Y-78412508D01*
X155515031Y-78409993D01*
X155522306Y-78387696D01*
X155528219Y-78337869D01*
X155532766Y-78266304D01*
X155535945Y-78178793D01*
X155537749Y-78081128D01*
X155538177Y-77979101D01*
X155537223Y-77878503D01*
X155534884Y-77785127D01*
X155531156Y-77704765D01*
X155526034Y-77643209D01*
X155519516Y-77606250D01*
X155515586Y-77598686D01*
X155493708Y-77591056D01*
X155443891Y-77578642D01*
X155371097Y-77562522D01*
X155280289Y-77543773D01*
X155176431Y-77523471D01*
X155119846Y-77512830D01*
X155012486Y-77492760D01*
X154916746Y-77474580D01*
X154837306Y-77459199D01*
X154778846Y-77447531D01*
X154746045Y-77440488D01*
X154740646Y-77438926D01*
X154731522Y-77421322D01*
X154712235Y-77378918D01*
X154685355Y-77317772D01*
X154653454Y-77243943D01*
X154619102Y-77163489D01*
X154584871Y-77082468D01*
X154553331Y-77006937D01*
X154527054Y-76942955D01*
X154508611Y-76896580D01*
X154500571Y-76873869D01*
X154500422Y-76872876D01*
X154509535Y-76854961D01*
X154535086Y-76813733D01*
X154574388Y-76753291D01*
X154624757Y-76677731D01*
X154683506Y-76591152D01*
X154717658Y-76541421D01*
X154779890Y-76450236D01*
X154835164Y-76367449D01*
X154880782Y-76297249D01*
X154914048Y-76243824D01*
X154932264Y-76211361D01*
X154934895Y-76204083D01*
X154923586Y-76187145D01*
X154892319Y-76150978D01*
X154845090Y-76099635D01*
X154785892Y-76037167D01*
X154718719Y-75967626D01*
X154647566Y-75895065D01*
X154576426Y-75823535D01*
X154509293Y-75757087D01*
X154450161Y-75699774D01*
X154403025Y-75655647D01*
X154371877Y-75628759D01*
X154361457Y-75622342D01*
X154344491Y-75631365D01*
X154303911Y-75656715D01*
X154243663Y-75695810D01*
X154167693Y-75746071D01*
X154079946Y-75804917D01*
X154013756Y-75849748D01*
X153679332Y-76077154D01*
X153400567Y-75962238D01*
X153121803Y-75847322D01*
X153046254Y-75446576D01*
X152970706Y-75045829D01*
X152136585Y-75045829D01*
X152061036Y-75446576D01*
G36*
X150170612Y-80985645D02*
G01*
X150113135Y-81003206D01*
X150076128Y-81025395D01*
X150064073Y-81042942D01*
X150067391Y-81063742D01*
X150088921Y-81096419D01*
X150107126Y-81119562D01*
X150144656Y-81161402D01*
X150172852Y-81179005D01*
X150196889Y-81177856D01*
X150268192Y-81159710D01*
X150320558Y-81160534D01*
X150363082Y-81181098D01*
X150377358Y-81193134D01*
X150423053Y-81235483D01*
X150423053Y-81788526D01*
X150606869Y-81788526D01*
X150606869Y-80986421D01*
X150514961Y-80986421D01*
X150459781Y-80988603D01*
X150431312Y-80996351D01*
X150423057Y-81011468D01*
X150423053Y-81011916D01*
X150419155Y-81027749D01*
X150401526Y-81025684D01*
X150377099Y-81014261D01*
X150326650Y-80993005D01*
X150285684Y-80980216D01*
X150232972Y-80976938D01*
X150170612Y-80985645D01*
G37*
X150170612Y-80985645D02*
X150113135Y-81003206D01*
X150076128Y-81025395D01*
X150064073Y-81042942D01*
X150067391Y-81063742D01*
X150088921Y-81096419D01*
X150107126Y-81119562D01*
X150144656Y-81161402D01*
X150172852Y-81179005D01*
X150196889Y-81177856D01*
X150268192Y-81159710D01*
X150320558Y-81160534D01*
X150363082Y-81181098D01*
X150377358Y-81193134D01*
X150423053Y-81235483D01*
X150423053Y-81788526D01*
X150606869Y-81788526D01*
X150606869Y-80986421D01*
X150514961Y-80986421D01*
X150459781Y-80988603D01*
X150431312Y-80996351D01*
X150423057Y-81011468D01*
X150423053Y-81011916D01*
X150419155Y-81027749D01*
X150401526Y-81025684D01*
X150377099Y-81014261D01*
X150326650Y-80993005D01*
X150285684Y-80980216D01*
X150232972Y-80976938D01*
X150170612Y-80985645D01*
G36*
X153564043Y-81000226D02*
G01*
X153522454Y-81020090D01*
X153482175Y-81048784D01*
X153451490Y-81081809D01*
X153429139Y-81123931D01*
X153413864Y-81179915D01*
X153404408Y-81254528D01*
X153399513Y-81352535D01*
X153397919Y-81478702D01*
X153397894Y-81491914D01*
X153397527Y-81788526D01*
X153581343Y-81788526D01*
X153581343Y-81515081D01*
X153581473Y-81413777D01*
X153582379Y-81340353D01*
X153584827Y-81289271D01*
X153589586Y-81254990D01*
X153597426Y-81231971D01*
X153609115Y-81214673D01*
X153625398Y-81197581D01*
X153682366Y-81160857D01*
X153744555Y-81154042D01*
X153803801Y-81177261D01*
X153824405Y-81194543D01*
X153839530Y-81210791D01*
X153850390Y-81228191D01*
X153857690Y-81252212D01*
X153862137Y-81288322D01*
X153864436Y-81341988D01*
X153865296Y-81418680D01*
X153865422Y-81512043D01*
X153865422Y-81788526D01*
X154049237Y-81788526D01*
X154049237Y-80986421D01*
X153957329Y-80986421D01*
X153902149Y-80988603D01*
X153873680Y-80996351D01*
X153865425Y-81011468D01*
X153865422Y-81011916D01*
X153861592Y-81026720D01*
X153844699Y-81025040D01*
X153811112Y-81008773D01*
X153734937Y-80984840D01*
X153647800Y-80982178D01*
X153564043Y-81000226D01*
G37*
X153564043Y-81000226D02*
X153522454Y-81020090D01*
X153482175Y-81048784D01*
X153451490Y-81081809D01*
X153429139Y-81123931D01*
X153413864Y-81179915D01*
X153404408Y-81254528D01*
X153399513Y-81352535D01*
X153397919Y-81478702D01*
X153397894Y-81491914D01*
X153397527Y-81788526D01*
X153581343Y-81788526D01*
X153581343Y-81515081D01*
X153581473Y-81413777D01*
X153582379Y-81340353D01*
X153584827Y-81289271D01*
X153589586Y-81254990D01*
X153597426Y-81231971D01*
X153609115Y-81214673D01*
X153625398Y-81197581D01*
X153682366Y-81160857D01*
X153744555Y-81154042D01*
X153803801Y-81177261D01*
X153824405Y-81194543D01*
X153839530Y-81210791D01*
X153850390Y-81228191D01*
X153857690Y-81252212D01*
X153862137Y-81288322D01*
X153864436Y-81341988D01*
X153865296Y-81418680D01*
X153865422Y-81512043D01*
X153865422Y-81788526D01*
X154049237Y-81788526D01*
X154049237Y-80986421D01*
X153957329Y-80986421D01*
X153902149Y-80988603D01*
X153873680Y-80996351D01*
X153865425Y-81011468D01*
X153865422Y-81011916D01*
X153861592Y-81026720D01*
X153844699Y-81025040D01*
X153811112Y-81008773D01*
X153734937Y-80984840D01*
X153647800Y-80982178D01*
X153564043Y-81000226D01*
G36*
X149003216Y-80983554D02*
G01*
X148960426Y-80993949D01*
X148878391Y-81032013D01*
X148808243Y-81090149D01*
X148759695Y-81159852D01*
X148753025Y-81175502D01*
X148743876Y-81216496D01*
X148737471Y-81277138D01*
X148735290Y-81338430D01*
X148735290Y-81454316D01*
X148977593Y-81454316D01*
X149077529Y-81454693D01*
X149147931Y-81456987D01*
X149192687Y-81462938D01*
X149215685Y-81474285D01*
X149220811Y-81492771D01*
X149211952Y-81520136D01*
X149196083Y-81552155D01*
X149151816Y-81605592D01*
X149090301Y-81632215D01*
X149015115Y-81631347D01*
X148929947Y-81602371D01*
X148856341Y-81566611D01*
X148795266Y-81614904D01*
X148734190Y-81663197D01*
X148791649Y-81716285D01*
X148868359Y-81766445D01*
X148962698Y-81796688D01*
X149064173Y-81805151D01*
X149162289Y-81789974D01*
X149178119Y-81784824D01*
X149264353Y-81739791D01*
X149328499Y-81672652D01*
X149371909Y-81581405D01*
X149395936Y-81464044D01*
X149396216Y-81461529D01*
X149398367Y-81333627D01*
X149389671Y-81287997D01*
X149219895Y-81287997D01*
X149204303Y-81295013D01*
X149161971Y-81300388D01*
X149099566Y-81303457D01*
X149060019Y-81303921D01*
X148986272Y-81303630D01*
X148940160Y-81301783D01*
X148915900Y-81296912D01*
X148907706Y-81287555D01*
X148909794Y-81272245D01*
X148911545Y-81266322D01*
X148941440Y-81210668D01*
X148988458Y-81165815D01*
X149029951Y-81146105D01*
X149085074Y-81147295D01*
X149140932Y-81171875D01*
X149187788Y-81212570D01*
X149215906Y-81262108D01*
X149219895Y-81287997D01*
X149389671Y-81287997D01*
X149376926Y-81221133D01*
X149334389Y-81126727D01*
X149273253Y-81053088D01*
X149196015Y-81002893D01*
X149105170Y-80978822D01*
X149003216Y-80983554D01*
G37*
X149003216Y-80983554D02*
X148960426Y-80993949D01*
X148878391Y-81032013D01*
X148808243Y-81090149D01*
X148759695Y-81159852D01*
X148753025Y-81175502D01*
X148743876Y-81216496D01*
X148737471Y-81277138D01*
X148735290Y-81338430D01*
X148735290Y-81454316D01*
X148977593Y-81454316D01*
X149077529Y-81454693D01*
X149147931Y-81456987D01*
X149192687Y-81462938D01*
X149215685Y-81474285D01*
X149220811Y-81492771D01*
X149211952Y-81520136D01*
X149196083Y-81552155D01*
X149151816Y-81605592D01*
X149090301Y-81632215D01*
X149015115Y-81631347D01*
X148929947Y-81602371D01*
X148856341Y-81566611D01*
X148795266Y-81614904D01*
X148734190Y-81663197D01*
X148791649Y-81716285D01*
X148868359Y-81766445D01*
X148962698Y-81796688D01*
X149064173Y-81805151D01*
X149162289Y-81789974D01*
X149178119Y-81784824D01*
X149264353Y-81739791D01*
X149328499Y-81672652D01*
X149371909Y-81581405D01*
X149395936Y-81464044D01*
X149396216Y-81461529D01*
X149398367Y-81333627D01*
X149389671Y-81287997D01*
X149219895Y-81287997D01*
X149204303Y-81295013D01*
X149161971Y-81300388D01*
X149099566Y-81303457D01*
X149060019Y-81303921D01*
X148986272Y-81303630D01*
X148940160Y-81301783D01*
X148915900Y-81296912D01*
X148907706Y-81287555D01*
X148909794Y-81272245D01*
X148911545Y-81266322D01*
X148941440Y-81210668D01*
X148988458Y-81165815D01*
X149029951Y-81146105D01*
X149085074Y-81147295D01*
X149140932Y-81171875D01*
X149187788Y-81212570D01*
X149215906Y-81262108D01*
X149219895Y-81287997D01*
X149389671Y-81287997D01*
X149376926Y-81221133D01*
X149334389Y-81126727D01*
X149273253Y-81053088D01*
X149196015Y-81002893D01*
X149105170Y-80978822D01*
X149003216Y-80983554D01*
G36*
X149615424Y-80993419D02*
G01*
X149518605Y-81034549D01*
X149488110Y-81054571D01*
X149449135Y-81085340D01*
X149424669Y-81109533D01*
X149420422Y-81117413D01*
X149432416Y-81134899D01*
X149463113Y-81164570D01*
X149487688Y-81185279D01*
X149554954Y-81239336D01*
X149608070Y-81194642D01*
X149649116Y-81165789D01*
X149689137Y-81155829D01*
X149734941Y-81158261D01*
X149807676Y-81176345D01*
X149857744Y-81213881D01*
X149888171Y-81274562D01*
X149901983Y-81362081D01*
X149901987Y-81362136D01*
X149900792Y-81459958D01*
X149882228Y-81531730D01*
X149845196Y-81580595D01*
X149819950Y-81597143D01*
X149752903Y-81617749D01*
X149681291Y-81617762D01*
X149618985Y-81597768D01*
X149604237Y-81588000D01*
X149567250Y-81563047D01*
X149538332Y-81558958D01*
X149507144Y-81577530D01*
X149472664Y-81610887D01*
X149418088Y-81667196D01*
X149478682Y-81717142D01*
X149572302Y-81773513D01*
X149677875Y-81801293D01*
X149788202Y-81799282D01*
X149860657Y-81780862D01*
X149945344Y-81735310D01*
X150013073Y-81663650D01*
X150043843Y-81613066D01*
X150068764Y-81540488D01*
X150081234Y-81448569D01*
X150081330Y-81348948D01*
X150069130Y-81253267D01*
X150044710Y-81173169D01*
X150040864Y-81164956D01*
X149983907Y-81084413D01*
X149906791Y-81025771D01*
X149815610Y-80990247D01*
X149716457Y-80979057D01*
X149615424Y-80993419D01*
G37*
X149615424Y-80993419D02*
X149518605Y-81034549D01*
X149488110Y-81054571D01*
X149449135Y-81085340D01*
X149424669Y-81109533D01*
X149420422Y-81117413D01*
X149432416Y-81134899D01*
X149463113Y-81164570D01*
X149487688Y-81185279D01*
X149554954Y-81239336D01*
X149608070Y-81194642D01*
X149649116Y-81165789D01*
X149689137Y-81155829D01*
X149734941Y-81158261D01*
X149807676Y-81176345D01*
X149857744Y-81213881D01*
X149888171Y-81274562D01*
X149901983Y-81362081D01*
X149901987Y-81362136D01*
X149900792Y-81459958D01*
X149882228Y-81531730D01*
X149845196Y-81580595D01*
X149819950Y-81597143D01*
X149752903Y-81617749D01*
X149681291Y-81617762D01*
X149618985Y-81597768D01*
X149604237Y-81588000D01*
X149567250Y-81563047D01*
X149538332Y-81558958D01*
X149507144Y-81577530D01*
X149472664Y-81610887D01*
X149418088Y-81667196D01*
X149478682Y-81717142D01*
X149572302Y-81773513D01*
X149677875Y-81801293D01*
X149788202Y-81799282D01*
X149860657Y-81780862D01*
X149945344Y-81735310D01*
X150013073Y-81663650D01*
X150043843Y-81613066D01*
X150068764Y-81540488D01*
X150081234Y-81448569D01*
X150081330Y-81348948D01*
X150069130Y-81253267D01*
X150044710Y-81173169D01*
X150040864Y-81164956D01*
X149983907Y-81084413D01*
X149906791Y-81025771D01*
X149815610Y-80990247D01*
X149716457Y-80979057D01*
X149615424Y-80993419D01*
G36*
X151241869Y-81246533D02*
G01*
X151240290Y-81369089D01*
X151234519Y-81462179D01*
X151223009Y-81529651D01*
X151204210Y-81575355D01*
X151176574Y-81603139D01*
X151138552Y-81616854D01*
X151091474Y-81620358D01*
X151042168Y-81616432D01*
X151004717Y-81602089D01*
X150977572Y-81573478D01*
X150959185Y-81526751D01*
X150948007Y-81458058D01*
X150942489Y-81363550D01*
X150941079Y-81246533D01*
X150941079Y-80986421D01*
X150757264Y-80986421D01*
X150757264Y-81788526D01*
X150849172Y-81788526D01*
X150904578Y-81786281D01*
X150933109Y-81778396D01*
X150941079Y-81763428D01*
X150945880Y-81750097D01*
X150964986Y-81752917D01*
X151003496Y-81771783D01*
X151091761Y-81800887D01*
X151185377Y-81798825D01*
X151275079Y-81767221D01*
X151317796Y-81742257D01*
X151350379Y-81715226D01*
X151374183Y-81681405D01*
X151390561Y-81636068D01*
X151400869Y-81574489D01*
X151406459Y-81491943D01*
X151408688Y-81383705D01*
X151408974Y-81300004D01*
X151408974Y-80986421D01*
X151241869Y-80986421D01*
X151241869Y-81246533D01*
G37*
X151241869Y-81246533D02*
X151240290Y-81369089D01*
X151234519Y-81462179D01*
X151223009Y-81529651D01*
X151204210Y-81575355D01*
X151176574Y-81603139D01*
X151138552Y-81616854D01*
X151091474Y-81620358D01*
X151042168Y-81616432D01*
X151004717Y-81602089D01*
X150977572Y-81573478D01*
X150959185Y-81526751D01*
X150948007Y-81458058D01*
X150942489Y-81363550D01*
X150941079Y-81246533D01*
X150941079Y-80986421D01*
X150757264Y-80986421D01*
X150757264Y-81788526D01*
X150849172Y-81788526D01*
X150904578Y-81786281D01*
X150933109Y-81778396D01*
X150941079Y-81763428D01*
X150945880Y-81750097D01*
X150964986Y-81752917D01*
X151003496Y-81771783D01*
X151091761Y-81800887D01*
X151185377Y-81798825D01*
X151275079Y-81767221D01*
X151317796Y-81742257D01*
X151350379Y-81715226D01*
X151374183Y-81681405D01*
X151390561Y-81636068D01*
X151400869Y-81574489D01*
X151406459Y-81491943D01*
X151408688Y-81383705D01*
X151408974Y-81300004D01*
X151408974Y-80986421D01*
X151241869Y-80986421D01*
X151241869Y-81246533D01*
G36*
X151750331Y-80996310D02*
G01*
X151665808Y-81042340D01*
X151599679Y-81115006D01*
X151568522Y-81174106D01*
X151555145Y-81226305D01*
X151546478Y-81300719D01*
X151542763Y-81386442D01*
X151544246Y-81472569D01*
X151551169Y-81548193D01*
X151559255Y-81588584D01*
X151586535Y-81643840D01*
X151633780Y-81702530D01*
X151690718Y-81753852D01*
X151747076Y-81787005D01*
X151748450Y-81787531D01*
X151818384Y-81802018D01*
X151901263Y-81802377D01*
X151980023Y-81789188D01*
X152010434Y-81778617D01*
X152088761Y-81734201D01*
X152144857Y-81676007D01*
X152181714Y-81598965D01*
X152202320Y-81498001D01*
X152206982Y-81445116D01*
X152206387Y-81378663D01*
X152027264Y-81378663D01*
X152021230Y-81475630D01*
X152003862Y-81549523D01*
X151976260Y-81596736D01*
X151956596Y-81610237D01*
X151906213Y-81619651D01*
X151846327Y-81616864D01*
X151794551Y-81603316D01*
X151780973Y-81595862D01*
X151745151Y-81552451D01*
X151721507Y-81486014D01*
X151711442Y-81405161D01*
X151716358Y-81318502D01*
X151727345Y-81266349D01*
X151758891Y-81205951D01*
X151808689Y-81168197D01*
X151868663Y-81155143D01*
X151930736Y-81168849D01*
X151978418Y-81202372D01*
X152003475Y-81230031D01*
X152018100Y-81257294D01*
X152025071Y-81294190D01*
X152027167Y-81350750D01*
X152027264Y-81378663D01*
X152206387Y-81378663D01*
X152205718Y-81303994D01*
X152182735Y-81188271D01*
X152138028Y-81097941D01*
X152071595Y-81033000D01*
X151983435Y-80993445D01*
X151964505Y-80988858D01*
X151850734Y-80978090D01*
X151750331Y-80996310D01*
G37*
X151750331Y-80996310D02*
X151665808Y-81042340D01*
X151599679Y-81115006D01*
X151568522Y-81174106D01*
X151555145Y-81226305D01*
X151546478Y-81300719D01*
X151542763Y-81386442D01*
X151544246Y-81472569D01*
X151551169Y-81548193D01*
X151559255Y-81588584D01*
X151586535Y-81643840D01*
X151633780Y-81702530D01*
X151690718Y-81753852D01*
X151747076Y-81787005D01*
X151748450Y-81787531D01*
X151818384Y-81802018D01*
X151901263Y-81802377D01*
X151980023Y-81789188D01*
X152010434Y-81778617D01*
X152088761Y-81734201D01*
X152144857Y-81676007D01*
X152181714Y-81598965D01*
X152202320Y-81498001D01*
X152206982Y-81445116D01*
X152206387Y-81378663D01*
X152027264Y-81378663D01*
X152021230Y-81475630D01*
X152003862Y-81549523D01*
X151976260Y-81596736D01*
X151956596Y-81610237D01*
X151906213Y-81619651D01*
X151846327Y-81616864D01*
X151794551Y-81603316D01*
X151780973Y-81595862D01*
X151745151Y-81552451D01*
X151721507Y-81486014D01*
X151711442Y-81405161D01*
X151716358Y-81318502D01*
X151727345Y-81266349D01*
X151758891Y-81205951D01*
X151808689Y-81168197D01*
X151868663Y-81155143D01*
X151930736Y-81168849D01*
X151978418Y-81202372D01*
X152003475Y-81230031D01*
X152018100Y-81257294D01*
X152025071Y-81294190D01*
X152027167Y-81350750D01*
X152027264Y-81378663D01*
X152206387Y-81378663D01*
X152205718Y-81303994D01*
X152182735Y-81188271D01*
X152138028Y-81097941D01*
X152071595Y-81033000D01*
X151983435Y-80993445D01*
X151964505Y-80988858D01*
X151850734Y-80978090D01*
X151750331Y-80996310D01*
G36*
X152543372Y-80983547D02*
G01*
X152480092Y-80995548D01*
X152414443Y-81020648D01*
X152407428Y-81023848D01*
X152357644Y-81050026D01*
X152323166Y-81074353D01*
X152312022Y-81089937D01*
X152322634Y-81115353D01*
X152348412Y-81152853D01*
X152359854Y-81166852D01*
X152407008Y-81221954D01*
X152467799Y-81186086D01*
X152525653Y-81162192D01*
X152592500Y-81149420D01*
X152656606Y-81148613D01*
X152706236Y-81160615D01*
X152718146Y-81168105D01*
X152740828Y-81202450D01*
X152743584Y-81242013D01*
X152726612Y-81272920D01*
X152716573Y-81278913D01*
X152686490Y-81286357D01*
X152633611Y-81295106D01*
X152568425Y-81303467D01*
X152556400Y-81304778D01*
X152451703Y-81322888D01*
X152375768Y-81353651D01*
X152325408Y-81399907D01*
X152297436Y-81464497D01*
X152288722Y-81543387D01*
X152300760Y-81633065D01*
X152339849Y-81703486D01*
X152406145Y-81754777D01*
X152499806Y-81787067D01*
X152603777Y-81799807D01*
X152688562Y-81799654D01*
X152757335Y-81788083D01*
X152804303Y-81772109D01*
X152863650Y-81744275D01*
X152918494Y-81711973D01*
X152937987Y-81697755D01*
X152988119Y-81656835D01*
X152867197Y-81534477D01*
X152798457Y-81579967D01*
X152729512Y-81614133D01*
X152655889Y-81632004D01*
X152585117Y-81633889D01*
X152524726Y-81620101D01*
X152482243Y-81590949D01*
X152468526Y-81566352D01*
X152470583Y-81526904D01*
X152504670Y-81496737D01*
X152570692Y-81475906D01*
X152643026Y-81466279D01*
X152754348Y-81447910D01*
X152837048Y-81413254D01*
X152892235Y-81361297D01*
X152921012Y-81291023D01*
X152924999Y-81207707D01*
X152905307Y-81120681D01*
X152860411Y-81054902D01*
X152789909Y-81010068D01*
X152693399Y-80985879D01*
X152621900Y-80981137D01*
X152543372Y-80983547D01*
G37*
X152543372Y-80983547D02*
X152480092Y-80995548D01*
X152414443Y-81020648D01*
X152407428Y-81023848D01*
X152357644Y-81050026D01*
X152323166Y-81074353D01*
X152312022Y-81089937D01*
X152322634Y-81115353D01*
X152348412Y-81152853D01*
X152359854Y-81166852D01*
X152407008Y-81221954D01*
X152467799Y-81186086D01*
X152525653Y-81162192D01*
X152592500Y-81149420D01*
X152656606Y-81148613D01*
X152706236Y-81160615D01*
X152718146Y-81168105D01*
X152740828Y-81202450D01*
X152743584Y-81242013D01*
X152726612Y-81272920D01*
X152716573Y-81278913D01*
X152686490Y-81286357D01*
X152633611Y-81295106D01*
X152568425Y-81303467D01*
X152556400Y-81304778D01*
X152451703Y-81322888D01*
X152375768Y-81353651D01*
X152325408Y-81399907D01*
X152297436Y-81464497D01*
X152288722Y-81543387D01*
X152300760Y-81633065D01*
X152339849Y-81703486D01*
X152406145Y-81754777D01*
X152499806Y-81787067D01*
X152603777Y-81799807D01*
X152688562Y-81799654D01*
X152757335Y-81788083D01*
X152804303Y-81772109D01*
X152863650Y-81744275D01*
X152918494Y-81711973D01*
X152937987Y-81697755D01*
X152988119Y-81656835D01*
X152867197Y-81534477D01*
X152798457Y-81579967D01*
X152729512Y-81614133D01*
X152655889Y-81632004D01*
X152585117Y-81633889D01*
X152524726Y-81620101D01*
X152482243Y-81590949D01*
X152468526Y-81566352D01*
X152470583Y-81526904D01*
X152504670Y-81496737D01*
X152570692Y-81475906D01*
X152643026Y-81466279D01*
X152754348Y-81447910D01*
X152837048Y-81413254D01*
X152892235Y-81361297D01*
X152921012Y-81291023D01*
X152924999Y-81207707D01*
X152905307Y-81120681D01*
X152860411Y-81054902D01*
X152789909Y-81010068D01*
X152693399Y-80985879D01*
X152621900Y-80981137D01*
X152543372Y-80983547D01*
G36*
X154364982Y-81005027D02*
G01*
X154348330Y-81012866D01*
X154290695Y-81055086D01*
X154236195Y-81116700D01*
X154195501Y-81184543D01*
X154183926Y-81215734D01*
X154173366Y-81271449D01*
X154167069Y-81338781D01*
X154166304Y-81366585D01*
X154166211Y-81454316D01*
X154671150Y-81454316D01*
X154660387Y-81500270D01*
X154633967Y-81554620D01*
X154587778Y-81601591D01*
X154532828Y-81631848D01*
X154497811Y-81638131D01*
X154450323Y-81630506D01*
X154393665Y-81611383D01*
X154374418Y-81602584D01*
X154303241Y-81567036D01*
X154242498Y-81613367D01*
X154207448Y-81644703D01*
X154188798Y-81670567D01*
X154187853Y-81678158D01*
X154204515Y-81696556D01*
X154241030Y-81724515D01*
X154274172Y-81746327D01*
X154363607Y-81785537D01*
X154463871Y-81803285D01*
X154563246Y-81798670D01*
X154642461Y-81774551D01*
X154724120Y-81722884D01*
X154782151Y-81654856D01*
X154818454Y-81566843D01*
X154834928Y-81455216D01*
X154836389Y-81404138D01*
X154830543Y-81287091D01*
X154829825Y-81283686D01*
X154662511Y-81283686D01*
X154657903Y-81294662D01*
X154638964Y-81300715D01*
X154599902Y-81303310D01*
X154534923Y-81303910D01*
X154509903Y-81303921D01*
X154433779Y-81303014D01*
X154385504Y-81299720D01*
X154359540Y-81293181D01*
X154350352Y-81282537D01*
X154350027Y-81279119D01*
X154360513Y-81251956D01*
X154386758Y-81213903D01*
X154398041Y-81200579D01*
X154439928Y-81162896D01*
X154483591Y-81148080D01*
X154507115Y-81146842D01*
X154570757Y-81162329D01*
X154624127Y-81203930D01*
X154657981Y-81264353D01*
X154658581Y-81266322D01*
X154662511Y-81283686D01*
X154829825Y-81283686D01*
X154811101Y-81194928D01*
X154776078Y-81121190D01*
X154733244Y-81068848D01*
X154654052Y-81012092D01*
X154560960Y-80981762D01*
X154461945Y-80979021D01*
X154364982Y-81005027D01*
G37*
X154364982Y-81005027D02*
X154348330Y-81012866D01*
X154290695Y-81055086D01*
X154236195Y-81116700D01*
X154195501Y-81184543D01*
X154183926Y-81215734D01*
X154173366Y-81271449D01*
X154167069Y-81338781D01*
X154166304Y-81366585D01*
X154166211Y-81454316D01*
X154671150Y-81454316D01*
X154660387Y-81500270D01*
X154633967Y-81554620D01*
X154587778Y-81601591D01*
X154532828Y-81631848D01*
X154497811Y-81638131D01*
X154450323Y-81630506D01*
X154393665Y-81611383D01*
X154374418Y-81602584D01*
X154303241Y-81567036D01*
X154242498Y-81613367D01*
X154207448Y-81644703D01*
X154188798Y-81670567D01*
X154187853Y-81678158D01*
X154204515Y-81696556D01*
X154241030Y-81724515D01*
X154274172Y-81746327D01*
X154363607Y-81785537D01*
X154463871Y-81803285D01*
X154563246Y-81798670D01*
X154642461Y-81774551D01*
X154724120Y-81722884D01*
X154782151Y-81654856D01*
X154818454Y-81566843D01*
X154834928Y-81455216D01*
X154836389Y-81404138D01*
X154830543Y-81287091D01*
X154829825Y-81283686D01*
X154662511Y-81283686D01*
X154657903Y-81294662D01*
X154638964Y-81300715D01*
X154599902Y-81303310D01*
X154534923Y-81303910D01*
X154509903Y-81303921D01*
X154433779Y-81303014D01*
X154385504Y-81299720D01*
X154359540Y-81293181D01*
X154350352Y-81282537D01*
X154350027Y-81279119D01*
X154360513Y-81251956D01*
X154386758Y-81213903D01*
X154398041Y-81200579D01*
X154439928Y-81162896D01*
X154483591Y-81148080D01*
X154507115Y-81146842D01*
X154570757Y-81162329D01*
X154624127Y-81203930D01*
X154657981Y-81264353D01*
X154658581Y-81266322D01*
X154662511Y-81283686D01*
X154829825Y-81283686D01*
X154811101Y-81194928D01*
X154776078Y-81121190D01*
X154733244Y-81068848D01*
X154654052Y-81012092D01*
X154560960Y-80981762D01*
X154461945Y-80979021D01*
X154364982Y-81005027D01*
G36*
X155935216Y-80995104D02*
G01*
X155847795Y-81033754D01*
X155781430Y-81098290D01*
X155736024Y-81188812D01*
X155711482Y-81305418D01*
X155709723Y-81323624D01*
X155708344Y-81451984D01*
X155726216Y-81564496D01*
X155762250Y-81655688D01*
X155781545Y-81685022D01*
X155848755Y-81747106D01*
X155934350Y-81787316D01*
X156030110Y-81804003D01*
X156127813Y-81795517D01*
X156202083Y-81769380D01*
X156265953Y-81725335D01*
X156318154Y-81667587D01*
X156319057Y-81666236D01*
X156340256Y-81630593D01*
X156354033Y-81594752D01*
X156362376Y-81549519D01*
X156367273Y-81485701D01*
X156369431Y-81433368D01*
X156370329Y-81385910D01*
X156203257Y-81385910D01*
X156201624Y-81433154D01*
X156195696Y-81496046D01*
X156185239Y-81536407D01*
X156166381Y-81565122D01*
X156148719Y-81581896D01*
X156086106Y-81617016D01*
X156020592Y-81621710D01*
X155959579Y-81596440D01*
X155929072Y-81568124D01*
X155907089Y-81539589D01*
X155894231Y-81512284D01*
X155888588Y-81476750D01*
X155888249Y-81423524D01*
X155889988Y-81374506D01*
X155893729Y-81304482D01*
X155899659Y-81259064D01*
X155910347Y-81229440D01*
X155928361Y-81206797D01*
X155942637Y-81193855D01*
X156002349Y-81159860D01*
X156066766Y-81158165D01*
X156120781Y-81178301D01*
X156166860Y-81220352D01*
X156194311Y-81289428D01*
X156203257Y-81385910D01*
X156370329Y-81385910D01*
X156371401Y-81329299D01*
X156368036Y-81251468D01*
X156357955Y-81192930D01*
X156339774Y-81146737D01*
X156312110Y-81105942D01*
X156301854Y-81093828D01*
X156237722Y-81033474D01*
X156168934Y-80998220D01*
X156084811Y-80983450D01*
X156043791Y-80982243D01*
X155935216Y-80995104D01*
G37*
X155935216Y-80995104D02*
X155847795Y-81033754D01*
X155781430Y-81098290D01*
X155736024Y-81188812D01*
X155711482Y-81305418D01*
X155709723Y-81323624D01*
X155708344Y-81451984D01*
X155726216Y-81564496D01*
X155762250Y-81655688D01*
X155781545Y-81685022D01*
X155848755Y-81747106D01*
X155934350Y-81787316D01*
X156030110Y-81804003D01*
X156127813Y-81795517D01*
X156202083Y-81769380D01*
X156265953Y-81725335D01*
X156318154Y-81667587D01*
X156319057Y-81666236D01*
X156340256Y-81630593D01*
X156354033Y-81594752D01*
X156362376Y-81549519D01*
X156367273Y-81485701D01*
X156369431Y-81433368D01*
X156370329Y-81385910D01*
X156203257Y-81385910D01*
X156201624Y-81433154D01*
X156195696Y-81496046D01*
X156185239Y-81536407D01*
X156166381Y-81565122D01*
X156148719Y-81581896D01*
X156086106Y-81617016D01*
X156020592Y-81621710D01*
X155959579Y-81596440D01*
X155929072Y-81568124D01*
X155907089Y-81539589D01*
X155894231Y-81512284D01*
X155888588Y-81476750D01*
X155888249Y-81423524D01*
X155889988Y-81374506D01*
X155893729Y-81304482D01*
X155899659Y-81259064D01*
X155910347Y-81229440D01*
X155928361Y-81206797D01*
X155942637Y-81193855D01*
X156002349Y-81159860D01*
X156066766Y-81158165D01*
X156120781Y-81178301D01*
X156166860Y-81220352D01*
X156194311Y-81289428D01*
X156203257Y-81385910D01*
X156370329Y-81385910D01*
X156371401Y-81329299D01*
X156368036Y-81251468D01*
X156357955Y-81192930D01*
X156339774Y-81146737D01*
X156312110Y-81105942D01*
X156301854Y-81093828D01*
X156237722Y-81033474D01*
X156168934Y-80998220D01*
X156084811Y-80983450D01*
X156043791Y-80982243D01*
X155935216Y-80995104D01*
G36*
X149860807Y-82244078D02*
G01*
X149780932Y-82264845D01*
X149714038Y-82307705D01*
X149681649Y-82339723D01*
X149628555Y-82415413D01*
X149598127Y-82503216D01*
X149587673Y-82611150D01*
X149587620Y-82619875D01*
X149587527Y-82707605D01*
X150092466Y-82707605D01*
X150081702Y-82753559D01*
X150062268Y-82795178D01*
X150028255Y-82838544D01*
X150021140Y-82845467D01*
X149959997Y-82882935D01*
X149890271Y-82889289D01*
X149810013Y-82864638D01*
X149796408Y-82858000D01*
X149754681Y-82837819D01*
X149726732Y-82826321D01*
X149721855Y-82825258D01*
X149704832Y-82835583D01*
X149672367Y-82860845D01*
X149655886Y-82874650D01*
X149621736Y-82906361D01*
X149610522Y-82927299D01*
X149618305Y-82946560D01*
X149622465Y-82951827D01*
X149650643Y-82974878D01*
X149697138Y-83002892D01*
X149729566Y-83019246D01*
X149821615Y-83048059D01*
X149923524Y-83057395D01*
X150020037Y-83046332D01*
X150047066Y-83038412D01*
X150130724Y-82993581D01*
X150192734Y-82924598D01*
X150233455Y-82830794D01*
X150253245Y-82711498D01*
X150255418Y-82649118D01*
X150249074Y-82558298D01*
X150088843Y-82558298D01*
X150073345Y-82565012D01*
X150031688Y-82570280D01*
X149971124Y-82573389D01*
X149930093Y-82573921D01*
X149856289Y-82573408D01*
X149809707Y-82571006D01*
X149784152Y-82565422D01*
X149773431Y-82555361D01*
X149771343Y-82540763D01*
X149785669Y-82495796D01*
X149821738Y-82451353D01*
X149869185Y-82417242D01*
X149916651Y-82403288D01*
X149981121Y-82415666D01*
X150036930Y-82451452D01*
X150075626Y-82503033D01*
X150088843Y-82558298D01*
X150249074Y-82558298D01*
X150246179Y-82516866D01*
X150217664Y-82411498D01*
X150169271Y-82332178D01*
X150100396Y-82278071D01*
X150010435Y-82248343D01*
X149961700Y-82242618D01*
X149860807Y-82244078D01*
G37*
X149860807Y-82244078D02*
X149780932Y-82264845D01*
X149714038Y-82307705D01*
X149681649Y-82339723D01*
X149628555Y-82415413D01*
X149598127Y-82503216D01*
X149587673Y-82611150D01*
X149587620Y-82619875D01*
X149587527Y-82707605D01*
X150092466Y-82707605D01*
X150081702Y-82753559D01*
X150062268Y-82795178D01*
X150028255Y-82838544D01*
X150021140Y-82845467D01*
X149959997Y-82882935D01*
X149890271Y-82889289D01*
X149810013Y-82864638D01*
X149796408Y-82858000D01*
X149754681Y-82837819D01*
X149726732Y-82826321D01*
X149721855Y-82825258D01*
X149704832Y-82835583D01*
X149672367Y-82860845D01*
X149655886Y-82874650D01*
X149621736Y-82906361D01*
X149610522Y-82927299D01*
X149618305Y-82946560D01*
X149622465Y-82951827D01*
X149650643Y-82974878D01*
X149697138Y-83002892D01*
X149729566Y-83019246D01*
X149821615Y-83048059D01*
X149923524Y-83057395D01*
X150020037Y-83046332D01*
X150047066Y-83038412D01*
X150130724Y-82993581D01*
X150192734Y-82924598D01*
X150233455Y-82830794D01*
X150253245Y-82711498D01*
X150255418Y-82649118D01*
X150249074Y-82558298D01*
X150088843Y-82558298D01*
X150073345Y-82565012D01*
X150031688Y-82570280D01*
X149971124Y-82573389D01*
X149930093Y-82573921D01*
X149856289Y-82573408D01*
X149809707Y-82571006D01*
X149784152Y-82565422D01*
X149773431Y-82555361D01*
X149771343Y-82540763D01*
X149785669Y-82495796D01*
X149821738Y-82451353D01*
X149869185Y-82417242D01*
X149916651Y-82403288D01*
X149981121Y-82415666D01*
X150036930Y-82451452D01*
X150075626Y-82503033D01*
X150088843Y-82558298D01*
X150249074Y-82558298D01*
X150246179Y-82516866D01*
X150217664Y-82411498D01*
X150169271Y-82332178D01*
X150100396Y-82278071D01*
X150010435Y-82248343D01*
X149961700Y-82242618D01*
X149860807Y-82244078D01*
G36*
X150388833Y-82239447D02*
G01*
X150324592Y-82252112D01*
X150288020Y-82270864D01*
X150249547Y-82302017D01*
X150304283Y-82371127D01*
X150338031Y-82412979D01*
X150360947Y-82433398D01*
X150383721Y-82436517D01*
X150417044Y-82426472D01*
X150432686Y-82420789D01*
X150496458Y-82412404D01*
X150554860Y-82430378D01*
X150597736Y-82470982D01*
X150604701Y-82483929D01*
X150612287Y-82518224D01*
X150618141Y-82581427D01*
X150621989Y-82669060D01*
X150623557Y-82776640D01*
X150623579Y-82791944D01*
X150623579Y-83058526D01*
X150807395Y-83058526D01*
X150807395Y-82239710D01*
X150715487Y-82239710D01*
X150662493Y-82241094D01*
X150634885Y-82247252D01*
X150624676Y-82261194D01*
X150623579Y-82274344D01*
X150623579Y-82308978D01*
X150579550Y-82274344D01*
X150529063Y-82250716D01*
X150461240Y-82239033D01*
X150388833Y-82239447D01*
G37*
X150388833Y-82239447D02*
X150324592Y-82252112D01*
X150288020Y-82270864D01*
X150249547Y-82302017D01*
X150304283Y-82371127D01*
X150338031Y-82412979D01*
X150360947Y-82433398D01*
X150383721Y-82436517D01*
X150417044Y-82426472D01*
X150432686Y-82420789D01*
X150496458Y-82412404D01*
X150554860Y-82430378D01*
X150597736Y-82470982D01*
X150604701Y-82483929D01*
X150612287Y-82518224D01*
X150618141Y-82581427D01*
X150621989Y-82669060D01*
X150623557Y-82776640D01*
X150623579Y-82791944D01*
X150623579Y-83058526D01*
X150807395Y-83058526D01*
X150807395Y-82239710D01*
X150715487Y-82239710D01*
X150662493Y-82241094D01*
X150634885Y-82247252D01*
X150624676Y-82261194D01*
X150623579Y-82274344D01*
X150623579Y-82308978D01*
X150579550Y-82274344D01*
X150529063Y-82250716D01*
X150461240Y-82239033D01*
X150388833Y-82239447D01*
G36*
X151182008Y-82244673D02*
G01*
X151111573Y-82261780D01*
X151091213Y-82270844D01*
X151051747Y-82294583D01*
X151021459Y-82321321D01*
X150999048Y-82355699D01*
X150983214Y-82402360D01*
X150972657Y-82465946D01*
X150966076Y-82551099D01*
X150962172Y-82662462D01*
X150960690Y-82736849D01*
X150955235Y-83058526D01*
X151048420Y-83058526D01*
X151104953Y-83056156D01*
X151134078Y-83048055D01*
X151141606Y-83034451D01*
X151145580Y-83019741D01*
X151163348Y-83022554D01*
X151187560Y-83034348D01*
X151248172Y-83052427D01*
X151326071Y-83057299D01*
X151408005Y-83049330D01*
X151480719Y-83028889D01*
X151487241Y-83026051D01*
X151553698Y-82979365D01*
X151597509Y-82914464D01*
X151617668Y-82838600D01*
X151616128Y-82811344D01*
X151451655Y-82811344D01*
X151437163Y-82848024D01*
X151394195Y-82874309D01*
X151324871Y-82888417D01*
X151287823Y-82890290D01*
X151226081Y-82885494D01*
X151185040Y-82866858D01*
X151175027Y-82858000D01*
X151147900Y-82809806D01*
X151141606Y-82766092D01*
X151141606Y-82707605D01*
X151223070Y-82707605D01*
X151317766Y-82712432D01*
X151384187Y-82727613D01*
X151426154Y-82754200D01*
X151435551Y-82766052D01*
X151451655Y-82811344D01*
X151616128Y-82811344D01*
X151613171Y-82759026D01*
X151583015Y-82682995D01*
X151541869Y-82631612D01*
X151516948Y-82609397D01*
X151492552Y-82594798D01*
X151460809Y-82585897D01*
X151413848Y-82580775D01*
X151343796Y-82577515D01*
X151316010Y-82576577D01*
X151141606Y-82570879D01*
X151141862Y-82518091D01*
X151148616Y-82462603D01*
X151173036Y-82429052D01*
X151222370Y-82407618D01*
X151223694Y-82407236D01*
X151293640Y-82398808D01*
X151362086Y-82409816D01*
X151412953Y-82436585D01*
X151433363Y-82449803D01*
X151455346Y-82447974D01*
X151489174Y-82428824D01*
X151509039Y-82415308D01*
X151547894Y-82386432D01*
X151571962Y-82364786D01*
X151575824Y-82358589D01*
X151559921Y-82326519D01*
X151512935Y-82288219D01*
X151492527Y-82275297D01*
X151433857Y-82253041D01*
X151354788Y-82240432D01*
X151266959Y-82237600D01*
X151182008Y-82244673D01*
G37*
X151182008Y-82244673D02*
X151111573Y-82261780D01*
X151091213Y-82270844D01*
X151051747Y-82294583D01*
X151021459Y-82321321D01*
X150999048Y-82355699D01*
X150983214Y-82402360D01*
X150972657Y-82465946D01*
X150966076Y-82551099D01*
X150962172Y-82662462D01*
X150960690Y-82736849D01*
X150955235Y-83058526D01*
X151048420Y-83058526D01*
X151104953Y-83056156D01*
X151134078Y-83048055D01*
X151141606Y-83034451D01*
X151145580Y-83019741D01*
X151163348Y-83022554D01*
X151187560Y-83034348D01*
X151248172Y-83052427D01*
X151326071Y-83057299D01*
X151408005Y-83049330D01*
X151480719Y-83028889D01*
X151487241Y-83026051D01*
X151553698Y-82979365D01*
X151597509Y-82914464D01*
X151617668Y-82838600D01*
X151616128Y-82811344D01*
X151451655Y-82811344D01*
X151437163Y-82848024D01*
X151394195Y-82874309D01*
X151324871Y-82888417D01*
X151287823Y-82890290D01*
X151226081Y-82885494D01*
X151185040Y-82866858D01*
X151175027Y-82858000D01*
X151147900Y-82809806D01*
X151141606Y-82766092D01*
X151141606Y-82707605D01*
X151223070Y-82707605D01*
X151317766Y-82712432D01*
X151384187Y-82727613D01*
X151426154Y-82754200D01*
X151435551Y-82766052D01*
X151451655Y-82811344D01*
X151616128Y-82811344D01*
X151613171Y-82759026D01*
X151583015Y-82682995D01*
X151541869Y-82631612D01*
X151516948Y-82609397D01*
X151492552Y-82594798D01*
X151460809Y-82585897D01*
X151413848Y-82580775D01*
X151343796Y-82577515D01*
X151316010Y-82576577D01*
X151141606Y-82570879D01*
X151141862Y-82518091D01*
X151148616Y-82462603D01*
X151173036Y-82429052D01*
X151222370Y-82407618D01*
X151223694Y-82407236D01*
X151293640Y-82398808D01*
X151362086Y-82409816D01*
X151412953Y-82436585D01*
X151433363Y-82449803D01*
X151455346Y-82447974D01*
X151489174Y-82428824D01*
X151509039Y-82415308D01*
X151547894Y-82386432D01*
X151571962Y-82364786D01*
X151575824Y-82358589D01*
X151559921Y-82326519D01*
X151512935Y-82288219D01*
X151492527Y-82275297D01*
X151433857Y-82253041D01*
X151354788Y-82240432D01*
X151266959Y-82237600D01*
X151182008Y-82244673D01*
G36*
X152187870Y-82243104D02*
G01*
X152121780Y-82248066D01*
X152035374Y-82507079D01*
X151948969Y-82766092D01*
X151921876Y-82674184D01*
X151905572Y-82617384D01*
X151884125Y-82540625D01*
X151860965Y-82456251D01*
X151848720Y-82410993D01*
X151802656Y-82239710D01*
X151612613Y-82239710D01*
X151669418Y-82419349D01*
X151697393Y-82507704D01*
X151731187Y-82614281D01*
X151766480Y-82725454D01*
X151797987Y-82824579D01*
X151869750Y-83050171D01*
X152024714Y-83060253D01*
X152066730Y-82921528D01*
X152092641Y-82835351D01*
X152120917Y-82740347D01*
X152145631Y-82656441D01*
X152146606Y-82653102D01*
X152165065Y-82596248D01*
X152181351Y-82557456D01*
X152192758Y-82542787D01*
X152195102Y-82544483D01*
X152203329Y-82567225D01*
X152218962Y-82615940D01*
X152240096Y-82684502D01*
X152264830Y-82766785D01*
X152278213Y-82812046D01*
X152350689Y-83058526D01*
X152504505Y-83058526D01*
X152627469Y-82670006D01*
X152662012Y-82561022D01*
X152693479Y-82462048D01*
X152720384Y-82377736D01*
X152741241Y-82312734D01*
X152754562Y-82271692D01*
X152758612Y-82259701D01*
X152755406Y-82247423D01*
X152730235Y-82242046D01*
X152677854Y-82242584D01*
X152669655Y-82242990D01*
X152572518Y-82248066D01*
X152508900Y-82482013D01*
X152485516Y-82567333D01*
X152464619Y-82642335D01*
X152448049Y-82700507D01*
X152437646Y-82735337D01*
X152435724Y-82741016D01*
X152427759Y-82734486D01*
X152411696Y-82700654D01*
X152389379Y-82644127D01*
X152362655Y-82569510D01*
X152340063Y-82502107D01*
X152253959Y-82238143D01*
X152187870Y-82243104D01*
G37*
X152187870Y-82243104D02*
X152121780Y-82248066D01*
X152035374Y-82507079D01*
X151948969Y-82766092D01*
X151921876Y-82674184D01*
X151905572Y-82617384D01*
X151884125Y-82540625D01*
X151860965Y-82456251D01*
X151848720Y-82410993D01*
X151802656Y-82239710D01*
X151612613Y-82239710D01*
X151669418Y-82419349D01*
X151697393Y-82507704D01*
X151731187Y-82614281D01*
X151766480Y-82725454D01*
X151797987Y-82824579D01*
X151869750Y-83050171D01*
X152024714Y-83060253D01*
X152066730Y-82921528D01*
X152092641Y-82835351D01*
X152120917Y-82740347D01*
X152145631Y-82656441D01*
X152146606Y-82653102D01*
X152165065Y-82596248D01*
X152181351Y-82557456D01*
X152192758Y-82542787D01*
X152195102Y-82544483D01*
X152203329Y-82567225D01*
X152218962Y-82615940D01*
X152240096Y-82684502D01*
X152264830Y-82766785D01*
X152278213Y-82812046D01*
X152350689Y-83058526D01*
X152504505Y-83058526D01*
X152627469Y-82670006D01*
X152662012Y-82561022D01*
X152693479Y-82462048D01*
X152720384Y-82377736D01*
X152741241Y-82312734D01*
X152754562Y-82271692D01*
X152758612Y-82259701D01*
X152755406Y-82247423D01*
X152730235Y-82242046D01*
X152677854Y-82242584D01*
X152669655Y-82242990D01*
X152572518Y-82248066D01*
X152508900Y-82482013D01*
X152485516Y-82567333D01*
X152464619Y-82642335D01*
X152448049Y-82700507D01*
X152437646Y-82735337D01*
X152435724Y-82741016D01*
X152427759Y-82734486D01*
X152411696Y-82700654D01*
X152389379Y-82644127D01*
X152362655Y-82569510D01*
X152340063Y-82502107D01*
X152253959Y-82238143D01*
X152187870Y-82243104D01*
G36*
X152829369Y-83058526D02*
G01*
X152921277Y-83058526D01*
X152974623Y-83056962D01*
X153002407Y-83050485D01*
X153012410Y-83036418D01*
X153013185Y-83026906D01*
X153014872Y-83007832D01*
X153025510Y-83004174D01*
X153053465Y-83015932D01*
X153075205Y-83026906D01*
X153158668Y-83052911D01*
X153249396Y-83054416D01*
X153323158Y-83035021D01*
X153391846Y-82988165D01*
X153444206Y-82919004D01*
X153472878Y-82837427D01*
X153473608Y-82832866D01*
X153477868Y-82783101D01*
X153479986Y-82711659D01*
X153479816Y-82657626D01*
X153297280Y-82657626D01*
X153293051Y-82729441D01*
X153283432Y-82788634D01*
X153270410Y-82822060D01*
X153221144Y-82867740D01*
X153162650Y-82884115D01*
X153102329Y-82870873D01*
X153050783Y-82831373D01*
X153031262Y-82804807D01*
X153019848Y-82773106D01*
X153014502Y-82726832D01*
X153013185Y-82657328D01*
X153015542Y-82588499D01*
X153021767Y-82528026D01*
X153030592Y-82487556D01*
X153032063Y-82483929D01*
X153067653Y-82440802D01*
X153119600Y-82417124D01*
X153177722Y-82413301D01*
X153231840Y-82429738D01*
X153271774Y-82466840D01*
X153275917Y-82474222D01*
X153288884Y-82519239D01*
X153295948Y-82583967D01*
X153297280Y-82657626D01*
X153479816Y-82657626D01*
X153479729Y-82630230D01*
X153478528Y-82586405D01*
X153470355Y-82477988D01*
X153453370Y-82396588D01*
X153425113Y-82336412D01*
X153383128Y-82291666D01*
X153342368Y-82265400D01*
X153285419Y-82246935D01*
X153214589Y-82240602D01*
X153142059Y-82245760D01*
X153080014Y-82261769D01*
X153047232Y-82280920D01*
X153013185Y-82311732D01*
X153013185Y-81922210D01*
X152829369Y-81922210D01*
X152829369Y-83058526D01*
G37*
X152829369Y-83058526D02*
X152921277Y-83058526D01*
X152974623Y-83056962D01*
X153002407Y-83050485D01*
X153012410Y-83036418D01*
X153013185Y-83026906D01*
X153014872Y-83007832D01*
X153025510Y-83004174D01*
X153053465Y-83015932D01*
X153075205Y-83026906D01*
X153158668Y-83052911D01*
X153249396Y-83054416D01*
X153323158Y-83035021D01*
X153391846Y-82988165D01*
X153444206Y-82919004D01*
X153472878Y-82837427D01*
X153473608Y-82832866D01*
X153477868Y-82783101D01*
X153479986Y-82711659D01*
X153479816Y-82657626D01*
X153297280Y-82657626D01*
X153293051Y-82729441D01*
X153283432Y-82788634D01*
X153270410Y-82822060D01*
X153221144Y-82867740D01*
X153162650Y-82884115D01*
X153102329Y-82870873D01*
X153050783Y-82831373D01*
X153031262Y-82804807D01*
X153019848Y-82773106D01*
X153014502Y-82726832D01*
X153013185Y-82657328D01*
X153015542Y-82588499D01*
X153021767Y-82528026D01*
X153030592Y-82487556D01*
X153032063Y-82483929D01*
X153067653Y-82440802D01*
X153119600Y-82417124D01*
X153177722Y-82413301D01*
X153231840Y-82429738D01*
X153271774Y-82466840D01*
X153275917Y-82474222D01*
X153288884Y-82519239D01*
X153295948Y-82583967D01*
X153297280Y-82657626D01*
X153479816Y-82657626D01*
X153479729Y-82630230D01*
X153478528Y-82586405D01*
X153470355Y-82477988D01*
X153453370Y-82396588D01*
X153425113Y-82336412D01*
X153383128Y-82291666D01*
X153342368Y-82265400D01*
X153285419Y-82246935D01*
X153214589Y-82240602D01*
X153142059Y-82245760D01*
X153080014Y-82261769D01*
X153047232Y-82280920D01*
X153013185Y-82311732D01*
X153013185Y-81922210D01*
X152829369Y-81922210D01*
X152829369Y-83058526D01*
G36*
X153882119Y-82241486D02*
G01*
X153857112Y-82248982D01*
X153849050Y-82265451D01*
X153848711Y-82272886D01*
X153847264Y-82293594D01*
X153837302Y-82296845D01*
X153810388Y-82282648D01*
X153794402Y-82272948D01*
X153743967Y-82252175D01*
X153683728Y-82241904D01*
X153620566Y-82241114D01*
X153561363Y-82248786D01*
X153512998Y-82263898D01*
X153482354Y-82285432D01*
X153476311Y-82312366D01*
X153479361Y-82319660D01*
X153501594Y-82349937D01*
X153536070Y-82387175D01*
X153542306Y-82393195D01*
X153575167Y-82420875D01*
X153603520Y-82429818D01*
X153643173Y-82423576D01*
X153659058Y-82419429D01*
X153708491Y-82409467D01*
X153743248Y-82413947D01*
X153772600Y-82429746D01*
X153799487Y-82450949D01*
X153819290Y-82477614D01*
X153833052Y-82514827D01*
X153841816Y-82567673D01*
X153846626Y-82641237D01*
X153848526Y-82740605D01*
X153848711Y-82800601D01*
X153848711Y-83058526D01*
X154015816Y-83058526D01*
X154015816Y-82239710D01*
X153932264Y-82239710D01*
X153882119Y-82241486D01*
G37*
X153882119Y-82241486D02*
X153857112Y-82248982D01*
X153849050Y-82265451D01*
X153848711Y-82272886D01*
X153847264Y-82293594D01*
X153837302Y-82296845D01*
X153810388Y-82282648D01*
X153794402Y-82272948D01*
X153743967Y-82252175D01*
X153683728Y-82241904D01*
X153620566Y-82241114D01*
X153561363Y-82248786D01*
X153512998Y-82263898D01*
X153482354Y-82285432D01*
X153476311Y-82312366D01*
X153479361Y-82319660D01*
X153501594Y-82349937D01*
X153536070Y-82387175D01*
X153542306Y-82393195D01*
X153575167Y-82420875D01*
X153603520Y-82429818D01*
X153643173Y-82423576D01*
X153659058Y-82419429D01*
X153708491Y-82409467D01*
X153743248Y-82413947D01*
X153772600Y-82429746D01*
X153799487Y-82450949D01*
X153819290Y-82477614D01*
X153833052Y-82514827D01*
X153841816Y-82567673D01*
X153846626Y-82641237D01*
X153848526Y-82740605D01*
X153848711Y-82800601D01*
X153848711Y-83058526D01*
X154015816Y-83058526D01*
X154015816Y-82239710D01*
X153932264Y-82239710D01*
X153882119Y-82241486D01*
G36*
X154401543Y-82246184D02*
G01*
X154322930Y-82267160D01*
X154263084Y-82305180D01*
X154220853Y-82354978D01*
X154207725Y-82376230D01*
X154198032Y-82398492D01*
X154191256Y-82426970D01*
X154186877Y-82466871D01*
X154184376Y-82523401D01*
X154183232Y-82601767D01*
X154182928Y-82707176D01*
X154182922Y-82735142D01*
X154182922Y-83058526D01*
X154263132Y-83058526D01*
X154314294Y-83054943D01*
X154352123Y-83045866D01*
X154361601Y-83040268D01*
X154387512Y-83030606D01*
X154413976Y-83040268D01*
X154457548Y-83052330D01*
X154520840Y-83057185D01*
X154590990Y-83055078D01*
X154655140Y-83046256D01*
X154692593Y-83034937D01*
X154765067Y-82988412D01*
X154810360Y-82923846D01*
X154830722Y-82838000D01*
X154830912Y-82835796D01*
X154829125Y-82797713D01*
X154667527Y-82797713D01*
X154653399Y-82841030D01*
X154630388Y-82865408D01*
X154584196Y-82883845D01*
X154523225Y-82891205D01*
X154461051Y-82887583D01*
X154411249Y-82873074D01*
X154397297Y-82863765D01*
X154372915Y-82820753D01*
X154366737Y-82771857D01*
X154366737Y-82707605D01*
X154459182Y-82707605D01*
X154547005Y-82714366D01*
X154613582Y-82733520D01*
X154654998Y-82763376D01*
X154667527Y-82797713D01*
X154829125Y-82797713D01*
X154826510Y-82742004D01*
X154795576Y-82667847D01*
X154737419Y-82611767D01*
X154729380Y-82606665D01*
X154694837Y-82590055D01*
X154652082Y-82579996D01*
X154592314Y-82575107D01*
X154521310Y-82573983D01*
X154366737Y-82573921D01*
X154366737Y-82509125D01*
X154373294Y-82458850D01*
X154390025Y-82425169D01*
X154391984Y-82423376D01*
X154429217Y-82408642D01*
X154485420Y-82402931D01*
X154547533Y-82405737D01*
X154602490Y-82416556D01*
X154635101Y-82432782D01*
X154652772Y-82445780D01*
X154671431Y-82448262D01*
X154697181Y-82437613D01*
X154736127Y-82411218D01*
X154794370Y-82366465D01*
X154799716Y-82362273D01*
X154796977Y-82346760D01*
X154774124Y-82320960D01*
X154739391Y-82292289D01*
X154701010Y-82268166D01*
X154688952Y-82262470D01*
X154644966Y-82251103D01*
X154580513Y-82242995D01*
X154508503Y-82239743D01*
X154505136Y-82239736D01*
X154401543Y-82246184D01*
G37*
X154401543Y-82246184D02*
X154322930Y-82267160D01*
X154263084Y-82305180D01*
X154220853Y-82354978D01*
X154207725Y-82376230D01*
X154198032Y-82398492D01*
X154191256Y-82426970D01*
X154186877Y-82466871D01*
X154184376Y-82523401D01*
X154183232Y-82601767D01*
X154182928Y-82707176D01*
X154182922Y-82735142D01*
X154182922Y-83058526D01*
X154263132Y-83058526D01*
X154314294Y-83054943D01*
X154352123Y-83045866D01*
X154361601Y-83040268D01*
X154387512Y-83030606D01*
X154413976Y-83040268D01*
X154457548Y-83052330D01*
X154520840Y-83057185D01*
X154590990Y-83055078D01*
X154655140Y-83046256D01*
X154692593Y-83034937D01*
X154765067Y-82988412D01*
X154810360Y-82923846D01*
X154830722Y-82838000D01*
X154830912Y-82835796D01*
X154829125Y-82797713D01*
X154667527Y-82797713D01*
X154653399Y-82841030D01*
X154630388Y-82865408D01*
X154584196Y-82883845D01*
X154523225Y-82891205D01*
X154461051Y-82887583D01*
X154411249Y-82873074D01*
X154397297Y-82863765D01*
X154372915Y-82820753D01*
X154366737Y-82771857D01*
X154366737Y-82707605D01*
X154459182Y-82707605D01*
X154547005Y-82714366D01*
X154613582Y-82733520D01*
X154654998Y-82763376D01*
X154667527Y-82797713D01*
X154829125Y-82797713D01*
X154826510Y-82742004D01*
X154795576Y-82667847D01*
X154737419Y-82611767D01*
X154729380Y-82606665D01*
X154694837Y-82590055D01*
X154652082Y-82579996D01*
X154592314Y-82575107D01*
X154521310Y-82573983D01*
X154366737Y-82573921D01*
X154366737Y-82509125D01*
X154373294Y-82458850D01*
X154390025Y-82425169D01*
X154391984Y-82423376D01*
X154429217Y-82408642D01*
X154485420Y-82402931D01*
X154547533Y-82405737D01*
X154602490Y-82416556D01*
X154635101Y-82432782D01*
X154652772Y-82445780D01*
X154671431Y-82448262D01*
X154697181Y-82437613D01*
X154736127Y-82411218D01*
X154794370Y-82366465D01*
X154799716Y-82362273D01*
X154796977Y-82346760D01*
X154774124Y-82320960D01*
X154739391Y-82292289D01*
X154701010Y-82268166D01*
X154688952Y-82262470D01*
X154644966Y-82251103D01*
X154580513Y-82242995D01*
X154508503Y-82239743D01*
X154505136Y-82239736D01*
X154401543Y-82246184D01*
G36*
X155098640Y-81000468D02*
G01*
X155063408Y-81017874D01*
X155019960Y-81048206D01*
X154988294Y-81081283D01*
X154966606Y-81122817D01*
X154953097Y-81178522D01*
X154945962Y-81254111D01*
X154943400Y-81355296D01*
X154943250Y-81398797D01*
X154943688Y-81494135D01*
X154945504Y-81562271D01*
X154949455Y-81609418D01*
X154956298Y-81641790D01*
X154966789Y-81665600D01*
X154977704Y-81681843D01*
X155047381Y-81750952D01*
X155129434Y-81792521D01*
X155217950Y-81805023D01*
X155307019Y-81786934D01*
X155335237Y-81774142D01*
X155402790Y-81738931D01*
X155402790Y-82290700D01*
X155353488Y-82265205D01*
X155288527Y-82245480D01*
X155208680Y-82240427D01*
X155128948Y-82249756D01*
X155068735Y-82270714D01*
X155018792Y-82310627D01*
X154976119Y-82367741D01*
X154972910Y-82373605D01*
X154959378Y-82401227D01*
X154949495Y-82429068D01*
X154942691Y-82462794D01*
X154938399Y-82508071D01*
X154936049Y-82570562D01*
X154935072Y-82655935D01*
X154934895Y-82752010D01*
X154934895Y-83058526D01*
X155118711Y-83058526D01*
X155118711Y-82493339D01*
X155170125Y-82450077D01*
X155223534Y-82415472D01*
X155274112Y-82409180D01*
X155324970Y-82425372D01*
X155352075Y-82441227D01*
X155372249Y-82463810D01*
X155386597Y-82497940D01*
X155396224Y-82548434D01*
X155402237Y-82620111D01*
X155405740Y-82717788D01*
X155406974Y-82782802D01*
X155411145Y-83050171D01*
X155498875Y-83055222D01*
X155586606Y-83060273D01*
X155586606Y-81401101D01*
X155402790Y-81401101D01*
X155398104Y-81493600D01*
X155382312Y-81557809D01*
X155352817Y-81597759D01*
X155307020Y-81617480D01*
X155260750Y-81621421D01*
X155208372Y-81616892D01*
X155173610Y-81599069D01*
X155151872Y-81575519D01*
X155134760Y-81550189D01*
X155124573Y-81521969D01*
X155120040Y-81482431D01*
X155119891Y-81423142D01*
X155121416Y-81373498D01*
X155124919Y-81298710D01*
X155130133Y-81249611D01*
X155138913Y-81218467D01*
X155153114Y-81197545D01*
X155166516Y-81185452D01*
X155222513Y-81159081D01*
X155288789Y-81154822D01*
X155326844Y-81163906D01*
X155364523Y-81196196D01*
X155389481Y-81259006D01*
X155401578Y-81351894D01*
X155402790Y-81401101D01*
X155586606Y-81401101D01*
X155586606Y-80986421D01*
X155494698Y-80986421D01*
X155439517Y-80988603D01*
X155411048Y-80996351D01*
X155402794Y-81011468D01*
X155402790Y-81011916D01*
X155398960Y-81026720D01*
X155382067Y-81025039D01*
X155348481Y-81008772D01*
X155270222Y-80983887D01*
X155182173Y-80981271D01*
X155098640Y-81000468D01*
G37*
X155098640Y-81000468D02*
X155063408Y-81017874D01*
X155019960Y-81048206D01*
X154988294Y-81081283D01*
X154966606Y-81122817D01*
X154953097Y-81178522D01*
X154945962Y-81254111D01*
X154943400Y-81355296D01*
X154943250Y-81398797D01*
X154943688Y-81494135D01*
X154945504Y-81562271D01*
X154949455Y-81609418D01*
X154956298Y-81641790D01*
X154966789Y-81665600D01*
X154977704Y-81681843D01*
X155047381Y-81750952D01*
X155129434Y-81792521D01*
X155217950Y-81805023D01*
X155307019Y-81786934D01*
X155335237Y-81774142D01*
X155402790Y-81738931D01*
X155402790Y-82290700D01*
X155353488Y-82265205D01*
X155288527Y-82245480D01*
X155208680Y-82240427D01*
X155128948Y-82249756D01*
X155068735Y-82270714D01*
X155018792Y-82310627D01*
X154976119Y-82367741D01*
X154972910Y-82373605D01*
X154959378Y-82401227D01*
X154949495Y-82429068D01*
X154942691Y-82462794D01*
X154938399Y-82508071D01*
X154936049Y-82570562D01*
X154935072Y-82655935D01*
X154934895Y-82752010D01*
X154934895Y-83058526D01*
X155118711Y-83058526D01*
X155118711Y-82493339D01*
X155170125Y-82450077D01*
X155223534Y-82415472D01*
X155274112Y-82409180D01*
X155324970Y-82425372D01*
X155352075Y-82441227D01*
X155372249Y-82463810D01*
X155386597Y-82497940D01*
X155396224Y-82548434D01*
X155402237Y-82620111D01*
X155405740Y-82717788D01*
X155406974Y-82782802D01*
X155411145Y-83050171D01*
X155498875Y-83055222D01*
X155586606Y-83060273D01*
X155586606Y-81401101D01*
X155402790Y-81401101D01*
X155398104Y-81493600D01*
X155382312Y-81557809D01*
X155352817Y-81597759D01*
X155307020Y-81617480D01*
X155260750Y-81621421D01*
X155208372Y-81616892D01*
X155173610Y-81599069D01*
X155151872Y-81575519D01*
X155134760Y-81550189D01*
X155124573Y-81521969D01*
X155120040Y-81482431D01*
X155119891Y-81423142D01*
X155121416Y-81373498D01*
X155124919Y-81298710D01*
X155130133Y-81249611D01*
X155138913Y-81218467D01*
X155153114Y-81197545D01*
X155166516Y-81185452D01*
X155222513Y-81159081D01*
X155288789Y-81154822D01*
X155326844Y-81163906D01*
X155364523Y-81196196D01*
X155389481Y-81259006D01*
X155401578Y-81351894D01*
X155402790Y-81401101D01*
X155586606Y-81401101D01*
X155586606Y-80986421D01*
X155494698Y-80986421D01*
X155439517Y-80988603D01*
X155411048Y-80996351D01*
X155402794Y-81011468D01*
X155402790Y-81011916D01*
X155398960Y-81026720D01*
X155382067Y-81025039D01*
X155348481Y-81008772D01*
X155270222Y-80983887D01*
X155182173Y-80981271D01*
X155098640Y-81000468D01*
M02*
