G04 #@! TF.GenerationSoftware,KiCad,Pcbnew,(5.1.8)-1*
G04 #@! TF.CreationDate,2021-11-10T18:58:50+01:00*
G04 #@! TF.ProjectId,Greaseweazle,47726561-7365-4776-9561-7a6c652e6b69,rev?*
G04 #@! TF.SameCoordinates,Original*
G04 #@! TF.FileFunction,Copper,L1,Top*
G04 #@! TF.FilePolarity,Positive*
%FSLAX46Y46*%
G04 Gerber Fmt 4.6, Leading zero omitted, Abs format (unit mm)*
G04 Created by KiCad (PCBNEW (5.1.8)-1) date 2021-11-10 18:58:50*
%MOMM*%
%LPD*%
G01*
G04 APERTURE LIST*
G04 #@! TA.AperFunction,ComponentPad*
%ADD10C,3.000000*%
G04 #@! TD*
G04 #@! TA.AperFunction,ComponentPad*
%ADD11R,3.000000X3.000000*%
G04 #@! TD*
G04 #@! TA.AperFunction,ComponentPad*
%ADD12C,1.700000*%
G04 #@! TD*
G04 #@! TA.AperFunction,ComponentPad*
%ADD13R,3.500000X3.500000*%
G04 #@! TD*
G04 #@! TA.AperFunction,SMDPad,CuDef*
%ADD14O,2.000000X1.500000*%
G04 #@! TD*
G04 #@! TA.AperFunction,SMDPad,CuDef*
%ADD15R,2.000000X1.500000*%
G04 #@! TD*
G04 #@! TA.AperFunction,ComponentPad*
%ADD16C,3.500000*%
G04 #@! TD*
G04 #@! TA.AperFunction,ComponentPad*
%ADD17R,1.800000X1.800000*%
G04 #@! TD*
G04 #@! TA.AperFunction,ComponentPad*
%ADD18C,1.800000*%
G04 #@! TD*
G04 #@! TA.AperFunction,ComponentPad*
%ADD19O,1.600000X1.600000*%
G04 #@! TD*
G04 #@! TA.AperFunction,ComponentPad*
%ADD20C,1.600000*%
G04 #@! TD*
G04 #@! TA.AperFunction,ComponentPad*
%ADD21R,1.700000X1.700000*%
G04 #@! TD*
G04 #@! TA.AperFunction,ComponentPad*
%ADD22O,1.700000X1.700000*%
G04 #@! TD*
G04 #@! TA.AperFunction,ViaPad*
%ADD23C,0.800000*%
G04 #@! TD*
G04 #@! TA.AperFunction,Conductor*
%ADD24C,0.250000*%
G04 #@! TD*
G04 #@! TA.AperFunction,Conductor*
%ADD25C,0.381000*%
G04 #@! TD*
G04 APERTURE END LIST*
D10*
X175895000Y-63500000D03*
D11*
X172085000Y-59055000D03*
D10*
X172085000Y-63500000D03*
X175895000Y-59055000D03*
G04 #@! TA.AperFunction,ComponentPad*
G36*
G01*
X162595000Y-58840000D02*
X163795000Y-58840000D01*
G75*
G02*
X164045000Y-59090000I0J-250000D01*
G01*
X164045000Y-60290000D01*
G75*
G02*
X163795000Y-60540000I-250000J0D01*
G01*
X162595000Y-60540000D01*
G75*
G02*
X162345000Y-60290000I0J250000D01*
G01*
X162345000Y-59090000D01*
G75*
G02*
X162595000Y-58840000I250000J0D01*
G01*
G37*
G04 #@! TD.AperFunction*
D12*
X160655000Y-59690000D03*
X158115000Y-59690000D03*
X155575000Y-59690000D03*
X153035000Y-59690000D03*
X150495000Y-59690000D03*
X147955000Y-59690000D03*
X145415000Y-59690000D03*
X142875000Y-59690000D03*
X140335000Y-59690000D03*
X137795000Y-59690000D03*
X135255000Y-59690000D03*
X132715000Y-59690000D03*
X130175000Y-59690000D03*
X127635000Y-59690000D03*
X125095000Y-59690000D03*
X122555000Y-59690000D03*
X163195000Y-62230000D03*
X160655000Y-62230000D03*
X158115000Y-62230000D03*
X155575000Y-62230000D03*
X153035000Y-62230000D03*
X150495000Y-62230000D03*
X147955000Y-62230000D03*
X145415000Y-62230000D03*
X142875000Y-62230000D03*
X140335000Y-62230000D03*
X137795000Y-62230000D03*
X135255000Y-62230000D03*
X132715000Y-62230000D03*
X130175000Y-62230000D03*
X127635000Y-62230000D03*
X125095000Y-62230000D03*
X122555000Y-62230000D03*
D13*
X184556400Y-69189600D03*
G04 #@! TA.AperFunction,ComponentPad*
G36*
G01*
X183556400Y-61689600D02*
X185556400Y-61689600D01*
G75*
G02*
X186306400Y-62439600I0J-750000D01*
G01*
X186306400Y-63939600D01*
G75*
G02*
X185556400Y-64689600I-750000J0D01*
G01*
X183556400Y-64689600D01*
G75*
G02*
X182806400Y-63939600I0J750000D01*
G01*
X182806400Y-62439600D01*
G75*
G02*
X183556400Y-61689600I750000J0D01*
G01*
G37*
G04 #@! TD.AperFunction*
G04 #@! TA.AperFunction,ComponentPad*
G36*
G01*
X178981400Y-64439600D02*
X180731400Y-64439600D01*
G75*
G02*
X181606400Y-65314600I0J-875000D01*
G01*
X181606400Y-67064600D01*
G75*
G02*
X180731400Y-67939600I-875000J0D01*
G01*
X178981400Y-67939600D01*
G75*
G02*
X178106400Y-67064600I0J875000D01*
G01*
X178106400Y-65314600D01*
G75*
G02*
X178981400Y-64439600I875000J0D01*
G01*
G37*
G04 #@! TD.AperFunction*
D14*
X194310000Y-80645000D03*
X194310000Y-78740000D03*
D15*
X194310000Y-76835000D03*
D16*
X112500000Y-132000000D03*
X193500000Y-132000000D03*
X193500000Y-63500000D03*
X112500000Y-63500000D03*
D17*
X112500000Y-73279000D03*
D18*
X112500000Y-70739000D03*
X112500000Y-80137000D03*
D17*
X112500000Y-82677000D03*
D11*
X186055000Y-77470000D03*
D10*
X178435000Y-77470000D03*
X182245000Y-77470000D03*
D19*
X128524000Y-79756000D03*
D20*
X118364000Y-79756000D03*
X118364000Y-83820000D03*
D19*
X128524000Y-83820000D03*
D12*
X154940000Y-102235000D03*
X154940000Y-99695000D03*
X154940000Y-97155000D03*
X154940000Y-94615000D03*
X110490000Y-90805000D03*
D21*
X110490000Y-106045000D03*
D12*
X113030000Y-90805000D03*
X113030000Y-106045000D03*
X115570000Y-90805000D03*
X115570000Y-106045000D03*
X118110000Y-90805000D03*
X118110000Y-106045000D03*
X120650000Y-90805000D03*
X120650000Y-106045000D03*
X123190000Y-90805000D03*
X123190000Y-106045000D03*
X125730000Y-90805000D03*
X125730000Y-106045000D03*
X128270000Y-90805000D03*
X128270000Y-106045000D03*
X130810000Y-90805000D03*
X130810000Y-106045000D03*
X133350000Y-90805000D03*
X133350000Y-106045000D03*
X135890000Y-90805000D03*
X135890000Y-106045000D03*
X138430000Y-90805000D03*
X138430000Y-106045000D03*
X140970000Y-90805000D03*
X140970000Y-106045000D03*
X143510000Y-90805000D03*
X143510000Y-106045000D03*
X146050000Y-90805000D03*
X146050000Y-106045000D03*
X148590000Y-90805000D03*
X148590000Y-106045000D03*
X151130000Y-90805000D03*
X151130000Y-106045000D03*
X153670000Y-90805000D03*
X153670000Y-106045000D03*
X156210000Y-90805000D03*
X156210000Y-106045000D03*
X158750000Y-90805000D03*
X158750000Y-106045000D03*
D21*
X118110000Y-120650000D03*
D22*
X118110000Y-118110000D03*
X118110000Y-115570000D03*
X118110000Y-113030000D03*
G04 #@! TA.AperFunction,ComponentPad*
G36*
G01*
X152435000Y-69635000D02*
X153635000Y-69635000D01*
G75*
G02*
X153885000Y-69885000I0J-250000D01*
G01*
X153885000Y-71085000D01*
G75*
G02*
X153635000Y-71335000I-250000J0D01*
G01*
X152435000Y-71335000D01*
G75*
G02*
X152185000Y-71085000I0J250000D01*
G01*
X152185000Y-69885000D01*
G75*
G02*
X152435000Y-69635000I250000J0D01*
G01*
G37*
G04 #@! TD.AperFunction*
D12*
X150495000Y-70485000D03*
X147955000Y-70485000D03*
X145415000Y-70485000D03*
X142875000Y-70485000D03*
X140335000Y-70485000D03*
X137795000Y-70485000D03*
X135255000Y-70485000D03*
X132715000Y-70485000D03*
X130175000Y-70485000D03*
X127635000Y-70485000D03*
X125095000Y-70485000D03*
X122555000Y-70485000D03*
X153035000Y-73025000D03*
X150495000Y-73025000D03*
X147955000Y-73025000D03*
X145415000Y-73025000D03*
X142875000Y-73025000D03*
X140335000Y-73025000D03*
X137795000Y-73025000D03*
X135255000Y-73025000D03*
X132715000Y-73025000D03*
X130175000Y-73025000D03*
X127635000Y-73025000D03*
X125095000Y-73025000D03*
X122555000Y-73025000D03*
D23*
X146050000Y-103415000D03*
X133350000Y-77015000D03*
X140335000Y-78105000D03*
X121920000Y-100875000D03*
X114390000Y-100875000D03*
X142240000Y-78105000D03*
X120650000Y-101600000D03*
X112395000Y-101600000D03*
X137795000Y-77740000D03*
X137160000Y-100150000D03*
X137160000Y-102325000D03*
X120650000Y-100150000D03*
X116205000Y-100150000D03*
X135255000Y-77740000D03*
X148590000Y-103415000D03*
X131445000Y-76290000D03*
X116115000Y-88900000D03*
D24*
X123825000Y-71755000D02*
X123825000Y-63500000D01*
X123825000Y-63500000D02*
X125095000Y-62230000D01*
X125095000Y-73025000D02*
X123825000Y-73025000D01*
X123825000Y-71755000D02*
X123825000Y-73025000D01*
X118110000Y-106045000D02*
X118110000Y-94234000D01*
X118110000Y-94234000D02*
X116840000Y-92964000D01*
X116840000Y-92964000D02*
X116840000Y-87630000D01*
X116840000Y-87630000D02*
X123825000Y-80645000D01*
X123825000Y-80645000D02*
X123825000Y-73025000D01*
X131445000Y-71755000D02*
X131445000Y-63500000D01*
X132715000Y-73025000D02*
X131445000Y-71755000D01*
X131445000Y-63500000D02*
X132715000Y-62230000D01*
X146050000Y-103415000D02*
X146050000Y-93345000D01*
X146050000Y-93345000D02*
X144780000Y-92075000D01*
X144780000Y-92075000D02*
X144780000Y-77470000D01*
X144325000Y-77015000D02*
X133350000Y-77015000D01*
X144780000Y-77470000D02*
X144325000Y-77015000D01*
X139065000Y-71755000D02*
X139065000Y-63500000D01*
X140335000Y-73025000D02*
X139065000Y-71755000D01*
X139065000Y-63500000D02*
X140335000Y-62230000D01*
X113030000Y-106045000D02*
X113030000Y-104140000D01*
X113030000Y-102235000D02*
X113030000Y-104140000D01*
X114390000Y-100875000D02*
X113030000Y-102235000D01*
X139700000Y-78740000D02*
X140335000Y-78105000D01*
X139700000Y-99695000D02*
X139700000Y-78740000D01*
X138520000Y-100875000D02*
X139700000Y-99695000D01*
X121920000Y-100875000D02*
X138520000Y-100875000D01*
X141605000Y-71755000D02*
X141605000Y-63500000D01*
X142875000Y-73025000D02*
X141605000Y-71755000D01*
X141605000Y-63500000D02*
X142875000Y-62230000D01*
X142240000Y-78105000D02*
X142240000Y-88900000D01*
X140970000Y-101600000D02*
X120650000Y-101600000D01*
X140970000Y-101600000D02*
X142240000Y-100330000D01*
X142240000Y-88900000D02*
X142240000Y-100330000D01*
X110490000Y-103505000D02*
X112395000Y-101600000D01*
X110490000Y-106045000D02*
X110490000Y-103505000D01*
X145415000Y-73025000D02*
X146304000Y-72136000D01*
X145415000Y-62230000D02*
X146685000Y-63500000D01*
X146685000Y-63500000D02*
X146685000Y-71755000D01*
X146685000Y-71755000D02*
X146304000Y-72136000D01*
X143764000Y-74676000D02*
X145415000Y-73025000D01*
X127508000Y-74676000D02*
X143764000Y-74676000D01*
X125761750Y-76422250D02*
X127508000Y-74676000D01*
X120650000Y-86423500D02*
X125761750Y-81311750D01*
X125761750Y-81311750D02*
X125761750Y-76422250D01*
X120650000Y-90805000D02*
X120650000Y-86423500D01*
X126365000Y-71755000D02*
X126365000Y-63500000D01*
X126365000Y-63500000D02*
X127635000Y-62230000D01*
X127635000Y-73025000D02*
X126365000Y-73025000D01*
X126365000Y-73025000D02*
X126365000Y-71755000D01*
X133985000Y-104140000D02*
X135890000Y-106045000D01*
X119888000Y-104140000D02*
X133985000Y-104140000D01*
X124761625Y-75898375D02*
X126365000Y-74295000D01*
X119380000Y-103632000D02*
X119888000Y-104140000D01*
X119380000Y-86328250D02*
X119380000Y-103632000D01*
X124761625Y-80946625D02*
X119380000Y-86328250D01*
X126365000Y-73025000D02*
X126365000Y-74295000D01*
X124761625Y-80946625D02*
X124761625Y-75898375D01*
X136525000Y-71755000D02*
X136525000Y-63500000D01*
X137795000Y-73025000D02*
X136525000Y-71755000D01*
X136525000Y-63500000D02*
X137795000Y-62230000D01*
X137795000Y-77740000D02*
X137160000Y-78375000D01*
X137160000Y-78375000D02*
X137160000Y-89535000D01*
X137160000Y-89535000D02*
X137160000Y-100150000D01*
X137160000Y-104775000D02*
X138430000Y-106045000D01*
X137160000Y-102325000D02*
X137160000Y-104775000D01*
X155575000Y-62230000D02*
X154305000Y-63500000D01*
X154305000Y-63500000D02*
X154305000Y-71755000D01*
X153035000Y-73025000D02*
X154305000Y-71755000D01*
X143510000Y-106045000D02*
X143510000Y-104775000D01*
X143510000Y-104775000D02*
X144145000Y-104140000D01*
X144145000Y-104140000D02*
X151765000Y-104140000D01*
X151765000Y-104140000D02*
X152400000Y-103505000D01*
X152400000Y-73660000D02*
X153035000Y-73025000D01*
X152400000Y-103505000D02*
X152400000Y-73660000D01*
X122555000Y-73025000D02*
X121285000Y-71755000D01*
X121285000Y-71755000D02*
X121285000Y-63500000D01*
X121285000Y-63500000D02*
X122555000Y-62230000D01*
X147955000Y-73025000D02*
X149225000Y-71755000D01*
X149225000Y-71755000D02*
X149225000Y-63500000D01*
X149225000Y-63500000D02*
X150495000Y-62230000D01*
X147955000Y-74295000D02*
X147955000Y-73025000D01*
X146685000Y-75565000D02*
X147955000Y-74295000D01*
X128270000Y-75565000D02*
X146685000Y-75565000D01*
X127000000Y-76835000D02*
X128270000Y-75565000D01*
X127000000Y-81280000D02*
X127000000Y-76835000D01*
X123190000Y-85090000D02*
X127000000Y-81280000D01*
X123190000Y-90805000D02*
X123190000Y-85090000D01*
X133985000Y-71755000D02*
X133985000Y-63500000D01*
X135255000Y-73025000D02*
X133985000Y-71755000D01*
X133985000Y-63500000D02*
X135255000Y-62230000D01*
X115570000Y-100785000D02*
X116205000Y-100150000D01*
X115570000Y-106045000D02*
X115570000Y-100785000D01*
X133530000Y-100150000D02*
X134620000Y-99060000D01*
X120650000Y-100150000D02*
X133530000Y-100150000D01*
X134620000Y-99060000D02*
X134620000Y-88900000D01*
X134620000Y-78375000D02*
X135255000Y-77740000D01*
X134620000Y-88900000D02*
X134620000Y-78375000D01*
X128905000Y-71755000D02*
X128905000Y-63500000D01*
X130175000Y-73025000D02*
X128905000Y-71755000D01*
X128905000Y-63500000D02*
X130175000Y-62230000D01*
X148590000Y-103415000D02*
X148590000Y-93345000D01*
X148590000Y-93345000D02*
X147320000Y-92075000D01*
X147320000Y-92075000D02*
X147320000Y-84455000D01*
X147320000Y-84455000D02*
X147320000Y-76835000D01*
X146775000Y-76290000D02*
X131445000Y-76290000D01*
X147320000Y-76835000D02*
X146775000Y-76290000D01*
D25*
X186690000Y-76835000D02*
X186055000Y-77470000D01*
X194310000Y-76835000D02*
X186690000Y-76835000D01*
X184556400Y-72796400D02*
X186055000Y-74295000D01*
X184556400Y-69189600D02*
X184556400Y-72796400D01*
X186055000Y-77470000D02*
X186055000Y-74295000D01*
X118110000Y-118110000D02*
X119380000Y-118110000D01*
X119380000Y-118110000D02*
X128905000Y-108585000D01*
X128905000Y-108585000D02*
X153670000Y-108585000D01*
X153670000Y-108585000D02*
X153670000Y-106045000D01*
X188595000Y-80645000D02*
X194310000Y-80645000D01*
X165735000Y-80645000D02*
X188595000Y-80645000D01*
X164592000Y-81788000D02*
X165735000Y-80645000D01*
X164592000Y-106680000D02*
X164592000Y-81788000D01*
X162687000Y-108585000D02*
X164592000Y-106680000D01*
X153670000Y-108585000D02*
X162687000Y-108585000D01*
D24*
X163195000Y-90805000D02*
X163195000Y-62230000D01*
X161290000Y-92710000D02*
X163195000Y-90805000D01*
X153670000Y-92710000D02*
X161290000Y-92710000D01*
X153035000Y-93345000D02*
X153670000Y-92710000D01*
X153035000Y-104140000D02*
X153035000Y-93345000D01*
X151130000Y-106045000D02*
X153035000Y-104140000D01*
X116141500Y-77533500D02*
X113728500Y-77533500D01*
X118364000Y-79756000D02*
X116141500Y-77533500D01*
X112500000Y-76305000D02*
X112500000Y-73279000D01*
X113728500Y-77533500D02*
X112500000Y-76305000D01*
D25*
X175895000Y-59055000D02*
X175895000Y-57785000D01*
X178435000Y-74930000D02*
X178435000Y-77470000D01*
X172085000Y-68580000D02*
X178435000Y-74930000D01*
X172085000Y-63500000D02*
X172085000Y-68580000D01*
X110490000Y-56515000D02*
X109220000Y-57785000D01*
X110744000Y-70739000D02*
X109220000Y-69215000D01*
X112500000Y-70739000D02*
X110744000Y-70739000D01*
X109220000Y-57785000D02*
X109220000Y-69215000D01*
X172085000Y-59055000D02*
X172085000Y-56515000D01*
X172085000Y-56515000D02*
X110490000Y-56515000D01*
X196215000Y-78740000D02*
X194310000Y-78740000D01*
X196850000Y-78105000D02*
X196215000Y-78740000D01*
X196850000Y-59690000D02*
X196850000Y-78105000D01*
X193675000Y-56515000D02*
X196850000Y-59690000D01*
X172085000Y-56515000D02*
X193675000Y-56515000D01*
D24*
X113643000Y-83820000D02*
X112500000Y-82677000D01*
X118364000Y-83820000D02*
X113643000Y-83820000D01*
X120015000Y-113030000D02*
X118110000Y-113030000D01*
X123190000Y-109855000D02*
X120015000Y-113030000D01*
X123190000Y-106045000D02*
X123190000Y-109855000D01*
X125730000Y-109855000D02*
X125730000Y-106045000D01*
X120015000Y-115570000D02*
X125730000Y-109855000D01*
X118110000Y-115570000D02*
X120015000Y-115570000D01*
X116115000Y-88900000D02*
X111125000Y-88900000D01*
X111125000Y-88900000D02*
X110490000Y-88265000D01*
X110490000Y-88265000D02*
X110490000Y-80645000D01*
X110998000Y-80137000D02*
X112500000Y-80137000D01*
X110490000Y-80645000D02*
X110998000Y-80137000D01*
X150495000Y-73025000D02*
X151765000Y-71755000D01*
X151765000Y-71755000D02*
X151765000Y-63500000D01*
X151765000Y-63500000D02*
X153035000Y-62230000D01*
M02*
