G04 #@! TF.GenerationSoftware,KiCad,Pcbnew,(5.1.8)-1*
G04 #@! TF.CreationDate,2021-11-03T22:52:41+01:00*
G04 #@! TF.ProjectId,Greaseweazle,47726561-7365-4776-9561-7a6c652e6b69,rev?*
G04 #@! TF.SameCoordinates,Original*
G04 #@! TF.FileFunction,Legend,Bot*
G04 #@! TF.FilePolarity,Positive*
%FSLAX46Y46*%
G04 Gerber Fmt 4.6, Leading zero omitted, Abs format (unit mm)*
G04 Created by KiCad (PCBNEW (5.1.8)-1) date 2021-11-03 22:52:41*
%MOMM*%
%LPD*%
G01*
G04 APERTURE LIST*
%ADD10C,0.120000*%
%ADD11C,0.100000*%
%ADD12C,0.300000*%
%ADD13C,0.150000*%
%ADD14C,0.200000*%
G04 APERTURE END LIST*
D10*
X191000000Y-61000000D02*
X191000000Y-66000000D01*
X196000000Y-61000000D02*
X191000000Y-61000000D01*
X196000000Y-66000000D02*
X196000000Y-61000000D01*
X191000000Y-66000000D02*
X196000000Y-66000000D01*
D11*
G36*
X155700000Y-87300000D02*
G01*
X157800000Y-87900000D01*
X159500000Y-88800000D01*
X161300000Y-90100000D01*
X162400000Y-91300000D01*
X163100000Y-92100000D01*
X163800000Y-93200000D01*
X164200000Y-94000000D01*
X147100000Y-88500000D01*
X148400000Y-87900000D01*
X150300000Y-87300000D01*
X152000000Y-87000000D01*
X153600000Y-87000000D01*
X155700000Y-87300000D01*
G37*
X155700000Y-87300000D02*
X157800000Y-87900000D01*
X159500000Y-88800000D01*
X161300000Y-90100000D01*
X162400000Y-91300000D01*
X163100000Y-92100000D01*
X163800000Y-93200000D01*
X164200000Y-94000000D01*
X147100000Y-88500000D01*
X148400000Y-87900000D01*
X150300000Y-87300000D01*
X152000000Y-87000000D01*
X153600000Y-87000000D01*
X155700000Y-87300000D01*
G36*
X150500000Y-98700000D02*
G01*
X150400000Y-99100000D01*
X150500000Y-99400000D01*
X150615185Y-99711237D01*
X150800000Y-100000000D01*
X147600000Y-100000000D01*
X147953637Y-98530233D01*
X148000000Y-98200000D01*
X150800000Y-98200000D01*
X150500000Y-98700000D01*
G37*
X150500000Y-98700000D02*
X150400000Y-99100000D01*
X150500000Y-99400000D01*
X150615185Y-99711237D01*
X150800000Y-100000000D01*
X147600000Y-100000000D01*
X147953637Y-98530233D01*
X148000000Y-98200000D01*
X150800000Y-98200000D01*
X150500000Y-98700000D01*
G36*
X164200000Y-94000000D02*
G01*
X165100000Y-96300000D01*
X165500000Y-98900000D01*
X165300000Y-101700000D01*
X164800000Y-103700000D01*
X146530132Y-103842824D01*
X146700000Y-103200000D01*
X147200000Y-101400000D01*
X147600000Y-100000000D01*
X150800000Y-100000000D01*
X151615185Y-101443288D01*
X151900000Y-101800000D01*
X152300000Y-102000000D01*
X152800000Y-102100000D01*
X153100000Y-102000000D01*
X153500000Y-101800000D01*
X155200000Y-100800000D01*
X155400000Y-100600000D01*
X155600000Y-100300000D01*
X155700000Y-99800000D01*
X155600000Y-99400000D01*
X155300000Y-98800000D01*
X154400000Y-97300000D01*
X154100000Y-97000000D01*
X153500000Y-96800000D01*
X153000000Y-96900000D01*
X150800000Y-98200000D01*
X148000000Y-98200000D01*
X147900000Y-97700000D01*
X147800000Y-97500000D01*
X147500000Y-97200000D01*
X147069753Y-96999301D01*
X147100000Y-88500000D01*
X164200000Y-94000000D01*
G37*
X164200000Y-94000000D02*
X165100000Y-96300000D01*
X165500000Y-98900000D01*
X165300000Y-101700000D01*
X164800000Y-103700000D01*
X146530132Y-103842824D01*
X146700000Y-103200000D01*
X147200000Y-101400000D01*
X147600000Y-100000000D01*
X150800000Y-100000000D01*
X151615185Y-101443288D01*
X151900000Y-101800000D01*
X152300000Y-102000000D01*
X152800000Y-102100000D01*
X153100000Y-102000000D01*
X153500000Y-101800000D01*
X155200000Y-100800000D01*
X155400000Y-100600000D01*
X155600000Y-100300000D01*
X155700000Y-99800000D01*
X155600000Y-99400000D01*
X155300000Y-98800000D01*
X154400000Y-97300000D01*
X154100000Y-97000000D01*
X153500000Y-96800000D01*
X153000000Y-96900000D01*
X150800000Y-98200000D01*
X148000000Y-98200000D01*
X147900000Y-97700000D01*
X147800000Y-97500000D01*
X147500000Y-97200000D01*
X147069753Y-96999301D01*
X147100000Y-88500000D01*
X164200000Y-94000000D01*
G36*
X143200000Y-98900000D02*
G01*
X142312875Y-102195177D01*
X142200000Y-102700000D01*
X142500000Y-103600000D01*
X142800000Y-103900000D01*
X143200000Y-104200000D01*
X143800000Y-104400000D01*
X144900000Y-104700000D01*
X145300000Y-104800000D01*
X145800000Y-104700000D01*
X146100000Y-104500000D01*
X146400000Y-104200000D01*
X146530132Y-103842824D01*
X164800000Y-103700000D01*
X163800000Y-105700000D01*
X162600000Y-107500000D01*
X161400000Y-108700000D01*
X160000000Y-109900000D01*
X158500000Y-110700000D01*
X157400000Y-111200000D01*
X155700000Y-111700000D01*
X154400000Y-111900000D01*
X152800000Y-112000000D01*
X151200000Y-111900000D01*
X149700000Y-111600000D01*
X148100000Y-111000000D01*
X146700000Y-110300000D01*
X145100000Y-109200000D01*
X143700000Y-107900000D01*
X142700000Y-106600000D01*
X141800000Y-105100000D01*
X141200000Y-103600000D01*
X140700000Y-102000000D01*
X140500000Y-100600000D01*
X140500000Y-98900000D01*
X140700000Y-97400000D01*
X143600000Y-97400000D01*
X143200000Y-98900000D01*
G37*
X143200000Y-98900000D02*
X142312875Y-102195177D01*
X142200000Y-102700000D01*
X142500000Y-103600000D01*
X142800000Y-103900000D01*
X143200000Y-104200000D01*
X143800000Y-104400000D01*
X144900000Y-104700000D01*
X145300000Y-104800000D01*
X145800000Y-104700000D01*
X146100000Y-104500000D01*
X146400000Y-104200000D01*
X146530132Y-103842824D01*
X164800000Y-103700000D01*
X163800000Y-105700000D01*
X162600000Y-107500000D01*
X161400000Y-108700000D01*
X160000000Y-109900000D01*
X158500000Y-110700000D01*
X157400000Y-111200000D01*
X155700000Y-111700000D01*
X154400000Y-111900000D01*
X152800000Y-112000000D01*
X151200000Y-111900000D01*
X149700000Y-111600000D01*
X148100000Y-111000000D01*
X146700000Y-110300000D01*
X145100000Y-109200000D01*
X143700000Y-107900000D01*
X142700000Y-106600000D01*
X141800000Y-105100000D01*
X141200000Y-103600000D01*
X140700000Y-102000000D01*
X140500000Y-100600000D01*
X140500000Y-98900000D01*
X140700000Y-97400000D01*
X143600000Y-97400000D01*
X143200000Y-98900000D01*
G36*
X147069753Y-96999301D02*
G01*
X145300000Y-96500000D01*
X144800000Y-96400000D01*
X144200000Y-96600000D01*
X143800000Y-96900000D01*
X143606970Y-97365549D01*
X143600000Y-97400000D01*
X140700000Y-97400000D01*
X141200000Y-95400000D01*
X141900000Y-93800000D01*
X142900000Y-92200000D01*
X143600000Y-91300000D01*
X145800000Y-89300000D01*
X147100000Y-88500000D01*
X147069753Y-96999301D01*
G37*
X147069753Y-96999301D02*
X145300000Y-96500000D01*
X144800000Y-96400000D01*
X144200000Y-96600000D01*
X143800000Y-96900000D01*
X143606970Y-97365549D01*
X143600000Y-97400000D01*
X140700000Y-97400000D01*
X141200000Y-95400000D01*
X141900000Y-93800000D01*
X142900000Y-92200000D01*
X143600000Y-91300000D01*
X145800000Y-89300000D01*
X147100000Y-88500000D01*
X147069753Y-96999301D01*
G36*
X176000000Y-117600000D02*
G01*
X176400000Y-118000000D01*
X176500000Y-118500000D01*
X176500000Y-144500000D01*
X171500000Y-144500000D01*
X171500000Y-146000000D01*
X148500000Y-146000000D01*
X148500000Y-120000000D01*
X148700000Y-117500000D01*
X175500000Y-117500000D01*
X176000000Y-117600000D01*
G37*
X176000000Y-117600000D02*
X176400000Y-118000000D01*
X176500000Y-118500000D01*
X176500000Y-144500000D01*
X171500000Y-144500000D01*
X171500000Y-146000000D01*
X148500000Y-146000000D01*
X148500000Y-120000000D01*
X148700000Y-117500000D01*
X175500000Y-117500000D01*
X176000000Y-117600000D01*
G36*
X148700000Y-120000000D02*
G01*
X148500000Y-120000000D01*
X148500000Y-119800000D01*
X148300000Y-119600000D01*
X148000000Y-119500000D01*
X136800000Y-119500000D01*
X136600000Y-119700000D01*
X136500000Y-120000000D01*
X136500000Y-144100000D01*
X136700000Y-144400000D01*
X137000000Y-144500000D01*
X140500000Y-144500000D01*
X140500000Y-146000000D01*
X144500000Y-146000000D01*
X144500000Y-144500000D01*
X148200000Y-144500000D01*
X148400000Y-144300000D01*
X148500000Y-144000000D01*
X148500000Y-146000000D01*
X175000000Y-146000000D01*
X175000000Y-144500000D01*
X176500000Y-144500000D01*
X176500000Y-149000000D01*
X129500000Y-149000000D01*
X129500000Y-118300000D01*
X129600000Y-118100000D01*
X129800000Y-117800000D01*
X130100000Y-117600000D01*
X130500000Y-117500000D01*
X148700000Y-117500000D01*
X148700000Y-120000000D01*
G37*
X148700000Y-120000000D02*
X148500000Y-120000000D01*
X148500000Y-119800000D01*
X148300000Y-119600000D01*
X148000000Y-119500000D01*
X136800000Y-119500000D01*
X136600000Y-119700000D01*
X136500000Y-120000000D01*
X136500000Y-144100000D01*
X136700000Y-144400000D01*
X137000000Y-144500000D01*
X140500000Y-144500000D01*
X140500000Y-146000000D01*
X144500000Y-146000000D01*
X144500000Y-144500000D01*
X148200000Y-144500000D01*
X148400000Y-144300000D01*
X148500000Y-144000000D01*
X148500000Y-146000000D01*
X175000000Y-146000000D01*
X175000000Y-144500000D01*
X176500000Y-144500000D01*
X176500000Y-149000000D01*
X129500000Y-149000000D01*
X129500000Y-118300000D01*
X129600000Y-118100000D01*
X129800000Y-117800000D01*
X130100000Y-117600000D01*
X130500000Y-117500000D01*
X148700000Y-117500000D01*
X148700000Y-120000000D01*
D10*
X143606970Y-97365548D02*
X142312875Y-102195177D01*
X143550312Y-104338481D02*
X144999201Y-104726709D01*
X143550312Y-104338480D02*
G75*
G02*
X142312875Y-102195177I452933J1690370D01*
G01*
X146530132Y-103842824D02*
G75*
G02*
X144999201Y-104726709I-1207408J323523D01*
G01*
X147069753Y-96999302D02*
X145137901Y-96481664D01*
X146530132Y-103842825D02*
X147953637Y-98530233D01*
X147069753Y-96999301D02*
G75*
G02*
X147953637Y-98530233I-323524J-1207408D01*
G01*
X143606970Y-97365549D02*
G75*
G02*
X145137901Y-96481664I1207408J-323523D01*
G01*
X155512299Y-99193288D02*
G75*
G02*
X155054767Y-100900820I-1082532J-625000D01*
G01*
X153322716Y-101900819D02*
G75*
G02*
X151615185Y-101443288I-625000J1082531D01*
G01*
X150615184Y-99711237D02*
G75*
G02*
X151072716Y-98003705I1082532J625000D01*
G01*
X152804767Y-97003705D02*
G75*
G02*
X154512299Y-97461237I625000J-1082532D01*
G01*
X152804767Y-97003705D02*
X151072716Y-98003705D01*
X155512299Y-99193288D02*
X154512299Y-97461237D01*
X153322716Y-101900820D02*
X155054767Y-100900820D01*
X150615185Y-99711237D02*
X151615185Y-101443288D01*
D12*
X165500000Y-99500000D02*
G75*
G03*
X165500000Y-99500000I-12500000J0D01*
G01*
X166500000Y-100000000D02*
G75*
G03*
X166500000Y-100000000I-13500000J0D01*
G01*
D10*
X194500000Y-56500000D02*
X192500000Y-56500000D01*
X192000000Y-57000000D02*
X190500000Y-57000000D01*
X192500000Y-56500000D02*
X192000000Y-57000000D01*
X195000000Y-57000000D02*
X196500000Y-57000000D01*
X194500000Y-56500000D02*
X195000000Y-57000000D01*
X196500000Y-66500000D02*
X190500000Y-66500000D01*
X196500000Y-57000000D02*
X196500000Y-66500000D01*
X190500000Y-66500000D02*
X190500000Y-57000000D01*
D13*
X186666666Y-73357380D02*
X186666666Y-72357380D01*
X186428571Y-72357380D01*
X186285714Y-72405000D01*
X186190476Y-72500238D01*
X186142857Y-72595476D01*
X186095238Y-72785952D01*
X186095238Y-72928809D01*
X186142857Y-73119285D01*
X186190476Y-73214523D01*
X186285714Y-73309761D01*
X186428571Y-73357380D01*
X186666666Y-73357380D01*
X185666666Y-72833571D02*
X185333333Y-72833571D01*
X185190476Y-73357380D02*
X185666666Y-73357380D01*
X185666666Y-72357380D01*
X185190476Y-72357380D01*
X184809523Y-73309761D02*
X184666666Y-73357380D01*
X184428571Y-73357380D01*
X184333333Y-73309761D01*
X184285714Y-73262142D01*
X184238095Y-73166904D01*
X184238095Y-73071666D01*
X184285714Y-72976428D01*
X184333333Y-72928809D01*
X184428571Y-72881190D01*
X184619047Y-72833571D01*
X184714285Y-72785952D01*
X184761904Y-72738333D01*
X184809523Y-72643095D01*
X184809523Y-72547857D01*
X184761904Y-72452619D01*
X184714285Y-72405000D01*
X184619047Y-72357380D01*
X184380952Y-72357380D01*
X184238095Y-72405000D01*
X183809523Y-73357380D02*
X183809523Y-72357380D01*
X182809523Y-72405000D02*
X182904761Y-72357380D01*
X183047619Y-72357380D01*
X183190476Y-72405000D01*
X183285714Y-72500238D01*
X183333333Y-72595476D01*
X183380952Y-72785952D01*
X183380952Y-72928809D01*
X183333333Y-73119285D01*
X183285714Y-73214523D01*
X183190476Y-73309761D01*
X183047619Y-73357380D01*
X182952380Y-73357380D01*
X182809523Y-73309761D01*
X182761904Y-73262142D01*
X182761904Y-72928809D01*
X182952380Y-72928809D01*
X182333333Y-73357380D02*
X182333333Y-72357380D01*
X181761904Y-73357380D01*
X181761904Y-72357380D01*
X181285714Y-72833571D02*
X180952380Y-72833571D01*
X180809523Y-73357380D02*
X181285714Y-73357380D01*
X181285714Y-72357380D01*
X180809523Y-72357380D01*
X180380952Y-73357380D02*
X180380952Y-72357380D01*
X180142857Y-72357380D01*
X180000000Y-72405000D01*
X179904761Y-72500238D01*
X179857142Y-72595476D01*
X179809523Y-72785952D01*
X179809523Y-72928809D01*
X179857142Y-73119285D01*
X179904761Y-73214523D01*
X180000000Y-73309761D01*
X180142857Y-73357380D01*
X180380952Y-73357380D01*
X178619047Y-73357380D02*
X178619047Y-72357380D01*
X178142857Y-73357380D02*
X178142857Y-72357380D01*
X177571428Y-73357380D01*
X177571428Y-72357380D01*
X175857142Y-73357380D02*
X176333333Y-73357380D01*
X176333333Y-72357380D01*
X175333333Y-72357380D02*
X175142857Y-72357380D01*
X175047619Y-72405000D01*
X174952380Y-72500238D01*
X174904761Y-72690714D01*
X174904761Y-73024047D01*
X174952380Y-73214523D01*
X175047619Y-73309761D01*
X175142857Y-73357380D01*
X175333333Y-73357380D01*
X175428571Y-73309761D01*
X175523809Y-73214523D01*
X175571428Y-73024047D01*
X175571428Y-72690714D01*
X175523809Y-72500238D01*
X175428571Y-72405000D01*
X175333333Y-72357380D01*
X174142857Y-72833571D02*
X174476190Y-72833571D01*
X174476190Y-73357380D02*
X174476190Y-72357380D01*
X174000000Y-72357380D01*
X173428571Y-72357380D02*
X173238095Y-72357380D01*
X173142857Y-72405000D01*
X173047619Y-72500238D01*
X173000000Y-72690714D01*
X173000000Y-73024047D01*
X173047619Y-73214523D01*
X173142857Y-73309761D01*
X173238095Y-73357380D01*
X173428571Y-73357380D01*
X173523809Y-73309761D01*
X173619047Y-73214523D01*
X173666666Y-73024047D01*
X173666666Y-72690714D01*
X173619047Y-72500238D01*
X173523809Y-72405000D01*
X173428571Y-72357380D01*
X172714285Y-72357380D02*
X172142857Y-72357380D01*
X172428571Y-73357380D02*
X172428571Y-72357380D01*
X171809523Y-72833571D02*
X171476190Y-72833571D01*
X171333333Y-73357380D02*
X171809523Y-73357380D01*
X171809523Y-72357380D01*
X171333333Y-72357380D01*
X170904761Y-73357380D02*
X170904761Y-72357380D01*
X170333333Y-73357380D01*
X170333333Y-72357380D01*
D14*
X187250000Y-74155000D02*
X169750000Y-74155000D01*
X187250000Y-71655000D02*
X169750000Y-71655000D01*
X169750000Y-74155000D02*
G75*
G02*
X169750000Y-71655000I0J1250000D01*
G01*
X187250000Y-71655000D02*
G75*
G02*
X187250000Y-74155000I0J-1250000D01*
G01*
X183500000Y-148000000D02*
X184000000Y-148500000D01*
X182500000Y-148000000D02*
X183500000Y-148000000D01*
X182500000Y-147500000D02*
X182500000Y-148000000D01*
X176500000Y-147500000D02*
X182500000Y-147500000D01*
D12*
X113000000Y-134000000D02*
X112000000Y-134000000D01*
X113000000Y-130000000D02*
X112000000Y-130000000D01*
X113000000Y-130000000D02*
G75*
G02*
X113000000Y-134000000I0J-2000000D01*
G01*
X112000000Y-134000000D02*
G75*
G02*
X112000000Y-130000000I0J2000000D01*
G01*
X195500000Y-132000000D02*
G75*
G03*
X195500000Y-132000000I-2000000J0D01*
G01*
X110500000Y-140000000D02*
G75*
G02*
X108000000Y-142500000I-2500000J0D01*
G01*
X108000000Y-137500000D02*
G75*
G02*
X110500000Y-140000000I0J-2500000D01*
G01*
X198000000Y-142500000D02*
G75*
G02*
X195500000Y-140000000I0J2500000D01*
G01*
X195500000Y-140000000D02*
G75*
G02*
X198000000Y-137500000I2500000J0D01*
G01*
D14*
X188000000Y-145000000D02*
X176500000Y-145000000D01*
X188000000Y-146000000D02*
X188000000Y-145000000D01*
X176500000Y-146000000D02*
X188000000Y-146000000D01*
D10*
X171500000Y-144500000D02*
X175000000Y-144500000D01*
X171500000Y-146000000D02*
X171500000Y-144500000D01*
X175000000Y-146000000D02*
X171500000Y-146000000D01*
X175000000Y-144500000D02*
X175000000Y-146000000D01*
D14*
X148000000Y-144500000D02*
X144500000Y-144500000D01*
X137000000Y-119500000D02*
X148000000Y-119500000D01*
X148500000Y-120000000D02*
X148500000Y-144000000D01*
X148000000Y-119500000D02*
G75*
G02*
X148500000Y-120000000I0J-500000D01*
G01*
X136500000Y-120000000D02*
X136500000Y-144000000D01*
X137000000Y-144500000D02*
G75*
G02*
X136500000Y-144000000I0J500000D01*
G01*
X137000000Y-144500000D02*
X140500000Y-144500000D01*
X136500000Y-120000000D02*
G75*
G02*
X137000000Y-119500000I500000J0D01*
G01*
X148500000Y-144000000D02*
G75*
G02*
X148000000Y-144500000I-500000J0D01*
G01*
X140500000Y-144500000D02*
X140500000Y-146000000D01*
X144500000Y-144500000D02*
X144500000Y-146000000D01*
X140500000Y-146000000D02*
X144500000Y-146000000D01*
X129500000Y-118500000D02*
G75*
G02*
X130500000Y-117500000I1000000J0D01*
G01*
X175500000Y-117500000D02*
G75*
G02*
X176500000Y-118500000I0J-1000000D01*
G01*
X129500000Y-118500000D02*
X129500000Y-149000000D01*
X176500000Y-118500000D02*
X176500000Y-149000000D01*
X130500000Y-117500000D02*
X175500000Y-117500000D01*
X130500000Y-117000000D02*
X187500000Y-117000000D01*
X129000000Y-118500000D02*
X129000000Y-149000000D01*
X187500000Y-117000000D02*
G75*
G02*
X189000000Y-118500000I0J-1500000D01*
G01*
X189000000Y-118500000D02*
X189000000Y-149000000D01*
X129000000Y-118500000D02*
G75*
G02*
X130500000Y-117000000I1500000J0D01*
G01*
D12*
X189000000Y-55000000D02*
X189000000Y-67500000D01*
X117000000Y-55000000D02*
X117000000Y-67500000D01*
X118500000Y-69000000D02*
G75*
G02*
X117000000Y-67500000I0J1500000D01*
G01*
X189000000Y-67500000D02*
G75*
G02*
X187500000Y-69000000I-1500000J0D01*
G01*
X187500000Y-69000000D02*
X118500000Y-69000000D01*
M02*
