G04 #@! TF.GenerationSoftware,KiCad,Pcbnew,(5.1.8)-1*
G04 #@! TF.CreationDate,2021-11-10T18:58:50+01:00*
G04 #@! TF.ProjectId,Greaseweazle,47726561-7365-4776-9561-7a6c652e6b69,rev?*
G04 #@! TF.SameCoordinates,Original*
G04 #@! TF.FileFunction,Copper,L2,Bot*
G04 #@! TF.FilePolarity,Positive*
%FSLAX46Y46*%
G04 Gerber Fmt 4.6, Leading zero omitted, Abs format (unit mm)*
G04 Created by KiCad (PCBNEW (5.1.8)-1) date 2021-11-10 18:58:50*
%MOMM*%
%LPD*%
G01*
G04 APERTURE LIST*
G04 #@! TA.AperFunction,ComponentPad*
%ADD10C,3.000000*%
G04 #@! TD*
G04 #@! TA.AperFunction,ComponentPad*
%ADD11R,3.000000X3.000000*%
G04 #@! TD*
G04 #@! TA.AperFunction,ComponentPad*
%ADD12C,1.700000*%
G04 #@! TD*
G04 #@! TA.AperFunction,ComponentPad*
%ADD13R,3.500000X3.500000*%
G04 #@! TD*
G04 #@! TA.AperFunction,ComponentPad*
%ADD14C,3.500000*%
G04 #@! TD*
G04 #@! TA.AperFunction,ComponentPad*
%ADD15R,1.800000X1.800000*%
G04 #@! TD*
G04 #@! TA.AperFunction,ComponentPad*
%ADD16C,1.800000*%
G04 #@! TD*
G04 #@! TA.AperFunction,ComponentPad*
%ADD17O,1.600000X1.600000*%
G04 #@! TD*
G04 #@! TA.AperFunction,ComponentPad*
%ADD18C,1.600000*%
G04 #@! TD*
G04 #@! TA.AperFunction,ComponentPad*
%ADD19R,1.700000X1.700000*%
G04 #@! TD*
G04 #@! TA.AperFunction,ComponentPad*
%ADD20O,1.700000X1.700000*%
G04 #@! TD*
G04 #@! TA.AperFunction,ViaPad*
%ADD21C,0.800000*%
G04 #@! TD*
G04 #@! TA.AperFunction,Conductor*
%ADD22C,0.250000*%
G04 #@! TD*
G04 #@! TA.AperFunction,Conductor*
%ADD23C,0.254000*%
G04 #@! TD*
G04 #@! TA.AperFunction,Conductor*
%ADD24C,0.100000*%
G04 #@! TD*
G04 APERTURE END LIST*
D10*
X175895000Y-63500000D03*
D11*
X172085000Y-59055000D03*
D10*
X172085000Y-63500000D03*
X175895000Y-59055000D03*
G04 #@! TA.AperFunction,ComponentPad*
G36*
G01*
X162595000Y-58840000D02*
X163795000Y-58840000D01*
G75*
G02*
X164045000Y-59090000I0J-250000D01*
G01*
X164045000Y-60290000D01*
G75*
G02*
X163795000Y-60540000I-250000J0D01*
G01*
X162595000Y-60540000D01*
G75*
G02*
X162345000Y-60290000I0J250000D01*
G01*
X162345000Y-59090000D01*
G75*
G02*
X162595000Y-58840000I250000J0D01*
G01*
G37*
G04 #@! TD.AperFunction*
D12*
X160655000Y-59690000D03*
X158115000Y-59690000D03*
X155575000Y-59690000D03*
X153035000Y-59690000D03*
X150495000Y-59690000D03*
X147955000Y-59690000D03*
X145415000Y-59690000D03*
X142875000Y-59690000D03*
X140335000Y-59690000D03*
X137795000Y-59690000D03*
X135255000Y-59690000D03*
X132715000Y-59690000D03*
X130175000Y-59690000D03*
X127635000Y-59690000D03*
X125095000Y-59690000D03*
X122555000Y-59690000D03*
X163195000Y-62230000D03*
X160655000Y-62230000D03*
X158115000Y-62230000D03*
X155575000Y-62230000D03*
X153035000Y-62230000D03*
X150495000Y-62230000D03*
X147955000Y-62230000D03*
X145415000Y-62230000D03*
X142875000Y-62230000D03*
X140335000Y-62230000D03*
X137795000Y-62230000D03*
X135255000Y-62230000D03*
X132715000Y-62230000D03*
X130175000Y-62230000D03*
X127635000Y-62230000D03*
X125095000Y-62230000D03*
X122555000Y-62230000D03*
D13*
X184556400Y-69189600D03*
G04 #@! TA.AperFunction,ComponentPad*
G36*
G01*
X183556400Y-61689600D02*
X185556400Y-61689600D01*
G75*
G02*
X186306400Y-62439600I0J-750000D01*
G01*
X186306400Y-63939600D01*
G75*
G02*
X185556400Y-64689600I-750000J0D01*
G01*
X183556400Y-64689600D01*
G75*
G02*
X182806400Y-63939600I0J750000D01*
G01*
X182806400Y-62439600D01*
G75*
G02*
X183556400Y-61689600I750000J0D01*
G01*
G37*
G04 #@! TD.AperFunction*
G04 #@! TA.AperFunction,ComponentPad*
G36*
G01*
X178981400Y-64439600D02*
X180731400Y-64439600D01*
G75*
G02*
X181606400Y-65314600I0J-875000D01*
G01*
X181606400Y-67064600D01*
G75*
G02*
X180731400Y-67939600I-875000J0D01*
G01*
X178981400Y-67939600D01*
G75*
G02*
X178106400Y-67064600I0J875000D01*
G01*
X178106400Y-65314600D01*
G75*
G02*
X178981400Y-64439600I875000J0D01*
G01*
G37*
G04 #@! TD.AperFunction*
D14*
X112500000Y-132000000D03*
X193500000Y-132000000D03*
X193500000Y-63500000D03*
X112500000Y-63500000D03*
D15*
X112500000Y-73279000D03*
D16*
X112500000Y-70739000D03*
X112500000Y-80137000D03*
D15*
X112500000Y-82677000D03*
D11*
X186055000Y-77470000D03*
D10*
X178435000Y-77470000D03*
X182245000Y-77470000D03*
D17*
X128524000Y-79756000D03*
D18*
X118364000Y-79756000D03*
X118364000Y-83820000D03*
D17*
X128524000Y-83820000D03*
D12*
X154940000Y-102235000D03*
X154940000Y-99695000D03*
X154940000Y-97155000D03*
X154940000Y-94615000D03*
X110490000Y-90805000D03*
D19*
X110490000Y-106045000D03*
D12*
X113030000Y-90805000D03*
X113030000Y-106045000D03*
X115570000Y-90805000D03*
X115570000Y-106045000D03*
X118110000Y-90805000D03*
X118110000Y-106045000D03*
X120650000Y-90805000D03*
X120650000Y-106045000D03*
X123190000Y-90805000D03*
X123190000Y-106045000D03*
X125730000Y-90805000D03*
X125730000Y-106045000D03*
X128270000Y-90805000D03*
X128270000Y-106045000D03*
X130810000Y-90805000D03*
X130810000Y-106045000D03*
X133350000Y-90805000D03*
X133350000Y-106045000D03*
X135890000Y-90805000D03*
X135890000Y-106045000D03*
X138430000Y-90805000D03*
X138430000Y-106045000D03*
X140970000Y-90805000D03*
X140970000Y-106045000D03*
X143510000Y-90805000D03*
X143510000Y-106045000D03*
X146050000Y-90805000D03*
X146050000Y-106045000D03*
X148590000Y-90805000D03*
X148590000Y-106045000D03*
X151130000Y-90805000D03*
X151130000Y-106045000D03*
X153670000Y-90805000D03*
X153670000Y-106045000D03*
X156210000Y-90805000D03*
X156210000Y-106045000D03*
X158750000Y-90805000D03*
X158750000Y-106045000D03*
D19*
X118110000Y-120650000D03*
D20*
X118110000Y-118110000D03*
X118110000Y-115570000D03*
X118110000Y-113030000D03*
G04 #@! TA.AperFunction,ComponentPad*
G36*
G01*
X152435000Y-69635000D02*
X153635000Y-69635000D01*
G75*
G02*
X153885000Y-69885000I0J-250000D01*
G01*
X153885000Y-71085000D01*
G75*
G02*
X153635000Y-71335000I-250000J0D01*
G01*
X152435000Y-71335000D01*
G75*
G02*
X152185000Y-71085000I0J250000D01*
G01*
X152185000Y-69885000D01*
G75*
G02*
X152435000Y-69635000I250000J0D01*
G01*
G37*
G04 #@! TD.AperFunction*
D12*
X150495000Y-70485000D03*
X147955000Y-70485000D03*
X145415000Y-70485000D03*
X142875000Y-70485000D03*
X140335000Y-70485000D03*
X137795000Y-70485000D03*
X135255000Y-70485000D03*
X132715000Y-70485000D03*
X130175000Y-70485000D03*
X127635000Y-70485000D03*
X125095000Y-70485000D03*
X122555000Y-70485000D03*
X153035000Y-73025000D03*
X150495000Y-73025000D03*
X147955000Y-73025000D03*
X145415000Y-73025000D03*
X142875000Y-73025000D03*
X140335000Y-73025000D03*
X137795000Y-73025000D03*
X135255000Y-73025000D03*
X132715000Y-73025000D03*
X130175000Y-73025000D03*
X127635000Y-73025000D03*
X125095000Y-73025000D03*
X122555000Y-73025000D03*
D21*
X146050000Y-103415000D03*
X133350000Y-77015000D03*
X140335000Y-78105000D03*
X121920000Y-100875000D03*
X114390000Y-100875000D03*
X142240000Y-78105000D03*
X120650000Y-101600000D03*
X112395000Y-101600000D03*
X137795000Y-77740000D03*
X137160000Y-100150000D03*
X137160000Y-102325000D03*
X120650000Y-100150000D03*
X116205000Y-100150000D03*
X135255000Y-77740000D03*
X148590000Y-103415000D03*
X131445000Y-76290000D03*
X116115000Y-88900000D03*
D22*
X146050000Y-106045000D02*
X146050000Y-103415000D01*
X132715000Y-76380000D02*
X133350000Y-77015000D01*
X132715000Y-73025000D02*
X132715000Y-76380000D01*
X140335000Y-73025000D02*
X140335000Y-78105000D01*
X116205000Y-100875000D02*
X121920000Y-100875000D01*
X116205000Y-100875000D02*
X114390000Y-100875000D01*
X142875000Y-77470000D02*
X142240000Y-78105000D01*
X142875000Y-73025000D02*
X142875000Y-77470000D01*
X120650000Y-101600000D02*
X112395000Y-101600000D01*
X137795000Y-73025000D02*
X137795000Y-77740000D01*
X137160000Y-100150000D02*
X137160000Y-102325000D01*
X117385000Y-100150000D02*
X120650000Y-100150000D01*
X116205000Y-100150000D02*
X117385000Y-100150000D01*
X135255000Y-77740000D02*
X135255000Y-73025000D01*
X148590000Y-106045000D02*
X148590000Y-103415000D01*
X131445000Y-76290000D02*
X130175000Y-75020000D01*
X130175000Y-75020000D02*
X130175000Y-73025000D01*
X156210000Y-90805000D02*
X156210000Y-89535000D01*
X156210000Y-89535000D02*
X155575000Y-88900000D01*
X155575000Y-88900000D02*
X130810000Y-88900000D01*
X130810000Y-88900000D02*
X116115000Y-88900000D01*
D23*
X116387290Y-55753793D02*
X116448575Y-55868450D01*
X116531052Y-55968948D01*
X116631550Y-56051425D01*
X116746207Y-56112710D01*
X116870617Y-56150450D01*
X116967581Y-56160000D01*
X189032419Y-56160000D01*
X189129383Y-56150450D01*
X189253793Y-56112710D01*
X189368450Y-56051425D01*
X189468948Y-55968948D01*
X189551425Y-55868450D01*
X189612710Y-55753793D01*
X189641162Y-55660000D01*
X196267722Y-55660000D01*
X196501387Y-55682911D01*
X196695106Y-55741398D01*
X196873777Y-55836399D01*
X197030591Y-55964294D01*
X197159574Y-56120208D01*
X197255821Y-56298214D01*
X197315658Y-56491516D01*
X197340000Y-56723109D01*
X197340001Y-147267712D01*
X197317089Y-147501386D01*
X197258601Y-147695110D01*
X197163601Y-147873776D01*
X197035706Y-148030592D01*
X196879795Y-148159573D01*
X196701786Y-148255821D01*
X196508484Y-148315658D01*
X196276892Y-148340000D01*
X189641162Y-148340000D01*
X189612710Y-148246207D01*
X189551425Y-148131550D01*
X189468948Y-148031052D01*
X189368450Y-147948575D01*
X189253793Y-147887290D01*
X189129383Y-147849550D01*
X189032785Y-147840036D01*
X189000000Y-147836807D01*
X188967581Y-147840000D01*
X176532419Y-147840000D01*
X176500000Y-147836807D01*
X176467215Y-147840036D01*
X176370617Y-147849550D01*
X176246207Y-147887290D01*
X176131550Y-147948575D01*
X176031052Y-148031052D01*
X175948575Y-148131550D01*
X175887290Y-148246207D01*
X175858838Y-148340000D01*
X129660000Y-148340000D01*
X129660000Y-146532419D01*
X129663193Y-146500000D01*
X129650450Y-146370617D01*
X129612710Y-146246207D01*
X129551425Y-146131550D01*
X129468948Y-146031052D01*
X129368450Y-145948575D01*
X129253793Y-145887290D01*
X129129383Y-145849550D01*
X129032419Y-145840000D01*
X129000000Y-145836807D01*
X128967581Y-145840000D01*
X126032408Y-145840000D01*
X125999999Y-145836808D01*
X125967590Y-145840000D01*
X125967581Y-145840000D01*
X125870617Y-145849550D01*
X125746207Y-145887290D01*
X125631549Y-145948575D01*
X125556233Y-146010386D01*
X125531052Y-146031052D01*
X125510388Y-146056231D01*
X123726620Y-147840000D01*
X117467581Y-147840000D01*
X117439671Y-147842749D01*
X117436693Y-147842728D01*
X117427522Y-147843627D01*
X117379360Y-147848689D01*
X117370617Y-147849550D01*
X117370325Y-147849638D01*
X117330473Y-147853827D01*
X117271854Y-147865860D01*
X117213116Y-147877064D01*
X117204294Y-147879728D01*
X117111075Y-147908584D01*
X117055937Y-147931762D01*
X117000463Y-147954175D01*
X116992334Y-147958498D01*
X116992330Y-147958500D01*
X116992327Y-147958502D01*
X116906489Y-148004915D01*
X116856913Y-148038355D01*
X116806844Y-148071119D01*
X116799703Y-148076943D01*
X116724514Y-148139145D01*
X116682361Y-148181594D01*
X116639629Y-148223439D01*
X116633755Y-148230540D01*
X116572079Y-148306161D01*
X116549596Y-148340000D01*
X113273381Y-148340000D01*
X108660000Y-143726620D01*
X108660000Y-131765098D01*
X110115000Y-131765098D01*
X110115000Y-132234902D01*
X110206654Y-132695679D01*
X110386440Y-133129721D01*
X110647450Y-133520349D01*
X110979651Y-133852550D01*
X111370279Y-134113560D01*
X111804321Y-134293346D01*
X112265098Y-134385000D01*
X112734902Y-134385000D01*
X113195679Y-134293346D01*
X113629721Y-134113560D01*
X114020349Y-133852550D01*
X114352550Y-133520349D01*
X114613560Y-133129721D01*
X114793346Y-132695679D01*
X114885000Y-132234902D01*
X114885000Y-131765098D01*
X191115000Y-131765098D01*
X191115000Y-132234902D01*
X191206654Y-132695679D01*
X191386440Y-133129721D01*
X191647450Y-133520349D01*
X191979651Y-133852550D01*
X192370279Y-134113560D01*
X192804321Y-134293346D01*
X193265098Y-134385000D01*
X193734902Y-134385000D01*
X194195679Y-134293346D01*
X194629721Y-134113560D01*
X195020349Y-133852550D01*
X195352550Y-133520349D01*
X195613560Y-133129721D01*
X195793346Y-132695679D01*
X195885000Y-132234902D01*
X195885000Y-131765098D01*
X195793346Y-131304321D01*
X195613560Y-130870279D01*
X195352550Y-130479651D01*
X195020349Y-130147450D01*
X194629721Y-129886440D01*
X194195679Y-129706654D01*
X193734902Y-129615000D01*
X193265098Y-129615000D01*
X192804321Y-129706654D01*
X192370279Y-129886440D01*
X191979651Y-130147450D01*
X191647450Y-130479651D01*
X191386440Y-130870279D01*
X191206654Y-131304321D01*
X191115000Y-131765098D01*
X114885000Y-131765098D01*
X114793346Y-131304321D01*
X114613560Y-130870279D01*
X114352550Y-130479651D01*
X114020349Y-130147450D01*
X113629721Y-129886440D01*
X113195679Y-129706654D01*
X112734902Y-129615000D01*
X112265098Y-129615000D01*
X111804321Y-129706654D01*
X111370279Y-129886440D01*
X110979651Y-130147450D01*
X110647450Y-130479651D01*
X110386440Y-130870279D01*
X110206654Y-131304321D01*
X110115000Y-131765098D01*
X108660000Y-131765098D01*
X108660000Y-121500000D01*
X116621928Y-121500000D01*
X116634188Y-121624482D01*
X116670498Y-121744180D01*
X116729463Y-121854494D01*
X116808815Y-121951185D01*
X116905506Y-122030537D01*
X117015820Y-122089502D01*
X117135518Y-122125812D01*
X117260000Y-122138072D01*
X117824250Y-122135000D01*
X117983000Y-121976250D01*
X117983000Y-120777000D01*
X118237000Y-120777000D01*
X118237000Y-121976250D01*
X118395750Y-122135000D01*
X118960000Y-122138072D01*
X119084482Y-122125812D01*
X119204180Y-122089502D01*
X119314494Y-122030537D01*
X119411185Y-121951185D01*
X119490537Y-121854494D01*
X119549502Y-121744180D01*
X119585812Y-121624482D01*
X119598072Y-121500000D01*
X119595000Y-120935750D01*
X119436250Y-120777000D01*
X118237000Y-120777000D01*
X117983000Y-120777000D01*
X116783750Y-120777000D01*
X116625000Y-120935750D01*
X116621928Y-121500000D01*
X108660000Y-121500000D01*
X108660000Y-119800000D01*
X116621928Y-119800000D01*
X116625000Y-120364250D01*
X116783750Y-120523000D01*
X117983000Y-120523000D01*
X117983000Y-120503000D01*
X118237000Y-120503000D01*
X118237000Y-120523000D01*
X119436250Y-120523000D01*
X119595000Y-120364250D01*
X119598072Y-119800000D01*
X119585812Y-119675518D01*
X119549502Y-119555820D01*
X119490537Y-119445506D01*
X119411185Y-119348815D01*
X119314494Y-119269463D01*
X119204180Y-119210498D01*
X119131620Y-119188487D01*
X119263475Y-119056632D01*
X119425990Y-118813411D01*
X119537932Y-118543158D01*
X119595000Y-118256260D01*
X119595000Y-117963740D01*
X119537932Y-117676842D01*
X119425990Y-117406589D01*
X119263475Y-117163368D01*
X119056632Y-116956525D01*
X118882240Y-116840000D01*
X119056632Y-116723475D01*
X119263475Y-116516632D01*
X119425990Y-116273411D01*
X119537932Y-116003158D01*
X119595000Y-115716260D01*
X119595000Y-115423740D01*
X119537932Y-115136842D01*
X119425990Y-114866589D01*
X119263475Y-114623368D01*
X119056632Y-114416525D01*
X118882240Y-114300000D01*
X119056632Y-114183475D01*
X119263475Y-113976632D01*
X119425990Y-113733411D01*
X119537932Y-113463158D01*
X119595000Y-113176260D01*
X119595000Y-112883740D01*
X119537932Y-112596842D01*
X119425990Y-112326589D01*
X119263475Y-112083368D01*
X119056632Y-111876525D01*
X118813411Y-111714010D01*
X118543158Y-111602068D01*
X118256260Y-111545000D01*
X117963740Y-111545000D01*
X117676842Y-111602068D01*
X117406589Y-111714010D01*
X117163368Y-111876525D01*
X116956525Y-112083368D01*
X116794010Y-112326589D01*
X116682068Y-112596842D01*
X116625000Y-112883740D01*
X116625000Y-113176260D01*
X116682068Y-113463158D01*
X116794010Y-113733411D01*
X116956525Y-113976632D01*
X117163368Y-114183475D01*
X117337760Y-114300000D01*
X117163368Y-114416525D01*
X116956525Y-114623368D01*
X116794010Y-114866589D01*
X116682068Y-115136842D01*
X116625000Y-115423740D01*
X116625000Y-115716260D01*
X116682068Y-116003158D01*
X116794010Y-116273411D01*
X116956525Y-116516632D01*
X117163368Y-116723475D01*
X117337760Y-116840000D01*
X117163368Y-116956525D01*
X116956525Y-117163368D01*
X116794010Y-117406589D01*
X116682068Y-117676842D01*
X116625000Y-117963740D01*
X116625000Y-118256260D01*
X116682068Y-118543158D01*
X116794010Y-118813411D01*
X116956525Y-119056632D01*
X117088380Y-119188487D01*
X117015820Y-119210498D01*
X116905506Y-119269463D01*
X116808815Y-119348815D01*
X116729463Y-119445506D01*
X116670498Y-119555820D01*
X116634188Y-119675518D01*
X116621928Y-119800000D01*
X108660000Y-119800000D01*
X108660000Y-105195000D01*
X109001928Y-105195000D01*
X109001928Y-106895000D01*
X109014188Y-107019482D01*
X109050498Y-107139180D01*
X109109463Y-107249494D01*
X109188815Y-107346185D01*
X109285506Y-107425537D01*
X109395820Y-107484502D01*
X109515518Y-107520812D01*
X109640000Y-107533072D01*
X111340000Y-107533072D01*
X111464482Y-107520812D01*
X111584180Y-107484502D01*
X111694494Y-107425537D01*
X111791185Y-107346185D01*
X111870537Y-107249494D01*
X111929502Y-107139180D01*
X111951513Y-107066620D01*
X112083368Y-107198475D01*
X112326589Y-107360990D01*
X112596842Y-107472932D01*
X112883740Y-107530000D01*
X113176260Y-107530000D01*
X113463158Y-107472932D01*
X113733411Y-107360990D01*
X113976632Y-107198475D01*
X114183475Y-106991632D01*
X114300000Y-106817240D01*
X114416525Y-106991632D01*
X114623368Y-107198475D01*
X114866589Y-107360990D01*
X115136842Y-107472932D01*
X115423740Y-107530000D01*
X115716260Y-107530000D01*
X116003158Y-107472932D01*
X116273411Y-107360990D01*
X116516632Y-107198475D01*
X116723475Y-106991632D01*
X116840000Y-106817240D01*
X116956525Y-106991632D01*
X117163368Y-107198475D01*
X117406589Y-107360990D01*
X117676842Y-107472932D01*
X117963740Y-107530000D01*
X118256260Y-107530000D01*
X118543158Y-107472932D01*
X118813411Y-107360990D01*
X119056632Y-107198475D01*
X119263475Y-106991632D01*
X119380000Y-106817240D01*
X119496525Y-106991632D01*
X119703368Y-107198475D01*
X119946589Y-107360990D01*
X120216842Y-107472932D01*
X120503740Y-107530000D01*
X120796260Y-107530000D01*
X121083158Y-107472932D01*
X121353411Y-107360990D01*
X121596632Y-107198475D01*
X121803475Y-106991632D01*
X121920000Y-106817240D01*
X122036525Y-106991632D01*
X122243368Y-107198475D01*
X122486589Y-107360990D01*
X122756842Y-107472932D01*
X123043740Y-107530000D01*
X123336260Y-107530000D01*
X123623158Y-107472932D01*
X123893411Y-107360990D01*
X124136632Y-107198475D01*
X124343475Y-106991632D01*
X124460000Y-106817240D01*
X124576525Y-106991632D01*
X124783368Y-107198475D01*
X125026589Y-107360990D01*
X125296842Y-107472932D01*
X125583740Y-107530000D01*
X125876260Y-107530000D01*
X126163158Y-107472932D01*
X126433411Y-107360990D01*
X126676632Y-107198475D01*
X126883475Y-106991632D01*
X127000000Y-106817240D01*
X127116525Y-106991632D01*
X127323368Y-107198475D01*
X127566589Y-107360990D01*
X127836842Y-107472932D01*
X128123740Y-107530000D01*
X128416260Y-107530000D01*
X128703158Y-107472932D01*
X128973411Y-107360990D01*
X129216632Y-107198475D01*
X129423475Y-106991632D01*
X129540000Y-106817240D01*
X129656525Y-106991632D01*
X129863368Y-107198475D01*
X130106589Y-107360990D01*
X130376842Y-107472932D01*
X130663740Y-107530000D01*
X130956260Y-107530000D01*
X131243158Y-107472932D01*
X131513411Y-107360990D01*
X131756632Y-107198475D01*
X131963475Y-106991632D01*
X132080000Y-106817240D01*
X132196525Y-106991632D01*
X132403368Y-107198475D01*
X132646589Y-107360990D01*
X132916842Y-107472932D01*
X133203740Y-107530000D01*
X133496260Y-107530000D01*
X133783158Y-107472932D01*
X134053411Y-107360990D01*
X134296632Y-107198475D01*
X134503475Y-106991632D01*
X134620000Y-106817240D01*
X134736525Y-106991632D01*
X134943368Y-107198475D01*
X135186589Y-107360990D01*
X135456842Y-107472932D01*
X135743740Y-107530000D01*
X136036260Y-107530000D01*
X136323158Y-107472932D01*
X136593411Y-107360990D01*
X136836632Y-107198475D01*
X137043475Y-106991632D01*
X137160000Y-106817240D01*
X137276525Y-106991632D01*
X137483368Y-107198475D01*
X137726589Y-107360990D01*
X137996842Y-107472932D01*
X138283740Y-107530000D01*
X138576260Y-107530000D01*
X138863158Y-107472932D01*
X139133411Y-107360990D01*
X139376632Y-107198475D01*
X139583475Y-106991632D01*
X139700000Y-106817240D01*
X139816525Y-106991632D01*
X140023368Y-107198475D01*
X140266589Y-107360990D01*
X140536842Y-107472932D01*
X140823740Y-107530000D01*
X141116260Y-107530000D01*
X141403158Y-107472932D01*
X141673411Y-107360990D01*
X141916632Y-107198475D01*
X142123475Y-106991632D01*
X142240000Y-106817240D01*
X142356525Y-106991632D01*
X142563368Y-107198475D01*
X142806589Y-107360990D01*
X143076842Y-107472932D01*
X143363740Y-107530000D01*
X143656260Y-107530000D01*
X143943158Y-107472932D01*
X144213411Y-107360990D01*
X144456632Y-107198475D01*
X144663475Y-106991632D01*
X144780000Y-106817240D01*
X144896525Y-106991632D01*
X145103368Y-107198475D01*
X145346589Y-107360990D01*
X145616842Y-107472932D01*
X145903740Y-107530000D01*
X146196260Y-107530000D01*
X146483158Y-107472932D01*
X146753411Y-107360990D01*
X146996632Y-107198475D01*
X147203475Y-106991632D01*
X147320000Y-106817240D01*
X147436525Y-106991632D01*
X147643368Y-107198475D01*
X147886589Y-107360990D01*
X148156842Y-107472932D01*
X148443740Y-107530000D01*
X148736260Y-107530000D01*
X149023158Y-107472932D01*
X149293411Y-107360990D01*
X149536632Y-107198475D01*
X149743475Y-106991632D01*
X149860000Y-106817240D01*
X149976525Y-106991632D01*
X150183368Y-107198475D01*
X150426589Y-107360990D01*
X150696842Y-107472932D01*
X150983740Y-107530000D01*
X151276260Y-107530000D01*
X151563158Y-107472932D01*
X151833411Y-107360990D01*
X152076632Y-107198475D01*
X152283475Y-106991632D01*
X152400000Y-106817240D01*
X152516525Y-106991632D01*
X152723368Y-107198475D01*
X152966589Y-107360990D01*
X153236842Y-107472932D01*
X153523740Y-107530000D01*
X153816260Y-107530000D01*
X154103158Y-107472932D01*
X154373411Y-107360990D01*
X154616632Y-107198475D01*
X154741710Y-107073397D01*
X155361208Y-107073397D01*
X155438843Y-107322472D01*
X155702883Y-107448371D01*
X155986411Y-107520339D01*
X156278531Y-107535611D01*
X156568019Y-107493599D01*
X156843747Y-107395919D01*
X156981157Y-107322472D01*
X157058792Y-107073397D01*
X156210000Y-106224605D01*
X155361208Y-107073397D01*
X154741710Y-107073397D01*
X154823475Y-106991632D01*
X154939311Y-106818271D01*
X155181603Y-106893792D01*
X156030395Y-106045000D01*
X156389605Y-106045000D01*
X157238397Y-106893792D01*
X157480689Y-106818271D01*
X157596525Y-106991632D01*
X157803368Y-107198475D01*
X158046589Y-107360990D01*
X158316842Y-107472932D01*
X158603740Y-107530000D01*
X158896260Y-107530000D01*
X159183158Y-107472932D01*
X159453411Y-107360990D01*
X159696632Y-107198475D01*
X159903475Y-106991632D01*
X160065990Y-106748411D01*
X160177932Y-106478158D01*
X160235000Y-106191260D01*
X160235000Y-105898740D01*
X160177932Y-105611842D01*
X160065990Y-105341589D01*
X159903475Y-105098368D01*
X159696632Y-104891525D01*
X159453411Y-104729010D01*
X159183158Y-104617068D01*
X158896260Y-104560000D01*
X158603740Y-104560000D01*
X158316842Y-104617068D01*
X158046589Y-104729010D01*
X157803368Y-104891525D01*
X157596525Y-105098368D01*
X157480689Y-105271729D01*
X157238397Y-105196208D01*
X156389605Y-106045000D01*
X156030395Y-106045000D01*
X155181603Y-105196208D01*
X154939311Y-105271729D01*
X154823475Y-105098368D01*
X154741710Y-105016603D01*
X155361208Y-105016603D01*
X156210000Y-105865395D01*
X157058792Y-105016603D01*
X156981157Y-104767528D01*
X156717117Y-104641629D01*
X156433589Y-104569661D01*
X156141469Y-104554389D01*
X155851981Y-104596401D01*
X155576253Y-104694081D01*
X155438843Y-104767528D01*
X155361208Y-105016603D01*
X154741710Y-105016603D01*
X154616632Y-104891525D01*
X154373411Y-104729010D01*
X154103158Y-104617068D01*
X153816260Y-104560000D01*
X153523740Y-104560000D01*
X153236842Y-104617068D01*
X152966589Y-104729010D01*
X152723368Y-104891525D01*
X152516525Y-105098368D01*
X152400000Y-105272760D01*
X152283475Y-105098368D01*
X152076632Y-104891525D01*
X151833411Y-104729010D01*
X151563158Y-104617068D01*
X151276260Y-104560000D01*
X150983740Y-104560000D01*
X150696842Y-104617068D01*
X150426589Y-104729010D01*
X150183368Y-104891525D01*
X149976525Y-105098368D01*
X149860000Y-105272760D01*
X149743475Y-105098368D01*
X149536632Y-104891525D01*
X149350000Y-104766822D01*
X149350000Y-104118711D01*
X149393937Y-104074774D01*
X149507205Y-103905256D01*
X149585226Y-103716898D01*
X149625000Y-103516939D01*
X149625000Y-103313061D01*
X149585226Y-103113102D01*
X149507205Y-102924744D01*
X149393937Y-102755226D01*
X149249774Y-102611063D01*
X149080256Y-102497795D01*
X148891898Y-102419774D01*
X148691939Y-102380000D01*
X148488061Y-102380000D01*
X148288102Y-102419774D01*
X148099744Y-102497795D01*
X147930226Y-102611063D01*
X147786063Y-102755226D01*
X147672795Y-102924744D01*
X147594774Y-103113102D01*
X147555000Y-103313061D01*
X147555000Y-103516939D01*
X147594774Y-103716898D01*
X147672795Y-103905256D01*
X147786063Y-104074774D01*
X147830001Y-104118712D01*
X147830000Y-104766821D01*
X147643368Y-104891525D01*
X147436525Y-105098368D01*
X147320000Y-105272760D01*
X147203475Y-105098368D01*
X146996632Y-104891525D01*
X146810000Y-104766822D01*
X146810000Y-104118711D01*
X146853937Y-104074774D01*
X146967205Y-103905256D01*
X147045226Y-103716898D01*
X147085000Y-103516939D01*
X147085000Y-103313061D01*
X147045226Y-103113102D01*
X146967205Y-102924744D01*
X146853937Y-102755226D01*
X146709774Y-102611063D01*
X146540256Y-102497795D01*
X146351898Y-102419774D01*
X146151939Y-102380000D01*
X145948061Y-102380000D01*
X145748102Y-102419774D01*
X145559744Y-102497795D01*
X145390226Y-102611063D01*
X145246063Y-102755226D01*
X145132795Y-102924744D01*
X145054774Y-103113102D01*
X145015000Y-103313061D01*
X145015000Y-103516939D01*
X145054774Y-103716898D01*
X145132795Y-103905256D01*
X145246063Y-104074774D01*
X145290001Y-104118712D01*
X145290000Y-104766821D01*
X145103368Y-104891525D01*
X144896525Y-105098368D01*
X144780000Y-105272760D01*
X144663475Y-105098368D01*
X144456632Y-104891525D01*
X144213411Y-104729010D01*
X143943158Y-104617068D01*
X143656260Y-104560000D01*
X143363740Y-104560000D01*
X143076842Y-104617068D01*
X142806589Y-104729010D01*
X142563368Y-104891525D01*
X142356525Y-105098368D01*
X142240000Y-105272760D01*
X142123475Y-105098368D01*
X141916632Y-104891525D01*
X141673411Y-104729010D01*
X141403158Y-104617068D01*
X141116260Y-104560000D01*
X140823740Y-104560000D01*
X140536842Y-104617068D01*
X140266589Y-104729010D01*
X140023368Y-104891525D01*
X139816525Y-105098368D01*
X139700000Y-105272760D01*
X139583475Y-105098368D01*
X139376632Y-104891525D01*
X139133411Y-104729010D01*
X138863158Y-104617068D01*
X138576260Y-104560000D01*
X138283740Y-104560000D01*
X137996842Y-104617068D01*
X137726589Y-104729010D01*
X137483368Y-104891525D01*
X137276525Y-105098368D01*
X137160000Y-105272760D01*
X137043475Y-105098368D01*
X136836632Y-104891525D01*
X136593411Y-104729010D01*
X136323158Y-104617068D01*
X136036260Y-104560000D01*
X135743740Y-104560000D01*
X135456842Y-104617068D01*
X135186589Y-104729010D01*
X134943368Y-104891525D01*
X134736525Y-105098368D01*
X134620000Y-105272760D01*
X134503475Y-105098368D01*
X134296632Y-104891525D01*
X134053411Y-104729010D01*
X133783158Y-104617068D01*
X133496260Y-104560000D01*
X133203740Y-104560000D01*
X132916842Y-104617068D01*
X132646589Y-104729010D01*
X132403368Y-104891525D01*
X132196525Y-105098368D01*
X132080000Y-105272760D01*
X131963475Y-105098368D01*
X131756632Y-104891525D01*
X131513411Y-104729010D01*
X131243158Y-104617068D01*
X130956260Y-104560000D01*
X130663740Y-104560000D01*
X130376842Y-104617068D01*
X130106589Y-104729010D01*
X129863368Y-104891525D01*
X129656525Y-105098368D01*
X129540000Y-105272760D01*
X129423475Y-105098368D01*
X129216632Y-104891525D01*
X128973411Y-104729010D01*
X128703158Y-104617068D01*
X128416260Y-104560000D01*
X128123740Y-104560000D01*
X127836842Y-104617068D01*
X127566589Y-104729010D01*
X127323368Y-104891525D01*
X127116525Y-105098368D01*
X127000000Y-105272760D01*
X126883475Y-105098368D01*
X126676632Y-104891525D01*
X126433411Y-104729010D01*
X126163158Y-104617068D01*
X125876260Y-104560000D01*
X125583740Y-104560000D01*
X125296842Y-104617068D01*
X125026589Y-104729010D01*
X124783368Y-104891525D01*
X124576525Y-105098368D01*
X124460000Y-105272760D01*
X124343475Y-105098368D01*
X124136632Y-104891525D01*
X123893411Y-104729010D01*
X123623158Y-104617068D01*
X123336260Y-104560000D01*
X123043740Y-104560000D01*
X122756842Y-104617068D01*
X122486589Y-104729010D01*
X122243368Y-104891525D01*
X122036525Y-105098368D01*
X121920000Y-105272760D01*
X121803475Y-105098368D01*
X121596632Y-104891525D01*
X121353411Y-104729010D01*
X121083158Y-104617068D01*
X120796260Y-104560000D01*
X120503740Y-104560000D01*
X120216842Y-104617068D01*
X119946589Y-104729010D01*
X119703368Y-104891525D01*
X119496525Y-105098368D01*
X119380000Y-105272760D01*
X119263475Y-105098368D01*
X119056632Y-104891525D01*
X118813411Y-104729010D01*
X118543158Y-104617068D01*
X118256260Y-104560000D01*
X117963740Y-104560000D01*
X117676842Y-104617068D01*
X117406589Y-104729010D01*
X117163368Y-104891525D01*
X116956525Y-105098368D01*
X116840000Y-105272760D01*
X116723475Y-105098368D01*
X116516632Y-104891525D01*
X116273411Y-104729010D01*
X116003158Y-104617068D01*
X115716260Y-104560000D01*
X115423740Y-104560000D01*
X115136842Y-104617068D01*
X114866589Y-104729010D01*
X114623368Y-104891525D01*
X114416525Y-105098368D01*
X114300000Y-105272760D01*
X114183475Y-105098368D01*
X113976632Y-104891525D01*
X113733411Y-104729010D01*
X113463158Y-104617068D01*
X113176260Y-104560000D01*
X112883740Y-104560000D01*
X112596842Y-104617068D01*
X112326589Y-104729010D01*
X112083368Y-104891525D01*
X111951513Y-105023380D01*
X111929502Y-104950820D01*
X111870537Y-104840506D01*
X111791185Y-104743815D01*
X111694494Y-104664463D01*
X111584180Y-104605498D01*
X111464482Y-104569188D01*
X111340000Y-104556928D01*
X109640000Y-104556928D01*
X109515518Y-104569188D01*
X109395820Y-104605498D01*
X109285506Y-104664463D01*
X109188815Y-104743815D01*
X109109463Y-104840506D01*
X109050498Y-104950820D01*
X109014188Y-105070518D01*
X109001928Y-105195000D01*
X108660000Y-105195000D01*
X108660000Y-101498061D01*
X111360000Y-101498061D01*
X111360000Y-101701939D01*
X111399774Y-101901898D01*
X111477795Y-102090256D01*
X111591063Y-102259774D01*
X111735226Y-102403937D01*
X111904744Y-102517205D01*
X112093102Y-102595226D01*
X112293061Y-102635000D01*
X112496939Y-102635000D01*
X112696898Y-102595226D01*
X112885256Y-102517205D01*
X113054774Y-102403937D01*
X113098711Y-102360000D01*
X119946289Y-102360000D01*
X119990226Y-102403937D01*
X120159744Y-102517205D01*
X120348102Y-102595226D01*
X120548061Y-102635000D01*
X120751939Y-102635000D01*
X120951898Y-102595226D01*
X121140256Y-102517205D01*
X121309774Y-102403937D01*
X121453937Y-102259774D01*
X121567205Y-102090256D01*
X121645226Y-101901898D01*
X121650254Y-101876621D01*
X121818061Y-101910000D01*
X122021939Y-101910000D01*
X122221898Y-101870226D01*
X122410256Y-101792205D01*
X122579774Y-101678937D01*
X122723937Y-101534774D01*
X122837205Y-101365256D01*
X122915226Y-101176898D01*
X122955000Y-100976939D01*
X122955000Y-100773061D01*
X122915226Y-100573102D01*
X122837205Y-100384744D01*
X122723937Y-100215226D01*
X122579774Y-100071063D01*
X122545349Y-100048061D01*
X136125000Y-100048061D01*
X136125000Y-100251939D01*
X136164774Y-100451898D01*
X136242795Y-100640256D01*
X136356063Y-100809774D01*
X136400000Y-100853711D01*
X136400001Y-101621288D01*
X136356063Y-101665226D01*
X136242795Y-101834744D01*
X136164774Y-102023102D01*
X136125000Y-102223061D01*
X136125000Y-102426939D01*
X136164774Y-102626898D01*
X136242795Y-102815256D01*
X136356063Y-102984774D01*
X136500226Y-103128937D01*
X136669744Y-103242205D01*
X136858102Y-103320226D01*
X137058061Y-103360000D01*
X137261939Y-103360000D01*
X137461898Y-103320226D01*
X137650256Y-103242205D01*
X137819774Y-103128937D01*
X137963937Y-102984774D01*
X138077205Y-102815256D01*
X138155226Y-102626898D01*
X138195000Y-102426939D01*
X138195000Y-102223061D01*
X138155226Y-102023102D01*
X138077205Y-101834744D01*
X137963937Y-101665226D01*
X137920000Y-101621289D01*
X137920000Y-100853711D01*
X137963937Y-100809774D01*
X138077205Y-100640256D01*
X138155226Y-100451898D01*
X138195000Y-100251939D01*
X138195000Y-100048061D01*
X138155226Y-99848102D01*
X138077205Y-99659744D01*
X137963937Y-99490226D01*
X137819774Y-99346063D01*
X137650256Y-99232795D01*
X137461898Y-99154774D01*
X137261939Y-99115000D01*
X137058061Y-99115000D01*
X136858102Y-99154774D01*
X136669744Y-99232795D01*
X136500226Y-99346063D01*
X136356063Y-99490226D01*
X136242795Y-99659744D01*
X136164774Y-99848102D01*
X136125000Y-100048061D01*
X122545349Y-100048061D01*
X122410256Y-99957795D01*
X122221898Y-99879774D01*
X122021939Y-99840000D01*
X121818061Y-99840000D01*
X121650254Y-99873379D01*
X121645226Y-99848102D01*
X121567205Y-99659744D01*
X121453937Y-99490226D01*
X121309774Y-99346063D01*
X121140256Y-99232795D01*
X120951898Y-99154774D01*
X120751939Y-99115000D01*
X120548061Y-99115000D01*
X120348102Y-99154774D01*
X120159744Y-99232795D01*
X119990226Y-99346063D01*
X119946289Y-99390000D01*
X116908711Y-99390000D01*
X116864774Y-99346063D01*
X116695256Y-99232795D01*
X116506898Y-99154774D01*
X116306939Y-99115000D01*
X116103061Y-99115000D01*
X115903102Y-99154774D01*
X115714744Y-99232795D01*
X115545226Y-99346063D01*
X115401063Y-99490226D01*
X115287795Y-99659744D01*
X115209774Y-99848102D01*
X115170000Y-100048061D01*
X115170000Y-100115000D01*
X115093711Y-100115000D01*
X115049774Y-100071063D01*
X114880256Y-99957795D01*
X114691898Y-99879774D01*
X114491939Y-99840000D01*
X114288061Y-99840000D01*
X114088102Y-99879774D01*
X113899744Y-99957795D01*
X113730226Y-100071063D01*
X113586063Y-100215226D01*
X113472795Y-100384744D01*
X113394774Y-100573102D01*
X113355000Y-100773061D01*
X113355000Y-100840000D01*
X113098711Y-100840000D01*
X113054774Y-100796063D01*
X112885256Y-100682795D01*
X112696898Y-100604774D01*
X112496939Y-100565000D01*
X112293061Y-100565000D01*
X112093102Y-100604774D01*
X111904744Y-100682795D01*
X111735226Y-100796063D01*
X111591063Y-100940226D01*
X111477795Y-101109744D01*
X111399774Y-101298102D01*
X111360000Y-101498061D01*
X108660000Y-101498061D01*
X108660000Y-94468740D01*
X153455000Y-94468740D01*
X153455000Y-94761260D01*
X153512068Y-95048158D01*
X153624010Y-95318411D01*
X153786525Y-95561632D01*
X153993368Y-95768475D01*
X154167760Y-95885000D01*
X153993368Y-96001525D01*
X153786525Y-96208368D01*
X153624010Y-96451589D01*
X153512068Y-96721842D01*
X153455000Y-97008740D01*
X153455000Y-97301260D01*
X153512068Y-97588158D01*
X153624010Y-97858411D01*
X153786525Y-98101632D01*
X153993368Y-98308475D01*
X154167760Y-98425000D01*
X153993368Y-98541525D01*
X153786525Y-98748368D01*
X153624010Y-98991589D01*
X153512068Y-99261842D01*
X153455000Y-99548740D01*
X153455000Y-99841260D01*
X153512068Y-100128158D01*
X153624010Y-100398411D01*
X153786525Y-100641632D01*
X153993368Y-100848475D01*
X154167760Y-100965000D01*
X153993368Y-101081525D01*
X153786525Y-101288368D01*
X153624010Y-101531589D01*
X153512068Y-101801842D01*
X153455000Y-102088740D01*
X153455000Y-102381260D01*
X153512068Y-102668158D01*
X153624010Y-102938411D01*
X153786525Y-103181632D01*
X153993368Y-103388475D01*
X154236589Y-103550990D01*
X154506842Y-103662932D01*
X154793740Y-103720000D01*
X155086260Y-103720000D01*
X155373158Y-103662932D01*
X155643411Y-103550990D01*
X155886632Y-103388475D01*
X156093475Y-103181632D01*
X156255990Y-102938411D01*
X156367932Y-102668158D01*
X156425000Y-102381260D01*
X156425000Y-102088740D01*
X156367932Y-101801842D01*
X156255990Y-101531589D01*
X156093475Y-101288368D01*
X155886632Y-101081525D01*
X155712240Y-100965000D01*
X155886632Y-100848475D01*
X156093475Y-100641632D01*
X156255990Y-100398411D01*
X156367932Y-100128158D01*
X156425000Y-99841260D01*
X156425000Y-99548740D01*
X156367932Y-99261842D01*
X156255990Y-98991589D01*
X156093475Y-98748368D01*
X155886632Y-98541525D01*
X155712240Y-98425000D01*
X155886632Y-98308475D01*
X156093475Y-98101632D01*
X156255990Y-97858411D01*
X156367932Y-97588158D01*
X156425000Y-97301260D01*
X156425000Y-97008740D01*
X156367932Y-96721842D01*
X156255990Y-96451589D01*
X156093475Y-96208368D01*
X155886632Y-96001525D01*
X155712240Y-95885000D01*
X155886632Y-95768475D01*
X156093475Y-95561632D01*
X156255990Y-95318411D01*
X156367932Y-95048158D01*
X156425000Y-94761260D01*
X156425000Y-94468740D01*
X156367932Y-94181842D01*
X156255990Y-93911589D01*
X156093475Y-93668368D01*
X155886632Y-93461525D01*
X155643411Y-93299010D01*
X155373158Y-93187068D01*
X155086260Y-93130000D01*
X154793740Y-93130000D01*
X154506842Y-93187068D01*
X154236589Y-93299010D01*
X153993368Y-93461525D01*
X153786525Y-93668368D01*
X153624010Y-93911589D01*
X153512068Y-94181842D01*
X153455000Y-94468740D01*
X108660000Y-94468740D01*
X108660000Y-91833397D01*
X109641208Y-91833397D01*
X109718843Y-92082472D01*
X109982883Y-92208371D01*
X110266411Y-92280339D01*
X110558531Y-92295611D01*
X110848019Y-92253599D01*
X111123747Y-92155919D01*
X111261157Y-92082472D01*
X111338792Y-91833397D01*
X112181208Y-91833397D01*
X112258843Y-92082472D01*
X112522883Y-92208371D01*
X112806411Y-92280339D01*
X113098531Y-92295611D01*
X113388019Y-92253599D01*
X113663747Y-92155919D01*
X113801157Y-92082472D01*
X113878792Y-91833397D01*
X113030000Y-90984605D01*
X112181208Y-91833397D01*
X111338792Y-91833397D01*
X110490000Y-90984605D01*
X109641208Y-91833397D01*
X108660000Y-91833397D01*
X108660000Y-90873531D01*
X108999389Y-90873531D01*
X109041401Y-91163019D01*
X109139081Y-91438747D01*
X109212528Y-91576157D01*
X109461603Y-91653792D01*
X110310395Y-90805000D01*
X110669605Y-90805000D01*
X111518397Y-91653792D01*
X111760000Y-91578486D01*
X112001603Y-91653792D01*
X112850395Y-90805000D01*
X113209605Y-90805000D01*
X114058397Y-91653792D01*
X114300689Y-91578271D01*
X114416525Y-91751632D01*
X114623368Y-91958475D01*
X114866589Y-92120990D01*
X115136842Y-92232932D01*
X115423740Y-92290000D01*
X115716260Y-92290000D01*
X116003158Y-92232932D01*
X116273411Y-92120990D01*
X116516632Y-91958475D01*
X116723475Y-91751632D01*
X116840000Y-91577240D01*
X116956525Y-91751632D01*
X117163368Y-91958475D01*
X117406589Y-92120990D01*
X117676842Y-92232932D01*
X117963740Y-92290000D01*
X118256260Y-92290000D01*
X118543158Y-92232932D01*
X118813411Y-92120990D01*
X119056632Y-91958475D01*
X119263475Y-91751632D01*
X119380000Y-91577240D01*
X119496525Y-91751632D01*
X119703368Y-91958475D01*
X119946589Y-92120990D01*
X120216842Y-92232932D01*
X120503740Y-92290000D01*
X120796260Y-92290000D01*
X121083158Y-92232932D01*
X121353411Y-92120990D01*
X121596632Y-91958475D01*
X121803475Y-91751632D01*
X121920000Y-91577240D01*
X122036525Y-91751632D01*
X122243368Y-91958475D01*
X122486589Y-92120990D01*
X122756842Y-92232932D01*
X123043740Y-92290000D01*
X123336260Y-92290000D01*
X123623158Y-92232932D01*
X123893411Y-92120990D01*
X124136632Y-91958475D01*
X124343475Y-91751632D01*
X124460000Y-91577240D01*
X124576525Y-91751632D01*
X124783368Y-91958475D01*
X125026589Y-92120990D01*
X125296842Y-92232932D01*
X125583740Y-92290000D01*
X125876260Y-92290000D01*
X126163158Y-92232932D01*
X126433411Y-92120990D01*
X126676632Y-91958475D01*
X126883475Y-91751632D01*
X127000000Y-91577240D01*
X127116525Y-91751632D01*
X127323368Y-91958475D01*
X127566589Y-92120990D01*
X127836842Y-92232932D01*
X128123740Y-92290000D01*
X128416260Y-92290000D01*
X128703158Y-92232932D01*
X128973411Y-92120990D01*
X129216632Y-91958475D01*
X129423475Y-91751632D01*
X129540000Y-91577240D01*
X129656525Y-91751632D01*
X129863368Y-91958475D01*
X130106589Y-92120990D01*
X130376842Y-92232932D01*
X130663740Y-92290000D01*
X130956260Y-92290000D01*
X131243158Y-92232932D01*
X131513411Y-92120990D01*
X131756632Y-91958475D01*
X131963475Y-91751632D01*
X132080000Y-91577240D01*
X132196525Y-91751632D01*
X132403368Y-91958475D01*
X132646589Y-92120990D01*
X132916842Y-92232932D01*
X133203740Y-92290000D01*
X133496260Y-92290000D01*
X133783158Y-92232932D01*
X134053411Y-92120990D01*
X134296632Y-91958475D01*
X134503475Y-91751632D01*
X134620000Y-91577240D01*
X134736525Y-91751632D01*
X134943368Y-91958475D01*
X135186589Y-92120990D01*
X135456842Y-92232932D01*
X135743740Y-92290000D01*
X136036260Y-92290000D01*
X136323158Y-92232932D01*
X136593411Y-92120990D01*
X136836632Y-91958475D01*
X137043475Y-91751632D01*
X137160000Y-91577240D01*
X137276525Y-91751632D01*
X137483368Y-91958475D01*
X137726589Y-92120990D01*
X137996842Y-92232932D01*
X138283740Y-92290000D01*
X138576260Y-92290000D01*
X138863158Y-92232932D01*
X139133411Y-92120990D01*
X139376632Y-91958475D01*
X139583475Y-91751632D01*
X139700000Y-91577240D01*
X139816525Y-91751632D01*
X140023368Y-91958475D01*
X140266589Y-92120990D01*
X140536842Y-92232932D01*
X140823740Y-92290000D01*
X141116260Y-92290000D01*
X141403158Y-92232932D01*
X141673411Y-92120990D01*
X141916632Y-91958475D01*
X142123475Y-91751632D01*
X142240000Y-91577240D01*
X142356525Y-91751632D01*
X142563368Y-91958475D01*
X142806589Y-92120990D01*
X143076842Y-92232932D01*
X143363740Y-92290000D01*
X143656260Y-92290000D01*
X143943158Y-92232932D01*
X144213411Y-92120990D01*
X144456632Y-91958475D01*
X144663475Y-91751632D01*
X144780000Y-91577240D01*
X144896525Y-91751632D01*
X145103368Y-91958475D01*
X145346589Y-92120990D01*
X145616842Y-92232932D01*
X145903740Y-92290000D01*
X146196260Y-92290000D01*
X146483158Y-92232932D01*
X146753411Y-92120990D01*
X146996632Y-91958475D01*
X147203475Y-91751632D01*
X147320000Y-91577240D01*
X147436525Y-91751632D01*
X147643368Y-91958475D01*
X147886589Y-92120990D01*
X148156842Y-92232932D01*
X148443740Y-92290000D01*
X148736260Y-92290000D01*
X149023158Y-92232932D01*
X149293411Y-92120990D01*
X149536632Y-91958475D01*
X149743475Y-91751632D01*
X149860000Y-91577240D01*
X149976525Y-91751632D01*
X150183368Y-91958475D01*
X150426589Y-92120990D01*
X150696842Y-92232932D01*
X150983740Y-92290000D01*
X151276260Y-92290000D01*
X151563158Y-92232932D01*
X151833411Y-92120990D01*
X152076632Y-91958475D01*
X152283475Y-91751632D01*
X152400000Y-91577240D01*
X152516525Y-91751632D01*
X152723368Y-91958475D01*
X152966589Y-92120990D01*
X153236842Y-92232932D01*
X153523740Y-92290000D01*
X153816260Y-92290000D01*
X154103158Y-92232932D01*
X154373411Y-92120990D01*
X154616632Y-91958475D01*
X154823475Y-91751632D01*
X154940000Y-91577240D01*
X155056525Y-91751632D01*
X155263368Y-91958475D01*
X155506589Y-92120990D01*
X155776842Y-92232932D01*
X156063740Y-92290000D01*
X156356260Y-92290000D01*
X156643158Y-92232932D01*
X156913411Y-92120990D01*
X157156632Y-91958475D01*
X157363475Y-91751632D01*
X157480000Y-91577240D01*
X157596525Y-91751632D01*
X157803368Y-91958475D01*
X158046589Y-92120990D01*
X158316842Y-92232932D01*
X158603740Y-92290000D01*
X158896260Y-92290000D01*
X159183158Y-92232932D01*
X159453411Y-92120990D01*
X159696632Y-91958475D01*
X159903475Y-91751632D01*
X160065990Y-91508411D01*
X160177932Y-91238158D01*
X160235000Y-90951260D01*
X160235000Y-90658740D01*
X160177932Y-90371842D01*
X160065990Y-90101589D01*
X159903475Y-89858368D01*
X159696632Y-89651525D01*
X159453411Y-89489010D01*
X159183158Y-89377068D01*
X158896260Y-89320000D01*
X158603740Y-89320000D01*
X158316842Y-89377068D01*
X158046589Y-89489010D01*
X157803368Y-89651525D01*
X157596525Y-89858368D01*
X157480000Y-90032760D01*
X157363475Y-89858368D01*
X157156632Y-89651525D01*
X156973074Y-89528875D01*
X156959003Y-89386014D01*
X156915546Y-89242753D01*
X156844974Y-89110724D01*
X156773799Y-89023997D01*
X156750001Y-88994999D01*
X156721002Y-88971200D01*
X156138803Y-88389002D01*
X156115001Y-88359999D01*
X155999276Y-88265026D01*
X155867247Y-88194454D01*
X155723986Y-88150997D01*
X155612333Y-88140000D01*
X155612322Y-88140000D01*
X155575000Y-88136324D01*
X155537678Y-88140000D01*
X116818711Y-88140000D01*
X116774774Y-88096063D01*
X116605256Y-87982795D01*
X116416898Y-87904774D01*
X116216939Y-87865000D01*
X116013061Y-87865000D01*
X115813102Y-87904774D01*
X115624744Y-87982795D01*
X115455226Y-88096063D01*
X115311063Y-88240226D01*
X115197795Y-88409744D01*
X115119774Y-88598102D01*
X115080000Y-88798061D01*
X115080000Y-89001939D01*
X115119774Y-89201898D01*
X115188108Y-89366870D01*
X115136842Y-89377068D01*
X114866589Y-89489010D01*
X114623368Y-89651525D01*
X114416525Y-89858368D01*
X114300689Y-90031729D01*
X114058397Y-89956208D01*
X113209605Y-90805000D01*
X112850395Y-90805000D01*
X112001603Y-89956208D01*
X111760000Y-90031514D01*
X111518397Y-89956208D01*
X110669605Y-90805000D01*
X110310395Y-90805000D01*
X109461603Y-89956208D01*
X109212528Y-90033843D01*
X109086629Y-90297883D01*
X109014661Y-90581411D01*
X108999389Y-90873531D01*
X108660000Y-90873531D01*
X108660000Y-89776603D01*
X109641208Y-89776603D01*
X110490000Y-90625395D01*
X111338792Y-89776603D01*
X112181208Y-89776603D01*
X113030000Y-90625395D01*
X113878792Y-89776603D01*
X113801157Y-89527528D01*
X113537117Y-89401629D01*
X113253589Y-89329661D01*
X112961469Y-89314389D01*
X112671981Y-89356401D01*
X112396253Y-89454081D01*
X112258843Y-89527528D01*
X112181208Y-89776603D01*
X111338792Y-89776603D01*
X111261157Y-89527528D01*
X110997117Y-89401629D01*
X110713589Y-89329661D01*
X110421469Y-89314389D01*
X110131981Y-89356401D01*
X109856253Y-89454081D01*
X109718843Y-89527528D01*
X109641208Y-89776603D01*
X108660000Y-89776603D01*
X108660000Y-81777000D01*
X110961928Y-81777000D01*
X110961928Y-83577000D01*
X110974188Y-83701482D01*
X111010498Y-83821180D01*
X111069463Y-83931494D01*
X111148815Y-84028185D01*
X111245506Y-84107537D01*
X111355820Y-84166502D01*
X111475518Y-84202812D01*
X111600000Y-84215072D01*
X113400000Y-84215072D01*
X113524482Y-84202812D01*
X113644180Y-84166502D01*
X113754494Y-84107537D01*
X113851185Y-84028185D01*
X113930537Y-83931494D01*
X113989502Y-83821180D01*
X114025812Y-83701482D01*
X114028059Y-83678665D01*
X116929000Y-83678665D01*
X116929000Y-83961335D01*
X116984147Y-84238574D01*
X117092320Y-84499727D01*
X117249363Y-84734759D01*
X117449241Y-84934637D01*
X117684273Y-85091680D01*
X117945426Y-85199853D01*
X118222665Y-85255000D01*
X118505335Y-85255000D01*
X118782574Y-85199853D01*
X119043727Y-85091680D01*
X119278759Y-84934637D01*
X119478637Y-84734759D01*
X119635680Y-84499727D01*
X119743853Y-84238574D01*
X119757684Y-84169039D01*
X127132096Y-84169039D01*
X127172754Y-84303087D01*
X127292963Y-84557420D01*
X127460481Y-84783414D01*
X127668869Y-84972385D01*
X127910119Y-85117070D01*
X128174960Y-85211909D01*
X128397000Y-85090624D01*
X128397000Y-83947000D01*
X128651000Y-83947000D01*
X128651000Y-85090624D01*
X128873040Y-85211909D01*
X129137881Y-85117070D01*
X129379131Y-84972385D01*
X129587519Y-84783414D01*
X129755037Y-84557420D01*
X129875246Y-84303087D01*
X129915904Y-84169039D01*
X129793915Y-83947000D01*
X128651000Y-83947000D01*
X128397000Y-83947000D01*
X127254085Y-83947000D01*
X127132096Y-84169039D01*
X119757684Y-84169039D01*
X119799000Y-83961335D01*
X119799000Y-83678665D01*
X119757685Y-83470961D01*
X127132096Y-83470961D01*
X127254085Y-83693000D01*
X128397000Y-83693000D01*
X128397000Y-82549376D01*
X128651000Y-82549376D01*
X128651000Y-83693000D01*
X129793915Y-83693000D01*
X129915904Y-83470961D01*
X129875246Y-83336913D01*
X129755037Y-83082580D01*
X129587519Y-82856586D01*
X129379131Y-82667615D01*
X129137881Y-82522930D01*
X128873040Y-82428091D01*
X128651000Y-82549376D01*
X128397000Y-82549376D01*
X128174960Y-82428091D01*
X127910119Y-82522930D01*
X127668869Y-82667615D01*
X127460481Y-82856586D01*
X127292963Y-83082580D01*
X127172754Y-83336913D01*
X127132096Y-83470961D01*
X119757685Y-83470961D01*
X119743853Y-83401426D01*
X119635680Y-83140273D01*
X119478637Y-82905241D01*
X119278759Y-82705363D01*
X119043727Y-82548320D01*
X118782574Y-82440147D01*
X118505335Y-82385000D01*
X118222665Y-82385000D01*
X117945426Y-82440147D01*
X117684273Y-82548320D01*
X117449241Y-82705363D01*
X117249363Y-82905241D01*
X117092320Y-83140273D01*
X116984147Y-83401426D01*
X116929000Y-83678665D01*
X114028059Y-83678665D01*
X114038072Y-83577000D01*
X114038072Y-81777000D01*
X114025812Y-81652518D01*
X113989502Y-81532820D01*
X113930537Y-81422506D01*
X113851185Y-81325815D01*
X113754494Y-81246463D01*
X113644180Y-81187498D01*
X113625873Y-81181944D01*
X113692312Y-81115505D01*
X113860299Y-80864095D01*
X113976011Y-80584743D01*
X114035000Y-80288184D01*
X114035000Y-79985816D01*
X113976011Y-79689257D01*
X113945114Y-79614665D01*
X116929000Y-79614665D01*
X116929000Y-79897335D01*
X116984147Y-80174574D01*
X117092320Y-80435727D01*
X117249363Y-80670759D01*
X117449241Y-80870637D01*
X117684273Y-81027680D01*
X117945426Y-81135853D01*
X118222665Y-81191000D01*
X118505335Y-81191000D01*
X118782574Y-81135853D01*
X119043727Y-81027680D01*
X119278759Y-80870637D01*
X119478637Y-80670759D01*
X119635680Y-80435727D01*
X119743853Y-80174574D01*
X119757684Y-80105039D01*
X127132096Y-80105039D01*
X127172754Y-80239087D01*
X127292963Y-80493420D01*
X127460481Y-80719414D01*
X127668869Y-80908385D01*
X127910119Y-81053070D01*
X128174960Y-81147909D01*
X128397000Y-81026624D01*
X128397000Y-79883000D01*
X128651000Y-79883000D01*
X128651000Y-81026624D01*
X128873040Y-81147909D01*
X129137881Y-81053070D01*
X129379131Y-80908385D01*
X129587519Y-80719414D01*
X129755037Y-80493420D01*
X129875246Y-80239087D01*
X129915904Y-80105039D01*
X129793915Y-79883000D01*
X128651000Y-79883000D01*
X128397000Y-79883000D01*
X127254085Y-79883000D01*
X127132096Y-80105039D01*
X119757684Y-80105039D01*
X119799000Y-79897335D01*
X119799000Y-79614665D01*
X119757685Y-79406961D01*
X127132096Y-79406961D01*
X127254085Y-79629000D01*
X128397000Y-79629000D01*
X128397000Y-78485376D01*
X128651000Y-78485376D01*
X128651000Y-79629000D01*
X129793915Y-79629000D01*
X129915904Y-79406961D01*
X129875246Y-79272913D01*
X129755037Y-79018580D01*
X129587519Y-78792586D01*
X129379131Y-78603615D01*
X129137881Y-78458930D01*
X128873040Y-78364091D01*
X128651000Y-78485376D01*
X128397000Y-78485376D01*
X128174960Y-78364091D01*
X127910119Y-78458930D01*
X127668869Y-78603615D01*
X127460481Y-78792586D01*
X127292963Y-79018580D01*
X127172754Y-79272913D01*
X127132096Y-79406961D01*
X119757685Y-79406961D01*
X119743853Y-79337426D01*
X119635680Y-79076273D01*
X119478637Y-78841241D01*
X119278759Y-78641363D01*
X119043727Y-78484320D01*
X118782574Y-78376147D01*
X118505335Y-78321000D01*
X118222665Y-78321000D01*
X117945426Y-78376147D01*
X117684273Y-78484320D01*
X117449241Y-78641363D01*
X117249363Y-78841241D01*
X117092320Y-79076273D01*
X116984147Y-79337426D01*
X116929000Y-79614665D01*
X113945114Y-79614665D01*
X113860299Y-79409905D01*
X113692312Y-79158495D01*
X113478505Y-78944688D01*
X113227095Y-78776701D01*
X112947743Y-78660989D01*
X112651184Y-78602000D01*
X112348816Y-78602000D01*
X112052257Y-78660989D01*
X111772905Y-78776701D01*
X111521495Y-78944688D01*
X111307688Y-79158495D01*
X111139701Y-79409905D01*
X111023989Y-79689257D01*
X110965000Y-79985816D01*
X110965000Y-80288184D01*
X111023989Y-80584743D01*
X111139701Y-80864095D01*
X111307688Y-81115505D01*
X111374127Y-81181944D01*
X111355820Y-81187498D01*
X111245506Y-81246463D01*
X111148815Y-81325815D01*
X111069463Y-81422506D01*
X111010498Y-81532820D01*
X110974188Y-81652518D01*
X110961928Y-81777000D01*
X108660000Y-81777000D01*
X108660000Y-72379000D01*
X110961928Y-72379000D01*
X110961928Y-74179000D01*
X110974188Y-74303482D01*
X111010498Y-74423180D01*
X111069463Y-74533494D01*
X111148815Y-74630185D01*
X111245506Y-74709537D01*
X111355820Y-74768502D01*
X111475518Y-74804812D01*
X111600000Y-74817072D01*
X113400000Y-74817072D01*
X113524482Y-74804812D01*
X113644180Y-74768502D01*
X113754494Y-74709537D01*
X113851185Y-74630185D01*
X113930537Y-74533494D01*
X113989502Y-74423180D01*
X114025812Y-74303482D01*
X114038072Y-74179000D01*
X114038072Y-72878740D01*
X121070000Y-72878740D01*
X121070000Y-73171260D01*
X121127068Y-73458158D01*
X121239010Y-73728411D01*
X121401525Y-73971632D01*
X121608368Y-74178475D01*
X121851589Y-74340990D01*
X122121842Y-74452932D01*
X122408740Y-74510000D01*
X122701260Y-74510000D01*
X122988158Y-74452932D01*
X123258411Y-74340990D01*
X123501632Y-74178475D01*
X123708475Y-73971632D01*
X123825000Y-73797240D01*
X123941525Y-73971632D01*
X124148368Y-74178475D01*
X124391589Y-74340990D01*
X124661842Y-74452932D01*
X124948740Y-74510000D01*
X125241260Y-74510000D01*
X125528158Y-74452932D01*
X125798411Y-74340990D01*
X126041632Y-74178475D01*
X126248475Y-73971632D01*
X126365000Y-73797240D01*
X126481525Y-73971632D01*
X126688368Y-74178475D01*
X126931589Y-74340990D01*
X127201842Y-74452932D01*
X127488740Y-74510000D01*
X127781260Y-74510000D01*
X128068158Y-74452932D01*
X128338411Y-74340990D01*
X128581632Y-74178475D01*
X128788475Y-73971632D01*
X128905000Y-73797240D01*
X129021525Y-73971632D01*
X129228368Y-74178475D01*
X129415000Y-74303179D01*
X129415000Y-74982677D01*
X129411324Y-75020000D01*
X129415000Y-75057322D01*
X129415000Y-75057332D01*
X129425997Y-75168985D01*
X129452089Y-75255000D01*
X129469454Y-75312246D01*
X129540026Y-75444276D01*
X129574320Y-75486063D01*
X129634999Y-75560001D01*
X129664003Y-75583804D01*
X130410000Y-76329802D01*
X130410000Y-76391939D01*
X130449774Y-76591898D01*
X130527795Y-76780256D01*
X130641063Y-76949774D01*
X130785226Y-77093937D01*
X130954744Y-77207205D01*
X131143102Y-77285226D01*
X131343061Y-77325000D01*
X131546939Y-77325000D01*
X131746898Y-77285226D01*
X131935256Y-77207205D01*
X132104774Y-77093937D01*
X132229455Y-76969256D01*
X132315000Y-77054801D01*
X132315000Y-77116939D01*
X132354774Y-77316898D01*
X132432795Y-77505256D01*
X132546063Y-77674774D01*
X132690226Y-77818937D01*
X132859744Y-77932205D01*
X133048102Y-78010226D01*
X133248061Y-78050000D01*
X133451939Y-78050000D01*
X133651898Y-78010226D01*
X133840256Y-77932205D01*
X134009774Y-77818937D01*
X134153937Y-77674774D01*
X134237605Y-77549556D01*
X134220000Y-77638061D01*
X134220000Y-77841939D01*
X134259774Y-78041898D01*
X134337795Y-78230256D01*
X134451063Y-78399774D01*
X134595226Y-78543937D01*
X134764744Y-78657205D01*
X134953102Y-78735226D01*
X135153061Y-78775000D01*
X135356939Y-78775000D01*
X135556898Y-78735226D01*
X135745256Y-78657205D01*
X135914774Y-78543937D01*
X136058937Y-78399774D01*
X136172205Y-78230256D01*
X136250226Y-78041898D01*
X136290000Y-77841939D01*
X136290000Y-77638061D01*
X136250226Y-77438102D01*
X136172205Y-77249744D01*
X136058937Y-77080226D01*
X136015000Y-77036289D01*
X136015000Y-74303178D01*
X136201632Y-74178475D01*
X136408475Y-73971632D01*
X136525000Y-73797240D01*
X136641525Y-73971632D01*
X136848368Y-74178475D01*
X137035000Y-74303179D01*
X137035001Y-77036288D01*
X136991063Y-77080226D01*
X136877795Y-77249744D01*
X136799774Y-77438102D01*
X136760000Y-77638061D01*
X136760000Y-77841939D01*
X136799774Y-78041898D01*
X136877795Y-78230256D01*
X136991063Y-78399774D01*
X137135226Y-78543937D01*
X137304744Y-78657205D01*
X137493102Y-78735226D01*
X137693061Y-78775000D01*
X137896939Y-78775000D01*
X138096898Y-78735226D01*
X138285256Y-78657205D01*
X138454774Y-78543937D01*
X138598937Y-78399774D01*
X138712205Y-78230256D01*
X138790226Y-78041898D01*
X138830000Y-77841939D01*
X138830000Y-77638061D01*
X138790226Y-77438102D01*
X138712205Y-77249744D01*
X138598937Y-77080226D01*
X138555000Y-77036289D01*
X138555000Y-74303178D01*
X138741632Y-74178475D01*
X138948475Y-73971632D01*
X139065000Y-73797240D01*
X139181525Y-73971632D01*
X139388368Y-74178475D01*
X139575000Y-74303179D01*
X139575001Y-77401288D01*
X139531063Y-77445226D01*
X139417795Y-77614744D01*
X139339774Y-77803102D01*
X139300000Y-78003061D01*
X139300000Y-78206939D01*
X139339774Y-78406898D01*
X139417795Y-78595256D01*
X139531063Y-78764774D01*
X139675226Y-78908937D01*
X139844744Y-79022205D01*
X140033102Y-79100226D01*
X140233061Y-79140000D01*
X140436939Y-79140000D01*
X140636898Y-79100226D01*
X140825256Y-79022205D01*
X140994774Y-78908937D01*
X141138937Y-78764774D01*
X141252205Y-78595256D01*
X141287500Y-78510047D01*
X141322795Y-78595256D01*
X141436063Y-78764774D01*
X141580226Y-78908937D01*
X141749744Y-79022205D01*
X141938102Y-79100226D01*
X142138061Y-79140000D01*
X142341939Y-79140000D01*
X142541898Y-79100226D01*
X142730256Y-79022205D01*
X142899774Y-78908937D01*
X143043937Y-78764774D01*
X143157205Y-78595256D01*
X143235226Y-78406898D01*
X143275000Y-78206939D01*
X143275000Y-78144802D01*
X143386002Y-78033800D01*
X143415001Y-78010001D01*
X143509974Y-77894276D01*
X143580546Y-77762247D01*
X143624003Y-77618986D01*
X143635000Y-77507333D01*
X143638677Y-77470000D01*
X143635000Y-77432667D01*
X143635000Y-77259721D01*
X176300000Y-77259721D01*
X176300000Y-77680279D01*
X176382047Y-78092756D01*
X176542988Y-78481302D01*
X176776637Y-78830983D01*
X177074017Y-79128363D01*
X177423698Y-79362012D01*
X177812244Y-79522953D01*
X178224721Y-79605000D01*
X178645279Y-79605000D01*
X179057756Y-79522953D01*
X179446302Y-79362012D01*
X179795983Y-79128363D01*
X179962693Y-78961653D01*
X180932952Y-78961653D01*
X181088962Y-79277214D01*
X181463745Y-79468020D01*
X181868551Y-79582044D01*
X182287824Y-79614902D01*
X182705451Y-79565334D01*
X183105383Y-79435243D01*
X183401038Y-79277214D01*
X183557048Y-78961653D01*
X182245000Y-77649605D01*
X180932952Y-78961653D01*
X179962693Y-78961653D01*
X180093363Y-78830983D01*
X180327012Y-78481302D01*
X180341600Y-78446084D01*
X180437786Y-78626038D01*
X180753347Y-78782048D01*
X182065395Y-77470000D01*
X182424605Y-77470000D01*
X183736653Y-78782048D01*
X183916928Y-78692922D01*
X183916928Y-78970000D01*
X183929188Y-79094482D01*
X183965498Y-79214180D01*
X184024463Y-79324494D01*
X184103815Y-79421185D01*
X184200506Y-79500537D01*
X184310820Y-79559502D01*
X184430518Y-79595812D01*
X184555000Y-79608072D01*
X187555000Y-79608072D01*
X187679482Y-79595812D01*
X187799180Y-79559502D01*
X187909494Y-79500537D01*
X188006185Y-79421185D01*
X188085537Y-79324494D01*
X188144502Y-79214180D01*
X188180812Y-79094482D01*
X188193072Y-78970000D01*
X188193072Y-75970000D01*
X188180812Y-75845518D01*
X188144502Y-75725820D01*
X188085537Y-75615506D01*
X188006185Y-75518815D01*
X187909494Y-75439463D01*
X187799180Y-75380498D01*
X187679482Y-75344188D01*
X187555000Y-75331928D01*
X184555000Y-75331928D01*
X184430518Y-75344188D01*
X184310820Y-75380498D01*
X184200506Y-75439463D01*
X184103815Y-75518815D01*
X184024463Y-75615506D01*
X183965498Y-75725820D01*
X183929188Y-75845518D01*
X183916928Y-75970000D01*
X183916928Y-76247078D01*
X183736653Y-76157952D01*
X182424605Y-77470000D01*
X182065395Y-77470000D01*
X180753347Y-76157952D01*
X180437786Y-76313962D01*
X180343650Y-76498865D01*
X180327012Y-76458698D01*
X180093363Y-76109017D01*
X179962693Y-75978347D01*
X180932952Y-75978347D01*
X182245000Y-77290395D01*
X183557048Y-75978347D01*
X183401038Y-75662786D01*
X183026255Y-75471980D01*
X182621449Y-75357956D01*
X182202176Y-75325098D01*
X181784549Y-75374666D01*
X181384617Y-75504757D01*
X181088962Y-75662786D01*
X180932952Y-75978347D01*
X179962693Y-75978347D01*
X179795983Y-75811637D01*
X179446302Y-75577988D01*
X179057756Y-75417047D01*
X178645279Y-75335000D01*
X178224721Y-75335000D01*
X177812244Y-75417047D01*
X177423698Y-75577988D01*
X177074017Y-75811637D01*
X176776637Y-76109017D01*
X176542988Y-76458698D01*
X176382047Y-76847244D01*
X176300000Y-77259721D01*
X143635000Y-77259721D01*
X143635000Y-74303178D01*
X143821632Y-74178475D01*
X144028475Y-73971632D01*
X144145000Y-73797240D01*
X144261525Y-73971632D01*
X144468368Y-74178475D01*
X144711589Y-74340990D01*
X144981842Y-74452932D01*
X145268740Y-74510000D01*
X145561260Y-74510000D01*
X145848158Y-74452932D01*
X146118411Y-74340990D01*
X146361632Y-74178475D01*
X146568475Y-73971632D01*
X146685000Y-73797240D01*
X146801525Y-73971632D01*
X147008368Y-74178475D01*
X147251589Y-74340990D01*
X147521842Y-74452932D01*
X147808740Y-74510000D01*
X148101260Y-74510000D01*
X148388158Y-74452932D01*
X148658411Y-74340990D01*
X148901632Y-74178475D01*
X149108475Y-73971632D01*
X149225000Y-73797240D01*
X149341525Y-73971632D01*
X149548368Y-74178475D01*
X149791589Y-74340990D01*
X150061842Y-74452932D01*
X150348740Y-74510000D01*
X150641260Y-74510000D01*
X150928158Y-74452932D01*
X151198411Y-74340990D01*
X151441632Y-74178475D01*
X151648475Y-73971632D01*
X151765000Y-73797240D01*
X151881525Y-73971632D01*
X152088368Y-74178475D01*
X152331589Y-74340990D01*
X152601842Y-74452932D01*
X152888740Y-74510000D01*
X153181260Y-74510000D01*
X153468158Y-74452932D01*
X153738411Y-74340990D01*
X153981632Y-74178475D01*
X154188475Y-73971632D01*
X154350990Y-73728411D01*
X154462932Y-73458158D01*
X154520000Y-73171260D01*
X154520000Y-72878740D01*
X154462932Y-72591842D01*
X154350990Y-72321589D01*
X154188475Y-72078368D01*
X154056620Y-71946513D01*
X154129180Y-71924502D01*
X154239494Y-71865537D01*
X154336185Y-71786185D01*
X154415537Y-71689494D01*
X154474502Y-71579180D01*
X154510812Y-71459482D01*
X154523072Y-71335000D01*
X154520000Y-70770750D01*
X154361250Y-70612000D01*
X153162000Y-70612000D01*
X153162000Y-70632000D01*
X152908000Y-70632000D01*
X152908000Y-70612000D01*
X152888000Y-70612000D01*
X152888000Y-70358000D01*
X152908000Y-70358000D01*
X152908000Y-69158750D01*
X153162000Y-69158750D01*
X153162000Y-70358000D01*
X154361250Y-70358000D01*
X154520000Y-70199250D01*
X154523072Y-69635000D01*
X154510812Y-69510518D01*
X154474502Y-69390820D01*
X154415537Y-69280506D01*
X154336185Y-69183815D01*
X154239494Y-69104463D01*
X154129180Y-69045498D01*
X154009482Y-69009188D01*
X153885000Y-68996928D01*
X153320750Y-69000000D01*
X153162000Y-69158750D01*
X152908000Y-69158750D01*
X152749250Y-69000000D01*
X152185000Y-68996928D01*
X152060518Y-69009188D01*
X151940820Y-69045498D01*
X151830506Y-69104463D01*
X151733815Y-69183815D01*
X151654463Y-69280506D01*
X151595498Y-69390820D01*
X151559188Y-69510518D01*
X151546928Y-69635000D01*
X151546975Y-69643557D01*
X151523397Y-69636208D01*
X150674605Y-70485000D01*
X151523397Y-71333792D01*
X151546975Y-71326443D01*
X151546928Y-71335000D01*
X151559188Y-71459482D01*
X151595498Y-71579180D01*
X151654463Y-71689494D01*
X151733815Y-71786185D01*
X151830506Y-71865537D01*
X151940820Y-71924502D01*
X152013380Y-71946513D01*
X151881525Y-72078368D01*
X151765000Y-72252760D01*
X151648475Y-72078368D01*
X151441632Y-71871525D01*
X151268271Y-71755689D01*
X151343792Y-71513397D01*
X150495000Y-70664605D01*
X149646208Y-71513397D01*
X149721729Y-71755689D01*
X149548368Y-71871525D01*
X149341525Y-72078368D01*
X149225000Y-72252760D01*
X149108475Y-72078368D01*
X148901632Y-71871525D01*
X148728271Y-71755689D01*
X148803792Y-71513397D01*
X147955000Y-70664605D01*
X147106208Y-71513397D01*
X147181729Y-71755689D01*
X147008368Y-71871525D01*
X146801525Y-72078368D01*
X146685000Y-72252760D01*
X146568475Y-72078368D01*
X146361632Y-71871525D01*
X146188271Y-71755689D01*
X146263792Y-71513397D01*
X145415000Y-70664605D01*
X144566208Y-71513397D01*
X144641729Y-71755689D01*
X144468368Y-71871525D01*
X144261525Y-72078368D01*
X144145000Y-72252760D01*
X144028475Y-72078368D01*
X143821632Y-71871525D01*
X143648271Y-71755689D01*
X143723792Y-71513397D01*
X142875000Y-70664605D01*
X142026208Y-71513397D01*
X142101729Y-71755689D01*
X141928368Y-71871525D01*
X141721525Y-72078368D01*
X141605000Y-72252760D01*
X141488475Y-72078368D01*
X141281632Y-71871525D01*
X141108271Y-71755689D01*
X141183792Y-71513397D01*
X140335000Y-70664605D01*
X139486208Y-71513397D01*
X139561729Y-71755689D01*
X139388368Y-71871525D01*
X139181525Y-72078368D01*
X139065000Y-72252760D01*
X138948475Y-72078368D01*
X138741632Y-71871525D01*
X138568271Y-71755689D01*
X138643792Y-71513397D01*
X137795000Y-70664605D01*
X136946208Y-71513397D01*
X137021729Y-71755689D01*
X136848368Y-71871525D01*
X136641525Y-72078368D01*
X136525000Y-72252760D01*
X136408475Y-72078368D01*
X136201632Y-71871525D01*
X136028271Y-71755689D01*
X136103792Y-71513397D01*
X135255000Y-70664605D01*
X134406208Y-71513397D01*
X134481729Y-71755689D01*
X134308368Y-71871525D01*
X134101525Y-72078368D01*
X133985000Y-72252760D01*
X133868475Y-72078368D01*
X133661632Y-71871525D01*
X133488271Y-71755689D01*
X133563792Y-71513397D01*
X132715000Y-70664605D01*
X131866208Y-71513397D01*
X131941729Y-71755689D01*
X131768368Y-71871525D01*
X131561525Y-72078368D01*
X131445000Y-72252760D01*
X131328475Y-72078368D01*
X131121632Y-71871525D01*
X130948271Y-71755689D01*
X131023792Y-71513397D01*
X130175000Y-70664605D01*
X129326208Y-71513397D01*
X129401729Y-71755689D01*
X129228368Y-71871525D01*
X129021525Y-72078368D01*
X128905000Y-72252760D01*
X128788475Y-72078368D01*
X128581632Y-71871525D01*
X128408271Y-71755689D01*
X128483792Y-71513397D01*
X127635000Y-70664605D01*
X126786208Y-71513397D01*
X126861729Y-71755689D01*
X126688368Y-71871525D01*
X126481525Y-72078368D01*
X126365000Y-72252760D01*
X126248475Y-72078368D01*
X126041632Y-71871525D01*
X125868271Y-71755689D01*
X125943792Y-71513397D01*
X125095000Y-70664605D01*
X124246208Y-71513397D01*
X124321729Y-71755689D01*
X124148368Y-71871525D01*
X123941525Y-72078368D01*
X123825000Y-72252760D01*
X123708475Y-72078368D01*
X123501632Y-71871525D01*
X123328271Y-71755689D01*
X123403792Y-71513397D01*
X122555000Y-70664605D01*
X121706208Y-71513397D01*
X121781729Y-71755689D01*
X121608368Y-71871525D01*
X121401525Y-72078368D01*
X121239010Y-72321589D01*
X121127068Y-72591842D01*
X121070000Y-72878740D01*
X114038072Y-72878740D01*
X114038072Y-72379000D01*
X114025812Y-72254518D01*
X113989502Y-72134820D01*
X113930537Y-72024506D01*
X113851185Y-71927815D01*
X113754494Y-71848463D01*
X113644180Y-71789498D01*
X113625873Y-71783944D01*
X113692312Y-71717505D01*
X113860299Y-71466095D01*
X113976011Y-71186743D01*
X114035000Y-70890184D01*
X114035000Y-70587816D01*
X114028181Y-70553531D01*
X121064389Y-70553531D01*
X121106401Y-70843019D01*
X121204081Y-71118747D01*
X121277528Y-71256157D01*
X121526603Y-71333792D01*
X122375395Y-70485000D01*
X122734605Y-70485000D01*
X123583397Y-71333792D01*
X123825000Y-71258486D01*
X124066603Y-71333792D01*
X124915395Y-70485000D01*
X125274605Y-70485000D01*
X126123397Y-71333792D01*
X126365000Y-71258486D01*
X126606603Y-71333792D01*
X127455395Y-70485000D01*
X127814605Y-70485000D01*
X128663397Y-71333792D01*
X128905000Y-71258486D01*
X129146603Y-71333792D01*
X129995395Y-70485000D01*
X130354605Y-70485000D01*
X131203397Y-71333792D01*
X131445000Y-71258486D01*
X131686603Y-71333792D01*
X132535395Y-70485000D01*
X132894605Y-70485000D01*
X133743397Y-71333792D01*
X133985000Y-71258486D01*
X134226603Y-71333792D01*
X135075395Y-70485000D01*
X135434605Y-70485000D01*
X136283397Y-71333792D01*
X136525000Y-71258486D01*
X136766603Y-71333792D01*
X137615395Y-70485000D01*
X137974605Y-70485000D01*
X138823397Y-71333792D01*
X139065000Y-71258486D01*
X139306603Y-71333792D01*
X140155395Y-70485000D01*
X140514605Y-70485000D01*
X141363397Y-71333792D01*
X141605000Y-71258486D01*
X141846603Y-71333792D01*
X142695395Y-70485000D01*
X143054605Y-70485000D01*
X143903397Y-71333792D01*
X144145000Y-71258486D01*
X144386603Y-71333792D01*
X145235395Y-70485000D01*
X145594605Y-70485000D01*
X146443397Y-71333792D01*
X146685000Y-71258486D01*
X146926603Y-71333792D01*
X147775395Y-70485000D01*
X148134605Y-70485000D01*
X148983397Y-71333792D01*
X149225000Y-71258486D01*
X149466603Y-71333792D01*
X150315395Y-70485000D01*
X149466603Y-69636208D01*
X149225000Y-69711514D01*
X148983397Y-69636208D01*
X148134605Y-70485000D01*
X147775395Y-70485000D01*
X146926603Y-69636208D01*
X146685000Y-69711514D01*
X146443397Y-69636208D01*
X145594605Y-70485000D01*
X145235395Y-70485000D01*
X144386603Y-69636208D01*
X144145000Y-69711514D01*
X143903397Y-69636208D01*
X143054605Y-70485000D01*
X142695395Y-70485000D01*
X141846603Y-69636208D01*
X141605000Y-69711514D01*
X141363397Y-69636208D01*
X140514605Y-70485000D01*
X140155395Y-70485000D01*
X139306603Y-69636208D01*
X139065000Y-69711514D01*
X138823397Y-69636208D01*
X137974605Y-70485000D01*
X137615395Y-70485000D01*
X136766603Y-69636208D01*
X136525000Y-69711514D01*
X136283397Y-69636208D01*
X135434605Y-70485000D01*
X135075395Y-70485000D01*
X134226603Y-69636208D01*
X133985000Y-69711514D01*
X133743397Y-69636208D01*
X132894605Y-70485000D01*
X132535395Y-70485000D01*
X131686603Y-69636208D01*
X131445000Y-69711514D01*
X131203397Y-69636208D01*
X130354605Y-70485000D01*
X129995395Y-70485000D01*
X129146603Y-69636208D01*
X128905000Y-69711514D01*
X128663397Y-69636208D01*
X127814605Y-70485000D01*
X127455395Y-70485000D01*
X126606603Y-69636208D01*
X126365000Y-69711514D01*
X126123397Y-69636208D01*
X125274605Y-70485000D01*
X124915395Y-70485000D01*
X124066603Y-69636208D01*
X123825000Y-69711514D01*
X123583397Y-69636208D01*
X122734605Y-70485000D01*
X122375395Y-70485000D01*
X121526603Y-69636208D01*
X121277528Y-69713843D01*
X121151629Y-69977883D01*
X121079661Y-70261411D01*
X121064389Y-70553531D01*
X114028181Y-70553531D01*
X113976011Y-70291257D01*
X113860299Y-70011905D01*
X113692312Y-69760495D01*
X113478505Y-69546688D01*
X113343684Y-69456603D01*
X121706208Y-69456603D01*
X122555000Y-70305395D01*
X123403792Y-69456603D01*
X124246208Y-69456603D01*
X125095000Y-70305395D01*
X125943792Y-69456603D01*
X126786208Y-69456603D01*
X127635000Y-70305395D01*
X128483792Y-69456603D01*
X129326208Y-69456603D01*
X130175000Y-70305395D01*
X131023792Y-69456603D01*
X131866208Y-69456603D01*
X132715000Y-70305395D01*
X133563792Y-69456603D01*
X134406208Y-69456603D01*
X135255000Y-70305395D01*
X136103792Y-69456603D01*
X136946208Y-69456603D01*
X137795000Y-70305395D01*
X138643792Y-69456603D01*
X139486208Y-69456603D01*
X140335000Y-70305395D01*
X141183792Y-69456603D01*
X142026208Y-69456603D01*
X142875000Y-70305395D01*
X143723792Y-69456603D01*
X144566208Y-69456603D01*
X145415000Y-70305395D01*
X146263792Y-69456603D01*
X147106208Y-69456603D01*
X147955000Y-70305395D01*
X148803792Y-69456603D01*
X149646208Y-69456603D01*
X150495000Y-70305395D01*
X151343792Y-69456603D01*
X151266157Y-69207528D01*
X151002117Y-69081629D01*
X150718589Y-69009661D01*
X150426469Y-68994389D01*
X150136981Y-69036401D01*
X149861253Y-69134081D01*
X149723843Y-69207528D01*
X149646208Y-69456603D01*
X148803792Y-69456603D01*
X148726157Y-69207528D01*
X148462117Y-69081629D01*
X148178589Y-69009661D01*
X147886469Y-68994389D01*
X147596981Y-69036401D01*
X147321253Y-69134081D01*
X147183843Y-69207528D01*
X147106208Y-69456603D01*
X146263792Y-69456603D01*
X146186157Y-69207528D01*
X145922117Y-69081629D01*
X145638589Y-69009661D01*
X145346469Y-68994389D01*
X145056981Y-69036401D01*
X144781253Y-69134081D01*
X144643843Y-69207528D01*
X144566208Y-69456603D01*
X143723792Y-69456603D01*
X143646157Y-69207528D01*
X143382117Y-69081629D01*
X143098589Y-69009661D01*
X142806469Y-68994389D01*
X142516981Y-69036401D01*
X142241253Y-69134081D01*
X142103843Y-69207528D01*
X142026208Y-69456603D01*
X141183792Y-69456603D01*
X141106157Y-69207528D01*
X140842117Y-69081629D01*
X140558589Y-69009661D01*
X140266469Y-68994389D01*
X139976981Y-69036401D01*
X139701253Y-69134081D01*
X139563843Y-69207528D01*
X139486208Y-69456603D01*
X138643792Y-69456603D01*
X138566157Y-69207528D01*
X138302117Y-69081629D01*
X138018589Y-69009661D01*
X137726469Y-68994389D01*
X137436981Y-69036401D01*
X137161253Y-69134081D01*
X137023843Y-69207528D01*
X136946208Y-69456603D01*
X136103792Y-69456603D01*
X136026157Y-69207528D01*
X135762117Y-69081629D01*
X135478589Y-69009661D01*
X135186469Y-68994389D01*
X134896981Y-69036401D01*
X134621253Y-69134081D01*
X134483843Y-69207528D01*
X134406208Y-69456603D01*
X133563792Y-69456603D01*
X133486157Y-69207528D01*
X133222117Y-69081629D01*
X132938589Y-69009661D01*
X132646469Y-68994389D01*
X132356981Y-69036401D01*
X132081253Y-69134081D01*
X131943843Y-69207528D01*
X131866208Y-69456603D01*
X131023792Y-69456603D01*
X130946157Y-69207528D01*
X130682117Y-69081629D01*
X130398589Y-69009661D01*
X130106469Y-68994389D01*
X129816981Y-69036401D01*
X129541253Y-69134081D01*
X129403843Y-69207528D01*
X129326208Y-69456603D01*
X128483792Y-69456603D01*
X128406157Y-69207528D01*
X128142117Y-69081629D01*
X127858589Y-69009661D01*
X127566469Y-68994389D01*
X127276981Y-69036401D01*
X127001253Y-69134081D01*
X126863843Y-69207528D01*
X126786208Y-69456603D01*
X125943792Y-69456603D01*
X125866157Y-69207528D01*
X125602117Y-69081629D01*
X125318589Y-69009661D01*
X125026469Y-68994389D01*
X124736981Y-69036401D01*
X124461253Y-69134081D01*
X124323843Y-69207528D01*
X124246208Y-69456603D01*
X123403792Y-69456603D01*
X123326157Y-69207528D01*
X123062117Y-69081629D01*
X122778589Y-69009661D01*
X122486469Y-68994389D01*
X122196981Y-69036401D01*
X121921253Y-69134081D01*
X121783843Y-69207528D01*
X121706208Y-69456603D01*
X113343684Y-69456603D01*
X113227095Y-69378701D01*
X112947743Y-69262989D01*
X112651184Y-69204000D01*
X112348816Y-69204000D01*
X112052257Y-69262989D01*
X111772905Y-69378701D01*
X111521495Y-69546688D01*
X111307688Y-69760495D01*
X111139701Y-70011905D01*
X111023989Y-70291257D01*
X110965000Y-70587816D01*
X110965000Y-70890184D01*
X111023989Y-71186743D01*
X111139701Y-71466095D01*
X111307688Y-71717505D01*
X111374127Y-71783944D01*
X111355820Y-71789498D01*
X111245506Y-71848463D01*
X111148815Y-71927815D01*
X111069463Y-72024506D01*
X111010498Y-72134820D01*
X110974188Y-72254518D01*
X110961928Y-72379000D01*
X108660000Y-72379000D01*
X108660000Y-67939600D01*
X177468328Y-67939600D01*
X177480588Y-68064082D01*
X177516898Y-68183780D01*
X177575863Y-68294094D01*
X177655215Y-68390785D01*
X177751906Y-68470137D01*
X177862220Y-68529102D01*
X177981918Y-68565412D01*
X178106400Y-68577672D01*
X179570650Y-68574600D01*
X179729400Y-68415850D01*
X179729400Y-66316600D01*
X179983400Y-66316600D01*
X179983400Y-68415850D01*
X180142150Y-68574600D01*
X181606400Y-68577672D01*
X181730882Y-68565412D01*
X181850580Y-68529102D01*
X181960894Y-68470137D01*
X182057585Y-68390785D01*
X182136937Y-68294094D01*
X182168328Y-68235367D01*
X182168328Y-70939600D01*
X182180588Y-71064082D01*
X182216898Y-71183780D01*
X182275863Y-71294094D01*
X182355215Y-71390785D01*
X182451906Y-71470137D01*
X182562220Y-71529102D01*
X182681918Y-71565412D01*
X182806400Y-71577672D01*
X186306400Y-71577672D01*
X186430882Y-71565412D01*
X186550580Y-71529102D01*
X186660894Y-71470137D01*
X186757585Y-71390785D01*
X186836937Y-71294094D01*
X186895902Y-71183780D01*
X186932212Y-71064082D01*
X186944472Y-70939600D01*
X186944472Y-67439600D01*
X186932212Y-67315118D01*
X186895902Y-67195420D01*
X186836937Y-67085106D01*
X186757585Y-66988415D01*
X186660894Y-66909063D01*
X186550580Y-66850098D01*
X186430882Y-66813788D01*
X186306400Y-66801528D01*
X182806400Y-66801528D01*
X182681918Y-66813788D01*
X182562220Y-66850098D01*
X182451906Y-66909063D01*
X182355215Y-66988415D01*
X182275863Y-67085106D01*
X182242809Y-67146945D01*
X182241400Y-66475350D01*
X182082650Y-66316600D01*
X179983400Y-66316600D01*
X179729400Y-66316600D01*
X177630150Y-66316600D01*
X177471400Y-66475350D01*
X177468328Y-67939600D01*
X108660000Y-67939600D01*
X108660000Y-63265098D01*
X110115000Y-63265098D01*
X110115000Y-63734902D01*
X110206654Y-64195679D01*
X110386440Y-64629721D01*
X110647450Y-65020349D01*
X110979651Y-65352550D01*
X111370279Y-65613560D01*
X111804321Y-65793346D01*
X112265098Y-65885000D01*
X112734902Y-65885000D01*
X113195679Y-65793346D01*
X113629721Y-65613560D01*
X114020349Y-65352550D01*
X114352550Y-65020349D01*
X114613560Y-64629721D01*
X114793346Y-64195679D01*
X114885000Y-63734902D01*
X114885000Y-63265098D01*
X114793346Y-62804321D01*
X114613560Y-62370279D01*
X114422101Y-62083740D01*
X121070000Y-62083740D01*
X121070000Y-62376260D01*
X121127068Y-62663158D01*
X121239010Y-62933411D01*
X121401525Y-63176632D01*
X121608368Y-63383475D01*
X121851589Y-63545990D01*
X122121842Y-63657932D01*
X122408740Y-63715000D01*
X122701260Y-63715000D01*
X122988158Y-63657932D01*
X123258411Y-63545990D01*
X123501632Y-63383475D01*
X123708475Y-63176632D01*
X123825000Y-63002240D01*
X123941525Y-63176632D01*
X124148368Y-63383475D01*
X124391589Y-63545990D01*
X124661842Y-63657932D01*
X124948740Y-63715000D01*
X125241260Y-63715000D01*
X125528158Y-63657932D01*
X125798411Y-63545990D01*
X126041632Y-63383475D01*
X126248475Y-63176632D01*
X126365000Y-63002240D01*
X126481525Y-63176632D01*
X126688368Y-63383475D01*
X126931589Y-63545990D01*
X127201842Y-63657932D01*
X127488740Y-63715000D01*
X127781260Y-63715000D01*
X128068158Y-63657932D01*
X128338411Y-63545990D01*
X128581632Y-63383475D01*
X128788475Y-63176632D01*
X128905000Y-63002240D01*
X129021525Y-63176632D01*
X129228368Y-63383475D01*
X129471589Y-63545990D01*
X129741842Y-63657932D01*
X130028740Y-63715000D01*
X130321260Y-63715000D01*
X130608158Y-63657932D01*
X130878411Y-63545990D01*
X131121632Y-63383475D01*
X131328475Y-63176632D01*
X131445000Y-63002240D01*
X131561525Y-63176632D01*
X131768368Y-63383475D01*
X132011589Y-63545990D01*
X132281842Y-63657932D01*
X132568740Y-63715000D01*
X132861260Y-63715000D01*
X133148158Y-63657932D01*
X133418411Y-63545990D01*
X133661632Y-63383475D01*
X133868475Y-63176632D01*
X133985000Y-63002240D01*
X134101525Y-63176632D01*
X134308368Y-63383475D01*
X134551589Y-63545990D01*
X134821842Y-63657932D01*
X135108740Y-63715000D01*
X135401260Y-63715000D01*
X135688158Y-63657932D01*
X135958411Y-63545990D01*
X136201632Y-63383475D01*
X136408475Y-63176632D01*
X136525000Y-63002240D01*
X136641525Y-63176632D01*
X136848368Y-63383475D01*
X137091589Y-63545990D01*
X137361842Y-63657932D01*
X137648740Y-63715000D01*
X137941260Y-63715000D01*
X138228158Y-63657932D01*
X138498411Y-63545990D01*
X138741632Y-63383475D01*
X138948475Y-63176632D01*
X139065000Y-63002240D01*
X139181525Y-63176632D01*
X139388368Y-63383475D01*
X139631589Y-63545990D01*
X139901842Y-63657932D01*
X140188740Y-63715000D01*
X140481260Y-63715000D01*
X140768158Y-63657932D01*
X141038411Y-63545990D01*
X141281632Y-63383475D01*
X141488475Y-63176632D01*
X141605000Y-63002240D01*
X141721525Y-63176632D01*
X141928368Y-63383475D01*
X142171589Y-63545990D01*
X142441842Y-63657932D01*
X142728740Y-63715000D01*
X143021260Y-63715000D01*
X143308158Y-63657932D01*
X143578411Y-63545990D01*
X143821632Y-63383475D01*
X144028475Y-63176632D01*
X144145000Y-63002240D01*
X144261525Y-63176632D01*
X144468368Y-63383475D01*
X144711589Y-63545990D01*
X144981842Y-63657932D01*
X145268740Y-63715000D01*
X145561260Y-63715000D01*
X145848158Y-63657932D01*
X146118411Y-63545990D01*
X146361632Y-63383475D01*
X146568475Y-63176632D01*
X146685000Y-63002240D01*
X146801525Y-63176632D01*
X147008368Y-63383475D01*
X147251589Y-63545990D01*
X147521842Y-63657932D01*
X147808740Y-63715000D01*
X148101260Y-63715000D01*
X148388158Y-63657932D01*
X148658411Y-63545990D01*
X148901632Y-63383475D01*
X149108475Y-63176632D01*
X149225000Y-63002240D01*
X149341525Y-63176632D01*
X149548368Y-63383475D01*
X149791589Y-63545990D01*
X150061842Y-63657932D01*
X150348740Y-63715000D01*
X150641260Y-63715000D01*
X150928158Y-63657932D01*
X151198411Y-63545990D01*
X151441632Y-63383475D01*
X151648475Y-63176632D01*
X151765000Y-63002240D01*
X151881525Y-63176632D01*
X152088368Y-63383475D01*
X152331589Y-63545990D01*
X152601842Y-63657932D01*
X152888740Y-63715000D01*
X153181260Y-63715000D01*
X153468158Y-63657932D01*
X153738411Y-63545990D01*
X153981632Y-63383475D01*
X154188475Y-63176632D01*
X154305000Y-63002240D01*
X154421525Y-63176632D01*
X154628368Y-63383475D01*
X154871589Y-63545990D01*
X155141842Y-63657932D01*
X155428740Y-63715000D01*
X155721260Y-63715000D01*
X156008158Y-63657932D01*
X156278411Y-63545990D01*
X156521632Y-63383475D01*
X156728475Y-63176632D01*
X156845000Y-63002240D01*
X156961525Y-63176632D01*
X157168368Y-63383475D01*
X157411589Y-63545990D01*
X157681842Y-63657932D01*
X157968740Y-63715000D01*
X158261260Y-63715000D01*
X158548158Y-63657932D01*
X158818411Y-63545990D01*
X159061632Y-63383475D01*
X159268475Y-63176632D01*
X159385000Y-63002240D01*
X159501525Y-63176632D01*
X159708368Y-63383475D01*
X159951589Y-63545990D01*
X160221842Y-63657932D01*
X160508740Y-63715000D01*
X160801260Y-63715000D01*
X161088158Y-63657932D01*
X161358411Y-63545990D01*
X161601632Y-63383475D01*
X161808475Y-63176632D01*
X161925000Y-63002240D01*
X162041525Y-63176632D01*
X162248368Y-63383475D01*
X162491589Y-63545990D01*
X162761842Y-63657932D01*
X163048740Y-63715000D01*
X163341260Y-63715000D01*
X163628158Y-63657932D01*
X163898411Y-63545990D01*
X164141632Y-63383475D01*
X164235386Y-63289721D01*
X169950000Y-63289721D01*
X169950000Y-63710279D01*
X170032047Y-64122756D01*
X170192988Y-64511302D01*
X170426637Y-64860983D01*
X170724017Y-65158363D01*
X171073698Y-65392012D01*
X171462244Y-65552953D01*
X171874721Y-65635000D01*
X172295279Y-65635000D01*
X172707756Y-65552953D01*
X173096302Y-65392012D01*
X173445983Y-65158363D01*
X173612693Y-64991653D01*
X174582952Y-64991653D01*
X174738962Y-65307214D01*
X175113745Y-65498020D01*
X175518551Y-65612044D01*
X175937824Y-65644902D01*
X176355451Y-65595334D01*
X176755383Y-65465243D01*
X177051038Y-65307214D01*
X177207048Y-64991653D01*
X175895000Y-63679605D01*
X174582952Y-64991653D01*
X173612693Y-64991653D01*
X173743363Y-64860983D01*
X173977012Y-64511302D01*
X173991600Y-64476084D01*
X174087786Y-64656038D01*
X174403347Y-64812048D01*
X175715395Y-63500000D01*
X176074605Y-63500000D01*
X177386653Y-64812048D01*
X177469024Y-64771325D01*
X177471400Y-65903850D01*
X177630150Y-66062600D01*
X179729400Y-66062600D01*
X179729400Y-63963350D01*
X179983400Y-63963350D01*
X179983400Y-66062600D01*
X182082650Y-66062600D01*
X182241400Y-65903850D01*
X182243331Y-64983233D01*
X182275863Y-65044094D01*
X182355215Y-65140785D01*
X182451906Y-65220137D01*
X182562220Y-65279102D01*
X182681918Y-65315412D01*
X182806400Y-65327672D01*
X184270650Y-65324600D01*
X184429400Y-65165850D01*
X184429400Y-63316600D01*
X184683400Y-63316600D01*
X184683400Y-65165850D01*
X184842150Y-65324600D01*
X186306400Y-65327672D01*
X186430882Y-65315412D01*
X186550580Y-65279102D01*
X186660894Y-65220137D01*
X186757585Y-65140785D01*
X186836937Y-65044094D01*
X186895902Y-64933780D01*
X186932212Y-64814082D01*
X186944472Y-64689600D01*
X186941400Y-63475350D01*
X186782650Y-63316600D01*
X184683400Y-63316600D01*
X184429400Y-63316600D01*
X182330150Y-63316600D01*
X182171400Y-63475350D01*
X182169702Y-64146405D01*
X182136937Y-64085106D01*
X182057585Y-63988415D01*
X181960894Y-63909063D01*
X181850580Y-63850098D01*
X181730882Y-63813788D01*
X181606400Y-63801528D01*
X180142150Y-63804600D01*
X179983400Y-63963350D01*
X179729400Y-63963350D01*
X179570650Y-63804600D01*
X178106400Y-63801528D01*
X178012188Y-63810807D01*
X178039902Y-63457176D01*
X178017105Y-63265098D01*
X191115000Y-63265098D01*
X191115000Y-63734902D01*
X191206654Y-64195679D01*
X191386440Y-64629721D01*
X191647450Y-65020349D01*
X191979651Y-65352550D01*
X192370279Y-65613560D01*
X192804321Y-65793346D01*
X193265098Y-65885000D01*
X193734902Y-65885000D01*
X194195679Y-65793346D01*
X194629721Y-65613560D01*
X195020349Y-65352550D01*
X195352550Y-65020349D01*
X195613560Y-64629721D01*
X195793346Y-64195679D01*
X195885000Y-63734902D01*
X195885000Y-63265098D01*
X195793346Y-62804321D01*
X195613560Y-62370279D01*
X195352550Y-61979651D01*
X195020349Y-61647450D01*
X194629721Y-61386440D01*
X194195679Y-61206654D01*
X193734902Y-61115000D01*
X193265098Y-61115000D01*
X192804321Y-61206654D01*
X192370279Y-61386440D01*
X191979651Y-61647450D01*
X191647450Y-61979651D01*
X191386440Y-62370279D01*
X191206654Y-62804321D01*
X191115000Y-63265098D01*
X178017105Y-63265098D01*
X177990334Y-63039549D01*
X177860243Y-62639617D01*
X177702214Y-62343962D01*
X177386653Y-62187952D01*
X176074605Y-63500000D01*
X175715395Y-63500000D01*
X174403347Y-62187952D01*
X174087786Y-62343962D01*
X173993650Y-62528865D01*
X173977012Y-62488698D01*
X173743363Y-62139017D01*
X173612693Y-62008347D01*
X174582952Y-62008347D01*
X175895000Y-63320395D01*
X177207048Y-62008347D01*
X177051038Y-61692786D01*
X177044781Y-61689600D01*
X182168328Y-61689600D01*
X182171400Y-62903850D01*
X182330150Y-63062600D01*
X184429400Y-63062600D01*
X184429400Y-61213350D01*
X184683400Y-61213350D01*
X184683400Y-63062600D01*
X186782650Y-63062600D01*
X186941400Y-62903850D01*
X186944472Y-61689600D01*
X186932212Y-61565118D01*
X186895902Y-61445420D01*
X186836937Y-61335106D01*
X186757585Y-61238415D01*
X186660894Y-61159063D01*
X186550580Y-61100098D01*
X186430882Y-61063788D01*
X186306400Y-61051528D01*
X184842150Y-61054600D01*
X184683400Y-61213350D01*
X184429400Y-61213350D01*
X184270650Y-61054600D01*
X182806400Y-61051528D01*
X182681918Y-61063788D01*
X182562220Y-61100098D01*
X182451906Y-61159063D01*
X182355215Y-61238415D01*
X182275863Y-61335106D01*
X182216898Y-61445420D01*
X182180588Y-61565118D01*
X182168328Y-61689600D01*
X177044781Y-61689600D01*
X176676255Y-61501980D01*
X176271449Y-61387956D01*
X175852176Y-61355098D01*
X175434549Y-61404666D01*
X175034617Y-61534757D01*
X174738962Y-61692786D01*
X174582952Y-62008347D01*
X173612693Y-62008347D01*
X173445983Y-61841637D01*
X173096302Y-61607988D01*
X172707756Y-61447047D01*
X172295279Y-61365000D01*
X171874721Y-61365000D01*
X171462244Y-61447047D01*
X171073698Y-61607988D01*
X170724017Y-61841637D01*
X170426637Y-62139017D01*
X170192988Y-62488698D01*
X170032047Y-62877244D01*
X169950000Y-63289721D01*
X164235386Y-63289721D01*
X164348475Y-63176632D01*
X164510990Y-62933411D01*
X164622932Y-62663158D01*
X164680000Y-62376260D01*
X164680000Y-62083740D01*
X164622932Y-61796842D01*
X164510990Y-61526589D01*
X164348475Y-61283368D01*
X164216620Y-61151513D01*
X164289180Y-61129502D01*
X164399494Y-61070537D01*
X164496185Y-60991185D01*
X164575537Y-60894494D01*
X164634502Y-60784180D01*
X164670812Y-60664482D01*
X164683072Y-60540000D01*
X164680000Y-59975750D01*
X164521250Y-59817000D01*
X163322000Y-59817000D01*
X163322000Y-59837000D01*
X163068000Y-59837000D01*
X163068000Y-59817000D01*
X163048000Y-59817000D01*
X163048000Y-59563000D01*
X163068000Y-59563000D01*
X163068000Y-58363750D01*
X163322000Y-58363750D01*
X163322000Y-59563000D01*
X164521250Y-59563000D01*
X164680000Y-59404250D01*
X164683072Y-58840000D01*
X164670812Y-58715518D01*
X164634502Y-58595820D01*
X164575537Y-58485506D01*
X164496185Y-58388815D01*
X164399494Y-58309463D01*
X164289180Y-58250498D01*
X164169482Y-58214188D01*
X164045000Y-58201928D01*
X163480750Y-58205000D01*
X163322000Y-58363750D01*
X163068000Y-58363750D01*
X162909250Y-58205000D01*
X162345000Y-58201928D01*
X162220518Y-58214188D01*
X162100820Y-58250498D01*
X161990506Y-58309463D01*
X161893815Y-58388815D01*
X161814463Y-58485506D01*
X161755498Y-58595820D01*
X161733487Y-58668380D01*
X161601632Y-58536525D01*
X161358411Y-58374010D01*
X161088158Y-58262068D01*
X160801260Y-58205000D01*
X160508740Y-58205000D01*
X160221842Y-58262068D01*
X159951589Y-58374010D01*
X159708368Y-58536525D01*
X159501525Y-58743368D01*
X159385689Y-58916729D01*
X159143397Y-58841208D01*
X158294605Y-59690000D01*
X159143397Y-60538792D01*
X159385689Y-60463271D01*
X159501525Y-60636632D01*
X159708368Y-60843475D01*
X159882760Y-60960000D01*
X159708368Y-61076525D01*
X159501525Y-61283368D01*
X159385000Y-61457760D01*
X159268475Y-61283368D01*
X159061632Y-61076525D01*
X158888271Y-60960689D01*
X158963792Y-60718397D01*
X158115000Y-59869605D01*
X157266208Y-60718397D01*
X157341729Y-60960689D01*
X157168368Y-61076525D01*
X156961525Y-61283368D01*
X156845000Y-61457760D01*
X156728475Y-61283368D01*
X156521632Y-61076525D01*
X156348271Y-60960689D01*
X156423792Y-60718397D01*
X155575000Y-59869605D01*
X154726208Y-60718397D01*
X154801729Y-60960689D01*
X154628368Y-61076525D01*
X154421525Y-61283368D01*
X154305000Y-61457760D01*
X154188475Y-61283368D01*
X153981632Y-61076525D01*
X153808271Y-60960689D01*
X153883792Y-60718397D01*
X153035000Y-59869605D01*
X152186208Y-60718397D01*
X152261729Y-60960689D01*
X152088368Y-61076525D01*
X151881525Y-61283368D01*
X151765000Y-61457760D01*
X151648475Y-61283368D01*
X151441632Y-61076525D01*
X151268271Y-60960689D01*
X151343792Y-60718397D01*
X150495000Y-59869605D01*
X149646208Y-60718397D01*
X149721729Y-60960689D01*
X149548368Y-61076525D01*
X149341525Y-61283368D01*
X149225000Y-61457760D01*
X149108475Y-61283368D01*
X148901632Y-61076525D01*
X148728271Y-60960689D01*
X148803792Y-60718397D01*
X147955000Y-59869605D01*
X147106208Y-60718397D01*
X147181729Y-60960689D01*
X147008368Y-61076525D01*
X146801525Y-61283368D01*
X146685000Y-61457760D01*
X146568475Y-61283368D01*
X146361632Y-61076525D01*
X146188271Y-60960689D01*
X146263792Y-60718397D01*
X145415000Y-59869605D01*
X144566208Y-60718397D01*
X144641729Y-60960689D01*
X144468368Y-61076525D01*
X144261525Y-61283368D01*
X144145000Y-61457760D01*
X144028475Y-61283368D01*
X143821632Y-61076525D01*
X143648271Y-60960689D01*
X143723792Y-60718397D01*
X142875000Y-59869605D01*
X142026208Y-60718397D01*
X142101729Y-60960689D01*
X141928368Y-61076525D01*
X141721525Y-61283368D01*
X141605000Y-61457760D01*
X141488475Y-61283368D01*
X141281632Y-61076525D01*
X141108271Y-60960689D01*
X141183792Y-60718397D01*
X140335000Y-59869605D01*
X139486208Y-60718397D01*
X139561729Y-60960689D01*
X139388368Y-61076525D01*
X139181525Y-61283368D01*
X139065000Y-61457760D01*
X138948475Y-61283368D01*
X138741632Y-61076525D01*
X138568271Y-60960689D01*
X138643792Y-60718397D01*
X137795000Y-59869605D01*
X136946208Y-60718397D01*
X137021729Y-60960689D01*
X136848368Y-61076525D01*
X136641525Y-61283368D01*
X136525000Y-61457760D01*
X136408475Y-61283368D01*
X136201632Y-61076525D01*
X136028271Y-60960689D01*
X136103792Y-60718397D01*
X135255000Y-59869605D01*
X134406208Y-60718397D01*
X134481729Y-60960689D01*
X134308368Y-61076525D01*
X134101525Y-61283368D01*
X133985000Y-61457760D01*
X133868475Y-61283368D01*
X133661632Y-61076525D01*
X133488271Y-60960689D01*
X133563792Y-60718397D01*
X132715000Y-59869605D01*
X131866208Y-60718397D01*
X131941729Y-60960689D01*
X131768368Y-61076525D01*
X131561525Y-61283368D01*
X131445000Y-61457760D01*
X131328475Y-61283368D01*
X131121632Y-61076525D01*
X130948271Y-60960689D01*
X131023792Y-60718397D01*
X130175000Y-59869605D01*
X129326208Y-60718397D01*
X129401729Y-60960689D01*
X129228368Y-61076525D01*
X129021525Y-61283368D01*
X128905000Y-61457760D01*
X128788475Y-61283368D01*
X128581632Y-61076525D01*
X128408271Y-60960689D01*
X128483792Y-60718397D01*
X127635000Y-59869605D01*
X126786208Y-60718397D01*
X126861729Y-60960689D01*
X126688368Y-61076525D01*
X126481525Y-61283368D01*
X126365000Y-61457760D01*
X126248475Y-61283368D01*
X126041632Y-61076525D01*
X125868271Y-60960689D01*
X125943792Y-60718397D01*
X125095000Y-59869605D01*
X124246208Y-60718397D01*
X124321729Y-60960689D01*
X124148368Y-61076525D01*
X123941525Y-61283368D01*
X123825000Y-61457760D01*
X123708475Y-61283368D01*
X123501632Y-61076525D01*
X123328271Y-60960689D01*
X123403792Y-60718397D01*
X122555000Y-59869605D01*
X121706208Y-60718397D01*
X121781729Y-60960689D01*
X121608368Y-61076525D01*
X121401525Y-61283368D01*
X121239010Y-61526589D01*
X121127068Y-61796842D01*
X121070000Y-62083740D01*
X114422101Y-62083740D01*
X114352550Y-61979651D01*
X114020349Y-61647450D01*
X113629721Y-61386440D01*
X113195679Y-61206654D01*
X112734902Y-61115000D01*
X112265098Y-61115000D01*
X111804321Y-61206654D01*
X111370279Y-61386440D01*
X110979651Y-61647450D01*
X110647450Y-61979651D01*
X110386440Y-62370279D01*
X110206654Y-62804321D01*
X110115000Y-63265098D01*
X108660000Y-63265098D01*
X108660000Y-59758531D01*
X121064389Y-59758531D01*
X121106401Y-60048019D01*
X121204081Y-60323747D01*
X121277528Y-60461157D01*
X121526603Y-60538792D01*
X122375395Y-59690000D01*
X122734605Y-59690000D01*
X123583397Y-60538792D01*
X123825000Y-60463486D01*
X124066603Y-60538792D01*
X124915395Y-59690000D01*
X125274605Y-59690000D01*
X126123397Y-60538792D01*
X126365000Y-60463486D01*
X126606603Y-60538792D01*
X127455395Y-59690000D01*
X127814605Y-59690000D01*
X128663397Y-60538792D01*
X128905000Y-60463486D01*
X129146603Y-60538792D01*
X129995395Y-59690000D01*
X130354605Y-59690000D01*
X131203397Y-60538792D01*
X131445000Y-60463486D01*
X131686603Y-60538792D01*
X132535395Y-59690000D01*
X132894605Y-59690000D01*
X133743397Y-60538792D01*
X133985000Y-60463486D01*
X134226603Y-60538792D01*
X135075395Y-59690000D01*
X135434605Y-59690000D01*
X136283397Y-60538792D01*
X136525000Y-60463486D01*
X136766603Y-60538792D01*
X137615395Y-59690000D01*
X137974605Y-59690000D01*
X138823397Y-60538792D01*
X139065000Y-60463486D01*
X139306603Y-60538792D01*
X140155395Y-59690000D01*
X140514605Y-59690000D01*
X141363397Y-60538792D01*
X141605000Y-60463486D01*
X141846603Y-60538792D01*
X142695395Y-59690000D01*
X143054605Y-59690000D01*
X143903397Y-60538792D01*
X144145000Y-60463486D01*
X144386603Y-60538792D01*
X145235395Y-59690000D01*
X145594605Y-59690000D01*
X146443397Y-60538792D01*
X146685000Y-60463486D01*
X146926603Y-60538792D01*
X147775395Y-59690000D01*
X148134605Y-59690000D01*
X148983397Y-60538792D01*
X149225000Y-60463486D01*
X149466603Y-60538792D01*
X150315395Y-59690000D01*
X150674605Y-59690000D01*
X151523397Y-60538792D01*
X151765000Y-60463486D01*
X152006603Y-60538792D01*
X152855395Y-59690000D01*
X153214605Y-59690000D01*
X154063397Y-60538792D01*
X154305000Y-60463486D01*
X154546603Y-60538792D01*
X155395395Y-59690000D01*
X155754605Y-59690000D01*
X156603397Y-60538792D01*
X156845000Y-60463486D01*
X157086603Y-60538792D01*
X157935395Y-59690000D01*
X157086603Y-58841208D01*
X156845000Y-58916514D01*
X156603397Y-58841208D01*
X155754605Y-59690000D01*
X155395395Y-59690000D01*
X154546603Y-58841208D01*
X154305000Y-58916514D01*
X154063397Y-58841208D01*
X153214605Y-59690000D01*
X152855395Y-59690000D01*
X152006603Y-58841208D01*
X151765000Y-58916514D01*
X151523397Y-58841208D01*
X150674605Y-59690000D01*
X150315395Y-59690000D01*
X149466603Y-58841208D01*
X149225000Y-58916514D01*
X148983397Y-58841208D01*
X148134605Y-59690000D01*
X147775395Y-59690000D01*
X146926603Y-58841208D01*
X146685000Y-58916514D01*
X146443397Y-58841208D01*
X145594605Y-59690000D01*
X145235395Y-59690000D01*
X144386603Y-58841208D01*
X144145000Y-58916514D01*
X143903397Y-58841208D01*
X143054605Y-59690000D01*
X142695395Y-59690000D01*
X141846603Y-58841208D01*
X141605000Y-58916514D01*
X141363397Y-58841208D01*
X140514605Y-59690000D01*
X140155395Y-59690000D01*
X139306603Y-58841208D01*
X139065000Y-58916514D01*
X138823397Y-58841208D01*
X137974605Y-59690000D01*
X137615395Y-59690000D01*
X136766603Y-58841208D01*
X136525000Y-58916514D01*
X136283397Y-58841208D01*
X135434605Y-59690000D01*
X135075395Y-59690000D01*
X134226603Y-58841208D01*
X133985000Y-58916514D01*
X133743397Y-58841208D01*
X132894605Y-59690000D01*
X132535395Y-59690000D01*
X131686603Y-58841208D01*
X131445000Y-58916514D01*
X131203397Y-58841208D01*
X130354605Y-59690000D01*
X129995395Y-59690000D01*
X129146603Y-58841208D01*
X128905000Y-58916514D01*
X128663397Y-58841208D01*
X127814605Y-59690000D01*
X127455395Y-59690000D01*
X126606603Y-58841208D01*
X126365000Y-58916514D01*
X126123397Y-58841208D01*
X125274605Y-59690000D01*
X124915395Y-59690000D01*
X124066603Y-58841208D01*
X123825000Y-58916514D01*
X123583397Y-58841208D01*
X122734605Y-59690000D01*
X122375395Y-59690000D01*
X121526603Y-58841208D01*
X121277528Y-58918843D01*
X121151629Y-59182883D01*
X121079661Y-59466411D01*
X121064389Y-59758531D01*
X108660000Y-59758531D01*
X108660000Y-58661603D01*
X121706208Y-58661603D01*
X122555000Y-59510395D01*
X123403792Y-58661603D01*
X124246208Y-58661603D01*
X125095000Y-59510395D01*
X125943792Y-58661603D01*
X126786208Y-58661603D01*
X127635000Y-59510395D01*
X128483792Y-58661603D01*
X129326208Y-58661603D01*
X130175000Y-59510395D01*
X131023792Y-58661603D01*
X131866208Y-58661603D01*
X132715000Y-59510395D01*
X133563792Y-58661603D01*
X134406208Y-58661603D01*
X135255000Y-59510395D01*
X136103792Y-58661603D01*
X136946208Y-58661603D01*
X137795000Y-59510395D01*
X138643792Y-58661603D01*
X139486208Y-58661603D01*
X140335000Y-59510395D01*
X141183792Y-58661603D01*
X142026208Y-58661603D01*
X142875000Y-59510395D01*
X143723792Y-58661603D01*
X144566208Y-58661603D01*
X145415000Y-59510395D01*
X146263792Y-58661603D01*
X147106208Y-58661603D01*
X147955000Y-59510395D01*
X148803792Y-58661603D01*
X149646208Y-58661603D01*
X150495000Y-59510395D01*
X151343792Y-58661603D01*
X152186208Y-58661603D01*
X153035000Y-59510395D01*
X153883792Y-58661603D01*
X154726208Y-58661603D01*
X155575000Y-59510395D01*
X156423792Y-58661603D01*
X157266208Y-58661603D01*
X158115000Y-59510395D01*
X158963792Y-58661603D01*
X158886157Y-58412528D01*
X158622117Y-58286629D01*
X158338589Y-58214661D01*
X158046469Y-58199389D01*
X157756981Y-58241401D01*
X157481253Y-58339081D01*
X157343843Y-58412528D01*
X157266208Y-58661603D01*
X156423792Y-58661603D01*
X156346157Y-58412528D01*
X156082117Y-58286629D01*
X155798589Y-58214661D01*
X155506469Y-58199389D01*
X155216981Y-58241401D01*
X154941253Y-58339081D01*
X154803843Y-58412528D01*
X154726208Y-58661603D01*
X153883792Y-58661603D01*
X153806157Y-58412528D01*
X153542117Y-58286629D01*
X153258589Y-58214661D01*
X152966469Y-58199389D01*
X152676981Y-58241401D01*
X152401253Y-58339081D01*
X152263843Y-58412528D01*
X152186208Y-58661603D01*
X151343792Y-58661603D01*
X151266157Y-58412528D01*
X151002117Y-58286629D01*
X150718589Y-58214661D01*
X150426469Y-58199389D01*
X150136981Y-58241401D01*
X149861253Y-58339081D01*
X149723843Y-58412528D01*
X149646208Y-58661603D01*
X148803792Y-58661603D01*
X148726157Y-58412528D01*
X148462117Y-58286629D01*
X148178589Y-58214661D01*
X147886469Y-58199389D01*
X147596981Y-58241401D01*
X147321253Y-58339081D01*
X147183843Y-58412528D01*
X147106208Y-58661603D01*
X146263792Y-58661603D01*
X146186157Y-58412528D01*
X145922117Y-58286629D01*
X145638589Y-58214661D01*
X145346469Y-58199389D01*
X145056981Y-58241401D01*
X144781253Y-58339081D01*
X144643843Y-58412528D01*
X144566208Y-58661603D01*
X143723792Y-58661603D01*
X143646157Y-58412528D01*
X143382117Y-58286629D01*
X143098589Y-58214661D01*
X142806469Y-58199389D01*
X142516981Y-58241401D01*
X142241253Y-58339081D01*
X142103843Y-58412528D01*
X142026208Y-58661603D01*
X141183792Y-58661603D01*
X141106157Y-58412528D01*
X140842117Y-58286629D01*
X140558589Y-58214661D01*
X140266469Y-58199389D01*
X139976981Y-58241401D01*
X139701253Y-58339081D01*
X139563843Y-58412528D01*
X139486208Y-58661603D01*
X138643792Y-58661603D01*
X138566157Y-58412528D01*
X138302117Y-58286629D01*
X138018589Y-58214661D01*
X137726469Y-58199389D01*
X137436981Y-58241401D01*
X137161253Y-58339081D01*
X137023843Y-58412528D01*
X136946208Y-58661603D01*
X136103792Y-58661603D01*
X136026157Y-58412528D01*
X135762117Y-58286629D01*
X135478589Y-58214661D01*
X135186469Y-58199389D01*
X134896981Y-58241401D01*
X134621253Y-58339081D01*
X134483843Y-58412528D01*
X134406208Y-58661603D01*
X133563792Y-58661603D01*
X133486157Y-58412528D01*
X133222117Y-58286629D01*
X132938589Y-58214661D01*
X132646469Y-58199389D01*
X132356981Y-58241401D01*
X132081253Y-58339081D01*
X131943843Y-58412528D01*
X131866208Y-58661603D01*
X131023792Y-58661603D01*
X130946157Y-58412528D01*
X130682117Y-58286629D01*
X130398589Y-58214661D01*
X130106469Y-58199389D01*
X129816981Y-58241401D01*
X129541253Y-58339081D01*
X129403843Y-58412528D01*
X129326208Y-58661603D01*
X128483792Y-58661603D01*
X128406157Y-58412528D01*
X128142117Y-58286629D01*
X127858589Y-58214661D01*
X127566469Y-58199389D01*
X127276981Y-58241401D01*
X127001253Y-58339081D01*
X126863843Y-58412528D01*
X126786208Y-58661603D01*
X125943792Y-58661603D01*
X125866157Y-58412528D01*
X125602117Y-58286629D01*
X125318589Y-58214661D01*
X125026469Y-58199389D01*
X124736981Y-58241401D01*
X124461253Y-58339081D01*
X124323843Y-58412528D01*
X124246208Y-58661603D01*
X123403792Y-58661603D01*
X123326157Y-58412528D01*
X123062117Y-58286629D01*
X122778589Y-58214661D01*
X122486469Y-58199389D01*
X122196981Y-58241401D01*
X121921253Y-58339081D01*
X121783843Y-58412528D01*
X121706208Y-58661603D01*
X108660000Y-58661603D01*
X108660000Y-57555000D01*
X169946928Y-57555000D01*
X169946928Y-60555000D01*
X169959188Y-60679482D01*
X169995498Y-60799180D01*
X170054463Y-60909494D01*
X170133815Y-61006185D01*
X170230506Y-61085537D01*
X170340820Y-61144502D01*
X170460518Y-61180812D01*
X170585000Y-61193072D01*
X173585000Y-61193072D01*
X173709482Y-61180812D01*
X173829180Y-61144502D01*
X173939494Y-61085537D01*
X174036185Y-61006185D01*
X174115537Y-60909494D01*
X174174502Y-60799180D01*
X174210812Y-60679482D01*
X174223072Y-60555000D01*
X174223072Y-60546653D01*
X174582952Y-60546653D01*
X174738962Y-60862214D01*
X175113745Y-61053020D01*
X175518551Y-61167044D01*
X175937824Y-61199902D01*
X176355451Y-61150334D01*
X176755383Y-61020243D01*
X177051038Y-60862214D01*
X177207048Y-60546653D01*
X175895000Y-59234605D01*
X174582952Y-60546653D01*
X174223072Y-60546653D01*
X174223072Y-60277922D01*
X174403347Y-60367048D01*
X175715395Y-59055000D01*
X176074605Y-59055000D01*
X177386653Y-60367048D01*
X177702214Y-60211038D01*
X177893020Y-59836255D01*
X178007044Y-59431449D01*
X178039902Y-59012176D01*
X177990334Y-58594549D01*
X177860243Y-58194617D01*
X177702214Y-57898962D01*
X177386653Y-57742952D01*
X176074605Y-59055000D01*
X175715395Y-59055000D01*
X174403347Y-57742952D01*
X174223072Y-57832078D01*
X174223072Y-57563347D01*
X174582952Y-57563347D01*
X175895000Y-58875395D01*
X177207048Y-57563347D01*
X177051038Y-57247786D01*
X176676255Y-57056980D01*
X176271449Y-56942956D01*
X175852176Y-56910098D01*
X175434549Y-56959666D01*
X175034617Y-57089757D01*
X174738962Y-57247786D01*
X174582952Y-57563347D01*
X174223072Y-57563347D01*
X174223072Y-57555000D01*
X174210812Y-57430518D01*
X174174502Y-57310820D01*
X174115537Y-57200506D01*
X174036185Y-57103815D01*
X173939494Y-57024463D01*
X173829180Y-56965498D01*
X173709482Y-56929188D01*
X173585000Y-56916928D01*
X170585000Y-56916928D01*
X170460518Y-56929188D01*
X170340820Y-56965498D01*
X170230506Y-57024463D01*
X170133815Y-57103815D01*
X170054463Y-57200506D01*
X169995498Y-57310820D01*
X169959188Y-57430518D01*
X169946928Y-57555000D01*
X108660000Y-57555000D01*
X108660000Y-56732278D01*
X108682911Y-56498613D01*
X108741398Y-56304894D01*
X108836399Y-56126223D01*
X108964294Y-55969409D01*
X109120208Y-55840426D01*
X109298214Y-55744179D01*
X109491516Y-55684342D01*
X109723109Y-55660000D01*
X116358838Y-55660000D01*
X116387290Y-55753793D01*
G04 #@! TA.AperFunction,Conductor*
D24*
G36*
X116387290Y-55753793D02*
G01*
X116448575Y-55868450D01*
X116531052Y-55968948D01*
X116631550Y-56051425D01*
X116746207Y-56112710D01*
X116870617Y-56150450D01*
X116967581Y-56160000D01*
X189032419Y-56160000D01*
X189129383Y-56150450D01*
X189253793Y-56112710D01*
X189368450Y-56051425D01*
X189468948Y-55968948D01*
X189551425Y-55868450D01*
X189612710Y-55753793D01*
X189641162Y-55660000D01*
X196267722Y-55660000D01*
X196501387Y-55682911D01*
X196695106Y-55741398D01*
X196873777Y-55836399D01*
X197030591Y-55964294D01*
X197159574Y-56120208D01*
X197255821Y-56298214D01*
X197315658Y-56491516D01*
X197340000Y-56723109D01*
X197340001Y-147267712D01*
X197317089Y-147501386D01*
X197258601Y-147695110D01*
X197163601Y-147873776D01*
X197035706Y-148030592D01*
X196879795Y-148159573D01*
X196701786Y-148255821D01*
X196508484Y-148315658D01*
X196276892Y-148340000D01*
X189641162Y-148340000D01*
X189612710Y-148246207D01*
X189551425Y-148131550D01*
X189468948Y-148031052D01*
X189368450Y-147948575D01*
X189253793Y-147887290D01*
X189129383Y-147849550D01*
X189032785Y-147840036D01*
X189000000Y-147836807D01*
X188967581Y-147840000D01*
X176532419Y-147840000D01*
X176500000Y-147836807D01*
X176467215Y-147840036D01*
X176370617Y-147849550D01*
X176246207Y-147887290D01*
X176131550Y-147948575D01*
X176031052Y-148031052D01*
X175948575Y-148131550D01*
X175887290Y-148246207D01*
X175858838Y-148340000D01*
X129660000Y-148340000D01*
X129660000Y-146532419D01*
X129663193Y-146500000D01*
X129650450Y-146370617D01*
X129612710Y-146246207D01*
X129551425Y-146131550D01*
X129468948Y-146031052D01*
X129368450Y-145948575D01*
X129253793Y-145887290D01*
X129129383Y-145849550D01*
X129032419Y-145840000D01*
X129000000Y-145836807D01*
X128967581Y-145840000D01*
X126032408Y-145840000D01*
X125999999Y-145836808D01*
X125967590Y-145840000D01*
X125967581Y-145840000D01*
X125870617Y-145849550D01*
X125746207Y-145887290D01*
X125631549Y-145948575D01*
X125556233Y-146010386D01*
X125531052Y-146031052D01*
X125510388Y-146056231D01*
X123726620Y-147840000D01*
X117467581Y-147840000D01*
X117439671Y-147842749D01*
X117436693Y-147842728D01*
X117427522Y-147843627D01*
X117379360Y-147848689D01*
X117370617Y-147849550D01*
X117370325Y-147849638D01*
X117330473Y-147853827D01*
X117271854Y-147865860D01*
X117213116Y-147877064D01*
X117204294Y-147879728D01*
X117111075Y-147908584D01*
X117055937Y-147931762D01*
X117000463Y-147954175D01*
X116992334Y-147958498D01*
X116992330Y-147958500D01*
X116992327Y-147958502D01*
X116906489Y-148004915D01*
X116856913Y-148038355D01*
X116806844Y-148071119D01*
X116799703Y-148076943D01*
X116724514Y-148139145D01*
X116682361Y-148181594D01*
X116639629Y-148223439D01*
X116633755Y-148230540D01*
X116572079Y-148306161D01*
X116549596Y-148340000D01*
X113273381Y-148340000D01*
X108660000Y-143726620D01*
X108660000Y-131765098D01*
X110115000Y-131765098D01*
X110115000Y-132234902D01*
X110206654Y-132695679D01*
X110386440Y-133129721D01*
X110647450Y-133520349D01*
X110979651Y-133852550D01*
X111370279Y-134113560D01*
X111804321Y-134293346D01*
X112265098Y-134385000D01*
X112734902Y-134385000D01*
X113195679Y-134293346D01*
X113629721Y-134113560D01*
X114020349Y-133852550D01*
X114352550Y-133520349D01*
X114613560Y-133129721D01*
X114793346Y-132695679D01*
X114885000Y-132234902D01*
X114885000Y-131765098D01*
X191115000Y-131765098D01*
X191115000Y-132234902D01*
X191206654Y-132695679D01*
X191386440Y-133129721D01*
X191647450Y-133520349D01*
X191979651Y-133852550D01*
X192370279Y-134113560D01*
X192804321Y-134293346D01*
X193265098Y-134385000D01*
X193734902Y-134385000D01*
X194195679Y-134293346D01*
X194629721Y-134113560D01*
X195020349Y-133852550D01*
X195352550Y-133520349D01*
X195613560Y-133129721D01*
X195793346Y-132695679D01*
X195885000Y-132234902D01*
X195885000Y-131765098D01*
X195793346Y-131304321D01*
X195613560Y-130870279D01*
X195352550Y-130479651D01*
X195020349Y-130147450D01*
X194629721Y-129886440D01*
X194195679Y-129706654D01*
X193734902Y-129615000D01*
X193265098Y-129615000D01*
X192804321Y-129706654D01*
X192370279Y-129886440D01*
X191979651Y-130147450D01*
X191647450Y-130479651D01*
X191386440Y-130870279D01*
X191206654Y-131304321D01*
X191115000Y-131765098D01*
X114885000Y-131765098D01*
X114793346Y-131304321D01*
X114613560Y-130870279D01*
X114352550Y-130479651D01*
X114020349Y-130147450D01*
X113629721Y-129886440D01*
X113195679Y-129706654D01*
X112734902Y-129615000D01*
X112265098Y-129615000D01*
X111804321Y-129706654D01*
X111370279Y-129886440D01*
X110979651Y-130147450D01*
X110647450Y-130479651D01*
X110386440Y-130870279D01*
X110206654Y-131304321D01*
X110115000Y-131765098D01*
X108660000Y-131765098D01*
X108660000Y-121500000D01*
X116621928Y-121500000D01*
X116634188Y-121624482D01*
X116670498Y-121744180D01*
X116729463Y-121854494D01*
X116808815Y-121951185D01*
X116905506Y-122030537D01*
X117015820Y-122089502D01*
X117135518Y-122125812D01*
X117260000Y-122138072D01*
X117824250Y-122135000D01*
X117983000Y-121976250D01*
X117983000Y-120777000D01*
X118237000Y-120777000D01*
X118237000Y-121976250D01*
X118395750Y-122135000D01*
X118960000Y-122138072D01*
X119084482Y-122125812D01*
X119204180Y-122089502D01*
X119314494Y-122030537D01*
X119411185Y-121951185D01*
X119490537Y-121854494D01*
X119549502Y-121744180D01*
X119585812Y-121624482D01*
X119598072Y-121500000D01*
X119595000Y-120935750D01*
X119436250Y-120777000D01*
X118237000Y-120777000D01*
X117983000Y-120777000D01*
X116783750Y-120777000D01*
X116625000Y-120935750D01*
X116621928Y-121500000D01*
X108660000Y-121500000D01*
X108660000Y-119800000D01*
X116621928Y-119800000D01*
X116625000Y-120364250D01*
X116783750Y-120523000D01*
X117983000Y-120523000D01*
X117983000Y-120503000D01*
X118237000Y-120503000D01*
X118237000Y-120523000D01*
X119436250Y-120523000D01*
X119595000Y-120364250D01*
X119598072Y-119800000D01*
X119585812Y-119675518D01*
X119549502Y-119555820D01*
X119490537Y-119445506D01*
X119411185Y-119348815D01*
X119314494Y-119269463D01*
X119204180Y-119210498D01*
X119131620Y-119188487D01*
X119263475Y-119056632D01*
X119425990Y-118813411D01*
X119537932Y-118543158D01*
X119595000Y-118256260D01*
X119595000Y-117963740D01*
X119537932Y-117676842D01*
X119425990Y-117406589D01*
X119263475Y-117163368D01*
X119056632Y-116956525D01*
X118882240Y-116840000D01*
X119056632Y-116723475D01*
X119263475Y-116516632D01*
X119425990Y-116273411D01*
X119537932Y-116003158D01*
X119595000Y-115716260D01*
X119595000Y-115423740D01*
X119537932Y-115136842D01*
X119425990Y-114866589D01*
X119263475Y-114623368D01*
X119056632Y-114416525D01*
X118882240Y-114300000D01*
X119056632Y-114183475D01*
X119263475Y-113976632D01*
X119425990Y-113733411D01*
X119537932Y-113463158D01*
X119595000Y-113176260D01*
X119595000Y-112883740D01*
X119537932Y-112596842D01*
X119425990Y-112326589D01*
X119263475Y-112083368D01*
X119056632Y-111876525D01*
X118813411Y-111714010D01*
X118543158Y-111602068D01*
X118256260Y-111545000D01*
X117963740Y-111545000D01*
X117676842Y-111602068D01*
X117406589Y-111714010D01*
X117163368Y-111876525D01*
X116956525Y-112083368D01*
X116794010Y-112326589D01*
X116682068Y-112596842D01*
X116625000Y-112883740D01*
X116625000Y-113176260D01*
X116682068Y-113463158D01*
X116794010Y-113733411D01*
X116956525Y-113976632D01*
X117163368Y-114183475D01*
X117337760Y-114300000D01*
X117163368Y-114416525D01*
X116956525Y-114623368D01*
X116794010Y-114866589D01*
X116682068Y-115136842D01*
X116625000Y-115423740D01*
X116625000Y-115716260D01*
X116682068Y-116003158D01*
X116794010Y-116273411D01*
X116956525Y-116516632D01*
X117163368Y-116723475D01*
X117337760Y-116840000D01*
X117163368Y-116956525D01*
X116956525Y-117163368D01*
X116794010Y-117406589D01*
X116682068Y-117676842D01*
X116625000Y-117963740D01*
X116625000Y-118256260D01*
X116682068Y-118543158D01*
X116794010Y-118813411D01*
X116956525Y-119056632D01*
X117088380Y-119188487D01*
X117015820Y-119210498D01*
X116905506Y-119269463D01*
X116808815Y-119348815D01*
X116729463Y-119445506D01*
X116670498Y-119555820D01*
X116634188Y-119675518D01*
X116621928Y-119800000D01*
X108660000Y-119800000D01*
X108660000Y-105195000D01*
X109001928Y-105195000D01*
X109001928Y-106895000D01*
X109014188Y-107019482D01*
X109050498Y-107139180D01*
X109109463Y-107249494D01*
X109188815Y-107346185D01*
X109285506Y-107425537D01*
X109395820Y-107484502D01*
X109515518Y-107520812D01*
X109640000Y-107533072D01*
X111340000Y-107533072D01*
X111464482Y-107520812D01*
X111584180Y-107484502D01*
X111694494Y-107425537D01*
X111791185Y-107346185D01*
X111870537Y-107249494D01*
X111929502Y-107139180D01*
X111951513Y-107066620D01*
X112083368Y-107198475D01*
X112326589Y-107360990D01*
X112596842Y-107472932D01*
X112883740Y-107530000D01*
X113176260Y-107530000D01*
X113463158Y-107472932D01*
X113733411Y-107360990D01*
X113976632Y-107198475D01*
X114183475Y-106991632D01*
X114300000Y-106817240D01*
X114416525Y-106991632D01*
X114623368Y-107198475D01*
X114866589Y-107360990D01*
X115136842Y-107472932D01*
X115423740Y-107530000D01*
X115716260Y-107530000D01*
X116003158Y-107472932D01*
X116273411Y-107360990D01*
X116516632Y-107198475D01*
X116723475Y-106991632D01*
X116840000Y-106817240D01*
X116956525Y-106991632D01*
X117163368Y-107198475D01*
X117406589Y-107360990D01*
X117676842Y-107472932D01*
X117963740Y-107530000D01*
X118256260Y-107530000D01*
X118543158Y-107472932D01*
X118813411Y-107360990D01*
X119056632Y-107198475D01*
X119263475Y-106991632D01*
X119380000Y-106817240D01*
X119496525Y-106991632D01*
X119703368Y-107198475D01*
X119946589Y-107360990D01*
X120216842Y-107472932D01*
X120503740Y-107530000D01*
X120796260Y-107530000D01*
X121083158Y-107472932D01*
X121353411Y-107360990D01*
X121596632Y-107198475D01*
X121803475Y-106991632D01*
X121920000Y-106817240D01*
X122036525Y-106991632D01*
X122243368Y-107198475D01*
X122486589Y-107360990D01*
X122756842Y-107472932D01*
X123043740Y-107530000D01*
X123336260Y-107530000D01*
X123623158Y-107472932D01*
X123893411Y-107360990D01*
X124136632Y-107198475D01*
X124343475Y-106991632D01*
X124460000Y-106817240D01*
X124576525Y-106991632D01*
X124783368Y-107198475D01*
X125026589Y-107360990D01*
X125296842Y-107472932D01*
X125583740Y-107530000D01*
X125876260Y-107530000D01*
X126163158Y-107472932D01*
X126433411Y-107360990D01*
X126676632Y-107198475D01*
X126883475Y-106991632D01*
X127000000Y-106817240D01*
X127116525Y-106991632D01*
X127323368Y-107198475D01*
X127566589Y-107360990D01*
X127836842Y-107472932D01*
X128123740Y-107530000D01*
X128416260Y-107530000D01*
X128703158Y-107472932D01*
X128973411Y-107360990D01*
X129216632Y-107198475D01*
X129423475Y-106991632D01*
X129540000Y-106817240D01*
X129656525Y-106991632D01*
X129863368Y-107198475D01*
X130106589Y-107360990D01*
X130376842Y-107472932D01*
X130663740Y-107530000D01*
X130956260Y-107530000D01*
X131243158Y-107472932D01*
X131513411Y-107360990D01*
X131756632Y-107198475D01*
X131963475Y-106991632D01*
X132080000Y-106817240D01*
X132196525Y-106991632D01*
X132403368Y-107198475D01*
X132646589Y-107360990D01*
X132916842Y-107472932D01*
X133203740Y-107530000D01*
X133496260Y-107530000D01*
X133783158Y-107472932D01*
X134053411Y-107360990D01*
X134296632Y-107198475D01*
X134503475Y-106991632D01*
X134620000Y-106817240D01*
X134736525Y-106991632D01*
X134943368Y-107198475D01*
X135186589Y-107360990D01*
X135456842Y-107472932D01*
X135743740Y-107530000D01*
X136036260Y-107530000D01*
X136323158Y-107472932D01*
X136593411Y-107360990D01*
X136836632Y-107198475D01*
X137043475Y-106991632D01*
X137160000Y-106817240D01*
X137276525Y-106991632D01*
X137483368Y-107198475D01*
X137726589Y-107360990D01*
X137996842Y-107472932D01*
X138283740Y-107530000D01*
X138576260Y-107530000D01*
X138863158Y-107472932D01*
X139133411Y-107360990D01*
X139376632Y-107198475D01*
X139583475Y-106991632D01*
X139700000Y-106817240D01*
X139816525Y-106991632D01*
X140023368Y-107198475D01*
X140266589Y-107360990D01*
X140536842Y-107472932D01*
X140823740Y-107530000D01*
X141116260Y-107530000D01*
X141403158Y-107472932D01*
X141673411Y-107360990D01*
X141916632Y-107198475D01*
X142123475Y-106991632D01*
X142240000Y-106817240D01*
X142356525Y-106991632D01*
X142563368Y-107198475D01*
X142806589Y-107360990D01*
X143076842Y-107472932D01*
X143363740Y-107530000D01*
X143656260Y-107530000D01*
X143943158Y-107472932D01*
X144213411Y-107360990D01*
X144456632Y-107198475D01*
X144663475Y-106991632D01*
X144780000Y-106817240D01*
X144896525Y-106991632D01*
X145103368Y-107198475D01*
X145346589Y-107360990D01*
X145616842Y-107472932D01*
X145903740Y-107530000D01*
X146196260Y-107530000D01*
X146483158Y-107472932D01*
X146753411Y-107360990D01*
X146996632Y-107198475D01*
X147203475Y-106991632D01*
X147320000Y-106817240D01*
X147436525Y-106991632D01*
X147643368Y-107198475D01*
X147886589Y-107360990D01*
X148156842Y-107472932D01*
X148443740Y-107530000D01*
X148736260Y-107530000D01*
X149023158Y-107472932D01*
X149293411Y-107360990D01*
X149536632Y-107198475D01*
X149743475Y-106991632D01*
X149860000Y-106817240D01*
X149976525Y-106991632D01*
X150183368Y-107198475D01*
X150426589Y-107360990D01*
X150696842Y-107472932D01*
X150983740Y-107530000D01*
X151276260Y-107530000D01*
X151563158Y-107472932D01*
X151833411Y-107360990D01*
X152076632Y-107198475D01*
X152283475Y-106991632D01*
X152400000Y-106817240D01*
X152516525Y-106991632D01*
X152723368Y-107198475D01*
X152966589Y-107360990D01*
X153236842Y-107472932D01*
X153523740Y-107530000D01*
X153816260Y-107530000D01*
X154103158Y-107472932D01*
X154373411Y-107360990D01*
X154616632Y-107198475D01*
X154741710Y-107073397D01*
X155361208Y-107073397D01*
X155438843Y-107322472D01*
X155702883Y-107448371D01*
X155986411Y-107520339D01*
X156278531Y-107535611D01*
X156568019Y-107493599D01*
X156843747Y-107395919D01*
X156981157Y-107322472D01*
X157058792Y-107073397D01*
X156210000Y-106224605D01*
X155361208Y-107073397D01*
X154741710Y-107073397D01*
X154823475Y-106991632D01*
X154939311Y-106818271D01*
X155181603Y-106893792D01*
X156030395Y-106045000D01*
X156389605Y-106045000D01*
X157238397Y-106893792D01*
X157480689Y-106818271D01*
X157596525Y-106991632D01*
X157803368Y-107198475D01*
X158046589Y-107360990D01*
X158316842Y-107472932D01*
X158603740Y-107530000D01*
X158896260Y-107530000D01*
X159183158Y-107472932D01*
X159453411Y-107360990D01*
X159696632Y-107198475D01*
X159903475Y-106991632D01*
X160065990Y-106748411D01*
X160177932Y-106478158D01*
X160235000Y-106191260D01*
X160235000Y-105898740D01*
X160177932Y-105611842D01*
X160065990Y-105341589D01*
X159903475Y-105098368D01*
X159696632Y-104891525D01*
X159453411Y-104729010D01*
X159183158Y-104617068D01*
X158896260Y-104560000D01*
X158603740Y-104560000D01*
X158316842Y-104617068D01*
X158046589Y-104729010D01*
X157803368Y-104891525D01*
X157596525Y-105098368D01*
X157480689Y-105271729D01*
X157238397Y-105196208D01*
X156389605Y-106045000D01*
X156030395Y-106045000D01*
X155181603Y-105196208D01*
X154939311Y-105271729D01*
X154823475Y-105098368D01*
X154741710Y-105016603D01*
X155361208Y-105016603D01*
X156210000Y-105865395D01*
X157058792Y-105016603D01*
X156981157Y-104767528D01*
X156717117Y-104641629D01*
X156433589Y-104569661D01*
X156141469Y-104554389D01*
X155851981Y-104596401D01*
X155576253Y-104694081D01*
X155438843Y-104767528D01*
X155361208Y-105016603D01*
X154741710Y-105016603D01*
X154616632Y-104891525D01*
X154373411Y-104729010D01*
X154103158Y-104617068D01*
X153816260Y-104560000D01*
X153523740Y-104560000D01*
X153236842Y-104617068D01*
X152966589Y-104729010D01*
X152723368Y-104891525D01*
X152516525Y-105098368D01*
X152400000Y-105272760D01*
X152283475Y-105098368D01*
X152076632Y-104891525D01*
X151833411Y-104729010D01*
X151563158Y-104617068D01*
X151276260Y-104560000D01*
X150983740Y-104560000D01*
X150696842Y-104617068D01*
X150426589Y-104729010D01*
X150183368Y-104891525D01*
X149976525Y-105098368D01*
X149860000Y-105272760D01*
X149743475Y-105098368D01*
X149536632Y-104891525D01*
X149350000Y-104766822D01*
X149350000Y-104118711D01*
X149393937Y-104074774D01*
X149507205Y-103905256D01*
X149585226Y-103716898D01*
X149625000Y-103516939D01*
X149625000Y-103313061D01*
X149585226Y-103113102D01*
X149507205Y-102924744D01*
X149393937Y-102755226D01*
X149249774Y-102611063D01*
X149080256Y-102497795D01*
X148891898Y-102419774D01*
X148691939Y-102380000D01*
X148488061Y-102380000D01*
X148288102Y-102419774D01*
X148099744Y-102497795D01*
X147930226Y-102611063D01*
X147786063Y-102755226D01*
X147672795Y-102924744D01*
X147594774Y-103113102D01*
X147555000Y-103313061D01*
X147555000Y-103516939D01*
X147594774Y-103716898D01*
X147672795Y-103905256D01*
X147786063Y-104074774D01*
X147830001Y-104118712D01*
X147830000Y-104766821D01*
X147643368Y-104891525D01*
X147436525Y-105098368D01*
X147320000Y-105272760D01*
X147203475Y-105098368D01*
X146996632Y-104891525D01*
X146810000Y-104766822D01*
X146810000Y-104118711D01*
X146853937Y-104074774D01*
X146967205Y-103905256D01*
X147045226Y-103716898D01*
X147085000Y-103516939D01*
X147085000Y-103313061D01*
X147045226Y-103113102D01*
X146967205Y-102924744D01*
X146853937Y-102755226D01*
X146709774Y-102611063D01*
X146540256Y-102497795D01*
X146351898Y-102419774D01*
X146151939Y-102380000D01*
X145948061Y-102380000D01*
X145748102Y-102419774D01*
X145559744Y-102497795D01*
X145390226Y-102611063D01*
X145246063Y-102755226D01*
X145132795Y-102924744D01*
X145054774Y-103113102D01*
X145015000Y-103313061D01*
X145015000Y-103516939D01*
X145054774Y-103716898D01*
X145132795Y-103905256D01*
X145246063Y-104074774D01*
X145290001Y-104118712D01*
X145290000Y-104766821D01*
X145103368Y-104891525D01*
X144896525Y-105098368D01*
X144780000Y-105272760D01*
X144663475Y-105098368D01*
X144456632Y-104891525D01*
X144213411Y-104729010D01*
X143943158Y-104617068D01*
X143656260Y-104560000D01*
X143363740Y-104560000D01*
X143076842Y-104617068D01*
X142806589Y-104729010D01*
X142563368Y-104891525D01*
X142356525Y-105098368D01*
X142240000Y-105272760D01*
X142123475Y-105098368D01*
X141916632Y-104891525D01*
X141673411Y-104729010D01*
X141403158Y-104617068D01*
X141116260Y-104560000D01*
X140823740Y-104560000D01*
X140536842Y-104617068D01*
X140266589Y-104729010D01*
X140023368Y-104891525D01*
X139816525Y-105098368D01*
X139700000Y-105272760D01*
X139583475Y-105098368D01*
X139376632Y-104891525D01*
X139133411Y-104729010D01*
X138863158Y-104617068D01*
X138576260Y-104560000D01*
X138283740Y-104560000D01*
X137996842Y-104617068D01*
X137726589Y-104729010D01*
X137483368Y-104891525D01*
X137276525Y-105098368D01*
X137160000Y-105272760D01*
X137043475Y-105098368D01*
X136836632Y-104891525D01*
X136593411Y-104729010D01*
X136323158Y-104617068D01*
X136036260Y-104560000D01*
X135743740Y-104560000D01*
X135456842Y-104617068D01*
X135186589Y-104729010D01*
X134943368Y-104891525D01*
X134736525Y-105098368D01*
X134620000Y-105272760D01*
X134503475Y-105098368D01*
X134296632Y-104891525D01*
X134053411Y-104729010D01*
X133783158Y-104617068D01*
X133496260Y-104560000D01*
X133203740Y-104560000D01*
X132916842Y-104617068D01*
X132646589Y-104729010D01*
X132403368Y-104891525D01*
X132196525Y-105098368D01*
X132080000Y-105272760D01*
X131963475Y-105098368D01*
X131756632Y-104891525D01*
X131513411Y-104729010D01*
X131243158Y-104617068D01*
X130956260Y-104560000D01*
X130663740Y-104560000D01*
X130376842Y-104617068D01*
X130106589Y-104729010D01*
X129863368Y-104891525D01*
X129656525Y-105098368D01*
X129540000Y-105272760D01*
X129423475Y-105098368D01*
X129216632Y-104891525D01*
X128973411Y-104729010D01*
X128703158Y-104617068D01*
X128416260Y-104560000D01*
X128123740Y-104560000D01*
X127836842Y-104617068D01*
X127566589Y-104729010D01*
X127323368Y-104891525D01*
X127116525Y-105098368D01*
X127000000Y-105272760D01*
X126883475Y-105098368D01*
X126676632Y-104891525D01*
X126433411Y-104729010D01*
X126163158Y-104617068D01*
X125876260Y-104560000D01*
X125583740Y-104560000D01*
X125296842Y-104617068D01*
X125026589Y-104729010D01*
X124783368Y-104891525D01*
X124576525Y-105098368D01*
X124460000Y-105272760D01*
X124343475Y-105098368D01*
X124136632Y-104891525D01*
X123893411Y-104729010D01*
X123623158Y-104617068D01*
X123336260Y-104560000D01*
X123043740Y-104560000D01*
X122756842Y-104617068D01*
X122486589Y-104729010D01*
X122243368Y-104891525D01*
X122036525Y-105098368D01*
X121920000Y-105272760D01*
X121803475Y-105098368D01*
X121596632Y-104891525D01*
X121353411Y-104729010D01*
X121083158Y-104617068D01*
X120796260Y-104560000D01*
X120503740Y-104560000D01*
X120216842Y-104617068D01*
X119946589Y-104729010D01*
X119703368Y-104891525D01*
X119496525Y-105098368D01*
X119380000Y-105272760D01*
X119263475Y-105098368D01*
X119056632Y-104891525D01*
X118813411Y-104729010D01*
X118543158Y-104617068D01*
X118256260Y-104560000D01*
X117963740Y-104560000D01*
X117676842Y-104617068D01*
X117406589Y-104729010D01*
X117163368Y-104891525D01*
X116956525Y-105098368D01*
X116840000Y-105272760D01*
X116723475Y-105098368D01*
X116516632Y-104891525D01*
X116273411Y-104729010D01*
X116003158Y-104617068D01*
X115716260Y-104560000D01*
X115423740Y-104560000D01*
X115136842Y-104617068D01*
X114866589Y-104729010D01*
X114623368Y-104891525D01*
X114416525Y-105098368D01*
X114300000Y-105272760D01*
X114183475Y-105098368D01*
X113976632Y-104891525D01*
X113733411Y-104729010D01*
X113463158Y-104617068D01*
X113176260Y-104560000D01*
X112883740Y-104560000D01*
X112596842Y-104617068D01*
X112326589Y-104729010D01*
X112083368Y-104891525D01*
X111951513Y-105023380D01*
X111929502Y-104950820D01*
X111870537Y-104840506D01*
X111791185Y-104743815D01*
X111694494Y-104664463D01*
X111584180Y-104605498D01*
X111464482Y-104569188D01*
X111340000Y-104556928D01*
X109640000Y-104556928D01*
X109515518Y-104569188D01*
X109395820Y-104605498D01*
X109285506Y-104664463D01*
X109188815Y-104743815D01*
X109109463Y-104840506D01*
X109050498Y-104950820D01*
X109014188Y-105070518D01*
X109001928Y-105195000D01*
X108660000Y-105195000D01*
X108660000Y-101498061D01*
X111360000Y-101498061D01*
X111360000Y-101701939D01*
X111399774Y-101901898D01*
X111477795Y-102090256D01*
X111591063Y-102259774D01*
X111735226Y-102403937D01*
X111904744Y-102517205D01*
X112093102Y-102595226D01*
X112293061Y-102635000D01*
X112496939Y-102635000D01*
X112696898Y-102595226D01*
X112885256Y-102517205D01*
X113054774Y-102403937D01*
X113098711Y-102360000D01*
X119946289Y-102360000D01*
X119990226Y-102403937D01*
X120159744Y-102517205D01*
X120348102Y-102595226D01*
X120548061Y-102635000D01*
X120751939Y-102635000D01*
X120951898Y-102595226D01*
X121140256Y-102517205D01*
X121309774Y-102403937D01*
X121453937Y-102259774D01*
X121567205Y-102090256D01*
X121645226Y-101901898D01*
X121650254Y-101876621D01*
X121818061Y-101910000D01*
X122021939Y-101910000D01*
X122221898Y-101870226D01*
X122410256Y-101792205D01*
X122579774Y-101678937D01*
X122723937Y-101534774D01*
X122837205Y-101365256D01*
X122915226Y-101176898D01*
X122955000Y-100976939D01*
X122955000Y-100773061D01*
X122915226Y-100573102D01*
X122837205Y-100384744D01*
X122723937Y-100215226D01*
X122579774Y-100071063D01*
X122545349Y-100048061D01*
X136125000Y-100048061D01*
X136125000Y-100251939D01*
X136164774Y-100451898D01*
X136242795Y-100640256D01*
X136356063Y-100809774D01*
X136400000Y-100853711D01*
X136400001Y-101621288D01*
X136356063Y-101665226D01*
X136242795Y-101834744D01*
X136164774Y-102023102D01*
X136125000Y-102223061D01*
X136125000Y-102426939D01*
X136164774Y-102626898D01*
X136242795Y-102815256D01*
X136356063Y-102984774D01*
X136500226Y-103128937D01*
X136669744Y-103242205D01*
X136858102Y-103320226D01*
X137058061Y-103360000D01*
X137261939Y-103360000D01*
X137461898Y-103320226D01*
X137650256Y-103242205D01*
X137819774Y-103128937D01*
X137963937Y-102984774D01*
X138077205Y-102815256D01*
X138155226Y-102626898D01*
X138195000Y-102426939D01*
X138195000Y-102223061D01*
X138155226Y-102023102D01*
X138077205Y-101834744D01*
X137963937Y-101665226D01*
X137920000Y-101621289D01*
X137920000Y-100853711D01*
X137963937Y-100809774D01*
X138077205Y-100640256D01*
X138155226Y-100451898D01*
X138195000Y-100251939D01*
X138195000Y-100048061D01*
X138155226Y-99848102D01*
X138077205Y-99659744D01*
X137963937Y-99490226D01*
X137819774Y-99346063D01*
X137650256Y-99232795D01*
X137461898Y-99154774D01*
X137261939Y-99115000D01*
X137058061Y-99115000D01*
X136858102Y-99154774D01*
X136669744Y-99232795D01*
X136500226Y-99346063D01*
X136356063Y-99490226D01*
X136242795Y-99659744D01*
X136164774Y-99848102D01*
X136125000Y-100048061D01*
X122545349Y-100048061D01*
X122410256Y-99957795D01*
X122221898Y-99879774D01*
X122021939Y-99840000D01*
X121818061Y-99840000D01*
X121650254Y-99873379D01*
X121645226Y-99848102D01*
X121567205Y-99659744D01*
X121453937Y-99490226D01*
X121309774Y-99346063D01*
X121140256Y-99232795D01*
X120951898Y-99154774D01*
X120751939Y-99115000D01*
X120548061Y-99115000D01*
X120348102Y-99154774D01*
X120159744Y-99232795D01*
X119990226Y-99346063D01*
X119946289Y-99390000D01*
X116908711Y-99390000D01*
X116864774Y-99346063D01*
X116695256Y-99232795D01*
X116506898Y-99154774D01*
X116306939Y-99115000D01*
X116103061Y-99115000D01*
X115903102Y-99154774D01*
X115714744Y-99232795D01*
X115545226Y-99346063D01*
X115401063Y-99490226D01*
X115287795Y-99659744D01*
X115209774Y-99848102D01*
X115170000Y-100048061D01*
X115170000Y-100115000D01*
X115093711Y-100115000D01*
X115049774Y-100071063D01*
X114880256Y-99957795D01*
X114691898Y-99879774D01*
X114491939Y-99840000D01*
X114288061Y-99840000D01*
X114088102Y-99879774D01*
X113899744Y-99957795D01*
X113730226Y-100071063D01*
X113586063Y-100215226D01*
X113472795Y-100384744D01*
X113394774Y-100573102D01*
X113355000Y-100773061D01*
X113355000Y-100840000D01*
X113098711Y-100840000D01*
X113054774Y-100796063D01*
X112885256Y-100682795D01*
X112696898Y-100604774D01*
X112496939Y-100565000D01*
X112293061Y-100565000D01*
X112093102Y-100604774D01*
X111904744Y-100682795D01*
X111735226Y-100796063D01*
X111591063Y-100940226D01*
X111477795Y-101109744D01*
X111399774Y-101298102D01*
X111360000Y-101498061D01*
X108660000Y-101498061D01*
X108660000Y-94468740D01*
X153455000Y-94468740D01*
X153455000Y-94761260D01*
X153512068Y-95048158D01*
X153624010Y-95318411D01*
X153786525Y-95561632D01*
X153993368Y-95768475D01*
X154167760Y-95885000D01*
X153993368Y-96001525D01*
X153786525Y-96208368D01*
X153624010Y-96451589D01*
X153512068Y-96721842D01*
X153455000Y-97008740D01*
X153455000Y-97301260D01*
X153512068Y-97588158D01*
X153624010Y-97858411D01*
X153786525Y-98101632D01*
X153993368Y-98308475D01*
X154167760Y-98425000D01*
X153993368Y-98541525D01*
X153786525Y-98748368D01*
X153624010Y-98991589D01*
X153512068Y-99261842D01*
X153455000Y-99548740D01*
X153455000Y-99841260D01*
X153512068Y-100128158D01*
X153624010Y-100398411D01*
X153786525Y-100641632D01*
X153993368Y-100848475D01*
X154167760Y-100965000D01*
X153993368Y-101081525D01*
X153786525Y-101288368D01*
X153624010Y-101531589D01*
X153512068Y-101801842D01*
X153455000Y-102088740D01*
X153455000Y-102381260D01*
X153512068Y-102668158D01*
X153624010Y-102938411D01*
X153786525Y-103181632D01*
X153993368Y-103388475D01*
X154236589Y-103550990D01*
X154506842Y-103662932D01*
X154793740Y-103720000D01*
X155086260Y-103720000D01*
X155373158Y-103662932D01*
X155643411Y-103550990D01*
X155886632Y-103388475D01*
X156093475Y-103181632D01*
X156255990Y-102938411D01*
X156367932Y-102668158D01*
X156425000Y-102381260D01*
X156425000Y-102088740D01*
X156367932Y-101801842D01*
X156255990Y-101531589D01*
X156093475Y-101288368D01*
X155886632Y-101081525D01*
X155712240Y-100965000D01*
X155886632Y-100848475D01*
X156093475Y-100641632D01*
X156255990Y-100398411D01*
X156367932Y-100128158D01*
X156425000Y-99841260D01*
X156425000Y-99548740D01*
X156367932Y-99261842D01*
X156255990Y-98991589D01*
X156093475Y-98748368D01*
X155886632Y-98541525D01*
X155712240Y-98425000D01*
X155886632Y-98308475D01*
X156093475Y-98101632D01*
X156255990Y-97858411D01*
X156367932Y-97588158D01*
X156425000Y-97301260D01*
X156425000Y-97008740D01*
X156367932Y-96721842D01*
X156255990Y-96451589D01*
X156093475Y-96208368D01*
X155886632Y-96001525D01*
X155712240Y-95885000D01*
X155886632Y-95768475D01*
X156093475Y-95561632D01*
X156255990Y-95318411D01*
X156367932Y-95048158D01*
X156425000Y-94761260D01*
X156425000Y-94468740D01*
X156367932Y-94181842D01*
X156255990Y-93911589D01*
X156093475Y-93668368D01*
X155886632Y-93461525D01*
X155643411Y-93299010D01*
X155373158Y-93187068D01*
X155086260Y-93130000D01*
X154793740Y-93130000D01*
X154506842Y-93187068D01*
X154236589Y-93299010D01*
X153993368Y-93461525D01*
X153786525Y-93668368D01*
X153624010Y-93911589D01*
X153512068Y-94181842D01*
X153455000Y-94468740D01*
X108660000Y-94468740D01*
X108660000Y-91833397D01*
X109641208Y-91833397D01*
X109718843Y-92082472D01*
X109982883Y-92208371D01*
X110266411Y-92280339D01*
X110558531Y-92295611D01*
X110848019Y-92253599D01*
X111123747Y-92155919D01*
X111261157Y-92082472D01*
X111338792Y-91833397D01*
X112181208Y-91833397D01*
X112258843Y-92082472D01*
X112522883Y-92208371D01*
X112806411Y-92280339D01*
X113098531Y-92295611D01*
X113388019Y-92253599D01*
X113663747Y-92155919D01*
X113801157Y-92082472D01*
X113878792Y-91833397D01*
X113030000Y-90984605D01*
X112181208Y-91833397D01*
X111338792Y-91833397D01*
X110490000Y-90984605D01*
X109641208Y-91833397D01*
X108660000Y-91833397D01*
X108660000Y-90873531D01*
X108999389Y-90873531D01*
X109041401Y-91163019D01*
X109139081Y-91438747D01*
X109212528Y-91576157D01*
X109461603Y-91653792D01*
X110310395Y-90805000D01*
X110669605Y-90805000D01*
X111518397Y-91653792D01*
X111760000Y-91578486D01*
X112001603Y-91653792D01*
X112850395Y-90805000D01*
X113209605Y-90805000D01*
X114058397Y-91653792D01*
X114300689Y-91578271D01*
X114416525Y-91751632D01*
X114623368Y-91958475D01*
X114866589Y-92120990D01*
X115136842Y-92232932D01*
X115423740Y-92290000D01*
X115716260Y-92290000D01*
X116003158Y-92232932D01*
X116273411Y-92120990D01*
X116516632Y-91958475D01*
X116723475Y-91751632D01*
X116840000Y-91577240D01*
X116956525Y-91751632D01*
X117163368Y-91958475D01*
X117406589Y-92120990D01*
X117676842Y-92232932D01*
X117963740Y-92290000D01*
X118256260Y-92290000D01*
X118543158Y-92232932D01*
X118813411Y-92120990D01*
X119056632Y-91958475D01*
X119263475Y-91751632D01*
X119380000Y-91577240D01*
X119496525Y-91751632D01*
X119703368Y-91958475D01*
X119946589Y-92120990D01*
X120216842Y-92232932D01*
X120503740Y-92290000D01*
X120796260Y-92290000D01*
X121083158Y-92232932D01*
X121353411Y-92120990D01*
X121596632Y-91958475D01*
X121803475Y-91751632D01*
X121920000Y-91577240D01*
X122036525Y-91751632D01*
X122243368Y-91958475D01*
X122486589Y-92120990D01*
X122756842Y-92232932D01*
X123043740Y-92290000D01*
X123336260Y-92290000D01*
X123623158Y-92232932D01*
X123893411Y-92120990D01*
X124136632Y-91958475D01*
X124343475Y-91751632D01*
X124460000Y-91577240D01*
X124576525Y-91751632D01*
X124783368Y-91958475D01*
X125026589Y-92120990D01*
X125296842Y-92232932D01*
X125583740Y-92290000D01*
X125876260Y-92290000D01*
X126163158Y-92232932D01*
X126433411Y-92120990D01*
X126676632Y-91958475D01*
X126883475Y-91751632D01*
X127000000Y-91577240D01*
X127116525Y-91751632D01*
X127323368Y-91958475D01*
X127566589Y-92120990D01*
X127836842Y-92232932D01*
X128123740Y-92290000D01*
X128416260Y-92290000D01*
X128703158Y-92232932D01*
X128973411Y-92120990D01*
X129216632Y-91958475D01*
X129423475Y-91751632D01*
X129540000Y-91577240D01*
X129656525Y-91751632D01*
X129863368Y-91958475D01*
X130106589Y-92120990D01*
X130376842Y-92232932D01*
X130663740Y-92290000D01*
X130956260Y-92290000D01*
X131243158Y-92232932D01*
X131513411Y-92120990D01*
X131756632Y-91958475D01*
X131963475Y-91751632D01*
X132080000Y-91577240D01*
X132196525Y-91751632D01*
X132403368Y-91958475D01*
X132646589Y-92120990D01*
X132916842Y-92232932D01*
X133203740Y-92290000D01*
X133496260Y-92290000D01*
X133783158Y-92232932D01*
X134053411Y-92120990D01*
X134296632Y-91958475D01*
X134503475Y-91751632D01*
X134620000Y-91577240D01*
X134736525Y-91751632D01*
X134943368Y-91958475D01*
X135186589Y-92120990D01*
X135456842Y-92232932D01*
X135743740Y-92290000D01*
X136036260Y-92290000D01*
X136323158Y-92232932D01*
X136593411Y-92120990D01*
X136836632Y-91958475D01*
X137043475Y-91751632D01*
X137160000Y-91577240D01*
X137276525Y-91751632D01*
X137483368Y-91958475D01*
X137726589Y-92120990D01*
X137996842Y-92232932D01*
X138283740Y-92290000D01*
X138576260Y-92290000D01*
X138863158Y-92232932D01*
X139133411Y-92120990D01*
X139376632Y-91958475D01*
X139583475Y-91751632D01*
X139700000Y-91577240D01*
X139816525Y-91751632D01*
X140023368Y-91958475D01*
X140266589Y-92120990D01*
X140536842Y-92232932D01*
X140823740Y-92290000D01*
X141116260Y-92290000D01*
X141403158Y-92232932D01*
X141673411Y-92120990D01*
X141916632Y-91958475D01*
X142123475Y-91751632D01*
X142240000Y-91577240D01*
X142356525Y-91751632D01*
X142563368Y-91958475D01*
X142806589Y-92120990D01*
X143076842Y-92232932D01*
X143363740Y-92290000D01*
X143656260Y-92290000D01*
X143943158Y-92232932D01*
X144213411Y-92120990D01*
X144456632Y-91958475D01*
X144663475Y-91751632D01*
X144780000Y-91577240D01*
X144896525Y-91751632D01*
X145103368Y-91958475D01*
X145346589Y-92120990D01*
X145616842Y-92232932D01*
X145903740Y-92290000D01*
X146196260Y-92290000D01*
X146483158Y-92232932D01*
X146753411Y-92120990D01*
X146996632Y-91958475D01*
X147203475Y-91751632D01*
X147320000Y-91577240D01*
X147436525Y-91751632D01*
X147643368Y-91958475D01*
X147886589Y-92120990D01*
X148156842Y-92232932D01*
X148443740Y-92290000D01*
X148736260Y-92290000D01*
X149023158Y-92232932D01*
X149293411Y-92120990D01*
X149536632Y-91958475D01*
X149743475Y-91751632D01*
X149860000Y-91577240D01*
X149976525Y-91751632D01*
X150183368Y-91958475D01*
X150426589Y-92120990D01*
X150696842Y-92232932D01*
X150983740Y-92290000D01*
X151276260Y-92290000D01*
X151563158Y-92232932D01*
X151833411Y-92120990D01*
X152076632Y-91958475D01*
X152283475Y-91751632D01*
X152400000Y-91577240D01*
X152516525Y-91751632D01*
X152723368Y-91958475D01*
X152966589Y-92120990D01*
X153236842Y-92232932D01*
X153523740Y-92290000D01*
X153816260Y-92290000D01*
X154103158Y-92232932D01*
X154373411Y-92120990D01*
X154616632Y-91958475D01*
X154823475Y-91751632D01*
X154940000Y-91577240D01*
X155056525Y-91751632D01*
X155263368Y-91958475D01*
X155506589Y-92120990D01*
X155776842Y-92232932D01*
X156063740Y-92290000D01*
X156356260Y-92290000D01*
X156643158Y-92232932D01*
X156913411Y-92120990D01*
X157156632Y-91958475D01*
X157363475Y-91751632D01*
X157480000Y-91577240D01*
X157596525Y-91751632D01*
X157803368Y-91958475D01*
X158046589Y-92120990D01*
X158316842Y-92232932D01*
X158603740Y-92290000D01*
X158896260Y-92290000D01*
X159183158Y-92232932D01*
X159453411Y-92120990D01*
X159696632Y-91958475D01*
X159903475Y-91751632D01*
X160065990Y-91508411D01*
X160177932Y-91238158D01*
X160235000Y-90951260D01*
X160235000Y-90658740D01*
X160177932Y-90371842D01*
X160065990Y-90101589D01*
X159903475Y-89858368D01*
X159696632Y-89651525D01*
X159453411Y-89489010D01*
X159183158Y-89377068D01*
X158896260Y-89320000D01*
X158603740Y-89320000D01*
X158316842Y-89377068D01*
X158046589Y-89489010D01*
X157803368Y-89651525D01*
X157596525Y-89858368D01*
X157480000Y-90032760D01*
X157363475Y-89858368D01*
X157156632Y-89651525D01*
X156973074Y-89528875D01*
X156959003Y-89386014D01*
X156915546Y-89242753D01*
X156844974Y-89110724D01*
X156773799Y-89023997D01*
X156750001Y-88994999D01*
X156721002Y-88971200D01*
X156138803Y-88389002D01*
X156115001Y-88359999D01*
X155999276Y-88265026D01*
X155867247Y-88194454D01*
X155723986Y-88150997D01*
X155612333Y-88140000D01*
X155612322Y-88140000D01*
X155575000Y-88136324D01*
X155537678Y-88140000D01*
X116818711Y-88140000D01*
X116774774Y-88096063D01*
X116605256Y-87982795D01*
X116416898Y-87904774D01*
X116216939Y-87865000D01*
X116013061Y-87865000D01*
X115813102Y-87904774D01*
X115624744Y-87982795D01*
X115455226Y-88096063D01*
X115311063Y-88240226D01*
X115197795Y-88409744D01*
X115119774Y-88598102D01*
X115080000Y-88798061D01*
X115080000Y-89001939D01*
X115119774Y-89201898D01*
X115188108Y-89366870D01*
X115136842Y-89377068D01*
X114866589Y-89489010D01*
X114623368Y-89651525D01*
X114416525Y-89858368D01*
X114300689Y-90031729D01*
X114058397Y-89956208D01*
X113209605Y-90805000D01*
X112850395Y-90805000D01*
X112001603Y-89956208D01*
X111760000Y-90031514D01*
X111518397Y-89956208D01*
X110669605Y-90805000D01*
X110310395Y-90805000D01*
X109461603Y-89956208D01*
X109212528Y-90033843D01*
X109086629Y-90297883D01*
X109014661Y-90581411D01*
X108999389Y-90873531D01*
X108660000Y-90873531D01*
X108660000Y-89776603D01*
X109641208Y-89776603D01*
X110490000Y-90625395D01*
X111338792Y-89776603D01*
X112181208Y-89776603D01*
X113030000Y-90625395D01*
X113878792Y-89776603D01*
X113801157Y-89527528D01*
X113537117Y-89401629D01*
X113253589Y-89329661D01*
X112961469Y-89314389D01*
X112671981Y-89356401D01*
X112396253Y-89454081D01*
X112258843Y-89527528D01*
X112181208Y-89776603D01*
X111338792Y-89776603D01*
X111261157Y-89527528D01*
X110997117Y-89401629D01*
X110713589Y-89329661D01*
X110421469Y-89314389D01*
X110131981Y-89356401D01*
X109856253Y-89454081D01*
X109718843Y-89527528D01*
X109641208Y-89776603D01*
X108660000Y-89776603D01*
X108660000Y-81777000D01*
X110961928Y-81777000D01*
X110961928Y-83577000D01*
X110974188Y-83701482D01*
X111010498Y-83821180D01*
X111069463Y-83931494D01*
X111148815Y-84028185D01*
X111245506Y-84107537D01*
X111355820Y-84166502D01*
X111475518Y-84202812D01*
X111600000Y-84215072D01*
X113400000Y-84215072D01*
X113524482Y-84202812D01*
X113644180Y-84166502D01*
X113754494Y-84107537D01*
X113851185Y-84028185D01*
X113930537Y-83931494D01*
X113989502Y-83821180D01*
X114025812Y-83701482D01*
X114028059Y-83678665D01*
X116929000Y-83678665D01*
X116929000Y-83961335D01*
X116984147Y-84238574D01*
X117092320Y-84499727D01*
X117249363Y-84734759D01*
X117449241Y-84934637D01*
X117684273Y-85091680D01*
X117945426Y-85199853D01*
X118222665Y-85255000D01*
X118505335Y-85255000D01*
X118782574Y-85199853D01*
X119043727Y-85091680D01*
X119278759Y-84934637D01*
X119478637Y-84734759D01*
X119635680Y-84499727D01*
X119743853Y-84238574D01*
X119757684Y-84169039D01*
X127132096Y-84169039D01*
X127172754Y-84303087D01*
X127292963Y-84557420D01*
X127460481Y-84783414D01*
X127668869Y-84972385D01*
X127910119Y-85117070D01*
X128174960Y-85211909D01*
X128397000Y-85090624D01*
X128397000Y-83947000D01*
X128651000Y-83947000D01*
X128651000Y-85090624D01*
X128873040Y-85211909D01*
X129137881Y-85117070D01*
X129379131Y-84972385D01*
X129587519Y-84783414D01*
X129755037Y-84557420D01*
X129875246Y-84303087D01*
X129915904Y-84169039D01*
X129793915Y-83947000D01*
X128651000Y-83947000D01*
X128397000Y-83947000D01*
X127254085Y-83947000D01*
X127132096Y-84169039D01*
X119757684Y-84169039D01*
X119799000Y-83961335D01*
X119799000Y-83678665D01*
X119757685Y-83470961D01*
X127132096Y-83470961D01*
X127254085Y-83693000D01*
X128397000Y-83693000D01*
X128397000Y-82549376D01*
X128651000Y-82549376D01*
X128651000Y-83693000D01*
X129793915Y-83693000D01*
X129915904Y-83470961D01*
X129875246Y-83336913D01*
X129755037Y-83082580D01*
X129587519Y-82856586D01*
X129379131Y-82667615D01*
X129137881Y-82522930D01*
X128873040Y-82428091D01*
X128651000Y-82549376D01*
X128397000Y-82549376D01*
X128174960Y-82428091D01*
X127910119Y-82522930D01*
X127668869Y-82667615D01*
X127460481Y-82856586D01*
X127292963Y-83082580D01*
X127172754Y-83336913D01*
X127132096Y-83470961D01*
X119757685Y-83470961D01*
X119743853Y-83401426D01*
X119635680Y-83140273D01*
X119478637Y-82905241D01*
X119278759Y-82705363D01*
X119043727Y-82548320D01*
X118782574Y-82440147D01*
X118505335Y-82385000D01*
X118222665Y-82385000D01*
X117945426Y-82440147D01*
X117684273Y-82548320D01*
X117449241Y-82705363D01*
X117249363Y-82905241D01*
X117092320Y-83140273D01*
X116984147Y-83401426D01*
X116929000Y-83678665D01*
X114028059Y-83678665D01*
X114038072Y-83577000D01*
X114038072Y-81777000D01*
X114025812Y-81652518D01*
X113989502Y-81532820D01*
X113930537Y-81422506D01*
X113851185Y-81325815D01*
X113754494Y-81246463D01*
X113644180Y-81187498D01*
X113625873Y-81181944D01*
X113692312Y-81115505D01*
X113860299Y-80864095D01*
X113976011Y-80584743D01*
X114035000Y-80288184D01*
X114035000Y-79985816D01*
X113976011Y-79689257D01*
X113945114Y-79614665D01*
X116929000Y-79614665D01*
X116929000Y-79897335D01*
X116984147Y-80174574D01*
X117092320Y-80435727D01*
X117249363Y-80670759D01*
X117449241Y-80870637D01*
X117684273Y-81027680D01*
X117945426Y-81135853D01*
X118222665Y-81191000D01*
X118505335Y-81191000D01*
X118782574Y-81135853D01*
X119043727Y-81027680D01*
X119278759Y-80870637D01*
X119478637Y-80670759D01*
X119635680Y-80435727D01*
X119743853Y-80174574D01*
X119757684Y-80105039D01*
X127132096Y-80105039D01*
X127172754Y-80239087D01*
X127292963Y-80493420D01*
X127460481Y-80719414D01*
X127668869Y-80908385D01*
X127910119Y-81053070D01*
X128174960Y-81147909D01*
X128397000Y-81026624D01*
X128397000Y-79883000D01*
X128651000Y-79883000D01*
X128651000Y-81026624D01*
X128873040Y-81147909D01*
X129137881Y-81053070D01*
X129379131Y-80908385D01*
X129587519Y-80719414D01*
X129755037Y-80493420D01*
X129875246Y-80239087D01*
X129915904Y-80105039D01*
X129793915Y-79883000D01*
X128651000Y-79883000D01*
X128397000Y-79883000D01*
X127254085Y-79883000D01*
X127132096Y-80105039D01*
X119757684Y-80105039D01*
X119799000Y-79897335D01*
X119799000Y-79614665D01*
X119757685Y-79406961D01*
X127132096Y-79406961D01*
X127254085Y-79629000D01*
X128397000Y-79629000D01*
X128397000Y-78485376D01*
X128651000Y-78485376D01*
X128651000Y-79629000D01*
X129793915Y-79629000D01*
X129915904Y-79406961D01*
X129875246Y-79272913D01*
X129755037Y-79018580D01*
X129587519Y-78792586D01*
X129379131Y-78603615D01*
X129137881Y-78458930D01*
X128873040Y-78364091D01*
X128651000Y-78485376D01*
X128397000Y-78485376D01*
X128174960Y-78364091D01*
X127910119Y-78458930D01*
X127668869Y-78603615D01*
X127460481Y-78792586D01*
X127292963Y-79018580D01*
X127172754Y-79272913D01*
X127132096Y-79406961D01*
X119757685Y-79406961D01*
X119743853Y-79337426D01*
X119635680Y-79076273D01*
X119478637Y-78841241D01*
X119278759Y-78641363D01*
X119043727Y-78484320D01*
X118782574Y-78376147D01*
X118505335Y-78321000D01*
X118222665Y-78321000D01*
X117945426Y-78376147D01*
X117684273Y-78484320D01*
X117449241Y-78641363D01*
X117249363Y-78841241D01*
X117092320Y-79076273D01*
X116984147Y-79337426D01*
X116929000Y-79614665D01*
X113945114Y-79614665D01*
X113860299Y-79409905D01*
X113692312Y-79158495D01*
X113478505Y-78944688D01*
X113227095Y-78776701D01*
X112947743Y-78660989D01*
X112651184Y-78602000D01*
X112348816Y-78602000D01*
X112052257Y-78660989D01*
X111772905Y-78776701D01*
X111521495Y-78944688D01*
X111307688Y-79158495D01*
X111139701Y-79409905D01*
X111023989Y-79689257D01*
X110965000Y-79985816D01*
X110965000Y-80288184D01*
X111023989Y-80584743D01*
X111139701Y-80864095D01*
X111307688Y-81115505D01*
X111374127Y-81181944D01*
X111355820Y-81187498D01*
X111245506Y-81246463D01*
X111148815Y-81325815D01*
X111069463Y-81422506D01*
X111010498Y-81532820D01*
X110974188Y-81652518D01*
X110961928Y-81777000D01*
X108660000Y-81777000D01*
X108660000Y-72379000D01*
X110961928Y-72379000D01*
X110961928Y-74179000D01*
X110974188Y-74303482D01*
X111010498Y-74423180D01*
X111069463Y-74533494D01*
X111148815Y-74630185D01*
X111245506Y-74709537D01*
X111355820Y-74768502D01*
X111475518Y-74804812D01*
X111600000Y-74817072D01*
X113400000Y-74817072D01*
X113524482Y-74804812D01*
X113644180Y-74768502D01*
X113754494Y-74709537D01*
X113851185Y-74630185D01*
X113930537Y-74533494D01*
X113989502Y-74423180D01*
X114025812Y-74303482D01*
X114038072Y-74179000D01*
X114038072Y-72878740D01*
X121070000Y-72878740D01*
X121070000Y-73171260D01*
X121127068Y-73458158D01*
X121239010Y-73728411D01*
X121401525Y-73971632D01*
X121608368Y-74178475D01*
X121851589Y-74340990D01*
X122121842Y-74452932D01*
X122408740Y-74510000D01*
X122701260Y-74510000D01*
X122988158Y-74452932D01*
X123258411Y-74340990D01*
X123501632Y-74178475D01*
X123708475Y-73971632D01*
X123825000Y-73797240D01*
X123941525Y-73971632D01*
X124148368Y-74178475D01*
X124391589Y-74340990D01*
X124661842Y-74452932D01*
X124948740Y-74510000D01*
X125241260Y-74510000D01*
X125528158Y-74452932D01*
X125798411Y-74340990D01*
X126041632Y-74178475D01*
X126248475Y-73971632D01*
X126365000Y-73797240D01*
X126481525Y-73971632D01*
X126688368Y-74178475D01*
X126931589Y-74340990D01*
X127201842Y-74452932D01*
X127488740Y-74510000D01*
X127781260Y-74510000D01*
X128068158Y-74452932D01*
X128338411Y-74340990D01*
X128581632Y-74178475D01*
X128788475Y-73971632D01*
X128905000Y-73797240D01*
X129021525Y-73971632D01*
X129228368Y-74178475D01*
X129415000Y-74303179D01*
X129415000Y-74982677D01*
X129411324Y-75020000D01*
X129415000Y-75057322D01*
X129415000Y-75057332D01*
X129425997Y-75168985D01*
X129452089Y-75255000D01*
X129469454Y-75312246D01*
X129540026Y-75444276D01*
X129574320Y-75486063D01*
X129634999Y-75560001D01*
X129664003Y-75583804D01*
X130410000Y-76329802D01*
X130410000Y-76391939D01*
X130449774Y-76591898D01*
X130527795Y-76780256D01*
X130641063Y-76949774D01*
X130785226Y-77093937D01*
X130954744Y-77207205D01*
X131143102Y-77285226D01*
X131343061Y-77325000D01*
X131546939Y-77325000D01*
X131746898Y-77285226D01*
X131935256Y-77207205D01*
X132104774Y-77093937D01*
X132229455Y-76969256D01*
X132315000Y-77054801D01*
X132315000Y-77116939D01*
X132354774Y-77316898D01*
X132432795Y-77505256D01*
X132546063Y-77674774D01*
X132690226Y-77818937D01*
X132859744Y-77932205D01*
X133048102Y-78010226D01*
X133248061Y-78050000D01*
X133451939Y-78050000D01*
X133651898Y-78010226D01*
X133840256Y-77932205D01*
X134009774Y-77818937D01*
X134153937Y-77674774D01*
X134237605Y-77549556D01*
X134220000Y-77638061D01*
X134220000Y-77841939D01*
X134259774Y-78041898D01*
X134337795Y-78230256D01*
X134451063Y-78399774D01*
X134595226Y-78543937D01*
X134764744Y-78657205D01*
X134953102Y-78735226D01*
X135153061Y-78775000D01*
X135356939Y-78775000D01*
X135556898Y-78735226D01*
X135745256Y-78657205D01*
X135914774Y-78543937D01*
X136058937Y-78399774D01*
X136172205Y-78230256D01*
X136250226Y-78041898D01*
X136290000Y-77841939D01*
X136290000Y-77638061D01*
X136250226Y-77438102D01*
X136172205Y-77249744D01*
X136058937Y-77080226D01*
X136015000Y-77036289D01*
X136015000Y-74303178D01*
X136201632Y-74178475D01*
X136408475Y-73971632D01*
X136525000Y-73797240D01*
X136641525Y-73971632D01*
X136848368Y-74178475D01*
X137035000Y-74303179D01*
X137035001Y-77036288D01*
X136991063Y-77080226D01*
X136877795Y-77249744D01*
X136799774Y-77438102D01*
X136760000Y-77638061D01*
X136760000Y-77841939D01*
X136799774Y-78041898D01*
X136877795Y-78230256D01*
X136991063Y-78399774D01*
X137135226Y-78543937D01*
X137304744Y-78657205D01*
X137493102Y-78735226D01*
X137693061Y-78775000D01*
X137896939Y-78775000D01*
X138096898Y-78735226D01*
X138285256Y-78657205D01*
X138454774Y-78543937D01*
X138598937Y-78399774D01*
X138712205Y-78230256D01*
X138790226Y-78041898D01*
X138830000Y-77841939D01*
X138830000Y-77638061D01*
X138790226Y-77438102D01*
X138712205Y-77249744D01*
X138598937Y-77080226D01*
X138555000Y-77036289D01*
X138555000Y-74303178D01*
X138741632Y-74178475D01*
X138948475Y-73971632D01*
X139065000Y-73797240D01*
X139181525Y-73971632D01*
X139388368Y-74178475D01*
X139575000Y-74303179D01*
X139575001Y-77401288D01*
X139531063Y-77445226D01*
X139417795Y-77614744D01*
X139339774Y-77803102D01*
X139300000Y-78003061D01*
X139300000Y-78206939D01*
X139339774Y-78406898D01*
X139417795Y-78595256D01*
X139531063Y-78764774D01*
X139675226Y-78908937D01*
X139844744Y-79022205D01*
X140033102Y-79100226D01*
X140233061Y-79140000D01*
X140436939Y-79140000D01*
X140636898Y-79100226D01*
X140825256Y-79022205D01*
X140994774Y-78908937D01*
X141138937Y-78764774D01*
X141252205Y-78595256D01*
X141287500Y-78510047D01*
X141322795Y-78595256D01*
X141436063Y-78764774D01*
X141580226Y-78908937D01*
X141749744Y-79022205D01*
X141938102Y-79100226D01*
X142138061Y-79140000D01*
X142341939Y-79140000D01*
X142541898Y-79100226D01*
X142730256Y-79022205D01*
X142899774Y-78908937D01*
X143043937Y-78764774D01*
X143157205Y-78595256D01*
X143235226Y-78406898D01*
X143275000Y-78206939D01*
X143275000Y-78144802D01*
X143386002Y-78033800D01*
X143415001Y-78010001D01*
X143509974Y-77894276D01*
X143580546Y-77762247D01*
X143624003Y-77618986D01*
X143635000Y-77507333D01*
X143638677Y-77470000D01*
X143635000Y-77432667D01*
X143635000Y-77259721D01*
X176300000Y-77259721D01*
X176300000Y-77680279D01*
X176382047Y-78092756D01*
X176542988Y-78481302D01*
X176776637Y-78830983D01*
X177074017Y-79128363D01*
X177423698Y-79362012D01*
X177812244Y-79522953D01*
X178224721Y-79605000D01*
X178645279Y-79605000D01*
X179057756Y-79522953D01*
X179446302Y-79362012D01*
X179795983Y-79128363D01*
X179962693Y-78961653D01*
X180932952Y-78961653D01*
X181088962Y-79277214D01*
X181463745Y-79468020D01*
X181868551Y-79582044D01*
X182287824Y-79614902D01*
X182705451Y-79565334D01*
X183105383Y-79435243D01*
X183401038Y-79277214D01*
X183557048Y-78961653D01*
X182245000Y-77649605D01*
X180932952Y-78961653D01*
X179962693Y-78961653D01*
X180093363Y-78830983D01*
X180327012Y-78481302D01*
X180341600Y-78446084D01*
X180437786Y-78626038D01*
X180753347Y-78782048D01*
X182065395Y-77470000D01*
X182424605Y-77470000D01*
X183736653Y-78782048D01*
X183916928Y-78692922D01*
X183916928Y-78970000D01*
X183929188Y-79094482D01*
X183965498Y-79214180D01*
X184024463Y-79324494D01*
X184103815Y-79421185D01*
X184200506Y-79500537D01*
X184310820Y-79559502D01*
X184430518Y-79595812D01*
X184555000Y-79608072D01*
X187555000Y-79608072D01*
X187679482Y-79595812D01*
X187799180Y-79559502D01*
X187909494Y-79500537D01*
X188006185Y-79421185D01*
X188085537Y-79324494D01*
X188144502Y-79214180D01*
X188180812Y-79094482D01*
X188193072Y-78970000D01*
X188193072Y-75970000D01*
X188180812Y-75845518D01*
X188144502Y-75725820D01*
X188085537Y-75615506D01*
X188006185Y-75518815D01*
X187909494Y-75439463D01*
X187799180Y-75380498D01*
X187679482Y-75344188D01*
X187555000Y-75331928D01*
X184555000Y-75331928D01*
X184430518Y-75344188D01*
X184310820Y-75380498D01*
X184200506Y-75439463D01*
X184103815Y-75518815D01*
X184024463Y-75615506D01*
X183965498Y-75725820D01*
X183929188Y-75845518D01*
X183916928Y-75970000D01*
X183916928Y-76247078D01*
X183736653Y-76157952D01*
X182424605Y-77470000D01*
X182065395Y-77470000D01*
X180753347Y-76157952D01*
X180437786Y-76313962D01*
X180343650Y-76498865D01*
X180327012Y-76458698D01*
X180093363Y-76109017D01*
X179962693Y-75978347D01*
X180932952Y-75978347D01*
X182245000Y-77290395D01*
X183557048Y-75978347D01*
X183401038Y-75662786D01*
X183026255Y-75471980D01*
X182621449Y-75357956D01*
X182202176Y-75325098D01*
X181784549Y-75374666D01*
X181384617Y-75504757D01*
X181088962Y-75662786D01*
X180932952Y-75978347D01*
X179962693Y-75978347D01*
X179795983Y-75811637D01*
X179446302Y-75577988D01*
X179057756Y-75417047D01*
X178645279Y-75335000D01*
X178224721Y-75335000D01*
X177812244Y-75417047D01*
X177423698Y-75577988D01*
X177074017Y-75811637D01*
X176776637Y-76109017D01*
X176542988Y-76458698D01*
X176382047Y-76847244D01*
X176300000Y-77259721D01*
X143635000Y-77259721D01*
X143635000Y-74303178D01*
X143821632Y-74178475D01*
X144028475Y-73971632D01*
X144145000Y-73797240D01*
X144261525Y-73971632D01*
X144468368Y-74178475D01*
X144711589Y-74340990D01*
X144981842Y-74452932D01*
X145268740Y-74510000D01*
X145561260Y-74510000D01*
X145848158Y-74452932D01*
X146118411Y-74340990D01*
X146361632Y-74178475D01*
X146568475Y-73971632D01*
X146685000Y-73797240D01*
X146801525Y-73971632D01*
X147008368Y-74178475D01*
X147251589Y-74340990D01*
X147521842Y-74452932D01*
X147808740Y-74510000D01*
X148101260Y-74510000D01*
X148388158Y-74452932D01*
X148658411Y-74340990D01*
X148901632Y-74178475D01*
X149108475Y-73971632D01*
X149225000Y-73797240D01*
X149341525Y-73971632D01*
X149548368Y-74178475D01*
X149791589Y-74340990D01*
X150061842Y-74452932D01*
X150348740Y-74510000D01*
X150641260Y-74510000D01*
X150928158Y-74452932D01*
X151198411Y-74340990D01*
X151441632Y-74178475D01*
X151648475Y-73971632D01*
X151765000Y-73797240D01*
X151881525Y-73971632D01*
X152088368Y-74178475D01*
X152331589Y-74340990D01*
X152601842Y-74452932D01*
X152888740Y-74510000D01*
X153181260Y-74510000D01*
X153468158Y-74452932D01*
X153738411Y-74340990D01*
X153981632Y-74178475D01*
X154188475Y-73971632D01*
X154350990Y-73728411D01*
X154462932Y-73458158D01*
X154520000Y-73171260D01*
X154520000Y-72878740D01*
X154462932Y-72591842D01*
X154350990Y-72321589D01*
X154188475Y-72078368D01*
X154056620Y-71946513D01*
X154129180Y-71924502D01*
X154239494Y-71865537D01*
X154336185Y-71786185D01*
X154415537Y-71689494D01*
X154474502Y-71579180D01*
X154510812Y-71459482D01*
X154523072Y-71335000D01*
X154520000Y-70770750D01*
X154361250Y-70612000D01*
X153162000Y-70612000D01*
X153162000Y-70632000D01*
X152908000Y-70632000D01*
X152908000Y-70612000D01*
X152888000Y-70612000D01*
X152888000Y-70358000D01*
X152908000Y-70358000D01*
X152908000Y-69158750D01*
X153162000Y-69158750D01*
X153162000Y-70358000D01*
X154361250Y-70358000D01*
X154520000Y-70199250D01*
X154523072Y-69635000D01*
X154510812Y-69510518D01*
X154474502Y-69390820D01*
X154415537Y-69280506D01*
X154336185Y-69183815D01*
X154239494Y-69104463D01*
X154129180Y-69045498D01*
X154009482Y-69009188D01*
X153885000Y-68996928D01*
X153320750Y-69000000D01*
X153162000Y-69158750D01*
X152908000Y-69158750D01*
X152749250Y-69000000D01*
X152185000Y-68996928D01*
X152060518Y-69009188D01*
X151940820Y-69045498D01*
X151830506Y-69104463D01*
X151733815Y-69183815D01*
X151654463Y-69280506D01*
X151595498Y-69390820D01*
X151559188Y-69510518D01*
X151546928Y-69635000D01*
X151546975Y-69643557D01*
X151523397Y-69636208D01*
X150674605Y-70485000D01*
X151523397Y-71333792D01*
X151546975Y-71326443D01*
X151546928Y-71335000D01*
X151559188Y-71459482D01*
X151595498Y-71579180D01*
X151654463Y-71689494D01*
X151733815Y-71786185D01*
X151830506Y-71865537D01*
X151940820Y-71924502D01*
X152013380Y-71946513D01*
X151881525Y-72078368D01*
X151765000Y-72252760D01*
X151648475Y-72078368D01*
X151441632Y-71871525D01*
X151268271Y-71755689D01*
X151343792Y-71513397D01*
X150495000Y-70664605D01*
X149646208Y-71513397D01*
X149721729Y-71755689D01*
X149548368Y-71871525D01*
X149341525Y-72078368D01*
X149225000Y-72252760D01*
X149108475Y-72078368D01*
X148901632Y-71871525D01*
X148728271Y-71755689D01*
X148803792Y-71513397D01*
X147955000Y-70664605D01*
X147106208Y-71513397D01*
X147181729Y-71755689D01*
X147008368Y-71871525D01*
X146801525Y-72078368D01*
X146685000Y-72252760D01*
X146568475Y-72078368D01*
X146361632Y-71871525D01*
X146188271Y-71755689D01*
X146263792Y-71513397D01*
X145415000Y-70664605D01*
X144566208Y-71513397D01*
X144641729Y-71755689D01*
X144468368Y-71871525D01*
X144261525Y-72078368D01*
X144145000Y-72252760D01*
X144028475Y-72078368D01*
X143821632Y-71871525D01*
X143648271Y-71755689D01*
X143723792Y-71513397D01*
X142875000Y-70664605D01*
X142026208Y-71513397D01*
X142101729Y-71755689D01*
X141928368Y-71871525D01*
X141721525Y-72078368D01*
X141605000Y-72252760D01*
X141488475Y-72078368D01*
X141281632Y-71871525D01*
X141108271Y-71755689D01*
X141183792Y-71513397D01*
X140335000Y-70664605D01*
X139486208Y-71513397D01*
X139561729Y-71755689D01*
X139388368Y-71871525D01*
X139181525Y-72078368D01*
X139065000Y-72252760D01*
X138948475Y-72078368D01*
X138741632Y-71871525D01*
X138568271Y-71755689D01*
X138643792Y-71513397D01*
X137795000Y-70664605D01*
X136946208Y-71513397D01*
X137021729Y-71755689D01*
X136848368Y-71871525D01*
X136641525Y-72078368D01*
X136525000Y-72252760D01*
X136408475Y-72078368D01*
X136201632Y-71871525D01*
X136028271Y-71755689D01*
X136103792Y-71513397D01*
X135255000Y-70664605D01*
X134406208Y-71513397D01*
X134481729Y-71755689D01*
X134308368Y-71871525D01*
X134101525Y-72078368D01*
X133985000Y-72252760D01*
X133868475Y-72078368D01*
X133661632Y-71871525D01*
X133488271Y-71755689D01*
X133563792Y-71513397D01*
X132715000Y-70664605D01*
X131866208Y-71513397D01*
X131941729Y-71755689D01*
X131768368Y-71871525D01*
X131561525Y-72078368D01*
X131445000Y-72252760D01*
X131328475Y-72078368D01*
X131121632Y-71871525D01*
X130948271Y-71755689D01*
X131023792Y-71513397D01*
X130175000Y-70664605D01*
X129326208Y-71513397D01*
X129401729Y-71755689D01*
X129228368Y-71871525D01*
X129021525Y-72078368D01*
X128905000Y-72252760D01*
X128788475Y-72078368D01*
X128581632Y-71871525D01*
X128408271Y-71755689D01*
X128483792Y-71513397D01*
X127635000Y-70664605D01*
X126786208Y-71513397D01*
X126861729Y-71755689D01*
X126688368Y-71871525D01*
X126481525Y-72078368D01*
X126365000Y-72252760D01*
X126248475Y-72078368D01*
X126041632Y-71871525D01*
X125868271Y-71755689D01*
X125943792Y-71513397D01*
X125095000Y-70664605D01*
X124246208Y-71513397D01*
X124321729Y-71755689D01*
X124148368Y-71871525D01*
X123941525Y-72078368D01*
X123825000Y-72252760D01*
X123708475Y-72078368D01*
X123501632Y-71871525D01*
X123328271Y-71755689D01*
X123403792Y-71513397D01*
X122555000Y-70664605D01*
X121706208Y-71513397D01*
X121781729Y-71755689D01*
X121608368Y-71871525D01*
X121401525Y-72078368D01*
X121239010Y-72321589D01*
X121127068Y-72591842D01*
X121070000Y-72878740D01*
X114038072Y-72878740D01*
X114038072Y-72379000D01*
X114025812Y-72254518D01*
X113989502Y-72134820D01*
X113930537Y-72024506D01*
X113851185Y-71927815D01*
X113754494Y-71848463D01*
X113644180Y-71789498D01*
X113625873Y-71783944D01*
X113692312Y-71717505D01*
X113860299Y-71466095D01*
X113976011Y-71186743D01*
X114035000Y-70890184D01*
X114035000Y-70587816D01*
X114028181Y-70553531D01*
X121064389Y-70553531D01*
X121106401Y-70843019D01*
X121204081Y-71118747D01*
X121277528Y-71256157D01*
X121526603Y-71333792D01*
X122375395Y-70485000D01*
X122734605Y-70485000D01*
X123583397Y-71333792D01*
X123825000Y-71258486D01*
X124066603Y-71333792D01*
X124915395Y-70485000D01*
X125274605Y-70485000D01*
X126123397Y-71333792D01*
X126365000Y-71258486D01*
X126606603Y-71333792D01*
X127455395Y-70485000D01*
X127814605Y-70485000D01*
X128663397Y-71333792D01*
X128905000Y-71258486D01*
X129146603Y-71333792D01*
X129995395Y-70485000D01*
X130354605Y-70485000D01*
X131203397Y-71333792D01*
X131445000Y-71258486D01*
X131686603Y-71333792D01*
X132535395Y-70485000D01*
X132894605Y-70485000D01*
X133743397Y-71333792D01*
X133985000Y-71258486D01*
X134226603Y-71333792D01*
X135075395Y-70485000D01*
X135434605Y-70485000D01*
X136283397Y-71333792D01*
X136525000Y-71258486D01*
X136766603Y-71333792D01*
X137615395Y-70485000D01*
X137974605Y-70485000D01*
X138823397Y-71333792D01*
X139065000Y-71258486D01*
X139306603Y-71333792D01*
X140155395Y-70485000D01*
X140514605Y-70485000D01*
X141363397Y-71333792D01*
X141605000Y-71258486D01*
X141846603Y-71333792D01*
X142695395Y-70485000D01*
X143054605Y-70485000D01*
X143903397Y-71333792D01*
X144145000Y-71258486D01*
X144386603Y-71333792D01*
X145235395Y-70485000D01*
X145594605Y-70485000D01*
X146443397Y-71333792D01*
X146685000Y-71258486D01*
X146926603Y-71333792D01*
X147775395Y-70485000D01*
X148134605Y-70485000D01*
X148983397Y-71333792D01*
X149225000Y-71258486D01*
X149466603Y-71333792D01*
X150315395Y-70485000D01*
X149466603Y-69636208D01*
X149225000Y-69711514D01*
X148983397Y-69636208D01*
X148134605Y-70485000D01*
X147775395Y-70485000D01*
X146926603Y-69636208D01*
X146685000Y-69711514D01*
X146443397Y-69636208D01*
X145594605Y-70485000D01*
X145235395Y-70485000D01*
X144386603Y-69636208D01*
X144145000Y-69711514D01*
X143903397Y-69636208D01*
X143054605Y-70485000D01*
X142695395Y-70485000D01*
X141846603Y-69636208D01*
X141605000Y-69711514D01*
X141363397Y-69636208D01*
X140514605Y-70485000D01*
X140155395Y-70485000D01*
X139306603Y-69636208D01*
X139065000Y-69711514D01*
X138823397Y-69636208D01*
X137974605Y-70485000D01*
X137615395Y-70485000D01*
X136766603Y-69636208D01*
X136525000Y-69711514D01*
X136283397Y-69636208D01*
X135434605Y-70485000D01*
X135075395Y-70485000D01*
X134226603Y-69636208D01*
X133985000Y-69711514D01*
X133743397Y-69636208D01*
X132894605Y-70485000D01*
X132535395Y-70485000D01*
X131686603Y-69636208D01*
X131445000Y-69711514D01*
X131203397Y-69636208D01*
X130354605Y-70485000D01*
X129995395Y-70485000D01*
X129146603Y-69636208D01*
X128905000Y-69711514D01*
X128663397Y-69636208D01*
X127814605Y-70485000D01*
X127455395Y-70485000D01*
X126606603Y-69636208D01*
X126365000Y-69711514D01*
X126123397Y-69636208D01*
X125274605Y-70485000D01*
X124915395Y-70485000D01*
X124066603Y-69636208D01*
X123825000Y-69711514D01*
X123583397Y-69636208D01*
X122734605Y-70485000D01*
X122375395Y-70485000D01*
X121526603Y-69636208D01*
X121277528Y-69713843D01*
X121151629Y-69977883D01*
X121079661Y-70261411D01*
X121064389Y-70553531D01*
X114028181Y-70553531D01*
X113976011Y-70291257D01*
X113860299Y-70011905D01*
X113692312Y-69760495D01*
X113478505Y-69546688D01*
X113343684Y-69456603D01*
X121706208Y-69456603D01*
X122555000Y-70305395D01*
X123403792Y-69456603D01*
X124246208Y-69456603D01*
X125095000Y-70305395D01*
X125943792Y-69456603D01*
X126786208Y-69456603D01*
X127635000Y-70305395D01*
X128483792Y-69456603D01*
X129326208Y-69456603D01*
X130175000Y-70305395D01*
X131023792Y-69456603D01*
X131866208Y-69456603D01*
X132715000Y-70305395D01*
X133563792Y-69456603D01*
X134406208Y-69456603D01*
X135255000Y-70305395D01*
X136103792Y-69456603D01*
X136946208Y-69456603D01*
X137795000Y-70305395D01*
X138643792Y-69456603D01*
X139486208Y-69456603D01*
X140335000Y-70305395D01*
X141183792Y-69456603D01*
X142026208Y-69456603D01*
X142875000Y-70305395D01*
X143723792Y-69456603D01*
X144566208Y-69456603D01*
X145415000Y-70305395D01*
X146263792Y-69456603D01*
X147106208Y-69456603D01*
X147955000Y-70305395D01*
X148803792Y-69456603D01*
X149646208Y-69456603D01*
X150495000Y-70305395D01*
X151343792Y-69456603D01*
X151266157Y-69207528D01*
X151002117Y-69081629D01*
X150718589Y-69009661D01*
X150426469Y-68994389D01*
X150136981Y-69036401D01*
X149861253Y-69134081D01*
X149723843Y-69207528D01*
X149646208Y-69456603D01*
X148803792Y-69456603D01*
X148726157Y-69207528D01*
X148462117Y-69081629D01*
X148178589Y-69009661D01*
X147886469Y-68994389D01*
X147596981Y-69036401D01*
X147321253Y-69134081D01*
X147183843Y-69207528D01*
X147106208Y-69456603D01*
X146263792Y-69456603D01*
X146186157Y-69207528D01*
X145922117Y-69081629D01*
X145638589Y-69009661D01*
X145346469Y-68994389D01*
X145056981Y-69036401D01*
X144781253Y-69134081D01*
X144643843Y-69207528D01*
X144566208Y-69456603D01*
X143723792Y-69456603D01*
X143646157Y-69207528D01*
X143382117Y-69081629D01*
X143098589Y-69009661D01*
X142806469Y-68994389D01*
X142516981Y-69036401D01*
X142241253Y-69134081D01*
X142103843Y-69207528D01*
X142026208Y-69456603D01*
X141183792Y-69456603D01*
X141106157Y-69207528D01*
X140842117Y-69081629D01*
X140558589Y-69009661D01*
X140266469Y-68994389D01*
X139976981Y-69036401D01*
X139701253Y-69134081D01*
X139563843Y-69207528D01*
X139486208Y-69456603D01*
X138643792Y-69456603D01*
X138566157Y-69207528D01*
X138302117Y-69081629D01*
X138018589Y-69009661D01*
X137726469Y-68994389D01*
X137436981Y-69036401D01*
X137161253Y-69134081D01*
X137023843Y-69207528D01*
X136946208Y-69456603D01*
X136103792Y-69456603D01*
X136026157Y-69207528D01*
X135762117Y-69081629D01*
X135478589Y-69009661D01*
X135186469Y-68994389D01*
X134896981Y-69036401D01*
X134621253Y-69134081D01*
X134483843Y-69207528D01*
X134406208Y-69456603D01*
X133563792Y-69456603D01*
X133486157Y-69207528D01*
X133222117Y-69081629D01*
X132938589Y-69009661D01*
X132646469Y-68994389D01*
X132356981Y-69036401D01*
X132081253Y-69134081D01*
X131943843Y-69207528D01*
X131866208Y-69456603D01*
X131023792Y-69456603D01*
X130946157Y-69207528D01*
X130682117Y-69081629D01*
X130398589Y-69009661D01*
X130106469Y-68994389D01*
X129816981Y-69036401D01*
X129541253Y-69134081D01*
X129403843Y-69207528D01*
X129326208Y-69456603D01*
X128483792Y-69456603D01*
X128406157Y-69207528D01*
X128142117Y-69081629D01*
X127858589Y-69009661D01*
X127566469Y-68994389D01*
X127276981Y-69036401D01*
X127001253Y-69134081D01*
X126863843Y-69207528D01*
X126786208Y-69456603D01*
X125943792Y-69456603D01*
X125866157Y-69207528D01*
X125602117Y-69081629D01*
X125318589Y-69009661D01*
X125026469Y-68994389D01*
X124736981Y-69036401D01*
X124461253Y-69134081D01*
X124323843Y-69207528D01*
X124246208Y-69456603D01*
X123403792Y-69456603D01*
X123326157Y-69207528D01*
X123062117Y-69081629D01*
X122778589Y-69009661D01*
X122486469Y-68994389D01*
X122196981Y-69036401D01*
X121921253Y-69134081D01*
X121783843Y-69207528D01*
X121706208Y-69456603D01*
X113343684Y-69456603D01*
X113227095Y-69378701D01*
X112947743Y-69262989D01*
X112651184Y-69204000D01*
X112348816Y-69204000D01*
X112052257Y-69262989D01*
X111772905Y-69378701D01*
X111521495Y-69546688D01*
X111307688Y-69760495D01*
X111139701Y-70011905D01*
X111023989Y-70291257D01*
X110965000Y-70587816D01*
X110965000Y-70890184D01*
X111023989Y-71186743D01*
X111139701Y-71466095D01*
X111307688Y-71717505D01*
X111374127Y-71783944D01*
X111355820Y-71789498D01*
X111245506Y-71848463D01*
X111148815Y-71927815D01*
X111069463Y-72024506D01*
X111010498Y-72134820D01*
X110974188Y-72254518D01*
X110961928Y-72379000D01*
X108660000Y-72379000D01*
X108660000Y-67939600D01*
X177468328Y-67939600D01*
X177480588Y-68064082D01*
X177516898Y-68183780D01*
X177575863Y-68294094D01*
X177655215Y-68390785D01*
X177751906Y-68470137D01*
X177862220Y-68529102D01*
X177981918Y-68565412D01*
X178106400Y-68577672D01*
X179570650Y-68574600D01*
X179729400Y-68415850D01*
X179729400Y-66316600D01*
X179983400Y-66316600D01*
X179983400Y-68415850D01*
X180142150Y-68574600D01*
X181606400Y-68577672D01*
X181730882Y-68565412D01*
X181850580Y-68529102D01*
X181960894Y-68470137D01*
X182057585Y-68390785D01*
X182136937Y-68294094D01*
X182168328Y-68235367D01*
X182168328Y-70939600D01*
X182180588Y-71064082D01*
X182216898Y-71183780D01*
X182275863Y-71294094D01*
X182355215Y-71390785D01*
X182451906Y-71470137D01*
X182562220Y-71529102D01*
X182681918Y-71565412D01*
X182806400Y-71577672D01*
X186306400Y-71577672D01*
X186430882Y-71565412D01*
X186550580Y-71529102D01*
X186660894Y-71470137D01*
X186757585Y-71390785D01*
X186836937Y-71294094D01*
X186895902Y-71183780D01*
X186932212Y-71064082D01*
X186944472Y-70939600D01*
X186944472Y-67439600D01*
X186932212Y-67315118D01*
X186895902Y-67195420D01*
X186836937Y-67085106D01*
X186757585Y-66988415D01*
X186660894Y-66909063D01*
X186550580Y-66850098D01*
X186430882Y-66813788D01*
X186306400Y-66801528D01*
X182806400Y-66801528D01*
X182681918Y-66813788D01*
X182562220Y-66850098D01*
X182451906Y-66909063D01*
X182355215Y-66988415D01*
X182275863Y-67085106D01*
X182242809Y-67146945D01*
X182241400Y-66475350D01*
X182082650Y-66316600D01*
X179983400Y-66316600D01*
X179729400Y-66316600D01*
X177630150Y-66316600D01*
X177471400Y-66475350D01*
X177468328Y-67939600D01*
X108660000Y-67939600D01*
X108660000Y-63265098D01*
X110115000Y-63265098D01*
X110115000Y-63734902D01*
X110206654Y-64195679D01*
X110386440Y-64629721D01*
X110647450Y-65020349D01*
X110979651Y-65352550D01*
X111370279Y-65613560D01*
X111804321Y-65793346D01*
X112265098Y-65885000D01*
X112734902Y-65885000D01*
X113195679Y-65793346D01*
X113629721Y-65613560D01*
X114020349Y-65352550D01*
X114352550Y-65020349D01*
X114613560Y-64629721D01*
X114793346Y-64195679D01*
X114885000Y-63734902D01*
X114885000Y-63265098D01*
X114793346Y-62804321D01*
X114613560Y-62370279D01*
X114422101Y-62083740D01*
X121070000Y-62083740D01*
X121070000Y-62376260D01*
X121127068Y-62663158D01*
X121239010Y-62933411D01*
X121401525Y-63176632D01*
X121608368Y-63383475D01*
X121851589Y-63545990D01*
X122121842Y-63657932D01*
X122408740Y-63715000D01*
X122701260Y-63715000D01*
X122988158Y-63657932D01*
X123258411Y-63545990D01*
X123501632Y-63383475D01*
X123708475Y-63176632D01*
X123825000Y-63002240D01*
X123941525Y-63176632D01*
X124148368Y-63383475D01*
X124391589Y-63545990D01*
X124661842Y-63657932D01*
X124948740Y-63715000D01*
X125241260Y-63715000D01*
X125528158Y-63657932D01*
X125798411Y-63545990D01*
X126041632Y-63383475D01*
X126248475Y-63176632D01*
X126365000Y-63002240D01*
X126481525Y-63176632D01*
X126688368Y-63383475D01*
X126931589Y-63545990D01*
X127201842Y-63657932D01*
X127488740Y-63715000D01*
X127781260Y-63715000D01*
X128068158Y-63657932D01*
X128338411Y-63545990D01*
X128581632Y-63383475D01*
X128788475Y-63176632D01*
X128905000Y-63002240D01*
X129021525Y-63176632D01*
X129228368Y-63383475D01*
X129471589Y-63545990D01*
X129741842Y-63657932D01*
X130028740Y-63715000D01*
X130321260Y-63715000D01*
X130608158Y-63657932D01*
X130878411Y-63545990D01*
X131121632Y-63383475D01*
X131328475Y-63176632D01*
X131445000Y-63002240D01*
X131561525Y-63176632D01*
X131768368Y-63383475D01*
X132011589Y-63545990D01*
X132281842Y-63657932D01*
X132568740Y-63715000D01*
X132861260Y-63715000D01*
X133148158Y-63657932D01*
X133418411Y-63545990D01*
X133661632Y-63383475D01*
X133868475Y-63176632D01*
X133985000Y-63002240D01*
X134101525Y-63176632D01*
X134308368Y-63383475D01*
X134551589Y-63545990D01*
X134821842Y-63657932D01*
X135108740Y-63715000D01*
X135401260Y-63715000D01*
X135688158Y-63657932D01*
X135958411Y-63545990D01*
X136201632Y-63383475D01*
X136408475Y-63176632D01*
X136525000Y-63002240D01*
X136641525Y-63176632D01*
X136848368Y-63383475D01*
X137091589Y-63545990D01*
X137361842Y-63657932D01*
X137648740Y-63715000D01*
X137941260Y-63715000D01*
X138228158Y-63657932D01*
X138498411Y-63545990D01*
X138741632Y-63383475D01*
X138948475Y-63176632D01*
X139065000Y-63002240D01*
X139181525Y-63176632D01*
X139388368Y-63383475D01*
X139631589Y-63545990D01*
X139901842Y-63657932D01*
X140188740Y-63715000D01*
X140481260Y-63715000D01*
X140768158Y-63657932D01*
X141038411Y-63545990D01*
X141281632Y-63383475D01*
X141488475Y-63176632D01*
X141605000Y-63002240D01*
X141721525Y-63176632D01*
X141928368Y-63383475D01*
X142171589Y-63545990D01*
X142441842Y-63657932D01*
X142728740Y-63715000D01*
X143021260Y-63715000D01*
X143308158Y-63657932D01*
X143578411Y-63545990D01*
X143821632Y-63383475D01*
X144028475Y-63176632D01*
X144145000Y-63002240D01*
X144261525Y-63176632D01*
X144468368Y-63383475D01*
X144711589Y-63545990D01*
X144981842Y-63657932D01*
X145268740Y-63715000D01*
X145561260Y-63715000D01*
X145848158Y-63657932D01*
X146118411Y-63545990D01*
X146361632Y-63383475D01*
X146568475Y-63176632D01*
X146685000Y-63002240D01*
X146801525Y-63176632D01*
X147008368Y-63383475D01*
X147251589Y-63545990D01*
X147521842Y-63657932D01*
X147808740Y-63715000D01*
X148101260Y-63715000D01*
X148388158Y-63657932D01*
X148658411Y-63545990D01*
X148901632Y-63383475D01*
X149108475Y-63176632D01*
X149225000Y-63002240D01*
X149341525Y-63176632D01*
X149548368Y-63383475D01*
X149791589Y-63545990D01*
X150061842Y-63657932D01*
X150348740Y-63715000D01*
X150641260Y-63715000D01*
X150928158Y-63657932D01*
X151198411Y-63545990D01*
X151441632Y-63383475D01*
X151648475Y-63176632D01*
X151765000Y-63002240D01*
X151881525Y-63176632D01*
X152088368Y-63383475D01*
X152331589Y-63545990D01*
X152601842Y-63657932D01*
X152888740Y-63715000D01*
X153181260Y-63715000D01*
X153468158Y-63657932D01*
X153738411Y-63545990D01*
X153981632Y-63383475D01*
X154188475Y-63176632D01*
X154305000Y-63002240D01*
X154421525Y-63176632D01*
X154628368Y-63383475D01*
X154871589Y-63545990D01*
X155141842Y-63657932D01*
X155428740Y-63715000D01*
X155721260Y-63715000D01*
X156008158Y-63657932D01*
X156278411Y-63545990D01*
X156521632Y-63383475D01*
X156728475Y-63176632D01*
X156845000Y-63002240D01*
X156961525Y-63176632D01*
X157168368Y-63383475D01*
X157411589Y-63545990D01*
X157681842Y-63657932D01*
X157968740Y-63715000D01*
X158261260Y-63715000D01*
X158548158Y-63657932D01*
X158818411Y-63545990D01*
X159061632Y-63383475D01*
X159268475Y-63176632D01*
X159385000Y-63002240D01*
X159501525Y-63176632D01*
X159708368Y-63383475D01*
X159951589Y-63545990D01*
X160221842Y-63657932D01*
X160508740Y-63715000D01*
X160801260Y-63715000D01*
X161088158Y-63657932D01*
X161358411Y-63545990D01*
X161601632Y-63383475D01*
X161808475Y-63176632D01*
X161925000Y-63002240D01*
X162041525Y-63176632D01*
X162248368Y-63383475D01*
X162491589Y-63545990D01*
X162761842Y-63657932D01*
X163048740Y-63715000D01*
X163341260Y-63715000D01*
X163628158Y-63657932D01*
X163898411Y-63545990D01*
X164141632Y-63383475D01*
X164235386Y-63289721D01*
X169950000Y-63289721D01*
X169950000Y-63710279D01*
X170032047Y-64122756D01*
X170192988Y-64511302D01*
X170426637Y-64860983D01*
X170724017Y-65158363D01*
X171073698Y-65392012D01*
X171462244Y-65552953D01*
X171874721Y-65635000D01*
X172295279Y-65635000D01*
X172707756Y-65552953D01*
X173096302Y-65392012D01*
X173445983Y-65158363D01*
X173612693Y-64991653D01*
X174582952Y-64991653D01*
X174738962Y-65307214D01*
X175113745Y-65498020D01*
X175518551Y-65612044D01*
X175937824Y-65644902D01*
X176355451Y-65595334D01*
X176755383Y-65465243D01*
X177051038Y-65307214D01*
X177207048Y-64991653D01*
X175895000Y-63679605D01*
X174582952Y-64991653D01*
X173612693Y-64991653D01*
X173743363Y-64860983D01*
X173977012Y-64511302D01*
X173991600Y-64476084D01*
X174087786Y-64656038D01*
X174403347Y-64812048D01*
X175715395Y-63500000D01*
X176074605Y-63500000D01*
X177386653Y-64812048D01*
X177469024Y-64771325D01*
X177471400Y-65903850D01*
X177630150Y-66062600D01*
X179729400Y-66062600D01*
X179729400Y-63963350D01*
X179983400Y-63963350D01*
X179983400Y-66062600D01*
X182082650Y-66062600D01*
X182241400Y-65903850D01*
X182243331Y-64983233D01*
X182275863Y-65044094D01*
X182355215Y-65140785D01*
X182451906Y-65220137D01*
X182562220Y-65279102D01*
X182681918Y-65315412D01*
X182806400Y-65327672D01*
X184270650Y-65324600D01*
X184429400Y-65165850D01*
X184429400Y-63316600D01*
X184683400Y-63316600D01*
X184683400Y-65165850D01*
X184842150Y-65324600D01*
X186306400Y-65327672D01*
X186430882Y-65315412D01*
X186550580Y-65279102D01*
X186660894Y-65220137D01*
X186757585Y-65140785D01*
X186836937Y-65044094D01*
X186895902Y-64933780D01*
X186932212Y-64814082D01*
X186944472Y-64689600D01*
X186941400Y-63475350D01*
X186782650Y-63316600D01*
X184683400Y-63316600D01*
X184429400Y-63316600D01*
X182330150Y-63316600D01*
X182171400Y-63475350D01*
X182169702Y-64146405D01*
X182136937Y-64085106D01*
X182057585Y-63988415D01*
X181960894Y-63909063D01*
X181850580Y-63850098D01*
X181730882Y-63813788D01*
X181606400Y-63801528D01*
X180142150Y-63804600D01*
X179983400Y-63963350D01*
X179729400Y-63963350D01*
X179570650Y-63804600D01*
X178106400Y-63801528D01*
X178012188Y-63810807D01*
X178039902Y-63457176D01*
X178017105Y-63265098D01*
X191115000Y-63265098D01*
X191115000Y-63734902D01*
X191206654Y-64195679D01*
X191386440Y-64629721D01*
X191647450Y-65020349D01*
X191979651Y-65352550D01*
X192370279Y-65613560D01*
X192804321Y-65793346D01*
X193265098Y-65885000D01*
X193734902Y-65885000D01*
X194195679Y-65793346D01*
X194629721Y-65613560D01*
X195020349Y-65352550D01*
X195352550Y-65020349D01*
X195613560Y-64629721D01*
X195793346Y-64195679D01*
X195885000Y-63734902D01*
X195885000Y-63265098D01*
X195793346Y-62804321D01*
X195613560Y-62370279D01*
X195352550Y-61979651D01*
X195020349Y-61647450D01*
X194629721Y-61386440D01*
X194195679Y-61206654D01*
X193734902Y-61115000D01*
X193265098Y-61115000D01*
X192804321Y-61206654D01*
X192370279Y-61386440D01*
X191979651Y-61647450D01*
X191647450Y-61979651D01*
X191386440Y-62370279D01*
X191206654Y-62804321D01*
X191115000Y-63265098D01*
X178017105Y-63265098D01*
X177990334Y-63039549D01*
X177860243Y-62639617D01*
X177702214Y-62343962D01*
X177386653Y-62187952D01*
X176074605Y-63500000D01*
X175715395Y-63500000D01*
X174403347Y-62187952D01*
X174087786Y-62343962D01*
X173993650Y-62528865D01*
X173977012Y-62488698D01*
X173743363Y-62139017D01*
X173612693Y-62008347D01*
X174582952Y-62008347D01*
X175895000Y-63320395D01*
X177207048Y-62008347D01*
X177051038Y-61692786D01*
X177044781Y-61689600D01*
X182168328Y-61689600D01*
X182171400Y-62903850D01*
X182330150Y-63062600D01*
X184429400Y-63062600D01*
X184429400Y-61213350D01*
X184683400Y-61213350D01*
X184683400Y-63062600D01*
X186782650Y-63062600D01*
X186941400Y-62903850D01*
X186944472Y-61689600D01*
X186932212Y-61565118D01*
X186895902Y-61445420D01*
X186836937Y-61335106D01*
X186757585Y-61238415D01*
X186660894Y-61159063D01*
X186550580Y-61100098D01*
X186430882Y-61063788D01*
X186306400Y-61051528D01*
X184842150Y-61054600D01*
X184683400Y-61213350D01*
X184429400Y-61213350D01*
X184270650Y-61054600D01*
X182806400Y-61051528D01*
X182681918Y-61063788D01*
X182562220Y-61100098D01*
X182451906Y-61159063D01*
X182355215Y-61238415D01*
X182275863Y-61335106D01*
X182216898Y-61445420D01*
X182180588Y-61565118D01*
X182168328Y-61689600D01*
X177044781Y-61689600D01*
X176676255Y-61501980D01*
X176271449Y-61387956D01*
X175852176Y-61355098D01*
X175434549Y-61404666D01*
X175034617Y-61534757D01*
X174738962Y-61692786D01*
X174582952Y-62008347D01*
X173612693Y-62008347D01*
X173445983Y-61841637D01*
X173096302Y-61607988D01*
X172707756Y-61447047D01*
X172295279Y-61365000D01*
X171874721Y-61365000D01*
X171462244Y-61447047D01*
X171073698Y-61607988D01*
X170724017Y-61841637D01*
X170426637Y-62139017D01*
X170192988Y-62488698D01*
X170032047Y-62877244D01*
X169950000Y-63289721D01*
X164235386Y-63289721D01*
X164348475Y-63176632D01*
X164510990Y-62933411D01*
X164622932Y-62663158D01*
X164680000Y-62376260D01*
X164680000Y-62083740D01*
X164622932Y-61796842D01*
X164510990Y-61526589D01*
X164348475Y-61283368D01*
X164216620Y-61151513D01*
X164289180Y-61129502D01*
X164399494Y-61070537D01*
X164496185Y-60991185D01*
X164575537Y-60894494D01*
X164634502Y-60784180D01*
X164670812Y-60664482D01*
X164683072Y-60540000D01*
X164680000Y-59975750D01*
X164521250Y-59817000D01*
X163322000Y-59817000D01*
X163322000Y-59837000D01*
X163068000Y-59837000D01*
X163068000Y-59817000D01*
X163048000Y-59817000D01*
X163048000Y-59563000D01*
X163068000Y-59563000D01*
X163068000Y-58363750D01*
X163322000Y-58363750D01*
X163322000Y-59563000D01*
X164521250Y-59563000D01*
X164680000Y-59404250D01*
X164683072Y-58840000D01*
X164670812Y-58715518D01*
X164634502Y-58595820D01*
X164575537Y-58485506D01*
X164496185Y-58388815D01*
X164399494Y-58309463D01*
X164289180Y-58250498D01*
X164169482Y-58214188D01*
X164045000Y-58201928D01*
X163480750Y-58205000D01*
X163322000Y-58363750D01*
X163068000Y-58363750D01*
X162909250Y-58205000D01*
X162345000Y-58201928D01*
X162220518Y-58214188D01*
X162100820Y-58250498D01*
X161990506Y-58309463D01*
X161893815Y-58388815D01*
X161814463Y-58485506D01*
X161755498Y-58595820D01*
X161733487Y-58668380D01*
X161601632Y-58536525D01*
X161358411Y-58374010D01*
X161088158Y-58262068D01*
X160801260Y-58205000D01*
X160508740Y-58205000D01*
X160221842Y-58262068D01*
X159951589Y-58374010D01*
X159708368Y-58536525D01*
X159501525Y-58743368D01*
X159385689Y-58916729D01*
X159143397Y-58841208D01*
X158294605Y-59690000D01*
X159143397Y-60538792D01*
X159385689Y-60463271D01*
X159501525Y-60636632D01*
X159708368Y-60843475D01*
X159882760Y-60960000D01*
X159708368Y-61076525D01*
X159501525Y-61283368D01*
X159385000Y-61457760D01*
X159268475Y-61283368D01*
X159061632Y-61076525D01*
X158888271Y-60960689D01*
X158963792Y-60718397D01*
X158115000Y-59869605D01*
X157266208Y-60718397D01*
X157341729Y-60960689D01*
X157168368Y-61076525D01*
X156961525Y-61283368D01*
X156845000Y-61457760D01*
X156728475Y-61283368D01*
X156521632Y-61076525D01*
X156348271Y-60960689D01*
X156423792Y-60718397D01*
X155575000Y-59869605D01*
X154726208Y-60718397D01*
X154801729Y-60960689D01*
X154628368Y-61076525D01*
X154421525Y-61283368D01*
X154305000Y-61457760D01*
X154188475Y-61283368D01*
X153981632Y-61076525D01*
X153808271Y-60960689D01*
X153883792Y-60718397D01*
X153035000Y-59869605D01*
X152186208Y-60718397D01*
X152261729Y-60960689D01*
X152088368Y-61076525D01*
X151881525Y-61283368D01*
X151765000Y-61457760D01*
X151648475Y-61283368D01*
X151441632Y-61076525D01*
X151268271Y-60960689D01*
X151343792Y-60718397D01*
X150495000Y-59869605D01*
X149646208Y-60718397D01*
X149721729Y-60960689D01*
X149548368Y-61076525D01*
X149341525Y-61283368D01*
X149225000Y-61457760D01*
X149108475Y-61283368D01*
X148901632Y-61076525D01*
X148728271Y-60960689D01*
X148803792Y-60718397D01*
X147955000Y-59869605D01*
X147106208Y-60718397D01*
X147181729Y-60960689D01*
X147008368Y-61076525D01*
X146801525Y-61283368D01*
X146685000Y-61457760D01*
X146568475Y-61283368D01*
X146361632Y-61076525D01*
X146188271Y-60960689D01*
X146263792Y-60718397D01*
X145415000Y-59869605D01*
X144566208Y-60718397D01*
X144641729Y-60960689D01*
X144468368Y-61076525D01*
X144261525Y-61283368D01*
X144145000Y-61457760D01*
X144028475Y-61283368D01*
X143821632Y-61076525D01*
X143648271Y-60960689D01*
X143723792Y-60718397D01*
X142875000Y-59869605D01*
X142026208Y-60718397D01*
X142101729Y-60960689D01*
X141928368Y-61076525D01*
X141721525Y-61283368D01*
X141605000Y-61457760D01*
X141488475Y-61283368D01*
X141281632Y-61076525D01*
X141108271Y-60960689D01*
X141183792Y-60718397D01*
X140335000Y-59869605D01*
X139486208Y-60718397D01*
X139561729Y-60960689D01*
X139388368Y-61076525D01*
X139181525Y-61283368D01*
X139065000Y-61457760D01*
X138948475Y-61283368D01*
X138741632Y-61076525D01*
X138568271Y-60960689D01*
X138643792Y-60718397D01*
X137795000Y-59869605D01*
X136946208Y-60718397D01*
X137021729Y-60960689D01*
X136848368Y-61076525D01*
X136641525Y-61283368D01*
X136525000Y-61457760D01*
X136408475Y-61283368D01*
X136201632Y-61076525D01*
X136028271Y-60960689D01*
X136103792Y-60718397D01*
X135255000Y-59869605D01*
X134406208Y-60718397D01*
X134481729Y-60960689D01*
X134308368Y-61076525D01*
X134101525Y-61283368D01*
X133985000Y-61457760D01*
X133868475Y-61283368D01*
X133661632Y-61076525D01*
X133488271Y-60960689D01*
X133563792Y-60718397D01*
X132715000Y-59869605D01*
X131866208Y-60718397D01*
X131941729Y-60960689D01*
X131768368Y-61076525D01*
X131561525Y-61283368D01*
X131445000Y-61457760D01*
X131328475Y-61283368D01*
X131121632Y-61076525D01*
X130948271Y-60960689D01*
X131023792Y-60718397D01*
X130175000Y-59869605D01*
X129326208Y-60718397D01*
X129401729Y-60960689D01*
X129228368Y-61076525D01*
X129021525Y-61283368D01*
X128905000Y-61457760D01*
X128788475Y-61283368D01*
X128581632Y-61076525D01*
X128408271Y-60960689D01*
X128483792Y-60718397D01*
X127635000Y-59869605D01*
X126786208Y-60718397D01*
X126861729Y-60960689D01*
X126688368Y-61076525D01*
X126481525Y-61283368D01*
X126365000Y-61457760D01*
X126248475Y-61283368D01*
X126041632Y-61076525D01*
X125868271Y-60960689D01*
X125943792Y-60718397D01*
X125095000Y-59869605D01*
X124246208Y-60718397D01*
X124321729Y-60960689D01*
X124148368Y-61076525D01*
X123941525Y-61283368D01*
X123825000Y-61457760D01*
X123708475Y-61283368D01*
X123501632Y-61076525D01*
X123328271Y-60960689D01*
X123403792Y-60718397D01*
X122555000Y-59869605D01*
X121706208Y-60718397D01*
X121781729Y-60960689D01*
X121608368Y-61076525D01*
X121401525Y-61283368D01*
X121239010Y-61526589D01*
X121127068Y-61796842D01*
X121070000Y-62083740D01*
X114422101Y-62083740D01*
X114352550Y-61979651D01*
X114020349Y-61647450D01*
X113629721Y-61386440D01*
X113195679Y-61206654D01*
X112734902Y-61115000D01*
X112265098Y-61115000D01*
X111804321Y-61206654D01*
X111370279Y-61386440D01*
X110979651Y-61647450D01*
X110647450Y-61979651D01*
X110386440Y-62370279D01*
X110206654Y-62804321D01*
X110115000Y-63265098D01*
X108660000Y-63265098D01*
X108660000Y-59758531D01*
X121064389Y-59758531D01*
X121106401Y-60048019D01*
X121204081Y-60323747D01*
X121277528Y-60461157D01*
X121526603Y-60538792D01*
X122375395Y-59690000D01*
X122734605Y-59690000D01*
X123583397Y-60538792D01*
X123825000Y-60463486D01*
X124066603Y-60538792D01*
X124915395Y-59690000D01*
X125274605Y-59690000D01*
X126123397Y-60538792D01*
X126365000Y-60463486D01*
X126606603Y-60538792D01*
X127455395Y-59690000D01*
X127814605Y-59690000D01*
X128663397Y-60538792D01*
X128905000Y-60463486D01*
X129146603Y-60538792D01*
X129995395Y-59690000D01*
X130354605Y-59690000D01*
X131203397Y-60538792D01*
X131445000Y-60463486D01*
X131686603Y-60538792D01*
X132535395Y-59690000D01*
X132894605Y-59690000D01*
X133743397Y-60538792D01*
X133985000Y-60463486D01*
X134226603Y-60538792D01*
X135075395Y-59690000D01*
X135434605Y-59690000D01*
X136283397Y-60538792D01*
X136525000Y-60463486D01*
X136766603Y-60538792D01*
X137615395Y-59690000D01*
X137974605Y-59690000D01*
X138823397Y-60538792D01*
X139065000Y-60463486D01*
X139306603Y-60538792D01*
X140155395Y-59690000D01*
X140514605Y-59690000D01*
X141363397Y-60538792D01*
X141605000Y-60463486D01*
X141846603Y-60538792D01*
X142695395Y-59690000D01*
X143054605Y-59690000D01*
X143903397Y-60538792D01*
X144145000Y-60463486D01*
X144386603Y-60538792D01*
X145235395Y-59690000D01*
X145594605Y-59690000D01*
X146443397Y-60538792D01*
X146685000Y-60463486D01*
X146926603Y-60538792D01*
X147775395Y-59690000D01*
X148134605Y-59690000D01*
X148983397Y-60538792D01*
X149225000Y-60463486D01*
X149466603Y-60538792D01*
X150315395Y-59690000D01*
X150674605Y-59690000D01*
X151523397Y-60538792D01*
X151765000Y-60463486D01*
X152006603Y-60538792D01*
X152855395Y-59690000D01*
X153214605Y-59690000D01*
X154063397Y-60538792D01*
X154305000Y-60463486D01*
X154546603Y-60538792D01*
X155395395Y-59690000D01*
X155754605Y-59690000D01*
X156603397Y-60538792D01*
X156845000Y-60463486D01*
X157086603Y-60538792D01*
X157935395Y-59690000D01*
X157086603Y-58841208D01*
X156845000Y-58916514D01*
X156603397Y-58841208D01*
X155754605Y-59690000D01*
X155395395Y-59690000D01*
X154546603Y-58841208D01*
X154305000Y-58916514D01*
X154063397Y-58841208D01*
X153214605Y-59690000D01*
X152855395Y-59690000D01*
X152006603Y-58841208D01*
X151765000Y-58916514D01*
X151523397Y-58841208D01*
X150674605Y-59690000D01*
X150315395Y-59690000D01*
X149466603Y-58841208D01*
X149225000Y-58916514D01*
X148983397Y-58841208D01*
X148134605Y-59690000D01*
X147775395Y-59690000D01*
X146926603Y-58841208D01*
X146685000Y-58916514D01*
X146443397Y-58841208D01*
X145594605Y-59690000D01*
X145235395Y-59690000D01*
X144386603Y-58841208D01*
X144145000Y-58916514D01*
X143903397Y-58841208D01*
X143054605Y-59690000D01*
X142695395Y-59690000D01*
X141846603Y-58841208D01*
X141605000Y-58916514D01*
X141363397Y-58841208D01*
X140514605Y-59690000D01*
X140155395Y-59690000D01*
X139306603Y-58841208D01*
X139065000Y-58916514D01*
X138823397Y-58841208D01*
X137974605Y-59690000D01*
X137615395Y-59690000D01*
X136766603Y-58841208D01*
X136525000Y-58916514D01*
X136283397Y-58841208D01*
X135434605Y-59690000D01*
X135075395Y-59690000D01*
X134226603Y-58841208D01*
X133985000Y-58916514D01*
X133743397Y-58841208D01*
X132894605Y-59690000D01*
X132535395Y-59690000D01*
X131686603Y-58841208D01*
X131445000Y-58916514D01*
X131203397Y-58841208D01*
X130354605Y-59690000D01*
X129995395Y-59690000D01*
X129146603Y-58841208D01*
X128905000Y-58916514D01*
X128663397Y-58841208D01*
X127814605Y-59690000D01*
X127455395Y-59690000D01*
X126606603Y-58841208D01*
X126365000Y-58916514D01*
X126123397Y-58841208D01*
X125274605Y-59690000D01*
X124915395Y-59690000D01*
X124066603Y-58841208D01*
X123825000Y-58916514D01*
X123583397Y-58841208D01*
X122734605Y-59690000D01*
X122375395Y-59690000D01*
X121526603Y-58841208D01*
X121277528Y-58918843D01*
X121151629Y-59182883D01*
X121079661Y-59466411D01*
X121064389Y-59758531D01*
X108660000Y-59758531D01*
X108660000Y-58661603D01*
X121706208Y-58661603D01*
X122555000Y-59510395D01*
X123403792Y-58661603D01*
X124246208Y-58661603D01*
X125095000Y-59510395D01*
X125943792Y-58661603D01*
X126786208Y-58661603D01*
X127635000Y-59510395D01*
X128483792Y-58661603D01*
X129326208Y-58661603D01*
X130175000Y-59510395D01*
X131023792Y-58661603D01*
X131866208Y-58661603D01*
X132715000Y-59510395D01*
X133563792Y-58661603D01*
X134406208Y-58661603D01*
X135255000Y-59510395D01*
X136103792Y-58661603D01*
X136946208Y-58661603D01*
X137795000Y-59510395D01*
X138643792Y-58661603D01*
X139486208Y-58661603D01*
X140335000Y-59510395D01*
X141183792Y-58661603D01*
X142026208Y-58661603D01*
X142875000Y-59510395D01*
X143723792Y-58661603D01*
X144566208Y-58661603D01*
X145415000Y-59510395D01*
X146263792Y-58661603D01*
X147106208Y-58661603D01*
X147955000Y-59510395D01*
X148803792Y-58661603D01*
X149646208Y-58661603D01*
X150495000Y-59510395D01*
X151343792Y-58661603D01*
X152186208Y-58661603D01*
X153035000Y-59510395D01*
X153883792Y-58661603D01*
X154726208Y-58661603D01*
X155575000Y-59510395D01*
X156423792Y-58661603D01*
X157266208Y-58661603D01*
X158115000Y-59510395D01*
X158963792Y-58661603D01*
X158886157Y-58412528D01*
X158622117Y-58286629D01*
X158338589Y-58214661D01*
X158046469Y-58199389D01*
X157756981Y-58241401D01*
X157481253Y-58339081D01*
X157343843Y-58412528D01*
X157266208Y-58661603D01*
X156423792Y-58661603D01*
X156346157Y-58412528D01*
X156082117Y-58286629D01*
X155798589Y-58214661D01*
X155506469Y-58199389D01*
X155216981Y-58241401D01*
X154941253Y-58339081D01*
X154803843Y-58412528D01*
X154726208Y-58661603D01*
X153883792Y-58661603D01*
X153806157Y-58412528D01*
X153542117Y-58286629D01*
X153258589Y-58214661D01*
X152966469Y-58199389D01*
X152676981Y-58241401D01*
X152401253Y-58339081D01*
X152263843Y-58412528D01*
X152186208Y-58661603D01*
X151343792Y-58661603D01*
X151266157Y-58412528D01*
X151002117Y-58286629D01*
X150718589Y-58214661D01*
X150426469Y-58199389D01*
X150136981Y-58241401D01*
X149861253Y-58339081D01*
X149723843Y-58412528D01*
X149646208Y-58661603D01*
X148803792Y-58661603D01*
X148726157Y-58412528D01*
X148462117Y-58286629D01*
X148178589Y-58214661D01*
X147886469Y-58199389D01*
X147596981Y-58241401D01*
X147321253Y-58339081D01*
X147183843Y-58412528D01*
X147106208Y-58661603D01*
X146263792Y-58661603D01*
X146186157Y-58412528D01*
X145922117Y-58286629D01*
X145638589Y-58214661D01*
X145346469Y-58199389D01*
X145056981Y-58241401D01*
X144781253Y-58339081D01*
X144643843Y-58412528D01*
X144566208Y-58661603D01*
X143723792Y-58661603D01*
X143646157Y-58412528D01*
X143382117Y-58286629D01*
X143098589Y-58214661D01*
X142806469Y-58199389D01*
X142516981Y-58241401D01*
X142241253Y-58339081D01*
X142103843Y-58412528D01*
X142026208Y-58661603D01*
X141183792Y-58661603D01*
X141106157Y-58412528D01*
X140842117Y-58286629D01*
X140558589Y-58214661D01*
X140266469Y-58199389D01*
X139976981Y-58241401D01*
X139701253Y-58339081D01*
X139563843Y-58412528D01*
X139486208Y-58661603D01*
X138643792Y-58661603D01*
X138566157Y-58412528D01*
X138302117Y-58286629D01*
X138018589Y-58214661D01*
X137726469Y-58199389D01*
X137436981Y-58241401D01*
X137161253Y-58339081D01*
X137023843Y-58412528D01*
X136946208Y-58661603D01*
X136103792Y-58661603D01*
X136026157Y-58412528D01*
X135762117Y-58286629D01*
X135478589Y-58214661D01*
X135186469Y-58199389D01*
X134896981Y-58241401D01*
X134621253Y-58339081D01*
X134483843Y-58412528D01*
X134406208Y-58661603D01*
X133563792Y-58661603D01*
X133486157Y-58412528D01*
X133222117Y-58286629D01*
X132938589Y-58214661D01*
X132646469Y-58199389D01*
X132356981Y-58241401D01*
X132081253Y-58339081D01*
X131943843Y-58412528D01*
X131866208Y-58661603D01*
X131023792Y-58661603D01*
X130946157Y-58412528D01*
X130682117Y-58286629D01*
X130398589Y-58214661D01*
X130106469Y-58199389D01*
X129816981Y-58241401D01*
X129541253Y-58339081D01*
X129403843Y-58412528D01*
X129326208Y-58661603D01*
X128483792Y-58661603D01*
X128406157Y-58412528D01*
X128142117Y-58286629D01*
X127858589Y-58214661D01*
X127566469Y-58199389D01*
X127276981Y-58241401D01*
X127001253Y-58339081D01*
X126863843Y-58412528D01*
X126786208Y-58661603D01*
X125943792Y-58661603D01*
X125866157Y-58412528D01*
X125602117Y-58286629D01*
X125318589Y-58214661D01*
X125026469Y-58199389D01*
X124736981Y-58241401D01*
X124461253Y-58339081D01*
X124323843Y-58412528D01*
X124246208Y-58661603D01*
X123403792Y-58661603D01*
X123326157Y-58412528D01*
X123062117Y-58286629D01*
X122778589Y-58214661D01*
X122486469Y-58199389D01*
X122196981Y-58241401D01*
X121921253Y-58339081D01*
X121783843Y-58412528D01*
X121706208Y-58661603D01*
X108660000Y-58661603D01*
X108660000Y-57555000D01*
X169946928Y-57555000D01*
X169946928Y-60555000D01*
X169959188Y-60679482D01*
X169995498Y-60799180D01*
X170054463Y-60909494D01*
X170133815Y-61006185D01*
X170230506Y-61085537D01*
X170340820Y-61144502D01*
X170460518Y-61180812D01*
X170585000Y-61193072D01*
X173585000Y-61193072D01*
X173709482Y-61180812D01*
X173829180Y-61144502D01*
X173939494Y-61085537D01*
X174036185Y-61006185D01*
X174115537Y-60909494D01*
X174174502Y-60799180D01*
X174210812Y-60679482D01*
X174223072Y-60555000D01*
X174223072Y-60546653D01*
X174582952Y-60546653D01*
X174738962Y-60862214D01*
X175113745Y-61053020D01*
X175518551Y-61167044D01*
X175937824Y-61199902D01*
X176355451Y-61150334D01*
X176755383Y-61020243D01*
X177051038Y-60862214D01*
X177207048Y-60546653D01*
X175895000Y-59234605D01*
X174582952Y-60546653D01*
X174223072Y-60546653D01*
X174223072Y-60277922D01*
X174403347Y-60367048D01*
X175715395Y-59055000D01*
X176074605Y-59055000D01*
X177386653Y-60367048D01*
X177702214Y-60211038D01*
X177893020Y-59836255D01*
X178007044Y-59431449D01*
X178039902Y-59012176D01*
X177990334Y-58594549D01*
X177860243Y-58194617D01*
X177702214Y-57898962D01*
X177386653Y-57742952D01*
X176074605Y-59055000D01*
X175715395Y-59055000D01*
X174403347Y-57742952D01*
X174223072Y-57832078D01*
X174223072Y-57563347D01*
X174582952Y-57563347D01*
X175895000Y-58875395D01*
X177207048Y-57563347D01*
X177051038Y-57247786D01*
X176676255Y-57056980D01*
X176271449Y-56942956D01*
X175852176Y-56910098D01*
X175434549Y-56959666D01*
X175034617Y-57089757D01*
X174738962Y-57247786D01*
X174582952Y-57563347D01*
X174223072Y-57563347D01*
X174223072Y-57555000D01*
X174210812Y-57430518D01*
X174174502Y-57310820D01*
X174115537Y-57200506D01*
X174036185Y-57103815D01*
X173939494Y-57024463D01*
X173829180Y-56965498D01*
X173709482Y-56929188D01*
X173585000Y-56916928D01*
X170585000Y-56916928D01*
X170460518Y-56929188D01*
X170340820Y-56965498D01*
X170230506Y-57024463D01*
X170133815Y-57103815D01*
X170054463Y-57200506D01*
X169995498Y-57310820D01*
X169959188Y-57430518D01*
X169946928Y-57555000D01*
X108660000Y-57555000D01*
X108660000Y-56732278D01*
X108682911Y-56498613D01*
X108741398Y-56304894D01*
X108836399Y-56126223D01*
X108964294Y-55969409D01*
X109120208Y-55840426D01*
X109298214Y-55744179D01*
X109491516Y-55684342D01*
X109723109Y-55660000D01*
X116358838Y-55660000D01*
X116387290Y-55753793D01*
G37*
G04 #@! TD.AperFunction*
M02*
