G04 #@! TF.GenerationSoftware,KiCad,Pcbnew,(5.1.8)-1*
G04 #@! TF.CreationDate,2021-11-11T22:14:43+01:00*
G04 #@! TF.ProjectId,Greaseweazle,47726561-7365-4776-9561-7a6c652e6b69,rev?*
G04 #@! TF.SameCoordinates,Original*
G04 #@! TF.FileFunction,Legend,Top*
G04 #@! TF.FilePolarity,Positive*
%FSLAX46Y46*%
G04 Gerber Fmt 4.6, Leading zero omitted, Abs format (unit mm)*
G04 Created by KiCad (PCBNEW (5.1.8)-1) date 2021-11-11 22:14:43*
%MOMM*%
%LPD*%
G01*
G04 APERTURE LIST*
%ADD10C,0.120000*%
%ADD11C,0.100000*%
%ADD12C,0.150000*%
%ADD13C,0.300000*%
%ADD14C,0.200000*%
%ADD15C,0.010000*%
G04 APERTURE END LIST*
D10*
X124460000Y-121920000D02*
X120015000Y-121920000D01*
X124460000Y-120650000D02*
X124460000Y-121920000D01*
X124460000Y-111760000D02*
X124460000Y-113030000D01*
X120015000Y-111760000D02*
X124460000Y-111760000D01*
D11*
X123277380Y-119649523D02*
X124086904Y-119649523D01*
X124182142Y-119601904D01*
X124229761Y-119554285D01*
X124277380Y-119459047D01*
X124277380Y-119268571D01*
X124229761Y-119173333D01*
X124182142Y-119125714D01*
X124086904Y-119078095D01*
X123277380Y-119078095D01*
X124229761Y-118649523D02*
X124277380Y-118506666D01*
X124277380Y-118268571D01*
X124229761Y-118173333D01*
X124182142Y-118125714D01*
X124086904Y-118078095D01*
X123991666Y-118078095D01*
X123896428Y-118125714D01*
X123848809Y-118173333D01*
X123801190Y-118268571D01*
X123753571Y-118459047D01*
X123705952Y-118554285D01*
X123658333Y-118601904D01*
X123563095Y-118649523D01*
X123467857Y-118649523D01*
X123372619Y-118601904D01*
X123325000Y-118554285D01*
X123277380Y-118459047D01*
X123277380Y-118220952D01*
X123325000Y-118078095D01*
X123753571Y-117316190D02*
X123801190Y-117173333D01*
X123848809Y-117125714D01*
X123944047Y-117078095D01*
X124086904Y-117078095D01*
X124182142Y-117125714D01*
X124229761Y-117173333D01*
X124277380Y-117268571D01*
X124277380Y-117649523D01*
X123277380Y-117649523D01*
X123277380Y-117316190D01*
X123325000Y-117220952D01*
X123372619Y-117173333D01*
X123467857Y-117125714D01*
X123563095Y-117125714D01*
X123658333Y-117173333D01*
X123705952Y-117220952D01*
X123753571Y-117316190D01*
X123753571Y-117649523D01*
X123277380Y-116030476D02*
X123277380Y-115459047D01*
X124277380Y-115744761D02*
X123277380Y-115744761D01*
X123277380Y-115268571D02*
X123277380Y-114697142D01*
X124277380Y-114982857D02*
X123277380Y-114982857D01*
X124277380Y-113887619D02*
X124277380Y-114363809D01*
X123277380Y-114363809D01*
X120727619Y-113391904D02*
X120460952Y-113010952D01*
X120270476Y-113391904D02*
X120270476Y-112591904D01*
X120575238Y-112591904D01*
X120651428Y-112630000D01*
X120689523Y-112668095D01*
X120727619Y-112744285D01*
X120727619Y-112858571D01*
X120689523Y-112934761D01*
X120651428Y-112972857D01*
X120575238Y-113010952D01*
X120270476Y-113010952D01*
X120994285Y-112591904D02*
X121527619Y-113391904D01*
X121527619Y-112591904D02*
X120994285Y-113391904D01*
X121832380Y-113391904D02*
X121832380Y-112591904D01*
X122022857Y-112591904D01*
X122137142Y-112630000D01*
X122213333Y-112706190D01*
X122251428Y-112782380D01*
X122289523Y-112934761D01*
X122289523Y-113049047D01*
X122251428Y-113201428D01*
X122213333Y-113277619D01*
X122137142Y-113353809D01*
X122022857Y-113391904D01*
X121832380Y-113391904D01*
X120156190Y-115131904D02*
X120613333Y-115131904D01*
X120384761Y-115931904D02*
X120384761Y-115131904D01*
X120803809Y-115131904D02*
X121337142Y-115931904D01*
X121337142Y-115131904D02*
X120803809Y-115931904D01*
X121641904Y-115931904D02*
X121641904Y-115131904D01*
X121832380Y-115131904D01*
X121946666Y-115170000D01*
X122022857Y-115246190D01*
X122060952Y-115322380D01*
X122099047Y-115474761D01*
X122099047Y-115589047D01*
X122060952Y-115741428D01*
X122022857Y-115817619D01*
X121946666Y-115893809D01*
X121832380Y-115931904D01*
X121641904Y-115931904D01*
X120156190Y-117671904D02*
X120422857Y-118471904D01*
X120689523Y-117671904D01*
X121413333Y-118395714D02*
X121375238Y-118433809D01*
X121260952Y-118471904D01*
X121184761Y-118471904D01*
X121070476Y-118433809D01*
X120994285Y-118357619D01*
X120956190Y-118281428D01*
X120918095Y-118129047D01*
X120918095Y-118014761D01*
X120956190Y-117862380D01*
X120994285Y-117786190D01*
X121070476Y-117710000D01*
X121184761Y-117671904D01*
X121260952Y-117671904D01*
X121375238Y-117710000D01*
X121413333Y-117748095D01*
X122213333Y-118395714D02*
X122175238Y-118433809D01*
X122060952Y-118471904D01*
X121984761Y-118471904D01*
X121870476Y-118433809D01*
X121794285Y-118357619D01*
X121756190Y-118281428D01*
X121718095Y-118129047D01*
X121718095Y-118014761D01*
X121756190Y-117862380D01*
X121794285Y-117786190D01*
X121870476Y-117710000D01*
X121984761Y-117671904D01*
X122060952Y-117671904D01*
X122175238Y-117710000D01*
X122213333Y-117748095D01*
X120689523Y-120250000D02*
X120613333Y-120211904D01*
X120499047Y-120211904D01*
X120384761Y-120250000D01*
X120308571Y-120326190D01*
X120270476Y-120402380D01*
X120232380Y-120554761D01*
X120232380Y-120669047D01*
X120270476Y-120821428D01*
X120308571Y-120897619D01*
X120384761Y-120973809D01*
X120499047Y-121011904D01*
X120575238Y-121011904D01*
X120689523Y-120973809D01*
X120727619Y-120935714D01*
X120727619Y-120669047D01*
X120575238Y-120669047D01*
X121070476Y-121011904D02*
X121070476Y-120211904D01*
X121527619Y-121011904D01*
X121527619Y-120211904D01*
X121908571Y-121011904D02*
X121908571Y-120211904D01*
X122099047Y-120211904D01*
X122213333Y-120250000D01*
X122289523Y-120326190D01*
X122327619Y-120402380D01*
X122365714Y-120554761D01*
X122365714Y-120669047D01*
X122327619Y-120821428D01*
X122289523Y-120897619D01*
X122213333Y-120973809D01*
X122099047Y-121011904D01*
X121908571Y-121011904D01*
D12*
X109666666Y-85637666D02*
X110142857Y-85637666D01*
X109571428Y-85923380D02*
X109904761Y-84923380D01*
X110238095Y-85923380D01*
X111142857Y-85828142D02*
X111095238Y-85875761D01*
X110952380Y-85923380D01*
X110857142Y-85923380D01*
X110714285Y-85875761D01*
X110619047Y-85780523D01*
X110571428Y-85685285D01*
X110523809Y-85494809D01*
X110523809Y-85351952D01*
X110571428Y-85161476D01*
X110619047Y-85066238D01*
X110714285Y-84971000D01*
X110857142Y-84923380D01*
X110952380Y-84923380D01*
X111095238Y-84971000D01*
X111142857Y-85018619D01*
X111428571Y-84923380D02*
X112000000Y-84923380D01*
X111714285Y-85923380D02*
X111714285Y-84923380D01*
X112333333Y-85923380D02*
X112333333Y-84923380D01*
X112666666Y-84923380D02*
X113000000Y-85923380D01*
X113333333Y-84923380D01*
X113666666Y-85923380D02*
X113666666Y-84923380D01*
X114000000Y-84923380D02*
X114571428Y-84923380D01*
X114285714Y-85923380D02*
X114285714Y-84923380D01*
X115095238Y-85447190D02*
X115095238Y-85923380D01*
X114761904Y-84923380D02*
X115095238Y-85447190D01*
X115428571Y-84923380D01*
X110190476Y-76525380D02*
X110190476Y-75525380D01*
X110571428Y-75525380D01*
X110666666Y-75573000D01*
X110714285Y-75620619D01*
X110761904Y-75715857D01*
X110761904Y-75858714D01*
X110714285Y-75953952D01*
X110666666Y-76001571D01*
X110571428Y-76049190D01*
X110190476Y-76049190D01*
X111380952Y-75525380D02*
X111571428Y-75525380D01*
X111666666Y-75573000D01*
X111761904Y-75668238D01*
X111809523Y-75858714D01*
X111809523Y-76192047D01*
X111761904Y-76382523D01*
X111666666Y-76477761D01*
X111571428Y-76525380D01*
X111380952Y-76525380D01*
X111285714Y-76477761D01*
X111190476Y-76382523D01*
X111142857Y-76192047D01*
X111142857Y-75858714D01*
X111190476Y-75668238D01*
X111285714Y-75573000D01*
X111380952Y-75525380D01*
X112142857Y-75525380D02*
X112380952Y-76525380D01*
X112571428Y-75811095D01*
X112761904Y-76525380D01*
X113000000Y-75525380D01*
X113380952Y-76001571D02*
X113714285Y-76001571D01*
X113857142Y-76525380D02*
X113380952Y-76525380D01*
X113380952Y-75525380D01*
X113857142Y-75525380D01*
X114857142Y-76525380D02*
X114523809Y-76049190D01*
X114285714Y-76525380D02*
X114285714Y-75525380D01*
X114666666Y-75525380D01*
X114761904Y-75573000D01*
X114809523Y-75620619D01*
X114857142Y-75715857D01*
X114857142Y-75858714D01*
X114809523Y-75953952D01*
X114761904Y-76001571D01*
X114666666Y-76049190D01*
X114285714Y-76049190D01*
X167902761Y-92116666D02*
X168378952Y-92116666D01*
X167807523Y-92402380D02*
X168140857Y-91402380D01*
X168474190Y-92402380D01*
X168807523Y-92402380D02*
X168807523Y-91735714D01*
X168807523Y-91830952D02*
X168855142Y-91783333D01*
X168950380Y-91735714D01*
X169093238Y-91735714D01*
X169188476Y-91783333D01*
X169236095Y-91878571D01*
X169236095Y-92402380D01*
X169236095Y-91878571D02*
X169283714Y-91783333D01*
X169378952Y-91735714D01*
X169521809Y-91735714D01*
X169617047Y-91783333D01*
X169664666Y-91878571D01*
X169664666Y-92402380D01*
X170140857Y-92402380D02*
X170140857Y-91735714D01*
X170140857Y-91402380D02*
X170093238Y-91450000D01*
X170140857Y-91497619D01*
X170188476Y-91450000D01*
X170140857Y-91402380D01*
X170140857Y-91497619D01*
X171045619Y-91735714D02*
X171045619Y-92545238D01*
X170998000Y-92640476D01*
X170950380Y-92688095D01*
X170855142Y-92735714D01*
X170712285Y-92735714D01*
X170617047Y-92688095D01*
X171045619Y-92354761D02*
X170950380Y-92402380D01*
X170759904Y-92402380D01*
X170664666Y-92354761D01*
X170617047Y-92307142D01*
X170569428Y-92211904D01*
X170569428Y-91926190D01*
X170617047Y-91830952D01*
X170664666Y-91783333D01*
X170759904Y-91735714D01*
X170950380Y-91735714D01*
X171045619Y-91783333D01*
X171950380Y-92402380D02*
X171950380Y-91878571D01*
X171902761Y-91783333D01*
X171807523Y-91735714D01*
X171617047Y-91735714D01*
X171521809Y-91783333D01*
X171950380Y-92354761D02*
X171855142Y-92402380D01*
X171617047Y-92402380D01*
X171521809Y-92354761D01*
X171474190Y-92259523D01*
X171474190Y-92164285D01*
X171521809Y-92069047D01*
X171617047Y-92021428D01*
X171855142Y-92021428D01*
X171950380Y-91973809D01*
X173188476Y-92402380D02*
X173188476Y-91402380D01*
X173426571Y-91402380D01*
X173569428Y-91450000D01*
X173664666Y-91545238D01*
X173712285Y-91640476D01*
X173759904Y-91830952D01*
X173759904Y-91973809D01*
X173712285Y-92164285D01*
X173664666Y-92259523D01*
X173569428Y-92354761D01*
X173426571Y-92402380D01*
X173188476Y-92402380D01*
X174188476Y-92402380D02*
X174188476Y-91735714D01*
X174188476Y-91926190D02*
X174236095Y-91830952D01*
X174283714Y-91783333D01*
X174378952Y-91735714D01*
X174474190Y-91735714D01*
X175236095Y-92402380D02*
X175236095Y-91878571D01*
X175188476Y-91783333D01*
X175093238Y-91735714D01*
X174902761Y-91735714D01*
X174807523Y-91783333D01*
X175236095Y-92354761D02*
X175140857Y-92402380D01*
X174902761Y-92402380D01*
X174807523Y-92354761D01*
X174759904Y-92259523D01*
X174759904Y-92164285D01*
X174807523Y-92069047D01*
X174902761Y-92021428D01*
X175140857Y-92021428D01*
X175236095Y-91973809D01*
X175617047Y-91735714D02*
X175807523Y-92402380D01*
X175998000Y-91926190D01*
X176188476Y-92402380D01*
X176378952Y-91735714D01*
X177093238Y-91878571D02*
X177236095Y-91926190D01*
X177283714Y-91973809D01*
X177331333Y-92069047D01*
X177331333Y-92211904D01*
X177283714Y-92307142D01*
X177236095Y-92354761D01*
X177140857Y-92402380D01*
X176759904Y-92402380D01*
X176759904Y-91402380D01*
X177093238Y-91402380D01*
X177188476Y-91450000D01*
X177236095Y-91497619D01*
X177283714Y-91592857D01*
X177283714Y-91688095D01*
X177236095Y-91783333D01*
X177188476Y-91830952D01*
X177093238Y-91878571D01*
X176759904Y-91878571D01*
X177759904Y-92402380D02*
X177759904Y-91735714D01*
X177759904Y-91926190D02*
X177807523Y-91830952D01*
X177855142Y-91783333D01*
X177950380Y-91735714D01*
X178045619Y-91735714D01*
X178378952Y-92402380D02*
X178378952Y-91735714D01*
X178378952Y-91402380D02*
X178331333Y-91450000D01*
X178378952Y-91497619D01*
X178426571Y-91450000D01*
X178378952Y-91402380D01*
X178378952Y-91497619D01*
X179283714Y-92402380D02*
X179283714Y-91402380D01*
X179283714Y-92354761D02*
X179188476Y-92402380D01*
X178998000Y-92402380D01*
X178902761Y-92354761D01*
X178855142Y-92307142D01*
X178807523Y-92211904D01*
X178807523Y-91926190D01*
X178855142Y-91830952D01*
X178902761Y-91783333D01*
X178998000Y-91735714D01*
X179188476Y-91735714D01*
X179283714Y-91783333D01*
X180188476Y-91735714D02*
X180188476Y-92545238D01*
X180140857Y-92640476D01*
X180093238Y-92688095D01*
X179998000Y-92735714D01*
X179855142Y-92735714D01*
X179759904Y-92688095D01*
X180188476Y-92354761D02*
X180093238Y-92402380D01*
X179902761Y-92402380D01*
X179807523Y-92354761D01*
X179759904Y-92307142D01*
X179712285Y-92211904D01*
X179712285Y-91926190D01*
X179759904Y-91830952D01*
X179807523Y-91783333D01*
X179902761Y-91735714D01*
X180093238Y-91735714D01*
X180188476Y-91783333D01*
X181045619Y-92354761D02*
X180950380Y-92402380D01*
X180759904Y-92402380D01*
X180664666Y-92354761D01*
X180617047Y-92259523D01*
X180617047Y-91878571D01*
X180664666Y-91783333D01*
X180759904Y-91735714D01*
X180950380Y-91735714D01*
X181045619Y-91783333D01*
X181093238Y-91878571D01*
X181093238Y-91973809D01*
X180617047Y-92069047D01*
X169331333Y-94433333D02*
X169283714Y-94385714D01*
X169188476Y-94242857D01*
X169140857Y-94147619D01*
X169093238Y-94004761D01*
X169045619Y-93766666D01*
X169045619Y-93576190D01*
X169093238Y-93338095D01*
X169140857Y-93195238D01*
X169188476Y-93100000D01*
X169283714Y-92957142D01*
X169331333Y-92909523D01*
X170236095Y-93100000D02*
X170140857Y-93052380D01*
X169998000Y-93052380D01*
X169855142Y-93100000D01*
X169759904Y-93195238D01*
X169712285Y-93290476D01*
X169664666Y-93480952D01*
X169664666Y-93623809D01*
X169712285Y-93814285D01*
X169759904Y-93909523D01*
X169855142Y-94004761D01*
X169998000Y-94052380D01*
X170093238Y-94052380D01*
X170236095Y-94004761D01*
X170283714Y-93957142D01*
X170283714Y-93623809D01*
X170093238Y-93623809D01*
X170712285Y-94052380D02*
X170712285Y-93385714D01*
X170712285Y-93576190D02*
X170759904Y-93480952D01*
X170807523Y-93433333D01*
X170902761Y-93385714D01*
X170998000Y-93385714D01*
X171712285Y-94004761D02*
X171617047Y-94052380D01*
X171426571Y-94052380D01*
X171331333Y-94004761D01*
X171283714Y-93909523D01*
X171283714Y-93528571D01*
X171331333Y-93433333D01*
X171426571Y-93385714D01*
X171617047Y-93385714D01*
X171712285Y-93433333D01*
X171759904Y-93528571D01*
X171759904Y-93623809D01*
X171283714Y-93719047D01*
X172617047Y-94052380D02*
X172617047Y-93528571D01*
X172569428Y-93433333D01*
X172474190Y-93385714D01*
X172283714Y-93385714D01*
X172188476Y-93433333D01*
X172617047Y-94004761D02*
X172521809Y-94052380D01*
X172283714Y-94052380D01*
X172188476Y-94004761D01*
X172140857Y-93909523D01*
X172140857Y-93814285D01*
X172188476Y-93719047D01*
X172283714Y-93671428D01*
X172521809Y-93671428D01*
X172617047Y-93623809D01*
X173045619Y-94004761D02*
X173140857Y-94052380D01*
X173331333Y-94052380D01*
X173426571Y-94004761D01*
X173474190Y-93909523D01*
X173474190Y-93861904D01*
X173426571Y-93766666D01*
X173331333Y-93719047D01*
X173188476Y-93719047D01*
X173093238Y-93671428D01*
X173045619Y-93576190D01*
X173045619Y-93528571D01*
X173093238Y-93433333D01*
X173188476Y-93385714D01*
X173331333Y-93385714D01*
X173426571Y-93433333D01*
X174283714Y-94004761D02*
X174188476Y-94052380D01*
X173998000Y-94052380D01*
X173902761Y-94004761D01*
X173855142Y-93909523D01*
X173855142Y-93528571D01*
X173902761Y-93433333D01*
X173998000Y-93385714D01*
X174188476Y-93385714D01*
X174283714Y-93433333D01*
X174331333Y-93528571D01*
X174331333Y-93623809D01*
X173855142Y-93719047D01*
X174664666Y-93385714D02*
X174855142Y-94052380D01*
X175045619Y-93576190D01*
X175236095Y-94052380D01*
X175426571Y-93385714D01*
X176188476Y-94004761D02*
X176093238Y-94052380D01*
X175902761Y-94052380D01*
X175807523Y-94004761D01*
X175759904Y-93909523D01*
X175759904Y-93528571D01*
X175807523Y-93433333D01*
X175902761Y-93385714D01*
X176093238Y-93385714D01*
X176188476Y-93433333D01*
X176236095Y-93528571D01*
X176236095Y-93623809D01*
X175759904Y-93719047D01*
X177093238Y-94052380D02*
X177093238Y-93528571D01*
X177045619Y-93433333D01*
X176950380Y-93385714D01*
X176759904Y-93385714D01*
X176664666Y-93433333D01*
X177093238Y-94004761D02*
X176998000Y-94052380D01*
X176759904Y-94052380D01*
X176664666Y-94004761D01*
X176617047Y-93909523D01*
X176617047Y-93814285D01*
X176664666Y-93719047D01*
X176759904Y-93671428D01*
X176998000Y-93671428D01*
X177093238Y-93623809D01*
X177474190Y-93385714D02*
X177998000Y-93385714D01*
X177474190Y-94052380D01*
X177998000Y-94052380D01*
X178521809Y-94052380D02*
X178426571Y-94004761D01*
X178378952Y-93909523D01*
X178378952Y-93052380D01*
X179283714Y-94004761D02*
X179188476Y-94052380D01*
X178998000Y-94052380D01*
X178902761Y-94004761D01*
X178855142Y-93909523D01*
X178855142Y-93528571D01*
X178902761Y-93433333D01*
X178998000Y-93385714D01*
X179188476Y-93385714D01*
X179283714Y-93433333D01*
X179331333Y-93528571D01*
X179331333Y-93623809D01*
X178855142Y-93719047D01*
X179664666Y-94433333D02*
X179712285Y-94385714D01*
X179807523Y-94242857D01*
X179855142Y-94147619D01*
X179902761Y-94004761D01*
X179950380Y-93766666D01*
X179950380Y-93576190D01*
X179902761Y-93338095D01*
X179855142Y-93195238D01*
X179807523Y-93100000D01*
X179712285Y-92957142D01*
X179664666Y-92909523D01*
X169093238Y-95035714D02*
X169093238Y-95845238D01*
X169045619Y-95940476D01*
X168998000Y-95988095D01*
X168902761Y-96035714D01*
X168759904Y-96035714D01*
X168664666Y-95988095D01*
X169093238Y-95654761D02*
X168998000Y-95702380D01*
X168807523Y-95702380D01*
X168712285Y-95654761D01*
X168664666Y-95607142D01*
X168617047Y-95511904D01*
X168617047Y-95226190D01*
X168664666Y-95130952D01*
X168712285Y-95083333D01*
X168807523Y-95035714D01*
X168998000Y-95035714D01*
X169093238Y-95083333D01*
X169569428Y-95702380D02*
X169569428Y-95035714D01*
X169569428Y-94702380D02*
X169521809Y-94750000D01*
X169569428Y-94797619D01*
X169617047Y-94750000D01*
X169569428Y-94702380D01*
X169569428Y-94797619D01*
X169902761Y-95035714D02*
X170283714Y-95035714D01*
X170045619Y-94702380D02*
X170045619Y-95559523D01*
X170093238Y-95654761D01*
X170188476Y-95702380D01*
X170283714Y-95702380D01*
X170617047Y-95702380D02*
X170617047Y-94702380D01*
X171045619Y-95702380D02*
X171045619Y-95178571D01*
X170998000Y-95083333D01*
X170902761Y-95035714D01*
X170759904Y-95035714D01*
X170664666Y-95083333D01*
X170617047Y-95130952D01*
X171950380Y-95035714D02*
X171950380Y-95702380D01*
X171521809Y-95035714D02*
X171521809Y-95559523D01*
X171569428Y-95654761D01*
X171664666Y-95702380D01*
X171807523Y-95702380D01*
X171902761Y-95654761D01*
X171950380Y-95607142D01*
X172426571Y-95702380D02*
X172426571Y-94702380D01*
X172426571Y-95083333D02*
X172521809Y-95035714D01*
X172712285Y-95035714D01*
X172807523Y-95083333D01*
X172855142Y-95130952D01*
X172902761Y-95226190D01*
X172902761Y-95511904D01*
X172855142Y-95607142D01*
X172807523Y-95654761D01*
X172712285Y-95702380D01*
X172521809Y-95702380D01*
X172426571Y-95654761D01*
X173331333Y-95607142D02*
X173378952Y-95654761D01*
X173331333Y-95702380D01*
X173283714Y-95654761D01*
X173331333Y-95607142D01*
X173331333Y-95702380D01*
X174236095Y-95654761D02*
X174140857Y-95702380D01*
X173950380Y-95702380D01*
X173855142Y-95654761D01*
X173807523Y-95607142D01*
X173759904Y-95511904D01*
X173759904Y-95226190D01*
X173807523Y-95130952D01*
X173855142Y-95083333D01*
X173950380Y-95035714D01*
X174140857Y-95035714D01*
X174236095Y-95083333D01*
X174807523Y-95702380D02*
X174712285Y-95654761D01*
X174664666Y-95607142D01*
X174617047Y-95511904D01*
X174617047Y-95226190D01*
X174664666Y-95130952D01*
X174712285Y-95083333D01*
X174807523Y-95035714D01*
X174950380Y-95035714D01*
X175045619Y-95083333D01*
X175093238Y-95130952D01*
X175140857Y-95226190D01*
X175140857Y-95511904D01*
X175093238Y-95607142D01*
X175045619Y-95654761D01*
X174950380Y-95702380D01*
X174807523Y-95702380D01*
X175569428Y-95702380D02*
X175569428Y-95035714D01*
X175569428Y-95130952D02*
X175617047Y-95083333D01*
X175712285Y-95035714D01*
X175855142Y-95035714D01*
X175950380Y-95083333D01*
X175998000Y-95178571D01*
X175998000Y-95702380D01*
X175998000Y-95178571D02*
X176045619Y-95083333D01*
X176140857Y-95035714D01*
X176283714Y-95035714D01*
X176378952Y-95083333D01*
X176426571Y-95178571D01*
X176426571Y-95702380D01*
X177617047Y-94654761D02*
X176759904Y-95940476D01*
X177807523Y-95035714D02*
X178188476Y-95035714D01*
X177950380Y-94702380D02*
X177950380Y-95559523D01*
X177998000Y-95654761D01*
X178093238Y-95702380D01*
X178188476Y-95702380D01*
X178902761Y-95654761D02*
X178807523Y-95702380D01*
X178617047Y-95702380D01*
X178521809Y-95654761D01*
X178474190Y-95559523D01*
X178474190Y-95178571D01*
X178521809Y-95083333D01*
X178617047Y-95035714D01*
X178807523Y-95035714D01*
X178902761Y-95083333D01*
X178950380Y-95178571D01*
X178950380Y-95273809D01*
X178474190Y-95369047D01*
X179378952Y-95702380D02*
X179378952Y-94702380D01*
X179378952Y-95083333D02*
X179474190Y-95035714D01*
X179664666Y-95035714D01*
X179759904Y-95083333D01*
X179807523Y-95130952D01*
X179855142Y-95226190D01*
X179855142Y-95511904D01*
X179807523Y-95607142D01*
X179759904Y-95654761D01*
X179664666Y-95702380D01*
X179474190Y-95702380D01*
X179378952Y-95654761D01*
X180426571Y-95702380D02*
X180331333Y-95654761D01*
X180283714Y-95559523D01*
X180283714Y-94702380D01*
X192477380Y-98089404D02*
X191477380Y-98089404D01*
X191477380Y-97708452D01*
X191525000Y-97613214D01*
X191572619Y-97565595D01*
X191667857Y-97517976D01*
X191810714Y-97517976D01*
X191905952Y-97565595D01*
X191953571Y-97613214D01*
X192001190Y-97708452D01*
X192001190Y-98089404D01*
X191477380Y-97184642D02*
X192477380Y-96946547D01*
X191763095Y-96756071D01*
X192477380Y-96565595D01*
X191477380Y-96327500D01*
X192477380Y-95375119D02*
X192001190Y-95708452D01*
X192477380Y-95946547D02*
X191477380Y-95946547D01*
X191477380Y-95565595D01*
X191525000Y-95470357D01*
X191572619Y-95422738D01*
X191667857Y-95375119D01*
X191810714Y-95375119D01*
X191905952Y-95422738D01*
X191953571Y-95470357D01*
X192001190Y-95565595D01*
X192001190Y-95946547D01*
X192572619Y-95184642D02*
X192572619Y-94422738D01*
X192429761Y-94232261D02*
X192477380Y-94089404D01*
X192477380Y-93851309D01*
X192429761Y-93756071D01*
X192382142Y-93708452D01*
X192286904Y-93660833D01*
X192191666Y-93660833D01*
X192096428Y-93708452D01*
X192048809Y-93756071D01*
X192001190Y-93851309D01*
X191953571Y-94041785D01*
X191905952Y-94137023D01*
X191858333Y-94184642D01*
X191763095Y-94232261D01*
X191667857Y-94232261D01*
X191572619Y-94184642D01*
X191525000Y-94137023D01*
X191477380Y-94041785D01*
X191477380Y-93803690D01*
X191525000Y-93660833D01*
X191953571Y-93232261D02*
X191953571Y-92898928D01*
X192477380Y-92756071D02*
X192477380Y-93232261D01*
X191477380Y-93232261D01*
X191477380Y-92756071D01*
X192477380Y-91851309D02*
X192477380Y-92327500D01*
X191477380Y-92327500D01*
X192382142Y-91517976D02*
X192429761Y-91470357D01*
X192477380Y-91517976D01*
X192429761Y-91565595D01*
X192382142Y-91517976D01*
X192477380Y-91517976D01*
X191858333Y-91517976D02*
X191905952Y-91470357D01*
X191953571Y-91517976D01*
X191905952Y-91565595D01*
X191858333Y-91517976D01*
X191953571Y-91517976D01*
X194127380Y-97565595D02*
X194127380Y-98137023D01*
X194127380Y-97851309D02*
X193127380Y-97851309D01*
X193270238Y-97946547D01*
X193365476Y-98041785D01*
X193413095Y-98137023D01*
X193746428Y-97137023D02*
X193746428Y-96375119D01*
X193222619Y-95946547D02*
X193175000Y-95898928D01*
X193127380Y-95803690D01*
X193127380Y-95565595D01*
X193175000Y-95470357D01*
X193222619Y-95422738D01*
X193317857Y-95375119D01*
X193413095Y-95375119D01*
X193555952Y-95422738D01*
X194127380Y-95994166D01*
X194127380Y-95375119D01*
X193127380Y-93708452D02*
X193127380Y-94184642D01*
X193603571Y-94232261D01*
X193555952Y-94184642D01*
X193508333Y-94089404D01*
X193508333Y-93851309D01*
X193555952Y-93756071D01*
X193603571Y-93708452D01*
X193698809Y-93660833D01*
X193936904Y-93660833D01*
X194032142Y-93708452D01*
X194079761Y-93756071D01*
X194127380Y-93851309D01*
X194127380Y-94089404D01*
X194079761Y-94184642D01*
X194032142Y-94232261D01*
X193460714Y-93327500D02*
X194127380Y-93089404D01*
X193460714Y-92851309D01*
X194127380Y-91708452D02*
X193127380Y-91708452D01*
X193508333Y-91708452D02*
X193460714Y-91613214D01*
X193460714Y-91422738D01*
X193508333Y-91327500D01*
X193555952Y-91279880D01*
X193651190Y-91232261D01*
X193936904Y-91232261D01*
X194032142Y-91279880D01*
X194079761Y-91327500D01*
X194127380Y-91422738D01*
X194127380Y-91613214D01*
X194079761Y-91708452D01*
X194127380Y-90375119D02*
X193603571Y-90375119D01*
X193508333Y-90422738D01*
X193460714Y-90517976D01*
X193460714Y-90708452D01*
X193508333Y-90803690D01*
X194079761Y-90375119D02*
X194127380Y-90470357D01*
X194127380Y-90708452D01*
X194079761Y-90803690D01*
X193984523Y-90851309D01*
X193889285Y-90851309D01*
X193794047Y-90803690D01*
X193746428Y-90708452D01*
X193746428Y-90470357D01*
X193698809Y-90375119D01*
X194127380Y-89898928D02*
X193460714Y-89898928D01*
X193651190Y-89898928D02*
X193555952Y-89851309D01*
X193508333Y-89803690D01*
X193460714Y-89708452D01*
X193460714Y-89613214D01*
X194127380Y-89279880D02*
X193460714Y-89279880D01*
X193651190Y-89279880D02*
X193555952Y-89232261D01*
X193508333Y-89184642D01*
X193460714Y-89089404D01*
X193460714Y-88994166D01*
X194079761Y-88279880D02*
X194127380Y-88375119D01*
X194127380Y-88565595D01*
X194079761Y-88660833D01*
X193984523Y-88708452D01*
X193603571Y-88708452D01*
X193508333Y-88660833D01*
X193460714Y-88565595D01*
X193460714Y-88375119D01*
X193508333Y-88279880D01*
X193603571Y-88232261D01*
X193698809Y-88232261D01*
X193794047Y-88708452D01*
X194127380Y-87660833D02*
X194079761Y-87756071D01*
X193984523Y-87803690D01*
X193127380Y-87803690D01*
X193460714Y-86517976D02*
X194317857Y-86517976D01*
X194413095Y-86565595D01*
X194460714Y-86660833D01*
X194460714Y-86708452D01*
X193127380Y-86517976D02*
X193175000Y-86565595D01*
X193222619Y-86517976D01*
X193175000Y-86470357D01*
X193127380Y-86517976D01*
X193222619Y-86517976D01*
X194127380Y-85613214D02*
X193603571Y-85613214D01*
X193508333Y-85660833D01*
X193460714Y-85756071D01*
X193460714Y-85946547D01*
X193508333Y-86041785D01*
X194079761Y-85613214D02*
X194127380Y-85708452D01*
X194127380Y-85946547D01*
X194079761Y-86041785D01*
X193984523Y-86089404D01*
X193889285Y-86089404D01*
X193794047Y-86041785D01*
X193746428Y-85946547D01*
X193746428Y-85708452D01*
X193698809Y-85613214D01*
X194079761Y-84708452D02*
X194127380Y-84803690D01*
X194127380Y-84994166D01*
X194079761Y-85089404D01*
X194032142Y-85137023D01*
X193936904Y-85184642D01*
X193651190Y-85184642D01*
X193555952Y-85137023D01*
X193508333Y-85089404D01*
X193460714Y-84994166D01*
X193460714Y-84803690D01*
X193508333Y-84708452D01*
X194127380Y-84279880D02*
X193127380Y-84279880D01*
X193746428Y-84184642D02*
X194127380Y-83898928D01*
X193460714Y-83898928D02*
X193841666Y-84279880D01*
X194872619Y-98137023D02*
X194825000Y-98089404D01*
X194777380Y-97994166D01*
X194777380Y-97756071D01*
X194825000Y-97660833D01*
X194872619Y-97613214D01*
X194967857Y-97565595D01*
X195063095Y-97565595D01*
X195205952Y-97613214D01*
X195777380Y-98184642D01*
X195777380Y-97565595D01*
X195396428Y-97137023D02*
X195396428Y-96375119D01*
X194777380Y-95994166D02*
X194777380Y-95375119D01*
X195158333Y-95708452D01*
X195158333Y-95565595D01*
X195205952Y-95470357D01*
X195253571Y-95422738D01*
X195348809Y-95375119D01*
X195586904Y-95375119D01*
X195682142Y-95422738D01*
X195729761Y-95470357D01*
X195777380Y-95565595D01*
X195777380Y-95851309D01*
X195729761Y-95946547D01*
X195682142Y-95994166D01*
X194777380Y-94184642D02*
X195586904Y-94184642D01*
X195682142Y-94137023D01*
X195729761Y-94089404D01*
X195777380Y-93994166D01*
X195777380Y-93803690D01*
X195729761Y-93708452D01*
X195682142Y-93660833D01*
X195586904Y-93613214D01*
X194777380Y-93613214D01*
X195729761Y-93184642D02*
X195777380Y-93041785D01*
X195777380Y-92803690D01*
X195729761Y-92708452D01*
X195682142Y-92660833D01*
X195586904Y-92613214D01*
X195491666Y-92613214D01*
X195396428Y-92660833D01*
X195348809Y-92708452D01*
X195301190Y-92803690D01*
X195253571Y-92994166D01*
X195205952Y-93089404D01*
X195158333Y-93137023D01*
X195063095Y-93184642D01*
X194967857Y-93184642D01*
X194872619Y-93137023D01*
X194825000Y-93089404D01*
X194777380Y-92994166D01*
X194777380Y-92756071D01*
X194825000Y-92613214D01*
X195253571Y-91851309D02*
X195301190Y-91708452D01*
X195348809Y-91660833D01*
X195444047Y-91613214D01*
X195586904Y-91613214D01*
X195682142Y-91660833D01*
X195729761Y-91708452D01*
X195777380Y-91803690D01*
X195777380Y-92184642D01*
X194777380Y-92184642D01*
X194777380Y-91851309D01*
X194825000Y-91756071D01*
X194872619Y-91708452D01*
X194967857Y-91660833D01*
X195063095Y-91660833D01*
X195158333Y-91708452D01*
X195205952Y-91756071D01*
X195253571Y-91851309D01*
X195253571Y-92184642D01*
D13*
X116840000Y-107467400D02*
X116840000Y-108500000D01*
D10*
X196000000Y-61000000D02*
X191000000Y-61000000D01*
X191000000Y-66000000D02*
X191000000Y-61000000D01*
X196000000Y-61000000D02*
X196000000Y-66000000D01*
X196000000Y-66000000D02*
X191000000Y-66000000D01*
D11*
G36*
X175900000Y-117600000D02*
G01*
X176200000Y-117800000D01*
X176400000Y-118100000D01*
X176500000Y-118500000D01*
X176500000Y-149000000D01*
X171500000Y-149000000D01*
X171500000Y-148500000D01*
X168500000Y-148500000D01*
X168500000Y-149000000D01*
X149500000Y-149000000D01*
X149500000Y-117500000D01*
X175500000Y-117500000D01*
X175900000Y-117600000D01*
G37*
X175900000Y-117600000D02*
X176200000Y-117800000D01*
X176400000Y-118100000D01*
X176500000Y-118500000D01*
X176500000Y-149000000D01*
X171500000Y-149000000D01*
X171500000Y-148500000D01*
X168500000Y-148500000D01*
X168500000Y-149000000D01*
X149500000Y-149000000D01*
X149500000Y-117500000D01*
X175500000Y-117500000D01*
X175900000Y-117600000D01*
G36*
X149500000Y-149000000D02*
G01*
X137000000Y-149000000D01*
X137000000Y-144500000D01*
X148000000Y-144500000D01*
X148300000Y-144400000D01*
X148500000Y-144200000D01*
X148500000Y-120000000D01*
X148400000Y-119700000D01*
X148200000Y-119500000D01*
X137000000Y-119500000D01*
X137000000Y-117500000D01*
X149500000Y-117500000D01*
X149500000Y-149000000D01*
G37*
X149500000Y-149000000D02*
X137000000Y-149000000D01*
X137000000Y-144500000D01*
X148000000Y-144500000D01*
X148300000Y-144400000D01*
X148500000Y-144200000D01*
X148500000Y-120000000D01*
X148400000Y-119700000D01*
X148200000Y-119500000D01*
X137000000Y-119500000D01*
X137000000Y-117500000D01*
X149500000Y-117500000D01*
X149500000Y-149000000D01*
G36*
X136600000Y-144300000D02*
G01*
X136800000Y-144500000D01*
X137000000Y-144500000D01*
X137000000Y-149000000D01*
X136500000Y-149000000D01*
X136500000Y-144000000D01*
X136600000Y-144300000D01*
G37*
X136600000Y-144300000D02*
X136800000Y-144500000D01*
X137000000Y-144500000D01*
X137000000Y-149000000D01*
X136500000Y-149000000D01*
X136500000Y-144000000D01*
X136600000Y-144300000D01*
G36*
X137000000Y-119500000D02*
G01*
X136800000Y-119500000D01*
X136600000Y-119700000D01*
X136500000Y-120000000D01*
X136500000Y-117500000D01*
X137000000Y-117500000D01*
X137000000Y-119500000D01*
G37*
X137000000Y-119500000D02*
X136800000Y-119500000D01*
X136600000Y-119700000D01*
X136500000Y-120000000D01*
X136500000Y-117500000D01*
X137000000Y-117500000D01*
X137000000Y-119500000D01*
G36*
X136500000Y-149000000D02*
G01*
X129500000Y-149000000D01*
X129500000Y-118500000D01*
X129600000Y-118000000D01*
X130000000Y-117600000D01*
X130500000Y-117500000D01*
X136500000Y-117500000D01*
X136500000Y-149000000D01*
G37*
X136500000Y-149000000D02*
X129500000Y-149000000D01*
X129500000Y-118500000D01*
X129600000Y-118000000D01*
X130000000Y-117600000D01*
X130500000Y-117500000D01*
X136500000Y-117500000D01*
X136500000Y-149000000D01*
D10*
X194500000Y-135000000D02*
X194500000Y-137500000D01*
X192500000Y-135000000D02*
X194500000Y-135000000D01*
X192500000Y-137500000D02*
X192500000Y-135000000D01*
X191000000Y-137500000D02*
X192500000Y-137500000D01*
X193500000Y-143000000D02*
X191000000Y-137500000D01*
X196000000Y-137500000D02*
X194500000Y-137500000D01*
X193500000Y-143000000D02*
X196000000Y-137500000D01*
X185000000Y-147365000D02*
X184264300Y-148501100D01*
X189000000Y-147365000D02*
X185000000Y-147365000D01*
D14*
X140500000Y-144500000D02*
X144500000Y-144500000D01*
X148000000Y-144500000D02*
X144500000Y-144500000D01*
X137000000Y-144500000D02*
G75*
G02*
X136500000Y-144000000I0J500000D01*
G01*
X148500000Y-144000000D02*
G75*
G02*
X148000000Y-144500000I-500000J0D01*
G01*
X148000000Y-119500000D02*
G75*
G02*
X148500000Y-120000000I0J-500000D01*
G01*
X136500000Y-120000000D02*
G75*
G02*
X137000000Y-119500000I500000J0D01*
G01*
X137000000Y-119500000D02*
X148000000Y-119500000D01*
X137000000Y-144500000D02*
X140500000Y-144500000D01*
X148500000Y-120000000D02*
X148500000Y-144000000D01*
X136500000Y-120000000D02*
X136500000Y-144000000D01*
D11*
X171500000Y-148500000D02*
X168500000Y-148500000D01*
X168500000Y-148500000D02*
X168500000Y-149000000D01*
X171500000Y-148500000D02*
X171500000Y-149000000D01*
D14*
X176500000Y-118500000D02*
X176500000Y-149000000D01*
X130500000Y-117500000D02*
X175500000Y-117500000D01*
X175500000Y-117500000D02*
G75*
G02*
X176500000Y-118500000I0J-1000000D01*
G01*
X129500000Y-118500000D02*
X129500000Y-149000000D01*
X129500000Y-118500000D02*
G75*
G02*
X130500000Y-117500000I1000000J0D01*
G01*
X130500000Y-117000000D02*
X187500000Y-117000000D01*
X129000000Y-118500000D02*
G75*
G02*
X130500000Y-117000000I1500000J0D01*
G01*
X129000000Y-118500000D02*
X129000000Y-149000000D01*
X187500000Y-117000000D02*
G75*
G02*
X189000000Y-118500000I0J-1500000D01*
G01*
X189000000Y-118500000D02*
X189000000Y-149000000D01*
D13*
X189254000Y-108500000D02*
G75*
G02*
X187754000Y-110000000I-1500000J0D01*
G01*
X118340000Y-110000000D02*
G75*
G02*
X116840000Y-108500000I0J1500000D01*
G01*
X187754000Y-110000000D02*
X118364000Y-110000000D01*
X189254000Y-55000000D02*
X189254000Y-108500000D01*
X116840000Y-55000000D02*
X116840000Y-89433400D01*
D10*
X169545000Y-65405000D02*
X178435000Y-65405000D01*
X169545000Y-57150000D02*
X178435000Y-57150000D01*
X178435000Y-65405000D02*
X178435000Y-57150000D01*
X169545000Y-57150000D02*
X169545000Y-65405000D01*
X168405000Y-56400000D02*
X168405000Y-65520000D01*
X168405000Y-65520000D02*
X117345000Y-65520000D01*
X117345000Y-65520000D02*
X117345000Y-56400000D01*
X117345000Y-56400000D02*
X168405000Y-56400000D01*
X144925000Y-56400000D02*
X144925000Y-57710000D01*
X144925000Y-57710000D02*
X167105000Y-57710000D01*
X167105000Y-57710000D02*
X167105000Y-64210000D01*
X167105000Y-64210000D02*
X118645000Y-64210000D01*
X118645000Y-64210000D02*
X118645000Y-57710000D01*
X118645000Y-57710000D02*
X140825000Y-57710000D01*
X140825000Y-57710000D02*
X140825000Y-57710000D01*
X140825000Y-57710000D02*
X140825000Y-56400000D01*
X163195000Y-57534000D02*
X163695000Y-56534000D01*
X163695000Y-56534000D02*
X162695000Y-56534000D01*
X162695000Y-56534000D02*
X163195000Y-57534000D01*
D15*
G36*
X174963964Y-97036576D02*
G01*
X175039513Y-97437322D01*
X175597041Y-97667154D01*
X175931465Y-97439748D01*
X176025122Y-97376431D01*
X176109782Y-97319896D01*
X176181495Y-97272727D01*
X176236311Y-97237502D01*
X176270280Y-97216805D01*
X176279530Y-97212342D01*
X176296195Y-97223820D01*
X176331806Y-97255551D01*
X176382371Y-97303483D01*
X176443900Y-97363562D01*
X176512399Y-97431733D01*
X176583879Y-97503945D01*
X176654347Y-97576142D01*
X176719811Y-97644273D01*
X176776280Y-97704283D01*
X176819763Y-97752119D01*
X176846268Y-97783727D01*
X176852605Y-97794305D01*
X176843486Y-97813806D01*
X176817920Y-97856531D01*
X176778597Y-97918298D01*
X176728203Y-97994931D01*
X176669427Y-98082248D01*
X176635368Y-98132052D01*
X176573289Y-98222993D01*
X176518126Y-98305059D01*
X176472554Y-98374163D01*
X176439250Y-98426222D01*
X176420890Y-98457150D01*
X176418131Y-98463650D01*
X176424385Y-98482121D01*
X176441434Y-98525172D01*
X176466703Y-98586749D01*
X176497622Y-98660799D01*
X176531618Y-98741270D01*
X176566118Y-98822107D01*
X176598551Y-98897258D01*
X176626343Y-98960671D01*
X176646923Y-99006293D01*
X176657719Y-99028069D01*
X176658356Y-99028926D01*
X176675307Y-99033084D01*
X176720451Y-99042361D01*
X176789110Y-99055844D01*
X176876602Y-99072621D01*
X176978250Y-99091781D01*
X177037556Y-99102830D01*
X177146172Y-99123510D01*
X177244277Y-99143189D01*
X177326909Y-99160789D01*
X177389104Y-99175233D01*
X177425899Y-99185446D01*
X177433296Y-99188686D01*
X177440540Y-99210617D01*
X177446385Y-99260147D01*
X177450835Y-99331485D01*
X177453893Y-99418839D01*
X177455565Y-99516417D01*
X177455853Y-99618426D01*
X177454761Y-99719075D01*
X177452294Y-99812572D01*
X177448456Y-99893125D01*
X177443250Y-99954942D01*
X177436681Y-99992230D01*
X177432741Y-99999993D01*
X177409188Y-100009298D01*
X177359282Y-100022600D01*
X177289623Y-100038337D01*
X177206813Y-100054946D01*
X177177905Y-100060319D01*
X177038531Y-100085848D01*
X176928436Y-100106408D01*
X176843982Y-100122815D01*
X176781530Y-100135887D01*
X176737444Y-100146441D01*
X176708085Y-100155294D01*
X176689815Y-100163263D01*
X176678998Y-100171165D01*
X176677485Y-100172727D01*
X176662377Y-100197886D01*
X176639329Y-100246850D01*
X176610644Y-100313621D01*
X176578622Y-100392205D01*
X176545565Y-100476607D01*
X176513773Y-100560830D01*
X176485549Y-100638879D01*
X176463193Y-100704759D01*
X176449007Y-100752473D01*
X176445293Y-100776027D01*
X176445602Y-100776852D01*
X176458189Y-100796104D01*
X176486744Y-100838463D01*
X176528267Y-100899521D01*
X176579756Y-100974868D01*
X176638211Y-101060096D01*
X176654858Y-101084315D01*
X176714215Y-101172123D01*
X176766447Y-101252238D01*
X176808708Y-101320062D01*
X176838153Y-101370993D01*
X176851937Y-101400431D01*
X176852605Y-101404048D01*
X176841024Y-101423057D01*
X176809024Y-101460714D01*
X176760718Y-101512973D01*
X176700220Y-101575786D01*
X176631644Y-101645106D01*
X176559104Y-101716885D01*
X176486712Y-101787077D01*
X176418584Y-101851635D01*
X176358832Y-101906510D01*
X176311571Y-101947656D01*
X176280913Y-101971026D01*
X176272432Y-101974842D01*
X176252691Y-101965855D01*
X176212274Y-101941616D01*
X176157763Y-101906209D01*
X176115823Y-101877711D01*
X176039829Y-101825418D01*
X175949834Y-101763845D01*
X175859564Y-101702370D01*
X175811032Y-101669469D01*
X175646762Y-101558359D01*
X175508869Y-101632916D01*
X175446049Y-101665578D01*
X175392629Y-101690966D01*
X175356484Y-101705446D01*
X175347284Y-101707460D01*
X175336221Y-101692584D01*
X175314394Y-101650547D01*
X175283434Y-101585227D01*
X175244970Y-101500500D01*
X175200632Y-101400245D01*
X175152047Y-101288339D01*
X175100846Y-101168659D01*
X175048659Y-101045084D01*
X174997113Y-100921491D01*
X174947840Y-100801757D01*
X174902467Y-100689759D01*
X174862625Y-100589377D01*
X174829942Y-100504486D01*
X174806049Y-100438965D01*
X174792574Y-100396690D01*
X174790406Y-100382172D01*
X174807583Y-100363653D01*
X174845190Y-100333590D01*
X174895366Y-100298232D01*
X174899578Y-100295434D01*
X175029264Y-100191625D01*
X175133834Y-100070515D01*
X175212381Y-99935976D01*
X175263999Y-99791882D01*
X175287782Y-99642105D01*
X175282823Y-99490517D01*
X175248217Y-99340992D01*
X175183057Y-99197400D01*
X175163886Y-99165984D01*
X175064174Y-99039125D01*
X174946377Y-98937255D01*
X174814571Y-98860904D01*
X174672833Y-98810602D01*
X174525242Y-98786879D01*
X174375873Y-98790265D01*
X174228803Y-98821288D01*
X174088111Y-98880480D01*
X173957873Y-98968369D01*
X173917586Y-99004042D01*
X173815055Y-99115706D01*
X173740341Y-99233257D01*
X173689090Y-99365020D01*
X173660546Y-99495507D01*
X173653500Y-99642216D01*
X173676996Y-99789653D01*
X173728649Y-99932834D01*
X173806071Y-100066777D01*
X173906875Y-100186498D01*
X174028676Y-100287014D01*
X174044684Y-100297609D01*
X174095398Y-100332306D01*
X174133950Y-100362370D01*
X174152381Y-100381565D01*
X174152649Y-100382172D01*
X174148692Y-100402936D01*
X174133007Y-100450062D01*
X174107222Y-100519673D01*
X174072969Y-100607893D01*
X174031877Y-100710844D01*
X173985576Y-100824650D01*
X173935696Y-100945435D01*
X173883867Y-101069321D01*
X173831719Y-101192432D01*
X173780882Y-101310891D01*
X173732987Y-101420823D01*
X173689662Y-101518349D01*
X173652538Y-101599593D01*
X173623244Y-101660679D01*
X173603412Y-101697730D01*
X173595426Y-101707460D01*
X173571021Y-101699883D01*
X173525358Y-101679560D01*
X173466310Y-101650125D01*
X173433840Y-101632916D01*
X173295947Y-101558359D01*
X173131677Y-101669469D01*
X173047821Y-101726390D01*
X172956013Y-101789030D01*
X172869980Y-101848011D01*
X172826887Y-101877711D01*
X172766277Y-101918410D01*
X172714955Y-101950663D01*
X172679615Y-101970384D01*
X172668137Y-101974554D01*
X172651430Y-101963307D01*
X172614454Y-101931911D01*
X172560795Y-101883624D01*
X172494038Y-101821708D01*
X172417766Y-101749421D01*
X172369527Y-101703008D01*
X172285133Y-101620087D01*
X172212197Y-101545920D01*
X172153669Y-101483680D01*
X172112497Y-101436541D01*
X172091628Y-101407673D01*
X172089626Y-101401815D01*
X172098917Y-101379532D01*
X172124591Y-101334477D01*
X172163800Y-101271211D01*
X172213697Y-101194295D01*
X172271433Y-101108292D01*
X172287851Y-101084315D01*
X172347677Y-100997170D01*
X172401350Y-100918710D01*
X172445870Y-100853345D01*
X172478235Y-100805484D01*
X172495445Y-100779535D01*
X172497107Y-100776852D01*
X172494621Y-100756172D01*
X172481423Y-100710704D01*
X172459814Y-100646444D01*
X172432096Y-100569387D01*
X172400570Y-100485529D01*
X172367537Y-100400866D01*
X172335299Y-100321392D01*
X172306157Y-100253104D01*
X172282412Y-100201997D01*
X172266365Y-100174067D01*
X172265225Y-100172727D01*
X172255412Y-100164745D01*
X172238839Y-100156851D01*
X172211868Y-100148229D01*
X172170861Y-100138062D01*
X172112180Y-100125531D01*
X172032187Y-100109821D01*
X171927245Y-100090113D01*
X171793715Y-100065592D01*
X171764804Y-100060319D01*
X171679118Y-100043764D01*
X171604418Y-100027569D01*
X171547306Y-100013296D01*
X171514383Y-100002508D01*
X171509969Y-99999993D01*
X171502694Y-99977696D01*
X171496781Y-99927869D01*
X171492234Y-99856304D01*
X171489055Y-99768793D01*
X171487251Y-99671128D01*
X171486823Y-99569101D01*
X171487777Y-99468503D01*
X171490116Y-99375127D01*
X171493844Y-99294765D01*
X171498966Y-99233209D01*
X171505484Y-99196250D01*
X171509414Y-99188686D01*
X171531292Y-99181056D01*
X171581109Y-99168642D01*
X171653903Y-99152522D01*
X171744711Y-99133773D01*
X171848569Y-99113471D01*
X171905154Y-99102830D01*
X172012514Y-99082760D01*
X172108254Y-99064580D01*
X172187694Y-99049199D01*
X172246154Y-99037531D01*
X172278955Y-99030488D01*
X172284354Y-99028926D01*
X172293478Y-99011322D01*
X172312765Y-98968918D01*
X172339645Y-98907772D01*
X172371546Y-98833943D01*
X172405898Y-98753489D01*
X172440129Y-98672468D01*
X172471669Y-98596937D01*
X172497946Y-98532955D01*
X172516389Y-98486580D01*
X172524429Y-98463869D01*
X172524578Y-98462876D01*
X172515465Y-98444961D01*
X172489914Y-98403733D01*
X172450612Y-98343291D01*
X172400243Y-98267731D01*
X172341494Y-98181152D01*
X172307342Y-98131421D01*
X172245110Y-98040236D01*
X172189836Y-97957449D01*
X172144218Y-97887249D01*
X172110952Y-97833824D01*
X172092736Y-97801361D01*
X172090105Y-97794083D01*
X172101414Y-97777145D01*
X172132681Y-97740978D01*
X172179910Y-97689635D01*
X172239108Y-97627167D01*
X172306281Y-97557626D01*
X172377434Y-97485065D01*
X172448574Y-97413535D01*
X172515707Y-97347087D01*
X172574839Y-97289774D01*
X172621975Y-97245647D01*
X172653123Y-97218759D01*
X172663543Y-97212342D01*
X172680509Y-97221365D01*
X172721089Y-97246715D01*
X172781337Y-97285810D01*
X172857307Y-97336071D01*
X172945054Y-97394917D01*
X173011244Y-97439748D01*
X173345668Y-97667154D01*
X173624433Y-97552238D01*
X173903197Y-97437322D01*
X173978746Y-97036576D01*
X174054294Y-96635829D01*
X174888415Y-96635829D01*
X174963964Y-97036576D01*
G37*
X174963964Y-97036576D02*
X175039513Y-97437322D01*
X175597041Y-97667154D01*
X175931465Y-97439748D01*
X176025122Y-97376431D01*
X176109782Y-97319896D01*
X176181495Y-97272727D01*
X176236311Y-97237502D01*
X176270280Y-97216805D01*
X176279530Y-97212342D01*
X176296195Y-97223820D01*
X176331806Y-97255551D01*
X176382371Y-97303483D01*
X176443900Y-97363562D01*
X176512399Y-97431733D01*
X176583879Y-97503945D01*
X176654347Y-97576142D01*
X176719811Y-97644273D01*
X176776280Y-97704283D01*
X176819763Y-97752119D01*
X176846268Y-97783727D01*
X176852605Y-97794305D01*
X176843486Y-97813806D01*
X176817920Y-97856531D01*
X176778597Y-97918298D01*
X176728203Y-97994931D01*
X176669427Y-98082248D01*
X176635368Y-98132052D01*
X176573289Y-98222993D01*
X176518126Y-98305059D01*
X176472554Y-98374163D01*
X176439250Y-98426222D01*
X176420890Y-98457150D01*
X176418131Y-98463650D01*
X176424385Y-98482121D01*
X176441434Y-98525172D01*
X176466703Y-98586749D01*
X176497622Y-98660799D01*
X176531618Y-98741270D01*
X176566118Y-98822107D01*
X176598551Y-98897258D01*
X176626343Y-98960671D01*
X176646923Y-99006293D01*
X176657719Y-99028069D01*
X176658356Y-99028926D01*
X176675307Y-99033084D01*
X176720451Y-99042361D01*
X176789110Y-99055844D01*
X176876602Y-99072621D01*
X176978250Y-99091781D01*
X177037556Y-99102830D01*
X177146172Y-99123510D01*
X177244277Y-99143189D01*
X177326909Y-99160789D01*
X177389104Y-99175233D01*
X177425899Y-99185446D01*
X177433296Y-99188686D01*
X177440540Y-99210617D01*
X177446385Y-99260147D01*
X177450835Y-99331485D01*
X177453893Y-99418839D01*
X177455565Y-99516417D01*
X177455853Y-99618426D01*
X177454761Y-99719075D01*
X177452294Y-99812572D01*
X177448456Y-99893125D01*
X177443250Y-99954942D01*
X177436681Y-99992230D01*
X177432741Y-99999993D01*
X177409188Y-100009298D01*
X177359282Y-100022600D01*
X177289623Y-100038337D01*
X177206813Y-100054946D01*
X177177905Y-100060319D01*
X177038531Y-100085848D01*
X176928436Y-100106408D01*
X176843982Y-100122815D01*
X176781530Y-100135887D01*
X176737444Y-100146441D01*
X176708085Y-100155294D01*
X176689815Y-100163263D01*
X176678998Y-100171165D01*
X176677485Y-100172727D01*
X176662377Y-100197886D01*
X176639329Y-100246850D01*
X176610644Y-100313621D01*
X176578622Y-100392205D01*
X176545565Y-100476607D01*
X176513773Y-100560830D01*
X176485549Y-100638879D01*
X176463193Y-100704759D01*
X176449007Y-100752473D01*
X176445293Y-100776027D01*
X176445602Y-100776852D01*
X176458189Y-100796104D01*
X176486744Y-100838463D01*
X176528267Y-100899521D01*
X176579756Y-100974868D01*
X176638211Y-101060096D01*
X176654858Y-101084315D01*
X176714215Y-101172123D01*
X176766447Y-101252238D01*
X176808708Y-101320062D01*
X176838153Y-101370993D01*
X176851937Y-101400431D01*
X176852605Y-101404048D01*
X176841024Y-101423057D01*
X176809024Y-101460714D01*
X176760718Y-101512973D01*
X176700220Y-101575786D01*
X176631644Y-101645106D01*
X176559104Y-101716885D01*
X176486712Y-101787077D01*
X176418584Y-101851635D01*
X176358832Y-101906510D01*
X176311571Y-101947656D01*
X176280913Y-101971026D01*
X176272432Y-101974842D01*
X176252691Y-101965855D01*
X176212274Y-101941616D01*
X176157763Y-101906209D01*
X176115823Y-101877711D01*
X176039829Y-101825418D01*
X175949834Y-101763845D01*
X175859564Y-101702370D01*
X175811032Y-101669469D01*
X175646762Y-101558359D01*
X175508869Y-101632916D01*
X175446049Y-101665578D01*
X175392629Y-101690966D01*
X175356484Y-101705446D01*
X175347284Y-101707460D01*
X175336221Y-101692584D01*
X175314394Y-101650547D01*
X175283434Y-101585227D01*
X175244970Y-101500500D01*
X175200632Y-101400245D01*
X175152047Y-101288339D01*
X175100846Y-101168659D01*
X175048659Y-101045084D01*
X174997113Y-100921491D01*
X174947840Y-100801757D01*
X174902467Y-100689759D01*
X174862625Y-100589377D01*
X174829942Y-100504486D01*
X174806049Y-100438965D01*
X174792574Y-100396690D01*
X174790406Y-100382172D01*
X174807583Y-100363653D01*
X174845190Y-100333590D01*
X174895366Y-100298232D01*
X174899578Y-100295434D01*
X175029264Y-100191625D01*
X175133834Y-100070515D01*
X175212381Y-99935976D01*
X175263999Y-99791882D01*
X175287782Y-99642105D01*
X175282823Y-99490517D01*
X175248217Y-99340992D01*
X175183057Y-99197400D01*
X175163886Y-99165984D01*
X175064174Y-99039125D01*
X174946377Y-98937255D01*
X174814571Y-98860904D01*
X174672833Y-98810602D01*
X174525242Y-98786879D01*
X174375873Y-98790265D01*
X174228803Y-98821288D01*
X174088111Y-98880480D01*
X173957873Y-98968369D01*
X173917586Y-99004042D01*
X173815055Y-99115706D01*
X173740341Y-99233257D01*
X173689090Y-99365020D01*
X173660546Y-99495507D01*
X173653500Y-99642216D01*
X173676996Y-99789653D01*
X173728649Y-99932834D01*
X173806071Y-100066777D01*
X173906875Y-100186498D01*
X174028676Y-100287014D01*
X174044684Y-100297609D01*
X174095398Y-100332306D01*
X174133950Y-100362370D01*
X174152381Y-100381565D01*
X174152649Y-100382172D01*
X174148692Y-100402936D01*
X174133007Y-100450062D01*
X174107222Y-100519673D01*
X174072969Y-100607893D01*
X174031877Y-100710844D01*
X173985576Y-100824650D01*
X173935696Y-100945435D01*
X173883867Y-101069321D01*
X173831719Y-101192432D01*
X173780882Y-101310891D01*
X173732987Y-101420823D01*
X173689662Y-101518349D01*
X173652538Y-101599593D01*
X173623244Y-101660679D01*
X173603412Y-101697730D01*
X173595426Y-101707460D01*
X173571021Y-101699883D01*
X173525358Y-101679560D01*
X173466310Y-101650125D01*
X173433840Y-101632916D01*
X173295947Y-101558359D01*
X173131677Y-101669469D01*
X173047821Y-101726390D01*
X172956013Y-101789030D01*
X172869980Y-101848011D01*
X172826887Y-101877711D01*
X172766277Y-101918410D01*
X172714955Y-101950663D01*
X172679615Y-101970384D01*
X172668137Y-101974554D01*
X172651430Y-101963307D01*
X172614454Y-101931911D01*
X172560795Y-101883624D01*
X172494038Y-101821708D01*
X172417766Y-101749421D01*
X172369527Y-101703008D01*
X172285133Y-101620087D01*
X172212197Y-101545920D01*
X172153669Y-101483680D01*
X172112497Y-101436541D01*
X172091628Y-101407673D01*
X172089626Y-101401815D01*
X172098917Y-101379532D01*
X172124591Y-101334477D01*
X172163800Y-101271211D01*
X172213697Y-101194295D01*
X172271433Y-101108292D01*
X172287851Y-101084315D01*
X172347677Y-100997170D01*
X172401350Y-100918710D01*
X172445870Y-100853345D01*
X172478235Y-100805484D01*
X172495445Y-100779535D01*
X172497107Y-100776852D01*
X172494621Y-100756172D01*
X172481423Y-100710704D01*
X172459814Y-100646444D01*
X172432096Y-100569387D01*
X172400570Y-100485529D01*
X172367537Y-100400866D01*
X172335299Y-100321392D01*
X172306157Y-100253104D01*
X172282412Y-100201997D01*
X172266365Y-100174067D01*
X172265225Y-100172727D01*
X172255412Y-100164745D01*
X172238839Y-100156851D01*
X172211868Y-100148229D01*
X172170861Y-100138062D01*
X172112180Y-100125531D01*
X172032187Y-100109821D01*
X171927245Y-100090113D01*
X171793715Y-100065592D01*
X171764804Y-100060319D01*
X171679118Y-100043764D01*
X171604418Y-100027569D01*
X171547306Y-100013296D01*
X171514383Y-100002508D01*
X171509969Y-99999993D01*
X171502694Y-99977696D01*
X171496781Y-99927869D01*
X171492234Y-99856304D01*
X171489055Y-99768793D01*
X171487251Y-99671128D01*
X171486823Y-99569101D01*
X171487777Y-99468503D01*
X171490116Y-99375127D01*
X171493844Y-99294765D01*
X171498966Y-99233209D01*
X171505484Y-99196250D01*
X171509414Y-99188686D01*
X171531292Y-99181056D01*
X171581109Y-99168642D01*
X171653903Y-99152522D01*
X171744711Y-99133773D01*
X171848569Y-99113471D01*
X171905154Y-99102830D01*
X172012514Y-99082760D01*
X172108254Y-99064580D01*
X172187694Y-99049199D01*
X172246154Y-99037531D01*
X172278955Y-99030488D01*
X172284354Y-99028926D01*
X172293478Y-99011322D01*
X172312765Y-98968918D01*
X172339645Y-98907772D01*
X172371546Y-98833943D01*
X172405898Y-98753489D01*
X172440129Y-98672468D01*
X172471669Y-98596937D01*
X172497946Y-98532955D01*
X172516389Y-98486580D01*
X172524429Y-98463869D01*
X172524578Y-98462876D01*
X172515465Y-98444961D01*
X172489914Y-98403733D01*
X172450612Y-98343291D01*
X172400243Y-98267731D01*
X172341494Y-98181152D01*
X172307342Y-98131421D01*
X172245110Y-98040236D01*
X172189836Y-97957449D01*
X172144218Y-97887249D01*
X172110952Y-97833824D01*
X172092736Y-97801361D01*
X172090105Y-97794083D01*
X172101414Y-97777145D01*
X172132681Y-97740978D01*
X172179910Y-97689635D01*
X172239108Y-97627167D01*
X172306281Y-97557626D01*
X172377434Y-97485065D01*
X172448574Y-97413535D01*
X172515707Y-97347087D01*
X172574839Y-97289774D01*
X172621975Y-97245647D01*
X172653123Y-97218759D01*
X172663543Y-97212342D01*
X172680509Y-97221365D01*
X172721089Y-97246715D01*
X172781337Y-97285810D01*
X172857307Y-97336071D01*
X172945054Y-97394917D01*
X173011244Y-97439748D01*
X173345668Y-97667154D01*
X173624433Y-97552238D01*
X173903197Y-97437322D01*
X173978746Y-97036576D01*
X174054294Y-96635829D01*
X174888415Y-96635829D01*
X174963964Y-97036576D01*
G36*
X176854388Y-102575645D02*
G01*
X176911865Y-102593206D01*
X176948872Y-102615395D01*
X176960927Y-102632942D01*
X176957609Y-102653742D01*
X176936079Y-102686419D01*
X176917874Y-102709562D01*
X176880344Y-102751402D01*
X176852148Y-102769005D01*
X176828111Y-102767856D01*
X176756808Y-102749710D01*
X176704442Y-102750534D01*
X176661918Y-102771098D01*
X176647642Y-102783134D01*
X176601947Y-102825483D01*
X176601947Y-103378526D01*
X176418131Y-103378526D01*
X176418131Y-102576421D01*
X176510039Y-102576421D01*
X176565219Y-102578603D01*
X176593688Y-102586351D01*
X176601943Y-102601468D01*
X176601947Y-102601916D01*
X176605845Y-102617749D01*
X176623474Y-102615684D01*
X176647901Y-102604261D01*
X176698350Y-102583005D01*
X176739316Y-102570216D01*
X176792028Y-102566938D01*
X176854388Y-102575645D01*
G37*
X176854388Y-102575645D02*
X176911865Y-102593206D01*
X176948872Y-102615395D01*
X176960927Y-102632942D01*
X176957609Y-102653742D01*
X176936079Y-102686419D01*
X176917874Y-102709562D01*
X176880344Y-102751402D01*
X176852148Y-102769005D01*
X176828111Y-102767856D01*
X176756808Y-102749710D01*
X176704442Y-102750534D01*
X176661918Y-102771098D01*
X176647642Y-102783134D01*
X176601947Y-102825483D01*
X176601947Y-103378526D01*
X176418131Y-103378526D01*
X176418131Y-102576421D01*
X176510039Y-102576421D01*
X176565219Y-102578603D01*
X176593688Y-102586351D01*
X176601943Y-102601468D01*
X176601947Y-102601916D01*
X176605845Y-102617749D01*
X176623474Y-102615684D01*
X176647901Y-102604261D01*
X176698350Y-102583005D01*
X176739316Y-102570216D01*
X176792028Y-102566938D01*
X176854388Y-102575645D01*
G36*
X173460957Y-102590226D02*
G01*
X173502546Y-102610090D01*
X173542825Y-102638784D01*
X173573510Y-102671809D01*
X173595861Y-102713931D01*
X173611136Y-102769915D01*
X173620592Y-102844528D01*
X173625487Y-102942535D01*
X173627081Y-103068702D01*
X173627106Y-103081914D01*
X173627473Y-103378526D01*
X173443657Y-103378526D01*
X173443657Y-103105081D01*
X173443527Y-103003777D01*
X173442621Y-102930353D01*
X173440173Y-102879271D01*
X173435414Y-102844990D01*
X173427574Y-102821971D01*
X173415885Y-102804673D01*
X173399602Y-102787581D01*
X173342634Y-102750857D01*
X173280445Y-102744042D01*
X173221199Y-102767261D01*
X173200595Y-102784543D01*
X173185470Y-102800791D01*
X173174610Y-102818191D01*
X173167310Y-102842212D01*
X173162863Y-102878322D01*
X173160564Y-102931988D01*
X173159704Y-103008680D01*
X173159578Y-103102043D01*
X173159578Y-103378526D01*
X172975763Y-103378526D01*
X172975763Y-102576421D01*
X173067671Y-102576421D01*
X173122851Y-102578603D01*
X173151320Y-102586351D01*
X173159575Y-102601468D01*
X173159578Y-102601916D01*
X173163408Y-102616720D01*
X173180301Y-102615040D01*
X173213888Y-102598773D01*
X173290063Y-102574840D01*
X173377200Y-102572178D01*
X173460957Y-102590226D01*
G37*
X173460957Y-102590226D02*
X173502546Y-102610090D01*
X173542825Y-102638784D01*
X173573510Y-102671809D01*
X173595861Y-102713931D01*
X173611136Y-102769915D01*
X173620592Y-102844528D01*
X173625487Y-102942535D01*
X173627081Y-103068702D01*
X173627106Y-103081914D01*
X173627473Y-103378526D01*
X173443657Y-103378526D01*
X173443657Y-103105081D01*
X173443527Y-103003777D01*
X173442621Y-102930353D01*
X173440173Y-102879271D01*
X173435414Y-102844990D01*
X173427574Y-102821971D01*
X173415885Y-102804673D01*
X173399602Y-102787581D01*
X173342634Y-102750857D01*
X173280445Y-102744042D01*
X173221199Y-102767261D01*
X173200595Y-102784543D01*
X173185470Y-102800791D01*
X173174610Y-102818191D01*
X173167310Y-102842212D01*
X173162863Y-102878322D01*
X173160564Y-102931988D01*
X173159704Y-103008680D01*
X173159578Y-103102043D01*
X173159578Y-103378526D01*
X172975763Y-103378526D01*
X172975763Y-102576421D01*
X173067671Y-102576421D01*
X173122851Y-102578603D01*
X173151320Y-102586351D01*
X173159575Y-102601468D01*
X173159578Y-102601916D01*
X173163408Y-102616720D01*
X173180301Y-102615040D01*
X173213888Y-102598773D01*
X173290063Y-102574840D01*
X173377200Y-102572178D01*
X173460957Y-102590226D01*
G36*
X178021784Y-102573554D02*
G01*
X178064574Y-102583949D01*
X178146609Y-102622013D01*
X178216757Y-102680149D01*
X178265305Y-102749852D01*
X178271975Y-102765502D01*
X178281124Y-102806496D01*
X178287529Y-102867138D01*
X178289710Y-102928430D01*
X178289710Y-103044316D01*
X178047407Y-103044316D01*
X177947471Y-103044693D01*
X177877069Y-103046987D01*
X177832313Y-103052938D01*
X177809315Y-103064285D01*
X177804189Y-103082771D01*
X177813048Y-103110136D01*
X177828917Y-103142155D01*
X177873184Y-103195592D01*
X177934699Y-103222215D01*
X178009885Y-103221347D01*
X178095053Y-103192371D01*
X178168659Y-103156611D01*
X178229734Y-103204904D01*
X178290810Y-103253197D01*
X178233351Y-103306285D01*
X178156641Y-103356445D01*
X178062302Y-103386688D01*
X177960827Y-103395151D01*
X177862711Y-103379974D01*
X177846881Y-103374824D01*
X177760647Y-103329791D01*
X177696501Y-103262652D01*
X177653091Y-103171405D01*
X177629064Y-103054044D01*
X177628784Y-103051529D01*
X177626633Y-102923627D01*
X177635329Y-102877997D01*
X177805105Y-102877997D01*
X177820697Y-102885013D01*
X177863029Y-102890388D01*
X177925434Y-102893457D01*
X177964981Y-102893921D01*
X178038728Y-102893630D01*
X178084840Y-102891783D01*
X178109100Y-102886912D01*
X178117294Y-102877555D01*
X178115206Y-102862245D01*
X178113455Y-102856322D01*
X178083560Y-102800668D01*
X178036542Y-102755815D01*
X177995049Y-102736105D01*
X177939926Y-102737295D01*
X177884068Y-102761875D01*
X177837212Y-102802570D01*
X177809094Y-102852108D01*
X177805105Y-102877997D01*
X177635329Y-102877997D01*
X177648074Y-102811133D01*
X177690611Y-102716727D01*
X177751747Y-102643088D01*
X177828985Y-102592893D01*
X177919830Y-102568822D01*
X178021784Y-102573554D01*
G37*
X178021784Y-102573554D02*
X178064574Y-102583949D01*
X178146609Y-102622013D01*
X178216757Y-102680149D01*
X178265305Y-102749852D01*
X178271975Y-102765502D01*
X178281124Y-102806496D01*
X178287529Y-102867138D01*
X178289710Y-102928430D01*
X178289710Y-103044316D01*
X178047407Y-103044316D01*
X177947471Y-103044693D01*
X177877069Y-103046987D01*
X177832313Y-103052938D01*
X177809315Y-103064285D01*
X177804189Y-103082771D01*
X177813048Y-103110136D01*
X177828917Y-103142155D01*
X177873184Y-103195592D01*
X177934699Y-103222215D01*
X178009885Y-103221347D01*
X178095053Y-103192371D01*
X178168659Y-103156611D01*
X178229734Y-103204904D01*
X178290810Y-103253197D01*
X178233351Y-103306285D01*
X178156641Y-103356445D01*
X178062302Y-103386688D01*
X177960827Y-103395151D01*
X177862711Y-103379974D01*
X177846881Y-103374824D01*
X177760647Y-103329791D01*
X177696501Y-103262652D01*
X177653091Y-103171405D01*
X177629064Y-103054044D01*
X177628784Y-103051529D01*
X177626633Y-102923627D01*
X177635329Y-102877997D01*
X177805105Y-102877997D01*
X177820697Y-102885013D01*
X177863029Y-102890388D01*
X177925434Y-102893457D01*
X177964981Y-102893921D01*
X178038728Y-102893630D01*
X178084840Y-102891783D01*
X178109100Y-102886912D01*
X178117294Y-102877555D01*
X178115206Y-102862245D01*
X178113455Y-102856322D01*
X178083560Y-102800668D01*
X178036542Y-102755815D01*
X177995049Y-102736105D01*
X177939926Y-102737295D01*
X177884068Y-102761875D01*
X177837212Y-102802570D01*
X177809094Y-102852108D01*
X177805105Y-102877997D01*
X177635329Y-102877997D01*
X177648074Y-102811133D01*
X177690611Y-102716727D01*
X177751747Y-102643088D01*
X177828985Y-102592893D01*
X177919830Y-102568822D01*
X178021784Y-102573554D01*
G36*
X177409576Y-102583419D02*
G01*
X177506395Y-102624549D01*
X177536890Y-102644571D01*
X177575865Y-102675340D01*
X177600331Y-102699533D01*
X177604578Y-102707413D01*
X177592584Y-102724899D01*
X177561887Y-102754570D01*
X177537312Y-102775279D01*
X177470046Y-102829336D01*
X177416930Y-102784642D01*
X177375884Y-102755789D01*
X177335863Y-102745829D01*
X177290059Y-102748261D01*
X177217324Y-102766345D01*
X177167256Y-102803881D01*
X177136829Y-102864562D01*
X177123017Y-102952081D01*
X177123013Y-102952136D01*
X177124208Y-103049958D01*
X177142772Y-103121730D01*
X177179804Y-103170595D01*
X177205050Y-103187143D01*
X177272097Y-103207749D01*
X177343709Y-103207762D01*
X177406015Y-103187768D01*
X177420763Y-103178000D01*
X177457750Y-103153047D01*
X177486668Y-103148958D01*
X177517856Y-103167530D01*
X177552336Y-103200887D01*
X177606912Y-103257196D01*
X177546318Y-103307142D01*
X177452698Y-103363513D01*
X177347125Y-103391293D01*
X177236798Y-103389282D01*
X177164343Y-103370862D01*
X177079656Y-103325310D01*
X177011927Y-103253650D01*
X176981157Y-103203066D01*
X176956236Y-103130488D01*
X176943766Y-103038569D01*
X176943670Y-102938948D01*
X176955870Y-102843267D01*
X176980290Y-102763169D01*
X176984136Y-102754956D01*
X177041093Y-102674413D01*
X177118209Y-102615771D01*
X177209390Y-102580247D01*
X177308543Y-102569057D01*
X177409576Y-102583419D01*
G37*
X177409576Y-102583419D02*
X177506395Y-102624549D01*
X177536890Y-102644571D01*
X177575865Y-102675340D01*
X177600331Y-102699533D01*
X177604578Y-102707413D01*
X177592584Y-102724899D01*
X177561887Y-102754570D01*
X177537312Y-102775279D01*
X177470046Y-102829336D01*
X177416930Y-102784642D01*
X177375884Y-102755789D01*
X177335863Y-102745829D01*
X177290059Y-102748261D01*
X177217324Y-102766345D01*
X177167256Y-102803881D01*
X177136829Y-102864562D01*
X177123017Y-102952081D01*
X177123013Y-102952136D01*
X177124208Y-103049958D01*
X177142772Y-103121730D01*
X177179804Y-103170595D01*
X177205050Y-103187143D01*
X177272097Y-103207749D01*
X177343709Y-103207762D01*
X177406015Y-103187768D01*
X177420763Y-103178000D01*
X177457750Y-103153047D01*
X177486668Y-103148958D01*
X177517856Y-103167530D01*
X177552336Y-103200887D01*
X177606912Y-103257196D01*
X177546318Y-103307142D01*
X177452698Y-103363513D01*
X177347125Y-103391293D01*
X177236798Y-103389282D01*
X177164343Y-103370862D01*
X177079656Y-103325310D01*
X177011927Y-103253650D01*
X176981157Y-103203066D01*
X176956236Y-103130488D01*
X176943766Y-103038569D01*
X176943670Y-102938948D01*
X176955870Y-102843267D01*
X176980290Y-102763169D01*
X176984136Y-102754956D01*
X177041093Y-102674413D01*
X177118209Y-102615771D01*
X177209390Y-102580247D01*
X177308543Y-102569057D01*
X177409576Y-102583419D01*
G36*
X175783131Y-102836533D02*
G01*
X175784710Y-102959089D01*
X175790481Y-103052179D01*
X175801991Y-103119651D01*
X175820790Y-103165355D01*
X175848426Y-103193139D01*
X175886448Y-103206854D01*
X175933526Y-103210358D01*
X175982832Y-103206432D01*
X176020283Y-103192089D01*
X176047428Y-103163478D01*
X176065815Y-103116751D01*
X176076993Y-103048058D01*
X176082511Y-102953550D01*
X176083921Y-102836533D01*
X176083921Y-102576421D01*
X176267736Y-102576421D01*
X176267736Y-103378526D01*
X176175828Y-103378526D01*
X176120422Y-103376281D01*
X176091891Y-103368396D01*
X176083921Y-103353428D01*
X176079120Y-103340097D01*
X176060014Y-103342917D01*
X176021504Y-103361783D01*
X175933239Y-103390887D01*
X175839623Y-103388825D01*
X175749921Y-103357221D01*
X175707204Y-103332257D01*
X175674621Y-103305226D01*
X175650817Y-103271405D01*
X175634439Y-103226068D01*
X175624131Y-103164489D01*
X175618541Y-103081943D01*
X175616312Y-102973705D01*
X175616026Y-102890004D01*
X175616026Y-102576421D01*
X175783131Y-102576421D01*
X175783131Y-102836533D01*
G37*
X175783131Y-102836533D02*
X175784710Y-102959089D01*
X175790481Y-103052179D01*
X175801991Y-103119651D01*
X175820790Y-103165355D01*
X175848426Y-103193139D01*
X175886448Y-103206854D01*
X175933526Y-103210358D01*
X175982832Y-103206432D01*
X176020283Y-103192089D01*
X176047428Y-103163478D01*
X176065815Y-103116751D01*
X176076993Y-103048058D01*
X176082511Y-102953550D01*
X176083921Y-102836533D01*
X176083921Y-102576421D01*
X176267736Y-102576421D01*
X176267736Y-103378526D01*
X176175828Y-103378526D01*
X176120422Y-103376281D01*
X176091891Y-103368396D01*
X176083921Y-103353428D01*
X176079120Y-103340097D01*
X176060014Y-103342917D01*
X176021504Y-103361783D01*
X175933239Y-103390887D01*
X175839623Y-103388825D01*
X175749921Y-103357221D01*
X175707204Y-103332257D01*
X175674621Y-103305226D01*
X175650817Y-103271405D01*
X175634439Y-103226068D01*
X175624131Y-103164489D01*
X175618541Y-103081943D01*
X175616312Y-102973705D01*
X175616026Y-102890004D01*
X175616026Y-102576421D01*
X175783131Y-102576421D01*
X175783131Y-102836533D01*
G36*
X175274669Y-102586310D02*
G01*
X175359192Y-102632340D01*
X175425321Y-102705006D01*
X175456478Y-102764106D01*
X175469855Y-102816305D01*
X175478522Y-102890719D01*
X175482237Y-102976442D01*
X175480754Y-103062569D01*
X175473831Y-103138193D01*
X175465745Y-103178584D01*
X175438465Y-103233840D01*
X175391220Y-103292530D01*
X175334282Y-103343852D01*
X175277924Y-103377005D01*
X175276550Y-103377531D01*
X175206616Y-103392018D01*
X175123737Y-103392377D01*
X175044977Y-103379188D01*
X175014566Y-103368617D01*
X174936239Y-103324201D01*
X174880143Y-103266007D01*
X174843286Y-103188965D01*
X174822680Y-103088001D01*
X174818018Y-103035116D01*
X174818613Y-102968663D01*
X174997736Y-102968663D01*
X175003770Y-103065630D01*
X175021138Y-103139523D01*
X175048740Y-103186736D01*
X175068404Y-103200237D01*
X175118787Y-103209651D01*
X175178673Y-103206864D01*
X175230449Y-103193316D01*
X175244027Y-103185862D01*
X175279849Y-103142451D01*
X175303493Y-103076014D01*
X175313558Y-102995161D01*
X175308642Y-102908502D01*
X175297655Y-102856349D01*
X175266109Y-102795951D01*
X175216311Y-102758197D01*
X175156337Y-102745143D01*
X175094264Y-102758849D01*
X175046582Y-102792372D01*
X175021525Y-102820031D01*
X175006900Y-102847294D01*
X174999929Y-102884190D01*
X174997833Y-102940750D01*
X174997736Y-102968663D01*
X174818613Y-102968663D01*
X174819282Y-102893994D01*
X174842265Y-102778271D01*
X174886972Y-102687941D01*
X174953405Y-102623000D01*
X175041565Y-102583445D01*
X175060495Y-102578858D01*
X175174266Y-102568090D01*
X175274669Y-102586310D01*
G37*
X175274669Y-102586310D02*
X175359192Y-102632340D01*
X175425321Y-102705006D01*
X175456478Y-102764106D01*
X175469855Y-102816305D01*
X175478522Y-102890719D01*
X175482237Y-102976442D01*
X175480754Y-103062569D01*
X175473831Y-103138193D01*
X175465745Y-103178584D01*
X175438465Y-103233840D01*
X175391220Y-103292530D01*
X175334282Y-103343852D01*
X175277924Y-103377005D01*
X175276550Y-103377531D01*
X175206616Y-103392018D01*
X175123737Y-103392377D01*
X175044977Y-103379188D01*
X175014566Y-103368617D01*
X174936239Y-103324201D01*
X174880143Y-103266007D01*
X174843286Y-103188965D01*
X174822680Y-103088001D01*
X174818018Y-103035116D01*
X174818613Y-102968663D01*
X174997736Y-102968663D01*
X175003770Y-103065630D01*
X175021138Y-103139523D01*
X175048740Y-103186736D01*
X175068404Y-103200237D01*
X175118787Y-103209651D01*
X175178673Y-103206864D01*
X175230449Y-103193316D01*
X175244027Y-103185862D01*
X175279849Y-103142451D01*
X175303493Y-103076014D01*
X175313558Y-102995161D01*
X175308642Y-102908502D01*
X175297655Y-102856349D01*
X175266109Y-102795951D01*
X175216311Y-102758197D01*
X175156337Y-102745143D01*
X175094264Y-102758849D01*
X175046582Y-102792372D01*
X175021525Y-102820031D01*
X175006900Y-102847294D01*
X174999929Y-102884190D01*
X174997833Y-102940750D01*
X174997736Y-102968663D01*
X174818613Y-102968663D01*
X174819282Y-102893994D01*
X174842265Y-102778271D01*
X174886972Y-102687941D01*
X174953405Y-102623000D01*
X175041565Y-102583445D01*
X175060495Y-102578858D01*
X175174266Y-102568090D01*
X175274669Y-102586310D01*
G36*
X174481628Y-102573547D02*
G01*
X174544908Y-102585548D01*
X174610557Y-102610648D01*
X174617572Y-102613848D01*
X174667356Y-102640026D01*
X174701834Y-102664353D01*
X174712978Y-102679937D01*
X174702366Y-102705353D01*
X174676588Y-102742853D01*
X174665146Y-102756852D01*
X174617992Y-102811954D01*
X174557201Y-102776086D01*
X174499347Y-102752192D01*
X174432500Y-102739420D01*
X174368394Y-102738613D01*
X174318764Y-102750615D01*
X174306854Y-102758105D01*
X174284172Y-102792450D01*
X174281416Y-102832013D01*
X174298388Y-102862920D01*
X174308427Y-102868913D01*
X174338510Y-102876357D01*
X174391389Y-102885106D01*
X174456575Y-102893467D01*
X174468600Y-102894778D01*
X174573297Y-102912888D01*
X174649232Y-102943651D01*
X174699592Y-102989907D01*
X174727564Y-103054497D01*
X174736278Y-103133387D01*
X174724240Y-103223065D01*
X174685151Y-103293486D01*
X174618855Y-103344777D01*
X174525194Y-103377067D01*
X174421223Y-103389807D01*
X174336438Y-103389654D01*
X174267665Y-103378083D01*
X174220697Y-103362109D01*
X174161350Y-103334275D01*
X174106506Y-103301973D01*
X174087013Y-103287755D01*
X174036881Y-103246835D01*
X174157803Y-103124477D01*
X174226543Y-103169967D01*
X174295488Y-103204133D01*
X174369111Y-103222004D01*
X174439883Y-103223889D01*
X174500274Y-103210101D01*
X174542757Y-103180949D01*
X174556474Y-103156352D01*
X174554417Y-103116904D01*
X174520330Y-103086737D01*
X174454308Y-103065906D01*
X174381974Y-103056279D01*
X174270652Y-103037910D01*
X174187952Y-103003254D01*
X174132765Y-102951297D01*
X174103988Y-102881023D01*
X174100001Y-102797707D01*
X174119693Y-102710681D01*
X174164589Y-102644902D01*
X174235091Y-102600068D01*
X174331601Y-102575879D01*
X174403100Y-102571137D01*
X174481628Y-102573547D01*
G37*
X174481628Y-102573547D02*
X174544908Y-102585548D01*
X174610557Y-102610648D01*
X174617572Y-102613848D01*
X174667356Y-102640026D01*
X174701834Y-102664353D01*
X174712978Y-102679937D01*
X174702366Y-102705353D01*
X174676588Y-102742853D01*
X174665146Y-102756852D01*
X174617992Y-102811954D01*
X174557201Y-102776086D01*
X174499347Y-102752192D01*
X174432500Y-102739420D01*
X174368394Y-102738613D01*
X174318764Y-102750615D01*
X174306854Y-102758105D01*
X174284172Y-102792450D01*
X174281416Y-102832013D01*
X174298388Y-102862920D01*
X174308427Y-102868913D01*
X174338510Y-102876357D01*
X174391389Y-102885106D01*
X174456575Y-102893467D01*
X174468600Y-102894778D01*
X174573297Y-102912888D01*
X174649232Y-102943651D01*
X174699592Y-102989907D01*
X174727564Y-103054497D01*
X174736278Y-103133387D01*
X174724240Y-103223065D01*
X174685151Y-103293486D01*
X174618855Y-103344777D01*
X174525194Y-103377067D01*
X174421223Y-103389807D01*
X174336438Y-103389654D01*
X174267665Y-103378083D01*
X174220697Y-103362109D01*
X174161350Y-103334275D01*
X174106506Y-103301973D01*
X174087013Y-103287755D01*
X174036881Y-103246835D01*
X174157803Y-103124477D01*
X174226543Y-103169967D01*
X174295488Y-103204133D01*
X174369111Y-103222004D01*
X174439883Y-103223889D01*
X174500274Y-103210101D01*
X174542757Y-103180949D01*
X174556474Y-103156352D01*
X174554417Y-103116904D01*
X174520330Y-103086737D01*
X174454308Y-103065906D01*
X174381974Y-103056279D01*
X174270652Y-103037910D01*
X174187952Y-103003254D01*
X174132765Y-102951297D01*
X174103988Y-102881023D01*
X174100001Y-102797707D01*
X174119693Y-102710681D01*
X174164589Y-102644902D01*
X174235091Y-102600068D01*
X174331601Y-102575879D01*
X174403100Y-102571137D01*
X174481628Y-102573547D01*
G36*
X172660018Y-102595027D02*
G01*
X172676670Y-102602866D01*
X172734305Y-102645086D01*
X172788805Y-102706700D01*
X172829499Y-102774543D01*
X172841074Y-102805734D01*
X172851634Y-102861449D01*
X172857931Y-102928781D01*
X172858696Y-102956585D01*
X172858789Y-103044316D01*
X172353850Y-103044316D01*
X172364613Y-103090270D01*
X172391033Y-103144620D01*
X172437222Y-103191591D01*
X172492172Y-103221848D01*
X172527189Y-103228131D01*
X172574677Y-103220506D01*
X172631335Y-103201383D01*
X172650582Y-103192584D01*
X172721759Y-103157036D01*
X172782502Y-103203367D01*
X172817552Y-103234703D01*
X172836202Y-103260567D01*
X172837147Y-103268158D01*
X172820485Y-103286556D01*
X172783970Y-103314515D01*
X172750828Y-103336327D01*
X172661393Y-103375537D01*
X172561129Y-103393285D01*
X172461754Y-103388670D01*
X172382539Y-103364551D01*
X172300880Y-103312884D01*
X172242849Y-103244856D01*
X172206546Y-103156843D01*
X172190072Y-103045216D01*
X172188611Y-102994138D01*
X172194457Y-102877091D01*
X172195175Y-102873686D01*
X172362489Y-102873686D01*
X172367097Y-102884662D01*
X172386036Y-102890715D01*
X172425098Y-102893310D01*
X172490077Y-102893910D01*
X172515097Y-102893921D01*
X172591221Y-102893014D01*
X172639496Y-102889720D01*
X172665460Y-102883181D01*
X172674648Y-102872537D01*
X172674973Y-102869119D01*
X172664487Y-102841956D01*
X172638242Y-102803903D01*
X172626959Y-102790579D01*
X172585072Y-102752896D01*
X172541409Y-102738080D01*
X172517885Y-102736842D01*
X172454243Y-102752329D01*
X172400873Y-102793930D01*
X172367019Y-102854353D01*
X172366419Y-102856322D01*
X172362489Y-102873686D01*
X172195175Y-102873686D01*
X172213899Y-102784928D01*
X172248922Y-102711190D01*
X172291756Y-102658848D01*
X172370948Y-102602092D01*
X172464040Y-102571762D01*
X172563055Y-102569021D01*
X172660018Y-102595027D01*
G37*
X172660018Y-102595027D02*
X172676670Y-102602866D01*
X172734305Y-102645086D01*
X172788805Y-102706700D01*
X172829499Y-102774543D01*
X172841074Y-102805734D01*
X172851634Y-102861449D01*
X172857931Y-102928781D01*
X172858696Y-102956585D01*
X172858789Y-103044316D01*
X172353850Y-103044316D01*
X172364613Y-103090270D01*
X172391033Y-103144620D01*
X172437222Y-103191591D01*
X172492172Y-103221848D01*
X172527189Y-103228131D01*
X172574677Y-103220506D01*
X172631335Y-103201383D01*
X172650582Y-103192584D01*
X172721759Y-103157036D01*
X172782502Y-103203367D01*
X172817552Y-103234703D01*
X172836202Y-103260567D01*
X172837147Y-103268158D01*
X172820485Y-103286556D01*
X172783970Y-103314515D01*
X172750828Y-103336327D01*
X172661393Y-103375537D01*
X172561129Y-103393285D01*
X172461754Y-103388670D01*
X172382539Y-103364551D01*
X172300880Y-103312884D01*
X172242849Y-103244856D01*
X172206546Y-103156843D01*
X172190072Y-103045216D01*
X172188611Y-102994138D01*
X172194457Y-102877091D01*
X172195175Y-102873686D01*
X172362489Y-102873686D01*
X172367097Y-102884662D01*
X172386036Y-102890715D01*
X172425098Y-102893310D01*
X172490077Y-102893910D01*
X172515097Y-102893921D01*
X172591221Y-102893014D01*
X172639496Y-102889720D01*
X172665460Y-102883181D01*
X172674648Y-102872537D01*
X172674973Y-102869119D01*
X172664487Y-102841956D01*
X172638242Y-102803903D01*
X172626959Y-102790579D01*
X172585072Y-102752896D01*
X172541409Y-102738080D01*
X172517885Y-102736842D01*
X172454243Y-102752329D01*
X172400873Y-102793930D01*
X172367019Y-102854353D01*
X172366419Y-102856322D01*
X172362489Y-102873686D01*
X172195175Y-102873686D01*
X172213899Y-102784928D01*
X172248922Y-102711190D01*
X172291756Y-102658848D01*
X172370948Y-102602092D01*
X172464040Y-102571762D01*
X172563055Y-102569021D01*
X172660018Y-102595027D01*
G36*
X171089784Y-102585104D02*
G01*
X171177205Y-102623754D01*
X171243570Y-102688290D01*
X171288976Y-102778812D01*
X171313518Y-102895418D01*
X171315277Y-102913624D01*
X171316656Y-103041984D01*
X171298784Y-103154496D01*
X171262750Y-103245688D01*
X171243455Y-103275022D01*
X171176245Y-103337106D01*
X171090650Y-103377316D01*
X170994890Y-103394003D01*
X170897187Y-103385517D01*
X170822917Y-103359380D01*
X170759047Y-103315335D01*
X170706846Y-103257587D01*
X170705943Y-103256236D01*
X170684744Y-103220593D01*
X170670967Y-103184752D01*
X170662624Y-103139519D01*
X170657727Y-103075701D01*
X170655569Y-103023368D01*
X170654671Y-102975910D01*
X170821743Y-102975910D01*
X170823376Y-103023154D01*
X170829304Y-103086046D01*
X170839761Y-103126407D01*
X170858619Y-103155122D01*
X170876281Y-103171896D01*
X170938894Y-103207016D01*
X171004408Y-103211710D01*
X171065421Y-103186440D01*
X171095928Y-103158124D01*
X171117911Y-103129589D01*
X171130769Y-103102284D01*
X171136412Y-103066750D01*
X171136751Y-103013524D01*
X171135012Y-102964506D01*
X171131271Y-102894482D01*
X171125341Y-102849064D01*
X171114653Y-102819440D01*
X171096639Y-102796797D01*
X171082363Y-102783855D01*
X171022651Y-102749860D01*
X170958234Y-102748165D01*
X170904219Y-102768301D01*
X170858140Y-102810352D01*
X170830689Y-102879428D01*
X170821743Y-102975910D01*
X170654671Y-102975910D01*
X170653599Y-102919299D01*
X170656964Y-102841468D01*
X170667045Y-102782930D01*
X170685226Y-102736737D01*
X170712890Y-102695942D01*
X170723146Y-102683828D01*
X170787278Y-102623474D01*
X170856066Y-102588220D01*
X170940189Y-102573450D01*
X170981209Y-102572243D01*
X171089784Y-102585104D01*
G37*
X171089784Y-102585104D02*
X171177205Y-102623754D01*
X171243570Y-102688290D01*
X171288976Y-102778812D01*
X171313518Y-102895418D01*
X171315277Y-102913624D01*
X171316656Y-103041984D01*
X171298784Y-103154496D01*
X171262750Y-103245688D01*
X171243455Y-103275022D01*
X171176245Y-103337106D01*
X171090650Y-103377316D01*
X170994890Y-103394003D01*
X170897187Y-103385517D01*
X170822917Y-103359380D01*
X170759047Y-103315335D01*
X170706846Y-103257587D01*
X170705943Y-103256236D01*
X170684744Y-103220593D01*
X170670967Y-103184752D01*
X170662624Y-103139519D01*
X170657727Y-103075701D01*
X170655569Y-103023368D01*
X170654671Y-102975910D01*
X170821743Y-102975910D01*
X170823376Y-103023154D01*
X170829304Y-103086046D01*
X170839761Y-103126407D01*
X170858619Y-103155122D01*
X170876281Y-103171896D01*
X170938894Y-103207016D01*
X171004408Y-103211710D01*
X171065421Y-103186440D01*
X171095928Y-103158124D01*
X171117911Y-103129589D01*
X171130769Y-103102284D01*
X171136412Y-103066750D01*
X171136751Y-103013524D01*
X171135012Y-102964506D01*
X171131271Y-102894482D01*
X171125341Y-102849064D01*
X171114653Y-102819440D01*
X171096639Y-102796797D01*
X171082363Y-102783855D01*
X171022651Y-102749860D01*
X170958234Y-102748165D01*
X170904219Y-102768301D01*
X170858140Y-102810352D01*
X170830689Y-102879428D01*
X170821743Y-102975910D01*
X170654671Y-102975910D01*
X170653599Y-102919299D01*
X170656964Y-102841468D01*
X170667045Y-102782930D01*
X170685226Y-102736737D01*
X170712890Y-102695942D01*
X170723146Y-102683828D01*
X170787278Y-102623474D01*
X170856066Y-102588220D01*
X170940189Y-102573450D01*
X170981209Y-102572243D01*
X171089784Y-102585104D01*
G36*
X177164193Y-103834078D02*
G01*
X177244068Y-103854845D01*
X177310962Y-103897705D01*
X177343351Y-103929723D01*
X177396445Y-104005413D01*
X177426873Y-104093216D01*
X177437327Y-104201150D01*
X177437380Y-104209875D01*
X177437473Y-104297605D01*
X176932534Y-104297605D01*
X176943298Y-104343559D01*
X176962732Y-104385178D01*
X176996745Y-104428544D01*
X177003860Y-104435467D01*
X177065003Y-104472935D01*
X177134729Y-104479289D01*
X177214987Y-104454638D01*
X177228592Y-104448000D01*
X177270319Y-104427819D01*
X177298268Y-104416321D01*
X177303145Y-104415258D01*
X177320168Y-104425583D01*
X177352633Y-104450845D01*
X177369114Y-104464650D01*
X177403264Y-104496361D01*
X177414478Y-104517299D01*
X177406695Y-104536560D01*
X177402535Y-104541827D01*
X177374357Y-104564878D01*
X177327862Y-104592892D01*
X177295434Y-104609246D01*
X177203385Y-104638059D01*
X177101476Y-104647395D01*
X177004963Y-104636332D01*
X176977934Y-104628412D01*
X176894276Y-104583581D01*
X176832266Y-104514598D01*
X176791545Y-104420794D01*
X176771755Y-104301498D01*
X176769582Y-104239118D01*
X176775926Y-104148298D01*
X176936157Y-104148298D01*
X176951655Y-104155012D01*
X176993312Y-104160280D01*
X177053876Y-104163389D01*
X177094907Y-104163921D01*
X177168711Y-104163408D01*
X177215293Y-104161006D01*
X177240848Y-104155422D01*
X177251569Y-104145361D01*
X177253657Y-104130763D01*
X177239331Y-104085796D01*
X177203262Y-104041353D01*
X177155815Y-104007242D01*
X177108349Y-103993288D01*
X177043879Y-104005666D01*
X176988070Y-104041452D01*
X176949374Y-104093033D01*
X176936157Y-104148298D01*
X176775926Y-104148298D01*
X176778821Y-104106866D01*
X176807336Y-104001498D01*
X176855729Y-103922178D01*
X176924604Y-103868071D01*
X177014565Y-103838343D01*
X177063300Y-103832618D01*
X177164193Y-103834078D01*
G37*
X177164193Y-103834078D02*
X177244068Y-103854845D01*
X177310962Y-103897705D01*
X177343351Y-103929723D01*
X177396445Y-104005413D01*
X177426873Y-104093216D01*
X177437327Y-104201150D01*
X177437380Y-104209875D01*
X177437473Y-104297605D01*
X176932534Y-104297605D01*
X176943298Y-104343559D01*
X176962732Y-104385178D01*
X176996745Y-104428544D01*
X177003860Y-104435467D01*
X177065003Y-104472935D01*
X177134729Y-104479289D01*
X177214987Y-104454638D01*
X177228592Y-104448000D01*
X177270319Y-104427819D01*
X177298268Y-104416321D01*
X177303145Y-104415258D01*
X177320168Y-104425583D01*
X177352633Y-104450845D01*
X177369114Y-104464650D01*
X177403264Y-104496361D01*
X177414478Y-104517299D01*
X177406695Y-104536560D01*
X177402535Y-104541827D01*
X177374357Y-104564878D01*
X177327862Y-104592892D01*
X177295434Y-104609246D01*
X177203385Y-104638059D01*
X177101476Y-104647395D01*
X177004963Y-104636332D01*
X176977934Y-104628412D01*
X176894276Y-104583581D01*
X176832266Y-104514598D01*
X176791545Y-104420794D01*
X176771755Y-104301498D01*
X176769582Y-104239118D01*
X176775926Y-104148298D01*
X176936157Y-104148298D01*
X176951655Y-104155012D01*
X176993312Y-104160280D01*
X177053876Y-104163389D01*
X177094907Y-104163921D01*
X177168711Y-104163408D01*
X177215293Y-104161006D01*
X177240848Y-104155422D01*
X177251569Y-104145361D01*
X177253657Y-104130763D01*
X177239331Y-104085796D01*
X177203262Y-104041353D01*
X177155815Y-104007242D01*
X177108349Y-103993288D01*
X177043879Y-104005666D01*
X176988070Y-104041452D01*
X176949374Y-104093033D01*
X176936157Y-104148298D01*
X176775926Y-104148298D01*
X176778821Y-104106866D01*
X176807336Y-104001498D01*
X176855729Y-103922178D01*
X176924604Y-103868071D01*
X177014565Y-103838343D01*
X177063300Y-103832618D01*
X177164193Y-103834078D01*
G36*
X176636167Y-103829447D02*
G01*
X176700408Y-103842112D01*
X176736980Y-103860864D01*
X176775453Y-103892017D01*
X176720717Y-103961127D01*
X176686969Y-104002979D01*
X176664053Y-104023398D01*
X176641279Y-104026517D01*
X176607956Y-104016472D01*
X176592314Y-104010789D01*
X176528542Y-104002404D01*
X176470140Y-104020378D01*
X176427264Y-104060982D01*
X176420299Y-104073929D01*
X176412713Y-104108224D01*
X176406859Y-104171427D01*
X176403011Y-104259060D01*
X176401443Y-104366640D01*
X176401421Y-104381944D01*
X176401421Y-104648526D01*
X176217605Y-104648526D01*
X176217605Y-103829710D01*
X176309513Y-103829710D01*
X176362507Y-103831094D01*
X176390115Y-103837252D01*
X176400324Y-103851194D01*
X176401421Y-103864344D01*
X176401421Y-103898978D01*
X176445450Y-103864344D01*
X176495937Y-103840716D01*
X176563760Y-103829033D01*
X176636167Y-103829447D01*
G37*
X176636167Y-103829447D02*
X176700408Y-103842112D01*
X176736980Y-103860864D01*
X176775453Y-103892017D01*
X176720717Y-103961127D01*
X176686969Y-104002979D01*
X176664053Y-104023398D01*
X176641279Y-104026517D01*
X176607956Y-104016472D01*
X176592314Y-104010789D01*
X176528542Y-104002404D01*
X176470140Y-104020378D01*
X176427264Y-104060982D01*
X176420299Y-104073929D01*
X176412713Y-104108224D01*
X176406859Y-104171427D01*
X176403011Y-104259060D01*
X176401443Y-104366640D01*
X176401421Y-104381944D01*
X176401421Y-104648526D01*
X176217605Y-104648526D01*
X176217605Y-103829710D01*
X176309513Y-103829710D01*
X176362507Y-103831094D01*
X176390115Y-103837252D01*
X176400324Y-103851194D01*
X176401421Y-103864344D01*
X176401421Y-103898978D01*
X176445450Y-103864344D01*
X176495937Y-103840716D01*
X176563760Y-103829033D01*
X176636167Y-103829447D01*
G36*
X175842992Y-103834673D02*
G01*
X175913427Y-103851780D01*
X175933787Y-103860844D01*
X175973253Y-103884583D01*
X176003541Y-103911321D01*
X176025952Y-103945699D01*
X176041786Y-103992360D01*
X176052343Y-104055946D01*
X176058924Y-104141099D01*
X176062828Y-104252462D01*
X176064310Y-104326849D01*
X176069765Y-104648526D01*
X175976580Y-104648526D01*
X175920047Y-104646156D01*
X175890922Y-104638055D01*
X175883394Y-104624451D01*
X175879420Y-104609741D01*
X175861652Y-104612554D01*
X175837440Y-104624348D01*
X175776828Y-104642427D01*
X175698929Y-104647299D01*
X175616995Y-104639330D01*
X175544281Y-104618889D01*
X175537759Y-104616051D01*
X175471302Y-104569365D01*
X175427491Y-104504464D01*
X175407332Y-104428600D01*
X175408872Y-104401344D01*
X175573345Y-104401344D01*
X175587837Y-104438024D01*
X175630805Y-104464309D01*
X175700129Y-104478417D01*
X175737177Y-104480290D01*
X175798919Y-104475494D01*
X175839960Y-104456858D01*
X175849973Y-104448000D01*
X175877100Y-104399806D01*
X175883394Y-104356092D01*
X175883394Y-104297605D01*
X175801930Y-104297605D01*
X175707234Y-104302432D01*
X175640813Y-104317613D01*
X175598846Y-104344200D01*
X175589449Y-104356052D01*
X175573345Y-104401344D01*
X175408872Y-104401344D01*
X175411829Y-104349026D01*
X175441985Y-104272995D01*
X175483131Y-104221612D01*
X175508052Y-104199397D01*
X175532448Y-104184798D01*
X175564191Y-104175897D01*
X175611152Y-104170775D01*
X175681204Y-104167515D01*
X175708990Y-104166577D01*
X175883394Y-104160879D01*
X175883138Y-104108091D01*
X175876384Y-104052603D01*
X175851964Y-104019052D01*
X175802630Y-103997618D01*
X175801306Y-103997236D01*
X175731360Y-103988808D01*
X175662914Y-103999816D01*
X175612047Y-104026585D01*
X175591637Y-104039803D01*
X175569654Y-104037974D01*
X175535826Y-104018824D01*
X175515961Y-104005308D01*
X175477106Y-103976432D01*
X175453038Y-103954786D01*
X175449176Y-103948589D01*
X175465079Y-103916519D01*
X175512065Y-103878219D01*
X175532473Y-103865297D01*
X175591143Y-103843041D01*
X175670212Y-103830432D01*
X175758041Y-103827600D01*
X175842992Y-103834673D01*
G37*
X175842992Y-103834673D02*
X175913427Y-103851780D01*
X175933787Y-103860844D01*
X175973253Y-103884583D01*
X176003541Y-103911321D01*
X176025952Y-103945699D01*
X176041786Y-103992360D01*
X176052343Y-104055946D01*
X176058924Y-104141099D01*
X176062828Y-104252462D01*
X176064310Y-104326849D01*
X176069765Y-104648526D01*
X175976580Y-104648526D01*
X175920047Y-104646156D01*
X175890922Y-104638055D01*
X175883394Y-104624451D01*
X175879420Y-104609741D01*
X175861652Y-104612554D01*
X175837440Y-104624348D01*
X175776828Y-104642427D01*
X175698929Y-104647299D01*
X175616995Y-104639330D01*
X175544281Y-104618889D01*
X175537759Y-104616051D01*
X175471302Y-104569365D01*
X175427491Y-104504464D01*
X175407332Y-104428600D01*
X175408872Y-104401344D01*
X175573345Y-104401344D01*
X175587837Y-104438024D01*
X175630805Y-104464309D01*
X175700129Y-104478417D01*
X175737177Y-104480290D01*
X175798919Y-104475494D01*
X175839960Y-104456858D01*
X175849973Y-104448000D01*
X175877100Y-104399806D01*
X175883394Y-104356092D01*
X175883394Y-104297605D01*
X175801930Y-104297605D01*
X175707234Y-104302432D01*
X175640813Y-104317613D01*
X175598846Y-104344200D01*
X175589449Y-104356052D01*
X175573345Y-104401344D01*
X175408872Y-104401344D01*
X175411829Y-104349026D01*
X175441985Y-104272995D01*
X175483131Y-104221612D01*
X175508052Y-104199397D01*
X175532448Y-104184798D01*
X175564191Y-104175897D01*
X175611152Y-104170775D01*
X175681204Y-104167515D01*
X175708990Y-104166577D01*
X175883394Y-104160879D01*
X175883138Y-104108091D01*
X175876384Y-104052603D01*
X175851964Y-104019052D01*
X175802630Y-103997618D01*
X175801306Y-103997236D01*
X175731360Y-103988808D01*
X175662914Y-103999816D01*
X175612047Y-104026585D01*
X175591637Y-104039803D01*
X175569654Y-104037974D01*
X175535826Y-104018824D01*
X175515961Y-104005308D01*
X175477106Y-103976432D01*
X175453038Y-103954786D01*
X175449176Y-103948589D01*
X175465079Y-103916519D01*
X175512065Y-103878219D01*
X175532473Y-103865297D01*
X175591143Y-103843041D01*
X175670212Y-103830432D01*
X175758041Y-103827600D01*
X175842992Y-103834673D01*
G36*
X174837130Y-103833104D02*
G01*
X174903220Y-103838066D01*
X174989626Y-104097079D01*
X175076031Y-104356092D01*
X175103124Y-104264184D01*
X175119428Y-104207384D01*
X175140875Y-104130625D01*
X175164035Y-104046251D01*
X175176280Y-104000993D01*
X175222344Y-103829710D01*
X175412387Y-103829710D01*
X175355582Y-104009349D01*
X175327607Y-104097704D01*
X175293813Y-104204281D01*
X175258520Y-104315454D01*
X175227013Y-104414579D01*
X175155250Y-104640171D01*
X175000286Y-104650253D01*
X174958270Y-104511528D01*
X174932359Y-104425351D01*
X174904083Y-104330347D01*
X174879369Y-104246441D01*
X174878394Y-104243102D01*
X174859935Y-104186248D01*
X174843649Y-104147456D01*
X174832242Y-104132787D01*
X174829898Y-104134483D01*
X174821671Y-104157225D01*
X174806038Y-104205940D01*
X174784904Y-104274502D01*
X174760170Y-104356785D01*
X174746787Y-104402046D01*
X174674311Y-104648526D01*
X174520495Y-104648526D01*
X174397531Y-104260006D01*
X174362988Y-104151022D01*
X174331521Y-104052048D01*
X174304616Y-103967736D01*
X174283759Y-103902734D01*
X174270438Y-103861692D01*
X174266388Y-103849701D01*
X174269594Y-103837423D01*
X174294765Y-103832046D01*
X174347146Y-103832584D01*
X174355345Y-103832990D01*
X174452482Y-103838066D01*
X174516100Y-104072013D01*
X174539484Y-104157333D01*
X174560381Y-104232335D01*
X174576951Y-104290507D01*
X174587354Y-104325337D01*
X174589276Y-104331016D01*
X174597241Y-104324486D01*
X174613304Y-104290654D01*
X174635621Y-104234127D01*
X174662345Y-104159510D01*
X174684937Y-104092107D01*
X174771041Y-103828143D01*
X174837130Y-103833104D01*
G37*
X174837130Y-103833104D02*
X174903220Y-103838066D01*
X174989626Y-104097079D01*
X175076031Y-104356092D01*
X175103124Y-104264184D01*
X175119428Y-104207384D01*
X175140875Y-104130625D01*
X175164035Y-104046251D01*
X175176280Y-104000993D01*
X175222344Y-103829710D01*
X175412387Y-103829710D01*
X175355582Y-104009349D01*
X175327607Y-104097704D01*
X175293813Y-104204281D01*
X175258520Y-104315454D01*
X175227013Y-104414579D01*
X175155250Y-104640171D01*
X175000286Y-104650253D01*
X174958270Y-104511528D01*
X174932359Y-104425351D01*
X174904083Y-104330347D01*
X174879369Y-104246441D01*
X174878394Y-104243102D01*
X174859935Y-104186248D01*
X174843649Y-104147456D01*
X174832242Y-104132787D01*
X174829898Y-104134483D01*
X174821671Y-104157225D01*
X174806038Y-104205940D01*
X174784904Y-104274502D01*
X174760170Y-104356785D01*
X174746787Y-104402046D01*
X174674311Y-104648526D01*
X174520495Y-104648526D01*
X174397531Y-104260006D01*
X174362988Y-104151022D01*
X174331521Y-104052048D01*
X174304616Y-103967736D01*
X174283759Y-103902734D01*
X174270438Y-103861692D01*
X174266388Y-103849701D01*
X174269594Y-103837423D01*
X174294765Y-103832046D01*
X174347146Y-103832584D01*
X174355345Y-103832990D01*
X174452482Y-103838066D01*
X174516100Y-104072013D01*
X174539484Y-104157333D01*
X174560381Y-104232335D01*
X174576951Y-104290507D01*
X174587354Y-104325337D01*
X174589276Y-104331016D01*
X174597241Y-104324486D01*
X174613304Y-104290654D01*
X174635621Y-104234127D01*
X174662345Y-104159510D01*
X174684937Y-104092107D01*
X174771041Y-103828143D01*
X174837130Y-103833104D01*
G36*
X174195631Y-104648526D02*
G01*
X174103723Y-104648526D01*
X174050377Y-104646962D01*
X174022593Y-104640485D01*
X174012590Y-104626418D01*
X174011815Y-104616906D01*
X174010128Y-104597832D01*
X173999490Y-104594174D01*
X173971535Y-104605932D01*
X173949795Y-104616906D01*
X173866332Y-104642911D01*
X173775604Y-104644416D01*
X173701842Y-104625021D01*
X173633154Y-104578165D01*
X173580794Y-104509004D01*
X173552122Y-104427427D01*
X173551392Y-104422866D01*
X173547132Y-104373101D01*
X173545014Y-104301659D01*
X173545184Y-104247626D01*
X173727720Y-104247626D01*
X173731949Y-104319441D01*
X173741568Y-104378634D01*
X173754590Y-104412060D01*
X173803856Y-104457740D01*
X173862350Y-104474115D01*
X173922671Y-104460873D01*
X173974217Y-104421373D01*
X173993738Y-104394807D01*
X174005152Y-104363106D01*
X174010498Y-104316832D01*
X174011815Y-104247328D01*
X174009458Y-104178499D01*
X174003233Y-104118026D01*
X173994408Y-104077556D01*
X173992937Y-104073929D01*
X173957347Y-104030802D01*
X173905400Y-104007124D01*
X173847278Y-104003301D01*
X173793160Y-104019738D01*
X173753226Y-104056840D01*
X173749083Y-104064222D01*
X173736116Y-104109239D01*
X173729052Y-104173967D01*
X173727720Y-104247626D01*
X173545184Y-104247626D01*
X173545271Y-104220230D01*
X173546472Y-104176405D01*
X173554645Y-104067988D01*
X173571630Y-103986588D01*
X173599887Y-103926412D01*
X173641872Y-103881666D01*
X173682632Y-103855400D01*
X173739581Y-103836935D01*
X173810411Y-103830602D01*
X173882941Y-103835760D01*
X173944986Y-103851769D01*
X173977768Y-103870920D01*
X174011815Y-103901732D01*
X174011815Y-103512210D01*
X174195631Y-103512210D01*
X174195631Y-104648526D01*
G37*
X174195631Y-104648526D02*
X174103723Y-104648526D01*
X174050377Y-104646962D01*
X174022593Y-104640485D01*
X174012590Y-104626418D01*
X174011815Y-104616906D01*
X174010128Y-104597832D01*
X173999490Y-104594174D01*
X173971535Y-104605932D01*
X173949795Y-104616906D01*
X173866332Y-104642911D01*
X173775604Y-104644416D01*
X173701842Y-104625021D01*
X173633154Y-104578165D01*
X173580794Y-104509004D01*
X173552122Y-104427427D01*
X173551392Y-104422866D01*
X173547132Y-104373101D01*
X173545014Y-104301659D01*
X173545184Y-104247626D01*
X173727720Y-104247626D01*
X173731949Y-104319441D01*
X173741568Y-104378634D01*
X173754590Y-104412060D01*
X173803856Y-104457740D01*
X173862350Y-104474115D01*
X173922671Y-104460873D01*
X173974217Y-104421373D01*
X173993738Y-104394807D01*
X174005152Y-104363106D01*
X174010498Y-104316832D01*
X174011815Y-104247328D01*
X174009458Y-104178499D01*
X174003233Y-104118026D01*
X173994408Y-104077556D01*
X173992937Y-104073929D01*
X173957347Y-104030802D01*
X173905400Y-104007124D01*
X173847278Y-104003301D01*
X173793160Y-104019738D01*
X173753226Y-104056840D01*
X173749083Y-104064222D01*
X173736116Y-104109239D01*
X173729052Y-104173967D01*
X173727720Y-104247626D01*
X173545184Y-104247626D01*
X173545271Y-104220230D01*
X173546472Y-104176405D01*
X173554645Y-104067988D01*
X173571630Y-103986588D01*
X173599887Y-103926412D01*
X173641872Y-103881666D01*
X173682632Y-103855400D01*
X173739581Y-103836935D01*
X173810411Y-103830602D01*
X173882941Y-103835760D01*
X173944986Y-103851769D01*
X173977768Y-103870920D01*
X174011815Y-103901732D01*
X174011815Y-103512210D01*
X174195631Y-103512210D01*
X174195631Y-104648526D01*
G36*
X173142881Y-103831486D02*
G01*
X173167888Y-103838982D01*
X173175950Y-103855451D01*
X173176289Y-103862886D01*
X173177736Y-103883594D01*
X173187698Y-103886845D01*
X173214612Y-103872648D01*
X173230598Y-103862948D01*
X173281033Y-103842175D01*
X173341272Y-103831904D01*
X173404434Y-103831114D01*
X173463637Y-103838786D01*
X173512002Y-103853898D01*
X173542646Y-103875432D01*
X173548689Y-103902366D01*
X173545639Y-103909660D01*
X173523406Y-103939937D01*
X173488930Y-103977175D01*
X173482694Y-103983195D01*
X173449833Y-104010875D01*
X173421480Y-104019818D01*
X173381827Y-104013576D01*
X173365942Y-104009429D01*
X173316509Y-103999467D01*
X173281752Y-104003947D01*
X173252400Y-104019746D01*
X173225513Y-104040949D01*
X173205710Y-104067614D01*
X173191948Y-104104827D01*
X173183184Y-104157673D01*
X173178374Y-104231237D01*
X173176474Y-104330605D01*
X173176289Y-104390601D01*
X173176289Y-104648526D01*
X173009184Y-104648526D01*
X173009184Y-103829710D01*
X173092736Y-103829710D01*
X173142881Y-103831486D01*
G37*
X173142881Y-103831486D02*
X173167888Y-103838982D01*
X173175950Y-103855451D01*
X173176289Y-103862886D01*
X173177736Y-103883594D01*
X173187698Y-103886845D01*
X173214612Y-103872648D01*
X173230598Y-103862948D01*
X173281033Y-103842175D01*
X173341272Y-103831904D01*
X173404434Y-103831114D01*
X173463637Y-103838786D01*
X173512002Y-103853898D01*
X173542646Y-103875432D01*
X173548689Y-103902366D01*
X173545639Y-103909660D01*
X173523406Y-103939937D01*
X173488930Y-103977175D01*
X173482694Y-103983195D01*
X173449833Y-104010875D01*
X173421480Y-104019818D01*
X173381827Y-104013576D01*
X173365942Y-104009429D01*
X173316509Y-103999467D01*
X173281752Y-104003947D01*
X173252400Y-104019746D01*
X173225513Y-104040949D01*
X173205710Y-104067614D01*
X173191948Y-104104827D01*
X173183184Y-104157673D01*
X173178374Y-104231237D01*
X173176474Y-104330605D01*
X173176289Y-104390601D01*
X173176289Y-104648526D01*
X173009184Y-104648526D01*
X173009184Y-103829710D01*
X173092736Y-103829710D01*
X173142881Y-103831486D01*
G36*
X172623457Y-103836184D02*
G01*
X172702070Y-103857160D01*
X172761916Y-103895180D01*
X172804147Y-103944978D01*
X172817275Y-103966230D01*
X172826968Y-103988492D01*
X172833744Y-104016970D01*
X172838123Y-104056871D01*
X172840624Y-104113401D01*
X172841768Y-104191767D01*
X172842072Y-104297176D01*
X172842078Y-104325142D01*
X172842078Y-104648526D01*
X172761868Y-104648526D01*
X172710706Y-104644943D01*
X172672877Y-104635866D01*
X172663399Y-104630268D01*
X172637488Y-104620606D01*
X172611024Y-104630268D01*
X172567452Y-104642330D01*
X172504160Y-104647185D01*
X172434010Y-104645078D01*
X172369860Y-104636256D01*
X172332407Y-104624937D01*
X172259933Y-104578412D01*
X172214640Y-104513846D01*
X172194278Y-104428000D01*
X172194088Y-104425796D01*
X172195875Y-104387713D01*
X172357473Y-104387713D01*
X172371601Y-104431030D01*
X172394612Y-104455408D01*
X172440804Y-104473845D01*
X172501775Y-104481205D01*
X172563949Y-104477583D01*
X172613751Y-104463074D01*
X172627703Y-104453765D01*
X172652085Y-104410753D01*
X172658263Y-104361857D01*
X172658263Y-104297605D01*
X172565818Y-104297605D01*
X172477995Y-104304366D01*
X172411418Y-104323520D01*
X172370002Y-104353376D01*
X172357473Y-104387713D01*
X172195875Y-104387713D01*
X172198490Y-104332004D01*
X172229424Y-104257847D01*
X172287581Y-104201767D01*
X172295620Y-104196665D01*
X172330163Y-104180055D01*
X172372918Y-104169996D01*
X172432686Y-104165107D01*
X172503690Y-104163983D01*
X172658263Y-104163921D01*
X172658263Y-104099125D01*
X172651706Y-104048850D01*
X172634975Y-104015169D01*
X172633016Y-104013376D01*
X172595783Y-103998642D01*
X172539580Y-103992931D01*
X172477467Y-103995737D01*
X172422510Y-104006556D01*
X172389899Y-104022782D01*
X172372228Y-104035780D01*
X172353569Y-104038262D01*
X172327819Y-104027613D01*
X172288873Y-104001218D01*
X172230630Y-103956465D01*
X172225284Y-103952273D01*
X172228023Y-103936760D01*
X172250876Y-103910960D01*
X172285609Y-103882289D01*
X172323990Y-103858166D01*
X172336048Y-103852470D01*
X172380034Y-103841103D01*
X172444487Y-103832995D01*
X172516497Y-103829743D01*
X172519864Y-103829736D01*
X172623457Y-103836184D01*
G37*
X172623457Y-103836184D02*
X172702070Y-103857160D01*
X172761916Y-103895180D01*
X172804147Y-103944978D01*
X172817275Y-103966230D01*
X172826968Y-103988492D01*
X172833744Y-104016970D01*
X172838123Y-104056871D01*
X172840624Y-104113401D01*
X172841768Y-104191767D01*
X172842072Y-104297176D01*
X172842078Y-104325142D01*
X172842078Y-104648526D01*
X172761868Y-104648526D01*
X172710706Y-104644943D01*
X172672877Y-104635866D01*
X172663399Y-104630268D01*
X172637488Y-104620606D01*
X172611024Y-104630268D01*
X172567452Y-104642330D01*
X172504160Y-104647185D01*
X172434010Y-104645078D01*
X172369860Y-104636256D01*
X172332407Y-104624937D01*
X172259933Y-104578412D01*
X172214640Y-104513846D01*
X172194278Y-104428000D01*
X172194088Y-104425796D01*
X172195875Y-104387713D01*
X172357473Y-104387713D01*
X172371601Y-104431030D01*
X172394612Y-104455408D01*
X172440804Y-104473845D01*
X172501775Y-104481205D01*
X172563949Y-104477583D01*
X172613751Y-104463074D01*
X172627703Y-104453765D01*
X172652085Y-104410753D01*
X172658263Y-104361857D01*
X172658263Y-104297605D01*
X172565818Y-104297605D01*
X172477995Y-104304366D01*
X172411418Y-104323520D01*
X172370002Y-104353376D01*
X172357473Y-104387713D01*
X172195875Y-104387713D01*
X172198490Y-104332004D01*
X172229424Y-104257847D01*
X172287581Y-104201767D01*
X172295620Y-104196665D01*
X172330163Y-104180055D01*
X172372918Y-104169996D01*
X172432686Y-104165107D01*
X172503690Y-104163983D01*
X172658263Y-104163921D01*
X172658263Y-104099125D01*
X172651706Y-104048850D01*
X172634975Y-104015169D01*
X172633016Y-104013376D01*
X172595783Y-103998642D01*
X172539580Y-103992931D01*
X172477467Y-103995737D01*
X172422510Y-104006556D01*
X172389899Y-104022782D01*
X172372228Y-104035780D01*
X172353569Y-104038262D01*
X172327819Y-104027613D01*
X172288873Y-104001218D01*
X172230630Y-103956465D01*
X172225284Y-103952273D01*
X172228023Y-103936760D01*
X172250876Y-103910960D01*
X172285609Y-103882289D01*
X172323990Y-103858166D01*
X172336048Y-103852470D01*
X172380034Y-103841103D01*
X172444487Y-103832995D01*
X172516497Y-103829743D01*
X172519864Y-103829736D01*
X172623457Y-103836184D01*
G36*
X171926360Y-102590468D02*
G01*
X171961592Y-102607874D01*
X172005040Y-102638206D01*
X172036706Y-102671283D01*
X172058394Y-102712817D01*
X172071903Y-102768522D01*
X172079038Y-102844111D01*
X172081600Y-102945296D01*
X172081750Y-102988797D01*
X172081312Y-103084135D01*
X172079496Y-103152271D01*
X172075545Y-103199418D01*
X172068702Y-103231790D01*
X172058211Y-103255600D01*
X172047296Y-103271843D01*
X171977619Y-103340952D01*
X171895566Y-103382521D01*
X171807050Y-103395023D01*
X171717981Y-103376934D01*
X171689763Y-103364142D01*
X171622210Y-103328931D01*
X171622210Y-103880700D01*
X171671512Y-103855205D01*
X171736473Y-103835480D01*
X171816320Y-103830427D01*
X171896052Y-103839756D01*
X171956265Y-103860714D01*
X172006208Y-103900627D01*
X172048881Y-103957741D01*
X172052090Y-103963605D01*
X172065622Y-103991227D01*
X172075505Y-104019068D01*
X172082309Y-104052794D01*
X172086601Y-104098071D01*
X172088951Y-104160562D01*
X172089928Y-104245935D01*
X172090105Y-104342010D01*
X172090105Y-104648526D01*
X171906289Y-104648526D01*
X171906289Y-104083339D01*
X171854875Y-104040077D01*
X171801466Y-104005472D01*
X171750888Y-103999180D01*
X171700030Y-104015372D01*
X171672925Y-104031227D01*
X171652751Y-104053810D01*
X171638403Y-104087940D01*
X171628776Y-104138434D01*
X171622763Y-104210111D01*
X171619260Y-104307788D01*
X171618026Y-104372802D01*
X171613855Y-104640171D01*
X171526125Y-104645222D01*
X171438394Y-104650273D01*
X171438394Y-102991101D01*
X171622210Y-102991101D01*
X171626896Y-103083600D01*
X171642688Y-103147809D01*
X171672183Y-103187759D01*
X171717980Y-103207480D01*
X171764250Y-103211421D01*
X171816628Y-103206892D01*
X171851390Y-103189069D01*
X171873128Y-103165519D01*
X171890240Y-103140189D01*
X171900427Y-103111969D01*
X171904960Y-103072431D01*
X171905109Y-103013142D01*
X171903584Y-102963498D01*
X171900081Y-102888710D01*
X171894867Y-102839611D01*
X171886087Y-102808467D01*
X171871886Y-102787545D01*
X171858484Y-102775452D01*
X171802487Y-102749081D01*
X171736211Y-102744822D01*
X171698156Y-102753906D01*
X171660477Y-102786196D01*
X171635519Y-102849006D01*
X171623422Y-102941894D01*
X171622210Y-102991101D01*
X171438394Y-102991101D01*
X171438394Y-102576421D01*
X171530302Y-102576421D01*
X171585483Y-102578603D01*
X171613952Y-102586351D01*
X171622206Y-102601468D01*
X171622210Y-102601916D01*
X171626040Y-102616720D01*
X171642933Y-102615039D01*
X171676519Y-102598772D01*
X171754778Y-102573887D01*
X171842827Y-102571271D01*
X171926360Y-102590468D01*
G37*
X171926360Y-102590468D02*
X171961592Y-102607874D01*
X172005040Y-102638206D01*
X172036706Y-102671283D01*
X172058394Y-102712817D01*
X172071903Y-102768522D01*
X172079038Y-102844111D01*
X172081600Y-102945296D01*
X172081750Y-102988797D01*
X172081312Y-103084135D01*
X172079496Y-103152271D01*
X172075545Y-103199418D01*
X172068702Y-103231790D01*
X172058211Y-103255600D01*
X172047296Y-103271843D01*
X171977619Y-103340952D01*
X171895566Y-103382521D01*
X171807050Y-103395023D01*
X171717981Y-103376934D01*
X171689763Y-103364142D01*
X171622210Y-103328931D01*
X171622210Y-103880700D01*
X171671512Y-103855205D01*
X171736473Y-103835480D01*
X171816320Y-103830427D01*
X171896052Y-103839756D01*
X171956265Y-103860714D01*
X172006208Y-103900627D01*
X172048881Y-103957741D01*
X172052090Y-103963605D01*
X172065622Y-103991227D01*
X172075505Y-104019068D01*
X172082309Y-104052794D01*
X172086601Y-104098071D01*
X172088951Y-104160562D01*
X172089928Y-104245935D01*
X172090105Y-104342010D01*
X172090105Y-104648526D01*
X171906289Y-104648526D01*
X171906289Y-104083339D01*
X171854875Y-104040077D01*
X171801466Y-104005472D01*
X171750888Y-103999180D01*
X171700030Y-104015372D01*
X171672925Y-104031227D01*
X171652751Y-104053810D01*
X171638403Y-104087940D01*
X171628776Y-104138434D01*
X171622763Y-104210111D01*
X171619260Y-104307788D01*
X171618026Y-104372802D01*
X171613855Y-104640171D01*
X171526125Y-104645222D01*
X171438394Y-104650273D01*
X171438394Y-102991101D01*
X171622210Y-102991101D01*
X171626896Y-103083600D01*
X171642688Y-103147809D01*
X171672183Y-103187759D01*
X171717980Y-103207480D01*
X171764250Y-103211421D01*
X171816628Y-103206892D01*
X171851390Y-103189069D01*
X171873128Y-103165519D01*
X171890240Y-103140189D01*
X171900427Y-103111969D01*
X171904960Y-103072431D01*
X171905109Y-103013142D01*
X171903584Y-102963498D01*
X171900081Y-102888710D01*
X171894867Y-102839611D01*
X171886087Y-102808467D01*
X171871886Y-102787545D01*
X171858484Y-102775452D01*
X171802487Y-102749081D01*
X171736211Y-102744822D01*
X171698156Y-102753906D01*
X171660477Y-102786196D01*
X171635519Y-102849006D01*
X171623422Y-102941894D01*
X171622210Y-102991101D01*
X171438394Y-102991101D01*
X171438394Y-102576421D01*
X171530302Y-102576421D01*
X171585483Y-102578603D01*
X171613952Y-102586351D01*
X171622206Y-102601468D01*
X171622210Y-102601916D01*
X171626040Y-102616720D01*
X171642933Y-102615039D01*
X171676519Y-102598772D01*
X171754778Y-102573887D01*
X171842827Y-102571271D01*
X171926360Y-102590468D01*
D10*
X188306400Y-70289600D02*
X189356400Y-70289600D01*
X189356400Y-69239600D02*
X189356400Y-70289600D01*
X179956400Y-64189600D02*
X179956400Y-55389600D01*
X179956400Y-55389600D02*
X189156400Y-55389600D01*
X182656400Y-70089600D02*
X179956400Y-70089600D01*
X179956400Y-70089600D02*
X179956400Y-68189600D01*
X189156400Y-55389600D02*
X189156400Y-70089600D01*
X189156400Y-70089600D02*
X186556400Y-70089600D01*
D12*
X193040000Y-79629000D02*
X192786000Y-79629000D01*
X195834000Y-81915000D02*
X195834000Y-75565000D01*
X195834000Y-75565000D02*
X192786000Y-75565000D01*
X193040000Y-76073000D02*
X192786000Y-76073000D01*
X192786000Y-76073000D02*
X192786000Y-79629000D01*
X192786000Y-80137000D02*
X192786000Y-81915000D01*
X192786000Y-81915000D02*
X195834000Y-81915000D01*
D10*
X110955000Y-74569000D02*
X114045000Y-74569000D01*
X115000000Y-72009000D02*
G75*
G03*
X115000000Y-72009000I-2500000J0D01*
G01*
X112500462Y-69019000D02*
G75*
G03*
X110955170Y-74569000I-462J-2990000D01*
G01*
X112499538Y-69019000D02*
G75*
G02*
X114044830Y-74569000I462J-2990000D01*
G01*
X115000000Y-81407000D02*
G75*
G03*
X115000000Y-81407000I-2500000J0D01*
G01*
X110955000Y-83967000D02*
X114045000Y-83967000D01*
X112499538Y-78417000D02*
G75*
G02*
X114044830Y-83967000I462J-2990000D01*
G01*
X112500462Y-78417000D02*
G75*
G03*
X110955170Y-83967000I-462J-2990000D01*
G01*
X175895000Y-79375000D02*
X188595000Y-79375000D01*
X175895000Y-75565000D02*
X188595000Y-75565000D01*
X188595000Y-79375000D02*
X188595000Y-75565000D01*
X175895000Y-75565000D02*
X175895000Y-79375000D01*
X120174000Y-78386000D02*
X120174000Y-81126000D01*
X120174000Y-81126000D02*
X126714000Y-81126000D01*
X126714000Y-81126000D02*
X126714000Y-78386000D01*
X126714000Y-78386000D02*
X120174000Y-78386000D01*
X119404000Y-79756000D02*
X120174000Y-79756000D01*
X127484000Y-79756000D02*
X126714000Y-79756000D01*
X127484000Y-83820000D02*
X126714000Y-83820000D01*
X119404000Y-83820000D02*
X120174000Y-83820000D01*
X126714000Y-82450000D02*
X120174000Y-82450000D01*
X126714000Y-85190000D02*
X126714000Y-82450000D01*
X120174000Y-85190000D02*
X126714000Y-85190000D01*
X120174000Y-82450000D02*
X120174000Y-85190000D01*
X108045000Y-109800000D02*
X108045000Y-87050000D01*
X108045000Y-87050000D02*
X161195000Y-87050000D01*
X161195000Y-87050000D02*
X161195000Y-109800000D01*
X161195000Y-109800000D02*
X108045000Y-109800000D01*
X153610000Y-103565000D02*
X156270000Y-103565000D01*
X156270000Y-103565000D02*
X156270000Y-93285000D01*
X156270000Y-93285000D02*
X153610000Y-93285000D01*
X153610000Y-93285000D02*
X153610000Y-103565000D01*
X111760000Y-107375000D02*
X111760000Y-104715000D01*
X111760000Y-104715000D02*
X160080000Y-104715000D01*
X160080000Y-104715000D02*
X160080000Y-107375000D01*
X160080000Y-107375000D02*
X111760000Y-107375000D01*
X109220000Y-92075000D02*
X109220000Y-89535000D01*
X109220000Y-89535000D02*
X160020000Y-89535000D01*
X160020000Y-89535000D02*
X160020000Y-92075000D01*
X160020000Y-92075000D02*
X109220000Y-92075000D01*
X110490000Y-107375000D02*
X109160000Y-107375000D01*
X109160000Y-107375000D02*
X109160000Y-106045000D01*
X134345152Y-98347414D02*
X134366234Y-98489997D01*
X134366234Y-98489997D02*
X134428229Y-98584745D01*
X134561449Y-97995773D02*
X134759237Y-98029488D01*
X134759237Y-98029488D02*
X134888337Y-98120175D01*
X134329323Y-98676214D02*
X134225568Y-98502824D01*
X134225568Y-98502824D02*
X134208639Y-98344333D01*
X133009978Y-99949665D02*
X132858478Y-99964950D01*
X132858478Y-99964950D02*
X132752569Y-100017975D01*
X132751400Y-100157888D02*
X132797327Y-100182702D01*
X132797327Y-100182702D02*
X132849758Y-100179449D01*
X132849758Y-100179449D02*
X132919996Y-100136109D01*
X108761500Y-94728573D02*
X108769669Y-94733514D01*
X108769669Y-94733514D02*
X108770000Y-94735104D01*
X108761500Y-102121428D02*
X108769669Y-102116487D01*
X108769669Y-102116487D02*
X108770000Y-102114897D01*
X134903210Y-101711377D02*
X134913743Y-101620815D01*
X134913743Y-101620815D02*
X134904597Y-101586068D01*
X134904597Y-101586068D02*
X134884300Y-101556485D01*
X134605962Y-101632974D02*
X134624959Y-101526602D01*
X134624959Y-101526602D02*
X134672784Y-101456517D01*
X134613080Y-101762476D02*
X134608084Y-101690003D01*
X134608084Y-101690003D02*
X134605962Y-101632974D01*
X134616692Y-101902920D02*
X134616718Y-101824245D01*
X134616718Y-101824245D02*
X134613080Y-101762476D01*
X134600119Y-101937128D02*
X134612121Y-101919259D01*
X134612121Y-101919259D02*
X134616692Y-101902920D01*
X148818685Y-95265855D02*
G75*
G03*
X148818685Y-95265855I-425876J0D01*
G01*
X133361938Y-100673239D02*
X133290832Y-100713729D01*
X133290832Y-100713729D02*
X133227762Y-100726038D01*
X133227762Y-100726038D02*
X133127095Y-100705541D01*
X133127095Y-100705541D02*
X133061290Y-100658153D01*
X133366081Y-100193158D02*
X133348131Y-100217668D01*
X133348131Y-100217668D02*
X133338751Y-100246549D01*
X133338751Y-100246549D02*
X133343606Y-100306848D01*
X133343606Y-100306848D02*
X133409532Y-100408073D01*
X133321144Y-100496462D02*
X133242287Y-100444778D01*
X133242287Y-100444778D02*
X133195506Y-100439863D01*
X133195506Y-100439863D02*
X133172842Y-100446601D01*
X133172842Y-100446601D02*
X133153503Y-100460129D01*
X138888576Y-98290502D02*
G75*
G03*
X138888576Y-98290502I-250000J0D01*
G01*
X133706037Y-97269543D02*
X133617483Y-97327341D01*
X133617483Y-97327341D02*
X133539140Y-97356551D01*
X133865603Y-97912271D02*
X133945782Y-97862565D01*
X133945782Y-97862565D02*
X134019327Y-97849486D01*
X134444058Y-98000128D02*
X134335031Y-98062392D01*
X134335031Y-98062392D02*
X134235729Y-98065888D01*
X134235729Y-98065888D02*
X134213372Y-98158505D01*
X134213372Y-98158505D02*
X134170075Y-98219718D01*
X134329323Y-98676214D02*
X134225568Y-98502824D01*
X134225568Y-98502824D02*
X134208639Y-98344333D01*
X134345152Y-98347414D02*
X134366234Y-98489997D01*
X134366234Y-98489997D02*
X134428229Y-98584745D01*
X134561449Y-97995773D02*
X134759237Y-98029488D01*
X134759237Y-98029488D02*
X134888337Y-98120175D01*
X135150102Y-99211431D02*
X135078996Y-99251921D01*
X135078996Y-99251921D02*
X135015926Y-99264231D01*
X135015926Y-99264231D02*
X134915259Y-99243734D01*
X134915259Y-99243734D02*
X134849455Y-99196346D01*
X135154246Y-98731351D02*
X135136296Y-98755861D01*
X135136296Y-98755861D02*
X135126916Y-98784742D01*
X135126916Y-98784742D02*
X135131770Y-98845041D01*
X135131770Y-98845041D02*
X135197696Y-98946266D01*
X135109308Y-99034655D02*
X135030451Y-98982971D01*
X135030451Y-98982971D02*
X134983670Y-98978056D01*
X134983670Y-98978056D02*
X134961006Y-98984794D01*
X134961006Y-98984794D02*
X134941667Y-98998322D01*
X135477840Y-99680463D02*
X135353010Y-99672224D01*
X135353010Y-99672224D02*
X135270680Y-99617571D01*
X135270680Y-99617571D02*
X135229572Y-99565267D01*
X135229572Y-99565267D02*
X135204728Y-99503652D01*
X135204728Y-99503652D02*
X135200244Y-99437391D01*
X135200244Y-99437391D02*
X135214603Y-99372430D01*
X135214603Y-99372430D02*
X135279465Y-99256541D01*
X135279465Y-99256541D02*
X135367886Y-99156826D01*
X135367886Y-99156826D02*
X135467084Y-99068780D01*
X135467084Y-99068780D02*
X135582190Y-99003767D01*
X135582190Y-99003767D02*
X135646539Y-98988116D01*
X135646539Y-98988116D02*
X135712564Y-98990874D01*
X135712564Y-98990874D02*
X135773696Y-99015965D01*
X135773696Y-99015965D02*
X135825445Y-99057283D01*
X135825445Y-99057283D02*
X135866557Y-99108582D01*
X135866557Y-99108582D02*
X135892241Y-99168974D01*
X135892241Y-99168974D02*
X135897266Y-99234406D01*
X135897266Y-99234406D02*
X135883761Y-99298729D01*
X135883761Y-99298729D02*
X135820602Y-99413685D01*
X135820602Y-99413685D02*
X135733232Y-99512185D01*
X135733232Y-99512185D02*
X135601107Y-99624199D01*
X135601107Y-99624199D02*
X135477840Y-99680463D01*
X132751400Y-100157888D02*
X132797327Y-100182702D01*
X132797327Y-100182702D02*
X132849758Y-100179449D01*
X132849758Y-100179449D02*
X132919996Y-100136109D01*
X133009978Y-99949665D02*
X132858478Y-99964950D01*
X132858478Y-99964950D02*
X132752569Y-100017975D01*
X133361938Y-100673239D02*
X133290832Y-100713729D01*
X133290832Y-100713729D02*
X133227762Y-100726038D01*
X133227762Y-100726038D02*
X133127095Y-100705541D01*
X133127095Y-100705541D02*
X133061290Y-100658153D01*
X133366081Y-100193158D02*
X133348131Y-100217668D01*
X133348131Y-100217668D02*
X133338751Y-100246549D01*
X133338751Y-100246549D02*
X133343606Y-100306848D01*
X133343606Y-100306848D02*
X133409532Y-100408073D01*
X133321144Y-100496462D02*
X133242287Y-100444778D01*
X133242287Y-100444778D02*
X133195506Y-100439863D01*
X133195506Y-100439863D02*
X133172842Y-100446601D01*
X133172842Y-100446601D02*
X133153503Y-100460129D01*
X134600119Y-101937128D02*
X134612121Y-101919259D01*
X134612121Y-101919259D02*
X134616692Y-101902920D01*
X134616692Y-101902920D02*
X134616718Y-101824245D01*
X134616718Y-101824245D02*
X134613080Y-101762476D01*
X134613080Y-101762476D02*
X134608084Y-101690003D01*
X134608084Y-101690003D02*
X134605962Y-101632974D01*
X134605962Y-101632974D02*
X134624959Y-101526602D01*
X134624959Y-101526602D02*
X134672784Y-101456517D01*
X134903210Y-101711377D02*
X134913743Y-101620815D01*
X134913743Y-101620815D02*
X134904597Y-101586068D01*
X134904597Y-101586068D02*
X134884300Y-101556485D01*
X135463074Y-99252013D02*
X135362563Y-99373611D01*
X135362563Y-99373611D02*
X135337809Y-99447911D01*
X135337809Y-99447911D02*
X135342479Y-99486944D01*
X135342479Y-99486944D02*
X135363531Y-99520047D01*
X135363531Y-99520047D02*
X135397552Y-99542419D01*
X135397552Y-99542419D02*
X135437725Y-99548953D01*
X135437725Y-99548953D02*
X135513989Y-99521153D01*
X135513989Y-99521153D02*
X135639107Y-99415936D01*
X135639107Y-99415936D02*
X135736368Y-99296238D01*
X135736368Y-99296238D02*
X135758209Y-99222879D01*
X135758209Y-99222879D02*
X135751859Y-99184962D01*
X135751859Y-99184962D02*
X135730682Y-99152895D01*
X135636132Y-99131223D02*
X135532677Y-99189183D01*
X135532677Y-99189183D02*
X135463074Y-99252013D01*
X133865603Y-97912271D02*
X133945782Y-97862565D01*
X133945782Y-97862565D02*
X134019327Y-97849486D01*
X134235729Y-98065888D02*
X134213372Y-98158505D01*
X134213372Y-98158505D02*
X134170075Y-98219718D01*
X134444058Y-98000128D02*
X134335031Y-98062392D01*
X134335031Y-98062392D02*
X134235729Y-98065888D01*
X135109308Y-99034655D02*
X135030451Y-98982971D01*
X135030451Y-98982971D02*
X134983670Y-98978056D01*
X134983670Y-98978056D02*
X134961006Y-98984794D01*
X134961006Y-98984794D02*
X134941667Y-98998322D01*
X135154246Y-98731351D02*
X135136296Y-98755861D01*
X135136296Y-98755861D02*
X135126916Y-98784742D01*
X135126916Y-98784742D02*
X135131770Y-98845041D01*
X135131770Y-98845041D02*
X135197696Y-98946266D01*
X135015926Y-99264231D02*
X134915259Y-99243734D01*
X134915259Y-99243734D02*
X134849455Y-99196346D01*
X135150102Y-99211431D02*
X135078996Y-99251921D01*
X135078996Y-99251921D02*
X135015926Y-99264231D01*
X135477840Y-99680463D02*
X135353010Y-99672224D01*
X135353010Y-99672224D02*
X135270680Y-99617571D01*
X135733232Y-99512185D02*
X135601107Y-99624199D01*
X135601107Y-99624199D02*
X135477840Y-99680463D01*
X135825445Y-99057283D02*
X135866557Y-99108582D01*
X135866557Y-99108582D02*
X135892241Y-99168974D01*
X135892241Y-99168974D02*
X135897266Y-99234406D01*
X135897266Y-99234406D02*
X135883761Y-99298729D01*
X135883761Y-99298729D02*
X135820602Y-99413685D01*
X135820602Y-99413685D02*
X135733232Y-99512185D01*
X135367886Y-99156826D02*
X135467084Y-99068780D01*
X135467084Y-99068780D02*
X135582190Y-99003767D01*
X135582190Y-99003767D02*
X135646539Y-98988116D01*
X135646539Y-98988116D02*
X135712564Y-98990874D01*
X135712564Y-98990874D02*
X135773696Y-99015965D01*
X135773696Y-99015965D02*
X135825445Y-99057283D01*
X135270680Y-99617571D02*
X135229572Y-99565267D01*
X135229572Y-99565267D02*
X135204728Y-99503652D01*
X135204728Y-99503652D02*
X135200244Y-99437391D01*
X135200244Y-99437391D02*
X135214603Y-99372430D01*
X135214603Y-99372430D02*
X135279465Y-99256541D01*
X135279465Y-99256541D02*
X135367886Y-99156826D01*
X135363531Y-99520047D02*
X135397552Y-99542419D01*
X135397552Y-99542419D02*
X135437725Y-99548953D01*
X135437725Y-99548953D02*
X135513989Y-99521153D01*
X135513989Y-99521153D02*
X135639107Y-99415936D01*
X135463074Y-99252013D02*
X135362563Y-99373611D01*
X135362563Y-99373611D02*
X135337809Y-99447911D01*
X135337809Y-99447911D02*
X135342479Y-99486944D01*
X135342479Y-99486944D02*
X135363531Y-99520047D01*
X135636132Y-99131223D02*
X135532677Y-99189183D01*
X135532677Y-99189183D02*
X135463074Y-99252013D01*
X135639107Y-99415936D02*
X135736368Y-99296238D01*
X135736368Y-99296238D02*
X135758209Y-99222879D01*
X135758209Y-99222879D02*
X135751859Y-99184962D01*
X135751859Y-99184962D02*
X135730682Y-99152895D01*
X133706037Y-97269543D02*
X133617483Y-97327341D01*
X133617483Y-97327341D02*
X133539140Y-97356551D01*
X117270000Y-95585000D02*
X117270000Y-94385000D01*
X121010000Y-95585000D02*
X117270000Y-95585000D01*
X116649500Y-96155000D02*
X121680000Y-96155000D01*
X121680000Y-93815000D02*
X121680000Y-96355000D01*
X116700000Y-93715000D02*
X121580000Y-93715000D01*
X121010000Y-94385000D02*
X121010000Y-95585000D01*
X117270000Y-94385000D02*
X121010000Y-94385000D01*
X136720695Y-99979730D02*
X136190365Y-100510060D01*
X136625508Y-99884542D02*
X136720695Y-99979730D01*
X136387539Y-100122511D02*
X136625508Y-99884542D01*
X136224361Y-99959333D02*
X136387539Y-100122511D01*
X136129173Y-100054520D02*
X136224361Y-99959333D01*
X136292352Y-100217699D02*
X136129173Y-100054520D01*
X136190365Y-100319685D02*
X136292352Y-100217699D01*
X136027187Y-100156507D02*
X136190365Y-100319685D01*
X135931999Y-100251694D02*
X136027187Y-100156507D01*
X136190365Y-100510060D02*
X135931999Y-100251694D01*
X121680000Y-96355000D02*
X121680000Y-98695000D01*
X117270000Y-98125000D02*
X117270000Y-96925000D01*
X121010000Y-98125000D02*
X117270000Y-98125000D01*
X116600000Y-98695000D02*
X116600000Y-93815000D01*
X117270000Y-96925000D02*
X121010000Y-96925000D01*
X121680000Y-96355000D02*
X116600000Y-96355000D01*
X121010000Y-96925000D02*
X121010000Y-98125000D01*
X121580000Y-98795000D02*
X116700000Y-98795000D01*
X116992003Y-98796000D02*
X117181106Y-98796000D01*
X117804503Y-98796000D02*
X117849375Y-98796000D01*
X117721170Y-98796000D02*
X117755124Y-98796000D01*
X134208639Y-98344333D02*
X134345152Y-98347414D01*
X134558049Y-98134517D02*
X134561449Y-97995773D01*
X134239023Y-101808689D02*
X133953460Y-101523126D01*
X133953460Y-101523126D02*
X134048648Y-101427939D01*
X134048648Y-101427939D02*
X134143835Y-101523126D01*
X134143835Y-101523126D02*
X134578978Y-101087984D01*
X134578978Y-101087984D02*
X134674165Y-101183171D01*
X134674165Y-101183171D02*
X134239023Y-101618314D01*
X134239023Y-101618314D02*
X134334210Y-101713501D01*
X134334210Y-101713501D02*
X134239023Y-101808689D01*
X132919996Y-100136109D02*
X133015184Y-100231297D01*
X133000098Y-99812727D02*
X133118870Y-99804653D01*
X133118870Y-99804653D02*
X132940394Y-99626177D01*
X132940394Y-99626177D02*
X133028782Y-99537788D01*
X133028782Y-99537788D02*
X133382336Y-99891342D01*
X133382336Y-99891342D02*
X133334104Y-99939573D01*
X133334104Y-99939573D02*
X133009978Y-99949665D01*
X141412588Y-101537050D02*
X141412588Y-95237050D01*
X145512588Y-95237050D02*
X145512588Y-101537050D01*
X140987588Y-95237050D02*
X140987588Y-101537050D01*
X145937588Y-101537050D02*
X145937588Y-95237050D01*
X108605431Y-101525000D02*
X108605431Y-95325000D01*
X108324789Y-101525000D02*
X108670000Y-101525000D01*
X108263395Y-95575000D02*
X108263395Y-101275000D01*
X108324789Y-95325000D02*
X108670000Y-95325000D01*
X108263395Y-95575000D02*
X108120000Y-95575000D01*
X108263395Y-101275000D02*
X108120000Y-101275000D01*
X108120000Y-95575000D02*
X108120000Y-101275000D01*
X108748825Y-95286536D02*
X108748825Y-101563465D01*
X108770000Y-101625000D02*
X108769936Y-101621411D01*
X108770000Y-95225000D02*
X108769936Y-95228590D01*
X108769936Y-95228590D02*
X113780000Y-95228590D01*
X108770000Y-94735104D02*
X108770000Y-95225000D01*
X108764425Y-94728590D02*
X108761500Y-94728573D01*
X108764425Y-94728590D02*
X113770000Y-94728590D01*
X108770000Y-102114897D02*
X108770000Y-101625000D01*
X113770000Y-94728590D02*
X113770000Y-102121411D01*
X108764425Y-102121411D02*
X113770000Y-102121411D01*
X108764425Y-102121411D02*
X108761500Y-102121428D01*
X108769936Y-101621411D02*
X113780000Y-101621411D01*
X113780000Y-94974989D02*
X113780000Y-101875012D01*
X108670000Y-94965729D02*
X108670000Y-94710073D01*
X108770000Y-94974989D02*
X108765785Y-94974989D01*
X108770000Y-101875012D02*
X108765785Y-101875012D01*
X108670000Y-101884272D02*
X108670000Y-102139928D01*
X108435241Y-94850143D02*
X108120000Y-94572388D01*
X108470469Y-94552785D02*
X108307578Y-94737660D01*
X108120000Y-94572388D02*
X108282892Y-94387513D01*
X108282892Y-94387513D02*
X108599153Y-94666167D01*
X108282892Y-102462488D02*
X108599153Y-102183834D01*
X108120000Y-102277613D02*
X108282892Y-102462488D01*
X108435241Y-101999858D02*
X108120000Y-102277613D01*
X108470469Y-102297216D02*
X108307578Y-102112341D01*
X116292277Y-100287467D02*
X116292277Y-103587467D01*
X122292277Y-103587467D02*
X122292277Y-100287467D01*
X116392277Y-103687467D02*
X122192277Y-103687467D01*
X122192277Y-100187467D02*
X116392277Y-100187467D01*
X117192277Y-102937467D02*
X116542277Y-102937467D01*
X116542277Y-100937467D02*
X117192277Y-100937467D01*
X116442277Y-102837467D02*
X116442277Y-101037467D01*
X117292277Y-101037467D02*
X117292277Y-102837467D01*
X117892277Y-100937467D02*
X120692277Y-100937467D01*
X120692277Y-102937467D02*
X117892277Y-102937467D01*
X117792277Y-102837467D02*
X117792277Y-101037467D01*
X120792277Y-101037467D02*
X120792277Y-102837467D01*
X122042277Y-102937467D02*
X121392277Y-102937467D01*
X122142277Y-101037467D02*
X122142277Y-102837467D01*
X121292277Y-102837467D02*
X121292277Y-101037467D01*
X121392277Y-100937467D02*
X122042277Y-100937467D01*
X116292378Y-100282983D02*
X116292277Y-100287467D01*
X135037174Y-101744841D02*
X134903210Y-101711377D01*
X134364275Y-101792222D02*
X134500576Y-101798278D01*
X147551767Y-102024226D02*
X147551767Y-102210812D01*
X149233851Y-102210812D02*
X149233851Y-102024226D01*
X147951767Y-101624226D02*
X148833851Y-101624226D01*
X146742190Y-102317280D02*
X146742809Y-102317282D01*
X149033851Y-102233200D02*
X147751767Y-102233200D01*
X146742809Y-102317282D02*
X150042809Y-102317282D01*
X146642811Y-94416663D02*
X146642809Y-94417282D01*
X146642809Y-102217282D02*
X146642811Y-102217900D01*
X146642809Y-102217282D02*
X146642809Y-94417282D01*
X146742809Y-94317282D02*
X146742190Y-94317283D01*
X146742809Y-94317282D02*
X150042809Y-94317282D01*
X150142807Y-102217900D02*
X150142809Y-102217282D01*
X150142809Y-102217282D02*
X150142809Y-94417282D01*
X150142809Y-94417282D02*
X150142807Y-94416663D01*
X146632809Y-95817282D02*
X146632809Y-95317282D01*
X146632809Y-100817282D02*
X146632809Y-101317282D01*
X150142804Y-94416334D02*
X150142809Y-94417282D01*
X116599000Y-96713528D02*
X116599000Y-96902631D01*
X120091801Y-94666802D02*
X120728198Y-94666802D01*
X118188198Y-95303199D02*
X117551801Y-95303199D01*
X122631801Y-97206802D02*
X123268198Y-97206802D01*
X122631801Y-97843199D02*
X122631801Y-97206802D01*
X117551801Y-94666802D02*
X118188198Y-94666802D01*
X120091801Y-97206802D02*
X120728198Y-97206802D01*
X120091801Y-97843199D02*
X120091801Y-97206802D01*
X120728198Y-97843199D02*
X120091801Y-97843199D01*
X118188198Y-94666802D02*
X118188198Y-95303199D01*
X120728198Y-95303199D02*
X120091801Y-95303199D01*
X123268198Y-97843199D02*
X122631801Y-97843199D01*
X123268198Y-95303199D02*
X122631801Y-95303199D01*
X120091801Y-95303199D02*
X120091801Y-94666802D01*
X122631801Y-94666802D02*
X123268198Y-94666802D01*
X122631801Y-95303199D02*
X122631801Y-94666802D01*
X123268198Y-97206802D02*
X123268198Y-97843199D01*
X123268198Y-94666802D02*
X123268198Y-95303199D01*
X118188198Y-97206802D02*
X118188198Y-97843199D01*
X118188198Y-97843199D02*
X117551801Y-97843199D01*
X124220000Y-98495000D02*
X124220000Y-94015000D01*
X123920000Y-93715000D02*
X121980000Y-93715000D01*
X124220000Y-94015000D02*
X123920000Y-93715000D01*
X121980000Y-93715000D02*
X121580000Y-93715000D01*
X121580000Y-98795000D02*
X121980000Y-98795000D01*
X123920000Y-98795000D02*
X124220000Y-98495000D01*
X121980000Y-98795000D02*
X123920000Y-98795000D01*
X120728198Y-97206802D02*
X120728198Y-97843199D01*
X120728198Y-94666802D02*
X120728198Y-95303199D01*
X117551801Y-97206802D02*
X118188198Y-97206802D01*
X117551801Y-97843199D02*
X117551801Y-97206802D01*
X117551801Y-95303199D02*
X117551801Y-94666802D01*
X133266751Y-100578051D02*
X133361938Y-100673239D01*
X133627103Y-100462466D02*
X133531916Y-100367279D01*
X133409532Y-100408073D02*
X133321144Y-100496462D01*
X135632839Y-99952534D02*
X136163169Y-99422203D01*
X134360132Y-100869138D02*
X134456594Y-100965600D01*
X134456594Y-100965600D02*
X133836707Y-101406373D01*
X133968652Y-101147582D02*
X134360132Y-100869138D01*
X134193979Y-100702985D02*
X133968652Y-101147582D01*
X134101128Y-100610134D02*
X134193979Y-100702985D01*
X133655893Y-100834823D02*
X134101128Y-100610134D01*
X133934231Y-100443238D02*
X133655893Y-100834823D01*
X133837875Y-100346882D02*
X133934231Y-100443238D01*
X133397209Y-100966875D02*
X133837875Y-100346882D01*
X133495052Y-101064718D02*
X133397209Y-100966875D01*
X133986818Y-100816657D02*
X133495052Y-101064718D01*
X133737907Y-101307574D02*
X133986818Y-100816657D01*
X133836707Y-101406373D02*
X133737907Y-101307574D01*
X135925200Y-100068118D02*
X135779976Y-100099670D01*
X135816415Y-99959333D02*
X135925200Y-100068118D01*
X136258356Y-99517391D02*
X135816415Y-99959333D01*
X136163169Y-99422203D02*
X136258356Y-99517391D01*
X135779976Y-100099670D02*
X135632839Y-99952534D01*
X139538324Y-98340502D02*
X139538324Y-98240502D01*
X134688576Y-103190250D02*
X139538324Y-98340502D01*
X129738829Y-98340502D02*
X134588576Y-103190250D01*
X134688576Y-93390755D02*
X139538324Y-98240502D01*
X134588576Y-93390755D02*
X129738829Y-98240502D01*
X134688576Y-103190250D02*
X134588576Y-103190250D01*
X129738829Y-98240502D02*
X129738829Y-98340502D01*
X134588576Y-93390755D02*
X134688576Y-93390755D01*
X136830607Y-102462432D02*
X136123500Y-101755326D01*
X137184161Y-102108879D02*
X136477054Y-101401772D01*
X138810506Y-96098471D02*
X138103399Y-96805578D01*
X131880860Y-101896747D02*
X132587967Y-101189640D01*
X135982079Y-103310961D02*
X135274972Y-102603854D01*
X132446545Y-94118572D02*
X133153652Y-94825679D01*
X130678778Y-95886339D02*
X131385885Y-96593446D01*
X137042739Y-94330704D02*
X136335632Y-95037811D01*
X132092992Y-102108879D02*
X132800099Y-101401772D01*
X139871166Y-97159132D02*
X139164060Y-97866238D01*
X138598374Y-95886339D02*
X137891267Y-96593446D01*
X131385885Y-101401772D02*
X132092992Y-100694666D01*
X132234413Y-94330704D02*
X132941520Y-95037811D01*
X133153652Y-93411466D02*
X133860759Y-94118572D01*
X135769947Y-103523093D02*
X135062840Y-102815986D01*
X133295073Y-93270044D02*
X134002180Y-93977151D01*
X130466646Y-100482533D02*
X131173753Y-99775427D01*
X138103399Y-95391365D02*
X137396293Y-96098471D01*
X139517613Y-99775427D02*
X138810506Y-99068320D01*
X139871166Y-99421873D02*
X139164060Y-98714767D01*
X129759539Y-99775427D02*
X130466646Y-99068320D01*
X129405986Y-97159132D02*
X130113093Y-97866238D01*
X130678778Y-100694666D02*
X131385885Y-99987559D01*
X138456953Y-95744918D02*
X137749846Y-96452025D01*
X139517613Y-96805578D02*
X138810506Y-97512685D01*
X131173753Y-101189640D02*
X131880860Y-100482533D01*
X130466646Y-96098471D02*
X131173753Y-96805578D01*
X132234413Y-102250300D02*
X132941520Y-101543194D01*
X133507205Y-93057912D02*
X134214312Y-93765019D01*
X139164060Y-96452025D02*
X138456953Y-97159132D01*
X139305481Y-99987559D02*
X138598374Y-99280452D01*
X130820200Y-100836087D02*
X131527306Y-100128980D01*
X129971671Y-96593446D02*
X130678778Y-97300553D01*
X137396293Y-94684258D02*
X136689186Y-95391365D01*
X139659034Y-99634005D02*
X138951928Y-98926899D01*
X135982079Y-93270044D02*
X135274972Y-93977151D01*
X135769947Y-93057912D02*
X135062840Y-93765019D01*
X132941520Y-93623598D02*
X133648627Y-94330704D01*
X136830607Y-94118572D02*
X136123500Y-94825679D01*
X139164060Y-100128980D02*
X138456953Y-99421873D01*
X130113093Y-96452025D02*
X130820200Y-97159132D01*
X137891267Y-101401772D02*
X137184161Y-100694666D01*
X131173753Y-95391365D02*
X131880860Y-96098471D01*
X131385885Y-95179233D02*
X132092992Y-95886339D01*
X139305481Y-96593446D02*
X138598374Y-97300553D01*
X137537714Y-101755326D02*
X136830607Y-101048219D01*
X133153652Y-103169539D02*
X133860759Y-102462432D01*
X137749846Y-95037811D02*
X137042739Y-95744918D01*
X130325225Y-100341112D02*
X131032332Y-99634005D01*
X137184161Y-94472126D02*
X136477054Y-95179233D01*
X131032332Y-101048219D02*
X131739438Y-100341112D01*
X138103399Y-101189640D02*
X137396293Y-100482533D01*
X131739438Y-94825679D02*
X132446545Y-95532786D01*
X131880860Y-94684258D02*
X132587967Y-95391365D01*
X132092992Y-94472126D02*
X132800099Y-95179233D01*
X136123500Y-103169539D02*
X135416394Y-102462432D01*
X138598374Y-100694666D02*
X137891267Y-99987559D01*
X130113093Y-100128980D02*
X130820200Y-99421873D01*
X131032332Y-95532786D02*
X131739438Y-96239893D01*
X137042739Y-102250300D02*
X136335632Y-101543194D01*
X131527306Y-101543194D02*
X132234413Y-100836087D01*
X132800099Y-93765019D02*
X133507205Y-94472126D01*
X133295073Y-103310961D02*
X134002180Y-102603854D01*
X129618118Y-99634005D02*
X130325225Y-98926899D01*
X136477054Y-102815986D02*
X135769947Y-102108879D01*
X136335632Y-102957407D02*
X135628526Y-102250300D01*
X136689186Y-93977151D02*
X135982079Y-94684258D01*
X132587967Y-102603854D02*
X133295073Y-101896747D01*
X137396293Y-101896747D02*
X136689186Y-101189640D01*
X130325225Y-96239893D02*
X131032332Y-96947000D01*
X138810506Y-100482533D02*
X138103399Y-99775427D01*
X130820200Y-95744918D02*
X131527306Y-96452025D01*
X131739438Y-101755326D02*
X132446545Y-101048219D01*
X138244821Y-101048219D02*
X137537714Y-100341112D01*
X138951928Y-100341112D02*
X138244821Y-99634005D01*
X137537714Y-94825679D02*
X136830607Y-95532786D01*
X138951928Y-96239893D02*
X138244821Y-96947000D01*
X129405986Y-99421873D02*
X130113093Y-98714767D01*
X132941520Y-102957407D02*
X133648627Y-102250300D01*
X136335632Y-93623598D02*
X135628526Y-94330704D01*
X138244821Y-95532786D02*
X137537714Y-96239893D01*
X132446545Y-102462432D02*
X133153652Y-101755326D01*
X139659034Y-96947000D02*
X138951928Y-97654106D01*
X136477054Y-93765019D02*
X135769947Y-94472126D01*
X129971671Y-99987559D02*
X130678778Y-99280452D01*
X129618118Y-96947000D02*
X130325225Y-97654106D01*
X132800099Y-102815986D02*
X133507205Y-102108879D01*
X137749846Y-101543194D02*
X137042739Y-100836087D01*
X132587967Y-93977151D02*
X133295073Y-94684258D01*
X136689186Y-102603854D02*
X135982079Y-101896747D01*
X137891267Y-95179233D02*
X137184161Y-95886339D01*
X129759539Y-96805578D02*
X130466646Y-97512685D01*
X138456953Y-100836087D02*
X137749846Y-100128980D01*
X131527306Y-95037811D02*
X132234413Y-95744918D01*
X136123500Y-93411466D02*
X135416394Y-94118572D01*
X133507205Y-103523093D02*
X134214312Y-102815986D01*
X138244821Y-95532786D02*
X138456953Y-95744918D01*
X136335632Y-102957407D02*
X136123500Y-103169539D01*
X138456953Y-100836087D02*
X138244821Y-101048219D01*
X130678778Y-95886339D02*
X130466646Y-96098471D01*
X130820200Y-100836087D02*
X131032332Y-101048219D01*
X133153652Y-93411466D02*
X132941520Y-93623598D01*
X138598374Y-95886339D02*
X138810506Y-96098471D01*
X136830607Y-94118572D02*
X137042739Y-94330704D01*
X138103399Y-101189640D02*
X137891267Y-101401772D01*
X136477054Y-93765019D02*
X136689186Y-93977151D01*
X139164060Y-100128980D02*
X138951928Y-100341112D01*
X133295073Y-103310961D02*
X133507205Y-103523093D01*
X130466646Y-100482533D02*
X130678778Y-100694666D01*
X135769947Y-93057912D02*
X135982079Y-93270044D01*
X135982079Y-103310961D02*
X135769947Y-103523093D01*
X131880860Y-101896747D02*
X132092992Y-102108879D01*
X138951928Y-96239893D02*
X139164060Y-96452025D01*
X137396293Y-101896747D02*
X137184161Y-102108879D01*
X132092992Y-94472126D02*
X131880860Y-94684258D01*
X130325225Y-96239893D02*
X130113093Y-96452025D01*
X131032332Y-95532786D02*
X130820200Y-95744918D01*
X132800099Y-93765019D02*
X132587967Y-93977151D01*
X129759539Y-99775427D02*
X129971671Y-99987559D01*
X138810506Y-100482533D02*
X138598374Y-100694666D01*
X132446545Y-94118572D02*
X132234413Y-94330704D01*
X137184161Y-94472126D02*
X137396293Y-94684258D01*
X131739438Y-94825679D02*
X131527306Y-95037811D01*
X131527306Y-101543194D02*
X131739438Y-101755326D01*
X132234413Y-102250300D02*
X132446545Y-102462432D01*
X133507205Y-93057912D02*
X133295073Y-93270044D01*
X132587967Y-102603854D02*
X132800099Y-102815986D01*
X137891267Y-95179233D02*
X138103399Y-95391365D01*
X129618118Y-96947000D02*
X129405986Y-97159132D01*
X131385885Y-95179233D02*
X131173753Y-95391365D01*
X137042739Y-102250300D02*
X136830607Y-102462432D01*
X139659034Y-96947000D02*
X139871166Y-97159132D01*
X130113093Y-100128980D02*
X130325225Y-100341112D01*
X137537714Y-94825679D02*
X137749846Y-95037811D01*
X139517613Y-99775427D02*
X139305481Y-99987559D01*
X129971671Y-96593446D02*
X129759539Y-96805578D01*
X136689186Y-102603854D02*
X136477054Y-102815986D01*
X136123500Y-93411466D02*
X136335632Y-93623598D01*
X137749846Y-101543194D02*
X137537714Y-101755326D01*
X129405986Y-99421873D02*
X129618118Y-99634005D01*
X131173753Y-101189640D02*
X131385885Y-101401772D01*
X139305481Y-96593446D02*
X139517613Y-96805578D01*
X132941520Y-102957407D02*
X133153652Y-103169539D01*
X139871166Y-99421873D02*
X139659034Y-99634005D01*
X133756286Y-97885606D02*
X133661099Y-97980793D01*
X133661099Y-97790419D02*
X133756286Y-97885606D01*
X134096241Y-97355276D02*
X133661099Y-97790419D01*
X134001054Y-97260088D02*
X134096241Y-97355276D01*
X133565911Y-97695231D02*
X134001054Y-97260088D01*
X133470724Y-97600044D02*
X133565911Y-97695231D01*
X133375536Y-97695231D02*
X133470724Y-97600044D01*
X133661099Y-97980793D02*
X133375536Y-97695231D01*
X135197696Y-98946266D02*
X135109308Y-99034655D01*
X135415267Y-99000659D02*
X135320080Y-98905472D01*
X135054915Y-99116244D02*
X135150102Y-99211431D01*
X133139692Y-97486584D02*
X133098154Y-97359632D01*
X133098154Y-97359632D02*
X133372243Y-97270393D01*
X133539140Y-97356551D02*
X133139692Y-97486584D01*
X117292277Y-101037467D02*
X117192277Y-100937467D01*
X135636132Y-99131223D02*
G75*
G02*
X135730682Y-99152895I29818J-86999D01*
G01*
X134179743Y-97901116D02*
G75*
G02*
X134172413Y-97741444I73551J83381D01*
G01*
X134340265Y-97913546D02*
G75*
G02*
X134179743Y-97901116I-74125J85459D01*
G01*
X134330491Y-97752705D02*
G75*
G02*
X134340265Y-97913546I-72131J-85101D01*
G01*
X134172413Y-97741443D02*
G75*
G02*
X134330492Y-97752705I73960J-76930D01*
G01*
X133965253Y-98121768D02*
G75*
G02*
X133965359Y-98002891I54157J59390D01*
G01*
X134081688Y-98117732D02*
G75*
G02*
X133965252Y-98121769I-60112J52612D01*
G01*
X134085831Y-97997579D02*
G75*
G02*
X134081687Y-98117732I-59580J-58093D01*
G01*
X133965359Y-98002891D02*
G75*
G02*
X134085830Y-97997579I62715J-53569D01*
G01*
X133470192Y-97043049D02*
G75*
G02*
X133614461Y-97036674I75248J-67280D01*
G01*
X133614460Y-97036674D02*
G75*
G02*
X133606175Y-97179030I-74927J-67058D01*
G01*
X133606174Y-97179029D02*
G75*
G02*
X133465200Y-97186573I-74153J64740D01*
G01*
X133465200Y-97186573D02*
G75*
G02*
X133470193Y-97043048I70493J69397D01*
G01*
X134945280Y-99101796D02*
G75*
G02*
X134941667Y-98998322I46311J53417D01*
G01*
X135154245Y-98731351D02*
G75*
G02*
X135315193Y-98737406I77585J-79814D01*
G01*
X135315193Y-98737407D02*
G75*
G02*
X135320080Y-98905472I-83460J-86530D01*
G01*
X135415586Y-98647425D02*
G75*
G02*
X135415267Y-99000659I-169650J-176464D01*
G01*
X135060015Y-98635208D02*
G75*
G02*
X135415586Y-98647424I171919J-176853D01*
G01*
X135022513Y-98869032D02*
G75*
G02*
X135060014Y-98635207I169355J92758D01*
G01*
X134840425Y-98909190D02*
G75*
G02*
X135022513Y-98869033I122430J-122238D01*
G01*
X134849455Y-99196345D02*
G75*
G02*
X134840425Y-98909190I136122J148000D01*
G01*
X135054915Y-99116244D02*
G75*
G02*
X134945279Y-99101796I-45131J80733D01*
G01*
X133867727Y-98214619D02*
G75*
G02*
X133865603Y-97912271I142157J152180D01*
G01*
X134170076Y-98219718D02*
G75*
G02*
X133867728Y-98214619I-148798J143427D01*
G01*
X134424723Y-97656562D02*
G75*
G02*
X134444058Y-98000128I-137298J-180054D01*
G01*
X134083706Y-97639776D02*
G75*
G02*
X134424723Y-97656561I162949J-161978D01*
G01*
X134019327Y-97849485D02*
G75*
G02*
X134083706Y-97639776I223304J46184D01*
G01*
X133707842Y-96939680D02*
G75*
G02*
X133706037Y-97269543I-165584J-164030D01*
G01*
X133380423Y-96942442D02*
G75*
G02*
X133707843Y-96939681I165063J-159052D01*
G01*
X133372243Y-97270393D02*
G75*
G02*
X133380423Y-96942443I163695J159994D01*
G01*
X133266751Y-100578051D02*
G75*
G02*
X133157115Y-100563603I-45131J80733D01*
G01*
X133157116Y-100563603D02*
G75*
G02*
X133153503Y-100460129I46311J53417D01*
G01*
X133366081Y-100193158D02*
G75*
G02*
X133527029Y-100199214I77585J-79814D01*
G01*
X133527029Y-100199214D02*
G75*
G02*
X133531916Y-100367279I-83460J-86530D01*
G01*
X133627422Y-100109231D02*
G75*
G02*
X133627103Y-100462466I-169651J-176465D01*
G01*
X133271851Y-100097014D02*
G75*
G02*
X133627422Y-100109232I171918J-176854D01*
G01*
X133234349Y-100330839D02*
G75*
G02*
X133271850Y-100097014I169355J92758D01*
G01*
X133052261Y-100370997D02*
G75*
G02*
X133234349Y-100330840I122430J-122238D01*
G01*
X133061290Y-100658154D02*
G75*
G02*
X133052260Y-100370997I136123J148001D01*
G01*
X149233851Y-102210812D02*
G75*
G02*
X149033851Y-102233200I-148598J422948D01*
G01*
X147751767Y-102233199D02*
G75*
G02*
X147551767Y-102210812I-49374J463456D01*
G01*
X146642810Y-94416663D02*
G75*
G02*
X146742190Y-94317283I99999J-619D01*
G01*
X150142807Y-102217901D02*
G75*
G02*
X150043428Y-102317280I-99998J619D01*
G01*
X146742189Y-102317280D02*
G75*
G02*
X146642811Y-102217900I620J99998D01*
G01*
X150043428Y-94317284D02*
G75*
G02*
X150142807Y-94416663I-619J-99998D01*
G01*
X148833851Y-101624226D02*
G75*
G02*
X149233851Y-102024226I0J-400000D01*
G01*
X147551767Y-102024226D02*
G75*
G02*
X147951767Y-101624226I400000J0D01*
G01*
X134522461Y-101928947D02*
G75*
G02*
X134500576Y-101798278I105181J84783D01*
G01*
X134600118Y-101937128D02*
G75*
G02*
X134522460Y-101928948I-34717J43125D01*
G01*
X134672784Y-101456517D02*
G75*
G02*
X134982993Y-101464803I151252J-148378D01*
G01*
X134982993Y-101464803D02*
G75*
G02*
X135037174Y-101744841I-174957J-179110D01*
G01*
X134773497Y-101546180D02*
G75*
G02*
X134884300Y-101556485I50193J-61156D01*
G01*
X134752355Y-101707977D02*
G75*
G02*
X134773496Y-101546180I204064J55616D01*
G01*
X134752355Y-101707977D02*
G75*
G02*
X134699874Y-102027747I-338518J-108634D01*
G01*
X134699875Y-102027748D02*
G75*
G02*
X134426210Y-102023073I-134540J136546D01*
G01*
X134426211Y-102023073D02*
G75*
G02*
X134364275Y-101792222I192017J175251D01*
G01*
X121392277Y-102937467D02*
G75*
G02*
X121292277Y-102837467I0J100000D01*
G01*
X121292277Y-101037467D02*
G75*
G02*
X121392277Y-100937467I100000J0D01*
G01*
X122042277Y-100937467D02*
G75*
G02*
X122142277Y-101037467I0J-100000D01*
G01*
X122142277Y-102837467D02*
G75*
G02*
X122042277Y-102937467I-100000J0D01*
G01*
X120792277Y-102837467D02*
G75*
G02*
X120692277Y-102937467I-100000J0D01*
G01*
X117792277Y-101037467D02*
G75*
G02*
X117892277Y-100937467I100000J0D01*
G01*
X117892277Y-102937467D02*
G75*
G02*
X117792277Y-102837467I0J100000D01*
G01*
X120692277Y-100937467D02*
G75*
G02*
X120792277Y-101037467I0J-100000D01*
G01*
X116542277Y-102937467D02*
G75*
G02*
X116442277Y-102837467I0J100000D01*
G01*
X116442277Y-101037467D02*
G75*
G02*
X116542277Y-100937467I100000J0D01*
G01*
X117292277Y-102837467D02*
G75*
G02*
X117192277Y-102937467I-100000J0D01*
G01*
X122192277Y-100187467D02*
G75*
G02*
X122292277Y-100287467I0J-100000D01*
G01*
X116392277Y-103687467D02*
G75*
G02*
X116292277Y-103587467I0J100000D01*
G01*
X116292277Y-100287467D02*
G75*
G02*
X116392277Y-100187467I100000J0D01*
G01*
X122292277Y-103587467D02*
G75*
G02*
X122192277Y-103687467I-100000J0D01*
G01*
X108435241Y-101999858D02*
G75*
G02*
X108765785Y-101875012I330544J-375154D01*
G01*
X108599153Y-102183834D02*
G75*
G02*
X108761500Y-102121428I165272J-187577D01*
G01*
X108761500Y-94728573D02*
G75*
G02*
X108599153Y-94666167I2925J249983D01*
G01*
X108765785Y-94974989D02*
G75*
G02*
X108435241Y-94850143I0J500000D01*
G01*
X108670001Y-101525000D02*
G75*
G02*
X108769936Y-101621411I-1J-100000D01*
G01*
X108769937Y-95228590D02*
G75*
G02*
X108670000Y-95325001I-99937J3590D01*
G01*
X108324788Y-101525001D02*
G75*
G02*
X108120000Y-101275000I25102J229439D01*
G01*
X108120001Y-95575000D02*
G75*
G02*
X108324789Y-95325001I229889J20561D01*
G01*
X108263395Y-95575000D02*
G75*
G02*
X108468183Y-95325001I229889J20561D01*
G01*
X108468182Y-101525000D02*
G75*
G02*
X108263395Y-101275000I25102J229438D01*
G01*
X145937588Y-101537050D02*
G75*
G02*
X140987588Y-101537050I-2475000J0D01*
G01*
X140987588Y-95237050D02*
G75*
G02*
X145937588Y-95237050I2475000J0D01*
G01*
X141412588Y-95237050D02*
G75*
G02*
X145512588Y-95237050I2050000J0D01*
G01*
X145512588Y-101537050D02*
G75*
G02*
X141412588Y-101537050I-2050000J0D01*
G01*
X132751400Y-100157887D02*
G75*
G02*
X132752569Y-100017975I65451J69414D01*
G01*
X132650688Y-99929481D02*
G75*
G02*
X133000098Y-99812727I326764J-396693D01*
G01*
X132650794Y-100247658D02*
G75*
G02*
X132650688Y-99929480I155962J159141D01*
G01*
X133015184Y-100231297D02*
G75*
G02*
X132650794Y-100247657I-189875J162874D01*
G01*
X134884088Y-98675152D02*
G75*
G02*
X134329323Y-98676214I-277896J267339D01*
G01*
X134888337Y-98120175D02*
G75*
G02*
X134884088Y-98675152I-259124J-275521D01*
G01*
X134558049Y-98134517D02*
G75*
G02*
X134793574Y-98215787I32211J-288568D01*
G01*
X134793574Y-98215787D02*
G75*
G02*
X134788688Y-98580177I-172477J-179915D01*
G01*
X134788689Y-98580177D02*
G75*
G02*
X134428229Y-98584745I-182440J172075D01*
G01*
X121680000Y-98695000D02*
G75*
G02*
X121580000Y-98795000I-100000J0D01*
G01*
X116700000Y-98795000D02*
G75*
G02*
X116600000Y-98695000I0J100000D01*
G01*
X121580000Y-93715001D02*
G75*
G02*
X121679999Y-93815000I0J-99999D01*
G01*
X116600000Y-93815000D02*
G75*
G02*
X116700000Y-93715000I100000J0D01*
G01*
X119380000Y-121920000D02*
X118110000Y-121920000D01*
X119380000Y-120650000D02*
X119380000Y-121920000D01*
X117067071Y-112650000D02*
X116670000Y-112650000D01*
X117067071Y-113410000D02*
X116670000Y-113410000D01*
X108010000Y-112650000D02*
X114010000Y-112650000D01*
X108010000Y-113410000D02*
X108010000Y-112650000D01*
X114010000Y-113410000D02*
X108010000Y-113410000D01*
X116670000Y-114300000D02*
X114010000Y-114300000D01*
X117067071Y-115190000D02*
X116670000Y-115190000D01*
X117067071Y-115950000D02*
X116670000Y-115950000D01*
X108010000Y-115190000D02*
X114010000Y-115190000D01*
X108010000Y-115950000D02*
X108010000Y-115190000D01*
X114010000Y-115950000D02*
X108010000Y-115950000D01*
X116670000Y-116840000D02*
X114010000Y-116840000D01*
X117067071Y-117730000D02*
X116670000Y-117730000D01*
X117067071Y-118490000D02*
X116670000Y-118490000D01*
X108010000Y-117730000D02*
X114010000Y-117730000D01*
X108010000Y-118490000D02*
X108010000Y-117730000D01*
X114010000Y-118490000D02*
X108010000Y-118490000D01*
X116670000Y-119380000D02*
X114010000Y-119380000D01*
X117000000Y-120270000D02*
X116670000Y-120270000D01*
X117000000Y-121030000D02*
X116670000Y-121030000D01*
X114010000Y-120370000D02*
X108010000Y-120370000D01*
X114010000Y-120490000D02*
X108010000Y-120490000D01*
X114010000Y-120610000D02*
X108010000Y-120610000D01*
X114010000Y-120730000D02*
X108010000Y-120730000D01*
X114010000Y-120850000D02*
X108010000Y-120850000D01*
X114010000Y-120970000D02*
X108010000Y-120970000D01*
X108010000Y-120270000D02*
X114010000Y-120270000D01*
X108010000Y-121030000D02*
X108010000Y-120270000D01*
X114010000Y-121030000D02*
X108010000Y-121030000D01*
X114010000Y-121980000D02*
X116670000Y-121980000D01*
X114010000Y-111700000D02*
X114010000Y-121980000D01*
X116670000Y-111700000D02*
X114010000Y-111700000D01*
X116670000Y-121980000D02*
X116670000Y-111700000D01*
X152535000Y-65805000D02*
X153035000Y-66805000D01*
X153535000Y-65805000D02*
X152535000Y-65805000D01*
X153035000Y-66805000D02*
X153535000Y-65805000D01*
X135745000Y-68505000D02*
X135745000Y-67195000D01*
X135745000Y-68505000D02*
X135745000Y-68505000D01*
X118645000Y-68505000D02*
X135745000Y-68505000D01*
X118645000Y-75005000D02*
X118645000Y-68505000D01*
X156945000Y-75005000D02*
X118645000Y-75005000D01*
X156945000Y-68505000D02*
X156945000Y-75005000D01*
X139845000Y-68505000D02*
X156945000Y-68505000D01*
X139845000Y-67195000D02*
X139845000Y-68505000D01*
X117345000Y-67195000D02*
X158245000Y-67195000D01*
X117345000Y-76315000D02*
X117345000Y-67195000D01*
X158245000Y-76315000D02*
X117345000Y-76315000D01*
X158245000Y-67195000D02*
X158245000Y-76315000D01*
X146740000Y-79988000D02*
X146740000Y-83588000D01*
X147467205Y-79463816D02*
G75*
G03*
X146740000Y-79988000I1122795J-2324184D01*
G01*
X149688807Y-79431600D02*
G75*
G02*
X151190000Y-81788000I-1098807J-2356400D01*
G01*
X149688807Y-84144400D02*
G75*
G03*
X151190000Y-81788000I-1098807J2356400D01*
G01*
X147467205Y-84112184D02*
G75*
G02*
X146740000Y-83588000I1122795J2324184D01*
G01*
X135160000Y-78386000D02*
X135160000Y-81126000D01*
X135160000Y-81126000D02*
X141700000Y-81126000D01*
X141700000Y-81126000D02*
X141700000Y-78386000D01*
X141700000Y-78386000D02*
X135160000Y-78386000D01*
X134390000Y-79756000D02*
X135160000Y-79756000D01*
X142470000Y-79756000D02*
X141700000Y-79756000D01*
X134390000Y-83820000D02*
X135160000Y-83820000D01*
X142470000Y-83820000D02*
X141700000Y-83820000D01*
X135160000Y-85190000D02*
X141700000Y-85190000D01*
X135160000Y-82450000D02*
X135160000Y-85190000D01*
X141700000Y-82450000D02*
X135160000Y-82450000D01*
X141700000Y-85190000D02*
X141700000Y-82450000D01*
D12*
X179351666Y-57237380D02*
X179351666Y-57951666D01*
X179304047Y-58094523D01*
X179208809Y-58189761D01*
X179065952Y-58237380D01*
X178970714Y-58237380D01*
X179732619Y-57237380D02*
X180351666Y-57237380D01*
X180018333Y-57618333D01*
X180161190Y-57618333D01*
X180256428Y-57665952D01*
X180304047Y-57713571D01*
X180351666Y-57808809D01*
X180351666Y-58046904D01*
X180304047Y-58142142D01*
X180256428Y-58189761D01*
X180161190Y-58237380D01*
X179875476Y-58237380D01*
X179780238Y-58189761D01*
X179732619Y-58142142D01*
X171465952Y-66746380D02*
X170894523Y-66746380D01*
X171180238Y-66746380D02*
X171180238Y-65746380D01*
X171085000Y-65889238D01*
X170989761Y-65984476D01*
X170894523Y-66032095D01*
X171846904Y-65841619D02*
X171894523Y-65794000D01*
X171989761Y-65746380D01*
X172227857Y-65746380D01*
X172323095Y-65794000D01*
X172370714Y-65841619D01*
X172418333Y-65936857D01*
X172418333Y-66032095D01*
X172370714Y-66174952D01*
X171799285Y-66746380D01*
X172418333Y-66746380D01*
X172704047Y-65746380D02*
X173037380Y-66746380D01*
X173370714Y-65746380D01*
X175133095Y-65794000D02*
X175037857Y-65746380D01*
X174895000Y-65746380D01*
X174752142Y-65794000D01*
X174656904Y-65889238D01*
X174609285Y-65984476D01*
X174561666Y-66174952D01*
X174561666Y-66317809D01*
X174609285Y-66508285D01*
X174656904Y-66603523D01*
X174752142Y-66698761D01*
X174895000Y-66746380D01*
X174990238Y-66746380D01*
X175133095Y-66698761D01*
X175180714Y-66651142D01*
X175180714Y-66317809D01*
X174990238Y-66317809D01*
X175609285Y-66746380D02*
X175609285Y-65746380D01*
X176180714Y-66746380D01*
X176180714Y-65746380D01*
X176656904Y-66746380D02*
X176656904Y-65746380D01*
X176895000Y-65746380D01*
X177037857Y-65794000D01*
X177133095Y-65889238D01*
X177180714Y-65984476D01*
X177228333Y-66174952D01*
X177228333Y-66317809D01*
X177180714Y-66508285D01*
X177133095Y-66603523D01*
X177037857Y-66698761D01*
X176895000Y-66746380D01*
X176656904Y-66746380D01*
X171894523Y-55967380D02*
X171418333Y-55967380D01*
X171370714Y-56443571D01*
X171418333Y-56395952D01*
X171513571Y-56348333D01*
X171751666Y-56348333D01*
X171846904Y-56395952D01*
X171894523Y-56443571D01*
X171942142Y-56538809D01*
X171942142Y-56776904D01*
X171894523Y-56872142D01*
X171846904Y-56919761D01*
X171751666Y-56967380D01*
X171513571Y-56967380D01*
X171418333Y-56919761D01*
X171370714Y-56872142D01*
X172227857Y-55967380D02*
X172561190Y-56967380D01*
X172894523Y-55967380D01*
X175133095Y-56015000D02*
X175037857Y-55967380D01*
X174895000Y-55967380D01*
X174752142Y-56015000D01*
X174656904Y-56110238D01*
X174609285Y-56205476D01*
X174561666Y-56395952D01*
X174561666Y-56538809D01*
X174609285Y-56729285D01*
X174656904Y-56824523D01*
X174752142Y-56919761D01*
X174895000Y-56967380D01*
X174990238Y-56967380D01*
X175133095Y-56919761D01*
X175180714Y-56872142D01*
X175180714Y-56538809D01*
X174990238Y-56538809D01*
X175609285Y-56967380D02*
X175609285Y-55967380D01*
X176180714Y-56967380D01*
X176180714Y-55967380D01*
X176656904Y-56967380D02*
X176656904Y-55967380D01*
X176895000Y-55967380D01*
X177037857Y-56015000D01*
X177133095Y-56110238D01*
X177180714Y-56205476D01*
X177228333Y-56395952D01*
X177228333Y-56538809D01*
X177180714Y-56729285D01*
X177133095Y-56824523D01*
X177037857Y-56919761D01*
X176895000Y-56967380D01*
X176656904Y-56967380D01*
X162896666Y-53427380D02*
X162896666Y-54141666D01*
X162849047Y-54284523D01*
X162753809Y-54379761D01*
X162610952Y-54427380D01*
X162515714Y-54427380D01*
X163896666Y-54427380D02*
X163325238Y-54427380D01*
X163610952Y-54427380D02*
X163610952Y-53427380D01*
X163515714Y-53570238D01*
X163420476Y-53665476D01*
X163325238Y-53713095D01*
X184223066Y-59751980D02*
X184223066Y-60466266D01*
X184175447Y-60609123D01*
X184080209Y-60704361D01*
X183937352Y-60751980D01*
X183842114Y-60751980D01*
X184651638Y-59847219D02*
X184699257Y-59799600D01*
X184794495Y-59751980D01*
X185032590Y-59751980D01*
X185127828Y-59799600D01*
X185175447Y-59847219D01*
X185223066Y-59942457D01*
X185223066Y-60037695D01*
X185175447Y-60180552D01*
X184604019Y-60751980D01*
X185223066Y-60751980D01*
X181056400Y-57576980D02*
X181056400Y-56576980D01*
X181437352Y-56576980D01*
X181532590Y-56624600D01*
X181580209Y-56672219D01*
X181627828Y-56767457D01*
X181627828Y-56910314D01*
X181580209Y-57005552D01*
X181532590Y-57053171D01*
X181437352Y-57100790D01*
X181056400Y-57100790D01*
X181961161Y-56576980D02*
X182199257Y-57576980D01*
X182389733Y-56862695D01*
X182580209Y-57576980D01*
X182818304Y-56576980D01*
X183770685Y-57576980D02*
X183437352Y-57100790D01*
X183199257Y-57576980D02*
X183199257Y-56576980D01*
X183580209Y-56576980D01*
X183675447Y-56624600D01*
X183723066Y-56672219D01*
X183770685Y-56767457D01*
X183770685Y-56910314D01*
X183723066Y-57005552D01*
X183675447Y-57053171D01*
X183580209Y-57100790D01*
X183199257Y-57100790D01*
X183961161Y-57672219D02*
X184723066Y-57672219D01*
X184961161Y-57053171D02*
X185294495Y-57053171D01*
X185437352Y-57576980D02*
X184961161Y-57576980D01*
X184961161Y-56576980D01*
X185437352Y-56576980D01*
X185770685Y-56576980D02*
X186437352Y-57576980D01*
X186437352Y-56576980D02*
X185770685Y-57576980D01*
X186675447Y-56576980D02*
X187246876Y-56576980D01*
X186961161Y-57576980D02*
X186961161Y-56576980D01*
X188104019Y-57576980D02*
X187532590Y-57576980D01*
X187818304Y-57576980D02*
X187818304Y-56576980D01*
X187723066Y-56719838D01*
X187627828Y-56815076D01*
X187532590Y-56862695D01*
D11*
X193643333Y-74491904D02*
X193643333Y-75063333D01*
X193605238Y-75177619D01*
X193529047Y-75253809D01*
X193414761Y-75291904D01*
X193338571Y-75291904D01*
X194024285Y-75291904D02*
X194024285Y-74491904D01*
X194329047Y-74491904D01*
X194405238Y-74530000D01*
X194443333Y-74568095D01*
X194481428Y-74644285D01*
X194481428Y-74758571D01*
X194443333Y-74834761D01*
X194405238Y-74872857D01*
X194329047Y-74910952D01*
X194024285Y-74910952D01*
X194786190Y-74568095D02*
X194824285Y-74530000D01*
X194900476Y-74491904D01*
X195090952Y-74491904D01*
X195167142Y-74530000D01*
X195205238Y-74568095D01*
X195243333Y-74644285D01*
X195243333Y-74720476D01*
X195205238Y-74834761D01*
X194748095Y-75291904D01*
X195243333Y-75291904D01*
D12*
X192222380Y-81914619D02*
X191222380Y-81914619D01*
X191222380Y-81533666D01*
X191270000Y-81438428D01*
X191317619Y-81390809D01*
X191412857Y-81343190D01*
X191555714Y-81343190D01*
X191650952Y-81390809D01*
X191698571Y-81438428D01*
X191746190Y-81533666D01*
X191746190Y-81914619D01*
X191222380Y-81009857D02*
X192222380Y-80771761D01*
X191508095Y-80581285D01*
X192222380Y-80390809D01*
X191222380Y-80152714D01*
X192222380Y-79200333D02*
X191746190Y-79533666D01*
X192222380Y-79771761D02*
X191222380Y-79771761D01*
X191222380Y-79390809D01*
X191270000Y-79295571D01*
X191317619Y-79247952D01*
X191412857Y-79200333D01*
X191555714Y-79200333D01*
X191650952Y-79247952D01*
X191698571Y-79295571D01*
X191746190Y-79390809D01*
X191746190Y-79771761D01*
X192317619Y-79009857D02*
X192317619Y-78247952D01*
X192174761Y-78057476D02*
X192222380Y-77914619D01*
X192222380Y-77676523D01*
X192174761Y-77581285D01*
X192127142Y-77533666D01*
X192031904Y-77486047D01*
X191936666Y-77486047D01*
X191841428Y-77533666D01*
X191793809Y-77581285D01*
X191746190Y-77676523D01*
X191698571Y-77867000D01*
X191650952Y-77962238D01*
X191603333Y-78009857D01*
X191508095Y-78057476D01*
X191412857Y-78057476D01*
X191317619Y-78009857D01*
X191270000Y-77962238D01*
X191222380Y-77867000D01*
X191222380Y-77628904D01*
X191270000Y-77486047D01*
X191698571Y-77057476D02*
X191698571Y-76724142D01*
X192222380Y-76581285D02*
X192222380Y-77057476D01*
X191222380Y-77057476D01*
X191222380Y-76581285D01*
X192222380Y-75676523D02*
X192222380Y-76152714D01*
X191222380Y-76152714D01*
D11*
X111105904Y-72599476D02*
X110305904Y-72599476D01*
X110305904Y-72409000D01*
X110344000Y-72294714D01*
X110420190Y-72218523D01*
X110496380Y-72180428D01*
X110648761Y-72142333D01*
X110763047Y-72142333D01*
X110915428Y-72180428D01*
X110991619Y-72218523D01*
X111067809Y-72294714D01*
X111105904Y-72409000D01*
X111105904Y-72599476D01*
X111105904Y-71380428D02*
X111105904Y-71837571D01*
X111105904Y-71609000D02*
X110305904Y-71609000D01*
X110420190Y-71685190D01*
X110496380Y-71761380D01*
X110534476Y-71837571D01*
X111105904Y-81997476D02*
X110305904Y-81997476D01*
X110305904Y-81807000D01*
X110344000Y-81692714D01*
X110420190Y-81616523D01*
X110496380Y-81578428D01*
X110648761Y-81540333D01*
X110763047Y-81540333D01*
X110915428Y-81578428D01*
X110991619Y-81616523D01*
X111067809Y-81692714D01*
X111105904Y-81807000D01*
X111105904Y-81997476D01*
X110382095Y-81235571D02*
X110344000Y-81197476D01*
X110305904Y-81121285D01*
X110305904Y-80930809D01*
X110344000Y-80854619D01*
X110382095Y-80816523D01*
X110458285Y-80778428D01*
X110534476Y-80778428D01*
X110648761Y-80816523D01*
X111105904Y-81273666D01*
X111105904Y-80778428D01*
D12*
X176615766Y-74014080D02*
X176615766Y-74728366D01*
X176568147Y-74871223D01*
X176472909Y-74966461D01*
X176330052Y-75014080D01*
X176234814Y-75014080D01*
X177520528Y-74347414D02*
X177520528Y-75014080D01*
X177282433Y-73966461D02*
X177044338Y-74680747D01*
X177663385Y-74680747D01*
X178745000Y-75001380D02*
X178745000Y-74001380D01*
X179125952Y-74001380D01*
X179221190Y-74049000D01*
X179268809Y-74096619D01*
X179316428Y-74191857D01*
X179316428Y-74334714D01*
X179268809Y-74429952D01*
X179221190Y-74477571D01*
X179125952Y-74525190D01*
X178745000Y-74525190D01*
X179649761Y-74001380D02*
X179887857Y-75001380D01*
X180078333Y-74287095D01*
X180268809Y-75001380D01*
X180506904Y-74001380D01*
X181459285Y-75001380D02*
X181125952Y-74525190D01*
X180887857Y-75001380D02*
X180887857Y-74001380D01*
X181268809Y-74001380D01*
X181364047Y-74049000D01*
X181411666Y-74096619D01*
X181459285Y-74191857D01*
X181459285Y-74334714D01*
X181411666Y-74429952D01*
X181364047Y-74477571D01*
X181268809Y-74525190D01*
X180887857Y-74525190D01*
X181649761Y-75096619D02*
X182411666Y-75096619D01*
X182649761Y-74477571D02*
X182983095Y-74477571D01*
X183125952Y-75001380D02*
X182649761Y-75001380D01*
X182649761Y-74001380D01*
X183125952Y-74001380D01*
X183459285Y-74001380D02*
X184125952Y-75001380D01*
X184125952Y-74001380D02*
X183459285Y-75001380D01*
X184364047Y-74001380D02*
X184935476Y-74001380D01*
X184649761Y-75001380D02*
X184649761Y-74001380D01*
X185221190Y-74096619D02*
X185268809Y-74049000D01*
X185364047Y-74001380D01*
X185602142Y-74001380D01*
X185697380Y-74049000D01*
X185745000Y-74096619D01*
X185792619Y-74191857D01*
X185792619Y-74287095D01*
X185745000Y-74429952D01*
X185173571Y-75001380D01*
X185792619Y-75001380D01*
X185864523Y-79843380D02*
X185388333Y-79843380D01*
X185340714Y-80319571D01*
X185388333Y-80271952D01*
X185483571Y-80224333D01*
X185721666Y-80224333D01*
X185816904Y-80271952D01*
X185864523Y-80319571D01*
X185912142Y-80414809D01*
X185912142Y-80652904D01*
X185864523Y-80748142D01*
X185816904Y-80795761D01*
X185721666Y-80843380D01*
X185483571Y-80843380D01*
X185388333Y-80795761D01*
X185340714Y-80748142D01*
X186197857Y-79843380D02*
X186531190Y-80843380D01*
X186864523Y-79843380D01*
X181483095Y-79891000D02*
X181387857Y-79843380D01*
X181245000Y-79843380D01*
X181102142Y-79891000D01*
X181006904Y-79986238D01*
X180959285Y-80081476D01*
X180911666Y-80271952D01*
X180911666Y-80414809D01*
X180959285Y-80605285D01*
X181006904Y-80700523D01*
X181102142Y-80795761D01*
X181245000Y-80843380D01*
X181340238Y-80843380D01*
X181483095Y-80795761D01*
X181530714Y-80748142D01*
X181530714Y-80414809D01*
X181340238Y-80414809D01*
X181959285Y-80843380D02*
X181959285Y-79843380D01*
X182530714Y-80843380D01*
X182530714Y-79843380D01*
X183006904Y-80843380D02*
X183006904Y-79843380D01*
X183245000Y-79843380D01*
X183387857Y-79891000D01*
X183483095Y-79986238D01*
X183530714Y-80081476D01*
X183578333Y-80271952D01*
X183578333Y-80414809D01*
X183530714Y-80605285D01*
X183483095Y-80700523D01*
X183387857Y-80795761D01*
X183245000Y-80843380D01*
X183006904Y-80843380D01*
X177815952Y-80843380D02*
X177244523Y-80843380D01*
X177530238Y-80843380D02*
X177530238Y-79843380D01*
X177435000Y-79986238D01*
X177339761Y-80081476D01*
X177244523Y-80129095D01*
X178196904Y-79938619D02*
X178244523Y-79891000D01*
X178339761Y-79843380D01*
X178577857Y-79843380D01*
X178673095Y-79891000D01*
X178720714Y-79938619D01*
X178768333Y-80033857D01*
X178768333Y-80129095D01*
X178720714Y-80271952D01*
X178149285Y-80843380D01*
X178768333Y-80843380D01*
X179054047Y-79843380D02*
X179387380Y-80843380D01*
X179720714Y-79843380D01*
X121991380Y-79922666D02*
X121515190Y-80256000D01*
X121991380Y-80494095D02*
X120991380Y-80494095D01*
X120991380Y-80113142D01*
X121039000Y-80017904D01*
X121086619Y-79970285D01*
X121181857Y-79922666D01*
X121324714Y-79922666D01*
X121419952Y-79970285D01*
X121467571Y-80017904D01*
X121515190Y-80113142D01*
X121515190Y-80494095D01*
X121086619Y-79541714D02*
X121039000Y-79494095D01*
X120991380Y-79398857D01*
X120991380Y-79160761D01*
X121039000Y-79065523D01*
X121086619Y-79017904D01*
X121181857Y-78970285D01*
X121277095Y-78970285D01*
X121419952Y-79017904D01*
X121991380Y-79589333D01*
X121991380Y-78970285D01*
X124214000Y-80208380D02*
X123642571Y-80208380D01*
X123928285Y-80208380D02*
X123928285Y-79208380D01*
X123833047Y-79351238D01*
X123737809Y-79446476D01*
X123642571Y-79494095D01*
X124642571Y-80208380D02*
X124642571Y-79208380D01*
X124737809Y-79827428D02*
X125023523Y-80208380D01*
X125023523Y-79541714D02*
X124642571Y-79922666D01*
X125594952Y-79208380D02*
X125594952Y-79446476D01*
X125356857Y-79351238D02*
X125594952Y-79446476D01*
X125833047Y-79351238D01*
X125452095Y-79636952D02*
X125594952Y-79446476D01*
X125737809Y-79636952D01*
X121991380Y-83986666D02*
X121515190Y-84320000D01*
X121991380Y-84558095D02*
X120991380Y-84558095D01*
X120991380Y-84177142D01*
X121039000Y-84081904D01*
X121086619Y-84034285D01*
X121181857Y-83986666D01*
X121324714Y-83986666D01*
X121419952Y-84034285D01*
X121467571Y-84081904D01*
X121515190Y-84177142D01*
X121515190Y-84558095D01*
X120991380Y-83653333D02*
X120991380Y-83034285D01*
X121372333Y-83367619D01*
X121372333Y-83224761D01*
X121419952Y-83129523D01*
X121467571Y-83081904D01*
X121562809Y-83034285D01*
X121800904Y-83034285D01*
X121896142Y-83081904D01*
X121943761Y-83129523D01*
X121991380Y-83224761D01*
X121991380Y-83510476D01*
X121943761Y-83605714D01*
X121896142Y-83653333D01*
X123666380Y-84272380D02*
X123094952Y-84272380D01*
X123380666Y-84272380D02*
X123380666Y-83272380D01*
X123285428Y-83415238D01*
X123190190Y-83510476D01*
X123094952Y-83558095D01*
X124285428Y-83272380D02*
X124380666Y-83272380D01*
X124475904Y-83320000D01*
X124523523Y-83367619D01*
X124571142Y-83462857D01*
X124618761Y-83653333D01*
X124618761Y-83891428D01*
X124571142Y-84081904D01*
X124523523Y-84177142D01*
X124475904Y-84224761D01*
X124380666Y-84272380D01*
X124285428Y-84272380D01*
X124190190Y-84224761D01*
X124142571Y-84177142D01*
X124094952Y-84081904D01*
X124047333Y-83891428D01*
X124047333Y-83653333D01*
X124094952Y-83462857D01*
X124142571Y-83367619D01*
X124190190Y-83320000D01*
X124285428Y-83272380D01*
X125237809Y-83272380D02*
X125333047Y-83272380D01*
X125428285Y-83320000D01*
X125475904Y-83367619D01*
X125523523Y-83462857D01*
X125571142Y-83653333D01*
X125571142Y-83891428D01*
X125523523Y-84081904D01*
X125475904Y-84177142D01*
X125428285Y-84224761D01*
X125333047Y-84272380D01*
X125237809Y-84272380D01*
X125142571Y-84224761D01*
X125094952Y-84177142D01*
X125047333Y-84081904D01*
X124999714Y-83891428D01*
X124999714Y-83653333D01*
X125047333Y-83462857D01*
X125094952Y-83367619D01*
X125142571Y-83320000D01*
X125237809Y-83272380D01*
X126142571Y-83272380D02*
X126142571Y-83510476D01*
X125904476Y-83415238D02*
X126142571Y-83510476D01*
X126380666Y-83415238D01*
X125999714Y-83700952D02*
X126142571Y-83510476D01*
X126285428Y-83700952D01*
X106846666Y-99139285D02*
X106846666Y-98663095D01*
X107132380Y-99234523D02*
X106132380Y-98901190D01*
X107132380Y-98567857D01*
X107132380Y-97710714D02*
X107132380Y-98282142D01*
X107132380Y-97996428D02*
X106132380Y-97996428D01*
X106275238Y-98091666D01*
X106370476Y-98186904D01*
X106418095Y-98282142D01*
X156873714Y-101687380D02*
X157430857Y-101687380D01*
X157130857Y-102068333D01*
X157259428Y-102068333D01*
X157345142Y-102115952D01*
X157388000Y-102163571D01*
X157430857Y-102258809D01*
X157430857Y-102496904D01*
X157388000Y-102592142D01*
X157345142Y-102639761D01*
X157259428Y-102687380D01*
X157002285Y-102687380D01*
X156916571Y-102639761D01*
X156873714Y-102592142D01*
X157688000Y-101687380D02*
X157988000Y-102687380D01*
X158288000Y-101687380D01*
X158502285Y-101687380D02*
X159059428Y-101687380D01*
X158759428Y-102068333D01*
X158888000Y-102068333D01*
X158973714Y-102115952D01*
X159016571Y-102163571D01*
X159059428Y-102258809D01*
X159059428Y-102496904D01*
X159016571Y-102592142D01*
X158973714Y-102639761D01*
X158888000Y-102687380D01*
X158630857Y-102687380D01*
X158545142Y-102639761D01*
X158502285Y-102592142D01*
X156745142Y-100099761D02*
X156873714Y-100147380D01*
X157088000Y-100147380D01*
X157173714Y-100099761D01*
X157216571Y-100052142D01*
X157259428Y-99956904D01*
X157259428Y-99861666D01*
X157216571Y-99766428D01*
X157173714Y-99718809D01*
X157088000Y-99671190D01*
X156916571Y-99623571D01*
X156830857Y-99575952D01*
X156788000Y-99528333D01*
X156745142Y-99433095D01*
X156745142Y-99337857D01*
X156788000Y-99242619D01*
X156830857Y-99195000D01*
X156916571Y-99147380D01*
X157130857Y-99147380D01*
X157259428Y-99195000D01*
X157559428Y-99147380D02*
X157773714Y-100147380D01*
X157945142Y-99433095D01*
X158116571Y-100147380D01*
X158330857Y-99147380D01*
X158845142Y-99147380D02*
X159016571Y-99147380D01*
X159102285Y-99195000D01*
X159188000Y-99290238D01*
X159230857Y-99480714D01*
X159230857Y-99814047D01*
X159188000Y-100004523D01*
X159102285Y-100099761D01*
X159016571Y-100147380D01*
X158845142Y-100147380D01*
X158759428Y-100099761D01*
X158673714Y-100004523D01*
X158630857Y-99814047D01*
X158630857Y-99480714D01*
X158673714Y-99290238D01*
X158759428Y-99195000D01*
X158845142Y-99147380D01*
X156714285Y-97559761D02*
X156842857Y-97607380D01*
X157057142Y-97607380D01*
X157142857Y-97559761D01*
X157185714Y-97512142D01*
X157228571Y-97416904D01*
X157228571Y-97321666D01*
X157185714Y-97226428D01*
X157142857Y-97178809D01*
X157057142Y-97131190D01*
X156885714Y-97083571D01*
X156800000Y-97035952D01*
X156757142Y-96988333D01*
X156714285Y-96893095D01*
X156714285Y-96797857D01*
X156757142Y-96702619D01*
X156800000Y-96655000D01*
X156885714Y-96607380D01*
X157100000Y-96607380D01*
X157228571Y-96655000D01*
X157528571Y-96607380D02*
X157742857Y-97607380D01*
X157914285Y-96893095D01*
X158085714Y-97607380D01*
X158300000Y-96607380D01*
X159157142Y-97512142D02*
X159114285Y-97559761D01*
X158985714Y-97607380D01*
X158900000Y-97607380D01*
X158771428Y-97559761D01*
X158685714Y-97464523D01*
X158642857Y-97369285D01*
X158600000Y-97178809D01*
X158600000Y-97035952D01*
X158642857Y-96845476D01*
X158685714Y-96750238D01*
X158771428Y-96655000D01*
X158900000Y-96607380D01*
X158985714Y-96607380D01*
X159114285Y-96655000D01*
X159157142Y-96702619D01*
X159971428Y-97607380D02*
X159542857Y-97607380D01*
X159542857Y-96607380D01*
X160271428Y-97607380D02*
X160271428Y-96607380D01*
X160785714Y-97607380D02*
X160400000Y-97035952D01*
X160785714Y-96607380D02*
X160271428Y-97178809D01*
X157302285Y-94115000D02*
X157216571Y-94067380D01*
X157088000Y-94067380D01*
X156959428Y-94115000D01*
X156873714Y-94210238D01*
X156830857Y-94305476D01*
X156788000Y-94495952D01*
X156788000Y-94638809D01*
X156830857Y-94829285D01*
X156873714Y-94924523D01*
X156959428Y-95019761D01*
X157088000Y-95067380D01*
X157173714Y-95067380D01*
X157302285Y-95019761D01*
X157345142Y-94972142D01*
X157345142Y-94638809D01*
X157173714Y-94638809D01*
X157730857Y-95067380D02*
X157730857Y-94067380D01*
X158245142Y-95067380D01*
X158245142Y-94067380D01*
X158673714Y-95067380D02*
X158673714Y-94067380D01*
X158888000Y-94067380D01*
X159016571Y-94115000D01*
X159102285Y-94210238D01*
X159145142Y-94305476D01*
X159188000Y-94495952D01*
X159188000Y-94638809D01*
X159145142Y-94829285D01*
X159102285Y-94924523D01*
X159016571Y-95019761D01*
X158888000Y-95067380D01*
X158673714Y-95067380D01*
X113391666Y-122372380D02*
X113391666Y-123086666D01*
X113344047Y-123229523D01*
X113248809Y-123324761D01*
X113105952Y-123372380D01*
X113010714Y-123372380D01*
X114344047Y-122372380D02*
X113867857Y-122372380D01*
X113820238Y-122848571D01*
X113867857Y-122800952D01*
X113963095Y-122753333D01*
X114201190Y-122753333D01*
X114296428Y-122800952D01*
X114344047Y-122848571D01*
X114391666Y-122943809D01*
X114391666Y-123181904D01*
X114344047Y-123277142D01*
X114296428Y-123324761D01*
X114201190Y-123372380D01*
X113963095Y-123372380D01*
X113867857Y-123324761D01*
X113820238Y-123277142D01*
D11*
X150291809Y-82226095D02*
X150215619Y-82188000D01*
X150139428Y-82111809D01*
X150025142Y-81997523D01*
X149948952Y-81959428D01*
X149872761Y-81959428D01*
X149910857Y-82149904D02*
X149834666Y-82111809D01*
X149758476Y-82035619D01*
X149720380Y-81883238D01*
X149720380Y-81616571D01*
X149758476Y-81464190D01*
X149834666Y-81388000D01*
X149910857Y-81349904D01*
X150063238Y-81349904D01*
X150139428Y-81388000D01*
X150215619Y-81464190D01*
X150253714Y-81616571D01*
X150253714Y-81883238D01*
X150215619Y-82035619D01*
X150139428Y-82111809D01*
X150063238Y-82149904D01*
X149910857Y-82149904D01*
X151015619Y-82149904D02*
X150558476Y-82149904D01*
X150787047Y-82149904D02*
X150787047Y-81349904D01*
X150710857Y-81464190D01*
X150634666Y-81540380D01*
X150558476Y-81578476D01*
X145688095Y-83959428D02*
X145650000Y-83921333D01*
X145611904Y-83845142D01*
X145611904Y-83654666D01*
X145650000Y-83578476D01*
X145688095Y-83540380D01*
X145764285Y-83502285D01*
X145840476Y-83502285D01*
X145954761Y-83540380D01*
X146411904Y-83997523D01*
X146411904Y-83502285D01*
X146411904Y-83159428D02*
X145611904Y-83159428D01*
X146411904Y-82702285D01*
X145611904Y-82702285D01*
X145611904Y-82397523D02*
X145611904Y-81902285D01*
X145916666Y-82168952D01*
X145916666Y-82054666D01*
X145954761Y-81978476D01*
X145992857Y-81940380D01*
X146069047Y-81902285D01*
X146259523Y-81902285D01*
X146335714Y-81940380D01*
X146373809Y-81978476D01*
X146411904Y-82054666D01*
X146411904Y-82283238D01*
X146373809Y-82359428D01*
X146335714Y-82397523D01*
X146411904Y-81521333D02*
X146411904Y-81368952D01*
X146373809Y-81292761D01*
X146335714Y-81254666D01*
X146221428Y-81178476D01*
X146069047Y-81140380D01*
X145764285Y-81140380D01*
X145688095Y-81178476D01*
X145650000Y-81216571D01*
X145611904Y-81292761D01*
X145611904Y-81445142D01*
X145650000Y-81521333D01*
X145688095Y-81559428D01*
X145764285Y-81597523D01*
X145954761Y-81597523D01*
X146030952Y-81559428D01*
X146069047Y-81521333D01*
X146107142Y-81445142D01*
X146107142Y-81292761D01*
X146069047Y-81216571D01*
X146030952Y-81178476D01*
X145954761Y-81140380D01*
X145611904Y-80645142D02*
X145611904Y-80568952D01*
X145650000Y-80492761D01*
X145688095Y-80454666D01*
X145764285Y-80416571D01*
X145916666Y-80378476D01*
X146107142Y-80378476D01*
X146259523Y-80416571D01*
X146335714Y-80454666D01*
X146373809Y-80492761D01*
X146411904Y-80568952D01*
X146411904Y-80645142D01*
X146373809Y-80721333D01*
X146335714Y-80759428D01*
X146259523Y-80797523D01*
X146107142Y-80835619D01*
X145916666Y-80835619D01*
X145764285Y-80797523D01*
X145688095Y-80759428D01*
X145650000Y-80721333D01*
X145611904Y-80645142D01*
X145878571Y-79692761D02*
X146411904Y-79692761D01*
X145573809Y-79883238D02*
X146145238Y-80073714D01*
X146145238Y-79578476D01*
D12*
X136977380Y-79922666D02*
X136501190Y-80256000D01*
X136977380Y-80494095D02*
X135977380Y-80494095D01*
X135977380Y-80113142D01*
X136025000Y-80017904D01*
X136072619Y-79970285D01*
X136167857Y-79922666D01*
X136310714Y-79922666D01*
X136405952Y-79970285D01*
X136453571Y-80017904D01*
X136501190Y-80113142D01*
X136501190Y-80494095D01*
X136977380Y-78970285D02*
X136977380Y-79541714D01*
X136977380Y-79256000D02*
X135977380Y-79256000D01*
X136120238Y-79351238D01*
X136215476Y-79446476D01*
X136263095Y-79541714D01*
X139104761Y-80208380D02*
X138533333Y-80208380D01*
X138819047Y-80208380D02*
X138819047Y-79208380D01*
X138723809Y-79351238D01*
X138628571Y-79446476D01*
X138533333Y-79494095D01*
X139723809Y-79208380D02*
X139819047Y-79208380D01*
X139914285Y-79256000D01*
X139961904Y-79303619D01*
X140009523Y-79398857D01*
X140057142Y-79589333D01*
X140057142Y-79827428D01*
X140009523Y-80017904D01*
X139961904Y-80113142D01*
X139914285Y-80160761D01*
X139819047Y-80208380D01*
X139723809Y-80208380D01*
X139628571Y-80160761D01*
X139580952Y-80113142D01*
X139533333Y-80017904D01*
X139485714Y-79827428D01*
X139485714Y-79589333D01*
X139533333Y-79398857D01*
X139580952Y-79303619D01*
X139628571Y-79256000D01*
X139723809Y-79208380D01*
X140485714Y-80208380D02*
X140485714Y-79208380D01*
X140580952Y-79827428D02*
X140866666Y-80208380D01*
X140866666Y-79541714D02*
X140485714Y-79922666D01*
X136977380Y-83986666D02*
X136501190Y-84320000D01*
X136977380Y-84558095D02*
X135977380Y-84558095D01*
X135977380Y-84177142D01*
X136025000Y-84081904D01*
X136072619Y-84034285D01*
X136167857Y-83986666D01*
X136310714Y-83986666D01*
X136405952Y-84034285D01*
X136453571Y-84081904D01*
X136501190Y-84177142D01*
X136501190Y-84558095D01*
X136310714Y-83129523D02*
X136977380Y-83129523D01*
X135929761Y-83367619D02*
X136644047Y-83605714D01*
X136644047Y-82986666D01*
X139580952Y-84272380D02*
X139009523Y-84272380D01*
X139295238Y-84272380D02*
X139295238Y-83272380D01*
X139200000Y-83415238D01*
X139104761Y-83510476D01*
X139009523Y-83558095D01*
X140009523Y-84272380D02*
X140009523Y-83272380D01*
X140104761Y-83891428D02*
X140390476Y-84272380D01*
X140390476Y-83605714D02*
X140009523Y-83986666D01*
M02*
