M48
INCH,TZ
T1C0.0157
T2C0.0315
T3C0.0354
T4C0.0394
T5C0.0598
T6C0.1200
%
G90
G05
T1
X44250Y-40000
X45035Y-39715
X45715Y-35000
X45750Y-39429
X47000Y-34350
X47500Y-39429
X47500Y-40000
X48000Y-39715
X51750Y-30035
X52250Y-35000
X52500Y-30321
X53250Y-30606
X53715Y-35000
X54000Y-39429
X54000Y-40285
X54250Y-30606
X55250Y-30750
X56000Y-30750
X57250Y-34715
X57500Y-40715
X57750Y-29400
X58500Y-40715
X58785Y-37000
X58785Y-40000
X59708Y-30201
X59965Y-29750
X59965Y-30500
X60250Y-31400
X61035Y-29750
X61035Y-30500
X61035Y-34715
X61292Y-30201
X61850Y-29000
X62000Y-34000
X65811Y-35250
X66000Y-33750
T2
X66500Y-33000
X70500Y-33000
X66500Y-31400
X70500Y-31400
X52500Y-33000
X56500Y-33000
X52500Y-31400
X56500Y-31400
X66500Y-34600
X70500Y-34600
X61500Y-31400
X65500Y-31400
X58850Y-31200
X58850Y-32200
X58850Y-33200
X46600Y-31400
X50600Y-31400
X61500Y-33000
X65500Y-33000
X46600Y-33000
X50600Y-33000
T3
X44291Y-31550
X44291Y-32550
X44291Y-27850
X44291Y-28850
T4
X48250Y-23500
X48250Y-24500
X49250Y-23500
X49250Y-24500
X50250Y-23500
X50250Y-24500
X51250Y-23500
X51250Y-24500
X52250Y-23500
X52250Y-24500
X53250Y-23500
X53250Y-24500
X54250Y-23500
X54250Y-24500
X55250Y-23500
X55250Y-24500
X56250Y-23500
X56250Y-24500
X57250Y-23500
X57250Y-24500
X58250Y-23500
X58250Y-24500
X59250Y-23500
X59250Y-24500
X60250Y-23500
X60250Y-24500
X61250Y-23500
X61250Y-24500
X62250Y-23500
X62250Y-24500
X63250Y-23500
X63250Y-24500
X64250Y-23500
X64250Y-24500
X63500Y-27250
X63500Y-28250
X63500Y-29250
X43500Y-35750
X43500Y-41750
X44500Y-35750
X44500Y-41750
X45500Y-35750
X45500Y-41750
X46500Y-35750
X46500Y-41750
X47500Y-35750
X47500Y-41750
X48500Y-35750
X48500Y-41750
X49500Y-35750
X49500Y-41750
X50500Y-35750
X50500Y-41750
X51500Y-35750
X51500Y-41750
X52500Y-35750
X52500Y-41750
X53500Y-35750
X53500Y-41750
X54500Y-35750
X54500Y-41750
X55500Y-35750
X55500Y-41750
X56500Y-35750
X56500Y-41750
X57500Y-35750
X57500Y-41750
X58500Y-35750
X58500Y-41750
X59500Y-35750
X59500Y-41750
X60500Y-35750
X60500Y-41750
X61000Y-37250
X61000Y-38250
X61000Y-39250
X61000Y-40250
X61500Y-35750
X61500Y-41750
X62500Y-35750
X62500Y-41750
X48250Y-27750
X48250Y-28750
X49250Y-27750
X49250Y-28750
X50250Y-27750
X50250Y-28750
X51250Y-27750
X51250Y-28750
X52250Y-27750
X52250Y-28750
X53250Y-27750
X53250Y-28750
X54250Y-27750
X54250Y-28750
X55250Y-27750
X55250Y-28750
X56250Y-27750
X56250Y-28750
X57250Y-27750
X57250Y-28750
X58250Y-27750
X58250Y-28750
X59250Y-27750
X59250Y-28750
X60250Y-27750
X60250Y-28750
X46500Y-44500
X46500Y-45500
X46500Y-46500
X46500Y-47500
T5
X72650Y-30250
X72650Y-31750
X72650Y-33250
X72650Y-34750
X67750Y-23250
X67750Y-25000
X69250Y-23250
X69250Y-25000
T6
X44291Y-25000
X76181Y-25000
X76181Y-51969
X44291Y-51969
T4
G00X70810Y-25665
M15
G01X70810Y-26453
M16
G05
G00X73054Y-24878
M15
G01X72266Y-24878
M16
G05
G00X73054Y-27240
M15
G01X72266Y-27240
M16
G05
T0
M30
