G04 #@! TF.GenerationSoftware,KiCad,Pcbnew,(5.1.8)-1*
G04 #@! TF.CreationDate,2021-11-03T22:52:41+01:00*
G04 #@! TF.ProjectId,Greaseweazle,47726561-7365-4776-9561-7a6c652e6b69,rev?*
G04 #@! TF.SameCoordinates,Original*
G04 #@! TF.FileFunction,Soldermask,Top*
G04 #@! TF.FilePolarity,Negative*
%FSLAX46Y46*%
G04 Gerber Fmt 4.6, Leading zero omitted, Abs format (unit mm)*
G04 Created by KiCad (PCBNEW (5.1.8)-1) date 2021-11-03 22:52:41*
%MOMM*%
%LPD*%
G01*
G04 APERTURE LIST*
%ADD10C,1.700000*%
%ADD11C,3.000000*%
%ADD12R,3.000000X3.000000*%
%ADD13R,3.500000X3.500000*%
%ADD14O,2.000000X1.500000*%
%ADD15R,2.000000X1.500000*%
%ADD16C,5.100000*%
%ADD17R,1.800000X1.800000*%
%ADD18C,1.800000*%
%ADD19O,1.600000X1.600000*%
%ADD20C,1.600000*%
%ADD21R,1.700000X1.700000*%
%ADD22O,1.700000X1.700000*%
G04 APERTURE END LIST*
G36*
G01*
X162595000Y-58840000D02*
X163795000Y-58840000D01*
G75*
G02*
X164045000Y-59090000I0J-250000D01*
G01*
X164045000Y-60290000D01*
G75*
G02*
X163795000Y-60540000I-250000J0D01*
G01*
X162595000Y-60540000D01*
G75*
G02*
X162345000Y-60290000I0J250000D01*
G01*
X162345000Y-59090000D01*
G75*
G02*
X162595000Y-58840000I250000J0D01*
G01*
G37*
D10*
X160655000Y-59690000D03*
X158115000Y-59690000D03*
X155575000Y-59690000D03*
X153035000Y-59690000D03*
X150495000Y-59690000D03*
X147955000Y-59690000D03*
X145415000Y-59690000D03*
X142875000Y-59690000D03*
X140335000Y-59690000D03*
X137795000Y-59690000D03*
X135255000Y-59690000D03*
X132715000Y-59690000D03*
X130175000Y-59690000D03*
X127635000Y-59690000D03*
X125095000Y-59690000D03*
X122555000Y-59690000D03*
X163195000Y-62230000D03*
X160655000Y-62230000D03*
X158115000Y-62230000D03*
X155575000Y-62230000D03*
X153035000Y-62230000D03*
X150495000Y-62230000D03*
X147955000Y-62230000D03*
X145415000Y-62230000D03*
X142875000Y-62230000D03*
X140335000Y-62230000D03*
X137795000Y-62230000D03*
X135255000Y-62230000D03*
X132715000Y-62230000D03*
X130175000Y-62230000D03*
X127635000Y-62230000D03*
X125095000Y-62230000D03*
X122555000Y-62230000D03*
D11*
X175895000Y-63500000D03*
X172085000Y-59055000D03*
X172085000Y-63500000D03*
D12*
X175895000Y-59055000D03*
D13*
X184556400Y-69189600D03*
G36*
G01*
X183556400Y-61689600D02*
X185556400Y-61689600D01*
G75*
G02*
X186306400Y-62439600I0J-750000D01*
G01*
X186306400Y-63939600D01*
G75*
G02*
X185556400Y-64689600I-750000J0D01*
G01*
X183556400Y-64689600D01*
G75*
G02*
X182806400Y-63939600I0J750000D01*
G01*
X182806400Y-62439600D01*
G75*
G02*
X183556400Y-61689600I750000J0D01*
G01*
G37*
G36*
G01*
X178981400Y-64439600D02*
X180731400Y-64439600D01*
G75*
G02*
X181606400Y-65314600I0J-875000D01*
G01*
X181606400Y-67064600D01*
G75*
G02*
X180731400Y-67939600I-875000J0D01*
G01*
X178981400Y-67939600D01*
G75*
G02*
X178106400Y-67064600I0J875000D01*
G01*
X178106400Y-65314600D01*
G75*
G02*
X178981400Y-64439600I875000J0D01*
G01*
G37*
D14*
X194310000Y-80645000D03*
X194310000Y-78740000D03*
D15*
X194310000Y-76835000D03*
D16*
X112500000Y-132000000D03*
X193500000Y-132000000D03*
X193500000Y-63500000D03*
X112500000Y-63500000D03*
D17*
X112500000Y-73279000D03*
D18*
X112500000Y-70739000D03*
X112500000Y-80137000D03*
D17*
X112500000Y-82677000D03*
D12*
X186055000Y-77470000D03*
D11*
X178435000Y-77470000D03*
X182245000Y-77470000D03*
D19*
X128524000Y-79756000D03*
D20*
X118364000Y-79756000D03*
X118364000Y-83820000D03*
D19*
X128524000Y-83820000D03*
D10*
X154940000Y-102235000D03*
X154940000Y-99695000D03*
X154940000Y-97155000D03*
X154940000Y-94615000D03*
X110490000Y-90805000D03*
D21*
X110490000Y-106045000D03*
D10*
X113030000Y-90805000D03*
X113030000Y-106045000D03*
X115570000Y-90805000D03*
X115570000Y-106045000D03*
X118110000Y-90805000D03*
X118110000Y-106045000D03*
X120650000Y-90805000D03*
X120650000Y-106045000D03*
X123190000Y-90805000D03*
X123190000Y-106045000D03*
X125730000Y-90805000D03*
X125730000Y-106045000D03*
X128270000Y-90805000D03*
X128270000Y-106045000D03*
X130810000Y-90805000D03*
X130810000Y-106045000D03*
X133350000Y-90805000D03*
X133350000Y-106045000D03*
X135890000Y-90805000D03*
X135890000Y-106045000D03*
X138430000Y-90805000D03*
X138430000Y-106045000D03*
X140970000Y-90805000D03*
X140970000Y-106045000D03*
X143510000Y-90805000D03*
X143510000Y-106045000D03*
X146050000Y-90805000D03*
X146050000Y-106045000D03*
X148590000Y-90805000D03*
X148590000Y-106045000D03*
X151130000Y-90805000D03*
X151130000Y-106045000D03*
X153670000Y-90805000D03*
X153670000Y-106045000D03*
X156210000Y-90805000D03*
X156210000Y-106045000D03*
X158750000Y-90805000D03*
X158750000Y-106045000D03*
D21*
X118110000Y-120650000D03*
D22*
X118110000Y-118110000D03*
X118110000Y-115570000D03*
X118110000Y-113030000D03*
G36*
G01*
X152435000Y-69635000D02*
X153635000Y-69635000D01*
G75*
G02*
X153885000Y-69885000I0J-250000D01*
G01*
X153885000Y-71085000D01*
G75*
G02*
X153635000Y-71335000I-250000J0D01*
G01*
X152435000Y-71335000D01*
G75*
G02*
X152185000Y-71085000I0J250000D01*
G01*
X152185000Y-69885000D01*
G75*
G02*
X152435000Y-69635000I250000J0D01*
G01*
G37*
D10*
X150495000Y-70485000D03*
X147955000Y-70485000D03*
X145415000Y-70485000D03*
X142875000Y-70485000D03*
X140335000Y-70485000D03*
X137795000Y-70485000D03*
X135255000Y-70485000D03*
X132715000Y-70485000D03*
X130175000Y-70485000D03*
X127635000Y-70485000D03*
X125095000Y-70485000D03*
X122555000Y-70485000D03*
X153035000Y-73025000D03*
X150495000Y-73025000D03*
X147955000Y-73025000D03*
X145415000Y-73025000D03*
X142875000Y-73025000D03*
X140335000Y-73025000D03*
X137795000Y-73025000D03*
X135255000Y-73025000D03*
X132715000Y-73025000D03*
X130175000Y-73025000D03*
X127635000Y-73025000D03*
X125095000Y-73025000D03*
X122555000Y-73025000D03*
M02*
